<?xml version="1.0" encoding="iso-8859-1"?>
<!DOCTYPE svg PUBLIC "-//W3C//DTD SVG 1.1//EN" "http://www.w3.org/Graphics/SVG/1.1/DTD/svg11.dtd">
<svg version="1.1" xmlns="http://www.w3.org/2000/svg" xmlns:xlink="http://www.w3.org/1999/xlink" x="0px" y="0px" width="29" height="30" viewBox="0 0 29 30" xml:space="preserve">
    <g transform="translate(-450 -260)">
        <g xmlns="http://www.w3.org/2000/svg" xmlns:xlink="http://www.w3.org/1999/xlink" id="computer-7">
		<path d="M476,263h-23c-1.104,0-2,0.896-2,2v17c0,1.104,0.896,2,2,2h9v2h-5v1h15v-1h-5v-2h9c1.104,0,2-0.896,2-2v-17    C478,263.896,477.104,263,476,263z M466,286h-3v-2h3V286z M477,282c0,0.551-0.449,1-1,1h-9h-5h-9c-0.551,0-1-0.449-1-1v-17    c0-0.551,0.449-1,1-1h23c0.551,0,1,0.449,1,1V282z"/>
		<rect x="464" y="281" width="1" height="1"/>
		<path d="M453,280h23v-14h-23V280z M454,267h21v12h-21V267z"/>
	</g>
	
    </g>
</svg>
