<?xml version="1.0" encoding="iso-8859-1"?>
<!DOCTYPE svg PUBLIC "-//W3C//DTD SVG 1.1//EN" "http://www.w3.org/Graphics/SVG/1.1/DTD/svg11.dtd">
<svg version="1.1" xmlns="http://www.w3.org/2000/svg" xmlns:xlink="http://www.w3.org/1999/xlink" x="0px" y="0px" width="30" height="30" viewBox="0 0 30 30" xml:space="preserve">
    <g transform="translate(-570 -320)">
        <g xmlns="http://www.w3.org/2000/svg" xmlns:xlink="http://www.w3.org/1999/xlink" id="keyboard-down-7">
		<path d="M572,340h26v-16h-26V340z M573,325h24v14h-24V325z"/>
		<rect x="576" y="327" width="2" height="2"/>
		<rect x="580" y="327" width="2" height="2"/>
		<rect x="576" y="335" width="2" height="2"/>
		<rect x="592" y="335" width="2" height="2"/>
		<rect x="580" y="335" width="10" height="2"/>
		<rect x="584" y="327" width="2" height="2"/>
		<rect x="584" y="331" width="2" height="2"/>
		<rect x="588" y="331" width="2" height="2"/>
		<rect x="580" y="331" width="2" height="2"/>
		<rect x="576" y="331" width="2" height="2"/>
		<rect x="588" y="327" width="2" height="2"/>
		<rect x="592" y="327" width="2" height="2"/>
		<rect x="592" y="331" width="2" height="2"/>
		<polygon points="585,345 587,342 583,342   "/>
	</g>
	
    </g>
</svg>
