<?xml version="1.0" encoding="iso-8859-1"?>
<!DOCTYPE svg PUBLIC "-//W3C//DTD SVG 1.1//EN" "http://www.w3.org/Graphics/SVG/1.1/DTD/svg11.dtd">
<svg version="1.1" xmlns="http://www.w3.org/2000/svg" xmlns:xlink="http://www.w3.org/1999/xlink" x="0px" y="0px" width="30" height="30" viewBox="0 0 30 30" xml:space="preserve">
    <g transform="translate(-510 -320)">
        <g xmlns="http://www.w3.org/2000/svg" xmlns:xlink="http://www.w3.org/1999/xlink" id="keyboard-up-7">
		<path d="M512,346h26v-16h-26V346z M513,331h24v14h-24V331z"/>
		<rect x="516" y="333" width="2" height="2"/>
		<rect x="520" y="333" width="2" height="2"/>
		<rect x="516" y="341" width="2" height="2"/>
		<rect x="532" y="341" width="2" height="2"/>
		<rect x="520" y="341" width="10" height="2"/>
		<rect x="524" y="333" width="2" height="2"/>
		<rect x="524" y="337" width="2" height="2"/>
		<rect x="528" y="337" width="2" height="2"/>
		<rect x="520" y="337" width="2" height="2"/>
		<rect x="516" y="337" width="2" height="2"/>
		<rect x="528" y="333" width="2" height="2"/>
		<rect x="532" y="333" width="2" height="2"/>
		<rect x="532" y="337" width="2" height="2"/>
		<polygon points="523,328 527,328 525,325   "/>
	</g>
	
    </g>
</svg>
