<?xml version="1.0" encoding="iso-8859-1"?>
<!DOCTYPE svg PUBLIC "-//W3C//DTD SVG 1.1//EN" "http://www.w3.org/Graphics/SVG/1.1/DTD/svg11.dtd">
<svg version="1.1" xmlns="http://www.w3.org/2000/svg" xmlns:xlink="http://www.w3.org/1999/xlink" x="0px" y="0px" width="29" height="30" viewBox="0 0 29 30" xml:space="preserve">
    <g transform="translate(-330 -140)">
        <g xmlns="http://www.w3.org/2000/svg" xmlns:xlink="http://www.w3.org/1999/xlink" id="laptop-connect-7">
		<rect x="343" y="148" width="1" height="1"/>
		<rect x="345" y="148" width="1" height="1"/>
		<rect x="347" y="148" width="1" height="1"/>
		<rect x="349" y="148" width="1" height="1"/>
		<rect x="351" y="148" width="1" height="1"/>
		<rect x="351" y="150" width="1" height="1"/>
		<rect x="351" y="152" width="1" height="1"/>
		<rect x="351" y="154" width="1" height="1"/>
		<rect x="345" y="161" width="1" height="1"/>
		<rect x="343" y="161" width="1" height="1"/>
		<rect x="341" y="161" width="1" height="1"/>
		<rect x="339" y="161" width="1" height="1"/>
		<rect x="337" y="161" width="1" height="1"/>
		<rect x="335" y="159" width="1" height="1"/>
		<rect x="335" y="161" width="1" height="1"/>
		<rect x="335" y="157" width="1" height="1"/>
		<path d="M347,164h10v-8h-10V164z M348,157h8v6h-8V157z"/>
		<rect x="346" y="165" width="12" height="1"/>
		<path d="M342,145h-10v8h10V145z M341,152h-8v-6h8V152z"/>
		<rect x="331" y="154" width="12" height="1"/>
	</g>
	
    </g>
</svg>
