<?xml version="1.0" encoding="iso-8859-1"?>
<!DOCTYPE svg PUBLIC "-//W3C//DTD SVG 1.1//EN" "http://www.w3.org/Graphics/SVG/1.1/DTD/svg11.dtd">
<svg version="1.1" xmlns="http://www.w3.org/2000/svg" xmlns:xlink="http://www.w3.org/1999/xlink" x="0px" y="0px" width="29" height="30" viewBox="0 0 29 30" xml:space="preserve">
    <g transform="translate(-390 -140)">
        <g xmlns="http://www.w3.org/2000/svg" xmlns:xlink="http://www.w3.org/1999/xlink" id="laptop-server-connect-7">
		<path d="M407,167h9c0.553,0,1-0.448,1-1v-11c0-0.552-0.447-1-1-1h-4h-1h-4c-0.553,0-1,0.448-1,1v11    C406,166.552,406.447,167,407,167z M407,155h4h1h4v3h-9V155z M407,159h9v3h-9V159z M407,163h9v3h-9V163z"/>
		<rect x="408" y="156" width="1" height="1"/>
		<rect x="408" y="160" width="1" height="1"/>
		<rect x="408" y="164" width="1" height="1"/>
		<rect x="403" y="148" width="1" height="1"/>
		<rect x="405" y="148" width="1" height="1"/>
		<rect x="407" y="148" width="1" height="1"/>
		<rect x="409" y="148" width="1" height="1"/>
		<rect x="411" y="148" width="1" height="1"/>
		<rect x="411" y="150" width="1" height="1"/>
		<rect x="411" y="152" width="1" height="1"/>
		<rect x="404" y="162" width="1" height="1"/>
		<rect x="402" y="162" width="1" height="1"/>
		<rect x="400" y="162" width="1" height="1"/>
		<rect x="398" y="162" width="1" height="1"/>
		<rect x="396" y="160" width="1" height="1"/>
		<rect x="396" y="162" width="1" height="1"/>
		<rect x="396" y="158" width="1" height="1"/>
		<rect x="396" y="156" width="1" height="1"/>
		<path d="M392,153h10v-8h-10V153z M393,146h8v6h-8V146z"/>
		<rect x="391" y="154" width="12" height="1"/>
	</g>
	
    </g>
</svg>
