<?xml version="1.0" encoding="iso-8859-1"?>
<!DOCTYPE svg PUBLIC "-//W3C//DTD SVG 1.1//EN" "http://www.w3.org/Graphics/SVG/1.1/DTD/svg11.dtd">
<svg version="1.1" xmlns="http://www.w3.org/2000/svg" xmlns:xlink="http://www.w3.org/1999/xlink" x="0px" y="0px" width="30" height="30" viewBox="0 0 30 30" xml:space="preserve">
    <g transform="translate(-30 -80)">
        <g xmlns="http://www.w3.org/2000/svg" xmlns:xlink="http://www.w3.org/1999/xlink" id="mobile-7">
		<path d="M39,108h12c1.104,0,2-0.896,2-2V84c0-1.104-0.896-2-2-2H39c-1.104,0-2,0.896-2,2v22C37,107.104,37.896,108,39,108z M38,84    c0-0.551,0.449-1,1-1h12c0.551,0,1,0.449,1,1v2H38V84z M38,87h14v15H38V87z M38,103h14v3c0,0.551-0.449,1-1,1H39    c-0.551,0-1-0.449-1-1V103z"/>
		<circle cx="45" cy="105" r="1"/>
		<rect x="42" y="84" width="1" height="1"/>
		<rect x="44" y="84" width="4" height="1"/>
	</g>

    </g>
</svg>
