<?xml version="1.0" encoding="iso-8859-1"?>
<!DOCTYPE svg PUBLIC "-//W3C//DTD SVG 1.1//EN" "http://www.w3.org/Graphics/SVG/1.1/DTD/svg11.dtd">
<svg version="1.1" xmlns="http://www.w3.org/2000/svg" xmlns:xlink="http://www.w3.org/1999/xlink" x="0px" y="0px" width="30" height="30" viewBox="0 0 30 30" xml:space="preserve">
    <g transform="translate(-90 -80)">
        <g xmlns="http://www.w3.org/2000/svg" xmlns:xlink="http://www.w3.org/1999/xlink" id="mobile-tick-7">
		<rect x="102" y="84" width="1" height="1"/>
		<rect x="104" y="84" width="4" height="1"/>
		<path d="M113,95.025V84c0-1.104-0.896-2-2-2H99c-1.104,0-2,0.896-2,2v22c0,1.104,0.896,2,2,2h8.413c1.337,1.237,3.121,2,5.087,2    c4.143,0,7.5-3.358,7.5-7.5C120,98.527,116.908,95.284,113,95.025z M98,84c0-0.551,0.449-1,1-1h12c0.551,0,1,0.449,1,1v2H98V84z     M98,87h14v8.025c-3.742,0.247-6.728,3.233-6.975,6.975H98V87z M98,106v-3h7.025c0.023,0.351,0.063,0.696,0.133,1.032    C105.104,104.023,105.056,104,105,104c-0.553,0-1,0.448-1,1s0.447,1,1,1c0.284,0,0.537-0.121,0.719-0.311    c0.22,0.465,0.485,0.904,0.791,1.311H99C98.449,107,98,106.551,98,106z M112.5,109c-3.59,0-6.5-2.91-6.5-6.5s2.91-6.5,6.5-6.5    s6.5,2.91,6.5,6.5S116.09,109,112.5,109z"/>
		<polygon points="111.086,104.268 108.965,102.146 108.258,102.854 111.086,105.682 116.742,100.025 116.035,99.318   "/>
	</g>
	
    </g>
</svg>
