<?xml version="1.0" encoding="iso-8859-1"?>
<!DOCTYPE svg PUBLIC "-//W3C//DTD SVG 1.1//EN" "http://www.w3.org/Graphics/SVG/1.1/DTD/svg11.dtd">
<svg version="1.1" xmlns="http://www.w3.org/2000/svg" xmlns:xlink="http://www.w3.org/1999/xlink" x="0px" y="0px" width="29" height="30" viewBox="0 0 29 30" xml:space="preserve">
    <g transform="translate(-270 -380)">
        <g xmlns="http://www.w3.org/2000/svg" xmlns:xlink="http://www.w3.org/1999/xlink" id="mouse-controller-7">
		<path d="M289,383h-3v-1h-3v1h-3c-2.209,0-4,1.791-4,4v17c0,2.209,1.791,4,4,4h9c2.209,0,4-1.791,4-4v-17    C293,384.791,291.209,383,289,383z M277,387c0-1.654,1.346-3,3-3h4v10h-7V387z M292,404c0,1.654-1.346,3-3,3h-9    c-1.654,0-3-1.346-3-3v-9h15V404z M292,394h-7v-10h4c1.654,0,3,1.346,3,3V394z"/>
	</g>
	
    </g>
</svg>
