<?xml version="1.0" encoding="iso-8859-1"?>
<!DOCTYPE svg PUBLIC "-//W3C//DTD SVG 1.1//EN" "http://www.w3.org/Graphics/SVG/1.1/DTD/svg11.dtd">
<svg version="1.1" xmlns="http://www.w3.org/2000/svg" xmlns:xlink="http://www.w3.org/1999/xlink" x="0px" y="0px" width="30" height="30" viewBox="0 0 30 30" xml:space="preserve">
    <g transform="translate(-270 -320)">
        <g xmlns="http://www.w3.org/2000/svg" xmlns:xlink="http://www.w3.org/1999/xlink" id="old-tv-7">
		<path d="M293,325h-6.991l6.239-3.565l-0.496-0.869L285,324.424l-6.752-3.858l-0.496,0.869l6.239,3.565H277c-2.209,0-4,1.791-4,4    v13c0,2.209,1.791,4,4,4v2h3v-2h10v2h3v-2c2.209,0,4-1.791,4-4v-13C297,326.791,295.209,325,293,325z M296,342    c0,1.654-1.346,3-3,3h-16c-1.654,0-3-1.346-3-3v-13c0-1.654,1.346-3,3-3h16c1.654,0,3,1.346,3,3V342z"/>
		<path d="M289,329h-8c-2.209,0-4,1.791-4,4v5c0,2.209,1.791,4,4,4h8c2.209,0,4-1.791,4-4v-5C293,330.791,291.209,329,289,329z     M292,338c0,1.654-1.346,3-3,3h-8c-1.654,0-3-1.346-3-3v-5c0-1.654,1.346-3,3-3h8c1.654,0,3,1.346,3,3V338z"/>
		<rect x="288" y="343" width="1" height="1"/>
		<rect x="280" y="343" width="7" height="1"/>
		<rect x="290" y="343" width="1" height="1"/>
	</g>
	
    </g>
</svg>
