<?xml version="1.0" encoding="iso-8859-1"?>
<!DOCTYPE svg PUBLIC "-//W3C//DTD SVG 1.1//EN" "http://www.w3.org/Graphics/SVG/1.1/DTD/svg11.dtd">
<svg version="1.1" xmlns="http://www.w3.org/2000/svg" xmlns:xlink="http://www.w3.org/1999/xlink" x="0px" y="0px" width="29" height="30" viewBox="0 0 29 30" xml:space="preserve">
    <g transform="translate(-510 -80)">
        <g xmlns="http://www.w3.org/2000/svg" xmlns:xlink="http://www.w3.org/1999/xlink" id="phablet-tick-7">
		<path d="M517,108h9.413c1.337,1.237,3.121,2,5.087,2c4.143,0,7.5-3.358,7.5-7.5c0-3.264-2.089-6.034-5-7.064V84    c0-1.104-0.896-2-2-2h-15c-1.104,0-2,0.896-2,2v22C515,107.104,515.896,108,517,108z M538,102.5c0,3.59-2.91,6.5-6.5,6.5    s-6.5-2.91-6.5-6.5s2.91-6.5,6.5-6.5S538,98.91,538,102.5z M516,84c0-0.551,0.449-1,1-1h15c0.551,0,1,0.449,1,1v2h-17V84z M516,87    h17v8.15c-0.484-0.098-0.986-0.15-1.5-0.15c-4.143,0-7.5,3.358-7.5,7.5c0,0.169,0.015,0.334,0.025,0.5H516V87z M516,104h8.15    c0.07,0.344,0.171,0.675,0.285,1H523v1h1.869c0.187,0.352,0.403,0.684,0.641,1H517c-0.551,0-1-0.449-1-1V104z"/>
		<rect x="523" y="84" width="3" height="1"/>
		<polygon points="530.086,104.268 527.965,102.146 527.258,102.854 530.086,105.682 535.742,100.025 535.035,99.318   "/>
	</g>
	
    </g>
</svg>
