<?xml version="1.0" encoding="iso-8859-1"?>
<!DOCTYPE svg PUBLIC "-//W3C//DTD SVG 1.1//EN" "http://www.w3.org/Graphics/SVG/1.1/DTD/svg11.dtd">
<svg version="1.1" xmlns="http://www.w3.org/2000/svg" xmlns:xlink="http://www.w3.org/1999/xlink" x="0px" y="0px" width="30" height="30" viewBox="0 0 30 30" xml:space="preserve">
    <g transform="translate(-390 -200)">
        <g xmlns="http://www.w3.org/2000/svg" xmlns:xlink="http://www.w3.org/1999/xlink" id="server-lock-7">
		<rect x="396" y="206" width="1" height="1"/>
		<rect x="398" y="206" width="1" height="1"/>
		<rect x="400" y="206" width="1" height="1"/>
		<rect x="396" y="214" width="1" height="1"/>
		<rect x="398" y="214" width="1" height="1"/>
		<rect x="400" y="214" width="1" height="1"/>
		<rect x="396" y="222" width="1" height="1"/>
		<rect x="398" y="222" width="1" height="1"/>
		<rect x="400" y="222" width="1" height="1"/>
		<path d="M418,218c0-1.063-0.384-2.027-1-2.797V212c0-0.601-0.271-1.133-0.689-1.5c0.419-0.367,0.689-0.899,0.689-1.5v-5    c0-1.104-0.896-2-2-2h-20c-1.104,0-2,0.896-2,2v5c0,0.601,0.271,1.133,0.689,1.5c-0.419,0.367-0.689,0.899-0.689,1.5v5    c0,0.601,0.271,1.133,0.689,1.5c-0.419,0.367-0.689,0.899-0.689,1.5v5c0,1.104,0.896,2,2,2h12v3h13v-11h-2V218z M417,218v1h-2h-5    v-1c0-1.93,1.57-3.5,3.5-3.5S417,216.07,417,218z M394,209v-5c0-0.551,0.448-1,1-1h20c0.552,0,1,0.449,1,1v5c0,0.551-0.448,1-1,1    h-20C394.448,210,394,209.551,394,209z M394,217v-5c0-0.551,0.448-1,1-1h20c0.552,0,1,0.449,1,1v2.26    c-0.715-0.479-1.574-0.76-2.5-0.76c-2.485,0-4.5,2.015-4.5,4.5h-14C394.448,218,394,217.551,394,217z M395,226    c-0.552,0-1-0.449-1-1v-5c0-0.551,0.448-1,1-1h12v7H395z M419,220v9h-11v-9H419z"/>
		<path d="M414,224.908c0.581-0.207,1-0.756,1-1.408c0-0.828-0.672-1.5-1.5-1.5s-1.5,0.672-1.5,1.5c0,0.652,0.419,1.201,1,1.408V227    h1V224.908z"/>
	</g>
	
    </g>
</svg>
