<?xml version="1.0" encoding="iso-8859-1"?>
<!DOCTYPE svg PUBLIC "-//W3C//DTD SVG 1.1//EN" "http://www.w3.org/Graphics/SVG/1.1/DTD/svg11.dtd">
<svg version="1.1" xmlns="http://www.w3.org/2000/svg" xmlns:xlink="http://www.w3.org/1999/xlink" x="0px" y="0px" width="30" height="30" viewBox="0 0 30 30" xml:space="preserve">
    <g transform="translate(-570 -200)">
        <g xmlns="http://www.w3.org/2000/svg" xmlns:xlink="http://www.w3.org/1999/xlink" id="server-error-7">
		<rect x="576" y="206" width="1" height="1"/>
		<rect x="578" y="206" width="1" height="1"/>
		<rect x="580" y="206" width="1" height="1"/>
		<rect x="576" y="214" width="1" height="1"/>
		<rect x="578" y="214" width="1" height="1"/>
		<rect x="580" y="214" width="1" height="1"/>
		<path d="M597,220c0-0.601-0.271-1.133-0.689-1.5c0.419-0.367,0.689-0.899,0.689-1.5v-5c0-0.601-0.271-1.133-0.689-1.5    c0.419-0.367,0.689-0.899,0.689-1.5v-5c0-1.104-0.896-2-2-2h-20c-1.104,0-2,0.896-2,2v5c0,0.601,0.271,1.133,0.689,1.5    c-0.419,0.367-0.689,0.899-0.689,1.5v5c0,0.601,0.271,1.133,0.689,1.5c-0.419,0.367-0.689,0.899-0.689,1.5v5c0,1.104,0.896,2,2,2    h9.214L583,229h17l-3-4.941V220z M596,220v2.412L593.929,219H595C595.552,219,596,219.449,596,220z M574,209v-5    c0-0.551,0.448-1,1-1h20c0.552,0,1,0.449,1,1v5c0,0.551-0.448,1-1,1h-20C574.448,210,574,209.551,574,209z M574,217v-5    c0-0.551,0.448-1,1-1h20c0.552,0,1,0.449,1,1v5c0,0.551-0.448,1-1,1h-1.679l-1.821-3l-1.821,3H575    C574.448,218,574,217.551,574,217z M575,226c-0.552,0-1-0.449-1-1v-5c0-0.551,0.448-1,1-1h14.071l-4.25,7H575z M584.777,228    l6.723-11.073L598.223,228H584.777z"/>
		<rect x="576" y="222" width="1" height="1"/>
		<rect x="578" y="222" width="1" height="1"/>
		<rect x="580" y="222" width="1" height="1"/>
		<rect x="591" y="220" width="1" height="5"/>
		<rect x="591" y="226" width="1" height="1"/>
	</g>
	
    </g>
</svg>
