<?xml version="1.0" encoding="iso-8859-1"?>
<!DOCTYPE svg PUBLIC "-//W3C//DTD SVG 1.1//EN" "http://www.w3.org/Graphics/SVG/1.1/DTD/svg11.dtd">
<svg version="1.1" xmlns="http://www.w3.org/2000/svg" xmlns:xlink="http://www.w3.org/1999/xlink" x="0px" y="0px" width="30" height="30" viewBox="0 0 30 30" xml:space="preserve">
    <g transform="translate(-150 -200)">
        <g xmlns="http://www.w3.org/2000/svg" xmlns:xlink="http://www.w3.org/1999/xlink" id="server-minus-7">
		<rect x="156" y="206" width="1" height="1"/>
		<rect x="158" y="206" width="1" height="1"/>
		<rect x="160" y="206" width="1" height="1"/>
		<rect x="156" y="214" width="1" height="1"/>
		<rect x="158" y="214" width="1" height="1"/>
		<rect x="160" y="214" width="1" height="1"/>
		<rect x="156" y="222" width="1" height="1"/>
		<rect x="158" y="222" width="1" height="1"/>
		<rect x="160" y="222" width="1" height="1"/>
		<path d="M177,216.51V212c0-0.601-0.271-1.133-0.689-1.5c0.419-0.367,0.689-0.899,0.689-1.5v-5c0-1.104-0.896-2-2-2h-20    c-1.104,0-2,0.896-2,2v5c0,0.601,0.271,1.133,0.689,1.5c-0.419,0.367-0.689,0.899-0.689,1.5v5c0,0.601,0.271,1.133,0.689,1.5    c-0.419,0.367-0.689,0.899-0.689,1.5v5c0,1.104,0.896,2,2,2h11.51c1.369,1.818,3.539,3,5.99,3c4.143,0,7.5-3.357,7.5-7.5    C180,220.048,178.818,217.878,177,216.51z M154,209v-5c0-0.551,0.448-1,1-1h20c0.552,0,1,0.449,1,1v5c0,0.551-0.448,1-1,1h-20    C154.448,210,154,209.551,154,209z M154,217v-5c0-0.551,0.448-1,1-1h20c0.552,0,1,0.449,1,1v3.869    c-1.045-0.553-2.235-0.869-3.5-0.869c-2.451,0-4.621,1.181-5.99,3H155C154.448,218,154,217.551,154,217z M155,226    c-0.552,0-1-0.449-1-1v-5c0-0.551,0.448-1,1-1h10.869c-0.553,1.045-0.869,2.235-0.869,3.5s0.316,2.455,0.869,3.5H155z M172.5,229    c-3.59,0-6.5-2.91-6.5-6.5s2.91-6.5,6.5-6.5s6.5,2.91,6.5,6.5S176.09,229,172.5,229z"/>
		<rect x="168" y="222" width="9" height="1"/>
	</g>
	
    </g>
</svg>
