<?xml version="1.0" encoding="iso-8859-1"?>
<!DOCTYPE svg PUBLIC "-//W3C//DTD SVG 1.1//EN" "http://www.w3.org/Graphics/SVG/1.1/DTD/svg11.dtd">
<svg version="1.1" xmlns="http://www.w3.org/2000/svg" xmlns:xlink="http://www.w3.org/1999/xlink" x="0px" y="0px" width="30" height="30" viewBox="0 0 30 30" xml:space="preserve">
    <g transform="translate(-510 -200)">
        <g xmlns="http://www.w3.org/2000/svg" xmlns:xlink="http://www.w3.org/1999/xlink" id="server-upload-7">
		<rect x="516" y="206" width="1" height="1"/>
		<rect x="518" y="206" width="1" height="1"/>
		<rect x="520" y="206" width="1" height="1"/>
		<rect x="516" y="214" width="1" height="1"/>
		<rect x="518" y="214" width="1" height="1"/>
		<rect x="520" y="214" width="1" height="1"/>
		<rect x="516" y="222" width="1" height="1"/>
		<rect x="518" y="222" width="1" height="1"/>
		<rect x="520" y="222" width="1" height="1"/>
		<path d="M537,216.51V212c0-0.601-0.271-1.133-0.689-1.5c0.419-0.367,0.689-0.899,0.689-1.5v-5c0-1.104-0.896-2-2-2h-20    c-1.104,0-2,0.896-2,2v5c0,0.601,0.271,1.133,0.689,1.5c-0.419,0.367-0.689,0.899-0.689,1.5v5c0,0.601,0.271,1.133,0.689,1.5    c-0.419,0.367-0.689,0.899-0.689,1.5v5c0,1.104,0.896,2,2,2h11.51c1.368,1.818,3.539,3,5.99,3c4.143,0,7.5-3.357,7.5-7.5    C540,220.048,538.818,217.878,537,216.51z M514,209v-5c0-0.551,0.448-1,1-1h20c0.552,0,1,0.449,1,1v5c0,0.551-0.448,1-1,1h-20    C514.448,210,514,209.551,514,209z M514,217v-5c0-0.551,0.448-1,1-1h20c0.552,0,1,0.449,1,1v3.869    c-1.045-0.553-2.235-0.869-3.5-0.869c-2.451,0-4.622,1.181-5.99,3H515C514.448,218,514,217.551,514,217z M515,226    c-0.552,0-1-0.449-1-1v-5c0-0.551,0.448-1,1-1h10.869c-0.553,1.045-0.869,2.235-0.869,3.5s0.316,2.455,0.869,3.5H515z M532.5,229    c-3.59,0-6.5-2.91-6.5-6.5s2.91-6.5,6.5-6.5s6.5,2.91,6.5,6.5S536.09,229,532.5,229z"/>
		<polygon points="533,226 533,220.505 535.857,223.58 536.59,222.898 532.501,218.5 528.411,222.898 529.144,223.58 532,220.507     532,226   "/>
	</g>
	
    </g>
</svg>
