<?xml version="1.0" encoding="iso-8859-1"?>
<!DOCTYPE svg PUBLIC "-//W3C//DTD SVG 1.1//EN" "http://www.w3.org/Graphics/SVG/1.1/DTD/svg11.dtd">
<svg version="1.1" xmlns="http://www.w3.org/2000/svg" xmlns:xlink="http://www.w3.org/1999/xlink" x="0px" y="0px" width="29" height="30" viewBox="0 0 29 30" xml:space="preserve">
    <g transform="translate(-450 -140)">
        <g xmlns="http://www.w3.org/2000/svg" xmlns:xlink="http://www.w3.org/1999/xlink" id="server-connect-7">
		<rect x="468" y="156" width="1" height="1"/>
		<rect x="468" y="160" width="1" height="1"/>
		<rect x="468" y="164" width="1" height="1"/>
		<rect x="464" y="148" width="1" height="1"/>
		<rect x="466" y="148" width="1" height="1"/>
		<rect x="468" y="148" width="1" height="1"/>
		<rect x="470" y="148" width="1" height="1"/>
		<rect x="472" y="148" width="1" height="1"/>
		<rect x="472" y="150" width="1" height="1"/>
		<rect x="472" y="152" width="1" height="1"/>
		<path d="M471,154h-4c-0.553,0-1,0.448-1,1v11c0,0.552,0.447,1,1,1h9c0.553,0,1-0.448,1-1v-11c0-0.552-0.447-1-1-1h-4H471z     M476,166h-9v-3h9V166z M476,162h-9v-3h9V162z M476,155v3h-9v-3h4h1H476z"/>
		<rect x="464" y="161" width="1" height="1"/>
		<rect x="462" y="161" width="1" height="1"/>
		<rect x="460" y="161" width="1" height="1"/>
		<rect x="458" y="161" width="1" height="1"/>
		<rect x="456" y="159" width="1" height="1"/>
		<rect x="456" y="161" width="1" height="1"/>
		<rect x="456" y="157" width="1" height="1"/>
		<path d="M453,156h9c0.553,0,1-0.448,1-1v-11c0-0.552-0.447-1-1-1h-9c-0.553,0-1,0.448-1,1v11C452,155.552,452.447,156,453,156z     M453,144h9v3h-9V144z M453,148h9v3h-9V148z M453,152h9v3h-9V152z"/>
		<rect x="454" y="145" width="1" height="1"/>
		<rect x="454" y="149" width="1" height="1"/>
		<rect x="454" y="153" width="1" height="1"/>
	</g>
	
    </g>
</svg>
