<?xml version="1.0" encoding="iso-8859-1"?>
<!DOCTYPE svg PUBLIC "-//W3C//DTD SVG 1.1//EN" "http://www.w3.org/Graphics/SVG/1.1/DTD/svg11.dtd">
<svg version="1.1" xmlns="http://www.w3.org/2000/svg" xmlns:xlink="http://www.w3.org/1999/xlink" x="0px" y="0px" width="29" height="30" viewBox="0 0 29 30" xml:space="preserve">
    <g transform="translate(-330 -80)">
        <g xmlns="http://www.w3.org/2000/svg" xmlns:xlink="http://www.w3.org/1999/xlink" id="tablet-tick-7">
		<path d="M354,95.436V84c0-1.104-0.896-2-2-2h-15c-1.104,0-2,0.896-2,2v22c0,1.104,0.896,2,2,2h9.413c1.337,1.237,3.121,2,5.087,2    c4.143,0,7.5-3.358,7.5-7.5C359,99.236,356.911,96.466,354,95.436z M336,84c0-0.551,0.449-1,1-1h15c0.551,0,1,0.449,1,1v1h-17V84z     M336,86h17v9.15c-0.484-0.098-0.986-0.15-1.5-0.15c-4.143,0-7.5,3.358-7.5,7.5c0,0.169,0.015,0.334,0.025,0.5H336V86z M336,106    v-2h8.15c0.07,0.344,0.171,0.675,0.285,1H344v1h0.869c0.187,0.352,0.403,0.684,0.641,1H337C336.449,107,336,106.551,336,106z     M351.5,109c-3.59,0-6.5-2.91-6.5-6.5s2.91-6.5,6.5-6.5s6.5,2.91,6.5,6.5S355.09,109,351.5,109z"/>
		<polygon points="350.086,104.268 347.965,102.146 347.258,102.854 350.086,105.682 355.742,100.025 355.035,99.318   "/>
	</g>
	
    </g>
</svg>
