<?xml version="1.0" encoding="iso-8859-1"?>
<!DOCTYPE svg PUBLIC "-//W3C//DTD SVG 1.1//EN" "http://www.w3.org/Graphics/SVG/1.1/DTD/svg11.dtd">
<svg version="1.1" xmlns="http://www.w3.org/2000/svg" xmlns:xlink="http://www.w3.org/1999/xlink" x="0px" y="0px" width="29" height="30" viewBox="0 0 29 30" xml:space="preserve">
    <g transform="translate(-210 -380)">
        <g xmlns="http://www.w3.org/2000/svg" xmlns:xlink="http://www.w3.org/1999/xlink" id="toy-controller-7">
		<path d="M234.1,392H227l-2-2v-8h-1v8l-2,2h-7.1c-1.113,0-1.966,0.898-1.896,1.996l0.758,12.008    c0.07,1.098,1.037,1.996,2.149,1.996h17.178c1.112,0,2.079-0.898,2.149-1.996l0.758-12.008C236.065,392.898,235.213,392,234.1,392    z M233.089,407h-17.178c-0.565,0-1.065-0.453-1.134-1H220v-1h-5.299l-0.699-11.067c-0.016-0.248,0.065-0.48,0.229-0.654    c0.169-0.18,0.406-0.278,0.67-0.278H234.1c0.264,0,0.501,0.099,0.67,0.278c0.163,0.174,0.244,0.406,0.229,0.654L234.299,405H229v1    h5.223C234.154,406.547,233.654,407,233.089,407z"/>
		<path d="M220,396c-1.657,0-3,1.343-3,3s1.343,3,3,3s3-1.343,3-3S221.657,396,220,396z M220,401c-1.104,0-2-0.897-2-2s0.896-2,2-2    s2,0.897,2,2S221.104,401,220,401z"/>
		<path d="M232,399c0-1.657-1.343-3-3-3s-3,1.343-3,3s1.343,3,3,3S232,400.657,232,399z M227,399c0-1.103,0.896-2,2-2s2,0.897,2,2    s-0.896,2-2,2S227,400.103,227,399z"/>
		<rect x="222" y="394" width="5" height="1"/>
	</g>
	
    </g>
</svg>
