<?xml version="1.0" encoding="iso-8859-1"?>
<!DOCTYPE svg PUBLIC "-//W3C//DTD SVG 1.1//EN" "http://www.w3.org/Graphics/SVG/1.1/DTD/svg11.dtd">
<svg version="1.1" xmlns="http://www.w3.org/2000/svg" xmlns:xlink="http://www.w3.org/1999/xlink" x="0px" y="0px" width="30" height="30" viewBox="0 0 30 30" xml:space="preserve">
    <g transform="translate(-150 -320)">
        <g xmlns="http://www.w3.org/2000/svg" xmlns:xlink="http://www.w3.org/1999/xlink" id="viewcam-7">
		<path d="M153,347c0,2.523,5.271,0.5,12,0.5s12,2.023,12-0.5c0-1.561-2.021-3.867-5.152-5.401c2.527-2.016,4.152-5.115,4.152-8.599    c0-6.074-4.926-11-11-11s-11,4.926-11,11c0,3.483,1.625,6.583,4.152,8.599C155.021,343.133,153,345.439,153,347z M155,333    c0-5.515,4.485-10,10-10s10,4.485,10,10s-4.485,10-10,10S155,338.515,155,333z M159.092,342.268    c1.707,1.092,3.731,1.732,5.908,1.732s4.201-0.641,5.908-1.732c3.121,1.388,5.092,3.568,5.092,4.732    c0,0.081-0.012,0.113-0.013,0.114c-0.008,0-0.209,0.153-1.104,0.153c-0.841,0-1.969-0.132-3.274-0.284    c-1.845-0.215-4.142-0.483-6.609-0.483s-4.765,0.269-6.609,0.483c-1.306,0.152-2.434,0.284-3.274,0.284    c-0.854,0-1.076-0.14-1.11-0.166c0.002-0.004-0.006-0.037-0.006-0.102C154,345.836,155.971,343.655,159.092,342.268z"/>
		<path d="M165,338c2.762,0,5-2.238,5-5s-2.238-5-5-5s-5,2.238-5,5S162.238,338,165,338z M165,329c2.209,0,4,1.791,4,4s-1.791,4-4,4    s-4-1.791-4-4S162.791,329,165,329z"/>
	</g>
	
    </g>
</svg>
