<?xml version="1.0" encoding="iso-8859-1"?>
<!DOCTYPE svg PUBLIC "-//W3C//DTD SVG 1.1//EN" "http://www.w3.org/Graphics/SVG/1.1/DTD/svg11.dtd">
<svg version="1.1" xmlns="http://www.w3.org/2000/svg" xmlns:xlink="http://www.w3.org/1999/xlink" x="0px" y="0px" width="29" height="30" viewBox="0 0 29 30" xml:space="preserve">
    <g transform="translate(-270 -80)">
        <g xmlns="http://www.w3.org/2000/svg" xmlns:xlink="http://www.w3.org/1999/xlink" id="book-magic-7">
		<path d="M271.555,105.997c0.023-0.002,2.258-0.247,4.945-0.247c3.521,0,6.21,0.414,7.776,1.197    c0.071,0.035,0.147,0.053,0.224,0.053s0.152-0.018,0.224-0.053c1.566-0.783,4.255-1.197,7.776-1.197    c2.688,0,4.922,0.245,4.945,0.247c0.141,0.017,0.281-0.029,0.389-0.125c0.105-0.095,0.166-0.23,0.166-0.373v-17    c0-0.234-0.162-0.438-0.392-0.488c-0.036-0.008-0.257-0.056-0.608-0.125v1.02V90v14.95c-0.844-0.074-2.557-0.2-4.5-0.2    c-3.245,0-5.762,0.332-7.5,0.988v-1.415c3.889-1.795,10.433-1.823,10.5-1.823c0.276,0,0.5-0.224,0.5-0.5V90h-1v11.507    c-1.662,0.039-7.012,0.298-10.5,1.943c-3.488-1.645-8.838-1.904-10.5-1.943V95h-1v7c0,0.276,0.224,0.5,0.5,0.5    c0.067,0,6.611,0.028,10.5,1.823v1.415c-1.738-0.656-4.255-0.988-7.5-0.988c-1.943,0-3.656,0.125-4.5,0.2V95v-3v-3.093    c0.236-0.047,0.588-0.113,1-0.185V92h1v-6.491c1.611,0.044,6.738,0.307,10,1.812V88.5v0.319V98h1v-9.181V88.5v-1.179    c1.456-0.672,3.277-1.097,5-1.364v-1.016c-1.867,0.282-3.881,0.748-5.5,1.511c-4.082-1.924-10.715-1.952-11-1.952    c-0.276,0-0.5,0.224-0.5,0.5v2.705c-0.938,0.16-1.545,0.293-1.608,0.307C271.162,88.063,271,88.266,271,88.5v17    c0,0.142,0.061,0.278,0.166,0.373C271.273,105.968,271.416,106.014,271.555,105.997z"/>
		<path d="M293,85.615c0.854-0.064,1.561-0.094,2-0.106V87h1v-2c0-0.276-0.224-0.5-0.5-0.5c-0.105,0-1.096,0.004-2.5,0.107V85.615z"/>
		<rect x="284" y="99" width="1" height="1"/>
		<rect x="284" y="101" width="1" height="1"/>
		<polygon points="291,88 287,88 287,89 291,89 291,93 292,93 292,89 296,89 296,88 292,88 292,84 291,84   "/>
		<polygon points="277,98 278,98 278,94 282,94 282,93 278,93 278,89 277,89 277,93 273,93 273,94 277,94   "/>
	</g>
	
    </g>
</svg>
