<?xml version="1.0" encoding="iso-8859-1"?>
<!DOCTYPE svg PUBLIC "-//W3C//DTD SVG 1.1//EN" "http://www.w3.org/Graphics/SVG/1.1/DTD/svg11.dtd">
<svg version="1.1" xmlns="http://www.w3.org/2000/svg" xmlns:xlink="http://www.w3.org/1999/xlink" x="0px" y="0px" width="29" height="30" viewBox="0 0 29 30" xml:space="preserve">
    <g transform="translate(-150 -80)">
        <g xmlns="http://www.w3.org/2000/svg" xmlns:xlink="http://www.w3.org/1999/xlink" id="book-check-7">
		<path d="M151.555,105.997c0.023-0.002,2.258-0.247,4.945-0.247c3.521,0,6.21,0.414,7.776,1.197    c0.071,0.035,0.147,0.053,0.224,0.053s0.152-0.018,0.224-0.053c1.448-0.724,3.865-1.128,7.003-1.186l-0.973-0.973    c-2.41,0.101-4.344,0.417-5.754,0.949v-1.415c1.199-0.554,2.643-0.941,4.078-1.209l-0.853-0.854    c-1.313,0.28-2.612,0.665-3.726,1.189c-3.488-1.645-8.838-1.904-10.5-1.943V85.509c1.489,0.041,5.983,0.269,9.23,1.491H164h1h0.77    c3.247-1.222,7.741-1.45,9.23-1.491v15.998c-0.125,0.003-0.278,0.008-0.443,0.014l0.973,0.973    c0.262-0.016,0.471-0.229,0.471-0.494V88.723c0.412,0.072,0.764,0.138,1,0.185v15.058l1,1V88.5c0-0.234-0.162-0.438-0.392-0.488    c-0.063-0.014-0.67-0.147-1.608-0.307V85c0-0.276-0.224-0.5-0.5-0.5c-0.285,0-6.918,0.027-11,1.952    c-4.082-1.924-10.715-1.952-11-1.952c-0.276,0-0.5,0.224-0.5,0.5v2.705c-0.938,0.16-1.545,0.293-1.608,0.307    C151.162,88.063,151,88.266,151,88.5v17c0,0.142,0.061,0.278,0.166,0.373C151.273,105.968,151.414,106.014,151.555,105.997z     M152,88.907c0.236-0.047,0.588-0.113,1-0.185V102c0,0.276,0.224,0.5,0.5,0.5c0.067,0,6.611,0.028,10.5,1.823v1.415    c-1.738-0.656-4.255-0.988-7.5-0.988c-1.943,0-3.656,0.125-4.5,0.2V88.907z"/>
		<path d="M169.787,99.58c1.064-1.228,1.713-2.827,1.713-4.58c0.001-3.696-2.867-6.717-6.5-6.975V88h-1v0.025    c-3.632,0.257-6.5,3.278-6.5,6.975c-0.001,3.699,2.867,6.718,6.5,6.975V102h1v-0.025c1.557-0.11,2.971-0.726,4.08-1.688    l7.087,7.088l0.707-0.707L169.787,99.58z M164.5,101c-3.314,0-6-2.686-6-6c0.001-3.313,2.686-6,6-6c3.313,0,6,2.686,6,6    c0,1.649-0.666,3.143-1.742,4.227l-0.031,0.031C167.643,100.334,166.148,101,164.5,101z"/>
	</g>
	
    </g>
</svg>
