<?xml version="1.0" encoding="iso-8859-1"?>
<!DOCTYPE svg PUBLIC "-//W3C//DTD SVG 1.1//EN" "http://www.w3.org/Graphics/SVG/1.1/DTD/svg11.dtd">
<svg version="1.1" xmlns="http://www.w3.org/2000/svg" xmlns:xlink="http://www.w3.org/1999/xlink" x="0px" y="0px" width="29" height="30" viewBox="0 0 29 30" xml:space="preserve">
    <g transform="translate(-90 -80)">
        <g xmlns="http://www.w3.org/2000/svg" xmlns:xlink="http://www.w3.org/1999/xlink" id="book-flip-7">
		<path d="M104.276,106.947c0.071,0.035,0.147,0.053,0.224,0.053s0.152-0.018,0.224-0.053c1.566-0.783,4.255-1.197,7.776-1.197    c2.688,0,4.922,0.245,4.945,0.247c0.143,0.017,0.282-0.029,0.389-0.125c0.105-0.095,0.166-0.23,0.166-0.373v-17    c0-0.234-0.162-0.438-0.392-0.488c-0.063-0.014-0.67-0.147-1.608-0.307V85c0-0.276-0.224-0.5-0.5-0.5    c-0.13,0-1.578,0.006-3.5,0.192V83c0-0.276-0.224-0.5-0.5-0.5c-0.169,0-4.065,0.057-7.145,3.886    C100.263,84.528,93.782,84.5,93.5,84.5c-0.276,0-0.5,0.224-0.5,0.5v2.705c-0.938,0.16-1.545,0.293-1.608,0.307    C91.162,88.063,91,88.266,91,88.5v17c0,0.142,0.061,0.278,0.166,0.373c0.107,0.095,0.25,0.141,0.389,0.125    c0.023-0.002,2.258-0.247,4.945-0.247C100.021,105.75,102.71,106.164,104.276,106.947z M92,88.907    c0.236-0.047,0.588-0.113,1-0.185V102c0,0.276,0.224,0.5,0.5,0.5c0.067,0,6.611,0.028,10.5,1.823v1.415    c-1.738-0.656-4.255-0.988-7.5-0.988c-1.943,0-3.656,0.125-4.5,0.2V88.907z M104,87.321V88.5v0.319V91h1v-2.181V88.5v-1.318    c2.18-2.818,4.896-3.484,6-3.636v15.988c-1.175,0.131-4.174,0.774-6.646,3.85c-3.49-1.584-8.715-1.837-10.354-1.876V85.509    C95.611,85.554,100.738,85.816,104,87.321z M115,101.507c-1.389,0.033-5.354,0.218-8.656,1.237    c2.498-2.191,5.127-2.244,5.158-2.244c0.274-0.001,0.498-0.225,0.498-0.5V85.704c1.303-0.13,2.398-0.178,3-0.194V101.507z     M117,104.95c-0.844-0.074-2.557-0.2-4.5-0.2c-3.245,0-5.762,0.332-7.5,0.988v-1.415c3.889-1.795,10.433-1.823,10.5-1.823    c0.276,0,0.5-0.224,0.5-0.5V88.723c0.412,0.072,0.764,0.138,1,0.185V104.95z"/>
		<rect x="104" y="94" width="1" height="4"/>
		<rect x="104" y="99" width="1" height="1"/>
		<rect x="104" y="101" width="1" height="1"/>
		<polygon points="100,92 100,90 97,92.5 100,95 100,93 103,93 106,93 107,93 107,92 106,92 103,92   "/>
	</g>
	
    </g>
</svg>
