<?xml version="1.0" encoding="iso-8859-1"?>
<!DOCTYPE svg PUBLIC "-//W3C//DTD SVG 1.1//EN" "http://www.w3.org/Graphics/SVG/1.1/DTD/svg11.dtd">
<svg version="1.1" xmlns="http://www.w3.org/2000/svg" xmlns:xlink="http://www.w3.org/1999/xlink" x="0px" y="0px" width="30" height="30" viewBox="0 0 30 30" xml:space="preserve">
    <g transform="translate(-570 -140)">
        <g xmlns="http://www.w3.org/2000/svg" xmlns:xlink="http://www.w3.org/1999/xlink" id="book-arrange-7">
		<path d="M572,164h6v-20h-6V164z M573,145h4v2h-4V145z M573,148h4v15h-4V148z"/>
		<path d="M579,164h6v-20h-6V164z M580,145h4v2h-4V145z M580,148h4v15h-4V148z"/>
		<path d="M586.5,144.681L591.677,164l5.796-1.553l-5.177-19.318L586.5,144.681z M587.726,145.388l3.863-1.035l0.518,1.932    l-3.863,1.035L587.726,145.388z M596.248,161.74l-3.864,1.035l-3.882-14.489l3.863-1.035L596.248,161.74z"/>
		<rect x="571" y="166" width="28" height="1"/>
	</g>
	
    </g>
</svg>
