<?xml version="1.0" encoding="iso-8859-1"?>
<!DOCTYPE svg PUBLIC "-//W3C//DTD SVG 1.1//EN" "http://www.w3.org/Graphics/SVG/1.1/DTD/svg11.dtd">
<svg version="1.1" xmlns="http://www.w3.org/2000/svg" xmlns:xlink="http://www.w3.org/1999/xlink" x="0px" y="0px" width="30" height="30" viewBox="0 0 30 30" xml:space="preserve">
    <g transform="translate(-450 -80)">
        <g xmlns="http://www.w3.org/2000/svg" xmlns:xlink="http://www.w3.org/1999/xlink" id="book-tick-7">
		<path d="M451.555,105.997c0.022-0.002,2.258-0.247,4.945-0.247c3.521,0,6.21,0.414,7.776,1.197    c0.07,0.035,0.147,0.053,0.224,0.053s0.153-0.018,0.224-0.053c0.395-0.197,0.862-0.371,1.395-0.521    c1.32,2.142,3.681,3.574,6.382,3.574c4.143,0,7.5-3.357,7.5-7.5c0-1.966-0.763-3.75-2-5.087V88.5c0-0.234-0.163-0.438-0.392-0.488    c-0.063-0.014-0.67-0.147-1.608-0.307V85c0-0.276-0.224-0.5-0.5-0.5c-0.286,0-6.918,0.027-11,1.952    c-4.082-1.924-10.714-1.952-11-1.952c-0.276,0-0.5,0.224-0.5,0.5v2.705c-0.938,0.16-1.546,0.293-1.608,0.307    C451.163,88.063,451,88.266,451,88.5v17c0,0.142,0.061,0.278,0.167,0.373C451.272,105.967,451.42,106.01,451.555,105.997z     M452,88.907c0.236-0.047,0.588-0.113,1-0.185V102c0,0.276,0.224,0.5,0.5,0.5c0.066,0,6.611,0.028,10.5,1.823v1.415    c-1.738-0.656-4.255-0.988-7.5-0.988c-1.943,0-3.656,0.125-4.5,0.2V88.907z M464,87.321V88.5v0.319V98h1v-9.181V88.5v-1.179    c3.262-1.505,8.389-1.768,10-1.812v9.926c-0.783-0.277-1.622-0.436-2.5-0.436c-4.143,0-7.5,3.357-7.5,7.5    c0,0.24,0.014,0.477,0.036,0.711c-0.185,0.076-0.361,0.157-0.536,0.239c-3.489-1.645-8.839-1.904-10.5-1.943V85.509    C455.611,85.554,460.738,85.816,464,87.321z M477,96.51c-0.316-0.238-0.648-0.455-1-0.641v-7.146c0.412,0.072,0.764,0.138,1,0.185    V96.51z M465,104.323c0.068-0.032,0.138-0.063,0.208-0.094c0.106,0.448,0.249,0.881,0.432,1.294    c-0.223,0.067-0.438,0.138-0.64,0.214V104.323z M479,102.5c0,3.59-2.91,6.5-6.5,6.5s-6.5-2.91-6.5-6.5s2.91-6.5,6.5-6.5    S479,98.91,479,102.5z"/>
		<polygon points="476.742,100.025 476.035,99.318 471.086,104.268 468.965,102.146 468.258,102.854 471.086,105.682   "/>
	</g>
	
    </g>
</svg>
