<?xml version="1.0" encoding="iso-8859-1"?>
<!DOCTYPE svg PUBLIC "-//W3C//DTD SVG 1.1//EN" "http://www.w3.org/Graphics/SVG/1.1/DTD/svg11.dtd">
<svg version="1.1" xmlns="http://www.w3.org/2000/svg" xmlns:xlink="http://www.w3.org/1999/xlink" x="0px" y="0px" width="30" height="30" viewBox="0 0 30 30" xml:space="preserve">
    <g transform="translate(-450 -140)">
        <g xmlns="http://www.w3.org/2000/svg" xmlns:xlink="http://www.w3.org/1999/xlink" id="book-cover-check-7">
		<path d="M456.5,167c-0.827,0-1.5-0.673-1.5-1.5v-19.013c0.419,0.317,0.936,0.513,1.5,0.513H475v16.465l1,1V146h-19.5    c-0.827,0-1.5-0.673-1.5-1.5s0.673-1.5,1.5-1.5H476v-1h-19.5c-1.379,0-2.5,1.122-2.5,2.5v21c0,1.378,1.121,2.5,2.5,2.5h15.964    l-0.999-1H456.5z"/>
		<rect x="457" y="144" width="18" height="1"/>
		<path d="M465,150c-3.866,0-7,3.135-7,7c-0.001,3.867,3.133,7,7,7c1.018,0,1.981-0.222,2.854-0.611    c0.631-0.282,1.211-0.655,1.727-1.102l7.087,7.088l0.707-0.707l-7.087-7.088c0.447-0.516,0.819-1.096,1.102-1.727    c0.391-0.872,0.611-1.835,0.611-2.853C472.001,153.135,468.866,150,465,150z M465,163c-3.314,0-6-2.686-6-6    c0.001-3.313,2.686-6,6-6c3.313,0,6,2.686,6,6c0,1.649-0.666,3.143-1.742,4.227l-0.031,0.031C468.143,162.334,466.648,163,465,163    z"/>
	</g>
	
    </g>
</svg>
