<?xml version="1.0" encoding="iso-8859-1"?>
<!DOCTYPE svg PUBLIC "-//W3C//DTD SVG 1.1//EN" "http://www.w3.org/Graphics/SVG/1.1/DTD/svg11.dtd">
<svg version="1.1" xmlns="http://www.w3.org/2000/svg" xmlns:xlink="http://www.w3.org/1999/xlink" x="0px" y="0px" width="30" height="30" viewBox="0 0 30 30" xml:space="preserve">
    <g transform="translate(-390 -140)">
        <g xmlns="http://www.w3.org/2000/svg" xmlns:xlink="http://www.w3.org/1999/xlink" id="book-cover-upload-7">
		<rect x="397" y="144" width="18" height="1"/>
		<path d="M416,155.869V146h-19.5c-0.827,0-1.5-0.673-1.5-1.5s0.673-1.5,1.5-1.5H416v-1h-19.5c-1.379,0-2.5,1.122-2.5,2.5v21    c0,1.378,1.121,2.5,2.5,2.5h10.913c1.337,1.238,3.121,2,5.087,2c4.143,0,7.5-3.357,7.5-7.5    C420,159.622,418.378,157.126,416,155.869z M395,165.5v-19.013c0.419,0.317,0.936,0.513,1.5,0.513H415v8.436    c-0.783-0.277-1.622-0.436-2.5-0.436c-4.143,0-7.5,3.357-7.5,7.5c0,1.691,0.566,3.246,1.51,4.5H396.5    C395.673,167,395,166.327,395,165.5z M412.5,169c-3.59,0-6.5-2.91-6.5-6.5s2.91-6.5,6.5-6.5s6.5,2.91,6.5,6.5    S416.09,169,412.5,169z"/>
		<polygon points="412.501,158.5 408.411,162.898 409.144,163.58 412,160.507 412,166 413,166 413,160.505 415.857,163.58     416.59,162.898   "/>
	</g>
	
    </g>
</svg>
