<?xml version="1.0" encoding="iso-8859-1"?>
<!DOCTYPE svg PUBLIC "-//W3C//DTD SVG 1.1//EN" "http://www.w3.org/Graphics/SVG/1.1/DTD/svg11.dtd">
<svg version="1.1" xmlns="http://www.w3.org/2000/svg" xmlns:xlink="http://www.w3.org/1999/xlink" x="0px" y="0px" width="30" height="30" viewBox="0 0 30 30" xml:space="preserve">
    <g transform="translate(-510 -140)">
        <g xmlns="http://www.w3.org/2000/svg" xmlns:xlink="http://www.w3.org/1999/xlink" id="book-cover-off-7">
		<path d="M536,142h-19.5c-0.839,0-1.578,0.418-2.032,1.054l-1.489-1.49l-0.707,0.707l25.457,25.457l0.707-0.707L536,164.586V146    h-18.586l-2.221-2.221c0.256-0.462,0.742-0.779,1.307-0.779H536V142z M535,147v16.586L518.414,147H535z"/>
		<path d="M535,167h-18.5c-0.827,0-1.5-0.673-1.5-1.5v-19.013c0.065,0.049,0.137,0.09,0.206,0.133L514,145.414V165.5    c0,1.378,1.121,2.5,2.5,2.5H536v-0.586l-1-1V167z"/>
		<rect x="517" y="144" width="18" height="1"/>
	</g>
	
    </g>
</svg>
