<?xml version="1.0" encoding="iso-8859-1"?>
<!DOCTYPE svg PUBLIC "-//W3C//DTD SVG 1.1//EN" "http://www.w3.org/Graphics/SVG/1.1/DTD/svg11.dtd">
<svg version="1.1" xmlns="http://www.w3.org/2000/svg" xmlns:xlink="http://www.w3.org/1999/xlink" x="0px" y="0px" width="30" height="30" viewBox="0 0 30 30" xml:space="preserve">
    <g transform="translate(-210 -140)">
        <g xmlns="http://www.w3.org/2000/svg" xmlns:xlink="http://www.w3.org/1999/xlink" id="book-cover-star-7">
		<rect x="217" y="144" width="18" height="1"/>
		<path d="M236,155.869V146h-19.5c-0.827,0-1.5-0.673-1.5-1.5s0.673-1.5,1.5-1.5H236v-1h-19.5c-1.379,0-2.5,1.122-2.5,2.5v21    c0,1.378,1.121,2.5,2.5,2.5h10.913c1.337,1.238,3.121,2,5.087,2c4.143,0,7.5-3.357,7.5-7.5    C240,159.623,238.378,157.127,236,155.869z M215,165.5v-19.013c0.419,0.317,0.936,0.513,1.5,0.513H235v8.436    c-0.783-0.277-1.622-0.436-2.5-0.436c-4.143,0-7.5,3.357-7.5,7.5c0,1.691,0.566,3.246,1.51,4.5H216.5    C215.673,167,215,166.327,215,165.5z M232.5,169c-3.59,0-6.5-2.91-6.5-6.5s2.91-6.5,6.5-6.5s6.5,2.91,6.5,6.5    S236.09,169,232.5,169z"/>
		<polygon points="233.568,161 232.5,157.785 231.43,161 228,161 230.768,163.078 229.717,166.344 232.5,164.336 235.278,166.344     234.23,163.078 237,161   "/>
	</g>
	
    </g>
</svg>
