<?xml version="1.0" encoding="iso-8859-1"?>
<!DOCTYPE svg PUBLIC "-//W3C//DTD SVG 1.1//EN" "http://www.w3.org/Graphics/SVG/1.1/DTD/svg11.dtd">
<svg version="1.1" xmlns="http://www.w3.org/2000/svg" xmlns:xlink="http://www.w3.org/1999/xlink" x="0px" y="0px" width="30" height="30" viewBox="0 0 30 30" xml:space="preserve">
    <g transform="translate(-90 -140)">
        <g xmlns="http://www.w3.org/2000/svg" xmlns:xlink="http://www.w3.org/1999/xlink" id="book-cover-plus-7">
		<rect x="97" y="144" width="18" height="1"/>
		<path d="M116,155.869V146H96.5c-0.827,0-1.5-0.673-1.5-1.5s0.673-1.5,1.5-1.5H116v-1H96.5c-1.379,0-2.5,1.122-2.5,2.5v21    c0,1.378,1.121,2.5,2.5,2.5h10.913c1.337,1.238,3.121,2,5.087,2c4.143,0,7.5-3.357,7.5-7.5    C120,159.623,118.378,157.127,116,155.869z M95,165.5v-19.013c0.419,0.317,0.936,0.513,1.5,0.513H115v8.436    c-0.783-0.277-1.622-0.436-2.5-0.436c-4.143,0-7.5,3.357-7.5,7.5c0,1.691,0.566,3.246,1.51,4.5H96.5    C95.673,167,95,166.327,95,165.5z M112.5,169c-3.59,0-6.5-2.91-6.5-6.5s2.91-6.5,6.5-6.5s6.5,2.91,6.5,6.5S116.09,169,112.5,169z"/>
		<polygon points="113,162 113,158 112,158 112,162 108,162 108,163 112,163 112,167 113,167 113,163 117,163 117,162   "/>
	</g>
	
    </g>
</svg>
