<?xml version="1.0" encoding="iso-8859-1"?>
<!DOCTYPE svg PUBLIC "-//W3C//DTD SVG 1.1//EN" "http://www.w3.org/Graphics/SVG/1.1/DTD/svg11.dtd">
<svg version="1.1" xmlns="http://www.w3.org/2000/svg" xmlns:xlink="http://www.w3.org/1999/xlink" x="0px" y="0px" width="29" height="30" viewBox="0 0 29 30" xml:space="preserve">
    <g transform="translate(-570 -80)">
        <g xmlns="http://www.w3.org/2000/svg" xmlns:xlink="http://www.w3.org/1999/xlink" id="book-off-7">
		<path d="M571.555,105.997c0.022-0.002,2.258-0.247,4.945-0.247c3.521,0,6.21,0.414,7.776,1.197    c0.07,0.035,0.147,0.053,0.224,0.053s0.153-0.018,0.224-0.053c1.566-0.783,4.256-1.197,7.776-1.197    c0.473,0,0.923,0.009,1.357,0.022l-1.019-1.02c-0.113,0-0.224-0.002-0.339-0.002c-3.245,0-5.762,0.332-7.5,0.988v-1.415    c1.718-0.793,3.945-1.243,5.914-1.495l-0.892-0.892c-1.873,0.282-3.897,0.748-5.522,1.514c-3.489-1.645-8.839-1.904-10.5-1.943    V85.914l-0.985-0.985C573.011,84.953,573,84.975,573,85v2.705c-0.938,0.16-1.546,0.293-1.608,0.307    C571.163,88.063,571,88.266,571,88.5v17c0,0.142,0.061,0.278,0.167,0.373C571.272,105.967,571.421,106.01,571.555,105.997z     M572,88.907c0.236-0.047,0.588-0.113,1-0.185V102c0,0.276,0.224,0.5,0.5,0.5c0.066,0,6.611,0.028,10.5,1.823v1.415    c-1.738-0.656-4.255-0.988-7.5-0.988c-1.943,0-3.656,0.125-4.5,0.2V88.907z"/>
		<polygon points="585,98 585,96.914 584,95.914 584,98   "/>
		<rect x="584" y="99" width="1" height="1"/>
		<rect x="584" y="101" width="1" height="1"/>
		<path d="M597.229,107.729l0.707-0.707l-1.08-1.08c0.358,0.031,0.583,0.055,0.59,0.056c0.132,0.013,0.281-0.03,0.388-0.125    S598,105.642,598,105.5v-17c0-0.234-0.163-0.438-0.392-0.488c-0.063-0.014-0.67-0.147-1.608-0.307V85c0-0.276-0.224-0.5-0.5-0.5    c-0.286,0-6.918,0.027-11,1.952c-2.757-1.299-6.669-1.736-9.014-1.879l-3.008-3.008l-0.707,0.707L597.229,107.729z     M576.577,85.663c2.241,0.201,5.245,0.653,7.423,1.658V88.5v0.319v4.267L576.577,85.663z M585,94.086v-5.267V88.5v-1.179    c3.262-1.505,8.389-1.768,10-1.812v15.998c-0.515,0.012-1.387,0.046-2.444,0.134L585,94.086z M593.495,102.581    c1.184-0.077,1.981-0.081,2.005-0.081c0.276,0,0.5-0.224,0.5-0.5V88.723c0.412,0.072,0.764,0.138,1,0.185v16.042    c-0.305-0.027-0.727-0.061-1.229-0.092L593.495,102.581z"/>
	</g>
	
    </g>
</svg>
