<?xml version="1.0" encoding="iso-8859-1"?>
<!DOCTYPE svg PUBLIC "-//W3C//DTD SVG 1.1//EN" "http://www.w3.org/Graphics/SVG/1.1/DTD/svg11.dtd">
<svg version="1.1" xmlns="http://www.w3.org/2000/svg" xmlns:xlink="http://www.w3.org/1999/xlink" x="0px" y="0px" width="29" height="30" viewBox="0 0 29 30" xml:space="preserve">
    <g transform="translate(-210 -80)">
        <g xmlns="http://www.w3.org/2000/svg" xmlns:xlink="http://www.w3.org/1999/xlink" id="book-write-7">
		<path d="M211.555,105.997c0.023-0.002,2.258-0.247,4.945-0.247c3.521,0,6.21,0.414,7.776,1.197    c0.071,0.035,0.147,0.053,0.224,0.053s0.152-0.018,0.224-0.053c1.566-0.783,4.255-1.197,7.776-1.197    c2.688,0,4.922,0.245,4.945,0.247c0.141,0.017,0.281-0.029,0.389-0.125c0.105-0.095,0.166-0.23,0.166-0.373v-17    c0-0.234-0.162-0.438-0.392-0.488c-0.063-0.014-0.67-0.147-1.608-0.307V85c0-0.128-0.052-0.243-0.131-0.332L235,85.537v15.97    c-1.662,0.039-7.012,0.298-10.5,1.943c-3.488-1.645-8.838-1.904-10.5-1.943V85.509c1.611,0.044,6.738,0.307,10,1.812V88.5v0.319    v0.646l1-1v-1.145c0.562-0.259,1.174-0.484,1.818-0.674l1.378-1.378c-1.304,0.279-2.591,0.662-3.696,1.183    c-4.082-1.924-10.715-1.952-11-1.952c-0.276,0-0.5,0.224-0.5,0.5v2.705c-0.938,0.16-1.545,0.293-1.608,0.307    C211.162,88.063,211,88.266,211,88.5v17c0,0.142,0.061,0.278,0.166,0.373C211.273,105.968,211.414,106.014,211.555,105.997z     M212,88.907c0.236-0.047,0.588-0.113,1-0.185V102c0,0.276,0.224,0.5,0.5,0.5c0.067,0,6.611,0.028,10.5,1.823v1.415    c-1.738-0.656-4.255-0.988-7.5-0.988c-1.943,0-3.656,0.125-4.5,0.2V88.907z M236,102V88.723c0.412,0.072,0.764,0.138,1,0.185    v16.042c-0.844-0.074-2.557-0.2-4.5-0.2c-3.245,0-5.762,0.332-7.5,0.988v-1.415c3.889-1.795,10.433-1.823,10.5-1.823    C235.776,102.5,236,102.276,236,102z"/>
		<polygon points="224,96.537 224,98 225,98 225,95.537   "/>
		<rect x="224" y="99" width="1" height="1"/>
		<rect x="224" y="101" width="1" height="1"/>
		<polygon points="220.354,94.526 220,97 222.477,96.646 235.204,83.919 234.496,83.213 222.476,95.232 221.769,94.525     233.789,82.504 233.081,81.798   "/>
		<polygon points="235.912,83.211 236.617,82.504 234.497,80.383 233.79,81.09 234.698,81.999 235.911,83.212   "/>
	</g>
	
    </g>
</svg>
