<?xml version="1.0" encoding="iso-8859-1"?>
<!DOCTYPE svg PUBLIC "-//W3C//DTD SVG 1.1//EN" "http://www.w3.org/Graphics/SVG/1.1/DTD/svg11.dtd">
<svg version="1.1" xmlns="http://www.w3.org/2000/svg" xmlns:xlink="http://www.w3.org/1999/xlink" x="0px" y="0px" width="30" height="30" viewBox="0 0 30 30" xml:space="preserve">
    <g transform="translate(-450 -320)">
        <g xmlns="http://www.w3.org/2000/svg" xmlns:xlink="http://www.w3.org/1999/xlink" id="file-cut-7">
		<path d="M476.5,336c-1.933,0-3.5,1.567-3.5,3.5s1.567,3.5,3.5,3.5s3.5-1.567,3.5-3.5S478.433,336,476.5,336z M476.5,342    c-1.379,0-2.5-1.121-2.5-2.5s1.121-2.5,2.5-2.5s2.5,1.121,2.5,2.5S477.879,342,476.5,342z"/>
		<path d="M476.539,328c-0.007,0-0.013,0.002-0.02,0.002S476.507,328,476.5,328c-1.933,0-3.5,1.567-3.5,3.5    c0,0.573,0.15,1.105,0.395,1.582L472,334.193V328l-5-5h-15v24h20v-9.29c1.203-1.011,2.258-2.036,3.103-3.004    c0.429,0.188,0.899,0.294,1.397,0.294c1.933,0,3.5-1.567,3.5-3.5c0-0.007-0.002-0.013-0.002-0.02s0.002-0.013,0.002-0.02    C480,329.549,478.45,328,476.539,328z M479,331.5c0,1.379-1.121,2.5-2.5,2.5s-2.5-1.121-2.5-2.5s1.121-2.5,2.5-2.5    S479,330.121,479,331.5z M453,346v-22h14v4h4v6.99l-2.523,2.01L462,342.16c0.931,1.168,4.919-0.459,9-3.637V346H453z M472,336.81    c-0.313,0.272-0.65,0.551-1,0.833c-0.044,0.035-0.081,0.069-0.125,0.104c-3.302,2.631-5.927,3.779-7.306,4.049l6.019-4.795    l2.412-1.922l1.771-1.411c0.207,0.261,0.442,0.496,0.715,0.688C473.825,335.108,473.008,335.933,472,336.81z"/>
		<rect x="468" y="335" width="1" height="1"/>
		<rect x="466" y="335" width="1" height="1"/>
		<rect x="464" y="335" width="1" height="1"/>
		<rect x="462" y="335" width="1" height="1"/>
		<rect x="460" y="335" width="1" height="1"/>
		<rect x="458" y="335" width="1" height="1"/>
		<rect x="456" y="335" width="1" height="1"/>
		<rect x="454" y="335" width="1" height="1"/>
	</g>
	
    </g>
</svg>
