<?xml version="1.0" encoding="iso-8859-1"?>
<!DOCTYPE svg PUBLIC "-//W3C//DTD SVG 1.1//EN" "http://www.w3.org/Graphics/SVG/1.1/DTD/svg11.dtd">
<svg version="1.1" xmlns="http://www.w3.org/2000/svg" xmlns:xlink="http://www.w3.org/1999/xlink" x="0px" y="0px" width="30" height="30" viewBox="0 0 30 30" xml:space="preserve">
    <g transform="translate(-150 -380)">
        <g xmlns="http://www.w3.org/2000/svg" xmlns:xlink="http://www.w3.org/1999/xlink" id="file-transfer-7">
		<polygon points="169,406 169,396 173.994,396 170.92,398.857 171.602,399.59 176,395.501 171.602,391.411 170.92,392.144     173.992,395 169,395 169,384 180,384 180,383 168,383 168,395 162,395 162,388 157,383 150,383 150,384 157,384 157,388 161,388     161,395 156,395 156,396 161,396 161,406 150,406 150,407 162,407 162,396 168,396 168,407 180,407 180,406   "/>
	</g>
	
    </g>
</svg>
