<?xml version="1.0" encoding="iso-8859-1"?>
<!DOCTYPE svg PUBLIC "-//W3C//DTD SVG 1.1//EN" "http://www.w3.org/Graphics/SVG/1.1/DTD/svg11.dtd">
<svg version="1.1" xmlns="http://www.w3.org/2000/svg" xmlns:xlink="http://www.w3.org/1999/xlink" x="0px" y="0px" width="30" height="30" viewBox="0 0 30 30" xml:space="preserve">
    <g transform="translate(-570 -320)">
        <g xmlns="http://www.w3.org/2000/svg" xmlns:xlink="http://www.w3.org/1999/xlink" id="file-save-many-7">
		<path d="M599,346v-14h-2v-5l-3-3h-7h-1h-6h-1h-7v14h7h4h2v8H599z M598,333v12h-12v-7v-5h2v4h1h7v-4H598z M589,333h6v3h-6V333z     M593.586,325l2.414,2.414V332h-6v-5l-2-2H593.586z M580,337h-7v-12h6.586l2.414,2.414V337H580z M583,337v-10l-2-2h5.586    l2.414,2.414V332h-4v5H583z"/>
	</g>
	
    </g>
</svg>
