<?xml version="1.0" encoding="iso-8859-1"?>
<!DOCTYPE svg PUBLIC "-//W3C//DTD SVG 1.1//EN" "http://www.w3.org/Graphics/SVG/1.1/DTD/svg11.dtd">
<svg version="1.1" xmlns="http://www.w3.org/2000/svg" xmlns:xlink="http://www.w3.org/1999/xlink" x="0px" y="0px" width="30" height="30" viewBox="0 0 30 30" xml:space="preserve">
    <g transform="translate(-570 -260)">
        <g xmlns="http://www.w3.org/2000/svg" xmlns:xlink="http://www.w3.org/1999/xlink" id="file-zip-7">
		<path d="M575,287h20v-19l-5-5h-15V287z M585,264v1h-1v1h1v1h-1v1h1v1h-1v1h1v1h-1v1h1v1h-1v1h1v1h-1v1h-1v-1h1v-1h-1v-1h1v-1h-1    v-1h1v-1h-1v-1h1v-1h-1v-1h1v-1h-1v-1h1v-1H585z M583,277h2v3h-2V277z M576,264h6v12v5h4v-5v-12h4v4h4v18h-18V264z"/>
	</g>
	
    </g>
</svg>
