<?xml version="1.0" encoding="iso-8859-1"?>
<!DOCTYPE svg PUBLIC "-//W3C//DTD SVG 1.1//EN" "http://www.w3.org/Graphics/SVG/1.1/DTD/svg11.dtd">
<svg version="1.1" xmlns="http://www.w3.org/2000/svg" xmlns:xlink="http://www.w3.org/1999/xlink" x="0px" y="0px" width="30" height="30" viewBox="0 0 30 30" xml:space="preserve">
    <g transform="translate(-330 -200)">
        <g xmlns="http://www.w3.org/2000/svg" xmlns:xlink="http://www.w3.org/1999/xlink" id="file-lock-7">
		<path d="M360,219h-2v-1c0-1.957-1.256-3.604-3-4.225V208l-5-5h-15v24h12v3h13V219z M357,218v1h-7v-1c0-1.93,1.57-3.5,3.5-3.5    S357,216.07,357,218z M336,226v-22h14v4h4v5.55c-0.166-0.019-0.329-0.05-0.5-0.05c-2.485,0-4.5,2.015-4.5,4.5v1h-2v7H336z     M359,229h-11v-9h11V229z"/>
		<path d="M354,224.908c0.581-0.207,1-0.756,1-1.408c0-0.828-0.672-1.5-1.5-1.5s-1.5,0.672-1.5,1.5c0,0.652,0.419,1.201,1,1.408V227    h1v-1V224.908z"/>
	</g>
	
    </g>
</svg>
