<?xml version="1.0" encoding="iso-8859-1"?>
<!DOCTYPE svg PUBLIC "-//W3C//DTD SVG 1.1//EN" "http://www.w3.org/Graphics/SVG/1.1/DTD/svg11.dtd">
<svg version="1.1" xmlns="http://www.w3.org/2000/svg" xmlns:xlink="http://www.w3.org/1999/xlink" x="0px" y="0px" width="30" height="30" viewBox="0 0 30 30" xml:space="preserve">
    <g transform="translate(-30 -320)">
        <g xmlns="http://www.w3.org/2000/svg" xmlns:xlink="http://www.w3.org/1999/xlink" id="file-write-7">
		<polygon points="54,346 36,346 36,324 50,324 50,328 54,328 54,329.465 55,328.465 55,328 50,323 35,323 35,347 55,347     55,335.537 54,336.537   "/>
		<polygon points="45.476,342.232 44.769,341.525 56.789,329.504 56.081,328.798 43.354,341.526 43,344 45.477,343.646     58.204,330.919 57.496,330.213   "/>
		<polygon points="58.912,330.211 59.617,329.504 57.497,327.383 56.79,328.09 57.698,328.999 58.911,330.212   "/>
	</g>
	
    </g>
</svg>
