<?xml version="1.0" encoding="iso-8859-1"?>
<!DOCTYPE svg PUBLIC "-//W3C//DTD SVG 1.1//EN" "http://www.w3.org/Graphics/SVG/1.1/DTD/svg11.dtd">
<svg version="1.1" xmlns="http://www.w3.org/2000/svg" xmlns:xlink="http://www.w3.org/1999/xlink" x="0px" y="0px" width="30" height="30" viewBox="0 0 30 30" xml:space="preserve">
    <g transform="translate(-90 -200)">
        <g xmlns="http://www.w3.org/2000/svg" xmlns:xlink="http://www.w3.org/1999/xlink" id="file-plus-7">
		<path d="M115,215.436V208l-5-5H95v24h11.51c1.369,1.819,3.539,3,5.99,3c4.143,0,7.5-3.357,7.5-7.5    C120,219.235,117.911,216.466,115,215.436z M96,226v-22h14v4h4v7.15c-0.484-0.098-0.986-0.15-1.5-0.15c-4.143,0-7.5,3.357-7.5,7.5    c0,1.265,0.316,2.455,0.869,3.5H96z M112.5,229c-3.59,0-6.5-2.91-6.5-6.5s2.91-6.5,6.5-6.5s6.5,2.91,6.5,6.5S116.09,229,112.5,229    z"/>
		<polygon points="113,222 113,218 112,218 112,222 108,222 108,223 112,223 112,227 113,227 113,223 117,223 117,222   "/>
	</g>
	
    </g>
</svg>
