<?xml version="1.0" encoding="iso-8859-1"?>
<!DOCTYPE svg PUBLIC "-//W3C//DTD SVG 1.1//EN" "http://www.w3.org/Graphics/SVG/1.1/DTD/svg11.dtd">
<svg version="1.1" xmlns="http://www.w3.org/2000/svg" xmlns:xlink="http://www.w3.org/1999/xlink" x="0px" y="0px" width="30" height="30" viewBox="0 0 30 30" xml:space="preserve">
    <g transform="translate(-210 -380)">
        <g xmlns="http://www.w3.org/2000/svg" xmlns:xlink="http://www.w3.org/1999/xlink" id="file-reflect-7">
		<polygon points="229,406 229,396 233.994,396 230.92,398.857 231.602,399.59 236,395.501 231.602,391.411 230.92,392.144     233.992,395 229,395 229,388 233,388 233,384 240,384 240,383 233,383 228,388 228,395 222,395 222,388 217,383 210,383 210,384     217,384 217,388 221,388 221,395 216,395 216,396 221,396 221,406 210,406 210,407 222,407 222,396 228,396 228,407 240,407     240,406   "/>
	</g>
	
    </g>
</svg>
