<?xml version="1.0" encoding="iso-8859-1"?>
<!DOCTYPE svg PUBLIC "-//W3C//DTD SVG 1.1//EN" "http://www.w3.org/Graphics/SVG/1.1/DTD/svg11.dtd">
<svg version="1.1" xmlns="http://www.w3.org/2000/svg" xmlns:xlink="http://www.w3.org/1999/xlink" x="0px" y="0px" width="30" height="30" viewBox="0 0 30 30" xml:space="preserve">
    <g transform="translate(-150 -320)">
        <g xmlns="http://www.w3.org/2000/svg" xmlns:xlink="http://www.w3.org/1999/xlink" id="file-check-7">
		<polygon points="155,347 171.465,347 170.465,346 156,346 156,324 170,324 170,328 174,328 174,342.465 175,343.465 175,328     170,323 155,323   "/>
		<path d="M164.999,330c-3.865,0-6.999,3.135-6.999,7c-0.001,3.867,3.133,7,6.999,7c1.018,0,1.981-0.222,2.854-0.611    c0.631-0.282,1.211-0.655,1.727-1.103l7.087,7.089l0.707-0.707l-7.087-7.089c0.446-0.516,0.818-1.095,1.102-1.727    c0.389-0.872,0.61-1.835,0.61-2.853C172,333.135,168.865,330,164.999,330z M164.999,343c-3.314,0-6-2.686-6-6    c0.001-3.313,2.686-6,6-6c3.313,0,6,2.686,6,6C171,340.314,168.313,343,164.999,343z"/>
	</g>
	
    </g>
</svg>
