<?xml version="1.0" encoding="iso-8859-1"?>
<!DOCTYPE svg PUBLIC "-//W3C//DTD SVG 1.1//EN" "http://www.w3.org/Graphics/SVG/1.1/DTD/svg11.dtd">
<svg version="1.1" xmlns="http://www.w3.org/2000/svg" xmlns:xlink="http://www.w3.org/1999/xlink" x="0px" y="0px" width="30" height="30" viewBox="0 0 30 30" xml:space="preserve">
    <g transform="translate(-570 -380)">
        <g xmlns="http://www.w3.org/2000/svg" xmlns:xlink="http://www.w3.org/1999/xlink" id="file-folder-7">
		<path d="M576,382h5c0.33,0,0.936,0.201,1.199,0.4l2.401,1.8c0.606,0.456,1.639,0.8,2.399,0.8h11v3h-11.586l1,1H598v13h-8v1h8    c0.55,0,1-0.45,1-1v-17c0-0.55-0.45-1-1-1h-11c-0.55,0-1.36-0.27-1.8-0.6l-2.4-1.801c-0.439-0.33-1.25-0.6-1.8-0.6h-5    c-0.55,0-1,0.45-1,1v4h1V382z"/>
		<path d="M589,392l-5-5h-13v22h18V392z M572,408v-20h4h8v4h4v16H572z"/>
	</g>
	
    </g>
</svg>
