<?xml version="1.0" encoding="iso-8859-1"?>
<!DOCTYPE svg PUBLIC "-//W3C//DTD SVG 1.1//EN" "http://www.w3.org/Graphics/SVG/1.1/DTD/svg11.dtd">
<svg version="1.1" xmlns="http://www.w3.org/2000/svg" xmlns:xlink="http://www.w3.org/1999/xlink" x="0px" y="0px" width="30" height="30" viewBox="0 0 30 30" xml:space="preserve">
    <g transform="translate(-510 -320)">
        <g xmlns="http://www.w3.org/2000/svg" xmlns:xlink="http://www.w3.org/1999/xlink" id="file-copy-7">
		<path d="M537,349v-14.25l-3.75-3.75H531v-7h-5v-2h-8v2h-5v22h9v3H537z M533,332v3h3v13h-13v-16H533z M519,323h6v2h-6V323z     M514,345v-20h4v1h8v-1h4v6h-8v14H514z"/>
		<rect x="526" y="337" width="7" height="1"/>
		<rect x="526" y="340" width="7" height="1"/>
		<rect x="526" y="343" width="7" height="1"/>
	</g>
	
    </g>
</svg>
