<?xml version="1.0" encoding="iso-8859-1"?>
<!DOCTYPE svg PUBLIC "-//W3C//DTD SVG 1.1//EN" "http://www.w3.org/Graphics/SVG/1.1/DTD/svg11.dtd">
<svg version="1.1" xmlns="http://www.w3.org/2000/svg" xmlns:xlink="http://www.w3.org/1999/xlink" x="0px" y="0px" width="30" height="30" viewBox="0 0 30 30" xml:space="preserve">
    <g transform="translate(-210 -320)">
        <g xmlns="http://www.w3.org/2000/svg" xmlns:xlink="http://www.w3.org/1999/xlink" id="file-invisible-7">
		<polygon points="216,324 217,324 217,323 216,323 215,323 215,324 215,325 216,325   "/>
		<rect x="220" y="323" width="1" height="1"/>
		<rect x="218" y="323" width="1" height="1"/>
		<rect x="222" y="323" width="1" height="1"/>
		<rect x="224" y="323" width="1" height="1"/>
		<rect x="226" y="323" width="1" height="1"/>
		<rect x="228" y="323" width="1" height="1"/>
		<rect x="230" y="323" width="1" height="1"/>
		<rect x="232" y="325" width="1" height="1"/>
		<rect x="219" y="346" width="1" height="1"/>
		<rect x="217" y="346" width="1" height="1"/>
		<rect x="221" y="346" width="1" height="1"/>
		<rect x="223" y="346" width="1" height="1"/>
		<rect x="225" y="346" width="1" height="1"/>
		<rect x="227" y="346" width="1" height="1"/>
		<rect x="229" y="346" width="1" height="1"/>
		<rect x="231" y="346" width="1" height="1"/>
		<polygon points="235,347 235,346 235,345 234,345 234,346 233,346 233,347 234,347   "/>
		<rect x="215" y="326" width="1" height="1"/>
		<rect x="215" y="328" width="1" height="1"/>
		<rect x="215" y="330" width="1" height="1"/>
		<rect x="215" y="332" width="1" height="1"/>
		<rect x="215" y="334" width="1" height="1"/>
		<rect x="215" y="336" width="1" height="1"/>
		<rect x="215" y="338" width="1" height="1"/>
		<rect x="215" y="340" width="1" height="1"/>
		<rect x="215" y="342" width="1" height="1"/>
		<rect x="234" y="327" width="1" height="1"/>
		<rect x="234" y="329" width="1" height="1"/>
		<rect x="234" y="331" width="1" height="1"/>
		<rect x="234" y="333" width="1" height="1"/>
		<rect x="234" y="335" width="1" height="1"/>
		<rect x="234" y="337" width="1" height="1"/>
		<rect x="234" y="339" width="1" height="1"/>
		<rect x="234" y="341" width="1" height="1"/>
		<rect x="234" y="343" width="1" height="1"/>
		<rect x="215" y="344" width="1" height="1"/>
		<rect x="215" y="346" width="1" height="1"/>
	</g>
	
    </g>
</svg>
