<?xml version="1.0" encoding="iso-8859-1"?>
<!DOCTYPE svg PUBLIC "-//W3C//DTD SVG 1.1//EN" "http://www.w3.org/Graphics/SVG/1.1/DTD/svg11.dtd">
<svg version="1.1" xmlns="http://www.w3.org/2000/svg" xmlns:xlink="http://www.w3.org/1999/xlink" x="0px" y="0px" width="30" height="30" viewBox="0 0 30 30" xml:space="preserve">
    <g transform="translate(-210 -620)">
        <g xmlns="http://www.w3.org/2000/svg" xmlns:xlink="http://www.w3.org/1999/xlink" id="folder-invisible-7">
		<rect x="212" y="623" width="1" height="1"/>
		<rect x="212" y="625" width="1" height="1"/>
		<rect x="212" y="627" width="1" height="1"/>
		<rect x="212" y="629" width="1" height="1"/>
		<rect x="212" y="631" width="1" height="1"/>
		<rect x="212" y="633" width="1" height="1"/>
		<rect x="212" y="635" width="1" height="1"/>
		<rect x="212" y="637" width="1" height="1"/>
		<rect x="212" y="639" width="1" height="1"/>
		<rect x="212" y="641" width="1" height="1"/>
		<rect x="212" y="643" width="1" height="1"/>
		<rect x="237" y="626" width="1" height="1"/>
		<rect x="237" y="628" width="1" height="1"/>
		<rect x="237" y="630" width="1" height="1"/>
		<rect x="237" y="632" width="1" height="1"/>
		<rect x="237" y="634" width="1" height="1"/>
		<rect x="237" y="636" width="1" height="1"/>
		<rect x="237" y="638" width="1" height="1"/>
		<rect x="235" y="626" width="1" height="1"/>
		<rect x="233" y="626" width="1" height="1"/>
		<rect x="231" y="626" width="1" height="1"/>
		<rect x="229" y="626" width="1" height="1"/>
		<rect x="227" y="626" width="1" height="1"/>
		<rect x="225" y="626" width="1" height="1"/>
		<rect x="223" y="626" width="1" height="1"/>
		<rect x="237" y="640" width="1" height="1"/>
		<rect x="237" y="642" width="1" height="1"/>
		<rect x="237" y="644" width="1" height="1"/>
		<rect x="233" y="646" width="1" height="1"/>
		<rect x="235" y="646" width="1" height="1"/>
		<rect x="237" y="646" width="1" height="1"/>
		<rect x="231" y="646" width="1" height="1"/>
		<rect x="229" y="646" width="1" height="1"/>
		<rect x="227" y="646" width="1" height="1"/>
		<rect x="225" y="646" width="1" height="1"/>
		<rect x="223" y="646" width="1" height="1"/>
		<rect x="221" y="646" width="1" height="1"/>
		<rect x="219" y="646" width="1" height="1"/>
		<rect x="217" y="646" width="1" height="1"/>
		<rect x="215" y="646" width="1" height="1"/>
		<polygon points="213,645 212,645 212,646 212,647 214,647 214,646 213,646   "/>
		<rect x="214" y="623" width="1" height="1"/>
		<rect x="216" y="623" width="1" height="1"/>
		<rect x="218" y="623" width="1" height="1"/>
		<rect x="220" y="624" width="1" height="1"/>
		<rect x="221" y="625" width="1" height="1"/>
	</g>
	
    </g>
</svg>
