<?xml version="1.0" encoding="iso-8859-1"?>
<!DOCTYPE svg PUBLIC "-//W3C//DTD SVG 1.1//EN" "http://www.w3.org/Graphics/SVG/1.1/DTD/svg11.dtd">
<svg version="1.1" xmlns="http://www.w3.org/2000/svg" xmlns:xlink="http://www.w3.org/1999/xlink" x="0px" y="0px" width="30" height="30" viewBox="0 0 30 30" xml:space="preserve">
    <g transform="translate(-390 -620)">
        <g xmlns="http://www.w3.org/2000/svg" xmlns:xlink="http://www.w3.org/1999/xlink" id="folder-two-7">
		<path d="M419,624h-12c-0.55,0-1.36-0.27-1.8-0.6l-2.4-1.801c-0.439-0.33-1.25-0.6-1.8-0.6h-6c-0.55,0-1,0.45-1,1v2h1v-2h6    c0.33,0,0.936,0.201,1.199,0.4l2.401,1.8c0.606,0.456,1.639,0.8,2.399,0.8h12v19h-2v1h2c0.55,0,1-0.45,1-1v-19    C420,624.45,419.55,624,419,624z"/>
		<path d="M415,628h-12c-0.55,0-1.36-0.27-1.8-0.6l-2.4-1.801c-0.439-0.33-1.25-0.6-1.8-0.6h-6c-0.55,0-1,0.45-1,1v22    c0,0.55,0.45,1,1,1h24c0.55,0,1-0.45,1-1v-19C416,628.45,415.55,628,415,628z M391,626h6c0.33,0,0.936,0.201,1.199,0.4l2.401,1.8    c0.606,0.456,1.639,0.8,2.399,0.8h12v3h-24V626z M415,648h-24v-15h24V648z"/>
	</g>
	
    </g>
</svg>
