<?xml version="1.0" encoding="iso-8859-1"?>
<!DOCTYPE svg PUBLIC "-//W3C//DTD SVG 1.1//EN" "http://www.w3.org/Graphics/SVG/1.1/DTD/svg11.dtd">
<svg version="1.1" xmlns="http://www.w3.org/2000/svg" xmlns:xlink="http://www.w3.org/1999/xlink" x="0px" y="0px" width="30" height="30" viewBox="0 0 30 30" xml:space="preserve">
    <g transform="translate(-210 -560)">
        <g xmlns="http://www.w3.org/2000/svg" xmlns:xlink="http://www.w3.org/1999/xlink" id="folder-star-7">
		<path d="M238,567c0-0.55-0.45-1-1-1h-12c-0.55,0-1.36-0.27-1.8-0.6l-2.4-1.801c-0.439-0.33-1.25-0.6-1.8-0.6h-6    c-0.55,0-1,0.45-1,1v22c0,0.55,0.45,1,1,1h13.51c1.369,1.818,3.539,3,5.99,3c4.143,0,7.5-3.357,7.5-7.5    c0-1.966-0.763-3.75-2-5.087V567z M213,564h6c0.33,0,0.936,0.201,1.199,0.4l2.401,1.8c0.606,0.456,1.639,0.8,2.399,0.8h12v3h-24    V564z M213,586v-15h24v5.51c-1.254-0.943-2.809-1.51-4.5-1.51c-4.143,0-7.5,3.357-7.5,7.5c0,1.265,0.316,2.455,0.869,3.5H213z     M239,582.5c0,3.59-2.91,6.5-6.5,6.5s-6.5-2.91-6.5-6.5s2.91-6.5,6.5-6.5S239,578.91,239,582.5z"/>
		<polygon points="229.717,586.344 232.5,584.336 235.278,586.344 234.23,583.078 237,581 233.568,581 232.5,577.785 231.43,581     228,581 230.768,583.078   "/>
	</g>
	
    </g>
</svg>
