<?xml version="1.0" encoding="iso-8859-1"?>
<!DOCTYPE svg PUBLIC "-//W3C//DTD SVG 1.1//EN" "http://www.w3.org/Graphics/SVG/1.1/DTD/svg11.dtd">
<svg version="1.1" xmlns="http://www.w3.org/2000/svg" xmlns:xlink="http://www.w3.org/1999/xlink" x="0px" y="0px" width="30" height="30" viewBox="0 0 30 30" xml:space="preserve">
    <g transform="translate(-330 -620)">
        <g xmlns="http://www.w3.org/2000/svg" xmlns:xlink="http://www.w3.org/1999/xlink" id="folder-cut-7">
		<path d="M356.5,637c-1.933,0-3.5,1.567-3.5,3.5s1.567,3.5,3.5,3.5s3.5-1.567,3.5-3.5S358.433,637,356.5,637z M356.5,643    c-1.379,0-2.5-1.121-2.5-2.5s1.121-2.5,2.5-2.5s2.5,1.121,2.5,2.5S357.879,643,356.5,643z"/>
		<path d="M356.539,629c-0.007,0-0.013,0.002-0.02,0.002S356.507,629,356.5,629c-1.933,0-3.5,1.567-3.5,3.5    c0,0.572,0.15,1.105,0.395,1.582L352,635.193V627c0-0.55-0.45-1-1-1h-12c-0.55,0-1.36-0.27-1.8-0.6l-2.4-1.801    c-0.439-0.33-1.25-0.6-1.8-0.6h-3v1h3c0.33,0,0.936,0.201,1.199,0.4l2.401,1.8c0.606,0.456,1.639,0.8,2.399,0.8h12v7h-1v1h1v0.99    l-9,7.17c0.931,1.168,4.919-0.459,9-3.637V646h-21v1h21c0.55,0,1-0.45,1-1v-7.29c1.203-1.011,2.258-2.036,3.103-3.005    c0.429,0.188,0.899,0.295,1.397,0.295c1.933,0,3.5-1.567,3.5-3.5c0-0.007-0.002-0.013-0.002-0.02s0.002-0.013,0.002-0.02    C360,630.549,358.45,629,356.539,629z M359,632.5c0,1.379-1.121,2.5-2.5,2.5s-2.5-1.121-2.5-2.5s1.121-2.5,2.5-2.5    S359,631.121,359,632.5z M352,637.81c-0.353,0.307-0.727,0.619-1.125,0.937c-3.302,2.631-5.927,3.779-7.306,4.049l8.431-6.717    l1.771-1.411c0.207,0.261,0.442,0.496,0.715,0.688C353.825,636.107,353.008,636.933,352,637.81z"/>
		<rect x="348" y="634" width="1" height="1"/>
		<rect x="346" y="634" width="1" height="1"/>
		<rect x="344" y="634" width="1" height="1"/>
		<rect x="342" y="634" width="1" height="1"/>
		<rect x="340" y="634" width="1" height="1"/>
		<rect x="338" y="634" width="1" height="1"/>
		<rect x="336" y="634" width="1" height="1"/>
		<rect x="334" y="634" width="1" height="1"/>
		<rect x="332" y="634" width="1" height="1"/>
		<rect x="330" y="634" width="1" height="1"/>
	</g>
	
    </g>
</svg>
