<?xml version="1.0" encoding="iso-8859-1"?>
<!DOCTYPE svg PUBLIC "-//W3C//DTD SVG 1.1//EN" "http://www.w3.org/Graphics/SVG/1.1/DTD/svg11.dtd">
<svg version="1.1" xmlns="http://www.w3.org/2000/svg" xmlns:xlink="http://www.w3.org/1999/xlink" x="0px" y="0px" width="30" height="30" viewBox="0 0 30 30" xml:space="preserve">
    <g transform="translate(-150 -620)">
        <g xmlns="http://www.w3.org/2000/svg" xmlns:xlink="http://www.w3.org/1999/xlink" id="folder-check-7">
		<path d="M153,646v-15h5.521c0.237-0.354,0.506-0.684,0.789-1H153v-6h6c0.33,0,0.936,0.201,1.199,0.4l2.401,1.8    c0.606,0.456,1.639,0.8,2.399,0.8h12v3h-4.307c0.287,0.319,0.557,0.649,0.793,1H177v12.465l1,1V627c0-0.55-0.45-1-1-1h-12    c-0.55,0-1.36-0.27-1.8-0.6l-2.4-1.801c-0.439-0.33-1.25-0.6-1.8-0.6h-6c-0.55,0-1,0.45-1,1v22c0,0.55,0.45,1,1,1h20.465l-1-1H153    z"/>
		<path d="M171.287,640.58c1.064-1.229,1.713-2.826,1.713-4.58c0.001-3.865-3.134-7-7-7s-7,3.135-7,7c-0.001,3.867,3.133,7,7,7    c1.753,0,3.352-0.648,4.58-1.713l7.087,7.088l0.707-0.707L171.287,640.58z M166,642c-3.314,0-6-2.686-6-6c0.001-3.313,2.686-6,6-6    c3.313,0,6,2.686,6,6c0,1.649-0.666,3.143-1.742,4.227l-0.031,0.031C169.143,641.334,167.648,642,166,642z"/>
	</g>
	
    </g>
</svg>
