<?xml version="1.0" encoding="iso-8859-1"?>
<!DOCTYPE svg PUBLIC "-//W3C//DTD SVG 1.1//EN" "http://www.w3.org/Graphics/SVG/1.1/DTD/svg11.dtd">
<svg version="1.1" xmlns="http://www.w3.org/2000/svg" xmlns:xlink="http://www.w3.org/1999/xlink" x="0px" y="0px" width="30" height="30" viewBox="0 0 30 30" xml:space="preserve">
    <g transform="translate(-150 -560)">
        <g xmlns="http://www.w3.org/2000/svg" xmlns:xlink="http://www.w3.org/1999/xlink" id="folder-minus-7">
		<path d="M152,564v22c0,0.55,0.45,1,1,1h13.51c1.369,1.818,3.539,3,5.99,3c4.143,0,7.5-3.357,7.5-7.5c0-1.966-0.763-3.75-2-5.087    V567c0-0.55-0.45-1-1-1h-12c-0.55,0-1.36-0.27-1.8-0.6l-2.4-1.801c-0.439-0.33-1.25-0.6-1.8-0.6h-6C152.45,563,152,563.45,152,564    z M153,586v-15h24v5.51c-1.254-0.943-2.809-1.51-4.5-1.51c-4.143,0-7.5,3.357-7.5,7.5c0,1.265,0.316,2.455,0.869,3.5H153z     M179,582.5c0,3.59-2.91,6.5-6.5,6.5s-6.5-2.91-6.5-6.5s2.91-6.5,6.5-6.5S179,578.91,179,582.5z M160.199,564.4l2.401,1.8    c0.606,0.456,1.639,0.8,2.399,0.8h12v3h-24v-6h6C159.33,564,159.936,564.201,160.199,564.4z"/>
		<rect x="168" y="582" width="9" height="1"/>
	</g>
	
    </g>
</svg>
