<?xml version="1.0" encoding="iso-8859-1"?>
<!DOCTYPE svg PUBLIC "-//W3C//DTD SVG 1.1//EN" "http://www.w3.org/Graphics/SVG/1.1/DTD/svg11.dtd">
<svg version="1.1" xmlns="http://www.w3.org/2000/svg" xmlns:xlink="http://www.w3.org/1999/xlink" x="0px" y="0px" width="30" height="30" viewBox="0 0 30 30" xml:space="preserve">
    <g transform="translate(-450 -620)">
        <g xmlns="http://www.w3.org/2000/svg" xmlns:xlink="http://www.w3.org/1999/xlink" id="folder-three-7">
		<path d="M479,624h-10c-0.55,0-1.36-0.27-1.8-0.6l-2.4-1.801c-0.439-0.33-1.25-0.6-1.8-0.6h-5c-0.55,0-1,0.45-1,1v2h-2    c-0.55,0-1,0.45-1,1v2h-2c-0.55,0-1,0.45-1,1v19c0,0.55,0.45,1,1,1h21c0.55,0,1-0.45,1-1v-2h2c0.55,0,1-0.45,1-1v-2h2    c0.55,0,1-0.45,1-1v-16C480,624.45,479.55,624,479,624z M452,628h5c0.33,0,0.936,0.201,1.199,0.4l2.401,1.8    c0.606,0.456,1.639,0.8,2.399,0.8h10v2h-21V628z M473,647h-21v-13h21V647z M476,644h-2v-13c0-0.55-0.45-1-1-1h-10    c-0.55,0-1.36-0.27-1.8-0.6l-2.4-1.801c-0.439-0.33-1.25-0.6-1.8-0.6h-2v-2h5c0.33,0,0.936,0.201,1.199,0.4l2.401,1.8    c0.606,0.456,1.639,0.8,2.399,0.8h10V644z M479,641h-2v-13c0-0.55-0.45-1-1-1h-10c-0.55,0-1.36-0.27-1.8-0.6l-2.4-1.801    c-0.439-0.33-1.25-0.6-1.8-0.6h-2v-2h5c0.33,0,0.936,0.201,1.199,0.4l2.401,1.8c0.606,0.456,1.639,0.8,2.399,0.8h10V641z"/>
	</g>
	
    </g>
</svg>
