<?xml version="1.0" encoding="iso-8859-1"?>
<!DOCTYPE svg PUBLIC "-//W3C//DTD SVG 1.1//EN" "http://www.w3.org/Graphics/SVG/1.1/DTD/svg11.dtd">
<svg version="1.1" xmlns="http://www.w3.org/2000/svg" xmlns:xlink="http://www.w3.org/1999/xlink" x="0px" y="0px" width="30" height="30" viewBox="0 0 30 30" xml:space="preserve">
    <g transform="translate(-30 -440)">
        <g xmlns="http://www.w3.org/2000/svg" xmlns:xlink="http://www.w3.org/1999/xlink" id="paper-piece-7">
		<path d="M57,442H33v26h20l4-4V442z M34,467v-24h3v1h-1v3h3v-3h-1v-1h4v1h-1v3h3v-3h-1v-1h4v1h-1v3h3v-3h-1v-1h4v1h-1v3h3v-3h-1v-1    h3v20h-4v4H34z M38,445v1h-1v-1H38z M43,445v1h-1v-1H43z M48,445v1h-1v-1H48z M53,445v1h-1v-1H53z"/>
	</g>
	
    </g>
</svg>
