<?xml version="1.0" encoding="iso-8859-1"?>
<!DOCTYPE svg PUBLIC "-//W3C//DTD SVG 1.1//EN" "http://www.w3.org/Graphics/SVG/1.1/DTD/svg11.dtd">
<svg version="1.1" xmlns="http://www.w3.org/2000/svg" xmlns:xlink="http://www.w3.org/1999/xlink" x="0px" y="0px" width="30" height="30" viewBox="0 0 30 30" xml:space="preserve">
    <g transform="translate(-210 -440)">
        <g xmlns="http://www.w3.org/2000/svg" xmlns:xlink="http://www.w3.org/1999/xlink" id="paper-piece-star-7">
		<path d="M237,456.51V442h-24v26h14.413c1.337,1.237,3.121,2,5.087,2c4.143,0,7.5-3.357,7.5-7.5    C240,460.049,238.818,457.879,237,456.51z M214,443h3v1h-1v3h3v-3h-1v-1h4v1h-1v3h3v-3h-1v-1h4v1h-1v3h3v-3h-1v-1h4v1h-1v3h3v-3    h-1v-1h3v12.869c-1.045-0.553-2.235-0.869-3.5-0.869c-4.143,0-7.5,3.357-7.5,7.5c0,1.691,0.566,3.246,1.51,4.5H214V443z M218,445    v1h-1v-1H218z M223,445v1h-1v-1H223z M228,445v1h-1v-1H228z M233,445v1h-1v-1H233z M232.5,469c-3.59,0-6.5-2.91-6.5-6.5    s2.91-6.5,6.5-6.5s6.5,2.91,6.5,6.5S236.09,469,232.5,469z"/>
		<polygon points="233.568,461 232.5,457.785 231.43,461 228,461 230.768,463.078 229.717,466.344 232.5,464.336 235.278,466.344     234.23,463.078 237,461   "/>
	</g>
	
    </g>
</svg>
