<?xml version="1.0" encoding="iso-8859-1"?>
<!DOCTYPE svg PUBLIC "-//W3C//DTD SVG 1.1//EN" "http://www.w3.org/Graphics/SVG/1.1/DTD/svg11.dtd">
<svg version="1.1" xmlns="http://www.w3.org/2000/svg" xmlns:xlink="http://www.w3.org/1999/xlink" x="0px" y="0px" width="30" height="30" viewBox="0 0 30 30" xml:space="preserve">
    <g transform="translate(-450 -440)">
        <g xmlns="http://www.w3.org/2000/svg" xmlns:xlink="http://www.w3.org/1999/xlink" id="paper-piece-upload-7">
		<path d="M477,456.51V442h-24v26h14.413c1.337,1.237,3.121,2,5.087,2c4.143,0,7.5-3.357,7.5-7.5    C480,460.049,478.818,457.878,477,456.51z M454,443h3v1h-1v3h3v-3h-1v-1h4v1h-1v3h3v-3h-1v-1h4v1h-1v3h3v-3h-1v-1h4v1h-1v3h3v-3    h-1v-1h3v12.869c-1.045-0.553-2.235-0.869-3.5-0.869c-4.143,0-7.5,3.357-7.5,7.5c0,1.691,0.566,3.246,1.51,4.5H454V443z M458,445    v1h-1v-1H458z M463,445v1h-1v-1H463z M468,445v1h-1v-1H468z M473,445v1h-1v-1H473z M472.5,469c-3.59,0-6.5-2.91-6.5-6.5    s2.91-6.5,6.5-6.5s6.5,2.91,6.5,6.5S476.09,469,472.5,469z"/>
		<polygon points="472,460.508 472,463 472,466 473,466 473,460.506 475.857,463.58 476.59,462.898 472.501,458.5 468.411,462.898     469.144,463.58   "/>
	</g>
	
    </g>
</svg>
