<?xml version="1.0" encoding="iso-8859-1"?>
<!DOCTYPE svg PUBLIC "-//W3C//DTD SVG 1.1//EN" "http://www.w3.org/Graphics/SVG/1.1/DTD/svg11.dtd">
<svg version="1.1" xmlns="http://www.w3.org/2000/svg" xmlns:xlink="http://www.w3.org/1999/xlink" x="0px" y="0px" width="30" height="30" viewBox="0 0 30 30" xml:space="preserve">
    <g transform="translate(-210 -500)">
        <g xmlns="http://www.w3.org/2000/svg" xmlns:xlink="http://www.w3.org/1999/xlink" id="paper-piece-x-7">
		<path d="M233,528l4-4v-22h-24v26H233z M214,527v-24h3v1h-1v3h3v-3h-1v-1h4v1h-1v3h3v-3h-1v-1h4v1h-1v3h3v-3h-1v-1h4v1h-1v3h3v-3    h-1v-1h3v20h-4v4H214z M218,505v1h-1v-1H218z M223,505v1h-1v-1H223z M228,505v1h-1v-1H228z M233,505v1h-1v-1H233z"/>
		<polygon points="229.646,510.646 225,515.293 220.354,510.646 219.646,511.354 224.293,516 219.646,520.646 220.354,521.354     225,516.707 229.646,521.354 230.354,520.646 225.707,516 230.354,511.354   "/>
	</g>
	
    </g>
</svg>
