<?xml version="1.0" encoding="iso-8859-1"?>
<!DOCTYPE svg PUBLIC "-//W3C//DTD SVG 1.1//EN" "http://www.w3.org/Graphics/SVG/1.1/DTD/svg11.dtd">
<svg version="1.1" xmlns="http://www.w3.org/2000/svg" xmlns:xlink="http://www.w3.org/1999/xlink" x="0px" y="0px" width="30" height="30" viewBox="0 0 30 30" xml:space="preserve">
    <g transform="translate(-90 -500)">
        <g xmlns="http://www.w3.org/2000/svg" xmlns:xlink="http://www.w3.org/1999/xlink" id="paper-piece-list-7">
		<path d="M113,528l4-4v-22H93v26H113z M94,527v-24h3v1h-1v3h3v-3h-1v-1h4v1h-1v3h3v-3h-1v-1h4v1h-1v3h3v-3h-1v-1h4v1h-1v3h3v-3h-1    v-1h3v20h-4v4H94z M98,505v1h-1v-1H98z M103,505v1h-1v-1H103z M108,505v1h-1v-1H108z M113,505v1h-1v-1H113z"/>
		<rect x="98" y="512" width="2" height="1"/>
		<rect x="98" y="515" width="2" height="1"/>
		<rect x="98" y="518" width="2" height="1"/>
		<rect x="102" y="512" width="10" height="1"/>
		<rect x="102" y="515" width="10" height="1"/>
		<rect x="102" y="518" width="10" height="1"/>
	</g>
	
    </g>
</svg>
