<?xml version="1.0" encoding="iso-8859-1"?>
<!DOCTYPE svg PUBLIC "-//W3C//DTD SVG 1.1//EN" "http://www.w3.org/Graphics/SVG/1.1/DTD/svg11.dtd">
<svg version="1.1" xmlns="http://www.w3.org/2000/svg" xmlns:xlink="http://www.w3.org/1999/xlink" x="0px" y="0px" width="30" height="30" viewBox="0 0 30 30" xml:space="preserve">
    <g transform="translate(-570 -440)">
        <g xmlns="http://www.w3.org/2000/svg" xmlns:xlink="http://www.w3.org/1999/xlink" id="paper-piece-write-7">
		<path d="M596,463h-4v4h-18v-24h3v1h-1v3h3v-3h-1v-1h4v1h-1v3h3v-3h-1v-1h4v1h-1v3h3v-3h-1v-1h4v1h-1v3h3v-3h-1v-1h3v2.465    l0.08-0.08l0,0l0.92-0.919V442h-24v26h20l4-4v-12.463l-1,1V463z M578,446h-1v-1h1V446z M583,446h-1v-1h1V446z M588,446h-1v-1h1    V446z M593,446h-1v-1h1V446z"/>
		<polygon points="585.476,460.232 584.769,459.525 596.789,447.504 596.081,446.798 583.354,459.526 583,462 585.477,461.646     598.204,448.919 597.496,448.213   "/>
		<rect x="597.704" y="445.298" transform="matrix(-0.7061 0.7081 -0.7081 -0.7061 1336.9832 338.7162)" width="1" height="2.999"/>
	</g>
	
    </g>
</svg>
