<?xml version="1.0" encoding="iso-8859-1"?>
<!DOCTYPE svg PUBLIC "-//W3C//DTD SVG 1.1//EN" "http://www.w3.org/Graphics/SVG/1.1/DTD/svg11.dtd">
<svg version="1.1" xmlns="http://www.w3.org/2000/svg" xmlns:xlink="http://www.w3.org/1999/xlink" x="0px" y="0px" width="30" height="30" viewBox="0 0 30 30" xml:space="preserve">
    <g transform="translate(-150 -500)">
        <g xmlns="http://www.w3.org/2000/svg" xmlns:xlink="http://www.w3.org/1999/xlink" id="paper-piece-list-tick-7">
		<path d="M153,528h20l4-4v-22h-24V528z M154,503h3v1h-1v3h3v-3h-1v-1h4v1h-1v3h3v-3h-1v-1h4v1h-1v3h3v-3h-1v-1h4v1h-1v3h3v-3h-1v-1    h3v20h-4v4h-18V503z M158,505v1h-1v-1H158z M163,505v1h-1v-1H163z M168,505v1h-1v-1H168z M173,505v1h-1v-1H173z"/>
		<rect x="165" y="513" width="7" height="1"/>
		<polygon points="160,513.586 158.586,512.172 157.879,512.879 160,515 164.242,510.758 163.535,510.051   "/>
		<rect x="165" y="519" width="7" height="1"/>
		<polygon points="160,519.586 158.586,518.172 157.879,518.879 160,521 164.242,516.758 163.535,516.051   "/>
	</g>
	
    </g>
</svg>
