<?xml version="1.0" encoding="iso-8859-1"?>
<!DOCTYPE svg PUBLIC "-//W3C//DTD SVG 1.1//EN" "http://www.w3.org/Graphics/SVG/1.1/DTD/svg11.dtd">
<svg version="1.1" xmlns="http://www.w3.org/2000/svg" xmlns:xlink="http://www.w3.org/1999/xlink" x="0px" y="0px" width="30" height="30" viewBox="0 0 30 30" xml:space="preserve">
    <g transform="translate(-330 -440)">
        <g xmlns="http://www.w3.org/2000/svg" xmlns:xlink="http://www.w3.org/1999/xlink" id="paper-piece-clock-7">
		<path d="M357,456.51V442h-24v26h14.413c1.337,1.237,3.121,2,5.087,2c4.143,0,7.5-3.357,7.5-7.5    C360,460.049,358.818,457.878,357,456.51z M334,443h3v1h-1v3h3v-3h-1v-1h4v1h-1v3h3v-3h-1v-1h4v1h-1v3h3v-3h-1v-1h4v1h-1v3h3v-3    h-1v-1h3v12.869c-1.045-0.553-2.235-0.869-3.5-0.869c-4.143,0-7.5,3.357-7.5,7.5c0,1.691,0.566,3.246,1.51,4.5H334V443z M338,445    v1h-1v-1H338z M343,445v1h-1v-1H343z M348,445v1h-1v-1H348z M353,445v1h-1v-1H353z M352.5,469c-3.59,0-6.5-2.91-6.5-6.5    s2.91-6.5,6.5-6.5s6.5,2.91,6.5,6.5S356.09,469,352.5,469z"/>
		<polygon points="353,462 353,458 352,458 352,463 353,463 357,463 357,462   "/>
	</g>
	
    </g>
</svg>
