<?xml version="1.0" encoding="iso-8859-1"?>
<!DOCTYPE svg PUBLIC "-//W3C//DTD SVG 1.1//EN" "http://www.w3.org/Graphics/SVG/1.1/DTD/svg11.dtd">
<svg version="1.1" xmlns="http://www.w3.org/2000/svg" xmlns:xlink="http://www.w3.org/1999/xlink" x="0px" y="0px" width="30" height="30" viewBox="0 0 30 30" xml:space="preserve">
    <g transform="translate(-450 -500)">
        <g xmlns="http://www.w3.org/2000/svg" xmlns:xlink="http://www.w3.org/1999/xlink" id="report-tick-7">
		<path d="M476,515.869V504h-3h-4v-2h-8v2h-4h-3v24h13.413c1.337,1.237,3.121,2,5.087,2c4.143,0,7.5-3.357,7.5-7.5    C480,519.622,478.378,517.127,476,515.869z M475,505v10.436c-0.633-0.224-1.303-0.364-2-0.41V505H475z M462,503h6v2h-6V503z     M461,505v1h8v-1h3v10.025c-3.908,0.258-7,3.501-7,7.475c0,0.514,0.052,1.016,0.15,1.5H458v-19H461z M455,505h2v20h8.436    c0.257,0.725,0.621,1.397,1.074,2H455V505z M472.5,529c-3.59,0-6.5-2.91-6.5-6.5s2.91-6.5,6.5-6.5s6.5,2.91,6.5,6.5    S476.09,529,472.5,529z"/>
		<polygon points="471.086,524.268 468.965,522.146 468.258,522.854 471.086,525.682 476.742,520.025 476.035,519.318   "/>
	</g>
	
    </g>
</svg>
