<?xml version="1.0" encoding="iso-8859-1"?>
<!DOCTYPE svg PUBLIC "-//W3C//DTD SVG 1.1//EN" "http://www.w3.org/Graphics/SVG/1.1/DTD/svg11.dtd">
<svg version="1.1" xmlns="http://www.w3.org/2000/svg" xmlns:xlink="http://www.w3.org/1999/xlink" x="0px" y="0px" width="29" height="30" viewBox="0 0 29 30" xml:space="preserve">
    <g transform="translate(-30 -140)">
        <g xmlns="http://www.w3.org/2000/svg" xmlns:xlink="http://www.w3.org/1999/xlink" id="atom-combo-7">
		<path d="M59,156.5c0-1.381-1.12-2.5-2.5-2.5c-0.928,0-1.728,0.511-2.159,1.262l-1.525-0.826c0.117-0.29,0.185-0.604,0.185-0.936    c0-1.21-0.859-2.218-2.001-2.45v-2.101c1.142-0.231,2.001-1.24,2.001-2.45c0-1.381-1.12-2.5-2.5-2.5    c-1.006,0-1.868,0.598-2.265,1.455l-1.518-0.823C46.892,144.291,47,143.91,47,143.5c0-1.381-1.12-2.5-2.5-2.5s-2.5,1.119-2.5,2.5    c0,0.41,0.108,0.791,0.282,1.132l-1.518,0.823C40.368,144.598,39.506,144,38.5,144c-1.38,0-2.5,1.119-2.5,2.5    c0,1.209,0.858,2.218,1.999,2.45v2.101c-1.141,0.232-1.999,1.24-1.999,2.45c0,0.332,0.067,0.646,0.185,0.936l-1.525,0.826    C34.228,154.511,33.428,154,32.5,154c-1.38,0-2.5,1.119-2.5,2.5c0,1.209,0.859,2.218,2,2.45v2.101c-1.141,0.232-2,1.24-2,2.45    c0,1.381,1.12,2.5,2.5,2.5c0.769,0,1.446-0.354,1.905-0.899l1.646,0.892C36.019,166.156,36,166.326,36,166.5    c0,1.381,1.12,2.5,2.5,2.5s2.5-1.119,2.5-2.5c0-0.174-0.019-0.343-0.052-0.507l1.646-0.892C43.054,165.646,43.731,166,44.5,166    s1.446-0.354,1.905-0.899l1.646,0.892C48.019,166.156,48,166.326,48,166.5c0,1.381,1.12,2.5,2.5,2.5s2.5-1.119,2.5-2.5    c0-0.174-0.019-0.343-0.052-0.507l1.646-0.892C55.054,165.646,55.731,166,56.5,166c1.38,0,2.5-1.119,2.5-2.5    c0-1.209-0.859-2.218-2-2.45v-2.101C58.141,158.718,59,157.709,59,156.5z M56.5,155c0.827,0,1.5,0.673,1.5,1.5s-0.673,1.5-1.5,1.5    s-1.5-0.673-1.5-1.5S55.673,155,56.5,155z M52,153.5c0,0.827-0.673,1.5-1.5,1.5s-1.5-0.673-1.5-1.5s0.673-1.5,1.5-1.5    S52,152.673,52,153.5z M50.5,145c0.827,0,1.5,0.673,1.5,1.5s-0.673,1.5-1.5,1.5s-1.5-0.673-1.5-1.5S49.673,145,50.5,145z     M43,143.5c0-0.827,0.673-1.5,1.5-1.5s1.5,0.673,1.5,1.5s-0.673,1.5-1.5,1.5S43,144.327,43,143.5z M42.921,145.424    C43.353,145.778,43.897,146,44.5,146s1.147-0.222,1.579-0.576l1.924,1.043c0,0.011-0.003,0.021-0.003,0.033    c0,1.209,0.858,2.218,1.999,2.45v2.101c-1.141,0.232-1.999,1.24-1.999,2.45c0,0.331,0.067,0.646,0.185,0.935l-1.525,0.826    C46.228,154.511,45.427,154,44.5,154c-0.928,0-1.728,0.511-2.159,1.262l-1.525-0.826c0.117-0.29,0.185-0.604,0.185-0.936    c0-1.21-0.859-2.218-2.001-2.45v-2.101c1.142-0.231,2.001-1.24,2.001-2.45c0-0.012-0.003-0.022-0.003-0.034L42.921,145.424z     M46,156.5c0,0.827-0.673,1.5-1.5,1.5s-1.5-0.673-1.5-1.5s0.673-1.5,1.5-1.5S46,155.673,46,156.5z M37,146.5    c0-0.827,0.673-1.5,1.5-1.5s1.5,0.673,1.5,1.5s-0.673,1.5-1.5,1.5S37,147.327,37,146.5z M37,153.5c0-0.827,0.673-1.5,1.5-1.5    s1.5,0.673,1.5,1.5s-0.673,1.5-1.5,1.5S37,154.327,37,153.5z M31,156.5c0-0.827,0.673-1.5,1.5-1.5s1.5,0.673,1.5,1.5    s-0.673,1.5-1.5,1.5S31,157.327,31,156.5z M32.5,165c-0.827,0-1.5-0.673-1.5-1.5s0.673-1.5,1.5-1.5s1.5,0.673,1.5,1.5    S33.327,165,32.5,165z M38.5,168c-0.827,0-1.5-0.673-1.5-1.5s0.673-1.5,1.5-1.5s1.5,0.673,1.5,1.5S39.327,168,38.5,168z     M40.548,165.072C40.097,164.425,39.349,164,38.5,164s-1.596,0.425-2.048,1.072l-1.57-0.851c0.069-0.23,0.118-0.469,0.118-0.721    c0-1.209-0.859-2.218-2-2.45v-2.101c1.141-0.232,2-1.24,2-2.45c0-0.093-0.018-0.181-0.027-0.271l1.766-0.957    C37.19,155.722,37.813,156,38.5,156s1.31-0.278,1.761-0.727l1.767,0.957c-0.01,0.09-0.027,0.178-0.027,0.271    c0,1.209,0.859,2.218,2,2.45v2.101c-1.141,0.232-2,1.24-2,2.45c0,0.252,0.049,0.492,0.118,0.722L40.548,165.072z M44.5,165    c-0.827,0-1.5-0.673-1.5-1.5s0.673-1.5,1.5-1.5s1.5,0.673,1.5,1.5S45.327,165,44.5,165z M50.5,168c-0.827,0-1.5-0.673-1.5-1.5    s0.673-1.5,1.5-1.5s1.5,0.673,1.5,1.5S51.327,168,50.5,168z M52.548,165.072C52.097,164.425,51.349,164,50.5,164    s-1.596,0.425-2.048,1.072l-1.57-0.851c0.069-0.23,0.118-0.469,0.118-0.721c0-1.209-0.859-2.218-2-2.45v-2.101    c1.141-0.232,2-1.24,2-2.45c0-0.093-0.018-0.181-0.027-0.271l1.766-0.957C49.19,155.722,49.813,156,50.5,156    s1.31-0.278,1.762-0.728l1.766,0.957c-0.01,0.09-0.027,0.178-0.027,0.271c0,1.209,0.859,2.218,2,2.45v2.101    c-1.141,0.232-2,1.24-2,2.45c0,0.252,0.049,0.492,0.118,0.722L52.548,165.072z M58,163.5c0,0.827-0.673,1.5-1.5,1.5    s-1.5-0.673-1.5-1.5s0.673-1.5,1.5-1.5S58,162.673,58,163.5z"/>
	</g>
	
    </g>
</svg>
