<?xml version="1.0" encoding="iso-8859-1"?>
<!DOCTYPE svg PUBLIC "-//W3C//DTD SVG 1.1//EN" "http://www.w3.org/Graphics/SVG/1.1/DTD/svg11.dtd">
<svg version="1.1" xmlns="http://www.w3.org/2000/svg" xmlns:xlink="http://www.w3.org/1999/xlink" x="0px" y="0px" width="30" height="30" viewBox="0 0 30 30" xml:space="preserve">
    <g transform="translate(-90 -140)">
        <g xmlns="http://www.w3.org/2000/svg" xmlns:xlink="http://www.w3.org/1999/xlink" id="atom-7">
		<path d="M113.396,152.023c0.103-0.183,0.208-0.366,0.3-0.545c1.261-2.447,1.433-4.235,0.497-5.171    c-0.392-0.392-0.942-0.591-1.636-0.591c-1.074,0-2.494,0.5-4.08,1.388c-0.758-2.711-1.926-4.604-3.477-4.604    s-2.719,1.894-3.477,4.604c-1.586-0.888-3.006-1.388-4.08-1.388c-0.693,0-1.244,0.199-1.636,0.591    c-0.936,0.936-0.764,2.724,0.497,5.171c0.092,0.179,0.197,0.362,0.3,0.545C93.894,152.782,92,153.949,92,155.5    s1.895,2.719,4.605,3.477c-1.381,2.454-1.895,4.619-0.798,5.716c0.392,0.392,0.942,0.591,1.636,0.591    c1.073,0,2.494-0.501,4.08-1.389c0.758,2.711,1.926,4.605,3.477,4.605s2.719-1.895,3.477-4.605    c1.586,0.888,3.007,1.389,4.08,1.389c0.693,0,1.244-0.199,1.636-0.591c1.097-1.097,0.583-3.262-0.798-5.716    c2.711-0.758,4.605-1.926,4.605-3.477S116.106,152.782,113.396,152.023z M112.557,146.717c0.419,0,0.731,0.101,0.929,0.298    c0.572,0.572,0.318,2.07-0.68,4.006c-0.126,0.245-0.266,0.496-0.412,0.749c-0.98-0.224-2.038-0.399-3.138-0.525    c-0.127-1.101-0.303-2.158-0.525-3.14C110.247,147.223,111.59,146.717,112.557,146.717z M109.496,155.213    c0.082,0.096,0.162,0.191,0.242,0.287c-0.079,0.096-0.162,0.19-0.242,0.285c0-0.095,0.004-0.19,0.004-0.285    C109.5,155.404,109.496,155.309,109.496,155.213z M110.379,156.29c0.555,0.708,1.053,1.396,1.475,2.049    c-0.762,0.163-1.601,0.299-2.495,0.406c0.04-0.463,0.069-0.93,0.093-1.399C109.771,156.995,110.08,156.643,110.379,156.29z     M110.375,154.713c-0.299-0.356-0.608-0.708-0.924-1.057c-0.023-0.47-0.053-0.938-0.093-1.401c0.894,0.107,1.73,0.243,2.491,0.405    C111.417,153.331,110.92,154.02,110.375,154.713z M108.382,152.525c-0.067-0.068-0.133-0.14-0.2-0.207    c-0.068-0.068-0.137-0.133-0.205-0.2c0.125,0.01,0.25,0.021,0.374,0.031C108.361,152.273,108.372,152.398,108.382,152.525z     M108.245,151.142c-0.462-0.04-0.928-0.069-1.396-0.093c-0.352-0.319-0.703-0.628-1.056-0.925    c0.697-0.546,1.384-1.038,2.048-1.469C108.003,149.414,108.138,150.25,108.245,151.142z M105,143.5    c0.925,0,1.907,1.539,2.596,4.129c-0.839,0.524-1.711,1.145-2.596,1.846c-0.885-0.701-1.757-1.321-2.596-1.846    C103.093,145.039,104.075,143.5,105,143.5z M105.286,151.004c-0.095,0-0.19-0.004-0.286-0.004s-0.191,0.004-0.286,0.004    c0.096-0.081,0.19-0.158,0.286-0.238C105.096,150.846,105.19,150.923,105.286,151.004z M102.159,148.655    c0.664,0.431,1.351,0.923,2.048,1.469c-0.353,0.297-0.704,0.605-1.056,0.925c-0.469,0.023-0.935,0.053-1.396,0.093    C101.862,150.25,101.997,149.414,102.159,148.655z M101.649,152.149c0.124-0.011,0.249-0.021,0.374-0.031    c-0.068,0.067-0.137,0.132-0.205,0.2c-0.067,0.067-0.133,0.139-0.2,0.207C101.628,152.398,101.639,152.273,101.649,152.149z     M93,155.5c0-0.924,1.539-1.906,4.127-2.595c0.528,0.847,1.15,1.72,1.851,2.599c-0.688,0.868-1.312,1.74-1.847,2.592    C94.54,157.408,93,156.425,93,155.5z M100.504,155.785c-0.08-0.095-0.163-0.189-0.242-0.285c0.08-0.096,0.16-0.191,0.242-0.287    c0,0.096-0.004,0.191-0.004,0.287C100.5,155.595,100.504,155.69,100.504,155.785z M100.549,157.346    c0.023,0.47,0.053,0.937,0.093,1.399c-0.895-0.107-1.733-0.243-2.495-0.406c0.422-0.653,0.92-1.341,1.475-2.049    C99.92,156.643,100.229,156.995,100.549,157.346z M100.549,153.656c-0.315,0.349-0.625,0.7-0.924,1.057    c-0.545-0.693-1.042-1.382-1.475-2.053c0.761-0.162,1.598-0.298,2.491-0.405C100.602,152.719,100.572,153.187,100.549,153.656z     M97.443,164.283c-0.419,0-0.731-0.101-0.929-0.298c-0.653-0.654-0.26-2.438,1.085-4.757c0.982,0.225,2.042,0.4,3.145,0.527    c0.127,1.101,0.303,2.158,0.525,3.139C99.752,163.777,98.41,164.283,97.443,164.283z M100.744,151.244    c-1.1,0.126-2.157,0.302-3.138,0.525c-0.146-0.253-0.286-0.504-0.412-0.749c-0.998-1.936-1.252-3.434-0.68-4.006    c0.197-0.197,0.51-0.298,0.929-0.298c0.967,0,2.31,0.506,3.826,1.388C101.047,149.086,100.871,150.144,100.744,151.244z     M101.618,158.475c0.067,0.069,0.132,0.139,0.2,0.207s0.137,0.133,0.205,0.2c-0.125-0.01-0.25-0.021-0.374-0.031    C101.639,158.727,101.628,158.602,101.618,158.475z M101.755,159.858c0.462,0.04,0.929,0.069,1.396,0.093    c0.352,0.319,0.703,0.628,1.056,0.924c-0.697,0.547-1.385,1.039-2.048,1.469C101.997,161.585,101.862,160.749,101.755,159.858z     M105,167.5c-0.925,0-1.907-1.539-2.596-4.129c0.839-0.524,1.711-1.145,2.596-1.847c0.885,0.702,1.757,1.322,2.596,1.847    C106.907,165.961,105.925,167.5,105,167.5z M104.715,159.996c0.095,0,0.19,0.004,0.285,0.004s0.19-0.004,0.285-0.004    c-0.095,0.08-0.189,0.158-0.285,0.238C104.904,160.154,104.81,160.076,104.715,159.996z M107.841,162.344    c-0.663-0.43-1.351-0.922-2.048-1.469c0.353-0.296,0.704-0.604,1.056-0.924c0.468-0.023,0.935-0.053,1.396-0.093    C108.138,160.749,108.003,161.585,107.841,162.344z M108.351,158.851c-0.124,0.011-0.249,0.021-0.374,0.031    c0.068-0.067,0.137-0.132,0.205-0.2s0.133-0.138,0.2-0.207C108.372,158.602,108.361,158.727,108.351,158.851z M108.473,156.937    c-0.324,0.348-0.654,0.694-0.998,1.038s-0.691,0.674-1.041,0.998C105.966,158.989,105.489,159,105,159s-0.966-0.011-1.434-0.027    c-0.35-0.324-0.697-0.654-1.041-0.998s-0.674-0.69-0.998-1.038c-0.017-0.469-0.027-0.946-0.027-1.437s0.011-0.969,0.027-1.438    c0.32-0.344,0.65-0.689,0.998-1.037c0.344-0.344,0.691-0.674,1.041-0.998c0.468-0.017,0.944-0.027,1.434-0.027    s0.966,0.011,1.434,0.027c0.35,0.324,0.697,0.654,1.041,0.998c0.348,0.348,0.678,0.693,0.998,1.037    c0.017,0.469,0.027,0.947,0.027,1.438S108.489,156.468,108.473,156.937z M113.485,163.985c-0.197,0.197-0.51,0.298-0.929,0.298    c-0.967,0-2.309-0.506-3.826-1.389c0.223-0.98,0.398-2.038,0.525-3.139c1.103-0.127,2.162-0.303,3.145-0.527    C113.745,161.547,114.139,163.331,113.485,163.985z M112.869,158.096c-0.535-0.852-1.158-1.724-1.847-2.592    c0.7-0.879,1.322-1.752,1.851-2.599c2.588,0.688,4.127,1.671,4.127,2.595C117,156.425,115.46,157.408,112.869,158.096z"/>
		<circle cx="105" cy="155.5" r="1"/>
	</g>
	
    </g>
</svg>
