<?xml version="1.0" encoding="iso-8859-1"?>
<!DOCTYPE svg PUBLIC "-//W3C//DTD SVG 1.1//EN" "http://www.w3.org/Graphics/SVG/1.1/DTD/svg11.dtd">
<svg version="1.1" xmlns="http://www.w3.org/2000/svg" xmlns:xlink="http://www.w3.org/1999/xlink" x="0px" y="0px" width="30" height="30" viewBox="0 0 30 30" xml:space="preserve">
    <g transform="translate(-330 -140)">
        <g xmlns="http://www.w3.org/2000/svg" xmlns:xlink="http://www.w3.org/1999/xlink" id="bacteria-7">
		<path d="M345,142c-7.18,0-13,5.82-13,13s5.82,13,13,13s13-5.82,13-13S352.18,142,345,142z M345,167c-6.617,0-12-5.383-12-12    s5.383-12,12-12s12,5.383,12,12S351.617,167,345,167z"/>
		<path d="M343,151c0-1.103,0.897-2,2-2s2,0.897,2,2h1c0-1.654-1.346-3-3-3s-3,1.346-3,3c0,1.103-0.897,2-2,2s-2-0.897-2-2h-1    c0,1.654,1.346,3,3,3S343,152.654,343,151z"/>
		<path d="M350,157c-1.654,0-3,1.346-3,3c0,1.103-0.897,2-2,2s-2-0.897-2-2h-1c0,1.654,1.346,3,3,3s3-1.346,3-3c0-1.103,0.897-2,2-2    s2,0.897,2,2h1C353,158.346,351.654,157,350,157z"/>
		<rect x="338" y="159" width="1" height="1"/>
		<rect x="344" y="154" width="1" height="1"/>
		<rect x="335" y="156" width="1" height="1"/>
		<rect x="338" y="147" width="1" height="1"/>
		<rect x="344" y="145" width="1" height="1"/>
		<rect x="351" y="151" width="1" height="1"/>
		<rect x="349" y="146" width="1" height="1"/>
		<rect x="354" y="154" width="1" height="1"/>
		<rect x="345" y="157" width="1" height="1"/>
		<rect x="350" y="162" width="1" height="1"/>
		<rect x="341" y="164" width="1" height="1"/>
	</g>
	
    </g>
</svg>
