<?xml version="1.0" encoding="iso-8859-1"?>
<!DOCTYPE svg PUBLIC "-//W3C//DTD SVG 1.1//EN" "http://www.w3.org/Graphics/SVG/1.1/DTD/svg11.dtd">
<svg version="1.1" xmlns="http://www.w3.org/2000/svg" xmlns:xlink="http://www.w3.org/1999/xlink" x="0px" y="0px" width="30" height="30" viewBox="0 0 30 30" xml:space="preserve">
    <g transform="translate(-270 -260)">
        <g xmlns="http://www.w3.org/2000/svg" xmlns:xlink="http://www.w3.org/1999/xlink" id="brainwork-7">
		<path d="M297.458,275.592c1.42-2.754-0.111-6.874-2.742-9.478c-2.086-2.067-4.957-3.114-8.53-3.114    c-5.047,0-8.808,1.294-11.173,3.847c-1.086,1.171-3.842,4.525-2.77,5.878c1.073,1.352,4.253,0.942,4.479,2.66    c0.284,2.16,1.477,4.654,6.136,3.324c2.184-0.623,5.113,1.995,5.113,4.322s4.227,5.097,3.58,3.491    C288.313,278.488,296.209,278.016,297.458,275.592z M289.981,284.868c-0.543-0.57-1.01-1.259-1.01-1.837    c0-2.632-2.789-5.415-5.427-5.415c-0.331,0-0.654,0.044-0.96,0.131c-0.777,0.222-1.474,0.335-2.07,0.335    c-1.131,0-2.471-0.321-2.801-2.828c-0.212-1.607-1.807-2.062-2.97-2.394c-0.676-0.192-1.442-0.41-1.718-0.758    c-0.279-0.353,0.662-2.357,2.72-4.576c2.169-2.34,5.681-3.526,10.439-3.526c3.303,0,5.936,0.95,7.825,2.824    c2.541,2.515,3.665,6.164,2.559,8.31c-0.231,0.449-1.117,0.963-1.974,1.459C292.267,277.942,288.882,279.905,289.981,284.868z"/>
		<path d="M284.294,268.413l0.741-0.741l-0.707-0.707l-0.741,0.741c-0.457-0.343-0.996-0.57-1.588-0.655V266h-1v1.051    c-0.59,0.085-1.13,0.313-1.587,0.654l-0.741-0.74l-0.707,0.707l0.741,0.741c-0.342,0.456-0.569,0.996-0.655,1.587H277v1h1.05    c0.086,0.591,0.313,1.131,0.655,1.588l-0.741,0.74l0.707,0.707l0.741-0.74c0.457,0.342,0.997,0.569,1.587,0.654V275h1v-1.051    c0.592-0.085,1.131-0.313,1.588-0.655l0.741,0.741l0.707-0.707l-0.741-0.741c0.342-0.456,0.57-0.996,0.655-1.587h1.05v-1h-1.05    C284.864,269.409,284.636,268.869,284.294,268.413z M281.499,273c-1.378,0-2.5-1.121-2.5-2.5s1.122-2.5,2.5-2.5    c1.379,0,2.5,1.121,2.5,2.5S282.878,273,281.499,273z"/>
		<circle cx="281.499" cy="270.5" r="1.5"/>
		<path d="M293.949,273h1.05v-1h-1.05c-0.085-0.591-0.313-1.131-0.655-1.587l0.741-0.741l-0.707-0.707l-0.741,0.741    c-0.457-0.343-0.996-0.57-1.588-0.655V268h-1v1.051c-0.59,0.085-1.13,0.313-1.587,0.654l-0.741-0.74l-0.707,0.707l0.741,0.741    c-0.342,0.456-0.569,0.996-0.655,1.587H286v1h1.05c0.086,0.591,0.313,1.131,0.655,1.588l-0.741,0.74l0.707,0.707l0.741-0.74    c0.457,0.342,0.997,0.569,1.587,0.654V277h1v-1.051c0.592-0.085,1.131-0.313,1.588-0.655l0.741,0.741l0.707-0.707l-0.741-0.741    C293.636,274.131,293.864,273.591,293.949,273z M290.499,275c-1.378,0-2.5-1.121-2.5-2.5s1.122-2.5,2.5-2.5    c1.379,0,2.5,1.121,2.5,2.5S291.878,275,290.499,275z"/>
		<circle cx="290.499" cy="272.5" r="1.5"/>
	</g>
	
    </g>
</svg>
