<?xml version="1.0" encoding="iso-8859-1"?>
<!DOCTYPE svg PUBLIC "-//W3C//DTD SVG 1.1//EN" "http://www.w3.org/Graphics/SVG/1.1/DTD/svg11.dtd">
<svg version="1.1" xmlns="http://www.w3.org/2000/svg" xmlns:xlink="http://www.w3.org/1999/xlink" x="0px" y="0px" width="30" height="30" viewBox="0 0 30 30" xml:space="preserve">
    <g transform="translate(-150 -260)">
        <g xmlns="http://www.w3.org/2000/svg" xmlns:xlink="http://www.w3.org/1999/xlink" id="chemistry-card-7">
		<path d="M152,288h26v-26h-26V288z M153,263h24v24h-24V263z"/>
		<rect x="172" y="265" width="1" height="4"/>
		<rect x="174" y="265" width="1" height="4"/>
		<polygon points="163.866,278.298 163.841,278.298 159.102,271 157.828,271 157.828,280 158.962,280 158.962,272.777     158.987,272.777 163.689,280 165,280 165,271 163.866,271   "/>
		<path d="M172.046,278.86c-0.031-0.122-0.046-0.312-0.046-0.571v-3.448c0-0.39-0.073-0.705-0.221-0.946    c-0.146-0.242-0.341-0.431-0.583-0.564s-0.512-0.223-0.811-0.266s-0.599-0.064-0.9-0.064c-0.372,0-0.727,0.039-1.063,0.115    c-0.337,0.079-0.636,0.207-0.895,0.383c-0.259,0.178-0.466,0.409-0.622,0.694c-0.156,0.284-0.242,0.635-0.26,1.05h1.102    c0.026-0.492,0.195-0.828,0.506-1.004c0.313-0.178,0.7-0.267,1.168-0.267c0.172,0,0.348,0.014,0.524,0.039    c0.177,0.026,0.337,0.078,0.479,0.156c0.143,0.077,0.26,0.189,0.35,0.337c0.092,0.146,0.137,0.342,0.137,0.583    c0,0.208-0.061,0.364-0.182,0.474c-0.121,0.107-0.285,0.189-0.492,0.245c-0.207,0.057-0.447,0.101-0.72,0.131    s-0.56,0.075-0.862,0.136c-0.285,0.051-0.564,0.116-0.836,0.194c-0.272,0.078-0.515,0.192-0.727,0.344    c-0.212,0.15-0.383,0.349-0.512,0.59c-0.13,0.241-0.194,0.553-0.194,0.933c0,0.337,0.058,0.625,0.175,0.863    c0.117,0.237,0.277,0.432,0.48,0.583c0.202,0.15,0.438,0.259,0.705,0.324c0.269,0.064,0.555,0.097,0.855,0.097    c0.468,0,0.902-0.08,1.304-0.24c0.402-0.159,0.754-0.421,1.056-0.784c0,0.363,0.086,0.625,0.254,0.784    c0.168,0.16,0.395,0.24,0.681,0.24c0.337,0,0.601-0.056,0.791-0.168v-0.856c-0.13,0.044-0.243,0.065-0.337,0.065    C172.177,279.041,172.075,278.98,172.046,278.86z M170.897,277.524c0,0.155-0.039,0.321-0.116,0.498    c-0.077,0.178-0.198,0.342-0.362,0.493c-0.165,0.152-0.377,0.276-0.636,0.377c-0.259,0.099-0.571,0.148-0.934,0.148    c-0.164,0-0.325-0.017-0.485-0.052c-0.16-0.034-0.299-0.091-0.416-0.169c-0.116-0.078-0.212-0.179-0.285-0.305    c-0.073-0.125-0.109-0.278-0.109-0.46c0-0.276,0.063-0.494,0.188-0.655c0.125-0.159,0.287-0.283,0.486-0.369    c0.198-0.086,0.424-0.148,0.674-0.188c0.251-0.04,0.5-0.073,0.746-0.104c0.246-0.031,0.48-0.07,0.706-0.117    c0.225-0.047,0.406-0.123,0.544-0.228V277.524z"/>
	</g>
	
    </g>
</svg>
