<?xml version="1.0" encoding="iso-8859-1"?>
<!DOCTYPE svg PUBLIC "-//W3C//DTD SVG 1.1//EN" "http://www.w3.org/Graphics/SVG/1.1/DTD/svg11.dtd">
<svg version="1.1" xmlns="http://www.w3.org/2000/svg" xmlns:xlink="http://www.w3.org/1999/xlink" x="0px" y="0px" width="30" height="30" viewBox="0 0 30 30" xml:space="preserve">
    <g transform="translate(-210 -200)">
        <g xmlns="http://www.w3.org/2000/svg" xmlns:xlink="http://www.w3.org/1999/xlink" id="cloudy-7">
		<path d="M214.438,217.8c0.125-0.313,0.274-0.613,0.449-0.899c-1.739-1.168-2.888-3.152-2.888-5.4c0-3.584,2.916-6.5,6.5-6.5    c2.028,0,3.842,0.936,5.035,2.396c0.342-0.111,0.691-0.202,1.052-0.267c-1.361-1.893-3.577-3.13-6.087-3.13    c-4.143,0-7.5,3.357-7.5,7.5C211,214.145,212.371,216.465,214.438,217.8z"/>
		<path d="M233,213c-0.098,0-0.193,0.01-0.29,0.015c-0.855-2.899-3.533-5.015-6.71-5.015c-3.867,0-7,3.133-7,7    c0,0.034,0.005,0.066,0.005,0.101C216.721,215.562,215,217.579,215,220c0,2.762,2.238,5,5,5h13c3.313,0,6-2.687,6-6    S236.313,213,233,213z M233,224h-13c-2.206,0-4-1.794-4-4c0-1.896,1.347-3.545,3.203-3.919l0.802-0.162v-0.855L220,214.977    c0-3.285,2.691-5.977,6-5.977c2.64,0,5.004,1.768,5.751,4.298l0.223,0.755L233,214c2.757,0,5,2.243,5,5S235.757,224,233,224z"/>
	</g>
	
    </g>
</svg>
