<?xml version="1.0" encoding="iso-8859-1"?>
<!DOCTYPE svg PUBLIC "-//W3C//DTD SVG 1.1//EN" "http://www.w3.org/Graphics/SVG/1.1/DTD/svg11.dtd">
<svg version="1.1" xmlns="http://www.w3.org/2000/svg" xmlns:xlink="http://www.w3.org/1999/xlink" x="0px" y="0px" width="30" height="30" viewBox="0 0 30 30" xml:space="preserve">
    <g transform="translate(-270 -200)">
        <g xmlns="http://www.w3.org/2000/svg" xmlns:xlink="http://www.w3.org/1999/xlink" id="cloudy-many-7">
		<path d="M294,207c-0.098,0-0.193,0.01-0.29,0.015c-0.855-2.899-3.533-5.015-6.71-5.015c-2.798,0-5.205,1.645-6.325,4.017    C276.96,206.188,274,209.243,274,213c0,0.034,0.005,0.066,0.005,0.101C271.721,213.562,270,215.579,270,218c0,2.762,2.238,5,5,5    h1.101c0.463,2.282,2.48,4,4.899,4h13c3.313,0,6-2.687,6-6c0-1.539-0.585-2.938-1.537-4c0.952-1.063,1.537-2.461,1.537-4    C300,209.687,297.313,207,294,207z M287,203c2.64,0,5.004,1.768,5.751,4.298l0.223,0.755L294,208c2.757,0,5,2.243,5,5    c0,1.271-0.491,2.419-1.274,3.302C296.701,215.489,295.409,215,294,215c-0.098,0-0.193,0.01-0.29,0.015    c-0.825-2.797-3.352-4.845-6.381-4.987c-1.012-2.156-3.093-3.692-5.561-3.964C282.798,204.241,284.755,203,287,203z M275,222    c-2.206,0-4-1.795-4-4c0-1.896,1.347-3.545,3.203-3.919l0.802-0.162v-0.854L275,212.977c0-3.285,2.691-5.977,6-5.977    c2.175,0,4.147,1.211,5.198,3.049C282.71,210.447,280,213.404,280,217c0,0.034,0.005,0.066,0.005,0.101    C277.721,217.562,276,219.579,276,222H275z M294,226h-13c-2.206,0-4-1.795-4-4c0-1.896,1.347-3.545,3.203-3.919l0.802-0.162    v-0.854L281,216.977c0-3.285,2.691-5.977,6-5.977c2.64,0,5.004,1.768,5.751,4.298l0.223,0.755L294,216c2.757,0,5,2.243,5,5    S296.757,226,294,226z"/>
	</g>
	
    </g>
</svg>
