<?xml version="1.0" encoding="iso-8859-1"?>
<!DOCTYPE svg PUBLIC "-//W3C//DTD SVG 1.1//EN" "http://www.w3.org/Graphics/SVG/1.1/DTD/svg11.dtd">
<svg version="1.1" xmlns="http://www.w3.org/2000/svg" xmlns:xlink="http://www.w3.org/1999/xlink" x="0px" y="0px" width="29" height="30" viewBox="0 0 29 30" xml:space="preserve">
    <g transform="translate(-90 -260)">
        <g xmlns="http://www.w3.org/2000/svg" xmlns:xlink="http://www.w3.org/1999/xlink" id="co2-7">
		<path d="M112.956,281.469c0.179-0.125,0.369-0.242,0.575-0.352c0.205-0.11,0.411-0.222,0.617-0.334    c0.207-0.119,0.409-0.243,0.607-0.372c0.197-0.131,0.378-0.275,0.542-0.437c0.164-0.16,0.305-0.343,0.422-0.546    c0.118-0.203,0.2-0.438,0.247-0.702c0.05-0.282,0.044-0.53-0.017-0.745c-0.062-0.214-0.164-0.394-0.308-0.537    s-0.324-0.255-0.538-0.33c-0.216-0.076-0.452-0.114-0.712-0.114c-0.316,0-0.608,0.054-0.875,0.16    c-0.268,0.108-0.5,0.256-0.7,0.444c-0.2,0.19-0.362,0.414-0.487,0.674c-0.124,0.259-0.205,0.541-0.241,0.846h0.719    c0.025-0.181,0.076-0.359,0.149-0.537c0.074-0.178,0.172-0.338,0.292-0.479c0.121-0.141,0.264-0.255,0.429-0.343    c0.164-0.088,0.352-0.131,0.561-0.131c0.157,0,0.303,0.025,0.435,0.076c0.133,0.051,0.242,0.124,0.33,0.22    c0.087,0.096,0.15,0.21,0.189,0.343c0.038,0.133,0.043,0.28,0.014,0.444c-0.037,0.209-0.102,0.393-0.193,0.551    c-0.094,0.157-0.216,0.304-0.365,0.439c-0.151,0.136-0.335,0.27-0.549,0.401c-0.216,0.133-0.465,0.278-0.746,0.437    c-0.231,0.124-0.454,0.257-0.671,0.397c-0.217,0.142-0.418,0.305-0.603,0.491c-0.186,0.187-0.35,0.404-0.492,0.655    c-0.145,0.252-0.261,0.555-0.352,0.91h3.919l0.111-0.635h-3.08c0.066-0.187,0.167-0.352,0.303-0.495    S112.78,281.593,112.956,281.469z"/>
		<path d="M94.845,273.494c0.207-0.465,0.474-0.877,0.801-1.239c0.327-0.361,0.713-0.648,1.157-0.863    c0.441-0.214,0.95-0.321,1.521-0.321c0.668,0,1.218,0.17,1.644,0.51c0.427,0.339,0.651,0.847,0.675,1.525h1.272    c0.018-0.508-0.056-0.957-0.219-1.346c-0.164-0.388-0.396-0.711-0.698-0.97c-0.304-0.259-0.665-0.456-1.088-0.589    c-0.422-0.134-0.884-0.201-1.384-0.201c-0.731,0-1.404,0.132-2.019,0.396c-0.612,0.263-1.148,0.621-1.608,1.077    c-0.459,0.455-0.841,0.988-1.146,1.6c-0.304,0.611-0.518,1.265-0.641,1.961c-0.122,0.697-0.146,1.348-0.069,1.954    c0.075,0.608,0.256,1.134,0.544,1.579c0.287,0.447,0.686,0.798,1.194,1.052c0.509,0.255,1.133,0.382,1.874,0.382    c1.222,0,2.246-0.334,3.068-1.005c0.823-0.669,1.402-1.604,1.741-2.812h-1.272c-0.097,0.395-0.24,0.76-0.435,1.098    c-0.192,0.341-0.43,0.633-0.71,0.878s-0.594,0.437-0.944,0.576c-0.352,0.138-0.734,0.206-1.154,0.206    c-0.571,0-1.044-0.105-1.417-0.32c-0.373-0.214-0.658-0.502-0.858-0.863c-0.199-0.361-0.317-0.785-0.357-1.272    c-0.039-0.485-0.012-1.001,0.085-1.545C94.49,274.441,94.638,273.957,94.845,273.494z"/>
		<path d="M111.917,273.125c-0.084-0.602-0.279-1.135-0.581-1.6c-0.302-0.463-0.714-0.833-1.235-1.11    c-0.523-0.276-1.163-0.415-1.921-0.415c-0.76,0-1.449,0.139-2.069,0.415c-0.62,0.277-1.162,0.647-1.627,1.11    c-0.468,0.465-0.849,0.998-1.146,1.6c-0.299,0.604-0.504,1.23-0.62,1.881c-0.113,0.652-0.13,1.279-0.043,1.881    c0.084,0.604,0.278,1.136,0.581,1.601c0.302,0.464,0.714,0.831,1.238,1.104c0.523,0.271,1.163,0.408,1.922,0.408    s1.448-0.137,2.068-0.408c0.617-0.273,1.161-0.641,1.626-1.104c0.465-0.465,0.847-0.997,1.145-1.601    c0.298-0.602,0.506-1.229,0.619-1.881C111.989,274.355,112.004,273.729,111.917,273.125z M110.603,275.006    c-0.086,0.482-0.232,0.959-0.438,1.426c-0.209,0.469-0.479,0.892-0.814,1.266c-0.332,0.375-0.729,0.677-1.188,0.904    c-0.461,0.227-0.98,0.34-1.56,0.34c-0.58,0-1.062-0.113-1.439-0.34c-0.38-0.228-0.67-0.529-0.872-0.904    c-0.202-0.374-0.323-0.797-0.366-1.266c-0.042-0.467-0.021-0.943,0.063-1.426c0.086-0.482,0.232-0.957,0.438-1.424    c0.209-0.471,0.479-0.892,0.813-1.267c0.333-0.374,0.73-0.676,1.189-0.903c0.459-0.227,0.979-0.342,1.561-0.342    c0.58,0,1.06,0.115,1.439,0.342c0.379,0.228,0.669,0.529,0.87,0.903c0.202,0.375,0.323,0.796,0.366,1.267    C110.709,274.049,110.688,274.523,110.603,275.006z"/>
	</g>
	
    </g>
</svg>
