<?xml version="1.0" encoding="iso-8859-1"?>
<!DOCTYPE svg PUBLIC "-//W3C//DTD SVG 1.1//EN" "http://www.w3.org/Graphics/SVG/1.1/DTD/svg11.dtd">
<svg version="1.1" xmlns="http://www.w3.org/2000/svg" xmlns:xlink="http://www.w3.org/1999/xlink" x="0px" y="0px" width="30" height="30" viewBox="0 0 30 30" xml:space="preserve">
    <g transform="translate(-270 -320)">
        <g xmlns="http://www.w3.org/2000/svg" xmlns:xlink="http://www.w3.org/1999/xlink" id="comet-7">
		<path d="M274.499,342.5c0.001,1.381,1.12,2.5,2.501,2.501c1.382,0,2.5-1.119,2.5-2.501c0-1.381-1.119-2.5-2.5-2.5    C275.619,340.001,274.501,341.12,274.499,342.5z M278.501,342.5c-0.001,0.828-0.672,1.501-1.501,1.501s-1.5-0.673-1.499-1.5    c0-0.829,0.671-1.5,1.5-1.5C277.829,341.001,278.5,341.672,278.501,342.5z"/>
		<rect x="275.571" y="332.101" transform="matrix(0.7071 -0.7071 0.7071 0.7071 -151.9821 298.285)" width="17" height="1"/>
		<rect x="286.399" y="326.93" transform="matrix(-0.7076 -0.7066 0.7066 -0.7076 252.8862 775.506)" width="1.001" height="17"/>
		<rect x="289.228" y="318.273" transform="matrix(-0.7071 -0.7071 0.7071 -0.7071 261.4123 767.8254)" width="1" height="23"/>
		<path d="M279.042,345.408c-1.365,1.363-3.585,1.363-4.949,0c-0.661-0.661-1.025-1.54-1.025-2.476c0-0.935,0.364-1.813,1.025-2.475    l9.271-9.271l-0.707-0.707l-9.271,9.271c-0.85,0.85-1.318,1.979-1.318,3.182s0.469,2.332,1.318,3.183    c0.877,0.877,2.029,1.315,3.182,1.315s2.305-0.438,3.182-1.315l9.271-9.271l-0.707-0.707L279.042,345.408z"/>
	</g>
	
    </g>
</svg>
