<?xml version="1.0" encoding="iso-8859-1"?>
<!DOCTYPE svg PUBLIC "-//W3C//DTD SVG 1.1//EN" "http://www.w3.org/Graphics/SVG/1.1/DTD/svg11.dtd">
<svg version="1.1" xmlns="http://www.w3.org/2000/svg" xmlns:xlink="http://www.w3.org/1999/xlink" x="0px" y="0px" width="30" height="30" viewBox="0 0 30 30" xml:space="preserve">
    <g transform="translate(-210 -140)">
        <g xmlns="http://www.w3.org/2000/svg" xmlns:xlink="http://www.w3.org/1999/xlink" id="dna-7">
		<path d="M214.394,160.657l4.949,4.95l-2.475,2.475l0.707,0.707l2.651-2.652c1.264-1.263,0.771-3.608,0.327-4.977    c1.368,0.443,3.713,0.937,4.977-0.327l5.304-5.303c1.263-1.263,0.77-3.608,0.326-4.977c1.369,0.443,3.714,0.937,4.977-0.327    l2.652-2.652l-0.708-0.707l-2.475,2.475l-4.949-4.95l2.475-2.475l-0.707-0.707l-2.651,2.652c-1.264,1.263-0.771,3.608-0.327,4.977    c-1.368-0.443-3.713-0.937-4.977,0.327l-5.304,5.303c-1.263,1.263-0.77,3.608-0.326,4.977c-1.369-0.443-3.714-0.937-4.977,0.327    l-2.652,2.652l0.708,0.707L214.394,160.657z M230.094,145.244l4.662,4.663c-1.231,0.39-3.151-0.204-4.072-0.59    C230.297,148.396,229.703,146.476,230.094,145.244z M229.923,150.077c0.387,0.921,0.98,2.841,0.591,4.072l-4.663-4.663    C227.082,149.097,229.002,149.69,229.923,150.077z M225,150.05l4.95,4.95l-2.122,2.122l-4.949-4.95L225,150.05z M222.172,152.879    l4.949,4.95L225,159.95l-4.95-4.95L222.172,152.879z M219.486,155.851l4.663,4.663c-1.231,0.39-3.151-0.203-4.072-0.59    C219.69,159.002,219.097,157.082,219.486,155.851z M219.316,160.684c0.387,0.921,0.98,2.841,0.59,4.072l-4.662-4.663    C216.476,159.703,218.396,160.297,219.316,160.684z"/>
	</g>
	
    </g>
</svg>
