<?xml version="1.0" encoding="iso-8859-1"?>
<!DOCTYPE svg PUBLIC "-//W3C//DTD SVG 1.1//EN" "http://www.w3.org/Graphics/SVG/1.1/DTD/svg11.dtd">
<svg version="1.1" xmlns="http://www.w3.org/2000/svg" xmlns:xlink="http://www.w3.org/1999/xlink" x="0px" y="0px" width="30" height="30" viewBox="0 0 30 30" xml:space="preserve">
    <g transform="translate(-450 -140)">
        <g xmlns="http://www.w3.org/2000/svg" xmlns:xlink="http://www.w3.org/1999/xlink" id="flask-7">
		<path d="M453.633,165.103C453.285,166.146,453.9,167,455,167h20c1.1,0,1.715-0.854,1.367-1.897L471,151v-6h2v-2h-16v2h2    c0,1.1,0,6,0,6L453.633,165.103z M460,151.184V145h10v6.184l0.311,0.816h-10.621L460,151.184z M459.309,153h11.383l4.741,12.458    c0.048,0.146,0.047,0.312-0.018,0.4S475.196,166,475,166h-20c-0.196,0-0.351-0.053-0.415-0.142s-0.065-0.254-0.003-0.439    L459.309,153z"/>
		<rect x="461" y="155" width="5" height="1"/>
		<rect x="467" y="155" width="1" height="1"/>
		<rect x="466" y="159" width="5" height="1"/>
		<rect x="464" y="159" width="1" height="1"/>
		<rect x="458" y="163" width="6" height="1"/>
		<rect x="465" y="163" width="1" height="1"/>
		<rect x="467" y="163" width="1" height="1"/>
	</g>
	
    </g>
</svg>
