<?xml version="1.0" encoding="iso-8859-1"?>
<!DOCTYPE svg PUBLIC "-//W3C//DTD SVG 1.1//EN" "http://www.w3.org/Graphics/SVG/1.1/DTD/svg11.dtd">
<svg version="1.1" xmlns="http://www.w3.org/2000/svg" xmlns:xlink="http://www.w3.org/1999/xlink" x="0px" y="0px" width="30" height="30" viewBox="0 0 30 30" xml:space="preserve">
    <g transform="translate(-570 -140)">
        <g xmlns="http://www.w3.org/2000/svg" xmlns:xlink="http://www.w3.org/1999/xlink" id="formula-7">
		<path d="M574.702,163.396c0.575-0.403,1.019-0.971,1.328-1.704c0.311-0.733,0.547-1.464,0.711-2.195l1.731-7.498h2.246l0.297-1    h-2.312l0.079-0.34l0.242-1.052c0.089-0.411,0.174-0.73,0.256-0.958c0.177-0.479,0.336-0.827,0.475-1.044    c0.14-0.219,0.309-0.386,0.508-0.502c0.198-0.116,0.402-0.175,0.611-0.175c0.165,0,0.322,0.043,0.475,0.13    c0.15,0.087,0.342,0.26,0.567,0.52c0.203,0.223,0.384,0.378,0.541,0.464c0.12,0.068,0.256,0.103,0.409,0.103    c0.215,0,0.402-0.078,0.563-0.232c0.161-0.154,0.241-0.334,0.241-0.538c0-0.34-0.195-0.655-0.586-0.942    c-0.391-0.288-0.931-0.432-1.623-0.432c-1.026,0-1.87,0.294-2.53,0.882c-0.661,0.588-1.14,1.541-1.436,2.859l-0.209,0.918    l-0.077,0.34h-1.914L575,152h1.984l-1.914,8.417c-0.226,1.052-0.475,1.739-0.747,2.061s-0.587,0.482-0.945,0.482    c-0.105,0-0.211-0.027-0.313-0.083c-0.104-0.055-0.263-0.179-0.475-0.371c-0.302-0.272-0.577-0.408-0.828-0.408    c-0.213,0-0.393,0.072-0.539,0.217c-0.148,0.146-0.223,0.321-0.223,0.525c0,0.291,0.165,0.558,0.494,0.798    c0.328,0.242,0.769,0.362,1.319,0.362C573.495,164,574.125,163.799,574.702,163.396z"/>
		<path d="M585.204,151.968c0.372-0.783,0.892-1.508,1.555-2.177l-0.466-0.459c-0.571,0.415-1.091,0.937-1.564,1.567    c-0.472,0.629-0.911,1.431-1.317,2.403c-0.406,0.972-0.743,2.1-1.011,3.383c-0.268,1.283-0.4,2.411-0.4,3.386    c0,0.907,0.121,1.758,0.365,2.551c0.191,0.627,0.495,1.198,0.91,1.711l0.521-0.381c-0.24-0.379-0.419-0.79-0.537-1.233    c-0.119-0.443-0.179-0.898-0.179-1.365c0-1.094,0.229-2.671,0.691-4.731C584.234,154.561,584.711,153.01,585.204,151.968z"/>
		<path d="M586.012,160.771c0.492,0,0.992-0.218,1.497-0.653c0.506-0.436,1.15-1.372,1.933-2.809l0.637,1.799    c0.229,0.642,0.484,1.08,0.767,1.313s0.646,0.35,1.092,0.35c0.374,0,0.733-0.099,1.081-0.297s0.727-0.552,1.136-1.062    l-0.497-0.414c-0.473,0.47-0.767,0.739-0.879,0.807c-0.161,0.094-0.328,0.141-0.498,0.141c-0.191,0-0.379-0.094-0.561-0.284    c-0.182-0.188-0.372-0.576-0.575-1.162l-0.605-1.732l1.013-1.549c0.27-0.358,0.524-0.607,0.764-0.747    c0.238-0.14,0.496-0.21,0.771-0.21c0.093,0,0.215,0.004,0.365,0.012c0.104,0.008,0.19,0.012,0.257,0.012    c0.244,0,0.438-0.059,0.577-0.175c0.14-0.117,0.21-0.271,0.21-0.463c0-0.202-0.076-0.369-0.229-0.501    c-0.153-0.132-0.365-0.198-0.635-0.198c-0.473,0-0.953,0.2-1.44,0.601c-0.659,0.536-1.298,1.357-1.916,2.465l-1.071-3.066h-0.544    c-0.278,0.176-0.533,0.313-0.765,0.408c-0.229,0.097-0.503,0.175-0.817,0.238l-0.156,0.638h1.432l0.807,2.279    c-0.534,0.922-0.86,1.469-0.979,1.641c-0.285,0.435-0.517,0.737-0.696,0.906c-0.179,0.168-0.337,0.281-0.474,0.338    c-0.137,0.057-0.283,0.085-0.439,0.085c-0.077,0-0.176-0.01-0.295-0.031c-0.16-0.025-0.28-0.039-0.358-0.039    c-0.201,0-0.373,0.066-0.517,0.198c-0.143,0.132-0.213,0.287-0.213,0.462c0,0.187,0.077,0.35,0.234,0.49    C585.576,160.701,585.773,160.771,586.012,160.771z"/>
		<path d="M595.406,162.769c0.473-0.627,0.914-1.427,1.318-2.399c0.407-0.973,0.742-2.1,1.006-3.383    c0.265-1.283,0.396-2.414,0.396-3.394c0-0.902-0.121-1.75-0.365-2.543c-0.192-0.632-0.495-1.206-0.91-1.718l-0.521,0.389    c0.239,0.379,0.419,0.79,0.541,1.232c0.121,0.443,0.184,0.896,0.184,1.357c0,1.099-0.231,2.679-0.69,4.74    c-0.462,2.061-0.94,3.612-1.436,4.654c-0.374,0.783-0.891,1.506-1.553,2.169l0.474,0.459    C594.413,163.917,594.932,163.396,595.406,162.769z"/>
	</g>
	
    </g>
</svg>
