<?xml version="1.0" encoding="iso-8859-1"?>
<!DOCTYPE svg PUBLIC "-//W3C//DTD SVG 1.1//EN" "http://www.w3.org/Graphics/SVG/1.1/DTD/svg11.dtd">
<svg version="1.1" xmlns="http://www.w3.org/2000/svg" xmlns:xlink="http://www.w3.org/1999/xlink" x="0px" y="0px" width="30" height="30" viewBox="0 0 30 30" xml:space="preserve">
    <g transform="translate(-390 -200)">
        <g xmlns="http://www.w3.org/2000/svg" xmlns:xlink="http://www.w3.org/1999/xlink" id="hailstorm-7">
		<path d="M393,215c0,2.762,2.238,5,5,5h13c3.313,0,6-2.687,6-6s-2.687-6-6-6c-0.098,0-0.193,0.01-0.29,0.015    c-0.855-2.899-3.533-5.015-6.71-5.015c-3.867,0-7,3.133-7,7c0,0.034,0.005,0.066,0.005,0.101C394.721,210.562,393,212.579,393,215    z M397.203,211.081l0.802-0.162v-0.854L398,209.977c0-3.285,2.691-5.977,6-5.977c2.64,0,5.004,1.768,5.751,4.298l0.223,0.755    L411,209c2.757,0,5,2.243,5,5s-2.243,5-5,5h-13c-2.206,0-4-1.795-4-4C394,213.104,395.347,211.455,397.203,211.081z"/>
		<path d="M401,225c0-1.104-0.896-2-2-2s-2,0.896-2,2s0.896,2,2,2S401,226.104,401,225z M398,225c0-0.553,0.447-1,1-1s1,0.447,1,1    s-0.447,1-1,1S398,225.553,398,225z"/>
		<path d="M407,225c0-1.104-0.896-2-2-2s-2,0.896-2,2s0.896,2,2,2S407,226.104,407,225z M404,225c0-0.553,0.447-1,1-1s1,0.447,1,1    s-0.447,1-1,1S404,225.553,404,225z"/>
		<path d="M413,225c0-1.104-0.896-2-2-2s-2,0.896-2,2s0.896,2,2,2S413,226.104,413,225z M410,225c0-0.553,0.447-1,1-1s1,0.447,1,1    s-0.447,1-1,1S410,225.553,410,225z"/>
	</g>
	
    </g>
</svg>
