<?xml version="1.0" encoding="iso-8859-1"?>
<!DOCTYPE svg PUBLIC "-//W3C//DTD SVG 1.1//EN" "http://www.w3.org/Graphics/SVG/1.1/DTD/svg11.dtd">
<svg version="1.1" xmlns="http://www.w3.org/2000/svg" xmlns:xlink="http://www.w3.org/1999/xlink" x="0px" y="0px" width="30" height="30" viewBox="0 0 30 30" xml:space="preserve">
    <g transform="translate(-510 -140)">
        <g xmlns="http://www.w3.org/2000/svg" xmlns:xlink="http://www.w3.org/1999/xlink" id="medicine-7">
		<path d="M522.665,165.342l12.677-12.677c2.211-2.211,2.211-5.796,0-8.006c-2.211-2.211-5.796-2.211-8.007,0l-12.677,12.677    c-2.211,2.211-2.211,5.796,0,8.006C516.869,167.553,520.453,167.553,522.665,165.342z M528.042,145.365    c0.881-0.881,2.051-1.366,3.297-1.366c1.245,0,2.415,0.485,3.296,1.366c0.881,0.88,1.365,2.051,1.365,3.296    s-0.485,2.416-1.365,3.296l-5.985,5.986l-6.592-6.593L528.042,145.365z M515.365,164.635c-0.881-0.88-1.365-2.051-1.365-3.296    s0.485-2.416,1.365-3.296l5.985-5.985l6.592,6.593l-5.984,5.984c-0.881,0.88-2.052,1.366-3.297,1.366    S516.246,165.516,515.365,164.635z"/>
		<rect x="524.328" y="147.379" transform="matrix(0.7071 -0.7071 0.7071 0.7071 50.0444 416.5671)" width="7" height="1"/>
	</g>
	
    </g>
</svg>
