<?xml version="1.0" encoding="iso-8859-1"?>
<!DOCTYPE svg PUBLIC "-//W3C//DTD SVG 1.1//EN" "http://www.w3.org/Graphics/SVG/1.1/DTD/svg11.dtd">
<svg version="1.1" xmlns="http://www.w3.org/2000/svg" xmlns:xlink="http://www.w3.org/1999/xlink" x="0px" y="0px" width="30" height="30" viewBox="0 0 30 30" xml:space="preserve">
    <g transform="translate(-270 -140)">
        <g xmlns="http://www.w3.org/2000/svg" xmlns:xlink="http://www.w3.org/1999/xlink" id="microscope-7">
		<path d="M289,162.863c1.462-0.79,2.687-1.956,3.562-3.362c0.296-0.475,0.553-0.976,0.762-1.501H296v-1h-2.345h-2.093H288v1h3.128    c-0.519,0.979-1.25,1.824-2.128,2.486c-1.255,0.946-2.811,1.514-4.5,1.514c-4.136,0-7.5-3.364-7.5-7.5    c0-3.479,2.385-6.398,5.603-7.241l5.569,5.569L291,150l-8.485-8.485l-0.707,0.707l-0.707-0.707l-1.414,1.414l0.707,0.707    l-0.707,0.707l1.336,1.336c-3.52,1.391-6.022,4.812-6.022,8.821c0,4.372,2.973,8.054,7,9.155V165h-4v3h13v-3h-4v-1.343    C287.701,163.465,288.373,163.202,289,162.863z M288.172,151.414l-0.964-0.964l1.414-1.414l0.964,0.964L288.172,151.414z     M281.101,144.343l1.414-1.414l5.399,5.399l-1.414,1.414L281.101,144.343z M290,166v1h-11v-1H290z"/>
	</g>
	
    </g>
</svg>
