<?xml version="1.0" encoding="iso-8859-1"?>
<!DOCTYPE svg PUBLIC "-//W3C//DTD SVG 1.1//EN" "http://www.w3.org/Graphics/SVG/1.1/DTD/svg11.dtd">
<svg version="1.1" xmlns="http://www.w3.org/2000/svg" xmlns:xlink="http://www.w3.org/1999/xlink" x="0px" y="0px" width="29" height="30" viewBox="0 0 29 30" xml:space="preserve">
    <g transform="translate(-30 -260)">
        <g xmlns="http://www.w3.org/2000/svg" xmlns:xlink="http://www.w3.org/1999/xlink" id="o2-7">
		<path d="M46.949,265.639c-0.395-0.499-0.931-0.897-1.609-1.193c-0.68-0.297-1.529-0.445-2.546-0.445    c-1.02,0-1.921,0.148-2.704,0.445c-0.784,0.296-1.46,0.694-2.03,1.193c-0.57,0.501-1.053,1.084-1.447,1.75    c-0.396,0.667-0.733,1.371-1.012,2.111c-0.278,0.741-0.505,1.5-0.68,2.278c-0.174,0.777-0.324,1.527-0.452,2.249    c-0.128,0.724-0.241,1.473-0.341,2.251c-0.1,0.777-0.141,1.537-0.124,2.277s0.107,1.44,0.27,2.097    c0.16,0.658,0.438,1.236,0.832,1.737c0.394,0.499,0.932,0.893,1.611,1.18c0.682,0.287,1.53,0.431,2.55,0.431    c1.036,0,1.941-0.144,2.715-0.431c0.772-0.287,1.443-0.681,2.014-1.18c0.569-0.501,1.051-1.079,1.444-1.737    c0.394-0.656,0.729-1.356,1.009-2.097s0.506-1.5,0.68-2.277c0.174-0.778,0.324-1.527,0.452-2.251    c0.128-0.722,0.241-1.472,0.341-2.249c0.101-0.778,0.143-1.537,0.124-2.278c-0.018-0.74-0.106-1.444-0.267-2.111    C47.619,266.723,47.341,266.14,46.949,265.639z M45.353,272.403c-0.093,0.583-0.182,1.115-0.268,1.598    c-0.131,0.74-0.3,1.568-0.508,2.485s-0.508,1.777-0.899,2.583c-0.393,0.806-0.915,1.486-1.567,2.042    c-0.654,0.556-1.481,0.833-2.481,0.833c-1.001,0-1.729-0.277-2.187-0.833c-0.457-0.556-0.739-1.236-0.849-2.042    c-0.107-0.806-0.104-1.666,0.012-2.583c0.115-0.917,0.238-1.745,0.369-2.485c0.085-0.482,0.183-1.015,0.295-1.598    c0.111-0.583,0.262-1.167,0.447-1.75s0.407-1.153,0.662-1.709s0.573-1.041,0.952-1.459c0.379-0.416,0.822-0.753,1.331-1.014    c0.509-0.258,1.097-0.388,1.764-0.388c0.666,0,1.208,0.13,1.626,0.388c0.416,0.261,0.742,0.598,0.974,1.014    c0.232,0.418,0.377,0.903,0.438,1.459c0.059,0.556,0.079,1.126,0.06,1.709S45.446,271.82,45.353,272.403z"/>
		<path d="M53.354,280.78c-0.155,0.263-0.358,0.507-0.608,0.732c-0.252,0.227-0.558,0.45-0.915,0.67    c-0.359,0.222-0.773,0.464-1.243,0.727c-0.385,0.207-0.757,0.429-1.118,0.663c-0.361,0.235-0.696,0.508-1.004,0.818    c-0.31,0.311-0.583,0.675-0.82,1.093c-0.24,0.419-0.435,0.924-0.586,1.517h6.531l0.187-1.058h-5.135    c0.111-0.311,0.279-0.586,0.506-0.825c0.226-0.24,0.485-0.463,0.779-0.67c0.297-0.207,0.615-0.402,0.958-0.586    c0.343-0.183,0.686-0.368,1.029-0.557c0.345-0.198,0.682-0.404,1.012-0.62c0.329-0.217,0.631-0.459,0.903-0.727    c0.273-0.268,0.508-0.572,0.704-0.91c0.196-0.339,0.333-0.729,0.411-1.171c0.083-0.47,0.073-0.884-0.028-1.241    c-0.102-0.356-0.272-0.656-0.512-0.896c-0.24-0.239-0.54-0.424-0.897-0.55c-0.359-0.127-0.754-0.19-1.187-0.19    c-0.526,0-1.014,0.089-1.458,0.268c-0.445,0.18-0.834,0.426-1.167,0.74c-0.333,0.316-0.604,0.689-0.813,1.122    c-0.207,0.433-0.341,0.902-0.402,1.41h1.198c0.043-0.301,0.127-0.599,0.25-0.896c0.123-0.296,0.285-0.563,0.485-0.797    c0.202-0.235,0.44-0.425,0.715-0.571s0.587-0.219,0.935-0.219c0.263,0,0.505,0.042,0.725,0.127    c0.221,0.085,0.403,0.207,0.55,0.367c0.146,0.159,0.251,0.35,0.315,0.571c0.063,0.221,0.071,0.467,0.023,0.739    C53.615,280.211,53.508,280.517,53.354,280.78z"/>
	</g>
	
    </g>
</svg>
