<?xml version="1.0" encoding="iso-8859-1"?>
<!DOCTYPE svg PUBLIC "-//W3C//DTD SVG 1.1//EN" "http://www.w3.org/Graphics/SVG/1.1/DTD/svg11.dtd">
<svg version="1.1" xmlns="http://www.w3.org/2000/svg" xmlns:xlink="http://www.w3.org/1999/xlink" x="0px" y="0px" width="30" height="30" viewBox="0 0 30 30" xml:space="preserve">
    <g transform="translate(-570 -200)">
        <g xmlns="http://www.w3.org/2000/svg" xmlns:xlink="http://www.w3.org/1999/xlink" id="rainbow-7">
		<path d="M572,228h1c0-13.785,11.215-25,25-25v-1C583.639,202,572,213.64,572,228z"/>
		<path d="M575,228h1c0-12.131,9.869-22,22-22v-1C585.317,205,575,215.318,575,228z"/>
		<path d="M578,228h1c0-10.477,8.523-19,19-19v-1C586.972,208,578,216.973,578,228z"/>
		<path d="M581,228h1c0-8.822,7.178-16,16-16v-1C588.626,211,581,218.626,581,228z"/>
	</g>
	
    </g>
</svg>
