<?xml version="1.0" encoding="iso-8859-1"?>
<!DOCTYPE svg PUBLIC "-//W3C//DTD SVG 1.1//EN" "http://www.w3.org/Graphics/SVG/1.1/DTD/svg11.dtd">
<svg version="1.1" xmlns="http://www.w3.org/2000/svg" xmlns:xlink="http://www.w3.org/1999/xlink" x="0px" y="0px" width="30" height="30" viewBox="0 0 30 30" xml:space="preserve">
    <g transform="translate(-330 -200)">
        <g xmlns="http://www.w3.org/2000/svg" xmlns:xlink="http://www.w3.org/1999/xlink" id="rain-7">
		<path d="M351,208c-0.098,0-0.193,0.01-0.29,0.015c-0.855-2.899-3.533-5.015-6.71-5.015c-3.867,0-7,3.133-7,7    c0,0.034,0.005,0.066,0.005,0.101C334.721,210.562,333,212.579,333,215c0,2.762,2.238,5,5,5h13c3.313,0,6-2.687,6-6    S354.313,208,351,208z M351,219h-13c-2.206,0-4-1.795-4-4c0-1.896,1.347-3.545,3.203-3.919l0.802-0.162v-0.854L338,209.977    c0-3.285,2.691-5.977,6-5.977c2.64,0,5.004,1.768,5.751,4.298l0.223,0.755L351,209c2.757,0,5,2.243,5,5S353.757,219,351,219z"/>
		<rect x="341" y="222" width="1" height="5"/>
		<rect x="337" y="222" width="1" height="5"/>
		<rect x="345" y="222" width="1" height="5"/>
		<rect x="349" y="222" width="1" height="5"/>
		<rect x="353" y="222" width="1" height="5"/>
	</g>
	
    </g>
</svg>
