<?xml version="1.0" encoding="iso-8859-1"?>
<!DOCTYPE svg PUBLIC "-//W3C//DTD SVG 1.1//EN" "http://www.w3.org/Graphics/SVG/1.1/DTD/svg11.dtd">
<svg version="1.1" xmlns="http://www.w3.org/2000/svg" xmlns:xlink="http://www.w3.org/1999/xlink" x="0px" y="0px" width="30" height="30" viewBox="0 0 30 30" xml:space="preserve">
    <g transform="translate(-150 -320)">
        <g xmlns="http://www.w3.org/2000/svg" xmlns:xlink="http://www.w3.org/1999/xlink" id="saturn-7">
		<path d="M173,335c0,4.412-3.588,8-8,8c-0.192,0-0.382-0.016-0.571-0.029c-0.356,0.298-0.712,0.589-1.068,0.873    c0.532,0.098,1.079,0.156,1.64,0.156c4.971,0,9-4.029,9-9c0-0.562-0.058-1.108-0.156-1.641c-0.292,0.363-0.585,0.719-0.873,1.063    C172.984,334.613,173,334.805,173,335z"/>
		<path d="M177.375,322.625c-0.317-0.316-0.763-0.477-1.324-0.477c-1.722,0-4.751,1.646-8.2,4.32    c-0.896-0.3-1.854-0.469-2.851-0.469c-4.971,0-9,4.029-9,9c0,0.991,0.167,1.942,0.462,2.834c-3.324,4.259-5.26,8.115-3.837,9.541    c0.317,0.316,0.762,0.477,1.324,0.477c1.365,0,3.552-1.031,6.117-2.791c2.481-1.7,5.316-4.08,8.115-6.879    c2.604-2.604,5.019-5.414,6.786-7.951C177.376,326.776,178.579,323.83,177.375,322.625z M174.245,329.496    c-1.555,2.272-3.8,5.008-6.771,7.979c-2.94,2.941-5.684,5.204-7.976,6.773c-2.506,1.717-4.474,2.604-5.55,2.604    c-0.287,0-0.494-0.062-0.617-0.184c-0.703-0.704,0.479-3.664,3.573-7.755c0.723,1.493,1.842,2.756,3.227,3.649    c0.279-0.207,0.565-0.424,0.857-0.65C158.608,340.524,157,337.95,157,335c0-4.412,3.588-8,8-8c2.95,0,5.525,1.608,6.912,3.99    c0.228-0.293,0.445-0.579,0.651-0.857c-0.895-1.386-2.158-2.506-3.653-3.229c3.263-2.471,5.846-3.755,7.141-3.755    c0.287,0,0.494,0.062,0.617,0.184C177.276,323.94,176.475,326.239,174.245,329.496z"/>
	</g>
	
    </g>
</svg>
