<?xml version="1.0" encoding="iso-8859-1"?>
<!DOCTYPE svg PUBLIC "-//W3C//DTD SVG 1.1//EN" "http://www.w3.org/Graphics/SVG/1.1/DTD/svg11.dtd">
<svg version="1.1" xmlns="http://www.w3.org/2000/svg" xmlns:xlink="http://www.w3.org/1999/xlink" x="0px" y="0px" width="30" height="30" viewBox="0 0 30 30" xml:space="preserve">
    <g transform="translate(-210 -260)">
        <g xmlns="http://www.w3.org/2000/svg" xmlns:xlink="http://www.w3.org/1999/xlink" id="science-board-7">
		<path d="M237,263h-24v19h4.67l-1.697,5.483l1.911,0.591l1.26-4.074h11.713l1.26,4.074l1.911-0.591L232.33,282H237V263z     M230.546,283h-11.092l0.309-1h10.475L230.546,283z M236,281h-22v-17h22V281z"/>
		<rect x="217" y="266" width="2" height="1"/>
		<rect x="232" y="266" width="2" height="1"/>
		<rect x="217" y="278" width="6" height="1"/>
		<rect x="225" y="278" width="4" height="1"/>
		<rect x="217" y="269" width="6" height="1"/>
		<rect x="225" y="269" width="6" height="1"/>
		<rect x="217" y="272" width="8" height="1"/>
		<rect x="217" y="275" width="13" height="1"/>
		<rect x="221" y="266" width="9" height="1"/>
		<rect x="228" y="272" width="5" height="1"/>
	</g>
	
    </g>
</svg>
