<?xml version="1.0" encoding="iso-8859-1"?>
<!DOCTYPE svg PUBLIC "-//W3C//DTD SVG 1.1//EN" "http://www.w3.org/Graphics/SVG/1.1/DTD/svg11.dtd">
<svg version="1.1" xmlns="http://www.w3.org/2000/svg" xmlns:xlink="http://www.w3.org/1999/xlink" x="0px" y="0px" width="29" height="30" viewBox="0 0 29 30" xml:space="preserve">
    <g transform="translate(-150 -200)">
        <g xmlns="http://www.w3.org/2000/svg" xmlns:xlink="http://www.w3.org/1999/xlink" id="snow-flake-7">
		<path d="M176.417,211.751l-4.092,3.274h-6.618l4.68-4.68l5.201-0.578c-0.169-0.324-0.354-0.639-0.549-0.945l-3.52,0.391    l2.156-2.156c-0.227-0.244-0.463-0.48-0.707-0.707l-2.156,2.156l0.391-3.52c-0.307-0.195-0.621-0.38-0.945-0.549l-0.578,5.201    l-4.68,4.68v-6.617l3.274-4.093c-0.347-0.109-0.7-0.199-1.06-0.278L165,206.1v-3.049c-0.167-0.007-0.331-0.025-0.5-0.025    s-0.333,0.019-0.5,0.025v3.049l-2.215-2.77c-0.359,0.079-0.713,0.169-1.06,0.278l3.274,4.093v6.617l-4.68-4.68l-0.578-5.201    c-0.324,0.169-0.639,0.354-0.945,0.549l0.391,3.52l-2.156-2.156c-0.244,0.227-0.48,0.463-0.707,0.707l2.156,2.156l-3.52-0.391    c-0.195,0.307-0.38,0.621-0.549,0.945l5.201,0.578l4.68,4.68h-6.618l-4.092-3.274c-0.109,0.347-0.199,0.7-0.278,1.06l2.769,2.215    h-3.048c-0.007,0.167-0.025,0.331-0.025,0.5s0.019,0.333,0.025,0.5h3.048l-2.769,2.215c0.079,0.359,0.169,0.713,0.278,1.06    l4.092-3.274h6.618l-4.68,4.68l-5.201,0.578c0.169,0.324,0.354,0.639,0.549,0.945l3.52-0.391l-2.156,2.156    c0.227,0.244,0.463,0.48,0.707,0.707l2.156-2.156l-0.391,3.52c0.307,0.195,0.621,0.38,0.945,0.549l0.578-5.201l4.68-4.68v6.617    l-3.274,4.093c0.347,0.109,0.7,0.199,1.06,0.278l2.215-2.77V228c0.167,0.007,0.331,0.025,0.5,0.025s0.333-0.019,0.5-0.025v-3.049    l2.215,2.77c0.359-0.079,0.713-0.169,1.06-0.278L165,223.35v-6.617l4.68,4.68l0.578,5.201c0.324-0.169,0.639-0.354,0.945-0.549    l-0.391-3.52l2.156,2.156c0.244-0.227,0.48-0.463,0.707-0.707l-2.156-2.156l3.52,0.391c0.195-0.307,0.38-0.621,0.549-0.945    l-5.201-0.578l-4.68-4.68h6.618l4.092,3.274c0.109-0.347,0.199-0.7,0.278-1.06l-2.769-2.215h3.048    c0.007-0.167,0.025-0.331,0.025-0.5s-0.019-0.333-0.025-0.5h-3.048l2.769-2.215C176.616,212.451,176.526,212.098,176.417,211.751z    "/>
	</g>
	
    </g>
</svg>
