<?xml version="1.0" encoding="iso-8859-1"?>
<!DOCTYPE svg PUBLIC "-//W3C//DTD SVG 1.1//EN" "http://www.w3.org/Graphics/SVG/1.1/DTD/svg11.dtd">
<svg version="1.1" xmlns="http://www.w3.org/2000/svg" xmlns:xlink="http://www.w3.org/1999/xlink" x="0px" y="0px" width="30" height="30" viewBox="0 0 30 30" xml:space="preserve">
    <g transform="translate(-210 -320)">
        <g xmlns="http://www.w3.org/2000/svg" xmlns:xlink="http://www.w3.org/1999/xlink" id="solar-system-7">
		<path d="M225,321c-3.563,0-6.808,1.349-9.282,3.548c0.275,0.193,0.514,0.432,0.71,0.704c2.291-2.018,5.286-3.252,8.572-3.252    c7.169,0,13,5.832,13,13s-5.831,13-13,13s-13-5.832-13-13c0-1.834,0.386-3.577,1.074-5.161c-0.323-0.105-0.62-0.261-0.886-0.463    c-0.76,1.723-1.188,3.623-1.188,5.624c0,7.72,6.28,14,14,14s14-6.28,14-14S232.72,321,225,321z"/>
		<path d="M225,345c5.515,0,10-4.486,10-10c0-0.868-0.122-1.705-0.331-2.509c-0.279,0.187-0.594,0.319-0.928,0.405    c0.163,0.676,0.259,1.378,0.259,2.104c0,4.963-4.037,9-9,9s-9-4.037-9-9s4.037-9,9-9c2.175,0,4.171,0.775,5.728,2.063    c0.221-0.258,0.479-0.476,0.773-0.646c-1.75-1.503-4.019-2.417-6.501-2.417c-5.515,0-10,4.486-10,10S219.485,345,225,345z"/>
		<path d="M220,335c0,2.76,2.239,5,5,5s5-2.24,5-5s-2.239-5-5-5S220,332.24,220,335z M228,335c0,1.656-1.343,3-3,3s-3-1.344-3-3    s1.343-3,3-3S228,333.344,228,335z"/>
		<circle cx="214" cy="327" r="2"/>
		<circle cx="233" cy="330" r="2"/>
	</g>
	
    </g>
</svg>
