<?xml version="1.0" encoding="iso-8859-1"?>
<!DOCTYPE svg PUBLIC "-//W3C//DTD SVG 1.1//EN" "http://www.w3.org/Graphics/SVG/1.1/DTD/svg11.dtd">
<svg version="1.1" xmlns="http://www.w3.org/2000/svg" xmlns:xlink="http://www.w3.org/1999/xlink" x="0px" y="0px" width="30" height="30" viewBox="0 0 30 30" xml:space="preserve">
    <g transform="translate(-30 -200)">
        <g xmlns="http://www.w3.org/2000/svg" xmlns:xlink="http://www.w3.org/1999/xlink" id="sun-7">
		<path d="M54.419,211.608l2.188-4.472l-4.927,0.475l-0.126-4.984l-4.143,2.727L45,201l-2.411,4.354l-4.143-2.727l-0.126,4.984    l-4.927-0.475l2.188,4.472L31,213.494l4,2.936l-3.187,3.814l4.896,0.727l-1.063,4.869l4.671-1.648L41.625,229L45,225.354    L48.375,229l1.307-4.809l4.671,1.648l-1.063-4.869l4.896-0.727L55,216.43l4-2.936L54.419,211.608z M56.275,219.518l-4.19,0.621    l0.908,4.161l-3.994-1.409l-1.116,4.105L45,223.882l-2.883,3.114l-1.116-4.105l-3.994,1.409l0.908-4.161l-4.19-0.621l2.726-3.264    l-3.424-2.513l3.922-1.614l-1.871-3.824l4.216,0.407l0.107-4.257l3.54,2.329l2.06-3.718l2.06,3.718l3.54-2.329l0.107,4.257    l4.216-0.407l-1.871,3.824l3.922,1.614l-3.424,2.513L56.275,219.518z"/>
		<path d="M45,210c-2.762,0-5,2.238-5,5s2.238,5,5,5s5-2.238,5-5S47.762,210,45,210z M45,219c-2.209,0-4-1.791-4-4s1.791-4,4-4    s4,1.791,4,4S47.209,219,45,219z"/>
	</g>
	
    </g>
</svg>
