<?xml version="1.0" encoding="iso-8859-1"?>
<!DOCTYPE svg PUBLIC "-//W3C//DTD SVG 1.1//EN" "http://www.w3.org/Graphics/SVG/1.1/DTD/svg11.dtd">
<svg version="1.1" xmlns="http://www.w3.org/2000/svg" xmlns:xlink="http://www.w3.org/1999/xlink" x="0px" y="0px" width="30" height="30" viewBox="0 0 30 30" xml:space="preserve">
    <g transform="translate(-450 -200)">
        <g xmlns="http://www.w3.org/2000/svg" xmlns:xlink="http://www.w3.org/1999/xlink" id="thunderstorm-7">
		<path d="M458,219c-2.206,0-4-1.795-4-4c0-1.896,1.347-3.545,3.203-3.919l0.802-0.162v-0.854L458,209.977    c0-3.285,2.691-5.977,6-5.977c2.64,0,5.004,1.768,5.751,4.298l0.223,0.755L471,209c2.757,0,5,2.243,5,5s-2.243,5-5,5h-0.586l-1,1    H471c3.313,0,6-2.687,6-6s-2.687-6-6-6c-0.098,0-0.193,0.01-0.29,0.015c-0.855-2.899-3.533-5.015-6.71-5.015c-3.867,0-7,3.133-7,7    c0,0.034,0.005,0.066,0.005,0.101C454.721,210.562,453,212.579,453,215c0,2.762,2.238,5,5,5h0.172l1-1H458z"/>
		<polygon points="461.146,226.854 469,219 462,219 468.146,212.854 467.439,212.146 459.586,220 466.586,220 460.439,226.146   "/>
	</g>
	
    </g>
</svg>
