<?xml version="1.0" encoding="iso-8859-1"?>
<!DOCTYPE svg PUBLIC "-//W3C//DTD SVG 1.1//EN" "http://www.w3.org/Graphics/SVG/1.1/DTD/svg11.dtd">
<svg version="1.1" xmlns="http://www.w3.org/2000/svg" xmlns:xlink="http://www.w3.org/1999/xlink" x="0px" y="0px" width="39" height="30" viewBox="0 0 39 30" xml:space="preserve">
    <g transform="translate(-450 -260)">
        <g xmlns="http://www.w3.org/2000/svg" xmlns:xlink="http://www.w3.org/1999/xlink" id="tree-many-7">
		<path d="M484.945,273.045c0.027-0.179,0.055-0.358,0.055-0.545c0-1.934-1.567-3.5-3.5-3.5c-0.926,0-1.761,0.366-2.387,0.953    c0.234,0.236,0.449,0.488,0.645,0.76c0.451-0.439,1.064-0.713,1.742-0.713c1.379,0,2.5,1.121,2.5,2.5    c0,0.135-0.023,0.265-0.043,0.394l-0.155,1.013l1.017,0.131c1.243,0.159,2.182,1.219,2.182,2.463c0,1.379-1.121,2.5-2.5,2.5    c-0.882,0-1.682-0.461-2.14-1.234l-0.86-1.449l-0.86,1.449c-0.308,0.52-0.777,0.882-1.315,1.074    c-0.382,0.425-0.816,0.801-1.298,1.112c0.156,0.021,0.312,0.048,0.474,0.048c0.986,0,1.867-0.414,2.5-1.072V287h-11v-7.819v-1.546    c0.993,1.426,2.632,2.365,4.5,2.365c3.037,0,5.5-2.463,5.5-5.5c0-2.941-2.312-5.337-5.216-5.485    c0.138-0.481,0.216-0.989,0.216-1.515c0-3.037-2.463-5.5-5.5-5.5s-5.5,2.463-5.5,5.5c0,0.525,0.078,1.033,0.216,1.515    c-2.904,0.148-5.216,2.544-5.216,5.485c0,3.037,2.463,5.5,5.5,5.5c1.868,0,3.507-0.939,4.5-2.365v1.546V287h-11v-8.072    c0.633,0.658,1.514,1.072,2.5,1.072c0.162,0,0.317-0.026,0.474-0.048c-0.481-0.312-0.916-0.688-1.298-1.112    c-0.538-0.192-1.008-0.555-1.315-1.074l-0.86-1.449l-0.86,1.449c-0.458,0.773-1.258,1.234-2.14,1.234c-1.379,0-2.5-1.121-2.5-2.5    c0-1.244,0.938-2.304,2.182-2.463l1.017-0.131l-0.155-1.013c-0.02-0.129-0.043-0.259-0.043-0.394c0-1.379,1.121-2.5,2.5-2.5    c0.678,0,1.291,0.273,1.742,0.713c0.195-0.271,0.41-0.523,0.645-0.76c-0.626-0.587-1.461-0.953-2.387-0.953    c-1.933,0-3.5,1.566-3.5,3.5c0,0.187,0.027,0.366,0.055,0.545c-1.72,0.221-3.055,1.674-3.055,3.455c0,1.933,1.567,3.5,3.5,3.5    c0.986,0,1.867-0.414,2.5-1.072V287h-4v1h33v-1h-4v-8.072c0.633,0.658,1.514,1.072,2.5,1.072c1.933,0,3.5-1.567,3.5-3.5    C488,274.719,486.665,273.266,484.945,273.045z M468.591,276.365c-0.731,1.601-2.337,2.635-4.091,2.635    c-2.481,0-4.5-2.019-4.5-4.5c0-2.394,1.874-4.364,4.267-4.486l1.256-0.064l-0.345-1.209c-0.118-0.412-0.178-0.83-0.178-1.24    c0-2.481,2.019-4.5,4.5-4.5s4.5,2.019,4.5,4.5c0,0.411-0.06,0.828-0.178,1.24l-0.345,1.209l1.256,0.064    c2.393,0.122,4.267,2.093,4.267,4.486c0,2.481-2.019,4.5-4.5,4.5c-1.754,0-3.359-1.034-4.091-2.635l-0.909-1.99L468.591,276.365z"/>
	</g>
	
    </g>
</svg>
