<?xml version="1.0" encoding="iso-8859-1"?>
<!DOCTYPE svg PUBLIC "-//W3C//DTD SVG 1.1//EN" "http://www.w3.org/Graphics/SVG/1.1/DTD/svg11.dtd">
<svg version="1.1" xmlns="http://www.w3.org/2000/svg" xmlns:xlink="http://www.w3.org/1999/xlink" x="0px" y="0px" width="29" height="30" viewBox="0 0 29 30" xml:space="preserve">
    <g transform="translate(-330 -260)">
        <g xmlns="http://www.w3.org/2000/svg" xmlns:xlink="http://www.w3.org/1999/xlink" id="tree-7">
		<path d="M349.783,269.014c0.139-0.48,0.217-0.988,0.217-1.514c0-3.037-2.463-5.5-5.5-5.5s-5.5,2.463-5.5,5.5    c0,0.525,0.078,1.033,0.217,1.514c-2.905,0.149-5.217,2.545-5.217,5.486c0,3.037,2.463,5.5,5.5,5.5c1.868,0,3.507-0.939,4.5-2.365    V287h-9v1h19v-1h-9v-9.365c0.993,1.426,2.632,2.365,4.5,2.365c3.037,0,5.5-2.463,5.5-5.5    C355,271.559,352.688,269.163,349.783,269.014z M349.5,279c-1.754,0-3.359-1.034-4.091-2.635l-0.909-1.989l-0.909,1.989    c-0.731,1.601-2.337,2.635-4.091,2.635c-2.481,0-4.5-2.019-4.5-4.5c0-2.394,1.875-4.364,4.269-4.487l1.259-0.065l-0.35-1.211    c-0.118-0.408-0.178-0.824-0.178-1.236c0-2.481,2.019-4.5,4.5-4.5s4.5,2.019,4.5,4.5c0,0.412-0.06,0.828-0.178,1.236l-0.35,1.211    l1.259,0.065c2.394,0.123,4.269,2.094,4.269,4.487C354,276.981,351.981,279,349.5,279z"/>
	</g>
	
    </g>
</svg>
