<?xml version="1.0" encoding="iso-8859-1"?>
<!DOCTYPE svg PUBLIC "-//W3C//DTD SVG 1.1//EN" "http://www.w3.org/Graphics/SVG/1.1/DTD/svg11.dtd">
<svg version="1.1" xmlns="http://www.w3.org/2000/svg" xmlns:xlink="http://www.w3.org/1999/xlink" x="0px" y="0px" width="30" height="30" viewBox="0 0 30 30" xml:space="preserve">
    <g transform="translate(-390 -320)">
        <g xmlns="http://www.w3.org/2000/svg" xmlns:xlink="http://www.w3.org/1999/xlink" id="ufo-7">
		<path d="M418,331.5c0-1.586-2.378-2.979-5.961-3.779c-1.05-2.169-3.8-3.721-7.039-3.721s-5.989,1.552-7.039,3.721    c-3.583,0.801-5.961,2.193-5.961,3.779c0,0.526,0.275,1.03,0.756,1.5c-0.48,0.47-0.756,0.974-0.756,1.5    c0,1.16,1.28,2.215,3.364,3.013l-0.865,1.558c-0.16-0.041-0.325-0.07-0.499-0.07c-1.104,0-2,0.896-2,2s0.896,2,2,2s2-0.896,2-2    c0-0.57-0.241-1.081-0.624-1.445l0.949-1.71c1.47,0.457,3.237,0.799,5.196,0.987l-0.698,4.186    C399.803,343.108,399,343.956,399,345c0,1.104,0.896,2,2,2s2-0.896,2-2c0-0.815-0.489-1.514-1.189-1.825l0.71-4.259    C403.324,338.97,404.151,339,405,339s1.676-0.03,2.479-0.084l0.71,4.259c-0.7,0.312-1.189,1.01-1.189,1.825c0,1.104,0.896,2,2,2    s2-0.896,2-2c0-1.044-0.803-1.892-1.823-1.982l-0.698-4.186c1.959-0.188,3.727-0.53,5.196-0.987l0.949,1.71    C414.241,339.919,414,340.43,414,341c0,1.104,0.896,2,2,2s2-0.896,2-2s-0.896-2-2-2c-0.174,0-0.339,0.029-0.499,0.07l-0.865-1.558    c2.084-0.798,3.364-1.853,3.364-3.013c0-0.526-0.275-1.03-0.756-1.5C417.725,332.53,418,332.026,418,331.5z M395,341    c0,0.552-0.448,1-1,1s-1-0.448-1-1s0.448-1,1-1S395,340.448,395,341z M402,345c0,0.552-0.448,1-1,1s-1-0.448-1-1s0.448-1,1-1    S402,344.448,402,345z M410,345c0,0.552-0.448,1-1,1s-1-0.448-1-1s0.448-1,1-1S410,344.448,410,345z M417,341c0,0.552-0.448,1-1,1    s-1-0.448-1-1s0.448-1,1-1S417,340.448,417,341z M405,325c3.584,0,6.5,2.089,6.5,4.657c-0.137,0.386-2.206,1.343-6.5,1.343    s-6.363-0.957-6.502-1.355C398.5,327.089,401.416,325,405,325z M417,334.5c0,1.427-4.675,3.5-12,3.5s-12-2.073-12-3.5    c0-0.278,0.183-0.581,0.523-0.889C395.709,335.032,400.026,336,405,336s9.291-0.968,11.477-2.389    C416.817,333.919,417,334.222,417,334.5z M405,335c-7.325,0-12-2.073-12-3.5c0-0.853,1.681-1.934,4.589-2.668    c-0.053,0.271-0.089,0.544-0.089,0.825c0,3.124,15,3.124,15,0c0-0.281-0.036-0.555-0.089-0.825    c2.908,0.734,4.589,1.815,4.589,2.668C417,332.927,412.325,335,405,335z"/>
	</g>
	
    </g>
</svg>
