<?xml version="1.0" encoding="iso-8859-1"?>
<!DOCTYPE svg PUBLIC "-//W3C//DTD SVG 1.1//EN" "http://www.w3.org/Graphics/SVG/1.1/DTD/svg11.dtd">
<svg version="1.1" xmlns="http://www.w3.org/2000/svg" xmlns:xlink="http://www.w3.org/1999/xlink" x="0px" y="0px" width="30" height="30" viewBox="0 0 30 30" xml:space="preserve">
    <g transform="translate(-90 -80)">
        <g xmlns="http://www.w3.org/2000/svg" xmlns:xlink="http://www.w3.org/1999/xlink" id="water-element-7">
		<path d="M105,82c-7.18,0-13,5.82-13,13s5.82,13,13,13s13-5.82,13-13S112.18,82,105,82z M105,107c-6.617,0-12-5.383-12-12    s5.383-12,12-12s12,5.383,12,12S111.617,107,105,107z"/>
		<path d="M99,97.708c0,2.964,2.688,5.292,6,5.292c3.313,0,6-2.328,6-5.292c0-5.292-4.884-6.051-6-10.708    C103.885,91.657,99,92.416,99,97.708z M107.112,92.448c1.442,1.495,2.688,2.786,2.688,5.26c0,1.804-1.27,3.301-3.094,3.885    c0.998-0.74,1.689-1.89,1.828-3.253c0.271-2.699-0.749-4.214-1.933-5.968c-0.354-0.526-0.722-1.083-1.067-1.685    C106.041,91.336,106.59,91.908,107.112,92.448z"/>
	</g>
	
    </g>
</svg>
