<?xml version="1.0" encoding="iso-8859-1"?>
<!DOCTYPE svg PUBLIC "-//W3C//DTD SVG 1.1//EN" "http://www.w3.org/Graphics/SVG/1.1/DTD/svg11.dtd">
<svg version="1.1" xmlns="http://www.w3.org/2000/svg" xmlns:xlink="http://www.w3.org/1999/xlink" x="0px" y="0px" width="30" height="30" viewBox="0 0 30 30" xml:space="preserve">
    <g transform="translate(-510 -200)">
        <g xmlns="http://www.w3.org/2000/svg" xmlns:xlink="http://www.w3.org/1999/xlink" id="windy-7">
		<path d="M539,216c0-3.313-2.687-6-6-6c-0.098,0-0.193,0.01-0.29,0.015c-0.855-2.899-3.533-5.015-6.71-5.015    c-2.379,0-4.476,1.188-5.74,3H516v1h2h4h1v-1h-1.463c1.1-1.223,2.69-2,4.463-2c2.64,0,5.004,1.768,5.751,4.298l0.223,0.755    L533,211c2.757,0,5,2.243,5,5s-2.243,5-5,5h-13c-1.858,0-3.411-1.28-3.857-3H521v-1h-6h-3v1h3.101c0.464,2.282,2.48,4,4.899,4h13    C536.313,222,539,219.313,539,216z"/>
		<polygon points="521,215 523,215 523,214 521,214 515,214 514,214 514,215 515,215   "/>
		<polygon points="521,212 526,212 526,211 522,211 518,211 510,211 510,212 515,212   "/>
		<rect x="514" y="208" width="1" height="1"/>
		<rect x="512" y="214" width="1" height="1"/>
		<rect x="510" y="217" width="1" height="1"/>
	</g>
	
    </g>
</svg>
