<?xml version="1.0" encoding="iso-8859-1"?>
<!DOCTYPE svg PUBLIC "-//W3C//DTD SVG 1.1//EN" "http://www.w3.org/Graphics/SVG/1.1/DTD/svg11.dtd">
<svg version="1.1" xmlns="http://www.w3.org/2000/svg" xmlns:xlink="http://www.w3.org/1999/xlink" x="0px" y="0px" width="30" height="30" viewBox="0 0 30 30" xml:space="preserve">
    <g transform="translate(-450 -80)">
        <g xmlns="http://www.w3.org/2000/svg" xmlns:xlink="http://www.w3.org/1999/xlink" id="wind-element-7">
		<path d="M465,108c7.18,0,13-5.82,13-13s-5.82-13-13-13s-13,5.82-13,13S457.82,108,465,108z M465,83c6.617,0,12,5.383,12,12    c0,1.404-0.255,2.747-0.7,4H465c-2.206,0-4-1.794-4-4s1.794-4,4-4s4,1.794,4,4h1c0-2.757-2.243-5-5-5s-5,2.243-5,5s2.243,5,5,5    h10.895c-0.507,1.101-1.175,2.109-1.976,3H465c-4.411,0-8-3.589-8-8s3.589-8,8-8s8,3.589,8,8h1c0-4.962-4.037-9-9-9s-9,4.038-9,9    s4.037,9,9,9h7.911c-2.114,1.861-4.879,3-7.911,3c-6.617,0-12-5.383-12-12S458.383,83,465,83z"/>
	</g>
	
    </g>
</svg>
