<?xml version="1.0" encoding="iso-8859-1"?>
<!DOCTYPE svg PUBLIC "-//W3C//DTD SVG 1.1//EN" "http://www.w3.org/Graphics/SVG/1.1/DTD/svg11.dtd">
<svg version="1.1" xmlns="http://www.w3.org/2000/svg" xmlns:xlink="http://www.w3.org/1999/xlink" x="0px" y="0px" width="30" height="30" viewBox="0 0 30 30" xml:space="preserve">
    <g transform="translate(-150 -80)">
        <g xmlns="http://www.w3.org/2000/svg" xmlns:xlink="http://www.w3.org/1999/xlink" id="wood-element-7">
		<path d="M165,82c-7.18,0-13,5.82-13,13s5.82,13,13,13s13-5.82,13-13S172.18,82,165,82z M165,107c-6.617,0-12-5.383-12-12    s5.383-12,12-12s12,5.383,12,12S171.617,107,165,107z"/>
		<path d="M165,85c-5.523,0-10,4.477-10,10s4.477,10,10,10s10-4.477,10-10S170.523,85,165,85z M165,104c-4.962,0-9-4.038-9-9    s4.038-9,9-9s9,4.038,9,9S169.962,104,165,104z"/>
		<path d="M164,89c-3.313,0-6,2.687-6,6s2.687,6,6,6s6-2.687,6-6S167.313,89,164,89z M164,100c-2.757,0-5-2.243-5-5s2.243-5,5-5    s5,2.243,5,5S166.757,100,164,100z"/>
		<path d="M164.5,92c-1.381,0-2.5,1.119-2.5,2.5s1.119,2.5,2.5,2.5s2.5-1.119,2.5-2.5S165.881,92,164.5,92z M164.5,96    c-0.829,0-1.5-0.671-1.5-1.5s0.671-1.5,1.5-1.5s1.5,0.671,1.5,1.5S165.329,96,164.5,96z"/>
	</g>
	
    </g>
</svg>
