<?xml version="1.0" encoding="iso-8859-1"?>
<!DOCTYPE svg PUBLIC "-//W3C//DTD SVG 1.1//EN" "http://www.w3.org/Graphics/SVG/1.1/DTD/svg11.dtd">
<svg version="1.1" xmlns="http://www.w3.org/2000/svg" xmlns:xlink="http://www.w3.org/1999/xlink" x="0px" y="0px" width="30" height="30" viewBox="0 0 30 30" xml:space="preserve">
    <g transform="translate(-450 -680)">
        <g xmlns="http://www.w3.org/2000/svg" xmlns:xlink="http://www.w3.org/1999/xlink" id="_x32_4hour-7">
		<path d="M456.6,700h6.531l0.283-1.059h-5.135c0.141-0.31,0.334-0.585,0.582-0.824c0.246-0.239,0.527-0.463,0.842-0.67    c0.313-0.207,0.65-0.401,1.01-0.586c0.359-0.184,0.72-0.368,1.08-0.557c0.363-0.197,0.72-0.404,1.069-0.62    c0.349-0.216,0.673-0.458,0.97-0.727c0.298-0.268,0.561-0.572,0.787-0.911c0.228-0.337,0.4-0.728,0.519-1.169    c0.126-0.471,0.154-0.884,0.085-1.242c-0.068-0.357-0.211-0.655-0.43-0.896c-0.217-0.24-0.5-0.424-0.847-0.55    c-0.347-0.127-0.736-0.19-1.169-0.19c-0.526,0-1.021,0.09-1.482,0.268c-0.461,0.179-0.873,0.426-1.234,0.74    c-0.362,0.315-0.667,0.689-0.914,1.121c-0.248,0.434-0.426,0.903-0.533,1.411h1.198c0.071-0.301,0.183-0.6,0.332-0.896    s0.335-0.563,0.56-0.797c0.223-0.235,0.479-0.426,0.766-0.571c0.289-0.146,0.606-0.219,0.955-0.219    c0.263,0,0.501,0.042,0.713,0.127c0.213,0.085,0.385,0.207,0.516,0.366c0.131,0.16,0.219,0.352,0.264,0.571    c0.043,0.222,0.029,0.469-0.044,0.74c-0.093,0.349-0.229,0.654-0.407,0.918c-0.18,0.263-0.404,0.507-0.678,0.733    c-0.271,0.226-0.597,0.448-0.976,0.67c-0.378,0.221-0.815,0.463-1.309,0.726c-0.403,0.208-0.797,0.428-1.179,0.663    c-0.384,0.235-0.743,0.508-1.08,0.818c-0.338,0.311-0.645,0.676-0.92,1.093C457.047,698.902,456.806,699.408,456.6,700z"/>
		<path d="M471.734,690l-6.299,6.503l-0.311,1.155h4.387L468.885,700h1.129l0.627-2.342h1.354l0.283-1.057h-1.354l1.77-6.602    H471.734z M469.796,696.602h-3.356l4.64-4.895h0.028L469.796,696.602z"/>
		<path d="M474.192,685.808c-4.587-4.587-11.769-5.008-16.851-1.294l0.715,0.715c4.684-3.33,11.232-2.91,15.429,1.286    c3.542,3.542,4.481,8.986,2.417,13.493l-1.586-1.125l-0.467,4.964l4.532-2.079l-1.654-1.174    C479.067,695.678,478.074,689.689,474.192,685.808z"/>
		<path d="M455.859,691.293l0.467-4.965l-4.533,2.079l1.655,1.174c-2.341,4.916-1.348,10.904,2.534,14.787    c4.587,4.586,11.77,5.008,16.851,1.293l-0.714-0.714c-4.684,3.33-11.232,2.91-15.43-1.286c-3.542-3.543-4.48-8.987-2.416-13.493    L455.859,691.293z"/>
	</g>
	
    </g>
</svg>
