<?xml version="1.0" encoding="iso-8859-1"?>
<!DOCTYPE svg PUBLIC "-//W3C//DTD SVG 1.1//EN" "http://www.w3.org/Graphics/SVG/1.1/DTD/svg11.dtd">
<svg version="1.1" xmlns="http://www.w3.org/2000/svg" xmlns:xlink="http://www.w3.org/1999/xlink" x="0px" y="0px" width="30" height="30" viewBox="0 0 30 30" xml:space="preserve">
    <g transform="translate(-210 -740)">
        <g xmlns="http://www.w3.org/2000/svg" xmlns:xlink="http://www.w3.org/1999/xlink" id="alias-7">
		<path d="M232.447,748.463h-1.854l-0.812,2.146h-0.066c-0.747-1.984-2.114-2.698-3.642-2.698c-4.65,0-7.936,4.975-7.936,9.495    c0,2.992,1.725,4.781,4.294,4.781c1.82,0,3.057-0.749,4.584-2.212h0.065c-0.032,1.529,0.942,2.212,2.211,2.212    c3.513,0,7.708-4.162,7.708-9.204c0-5.788-5.04-9.983-11.35-9.983c-6.96,0-12.65,5.366-12.65,12c0,6.603,5.464,12,12.65,12    c4.455,0,8.65-2.276,10.894-5.918h-1.95c-1.725,2.764-5.464,4.486-8.943,4.486c-6.179,0-11.025-4.715-11.025-10.568    c0-5.626,4.65-10.568,11.025-10.568c5.04,0,9.723,3.349,9.723,8.454c0,3.382-2.926,7.87-5.789,7.87    c-0.585,0-0.877-0.26-0.877-0.813c0-0.52,0.194-1.235,0.423-1.918L232.447,748.463z M222.69,760.561    c-1.95,0-2.797-1.334-2.797-3.317c0-3.121,2.505-7.707,6.018-7.707c1.95,0,2.796,1.009,2.796,3.123    C228.707,755.65,226.171,760.561,222.69,760.561z"/>
	</g>
	
    </g>
</svg>
