<?xml version="1.0" encoding="iso-8859-1"?>
<!DOCTYPE svg PUBLIC "-//W3C//DTD SVG 1.1//EN" "http://www.w3.org/Graphics/SVG/1.1/DTD/svg11.dtd">
<svg version="1.1" xmlns="http://www.w3.org/2000/svg" xmlns:xlink="http://www.w3.org/1999/xlink" x="0px" y="0px" width="30" height="30" viewBox="0 0 30 30" xml:space="preserve">
    <g transform="translate(-90 -740)">
        <g xmlns="http://www.w3.org/2000/svg" xmlns:xlink="http://www.w3.org/1999/xlink" id="ballot-tick-7">
		<path d="M117,756.51V756v-1l-4.559-7.295l1.621-3.479L105,740l-3.264,7H98l-5,8v1v12h14.413c1.337,1.237,3.121,2,5.087,2    c4.143,0,7.5-3.357,7.5-7.5C120,760.049,118.818,757.879,117,756.51z M105.484,741.329l7.25,3.381l-2.934,6.29h-8.826    L105.484,741.329z M98.555,748h2.715l-1.398,3H98v1h14v-1h-1.096l1.033-2.214L115.82,755H94.18L98.555,748z M94,756h14.77    c-2.251,1.295-3.77,3.718-3.77,6.5c0,1.691,0.566,3.246,1.51,4.5H94V756z M112.5,769c-3.59,0-6.5-2.91-6.5-6.5s2.91-6.5,6.5-6.5    s6.5,2.91,6.5,6.5S116.09,769,112.5,769z"/>
		<polygon points="111.086,764.268 108.965,762.146 108.258,762.854 111.086,765.682 116.742,760.025 116.035,759.318   "/>
	</g>
	
    </g>
</svg>
