<?xml version="1.0" encoding="iso-8859-1"?>
<!DOCTYPE svg PUBLIC "-//W3C//DTD SVG 1.1//EN" "http://www.w3.org/Graphics/SVG/1.1/DTD/svg11.dtd">
<svg version="1.1" xmlns="http://www.w3.org/2000/svg" xmlns:xlink="http://www.w3.org/1999/xlink" x="0px" y="0px" width="30" height="30" viewBox="0 0 30 30" xml:space="preserve">
    <g transform="translate(-570 -740)">
        <g xmlns="http://www.w3.org/2000/svg" xmlns:xlink="http://www.w3.org/1999/xlink" id="bear-market-7">
		<path d="M598,745.5c0-1.93-1.57-3.5-3.5-3.5c-1.759,0-3.204,1.309-3.449,3H585h-6.051c-0.245-1.691-1.69-3-3.449-3    c-1.93,0-3.5,1.57-3.5,3.5c0,1.374,0.803,2.554,1.958,3.126L573,763c0,0,5,5,12,5s12-5,12-5l-0.958-14.374    C597.197,748.054,598,746.874,598,745.5z M573,745.5c0-1.379,1.121-2.5,2.5-2.5c1.22,0,2.234,0.878,2.453,2.035l-0.98,0.735    c0.017-0.088,0.027-0.178,0.027-0.271c0-0.827-0.673-1.5-1.5-1.5s-1.5,0.673-1.5,1.5c0,0.777,0.596,1.41,1.354,1.485l-0.979,0.734    C573.563,747.307,573,746.472,573,745.5z M595.971,762.588C594.793,763.621,590.52,767,585,767c-5.542,0-9.798-3.377-10.971-4.41    l0.938-14.065l3.366-2.524h13.334l3.366,2.524L595.971,762.588z M595.626,747.72l-0.979-0.734    c0.758-0.075,1.354-0.708,1.354-1.485c0-0.827-0.673-1.5-1.5-1.5s-1.5,0.673-1.5,1.5c0,0.093,0.011,0.183,0.027,0.271l-0.98-0.735    c0.219-1.157,1.233-2.035,2.453-2.035c1.379,0,2.5,1.121,2.5,2.5C597,746.472,596.438,747.307,595.626,747.72z"/>
		<polygon points="582,755 581,753 579,753 580,755   "/>
		<polygon points="588,755 590,755 591,753 589,753   "/>
		<path d="M585,757c-1,0-6,1-6,6c0,2,4,3,6,3s6-1,6-3C591,758,586,757,585,757z M585,765c-2.065,0-5-1.034-5-2c0-4.549,4.95-5,5-5    s5,0.451,5,5C590,763.966,587.065,765,585,765z"/>
		<path d="M583,760c0,1.104,0.896,2,2,2s2-0.896,2-2S583,758.896,583,760z"/>
		<rect x="584" y="763" width="2" height="1"/>
	</g>
	
    </g>
</svg>
