<?xml version="1.0" encoding="iso-8859-1"?>
<!DOCTYPE svg PUBLIC "-//W3C//DTD SVG 1.1//EN" "http://www.w3.org/Graphics/SVG/1.1/DTD/svg11.dtd">
<svg version="1.1" xmlns="http://www.w3.org/2000/svg" xmlns:xlink="http://www.w3.org/1999/xlink" x="0px" y="0px" width="30" height="30" viewBox="0 0 30 30" xml:space="preserve">
    <g transform="translate(-510 -740)">
        <g xmlns="http://www.w3.org/2000/svg" xmlns:xlink="http://www.w3.org/1999/xlink" id="bull-market-7">
		<path d="M539,741c-1,4-4,7-7,7h-7h-7c-3,0-6-3-7-7c0,0,0.001,7.289,3.777,10H514l-1,1l2,2l2.1-0.7l0.9,2.7l2,6l-1,1v3l2,2h8l2-2    v-3l-1-1l2-6l0.9-2.7l2.1,0.7l2-2l-1-1h-0.777C538.999,748.289,539,741,539,741z M537.006,746.677    c-0.71,1.96-1.925,3.778-4.006,4.222v-1.986C534.447,748.657,535.834,747.861,537.006,746.677z M512.984,746.666    c1.174,1.191,2.564,1.99,4.016,2.246v1.986C514.909,750.456,513.692,748.631,512.984,746.666z M514.414,752H517v0.279    l-1.729,0.576L514.414,752z M530,765.586L528.586,767h-7.172L520,765.586v-2.172l0.414-0.414h9.172l0.414,0.414V765.586z     M528.945,762h-7.891L518,752.838V752v-1v-2h14v2v1v0.838L528.945,762z M534.729,752.855L533,752.279V752h2.586L534.729,752.855z"/>
		<rect x="523" y="764" width="1" height="2"/>
		<rect x="526" y="764" width="1" height="2"/>
		<polygon points="520,753 521,755 523,755 522,753   "/>
		<polygon points="527,755 529,755 530,753 528,753   "/>
	</g>
	
    </g>
</svg>
