<?xml version="1.0" encoding="iso-8859-1"?>
<!DOCTYPE svg PUBLIC "-//W3C//DTD SVG 1.1//EN" "http://www.w3.org/Graphics/SVG/1.1/DTD/svg11.dtd">
<svg version="1.1" xmlns="http://www.w3.org/2000/svg" xmlns:xlink="http://www.w3.org/1999/xlink" x="0px" y="0px" width="29" height="30" viewBox="0 0 29 30" xml:space="preserve">
    <g transform="translate(-150 -200)">
        <g xmlns="http://www.w3.org/2000/svg" xmlns:xlink="http://www.w3.org/1999/xlink" id="business-box-out-7">
		<path d="M178,214l-5-6h-1v1h0.531l4.167,5H169c0,2.485-2.015,4.5-4.5,4.5s-4.5-2.015-4.5-4.5h-7.698l4.167-5H157v-1h-1l-5,6v13h27    V214z M177,226h-25v-11h7.091c0.472,2.557,2.718,4.5,5.409,4.5s4.938-1.943,5.409-4.5H177V226z"/>
		<path d="M165,214v-10.293l4.803,4.804l0.707-0.707l-5.656-5.657c-0.094-0.094-0.221-0.146-0.354-0.146s-0.26,0.053-0.354,0.146    l-5.656,5.657l0.707,0.707l4.803-4.804V214H165z"/>
	</g>
	
    </g>
</svg>
