<?xml version="1.0" encoding="iso-8859-1"?>
<!DOCTYPE svg PUBLIC "-//W3C//DTD SVG 1.1//EN" "http://www.w3.org/Graphics/SVG/1.1/DTD/svg11.dtd">
<svg version="1.1" xmlns="http://www.w3.org/2000/svg" xmlns:xlink="http://www.w3.org/1999/xlink" x="0px" y="0px" width="30" height="30" viewBox="0 0 30 30" xml:space="preserve">
    <g transform="translate(-390 -80)">
        <g xmlns="http://www.w3.org/2000/svg" xmlns:xlink="http://www.w3.org/1999/xlink" id="business-note-7">
		<path d="M418,84h-2c0,1.104-0.896,2-2,2s-2-0.896-2-2h-2c0,1.104-0.896,2-2,2s-2-0.896-2-2h-2c0,1.104-0.896,2-2,2s-2-0.896-2-2    h-2c0,1.104-0.896,2-2,2s-2-0.896-2-2h-2v22h26V84z M417,105h-24V85h0.171c0.413,1.164,1.525,2,2.829,2s2.416-0.836,2.829-2h0.342    c0.413,1.164,1.525,2,2.829,2s2.416-0.836,2.829-2h0.342c0.413,1.164,1.525,2,2.829,2s2.416-0.836,2.829-2h0.342    c0.413,1.164,1.525,2,2.829,2s2.416-0.836,2.829-2H417V105z"/>
		<rect x="396" y="91" width="18" height="1"/>
		<rect x="396" y="95" width="18" height="1"/>
		<rect x="396" y="99" width="18" height="1"/>
	</g>
	
    </g>
</svg>
