<?xml version="1.0" encoding="iso-8859-1"?>
<!DOCTYPE svg PUBLIC "-//W3C//DTD SVG 1.1//EN" "http://www.w3.org/Graphics/SVG/1.1/DTD/svg11.dtd">
<svg version="1.1" xmlns="http://www.w3.org/2000/svg" xmlns:xlink="http://www.w3.org/1999/xlink" x="0px" y="0px" width="30" height="30" viewBox="0 0 30 30" xml:space="preserve">
    <g transform="translate(-450 -500)">
        <g xmlns="http://www.w3.org/2000/svg" xmlns:xlink="http://www.w3.org/1999/xlink" id="business-id-tick-7">
		<rect x="466" y="510" width="8" height="1"/>
		<rect x="466" y="513" width="8" height="1"/>
		<path d="M460,515c1.656,0,3-1.344,3-3s-1.344-3-3-3s-3,1.344-3,3S458.344,515,460,515z M460,510c1.103,0,2,0.897,2,2    c0,1.104-0.897,2-2,2s-2-0.896-2-2C458,510.897,458.897,510,460,510z"/>
		<path d="M463,516h-6c-0.553,0-1,0.447-1,1v4h8v-4C464,516.447,463.553,516,463,516z M463,520h-6v-3h6V520z"/>
		<path d="M478,517.413V505h-26v20h13.436c1.031,2.911,3.8,5,7.064,5c4.143,0,7.5-3.357,7.5-7.5    C480,520.534,479.237,518.75,478,517.413z M453,524v-18h24v10.51c-1.254-0.943-2.809-1.51-4.5-1.51c-1.36,0-2.632,0.367-3.731,1    H466v1h1.413c-1.48,1.37-2.413,3.323-2.413,5.5c0,0.514,0.052,1.016,0.15,1.5H453z M472.5,529c-3.59,0-6.5-2.91-6.5-6.5    s2.91-6.5,6.5-6.5s6.5,2.91,6.5,6.5S476.09,529,472.5,529z"/>
		<polygon points="476.742,520.025 476.035,519.318 471.086,524.268 468.965,522.146 468.258,522.854 471.086,525.682   "/>
	</g>
	
    </g>
</svg>
