<?xml version="1.0" encoding="iso-8859-1"?>
<!DOCTYPE svg PUBLIC "-//W3C//DTD SVG 1.1//EN" "http://www.w3.org/Graphics/SVG/1.1/DTD/svg11.dtd">
<svg version="1.1" xmlns="http://www.w3.org/2000/svg" xmlns:xlink="http://www.w3.org/1999/xlink" x="0px" y="0px" width="30" height="30" viewBox="0 0 30 30" xml:space="preserve">
    <g transform="translate(-30 -620)">
        <g xmlns="http://www.w3.org/2000/svg" xmlns:xlink="http://www.w3.org/1999/xlink" id="business-target-7">
		<path d="M49.637,628.242C47.791,626.842,45.496,626,43,626c-6.075,0-11,4.925-11,11s4.925,11,11,11s11-4.925,11-11    c0-2.496-0.842-4.791-2.242-6.637l-0.717,0.717C52.266,632.74,53,634.783,53,637c0,5.514-4.486,10-10,10s-10-4.486-10-10    s4.486-10,10-10c2.217,0,4.26,0.734,5.92,1.959L49.637,628.242z"/>
		<path d="M46.771,631.108C45.682,630.41,44.39,630,43,630c-3.865,0-7,3.135-7,7s3.135,7,7,7s7-3.135,7-7    c0-1.39-0.41-2.682-1.108-3.771l-0.729,0.729C48.691,634.852,49,635.889,49,637c0,3.309-2.691,6-6,6s-6-2.691-6-6s2.691-6,6-6    c1.111,0,2.148,0.309,3.042,0.837L46.771,631.108z"/>
		<path d="M42.865,635.014l0.902-0.902C43.521,634.046,43.267,634,43,634c-1.656,0-3,1.344-3,3s1.344,3,3,3s3-1.344,3-3    c0-0.268-0.046-0.521-0.111-0.768l-0.902,0.902C44.916,638.174,44.058,639,43,639c-1.104,0-2-0.896-2-2    C41,635.943,41.826,635.084,42.865,635.014z"/>
		<polygon points="57.354,623.354 56.646,622.646 55,624.293 55,622 54,622 54,625.293 53,626.293 53,624 52,624 52,627.293     42.646,636.646 43.354,637.354 52.707,628 56,628 56,627 53.707,627 54.707,626 58,626 58,625 55.707,625   "/>
	</g>
	
    </g>
</svg>
