<?xml version="1.0" encoding="iso-8859-1"?>
<!DOCTYPE svg PUBLIC "-//W3C//DTD SVG 1.1//EN" "http://www.w3.org/Graphics/SVG/1.1/DTD/svg11.dtd">
<svg version="1.1" xmlns="http://www.w3.org/2000/svg" xmlns:xlink="http://www.w3.org/1999/xlink" x="0px" y="0px" width="30" height="30" viewBox="0 0 30 30" xml:space="preserve">
    <g transform="translate(-450 -380)">
        <g xmlns="http://www.w3.org/2000/svg" xmlns:xlink="http://www.w3.org/1999/xlink" id="cheque-7">
		<path d="M452,404h26v-17h-26V404z M455,388h22v15h-22V388z"/>
		<path d="M468,392h8v-3h-8V392z M469,390h6v1h-6V390z"/>
		<rect x="456" y="394" width="20" height="1"/>
		<rect x="456" y="396" width="15" height="1"/>
		<rect x="470" y="401" width="6" height="1"/>
		<rect x="460" y="401" width="1" height="1"/>
		<rect x="462" y="401" width="1" height="1"/>
		<rect x="464" y="401" width="1" height="1"/>
		<rect x="466" y="401" width="1" height="1"/>
		<rect x="456" y="389" width="1" height="1"/>
		<rect x="458" y="389" width="1" height="1"/>
	</g>
	
    </g>
</svg>
