<?xml version="1.0" encoding="iso-8859-1"?>
<!DOCTYPE svg PUBLIC "-//W3C//DTD SVG 1.1//EN" "http://www.w3.org/Graphics/SVG/1.1/DTD/svg11.dtd">
<svg version="1.1" xmlns="http://www.w3.org/2000/svg" xmlns:xlink="http://www.w3.org/1999/xlink" x="0px" y="0px" width="30" height="30" viewBox="0 0 30 30" xml:space="preserve">
    <g transform="translate(-330 -260)">
        <g xmlns="http://www.w3.org/2000/svg" xmlns:xlink="http://www.w3.org/1999/xlink" id="coin-7">
		<path d="M345,286.689V287h-8v-3h5.949c-0.161-0.323-0.302-0.656-0.424-1H335v-3h7c0-0.338,0.022-0.671,0.059-1H336v-3h6.949    c0.173-0.345,0.359-0.682,0.572-1H337v-3h8v1.311c0.316-0.284,0.646-0.552,1-0.789V272h0.896c0.95-0.49,1.996-0.818,3.104-0.941    V267h-2v-4h-16v5h2v3h-1v4h-1v4h-1v5h2v4h13.896C346.206,287.645,345.572,287.203,345,286.689z M338,271v-3h8v3H338z M349,268v3    h-2v-3h1H349z M347,264v3h-2v-3H347z M344,264v3h-8v-3H344z M333,267v-3h2v3h-1H333z M335,268h2v3h-2V268z M334,272h2v3h-2V272z     M333,276h2v3h-2V276z M332,283v-3h2v3h-1H332z M334,287v-3h2v3H334z"/>
		<path d="M351,272c-4.419,0-8,3.582-8,8s3.581,8,8,8s8-3.582,8-8S355.419,272,351,272z M351,287c-3.859,0-7-3.14-7-7s3.141-7,7-7    s7,3.14,7,7S354.859,287,351,287z"/>
		<path d="M353.999,276.888c-0.187-0.194-0.423-0.34-0.707-0.44c-0.284-0.099-0.611-0.153-0.979-0.163l0.345-1.285h-0.528    l-0.345,1.285c-0.516,0.036-0.992,0.16-1.433,0.372c-0.439,0.212-0.834,0.487-1.181,0.826c-0.349,0.338-0.645,0.726-0.889,1.164    c-0.243,0.438-0.431,0.899-0.561,1.387c-0.133,0.496-0.188,0.959-0.169,1.387c0.021,0.428,0.118,0.801,0.29,1.116    c0.173,0.316,0.423,0.566,0.752,0.751s0.74,0.287,1.231,0.305L349.45,285h0.529l0.376-1.407c0.424,0,0.82-0.077,1.191-0.23    c0.37-0.153,0.706-0.359,1.012-0.616c0.303-0.257,0.565-0.548,0.787-0.873c0.223-0.325,0.396-0.654,0.523-0.988h-1.151    c-0.194,0.46-0.469,0.848-0.819,1.164c-0.35,0.315-0.775,0.496-1.274,0.541l1.418-5.292c0.428,0.019,0.738,0.152,0.935,0.399    c0.195,0.249,0.282,0.58,0.261,0.995h1.178c0.055-0.406,0.046-0.76-0.027-1.063C354.315,277.33,354.186,277.082,353.999,276.888z     M350.096,282.591c-0.318-0.027-0.573-0.117-0.767-0.271s-0.333-0.347-0.419-0.582c-0.086-0.234-0.123-0.5-0.111-0.798    c0.013-0.297,0.06-0.6,0.142-0.907c0.09-0.333,0.208-0.656,0.354-0.967c0.146-0.312,0.324-0.591,0.531-0.839    c0.206-0.248,0.447-0.453,0.726-0.615c0.278-0.163,0.599-0.266,0.962-0.312L350.096,282.591z"/>
	</g>
	
    </g>
</svg>
