<?xml version="1.0" encoding="iso-8859-1"?>
<!DOCTYPE svg PUBLIC "-//W3C//DTD SVG 1.1//EN" "http://www.w3.org/Graphics/SVG/1.1/DTD/svg11.dtd">
<svg version="1.1" xmlns="http://www.w3.org/2000/svg" xmlns:xlink="http://www.w3.org/1999/xlink" x="0px" y="0px" width="30" height="30" viewBox="0 0 30 30" xml:space="preserve">
    <g transform="translate(-570 -260)">
        <g xmlns="http://www.w3.org/2000/svg" xmlns:xlink="http://www.w3.org/1999/xlink" id="coupon-7">
		<path d="M598,279.161c-1.19-0.737-2-2.092-2-3.661s0.81-2.924,2-3.661V265h-26v6.839c1.19,0.737,2,2.092,2,3.661    s-0.81,2.924-2,3.661V286h26V279.161z M597,285h-24v-5.32c1.262-0.99,2-2.513,2-4.18s-0.738-3.19-2-4.18V266h24v5.32    c-1.262,0.99-2,2.513-2,4.18s0.738,3.19,2,4.18V285z"/>
		<rect x="591" y="269" width="1" height="1"/>
		<rect x="591" y="267" width="1" height="1"/>
		<rect x="591" y="271" width="1" height="1"/>
		<rect x="591" y="273" width="1" height="1"/>
		<rect x="591" y="275" width="1" height="1"/>
		<rect x="591" y="277" width="1" height="1"/>
		<rect x="591" y="279" width="1" height="1"/>
		<rect x="591" y="281" width="1" height="1"/>
		<rect x="591" y="283" width="1" height="1"/>
		<polygon points="586.069,271 578,280 578.942,280 587,271   "/>
		<path d="M578.539,275.277c0.195,0.126,0.458,0.188,0.786,0.188c0.321,0,0.607-0.068,0.859-0.207    c0.253-0.137,0.478-0.316,0.673-0.538c0.197-0.223,0.361-0.481,0.496-0.776c0.132-0.294,0.237-0.6,0.313-0.915    c0.08-0.331,0.13-0.643,0.146-0.939c0.018-0.294-0.016-0.551-0.098-0.768c-0.083-0.218-0.219-0.393-0.41-0.522    c-0.192-0.129-0.459-0.193-0.802-0.193c-0.336,0-0.634,0.067-0.893,0.2c-0.257,0.134-0.484,0.313-0.678,0.539    c-0.192,0.227-0.354,0.487-0.483,0.781c-0.131,0.294-0.235,0.607-0.315,0.938c-0.08,0.332-0.124,0.643-0.133,0.933    c-0.008,0.291,0.03,0.545,0.117,0.763C578.202,274.981,578.343,275.153,578.539,275.277z M578.848,273.618    c0.031-0.207,0.068-0.397,0.111-0.575c0.046-0.186,0.104-0.381,0.176-0.588c0.072-0.206,0.163-0.396,0.275-0.569    c0.11-0.173,0.242-0.318,0.395-0.437c0.153-0.117,0.331-0.174,0.535-0.174c0.211,0,0.364,0.058,0.456,0.174    c0.092,0.118,0.149,0.263,0.174,0.437c0.023,0.173,0.019,0.363-0.013,0.569c-0.031,0.207-0.069,0.397-0.11,0.575    c-0.046,0.186-0.104,0.385-0.178,0.595s-0.164,0.401-0.276,0.574c-0.111,0.174-0.243,0.318-0.395,0.43    c-0.151,0.114-0.332,0.169-0.543,0.169c-0.206,0-0.354-0.058-0.445-0.174c-0.092-0.117-0.15-0.263-0.175-0.437    C578.813,274.014,578.815,273.824,578.848,273.618z"/>
		<path d="M586.764,275.536c-0.192-0.128-0.459-0.193-0.803-0.193c-0.335,0-0.633,0.067-0.891,0.199    c-0.26,0.134-0.485,0.313-0.679,0.54c-0.193,0.226-0.354,0.486-0.483,0.78c-0.131,0.294-0.235,0.608-0.315,0.938    c-0.08,0.332-0.124,0.643-0.134,0.934c-0.008,0.291,0.031,0.543,0.118,0.757c0.087,0.214,0.229,0.384,0.423,0.509    c0.197,0.125,0.46,0.187,0.788,0.187c0.321,0,0.607-0.066,0.858-0.2c0.251-0.132,0.475-0.31,0.671-0.532    c0.196-0.222,0.361-0.481,0.495-0.776c0.133-0.294,0.237-0.6,0.313-0.914c0.08-0.331,0.13-0.644,0.146-0.938    c0.018-0.296-0.016-0.551-0.098-0.769C587.091,275.839,586.954,275.665,586.764,275.536z M586.417,277.189    c-0.031,0.207-0.069,0.397-0.112,0.576c-0.045,0.185-0.104,0.384-0.176,0.594c-0.073,0.209-0.165,0.401-0.276,0.574    c-0.112,0.175-0.242,0.318-0.394,0.432c-0.152,0.112-0.334,0.169-0.545,0.169c-0.204,0-0.353-0.059-0.445-0.176    c-0.092-0.117-0.15-0.263-0.173-0.437c-0.023-0.173-0.021-0.363,0.012-0.568c0.031-0.207,0.069-0.398,0.111-0.576    c0.045-0.186,0.104-0.381,0.175-0.588c0.073-0.206,0.164-0.395,0.275-0.569c0.111-0.173,0.243-0.318,0.396-0.437    c0.152-0.117,0.331-0.174,0.535-0.174c0.212,0,0.364,0.058,0.456,0.174c0.092,0.118,0.149,0.263,0.174,0.437    C586.453,276.794,586.448,276.983,586.417,277.189z"/>
	</g>
	
    </g>
</svg>
