<?xml version="1.0" encoding="iso-8859-1"?>
<!DOCTYPE svg PUBLIC "-//W3C//DTD SVG 1.1//EN" "http://www.w3.org/Graphics/SVG/1.1/DTD/svg11.dtd">
<svg version="1.1" xmlns="http://www.w3.org/2000/svg" xmlns:xlink="http://www.w3.org/1999/xlink" x="0px" y="0px" width="30" height="30" viewBox="0 0 30 30" xml:space="preserve">
    <g transform="translate(-510 -200)">
        <path xmlns="http://www.w3.org/2000/svg" xmlns:xlink="http://www.w3.org/1999/xlink" id="diamond-7" d="M538,212l-4-6h-18l-4,6l13,14L538,212z M527.107,222.262l3.087-9.262h5.513L527.107,222.262z    M534.361,208.346l2.369,3.553L536.637,212h-5.93L534.361,208.346z M533.465,207l0.331,0.497l-3.732,3.732L527.043,207H533.465z    M525.813,207l3.572,5h-8.771l3.572-5H525.813z M516.535,207h6.422l-3.021,4.229l-3.732-3.732L516.535,207z M513.27,211.898   l2.369-3.553l3.654,3.654h-5.93L513.27,211.898z M514.293,213h5.513l3.087,9.262L514.293,213z M520.86,213h8.279l-3.678,11.033   L525,224.53l-0.462-0.497L520.86,213z"/>
	
    </g>
</svg>
