<?xml version="1.0" encoding="iso-8859-1"?>
<!DOCTYPE svg PUBLIC "-//W3C//DTD SVG 1.1//EN" "http://www.w3.org/Graphics/SVG/1.1/DTD/svg11.dtd">
<svg version="1.1" xmlns="http://www.w3.org/2000/svg" xmlns:xlink="http://www.w3.org/1999/xlink" x="0px" y="0px" width="30" height="30" viewBox="0 0 30 30" xml:space="preserve">
    <g transform="translate(-390 -560)">
        <g xmlns="http://www.w3.org/2000/svg" xmlns:xlink="http://www.w3.org/1999/xlink" id="dollar-decor-7">
		<path d="M416.789,570.02c1.029-2.512-0.049-4.098-2.744-4.065c0.031-2.693-1.555-3.773-4.064-2.742    c-1.012-2.521-2.947-2.932-4.98-1.005c-2.031-1.927-3.967-1.516-4.979,1.005c-2.512-1.031-4.096,0.049-4.066,2.742    c-2.693-0.032-3.773,1.554-2.742,4.065c-2.52,1.01-2.932,2.946-1.006,4.979c-1.926,2.033-1.514,3.97,1.006,4.979    c-1.031,2.512,0.049,4.098,2.742,4.065c-0.029,2.693,1.555,3.773,4.066,2.742c1.012,2.521,2.947,2.933,4.979,1.005    c2.033,1.928,3.969,1.516,4.98-1.005c2.51,1.031,4.096-0.049,4.064-2.742c2.695,0.032,3.773-1.554,2.744-4.065    c2.52-1.01,2.93-2.946,1.006-4.979C419.719,572.966,419.309,571.029,416.789,570.02z M417.068,574.312l-0.65,0.688l0.65,0.688    c0.705,0.744,1.026,1.455,0.907,2c-0.114,0.522-0.668,1.007-1.559,1.363l-0.936,0.375l0.382,0.933    c0.366,0.893,0.41,1.618,0.124,2.045c-0.278,0.414-0.939,0.642-1.862,0.642h-1.012l-0.068,1.012    c0.01,0.833-0.166,1.475-0.494,1.807c-0.206,0.208-0.487,0.31-0.862,0.31c-0.38,0-0.827-0.104-1.328-0.311l-0.933-0.384    l-0.375,0.937c-0.291,0.723-0.804,1.585-1.601,1.585c-0.503,0-1.129-0.332-1.764-0.934L405,586.413l-0.688,0.652    c-0.634,0.602-1.26,0.934-1.763,0.934c-0.796,0-1.309-0.862-1.6-1.585l-0.375-0.936l-0.933,0.383    c-0.502,0.206-0.949,0.311-1.329,0.311c-0.375,0-0.656-0.102-0.862-0.31c-0.328-0.332-0.504-0.974-0.495-1.808l0.011-1.022    c0,0-1.024,0.012-1.025,0.012c-0.989,0-1.649-0.229-1.927-0.642c-0.286-0.427-0.242-1.152,0.124-2.044l0.383-0.933l-0.936-0.376    c-0.891-0.356-1.445-0.841-1.56-1.364c-0.119-0.545,0.203-1.255,0.907-1.999l0.651-0.688l-0.651-0.688    c-0.704-0.744-1.026-1.454-0.907-1.999c0.114-0.523,0.669-1.008,1.56-1.364l0.936-0.376l-0.383-0.933    c-0.366-0.892-0.41-1.617-0.124-2.043c0.277-0.415,0.938-0.643,1.861-0.643h1.011l0.069-1.011    c-0.009-0.834,0.167-1.476,0.495-1.808c0.206-0.208,0.488-0.31,0.862-0.31c0.38,0,0.827,0.104,1.329,0.311l0.933,0.383    l0.375-0.936c0.29-0.723,0.804-1.584,1.6-1.584c0.503,0,1.129,0.331,1.763,0.933l0.688,0.652l0.688-0.652    c0.636-0.602,1.263-0.933,1.766-0.933c0.796,0,1.31,0.861,1.6,1.584l0.375,0.937l0.933-0.384c0.501-0.206,0.948-0.311,1.328-0.311    c0.375,0,0.656,0.102,0.862,0.31c0.328,0.332,0.504,0.974,0.494,1.807l-0.012,1.023c0,0,1.025-0.012,1.026-0.012    c0.99,0,1.65,0.228,1.928,0.642c0.286,0.427,0.242,1.152-0.124,2.045l-0.382,0.933l0.936,0.375    c0.891,0.356,1.444,0.841,1.559,1.363C418.095,572.856,417.773,573.567,417.068,574.312z"/>
		<path d="M407.191,569.05l0.281-1.05h-0.859l-0.277,1.032c-0.457,0.031-0.903,0.132-1.339,0.298    c-0.436,0.167-0.836,0.394-1.198,0.68c-0.364,0.288-0.682,0.626-0.953,1.018c-0.272,0.391-0.471,0.82-0.598,1.29    c-0.122,0.46-0.164,0.851-0.126,1.175c0.039,0.322,0.161,0.596,0.367,0.821c0.206,0.224,0.487,0.416,0.846,0.577    c0.357,0.161,0.795,0.311,1.312,0.447l-1.11,4.144c-0.598-0.104-1.048-0.359-1.351-0.766c-0.304-0.407-0.371-0.96-0.205-1.659    h-1.33c-0.21,1.096-0.09,1.953,0.359,2.575c0.449,0.619,1.18,0.982,2.195,1.086L402.861,582h0.86l0.343-1.282    c0.514-0.041,0.999-0.146,1.461-0.313c0.462-0.166,0.882-0.393,1.262-0.681c0.379-0.286,0.709-0.627,0.986-1.024    c0.277-0.396,0.485-0.85,0.623-1.36c0.128-0.479,0.147-0.892,0.057-1.234c-0.09-0.346-0.235-0.632-0.434-0.861    c-0.199-0.229-0.423-0.41-0.669-0.54c-0.247-0.13-0.468-0.221-0.661-0.273l-0.872-0.251l1.031-3.848    c0.911,0.178,1.333,0.783,1.267,1.814h1.329c0.036-0.917-0.125-1.637-0.485-2.159C408.598,569.466,408.009,569.153,407.191,569.05    z M406.174,575.83c0.223,0.099,0.402,0.222,0.541,0.366c0.139,0.146,0.232,0.321,0.283,0.524c0.049,0.204,0.034,0.456-0.047,0.759    c-0.09,0.334-0.217,0.624-0.381,0.868c-0.166,0.245-0.361,0.448-0.586,0.61c-0.227,0.161-0.473,0.284-0.74,0.367    c-0.268,0.084-0.551,0.136-0.848,0.156l1.052-3.925C405.708,575.64,405.949,575.73,406.174,575.83z M405.02,573.944    c-0.24-0.072-0.459-0.156-0.652-0.25c-0.193-0.093-0.354-0.205-0.48-0.337c-0.127-0.13-0.209-0.291-0.246-0.484    c-0.037-0.192-0.019-0.426,0.055-0.696c0.158-0.595,0.455-1.045,0.886-1.354c0.432-0.307,0.905-0.486,1.419-0.538L405.02,573.944z    "/>
	</g>
	
    </g>
</svg>
