<?xml version="1.0" encoding="iso-8859-1"?>
<!DOCTYPE svg PUBLIC "-//W3C//DTD SVG 1.1//EN" "http://www.w3.org/Graphics/SVG/1.1/DTD/svg11.dtd">
<svg version="1.1" xmlns="http://www.w3.org/2000/svg" xmlns:xlink="http://www.w3.org/1999/xlink" x="0px" y="0px" width="29" height="30" viewBox="0 0 29 30" xml:space="preserve">
    <g transform="translate(-330 -140)">
        <g xmlns="http://www.w3.org/2000/svg" xmlns:xlink="http://www.w3.org/1999/xlink" id="dot-chart-7">
		<path d="M334,164c1.657,0,3-1.343,3-3c0-0.781-0.306-1.487-0.795-2.021l3.382-4.349C340.01,154.859,340.486,155,341,155    c0.73,0,1.39-0.271,1.91-0.704l2.526,2.166C345.165,156.913,345,157.435,345,158c0,1.657,1.343,3,3,3s3-1.343,3-3    c0-0.836-0.343-1.591-0.895-2.135l3.613-5.163c0.39,0.185,0.82,0.297,1.281,0.297c1.657,0,3-1.343,3-3s-1.343-3-3-3s-3,1.343-3,3    c0,0.836,0.344,1.591,0.896,2.135l-3.614,5.162C348.892,155.112,348.46,155,348,155c-0.73,0-1.39,0.271-1.91,0.704l-2.526-2.166    c0.271-0.451,0.437-0.974,0.437-1.539c0-1.657-1.343-3-3-3s-3,1.343-3,3c0,0.782,0.306,1.487,0.795,2.021l-3.382,4.348    C334.99,158.141,334.514,158,334,158c-1.657,0-3,1.343-3,3S332.343,164,334,164z M353,148c0-1.104,0.896-2,2-2s2,0.896,2,2    s-0.896,2-2,2S353,149.104,353,148z M348,156c1.104,0,2,0.896,2,2s-0.896,2-2,2s-2-0.896-2-2S346.896,156,348,156z M339,152    c0-1.104,0.896-2,2-2s2,0.896,2,2s-0.896,2-2,2S339,153.104,339,152z M334,159c1.104,0,2,0.896,2,2s-0.896,2-2,2s-2-0.896-2-2    S332.896,159,334,159z"/>
		<rect x="330" y="167" width="29" height="1"/>
	</g>
	
    </g>
</svg>
