<?xml version="1.0" encoding="iso-8859-1"?>
<!DOCTYPE svg PUBLIC "-//W3C//DTD SVG 1.1//EN" "http://www.w3.org/Graphics/SVG/1.1/DTD/svg11.dtd">
<svg version="1.1" xmlns="http://www.w3.org/2000/svg" xmlns:xlink="http://www.w3.org/1999/xlink" x="0px" y="0px" width="30" height="30" viewBox="0 0 30 30" xml:space="preserve">
    <g transform="translate(-510 -560)">
        <g xmlns="http://www.w3.org/2000/svg" xmlns:xlink="http://www.w3.org/1999/xlink" id="euro-decor-7">
		<path d="M534.045,565.954c0.031-2.693-1.555-3.773-4.064-2.742c-1.012-2.521-2.947-2.932-4.98-1.005    c-2.031-1.927-3.967-1.516-4.979,1.005c-2.512-1.031-4.096,0.049-4.066,2.742c-2.693-0.032-3.773,1.554-2.742,4.065    c-2.52,1.01-2.932,2.946-1.006,4.979c-1.926,2.033-1.514,3.97,1.006,4.979c-1.031,2.512,0.049,4.098,2.742,4.065    c-0.029,2.693,1.555,3.773,4.066,2.742c1.012,2.521,2.947,2.933,4.979,1.005c2.033,1.928,3.969,1.516,4.98-1.005    c2.51,1.031,4.096-0.049,4.064-2.742c2.695,0.032,3.773-1.554,2.744-4.065c2.52-1.01,2.93-2.946,1.006-4.979    c1.924-2.033,1.514-3.97-1.006-4.979C537.818,567.508,536.74,565.922,534.045,565.954z M537.976,572.312    c0.119,0.545-0.202,1.256-0.907,2l-0.65,0.688l0.65,0.688c0.705,0.744,1.026,1.455,0.907,2c-0.114,0.522-0.668,1.007-1.559,1.363    l-0.936,0.375l0.382,0.933c0.366,0.893,0.41,1.618,0.124,2.045c-0.278,0.414-0.939,0.642-1.862,0.642h-1.012l-0.068,1.012    c0.01,0.833-0.166,1.475-0.494,1.807c-0.206,0.208-0.487,0.31-0.862,0.31c-0.38,0-0.827-0.104-1.328-0.311l-0.933-0.384    l-0.375,0.937c-0.291,0.723-0.804,1.585-1.601,1.585c-0.503,0-1.129-0.332-1.764-0.934L525,586.413l-0.688,0.652    c-0.634,0.602-1.26,0.934-1.763,0.934c-0.796,0-1.309-0.862-1.6-1.585l-0.375-0.936l-0.933,0.383    c-0.502,0.206-0.949,0.311-1.329,0.311c-0.375,0-0.656-0.102-0.862-0.31c-0.328-0.332-0.504-0.974-0.495-1.808l0.011-1.022    c0,0-1.024,0.012-1.025,0.012c-0.989,0-1.649-0.229-1.927-0.642c-0.286-0.427-0.242-1.152,0.124-2.044l0.383-0.933l-0.936-0.376    c-0.891-0.356-1.445-0.841-1.56-1.364c-0.119-0.545,0.203-1.255,0.907-1.999l0.651-0.688l-0.651-0.688    c-0.704-0.744-1.026-1.454-0.907-1.999c0.114-0.523,0.669-1.008,1.56-1.364l0.936-0.376l-0.383-0.933    c-0.366-0.892-0.41-1.617-0.124-2.043c0.277-0.415,0.938-0.643,1.861-0.643h1.011l0.069-1.011    c-0.009-0.834,0.167-1.476,0.495-1.808c0.206-0.208,0.488-0.31,0.862-0.31c0.38,0,0.827,0.104,1.329,0.311l0.933,0.383    l0.375-0.936c0.29-0.723,0.804-1.584,1.6-1.584c0.503,0,1.129,0.331,1.763,0.933l0.688,0.652l0.688-0.652    c0.636-0.602,1.263-0.933,1.766-0.933c0.796,0,1.31,0.861,1.6,1.584l0.375,0.937l0.933-0.384c0.501-0.206,0.948-0.311,1.328-0.311    c0.375,0,0.656,0.102,0.862,0.31c0.328,0.332,0.504,0.974,0.494,1.807l-0.012,1.023c0,0,1.025-0.012,1.026-0.012    c0.99,0,1.65,0.228,1.928,0.642c0.286,0.427,0.242,1.152-0.124,2.045l-0.382,0.933l0.936,0.375    C537.308,571.305,537.861,571.789,537.976,572.312z"/>
		<path d="M524.115,570.315c-0.93,0.767-1.701,1.815-2.318,3.145h-0.877l-0.686,0.989h1.184c-0.031,0.075-0.059,0.157-0.082,0.243    c-0.023,0.087-0.047,0.178-0.074,0.275c-0.014,0.055-0.029,0.108-0.043,0.163c-0.016,0.054-0.023,0.107-0.027,0.162h-0.746    l-0.703,0.989h1.25c-0.391,3.145,0.742,4.718,3.389,4.718c0.941,0,1.836-0.231,2.684-0.696l0.457-1.703    c-0.566,0.422-1.018,0.708-1.35,0.86c-0.455,0.206-0.941,0.307-1.461,0.307c-1.697,0-2.414-1.161-2.146-3.485h3.535l0.686-0.989    h-4.037c0.004-0.055,0.014-0.108,0.027-0.162c0.014-0.055,0.031-0.114,0.049-0.179c0.02-0.075,0.041-0.157,0.064-0.242    c0.023-0.088,0.051-0.174,0.086-0.261h4.264l0.703-0.989h-4.59c0.426-0.896,0.922-1.621,1.49-2.172    c0.717-0.691,1.48-1.039,2.289-1.039c0.791,0,1.463,0.373,2.021,1.119l1.105-1.346c-0.789-0.682-1.678-1.022-2.662-1.022    C526.32,569,525.16,569.438,524.115,570.315z"/>
	</g>
	
    </g>
</svg>
