<?xml version="1.0" encoding="iso-8859-1"?>
<!DOCTYPE svg PUBLIC "-//W3C//DTD SVG 1.1//EN" "http://www.w3.org/Graphics/SVG/1.1/DTD/svg11.dtd">
<svg version="1.1" xmlns="http://www.w3.org/2000/svg" xmlns:xlink="http://www.w3.org/1999/xlink" x="0px" y="0px" width="30" height="30" viewBox="0 0 30 30" xml:space="preserve">
    <g transform="translate(-330 -80)">
        <g xmlns="http://www.w3.org/2000/svg" xmlns:xlink="http://www.w3.org/1999/xlink" id="filing-tick-7">
		<path d="M340,84h-8v22h8V84z M339,105h-6V85h6V105z"/>
		<rect x="334" y="87" width="4" height="1"/>
		<rect x="334" y="89" width="4" height="1"/>
		<rect x="334" y="91" width="4" height="1"/>
		<path d="M336,104c1.104,0,2-0.896,2-2c0-1.104-0.896-2-2-2c-1.104,0-2,0.896-2,2C334,103.104,334.896,104,336,104z M336,101    c0.552,0,1,0.448,1,1s-0.448,1-1,1s-1-0.448-1-1S335.448,101,336,101z"/>
		<rect x="343" y="87" width="4" height="1"/>
		<rect x="343" y="89" width="4" height="1"/>
		<rect x="343" y="91" width="4" height="1"/>
		<path d="M358,84h-8v11.436c-0.345,0.122-0.681,0.264-1,0.433V84h-8v22h4.869c1.258,2.378,3.753,4,6.631,4    c4.143,0,7.5-3.358,7.5-7.5c0-1.966-0.763-3.75-2-5.087V84z M351,85h6v11.51c-1.254-0.944-2.809-1.51-4.5-1.51    c-0.514,0-1.016,0.052-1.5,0.15V85z M342,105V85h6v11.51c-1.18,0.888-2.088,2.113-2.581,3.536    C345.284,100.017,345.144,100,345,100c-1.104,0-2,0.896-2,2c0,1.104,0.896,2,2,2c0.051,0,0.099-0.011,0.148-0.015    c0.07,0.349,0.171,0.686,0.287,1.015H342z M345.025,102.995c-0.009,0-0.017,0.005-0.025,0.005c-0.552,0-1-0.448-1-1s0.448-1,1-1    c0.052,0,0.097,0.022,0.146,0.029c-0.095,0.476-0.146,0.967-0.146,1.471C345,102.667,345.015,102.831,345.025,102.995z M359,102.5    c0,3.59-2.91,6.5-6.5,6.5s-6.5-2.91-6.5-6.5s2.91-6.5,6.5-6.5S359,98.91,359,102.5z"/>
		<rect x="352" y="87" width="4" height="1"/>
		<rect x="352" y="89" width="4" height="1"/>
		<rect x="352" y="91" width="4" height="1"/>
		<polygon points="351.086,105.682 356.742,100.025 356.035,99.318 351.086,104.268 348.965,102.146 348.258,102.854   "/>
	</g>
	
    </g>
</svg>
