<?xml version="1.0" encoding="iso-8859-1"?>
<!DOCTYPE svg PUBLIC "-//W3C//DTD SVG 1.1//EN" "http://www.w3.org/Graphics/SVG/1.1/DTD/svg11.dtd">
<svg version="1.1" xmlns="http://www.w3.org/2000/svg" xmlns:xlink="http://www.w3.org/1999/xlink" x="0px" y="0px" width="30" height="30" viewBox="0 0 30 30" xml:space="preserve">
    <g transform="translate(-270 -620)">
        <g xmlns="http://www.w3.org/2000/svg" xmlns:xlink="http://www.w3.org/1999/xlink" id="gear-check-7">
		<path d="M293,633.001V632h-0.896c0.17,0.325,0.311,0.658,0.432,1.001H293z"/>
		<path d="M289.997,635.5c0-0.422-0.077-0.827-0.188-1.222c-0.53,2.477-2.14,4.556-4.312,5.719c0,0,0.001,0,0.002,0    c1.203,0,2.333-0.467,3.182-1.315c0.189-0.189,0.353-0.397,0.504-0.613c0.023-0.032,0.049-0.064,0.072-0.098    C289.737,637.243,289.997,636.393,289.997,635.5z"/>
		<path d="M280.311,640.907c-4.124-0.582-7.311-4.125-7.311-8.407c0-4.687,3.813-8.5,8.5-8.5c3.439,0,6.402,2.059,7.739,5.004    c0.515,0.298,0.998,0.658,1.438,1.079c-0.174-0.661-0.414-1.293-0.718-1.89l1.749-1.01l-0.5-0.866l-1.748,1.009    c-0.725-1.112-1.674-2.063-2.787-2.787l1.01-1.748l-0.867-0.5l-1.01,1.749c-1.152-0.588-2.441-0.943-3.807-1.015V621h-1v2.025    c-1.365,0.071-2.654,0.427-3.807,1.015l-1.01-1.749l-0.867,0.5l1.01,1.748c-1.113,0.725-2.063,1.675-2.787,2.787l-1.748-1.009    l-0.5,0.866l1.749,1.01c-0.589,1.153-0.943,2.441-1.015,3.807H270v1h2.025c0.071,1.365,0.426,2.653,1.015,3.807l-1.749,1.01    l0.5,0.866l1.748-1.009c0.725,1.112,1.674,2.063,2.787,2.787l-1.01,1.748l0.867,0.5l1.01-1.749    c1.152,0.588,2.441,0.943,3.807,1.015V644h1v-1.865C281.389,641.812,280.822,641.398,280.311,640.907z"/>
		<path d="M286,632.5c0-0.52-0.105-1.011-0.268-1.476c-0.078-0.004-0.154-0.022-0.232-0.022c-0.274,0-0.543,0.031-0.807,0.078    c0.193,0.436,0.307,0.914,0.307,1.42c0,1.93-1.57,3.5-3.5,3.5c-0.156,0-0.305-0.026-0.455-0.046    c0.035,0.348,0.106,0.689,0.222,1.022c0.079,0.004,0.153,0.023,0.233,0.023C283.985,637,286,634.985,286,632.5z"/>
		<path d="M278.228,633.707c-0.14-0.378-0.228-0.781-0.228-1.207c0-1.93,1.57-3.5,3.5-3.5c0.078,0,0.151,0.018,0.229,0.023    c0.478-0.279,0.981-0.508,1.509-0.674c-0.534-0.225-1.121-0.35-1.737-0.35c-2.485,0-4.5,2.015-4.5,4.5    c0,1.069,0.389,2.039,1.012,2.812C278.025,634.771,278.099,634.234,278.228,633.707z"/>
		<path d="M290.096,630.903c-2.538-2.538-6.653-2.538-9.192,0c-2.538,2.538-2.538,6.654,0,9.192    c2.419,2.419,6.268,2.527,8.821,0.336l7.796,7.796l0.707-0.707l-7.796-7.796C292.623,637.171,292.515,633.322,290.096,630.903z     M289.389,639.389c-2.145,2.145-5.634,2.145-7.778,0c-2.144-2.145-2.145-5.634,0-7.778s5.635-2.144,7.778,0    C291.533,633.755,291.533,637.244,289.389,639.389z"/>
	</g>
	
    </g>
</svg>
