<?xml version="1.0" encoding="iso-8859-1"?>
<!DOCTYPE svg PUBLIC "-//W3C//DTD SVG 1.1//EN" "http://www.w3.org/Graphics/SVG/1.1/DTD/svg11.dtd">
<svg version="1.1" xmlns="http://www.w3.org/2000/svg" xmlns:xlink="http://www.w3.org/1999/xlink" x="0px" y="0px" width="29" height="30" viewBox="0 0 29 30" xml:space="preserve">
    <g transform="translate(-570 -140)">
        <g xmlns="http://www.w3.org/2000/svg" xmlns:xlink="http://www.w3.org/1999/xlink" id="graph-7">
		<path d="M597,167v-10v-6v-6l-5,5h-5l-5,3l-5-1l-5,6v5v4v1h25V167z M573,158.362l4.388-5.265l4.795,0.959l5.095-3.057h5.137    l3.586-3.586v4.186l-4,2.4l-5,5l-5-3l-5,1l-4,4.8V158.362z M573,163.362l4.542-5.451l4.275-0.854l5.338,3.203l5.465-5.465    l3.38-2.028v4.634l-4,1.6l-5,5l-5-3l-5,1l-4,4V163.362z M596,167h-22.586l4.079-4.079l4.324-0.865l5.338,3.203l5.406-5.407    l3.438-1.375V167z"/>
	</g>
	
    </g>
</svg>
