<?xml version="1.0" encoding="iso-8859-1"?>
<!DOCTYPE svg PUBLIC "-//W3C//DTD SVG 1.1//EN" "http://www.w3.org/Graphics/SVG/1.1/DTD/svg11.dtd">
<svg version="1.1" xmlns="http://www.w3.org/2000/svg" xmlns:xlink="http://www.w3.org/1999/xlink" x="0px" y="0px" width="32" height="30" viewBox="0 0 32 30" xml:space="preserve">
    <g transform="translate(-450 -620)">
        <g xmlns="http://www.w3.org/2000/svg" xmlns:xlink="http://www.w3.org/1999/xlink" id="handshake-7">
		<path d="M465.293,627.656l-0.707-0.707l0.707-0.707L461.05,622l-10.606,10.606l4.243,4.242l0.707-0.707l1.414,1.414    c-0.781,0.781-0.781,2.048,0,2.829c0.425,0.425,0.993,0.61,1.548,0.573c-0.037,0.555,0.148,1.123,0.573,1.548    s0.993,0.61,1.549,0.573c-0.038,0.555,0.148,1.123,0.572,1.548c0.425,0.425,0.993,0.61,1.549,0.573    c-0.037,0.556,0.148,1.124,0.573,1.548c0.78,0.781,2.047,0.781,2.828,0c0.781,0.781,2.048,0.781,2.828,0    c0.425-0.424,0.61-0.992,0.573-1.548c0.556,0.037,1.124-0.148,1.548-0.573c0.425-0.425,0.611-0.993,0.573-1.548    c0.556,0.037,1.124-0.148,1.549-0.573s0.61-0.993,0.573-1.548c0.555,0.037,1.123-0.148,1.548-0.573    c0.781-0.781,0.781-2.048,0-2.829l1.414-1.414l0.707,0.707l4.243-4.242L470.949,622L465.293,627.656z M454.687,635.435    l-2.829-2.828l9.192-9.192l2.829,2.828L454.687,635.435z M474.485,639.678c-0.391,0.39-1.024,0.39-1.414,0l-2.122-2.122    l-0.707,0.708l2.122,2.121c0.39,0.39,0.39,1.023,0,1.414c-0.391,0.39-1.024,0.39-1.415,0l-2.121-2.121l-0.707,0.707l2.121,2.121    c0.391,0.391,0.391,1.024,0,1.414c-0.39,0.391-1.023,0.391-1.414,0l-2.121-2.121L466,642.506l2.121,2.121    c0.391,0.391,0.391,1.024,0,1.414c-0.39,0.391-1.023,0.391-1.414,0l-10.606-10.606l7.778-7.778l0.707,0.707l-3.536,3.536    c-0.78,0.781-0.78,2.047,0,2.828c0.781,0.781,2.048,0.781,2.829,0l3.535-3.535l7.071,7.071    C474.875,638.653,474.875,639.287,474.485,639.678z M477.313,635.435l-9.192-9.192l2.828-2.828l9.193,9.192L477.313,635.435z"/>
	</g>
	
    </g>
</svg>
