<?xml version="1.0" encoding="iso-8859-1"?>
<!DOCTYPE svg PUBLIC "-//W3C//DTD SVG 1.1//EN" "http://www.w3.org/Graphics/SVG/1.1/DTD/svg11.dtd">
<svg version="1.1" xmlns="http://www.w3.org/2000/svg" xmlns:xlink="http://www.w3.org/1999/xlink" x="0px" y="0px" width="29" height="30" viewBox="0 0 29 30" xml:space="preserve">
    <g transform="translate(-450 -80)">
        <g xmlns="http://www.w3.org/2000/svg" xmlns:xlink="http://www.w3.org/1999/xlink" id="hierarchy-7">
		<path d="M459,101h-3v-6h8v6h-3v7h7v-7h-3v-6h8v6h-3v7h7v-7h-3v-7h-9v-5h3v-7h-7v7h3v5h-9v7h-3v7h7V101z M476,102v5h-5v-5H476z     M462,88v-5h5v5H462z M467,102v5h-5v-5H467z M458,107h-5v-5h5V107z"/>
	</g>
	
    </g>
</svg>
