<?xml version="1.0" encoding="iso-8859-1"?>
<!DOCTYPE svg PUBLIC "-//W3C//DTD SVG 1.1//EN" "http://www.w3.org/Graphics/SVG/1.1/DTD/svg11.dtd">
<svg version="1.1" xmlns="http://www.w3.org/2000/svg" xmlns:xlink="http://www.w3.org/1999/xlink" x="0px" y="0px" width="30" height="30" viewBox="0 0 30 30" xml:space="preserve">
    <g transform="translate(-30 -320)">
        <g xmlns="http://www.w3.org/2000/svg" xmlns:xlink="http://www.w3.org/1999/xlink" id="money-bag-7">
		<path d="M37,348c0.64,0,1.203-0.306,1.569-0.774C40.237,347.815,42.423,348,45,348s4.762-0.185,6.43-0.774    C51.797,347.694,52.359,348,53,348c1.104,0,2-0.895,2-2c0-0.517-0.201-0.983-0.523-1.338C54.813,343.932,55,343.061,55,342    c0-9-8-10-8-14h1v-1h-1l1-4h-3l-0.444,1.778L44,322h-2l1,5h-1v1h1c0,4-8,5-8,14c0,1.061,0.187,1.932,0.523,2.662    C35.201,345.017,35,345.483,35,346C35,347.105,35.896,348,37,348z M36.432,344.242C36.141,343.614,36,342.88,36,342    c0-4.946,2.572-7.197,4.843-9.184c1.345-1.176,2.627-2.299,3.028-3.816h2.258c0.401,1.518,1.684,2.64,3.028,3.816    C51.428,334.803,54,337.054,54,342c0,0.88-0.141,1.614-0.432,2.242l-0.277,0.601l0.445,0.491C53.855,345.466,54,345.689,54,346    c0,0.551-0.449,1-1,1c-0.303,0-0.588-0.142-0.783-0.39l-0.441-0.566l-0.678,0.239C49.713,346.772,47.776,347,45,347    s-4.714-0.228-6.098-0.717l-0.678-0.239l-0.442,0.566C37.588,346.858,37.303,347,37,347c-0.552,0-1-0.449-1-1    c0-0.311,0.144-0.534,0.264-0.666l0.445-0.491L36.432,344.242z"/>
		<path d="M46.444,341.157c-0.392,0.266-0.856,0.394-1.394,0.387c-0.931,0-1.658-0.373-2.185-1.119l-1.697,0.588    c0.706,0.995,1.743,1.552,3.074,1.722V344h1.529v-1.234c0.758-0.094,1.415-0.333,1.967-0.721c0.728-0.512,1.092-1.098,1.092-1.759    c0-0.6-0.306-1.133-0.915-1.598c-0.611-0.465-1.595-0.779-2.95-0.94c-0.571-0.062-0.988-0.166-1.251-0.312    c-0.264-0.146-0.395-0.311-0.395-0.496c-0.012-0.254,0.128-0.473,0.419-0.657c0.292-0.185,0.655-0.277,1.093-0.277    c0.75,0.008,1.305,0.238,1.663,0.692l1.495-0.519c-0.525-0.68-1.268-1.1-2.218-1.271V334h-1.529v0.859    c-0.712,0.082-1.308,0.306-1.78,0.681c-0.604,0.48-0.896,1.005-0.874,1.574c0,0.477,0.285,0.887,0.857,1.229    c0.571,0.342,1.395,0.567,2.47,0.675c0.796,0.1,1.35,0.267,1.664,0.501c0.313,0.235,0.465,0.471,0.453,0.709    C47.033,340.583,46.837,340.892,46.444,341.157z"/>
	</g>
	
    </g>
</svg>
