<?xml version="1.0" encoding="iso-8859-1"?>
<!DOCTYPE svg PUBLIC "-//W3C//DTD SVG 1.1//EN" "http://www.w3.org/Graphics/SVG/1.1/DTD/svg11.dtd">
<svg version="1.1" xmlns="http://www.w3.org/2000/svg" xmlns:xlink="http://www.w3.org/1999/xlink" x="0px" y="0px" width="30" height="30" viewBox="0 0 30 30" xml:space="preserve">
    <g transform="translate(-450 -320)">
        <g xmlns="http://www.w3.org/2000/svg" xmlns:xlink="http://www.w3.org/1999/xlink" id="money-bag-yen-7">
		<path d="M457,348c0.639,0,1.203-0.306,1.568-0.774c1.668,0.589,3.854,0.774,6.432,0.774c2.576,0,4.762-0.185,6.43-0.774    c0.367,0.468,0.93,0.774,1.57,0.774c1.104,0,2-0.895,2-2c0-0.517-0.201-0.983-0.523-1.338c0.336-0.729,0.523-1.601,0.523-2.662    c0-9-8-10-8-14h1v-1h-1l1-4h-3l-0.444,1.778L464,322h-2l1,5h-1v1h1c0,4-8,5-8,14c0,1.061,0.186,1.932,0.523,2.662    C455.201,345.017,455,345.483,455,346C455,347.105,455.895,348,457,348z M456.432,344.242C456.141,343.614,456,342.88,456,342    c0-4.946,2.572-7.197,4.842-9.184c1.346-1.176,2.627-2.299,3.029-3.816h2.258c0.4,1.518,1.684,2.64,3.027,3.816    c2.271,1.986,4.844,4.237,4.844,9.184c0,0.88-0.141,1.614-0.432,2.242l-0.277,0.601l0.445,0.491    c0.119,0.132,0.264,0.355,0.264,0.666c0,0.551-0.449,1-1,1c-0.303,0-0.588-0.142-0.783-0.39l-0.441-0.566l-0.678,0.239    C469.713,346.772,467.775,347,465,347c-2.777,0-4.715-0.228-6.098-0.717l-0.678-0.239l-0.443,0.566    c-0.193,0.248-0.479,0.39-0.781,0.39c-0.553,0-1-0.449-1-1c0-0.311,0.143-0.534,0.264-0.666l0.445-0.491L456.432,344.242z"/>
		<polygon points="464.295,345 465.693,345 465.693,342.159 469,342.159 469,340.729 465.693,340.729 468.977,336 467.252,336     465.006,339.252 462.734,336 461.012,336 464.295,340.729 461,340.729 461,342.159 464.295,342.159   "/>
	</g>
	
    </g>
</svg>
