<?xml version="1.0" encoding="iso-8859-1"?>
<!DOCTYPE svg PUBLIC "-//W3C//DTD SVG 1.1//EN" "http://www.w3.org/Graphics/SVG/1.1/DTD/svg11.dtd">
<svg version="1.1" xmlns="http://www.w3.org/2000/svg" xmlns:xlink="http://www.w3.org/1999/xlink" x="0px" y="0px" width="29" height="30" viewBox="0 0 29 30" xml:space="preserve">
    <g transform="translate(-570 -320)">
        <g xmlns="http://www.w3.org/2000/svg" xmlns:xlink="http://www.w3.org/1999/xlink" id="money-sign-7">
		<path d="M581.77,339.713c-0.569-0.59-0.859-1.621-0.873-2.713h-1.266c0,1.426,0.438,2.704,1.154,3.438    c0.683,0.699,1.762,1.119,3.215,1.277V344h1v-2.236c0.586,0,1.156-0.078,1.709-0.234c0.555-0.156,1.051-0.395,1.486-0.716    c0.436-0.319,0.781-0.714,1.045-1.185c0.26-0.471,0.391-1.013,0.391-1.627c0-0.653-0.135-1.199-0.401-1.639    c-0.269-0.438-0.62-0.802-1.054-1.091c-0.436-0.288-0.932-0.514-1.487-0.678c-0.553-0.162-1.116-0.3-1.688-0.411v-5.422    c0.881,0.002,1.593,0.281,2.141,0.837c0.549,0.559,0.846,1.461,0.859,2.401h1.248c0.016-0.614-0.088-1.326-0.311-1.826    c-0.221-0.502-0.527-0.932-0.922-1.289c-0.396-0.357-0.854-0.634-1.377-0.829c-0.521-0.193-1.066-0.29-1.639-0.29V326h-1v1.78    c-0.509,0.019-0.991,0.09-1.438,0.238c-0.508,0.169-0.953,0.413-1.336,0.733c-0.381,0.32-0.682,0.706-0.902,1.157    c-0.221,0.452-0.332,0.96-0.332,1.525c0,0.663,0.115,1.21,0.342,1.636c0.227,0.428,0.531,0.778,0.914,1.055    c0.381,0.275,0.83,0.495,1.344,0.657c0.45,0.143,0.924,0.257,1.408,0.361v5.587C583.049,340.595,582.299,340.262,581.77,339.713z     M585,335.35c0.386,0.087,0.777,0.194,1.178,0.318c0.4,0.125,0.762,0.285,1.082,0.479c0.322,0.196,0.586,0.443,0.794,0.744    s0.312,0.678,0.312,1.129c0,0.49-0.096,0.907-0.291,1.251c-0.193,0.346-0.449,0.632-0.764,0.856    c-0.314,0.227-0.672,0.389-1.074,0.49c-0.399,0.1-0.812,0.148-1.236,0.148V335.35z M583.115,333.729    c-0.355-0.101-0.67-0.238-0.945-0.413c-0.273-0.177-0.494-0.402-0.661-0.679c-0.168-0.275-0.251-0.634-0.251-1.072    c0-0.489,0.076-0.912,0.23-1.271c0.154-0.357,0.369-0.648,0.643-0.875c0.273-0.226,0.588-0.391,0.943-0.499    c0.291-0.087,0.604-0.13,0.926-0.146v5.183C583.699,333.885,583.402,333.811,583.115,333.729z"/>
		<path d="M584.5,347.5c6.903,0,12.5-5.597,12.5-12.5s-5.597-12.5-12.5-12.5S572,328.097,572,335S577.597,347.5,584.5,347.5z     M584.5,323.5c6.341,0,11.5,5.158,11.5,11.5s-5.159,11.5-11.5,11.5S573,341.342,573,335S578.159,323.5,584.5,323.5z"/>
	</g>
	
    </g>
</svg>
