<?xml version="1.0" encoding="iso-8859-1"?>
<!DOCTYPE svg PUBLIC "-//W3C//DTD SVG 1.1//EN" "http://www.w3.org/Graphics/SVG/1.1/DTD/svg11.dtd">
<svg version="1.1" xmlns="http://www.w3.org/2000/svg" xmlns:xlink="http://www.w3.org/1999/xlink" x="0px" y="0px" width="30" height="30" viewBox="0 0 30 30" xml:space="preserve">
    <g transform="translate(-330 -320)">
        <g xmlns="http://www.w3.org/2000/svg" xmlns:xlink="http://www.w3.org/1999/xlink" id="money-bag-pound-7">
		<path d="M337,348c0.639,0,1.203-0.306,1.568-0.774c1.668,0.589,3.854,0.774,6.432,0.774c2.576,0,4.762-0.185,6.43-0.774    c0.367,0.468,0.93,0.774,1.57,0.774c1.104,0,2-0.895,2-2c0-0.517-0.201-0.983-0.523-1.338c0.336-0.729,0.523-1.601,0.523-2.662    c0-9-8-10-8-14h1v-1h-1l1-4h-3l-0.444,1.778L344,322h-2l1,5h-1v1h1c0,4-8,5-8,14c0,1.061,0.186,1.932,0.523,2.662    C335.201,345.017,335,345.483,335,346C335,347.105,335.895,348,337,348z M336.432,344.242C336.141,343.614,336,342.88,336,342    c0-4.946,2.572-7.197,4.842-9.184c1.346-1.176,2.627-2.299,3.029-3.816h2.258c0.4,1.518,1.684,2.64,3.027,3.816    c2.271,1.986,4.844,4.237,4.844,9.184c0,0.88-0.141,1.614-0.432,2.242l-0.277,0.601l0.445,0.491    c0.119,0.132,0.264,0.355,0.264,0.666c0,0.551-0.449,1-1,1c-0.303,0-0.588-0.142-0.783-0.39l-0.441-0.566l-0.678,0.239    C349.713,346.772,347.775,347,345,347c-2.777,0-4.715-0.228-6.098-0.717l-0.678-0.239l-0.443,0.566    c-0.193,0.248-0.479,0.39-0.781,0.39c-0.553,0-1-0.449-1-1c0-0.311,0.143-0.534,0.264-0.666l0.445-0.491L336.432,344.242z"/>
		<path d="M349,342.684h-5.275c0.559-0.42,0.863-1.016,0.912-1.787v-1.034h2.135v-1.33h-2.229v-1.102    c-0.012-0.304,0.098-0.573,0.332-0.806c0.236-0.233,0.588-0.354,1.059-0.363c0.723,0.019,1.188,0.233,1.391,0.646l1.658-0.591    c-0.572-0.851-1.596-1.29-3.068-1.316c-1.066,0.009-1.885,0.269-2.457,0.779c-0.572,0.511-0.863,1.133-0.877,1.868v0.887h-0.799    v1.33h0.799v0.725c-0.051,0.815-0.508,1.514-1.371,2.096H341V344h8V342.684z"/>
	</g>
	
    </g>
</svg>
