<?xml version="1.0" encoding="iso-8859-1"?>
<!DOCTYPE svg PUBLIC "-//W3C//DTD SVG 1.1//EN" "http://www.w3.org/Graphics/SVG/1.1/DTD/svg11.dtd">
<svg version="1.1" xmlns="http://www.w3.org/2000/svg" xmlns:xlink="http://www.w3.org/1999/xlink" x="0px" y="0px" width="30" height="30" viewBox="0 0 30 30" xml:space="preserve">
    <g transform="translate(-150 -320)">
        <g xmlns="http://www.w3.org/2000/svg" xmlns:xlink="http://www.w3.org/1999/xlink" id="money-bag-minus-7">
		<path d="M162.916,338.689c-0.611-0.465-1.595-0.779-2.95-0.94c-0.571-0.062-0.988-0.166-1.251-0.312    c-0.264-0.146-0.395-0.311-0.395-0.496c-0.012-0.254,0.128-0.473,0.419-0.657c0.292-0.185,0.655-0.277,1.093-0.277    c0.75,0.008,1.305,0.238,1.663,0.692l1.495-0.519c-0.525-0.68-1.268-1.1-2.218-1.271V334h-1.529v0.859    c-0.712,0.082-1.308,0.306-1.78,0.681c-0.604,0.48-0.896,1.005-0.874,1.574c0,0.477,0.285,0.887,0.857,1.229    c0.571,0.342,1.395,0.567,2.47,0.675c0.796,0.1,1.35,0.267,1.664,0.501c0.313,0.235,0.465,0.471,0.453,0.709    c0,0.354-0.196,0.664-0.589,0.929c-0.392,0.266-0.856,0.394-1.394,0.387c-0.931,0-1.658-0.373-2.185-1.119l-1.697,0.588    c0.706,0.995,1.743,1.552,3.074,1.722V344h1.529v-1.234c0.758-0.094,1.415-0.333,1.967-0.721c0.728-0.512,1.092-1.098,1.092-1.759    C163.831,339.687,163.525,339.154,162.916,338.689z"/>
		<path d="M172.5,335c-1.473,0-2.841,0.43-4,1.163c-2.313-3.929-6.5-5.266-6.5-8.163h1v-1h-1l1-4h-3l-0.444,1.778L159,322h-2l1,5h-1    v1h1c0,4-8,5-8,14c0,1.061,0.187,1.932,0.523,2.662C150.201,345.017,150,345.483,150,346c0,1.105,0.896,2,2,2    c0.64,0,1.203-0.306,1.569-0.774c1.668,0.589,3.854,0.774,6.431,0.774s4.762-0.185,6.43-0.774c0.209,0.266,0.484,0.47,0.797,0.604    c1.355,1.34,3.217,2.169,5.273,2.169c4.143,0,7.5-3.358,7.5-7.5S176.643,335,172.5,335z M153.902,346.283l-0.678-0.239    l-0.442,0.566c-0.194,0.248-0.479,0.39-0.782,0.39c-0.552,0-1-0.449-1-1c0-0.311,0.144-0.534,0.264-0.666l0.445-0.491    l-0.277-0.601C151.141,343.614,151,342.88,151,342c0-4.946,2.572-7.197,4.843-9.184c1.345-1.176,2.627-2.299,3.028-3.816h2.258    c0.401,1.518,1.684,2.64,3.028,3.816c1.249,1.093,2.587,2.268,3.54,3.925c-1.647,1.376-2.697,3.444-2.697,5.758    c0,1.389,0.385,2.685,1.043,3.801C164.661,346.777,162.741,347,160,347C157.224,347,155.286,346.772,153.902,346.283z M172.5,349    c-3.59,0-6.5-2.91-6.5-6.5s2.91-6.5,6.5-6.5s6.5,2.91,6.5,6.5S176.09,349,172.5,349z"/>
		<rect x="168" y="342" width="9" height="1"/>
	</g>
	
    </g>
</svg>
