<?xml version="1.0" encoding="iso-8859-1"?>
<!DOCTYPE svg PUBLIC "-//W3C//DTD SVG 1.1//EN" "http://www.w3.org/Graphics/SVG/1.1/DTD/svg11.dtd">
<svg version="1.1" xmlns="http://www.w3.org/2000/svg" xmlns:xlink="http://www.w3.org/1999/xlink" x="0px" y="0px" width="30" height="30" viewBox="0 0 30 30" xml:space="preserve">
    <g transform="translate(-30 -260)">
        <g xmlns="http://www.w3.org/2000/svg" xmlns:xlink="http://www.w3.org/1999/xlink" id="money-7">
		<path d="M58,270h-7v-1h6v-1h-6.25l-0.25-1H56v-1h-5.75L50,265H40l-0.25,1H34v1h5.5l-0.25,1H33v1h6v1h-7v14h7v1h12v-1h7V270z     M40.781,266h8.438l0.75,3h-9.938L40.781,266z M34.908,283c0.056-0.157,0.092-0.324,0.092-0.5c0-0.828-0.672-1.5-1.5-1.5    c-0.176,0-0.343,0.036-0.5,0.092v-8.184c0.157,0.056,0.324,0.092,0.5,0.092c0.828,0,1.5-0.672,1.5-1.5    c0-0.176-0.036-0.343-0.092-0.5H39v12H34.908z M40,284v-14h10v14H40z M51,271h4.092c-0.056,0.157-0.092,0.324-0.092,0.5    c0,0.828,0.672,1.5,1.5,1.5c0.176,0,0.343-0.036,0.5-0.092v8.184c-0.157-0.056-0.324-0.092-0.5-0.092c-0.828,0-1.5,0.672-1.5,1.5    c0,0.176,0.036,0.343,0.092,0.5H51V271z"/>
		<path d="M41.713,278.469c-0.148,0.783-0.063,1.396,0.257,1.839c0.321,0.442,0.844,0.701,1.568,0.775L43.292,282h0.615l0.246-0.917    c0.365-0.028,0.713-0.104,1.043-0.223c0.329-0.119,0.631-0.281,0.9-0.486c0.272-0.205,0.507-0.449,0.706-0.732    s0.347-0.606,0.444-0.972c0.091-0.343,0.104-0.637,0.041-0.883c-0.064-0.245-0.168-0.45-0.312-0.614    c-0.143-0.164-0.301-0.292-0.477-0.386s-0.334-0.158-0.474-0.195l-0.622-0.179l0.738-2.748c0.65,0.126,0.951,0.559,0.902,1.296    h0.951c0.025-0.655-0.092-1.169-0.348-1.542c-0.258-0.373-0.678-0.596-1.262-0.671L46.586,272h-0.615l-0.196,0.737    c-0.325,0.022-0.645,0.093-0.957,0.212c-0.312,0.119-0.597,0.281-0.855,0.486c-0.26,0.205-0.487,0.447-0.68,0.727    c-0.194,0.279-0.337,0.586-0.427,0.921c-0.088,0.329-0.117,0.607-0.089,0.838c0.026,0.231,0.115,0.427,0.261,0.587    c0.146,0.16,0.349,0.297,0.605,0.413c0.255,0.115,0.567,0.222,0.936,0.318l-0.793,2.961c-0.428-0.075-0.75-0.257-0.966-0.547    c-0.218-0.291-0.264-0.686-0.146-1.185H41.713z M44.368,276.067c-0.139-0.067-0.253-0.147-0.342-0.241    c-0.093-0.092-0.151-0.208-0.176-0.346c-0.026-0.138-0.015-0.304,0.038-0.498c0.113-0.424,0.324-0.747,0.633-0.966    c0.309-0.22,0.646-0.349,1.014-0.386l-0.7,2.615C44.662,276.194,44.506,276.134,44.368,276.067z M45.141,277.396    c0.185,0.06,0.357,0.125,0.518,0.195c0.159,0.071,0.289,0.159,0.388,0.263s0.166,0.229,0.201,0.374    c0.035,0.146,0.024,0.326-0.033,0.543c-0.064,0.238-0.155,0.444-0.272,0.619c-0.115,0.175-0.257,0.32-0.418,0.436    s-0.337,0.203-0.529,0.262c-0.191,0.061-0.392,0.098-0.604,0.112L45.141,277.396z"/>
	</g>
	
    </g>
</svg>
