<?xml version="1.0" encoding="iso-8859-1"?>
<!DOCTYPE svg PUBLIC "-//W3C//DTD SVG 1.1//EN" "http://www.w3.org/Graphics/SVG/1.1/DTD/svg11.dtd">
<svg version="1.1" xmlns="http://www.w3.org/2000/svg" xmlns:xlink="http://www.w3.org/1999/xlink" x="0px" y="0px" width="30" height="30" viewBox="0 0 30 30" xml:space="preserve">
    <g transform="translate(-270 -320)">
        <g xmlns="http://www.w3.org/2000/svg" xmlns:xlink="http://www.w3.org/1999/xlink" id="money-bag-off-7">
		<path d="M277,348c0.64,0,1.203-0.306,1.569-0.774c1.668,0.589,3.854,0.774,6.431,0.774s4.762-0.185,6.43-0.774    c0.367,0.468,0.93,0.774,1.57,0.774c0.975,0,1.785-0.699,1.962-1.624l-1.628-1.627l-0.043,0.095l0.445,0.491    c0.119,0.132,0.264,0.355,0.264,0.666c0,0.551-0.449,1-1,1c-0.303,0-0.588-0.142-0.783-0.39l-0.441-0.566l-0.678,0.239    C289.713,346.772,287.776,347,285,347s-4.714-0.228-6.098-0.717l-0.678-0.239l-0.442,0.566c-0.194,0.248-0.479,0.39-0.782,0.39    c-0.552,0-1-0.449-1-1c0-0.311,0.144-0.534,0.264-0.666l0.445-0.491l-0.277-0.601C276.141,343.614,276,342.88,276,342    c0-4.946,2.572-7.197,4.843-9.184c0.101-0.087,0.198-0.175,0.298-0.262l-0.709-0.708C278.093,333.901,275,336.403,275,342    c0,1.061,0.187,1.932,0.523,2.662C275.201,345.017,275,345.483,275,346C275,347.105,275.896,348,277,348z"/>
		<path d="M284.966,337.749c-0.571-0.062-0.988-0.166-1.251-0.312c-0.264-0.146-0.395-0.311-0.395-0.496    c-0.012-0.254,0.128-0.473,0.419-0.657c0.24-0.152,0.541-0.225,0.879-0.252l-1.045-1.045c-0.423,0.12-0.795,0.302-1.11,0.553    c-0.604,0.48-0.896,1.005-0.874,1.574c0,0.477,0.285,0.887,0.857,1.229c0.571,0.342,1.395,0.567,2.47,0.675    c0.796,0.1,1.35,0.267,1.664,0.501c0.313,0.235,0.465,0.471,0.453,0.709c0,0.354-0.196,0.664-0.589,0.929    c-0.392,0.266-0.856,0.394-1.394,0.387c-0.931,0-1.658-0.373-2.185-1.119l-1.697,0.588c0.706,0.995,1.743,1.552,3.074,1.722V344    h1.529v-1.234c0.758-0.094,1.415-0.333,1.967-0.721c0.728-0.512,1.092-1.098,1.092-1.759c0-0.016-0.006-0.031-0.007-0.048    l-2.144-2.144C286.197,337.944,285.627,337.828,284.966,337.749z"/>
		<path d="M297.729,347.728l0.707-0.707l-3.57-3.57c0.088-0.44,0.135-0.922,0.135-1.451c0-9-8-10-8-14h1v-1h-1l1-4h-3l-0.444,1.778    L284,322h-2l1,5h-1v1h1c0,0.938-0.45,1.711-1.125,2.461l-8.896-8.896l-0.707,0.707L297.729,347.728z M283.871,329h2.258    c0.401,1.518,1.684,2.64,3.028,3.816c2.271,1.986,4.843,4.237,4.843,9.184c0,0.195-0.033,0.357-0.047,0.539l-6.257-6.256    l0.294-0.102c-0.372-0.482-0.861-0.824-1.446-1.05l-0.771-0.771V334h-0.358l-2.829-2.829    C283.182,330.515,283.656,329.815,283.871,329z"/>
	</g>
	
    </g>
</svg>
