<?xml version="1.0" encoding="iso-8859-1"?>
<!DOCTYPE svg PUBLIC "-//W3C//DTD SVG 1.1//EN" "http://www.w3.org/Graphics/SVG/1.1/DTD/svg11.dtd">
<svg version="1.1" xmlns="http://www.w3.org/2000/svg" xmlns:xlink="http://www.w3.org/1999/xlink" x="0px" y="0px" width="30" height="30" viewBox="0 0 30 30" xml:space="preserve">
    <g transform="translate(-270 -260)">
        <g xmlns="http://www.w3.org/2000/svg" xmlns:xlink="http://www.w3.org/1999/xlink" id="money-off-7">
		<path d="M291,283v-0.586l-1-1V284h-10v-12.586L278.586,270H272v14h7v1h12v-1h1.586l-1-1H291z M274.908,283    c0.056-0.157,0.092-0.324,0.092-0.5c0-0.828-0.672-1.5-1.5-1.5c-0.176,0-0.343,0.036-0.5,0.092v-8.184    c0.157,0.056,0.324,0.092,0.5,0.092c0.828,0,1.5-0.672,1.5-1.5c0-0.176-0.036-0.343-0.092-0.5H279v12H274.908z"/>
		<polygon points="273,268 273,269 277.586,269 276.586,268   "/>
		<polygon points="274,266 274,267 275.586,267 274.586,266   "/>
		<path d="M284.368,276.067c-0.139-0.067-0.253-0.147-0.342-0.241c-0.093-0.092-0.151-0.208-0.176-0.346    c-0.013-0.068-0.017-0.144-0.011-0.227l-0.752-0.752c-0.096,0.185-0.178,0.376-0.232,0.582c-0.088,0.329-0.117,0.607-0.089,0.838    c0.026,0.231,0.115,0.427,0.261,0.587c0.146,0.16,0.349,0.297,0.605,0.413c0.255,0.115,0.567,0.222,0.936,0.318l-0.793,2.961    c-0.428-0.075-0.75-0.257-0.966-0.547c-0.218-0.291-0.264-0.686-0.146-1.185h-0.951c-0.148,0.783-0.063,1.396,0.257,1.839    c0.321,0.442,0.844,0.701,1.568,0.775L283.292,282h0.615l0.246-0.917c0.365-0.028,0.713-0.104,1.043-0.223    c0.329-0.119,0.631-0.281,0.9-0.486c0.272-0.205,0.507-0.449,0.706-0.732s0.347-0.606,0.444-0.972    c0.001-0.003,0.001-0.005,0.001-0.008l-2.418-2.418C284.659,276.192,284.504,276.133,284.368,276.067z M286.046,277.855    c0.099,0.104,0.166,0.229,0.201,0.374c0.035,0.146,0.024,0.326-0.033,0.543c-0.064,0.238-0.155,0.444-0.272,0.619    c-0.115,0.175-0.257,0.32-0.418,0.436s-0.337,0.203-0.529,0.262c-0.191,0.061-0.392,0.098-0.604,0.112l0.75-2.805    c0.185,0.06,0.357,0.125,0.518,0.195C285.817,277.663,285.947,277.751,286.046,277.855z"/>
		<path d="M295.414,284H298v-14h-7v-1h6v-1h-6.25l-0.25-1h5.5v-1h-5.75l-0.25-1h-10l-0.25,1h-2.336l-4.436-4.435l-0.707,0.707    l25.457,25.456l0.707-0.707L295.414,284z M289.219,266l0.75,3h-9.555l-0.307-0.306l0.674-2.694H289.219z M279.5,267l-0.217,0.869    L278.414,267H279.5z M285.139,273.725c0.129-0.04,0.259-0.08,0.396-0.094l-0.104,0.387L285.139,273.725z M285.918,274.503    l0.225-0.838c0.65,0.126,0.951,0.559,0.902,1.296h0.951c0.025-0.655-0.092-1.169-0.348-1.542    c-0.258-0.373-0.678-0.596-1.262-0.671l0.199-0.748h-0.615l-0.196,0.737c-0.325,0.022-0.645,0.093-0.957,0.212    c-0.107,0.041-0.207,0.094-0.309,0.146L281.414,270H290v8.586L285.918,274.503z M291,279.586V271h4.092    c-0.056,0.157-0.092,0.324-0.092,0.5c0,0.828,0.672,1.5,1.5,1.5c0.176,0,0.343-0.036,0.5-0.092v8.184    c-0.157-0.056-0.324-0.092-0.5-0.092c-0.828,0-1.5,0.672-1.5,1.5c0,0.176,0.036,0.343,0.092,0.5h-0.678L291,279.586z"/>
	</g>
	
    </g>
</svg>
