<?xml version="1.0" encoding="iso-8859-1"?>
<!DOCTYPE svg PUBLIC "-//W3C//DTD SVG 1.1//EN" "http://www.w3.org/Graphics/SVG/1.1/DTD/svg11.dtd">
<svg version="1.1" xmlns="http://www.w3.org/2000/svg" xmlns:xlink="http://www.w3.org/1999/xlink" x="0px" y="0px" width="30" height="30" viewBox="0 0 30 30" xml:space="preserve">
    <g transform="translate(-510 -320)">
        <g xmlns="http://www.w3.org/2000/svg" xmlns:xlink="http://www.w3.org/1999/xlink" id="money-rotate-7">
		<path d="M520.65,337.057c-0.21,1.096-0.09,1.953,0.359,2.575c0.449,0.619,1.18,0.982,2.195,1.086L522.861,342h0.86l0.343-1.282    c0.514-0.041,0.999-0.146,1.461-0.313c0.462-0.166,0.882-0.393,1.262-0.681c0.379-0.286,0.709-0.627,0.986-1.024    c0.277-0.396,0.485-0.85,0.623-1.36c0.128-0.479,0.147-0.892,0.057-1.234c-0.09-0.346-0.235-0.632-0.434-0.861    c-0.199-0.229-0.423-0.41-0.669-0.54c-0.247-0.13-0.468-0.221-0.661-0.273l-0.872-0.251l1.031-3.848    c0.911,0.178,1.333,0.783,1.267,1.814h1.329c0.036-0.917-0.125-1.637-0.485-2.159c-0.361-0.521-0.95-0.833-1.768-0.937l0.281-1.05    h-0.859l-0.277,1.032c-0.457,0.031-0.903,0.132-1.339,0.298c-0.436,0.167-0.836,0.394-1.198,0.68    c-0.364,0.288-0.682,0.626-0.953,1.018c-0.272,0.391-0.471,0.82-0.598,1.29c-0.122,0.46-0.164,0.851-0.126,1.175    c0.039,0.322,0.161,0.596,0.367,0.821c0.206,0.224,0.487,0.416,0.846,0.577c0.357,0.161,0.795,0.311,1.312,0.447l-1.11,4.144    c-0.598-0.104-1.048-0.359-1.351-0.766c-0.304-0.407-0.371-0.96-0.205-1.659H520.65z M524.367,333.694    c-0.193-0.093-0.354-0.205-0.48-0.337c-0.127-0.13-0.209-0.291-0.246-0.484c-0.037-0.192-0.019-0.426,0.055-0.696    c0.158-0.595,0.455-1.045,0.886-1.354c0.432-0.307,0.905-0.486,1.419-0.538l-0.98,3.659    C524.779,333.872,524.561,333.788,524.367,333.694z M525.448,335.557c0.26,0.083,0.501,0.174,0.726,0.273    c0.223,0.099,0.402,0.222,0.541,0.366c0.139,0.146,0.232,0.321,0.283,0.524c0.049,0.204,0.034,0.456-0.047,0.759    c-0.09,0.334-0.217,0.624-0.381,0.868c-0.166,0.245-0.361,0.448-0.586,0.61c-0.227,0.161-0.473,0.284-0.74,0.367    c-0.268,0.084-0.551,0.136-0.848,0.156L525.448,335.557z"/>
		<path d="M534.316,338.883l-0.467,4.964l4.532-2.079l-1.654-1.174c2.34-4.916,1.347-10.904-2.535-14.786    c-4.587-4.587-11.769-5.008-16.851-1.294l0.715,0.715c4.684-3.33,11.232-2.91,15.429,1.286c3.542,3.542,4.481,8.986,2.417,13.493    L534.316,338.883z"/>
		<path d="M515.982,344.368c4.587,4.586,11.77,5.008,16.851,1.293l-0.714-0.714c-4.684,3.33-11.232,2.91-15.43-1.286    c-3.542-3.543-4.48-8.987-2.416-13.493l1.586,1.125l0.467-4.965l-4.533,2.079l1.655,1.174    C511.107,334.497,512.101,340.485,515.982,344.368z"/>
	</g>
	
    </g>
</svg>
