<?xml version="1.0" encoding="iso-8859-1"?>
<!DOCTYPE svg PUBLIC "-//W3C//DTD SVG 1.1//EN" "http://www.w3.org/Graphics/SVG/1.1/DTD/svg11.dtd">
<svg version="1.1" xmlns="http://www.w3.org/2000/svg" xmlns:xlink="http://www.w3.org/1999/xlink" x="0px" y="0px" width="29" height="30" viewBox="0 0 29 30" xml:space="preserve">
    <g transform="translate(-150 -680)">
        <g xmlns="http://www.w3.org/2000/svg" xmlns:xlink="http://www.w3.org/1999/xlink" id="new-sign-7">
		<polygon points="166,702 163,702 163,700 166,700 166,699 163,699 163,697 166,697 166,696 162,696 162,703 166,703   "/>
		<path d="M166.617,684.816c0.238-0.383,0.383-0.832,0.383-1.316c0-1.38-1.119-2.5-2.5-2.5s-2.5,1.12-2.5,2.5    c0,0.484,0.145,0.934,0.383,1.316L154.801,692H152v15h25v-15h-2.801L166.617,684.816z M163,683.5c0-0.827,0.673-1.5,1.5-1.5    s1.5,0.673,1.5,1.5s-0.673,1.5-1.5,1.5S163,684.327,163,683.5z M163.068,685.545c0.406,0.285,0.898,0.455,1.432,0.455    s1.025-0.17,1.432-0.455l6.813,6.455h-16.49L163.068,685.545z M176,706h-23v-13h23V706z"/>
		<polygon points="158,698.081 159.64,703 160,703 160.5,703 161,703 161,696 160,696 160,700.919 158.36,696 158,696 157.5,696     157,696 157,703 158,703   "/>
		<polygon points="168,703 168.823,703 169.5,698.94 170.177,703 171,703 171.5,703 172,703 172,696 171,696 171,701.859     170.023,696 168.977,696 168,701.859 168,696 167,696 167,703 167.5,703   "/>
	</g>
	
    </g>
</svg>
