<?xml version="1.0" encoding="iso-8859-1"?>
<!DOCTYPE svg PUBLIC "-//W3C//DTD SVG 1.1//EN" "http://www.w3.org/Graphics/SVG/1.1/DTD/svg11.dtd">
<svg version="1.1" xmlns="http://www.w3.org/2000/svg" xmlns:xlink="http://www.w3.org/1999/xlink" x="0px" y="0px" width="29" height="30" viewBox="0 0 29 30" xml:space="preserve">
    <g transform="translate(-330 -680)">
        <g xmlns="http://www.w3.org/2000/svg" xmlns:xlink="http://www.w3.org/1999/xlink" id="new-seal-7">
		<path d="M333.389,697.479l-0.582,3.773l3.562,1.38l1.38,3.561l3.773-0.581L344.5,708l2.979-2.389l3.773,0.581l1.38-3.561    l3.561-1.38l-0.581-3.773L358,694.5l-2.389-2.979l0.582-3.773l-3.562-1.38l-1.38-3.561l-3.773,0.581L344.5,681l-2.979,2.389    l-3.773-0.581l-1.38,3.561l-3.561,1.38l0.581,3.773L331,694.5L333.389,697.479z M333.918,688.39l3.223-1.249l1.25-3.223    l3.414,0.526l2.695-2.162l2.695,2.162l3.414-0.526l1.25,3.223l3.223,1.249l-0.526,3.414l2.163,2.696l-2.163,2.696l0.526,3.414    l-3.223,1.249l-1.25,3.223l-3.414-0.526l-2.695,2.162l-2.695-2.162l-3.414,0.526l-1.25-3.223l-3.223-1.249l0.526-3.414    l-2.163-2.696l2.163-2.696L333.918,688.39z"/>
		<polygon points="346,696 343,696 343,694 346,694 346,693 343,693 343,691 346,691 346,690 342,690 342,697 346,697   "/>
		<polygon points="338,692.081 339.64,697 340,697 340.5,697 341,697 341,690 340,690 340,694.919 338.36,690 338,690 337.5,690     337,690 337,697 338,697   "/>
		<polygon points="349.5,692.94 350.177,697 352,697 352,690 351,690 351,695.859 350.023,690 348.977,690 348,695.859 348,690     347,690 347,697 348.823,697   "/>
		<rect x="337" y="699" width="15" height="1"/>
	</g>
	
    </g>
</svg>
