<?xml version="1.0" encoding="iso-8859-1"?>
<!DOCTYPE svg PUBLIC "-//W3C//DTD SVG 1.1//EN" "http://www.w3.org/Graphics/SVG/1.1/DTD/svg11.dtd">
<svg version="1.1" xmlns="http://www.w3.org/2000/svg" xmlns:xlink="http://www.w3.org/1999/xlink" x="0px" y="0px" width="29" height="30" viewBox="0 0 29 30" xml:space="preserve">
    <g transform="translate(-150 -500)">
        <g xmlns="http://www.w3.org/2000/svg" xmlns:xlink="http://www.w3.org/1999/xlink" id="note-standard-7">
		<path d="M158,502v2h-4v24h21v-24h-4v-2h-1v2h-3v-2h-1v2h-3v-2h-1v2h-3v-2H158z M162,505v1h1v-1h3v1h1v-1h3v1h1v-1h3v22h-19v-22h3    v1h1v-1H162z"/>
		<rect x="158" y="510" width="13" height="1"/>
		<rect x="158" y="514" width="13" height="1"/>
		<rect x="158" y="518" width="13" height="1"/>
		<rect x="158" y="522" width="6" height="1"/>
	</g>
	
    </g>
</svg>
