<?xml version="1.0" encoding="iso-8859-1"?>
<!DOCTYPE svg PUBLIC "-//W3C//DTD SVG 1.1//EN" "http://www.w3.org/Graphics/SVG/1.1/DTD/svg11.dtd">
<svg version="1.1" xmlns="http://www.w3.org/2000/svg" xmlns:xlink="http://www.w3.org/1999/xlink" x="0px" y="0px" width="29" height="30" viewBox="0 0 29 30" xml:space="preserve">
    <g transform="translate(-30 -680)">
        <g xmlns="http://www.w3.org/2000/svg" xmlns:xlink="http://www.w3.org/1999/xlink" id="open-sign-7">
		<polygon points="49,702 46,702 46,700 49,700 49,699 46,699 46,697 49,697 49,696 45,696 45,703 49,703   "/>
		<path d="M41,700h3v-4h-4v7h1V700z M41,697h2v2h-2V697z"/>
		<path d="M46.617,684.816C46.855,684.434,47,683.984,47,683.5c0-1.38-1.119-2.5-2.5-2.5s-2.5,1.12-2.5,2.5    c0,0.484,0.145,0.934,0.383,1.316L34.801,692H32v15h25v-15h-2.801L46.617,684.816z M43,683.5c0-0.827,0.673-1.5,1.5-1.5    s1.5,0.673,1.5,1.5s-0.673,1.5-1.5,1.5S43,684.327,43,683.5z M43.068,685.545C43.475,685.83,43.967,686,44.5,686    s1.025-0.17,1.432-0.455L52.745,692h-16.49L43.068,685.545z M56,706H33v-13h23V706z"/>
		<polygon points="51,698.081 52.64,703 53,703 53.5,703 54,703 54,696 53,696 53,700.919 51.36,696 51,696 50.5,696 50,696 50,703     51,703   "/>
		<path d="M39,696h-4v7h4V696z M38,702h-2v-5h2V702z"/>
	</g>
	
    </g>
</svg>
