<?xml version="1.0" encoding="iso-8859-1"?>
<!DOCTYPE svg PUBLIC "-//W3C//DTD SVG 1.1//EN" "http://www.w3.org/Graphics/SVG/1.1/DTD/svg11.dtd">
<svg version="1.1" xmlns="http://www.w3.org/2000/svg" xmlns:xlink="http://www.w3.org/1999/xlink" x="0px" y="0px" width="30" height="30" viewBox="0 0 30 30" xml:space="preserve">
    <g transform="translate(-210 -80)">
        <g xmlns="http://www.w3.org/2000/svg" xmlns:xlink="http://www.w3.org/1999/xlink" id="paper-stack-7">
		<path d="M237,97h-2V83h-20v14h-2v10h24V97z M216,84h18v3h-18V84z M216,88h18v3h-18V88z M216,92h18v3h-18V92z M216,96h18v1h-5    c0,0.732-0.211,1.41-0.555,2h-6.891c-0.344-0.59-0.555-1.268-0.555-2h-5V96z M227.62,100c-0.703,0.615-1.612,1-2.62,1    s-1.917-0.385-2.62-1H227.62z M236,106h-22v-8h6.101c0.465,2.279,2.484,4,4.899,4s4.435-1.721,4.899-4H236V106z"/>
	</g>
	
    </g>
</svg>
