<?xml version="1.0" encoding="iso-8859-1"?>
<!DOCTYPE svg PUBLIC "-//W3C//DTD SVG 1.1//EN" "http://www.w3.org/Graphics/SVG/1.1/DTD/svg11.dtd">
<svg version="1.1" xmlns="http://www.w3.org/2000/svg" xmlns:xlink="http://www.w3.org/1999/xlink" x="0px" y="0px" width="30" height="30" viewBox="0 0 30 30" xml:space="preserve">
    <g transform="translate(-210 -620)">
        <g xmlns="http://www.w3.org/2000/svg" xmlns:xlink="http://www.w3.org/1999/xlink" id="percent-decor-7">
		<path d="M236.789,630.02c1.029-2.512-0.049-4.098-2.744-4.065c0.031-2.693-1.555-3.773-4.064-2.742    c-1.012-2.521-2.947-2.932-4.98-1.005c-2.031-1.927-3.967-1.516-4.979,1.005c-2.512-1.031-4.096,0.049-4.066,2.742    c-2.693-0.032-3.773,1.554-2.742,4.065c-2.52,1.01-2.932,2.946-1.006,4.979c-1.926,2.033-1.514,3.97,1.006,4.979    c-1.031,2.512,0.049,4.098,2.742,4.065c-0.029,2.693,1.555,3.773,4.066,2.742c1.012,2.521,2.947,2.933,4.979,1.005    c2.033,1.928,3.969,1.516,4.98-1.005c2.51,1.031,4.096-0.049,4.064-2.742c2.695,0.032,3.773-1.554,2.744-4.065    c2.52-1.01,2.93-2.946,1.006-4.979C239.719,632.966,239.309,631.029,236.789,630.02z M237.068,634.312l-0.65,0.688l0.65,0.688    c0.705,0.744,1.026,1.455,0.907,2c-0.114,0.522-0.668,1.007-1.559,1.363l-0.936,0.375l0.382,0.933    c0.366,0.893,0.41,1.618,0.124,2.045c-0.278,0.414-0.939,0.642-1.862,0.642h-1.012l-0.068,1.012    c0.01,0.833-0.166,1.475-0.494,1.807c-0.206,0.208-0.487,0.31-0.862,0.31c-0.38,0-0.827-0.104-1.328-0.311l-0.933-0.384    l-0.375,0.937c-0.291,0.723-0.804,1.585-1.601,1.585c-0.503,0-1.129-0.332-1.764-0.934L225,646.413l-0.688,0.652    c-0.634,0.602-1.26,0.934-1.763,0.934c-0.796,0-1.309-0.862-1.6-1.585l-0.375-0.936l-0.933,0.383    c-0.502,0.206-0.949,0.311-1.329,0.311c-0.375,0-0.656-0.102-0.862-0.31c-0.328-0.332-0.504-0.974-0.495-1.808l0.011-1.022    c0,0-1.024,0.012-1.025,0.012c-0.989,0-1.649-0.229-1.927-0.642c-0.286-0.427-0.242-1.152,0.124-2.044l0.383-0.933l-0.936-0.376    c-0.891-0.356-1.445-0.841-1.56-1.364c-0.119-0.545,0.203-1.255,0.907-1.999l0.651-0.688l-0.651-0.688    c-0.704-0.744-1.026-1.454-0.907-1.999c0.114-0.523,0.669-1.008,1.56-1.364l0.936-0.376l-0.383-0.933    c-0.366-0.892-0.41-1.617-0.124-2.043c0.277-0.415,0.938-0.643,1.861-0.643h1.011l0.069-1.011    c-0.009-0.834,0.167-1.476,0.495-1.808c0.206-0.208,0.488-0.31,0.862-0.31c0.38,0,0.827,0.104,1.329,0.311l0.933,0.383    l0.375-0.936c0.29-0.723,0.804-1.584,1.6-1.584c0.503,0,1.129,0.331,1.763,0.933l0.688,0.652l0.688-0.652    c0.636-0.602,1.263-0.933,1.766-0.933c0.796,0,1.31,0.861,1.6,1.584l0.375,0.937l0.933-0.384c0.501-0.206,0.948-0.311,1.328-0.311    c0.375,0,0.656,0.102,0.862,0.31c0.328,0.332,0.504,0.974,0.494,1.807l-0.012,1.023c0,0,1.025-0.012,1.026-0.012    c0.99,0,1.65,0.228,1.928,0.642c0.286,0.427,0.242,1.152-0.124,2.045l-0.382,0.933l0.936,0.375    c0.891,0.356,1.444,0.841,1.559,1.363C238.095,632.856,237.773,633.567,237.068,634.312z"/>
		<path d="M229.443,634.697c-0.234-0.143-0.561-0.215-0.98-0.215c-0.41,0-0.773,0.074-1.089,0.222    c-0.317,0.148-0.593,0.348-0.829,0.6c-0.236,0.251-0.434,0.54-0.592,0.867c-0.159,0.327-0.287,0.676-0.385,1.043    c-0.099,0.368-0.152,0.714-0.164,1.037c-0.01,0.323,0.039,0.604,0.145,0.841c0.106,0.238,0.279,0.427,0.518,0.565    c0.24,0.139,0.562,0.208,0.963,0.208c0.393,0,0.742-0.073,1.049-0.223c0.307-0.147,0.58-0.345,0.82-0.591    c0.239-0.247,0.441-0.535,0.604-0.862s0.291-0.666,0.384-1.016c0.098-0.367,0.158-0.716,0.178-1.043    c0.021-0.328-0.02-0.612-0.119-0.854C229.844,635.034,229.677,634.841,229.443,634.697z M229.021,636.534    c-0.039,0.229-0.085,0.441-0.138,0.64c-0.055,0.206-0.127,0.427-0.215,0.66c-0.09,0.232-0.202,0.445-0.338,0.638    c-0.137,0.194-0.296,0.354-0.481,0.479c-0.186,0.124-0.407,0.188-0.666,0.188c-0.249,0-0.431-0.065-0.544-0.195    c-0.112-0.13-0.184-0.292-0.211-0.484c-0.029-0.192-0.025-0.404,0.014-0.632c0.039-0.229,0.085-0.442,0.137-0.64    c0.055-0.206,0.127-0.424,0.214-0.653c0.089-0.229,0.2-0.438,0.336-0.633c0.136-0.192,0.298-0.354,0.483-0.484    c0.187-0.13,0.405-0.194,0.654-0.194c0.259,0,0.445,0.064,0.558,0.194c0.112,0.131,0.183,0.292,0.212,0.484    C229.064,636.096,229.059,636.306,229.021,636.534z"/>
		<path d="M220.602,635.363c0.239,0.14,0.56,0.209,0.961,0.209c0.393,0,0.742-0.076,1.051-0.229    c0.309-0.152,0.583-0.352,0.822-0.598c0.24-0.248,0.441-0.535,0.605-0.862c0.162-0.327,0.29-0.666,0.383-1.017    c0.098-0.367,0.158-0.715,0.178-1.043c0.021-0.327-0.02-0.612-0.12-0.854c-0.101-0.242-0.267-0.436-0.501-0.58    c-0.234-0.144-0.561-0.215-0.979-0.215c-0.411,0-0.774,0.074-1.091,0.223c-0.314,0.148-0.592,0.348-0.828,0.599    c-0.235,0.252-0.434,0.541-0.592,0.868c-0.159,0.327-0.287,0.675-0.385,1.043c-0.099,0.368-0.152,0.714-0.162,1.036    c-0.01,0.323,0.036,0.605,0.143,0.849C220.189,635.034,220.361,635.225,220.602,635.363z M220.979,633.52    c0.039-0.229,0.084-0.441,0.137-0.639c0.056-0.207,0.127-0.424,0.215-0.653c0.088-0.229,0.199-0.44,0.336-0.633    c0.136-0.192,0.297-0.354,0.482-0.484c0.188-0.13,0.404-0.194,0.654-0.194c0.258,0,0.445,0.064,0.558,0.194    c0.112,0.131,0.183,0.292,0.212,0.484s0.023,0.404-0.016,0.633c-0.038,0.229-0.084,0.441-0.135,0.639    c-0.056,0.207-0.128,0.428-0.217,0.661c-0.09,0.232-0.201,0.445-0.338,0.638c-0.137,0.193-0.297,0.354-0.482,0.478    c-0.185,0.126-0.406,0.188-0.664,0.188c-0.251,0-0.432-0.064-0.544-0.194s-0.184-0.292-0.213-0.484    C220.936,633.959,220.939,633.748,220.979,633.52z"/>
		<polygon points="219.5,640 220.651,640 230.5,630 229.362,630   "/>
	</g>
	
    </g>
</svg>
