<?xml version="1.0" encoding="iso-8859-1"?>
<!DOCTYPE svg PUBLIC "-//W3C//DTD SVG 1.1//EN" "http://www.w3.org/Graphics/SVG/1.1/DTD/svg11.dtd">
<svg version="1.1" xmlns="http://www.w3.org/2000/svg" xmlns:xlink="http://www.w3.org/1999/xlink" x="0px" y="0px" width="30" height="30" viewBox="0 0 30 30" xml:space="preserve">
    <g transform="translate(-150 -140)">
        <g xmlns="http://www.w3.org/2000/svg" xmlns:xlink="http://www.w3.org/1999/xlink" id="pie-chart-portion-7">
		<path d="M164,169c7.18,0,13-5.82,13-13h-13v-13c-7.18,0-13,5.82-13,13S156.82,169,164,169z M163,144.042V157h12.959    c-0.51,6.15-5.68,11-11.959,11c-6.617,0-12-5.383-12-12C152,149.72,156.85,144.551,163,144.042z"/>
		<path d="M166,141v13h13C179,146.82,173.18,141,166,141z M167,153v-10.958c5.82,0.482,10.477,5.138,10.959,10.958H167z"/>
	</g>
	
    </g>
</svg>
