<?xml version="1.0" encoding="iso-8859-1"?>
<!DOCTYPE svg PUBLIC "-//W3C//DTD SVG 1.1//EN" "http://www.w3.org/Graphics/SVG/1.1/DTD/svg11.dtd">
<svg version="1.1" xmlns="http://www.w3.org/2000/svg" xmlns:xlink="http://www.w3.org/1999/xlink" x="0px" y="0px" width="30" height="30" viewBox="0 0 30 30" xml:space="preserve">
    <g transform="translate(-30 -140)">
        <g xmlns="http://www.w3.org/2000/svg" xmlns:xlink="http://www.w3.org/1999/xlink" id="pie-chart-7">
		<path d="M45,168c4.77,0,8.928-2.576,11.189-6.406c0.17-0.287,0.327-0.581,0.475-0.881C57.512,158.986,58,157.053,58,155    c0-4.502-2.289-8.468-5.766-10.801c-0.277-0.186-0.564-0.355-0.855-0.52C49.493,142.615,47.32,142,45,142s-4.493,0.615-6.379,1.68    c-0.291,0.164-0.578,0.334-0.855,0.52C34.289,146.532,32,150.498,32,155C32,162.18,37.82,168,45,168z M51.707,145.055    C54.898,147.213,57,150.865,57,155c0,1.879-0.446,3.651-1.22,5.236l-10.077-5.426L51.707,145.055z M45,143    c2.125,0,4.12,0.561,5.854,1.534L45,154.046l-5.854-9.512C40.88,143.561,42.875,143,45,143z M38.293,145.055l6.352,10.322    l10.66,5.74C53.211,164.633,49.381,167,45,167c-6.617,0-12-5.383-12-12C33,150.865,35.102,147.213,38.293,145.055z"/>
	</g>
	
    </g>
</svg>
