<?xml version="1.0" encoding="iso-8859-1"?>
<!DOCTYPE svg PUBLIC "-//W3C//DTD SVG 1.1//EN" "http://www.w3.org/Graphics/SVG/1.1/DTD/svg11.dtd">
<svg version="1.1" xmlns="http://www.w3.org/2000/svg" xmlns:xlink="http://www.w3.org/1999/xlink" x="0px" y="0px" width="30" height="30" viewBox="0 0 30 30" xml:space="preserve">
    <g transform="translate(-90 -140)">
        <g xmlns="http://www.w3.org/2000/svg" xmlns:xlink="http://www.w3.org/1999/xlink" id="pie-chart-tick-7">
		<path d="M117.791,157.186c0.123-0.712,0.209-1.438,0.209-2.186c0-4.502-2.289-8.468-5.766-10.801    c-0.277-0.186-0.564-0.355-0.855-0.52c-1.886-1.064-4.059-1.68-6.379-1.68s-4.493,0.615-6.379,1.68    c-0.291,0.164-0.578,0.334-0.855,0.52C94.289,146.532,92,150.498,92,155c0,7.18,5.82,13,13,13c0.751,0,1.484-0.071,2.2-0.193    c1.356,1.355,3.23,2.193,5.3,2.193c4.143,0,7.5-3.358,7.5-7.5C120,160.423,119.155,158.544,117.791,157.186z M111.707,145.055    c3.191,2.158,5.293,5.811,5.293,9.945c0,0.489-0.033,0.969-0.092,1.442C115.67,155.539,114.15,155,112.5,155    c-1.528,0-2.948,0.459-4.134,1.245l-2.663-1.434L111.707,145.055z M105,143c2.125,0,4.12,0.561,5.854,1.534L105,154.046    l-5.854-9.512C100.88,143.561,102.875,143,105,143z M93,155c0-4.135,2.102-7.787,5.293-9.945l6.352,10.322l2.859,1.54    c-1.533,1.373-2.504,3.362-2.504,5.583c0,1.647,0.537,3.166,1.438,4.403C105.966,166.96,105.488,167,105,167    C98.383,167,93,161.617,93,155z M112.5,169c-3.59,0-6.5-2.91-6.5-6.5s2.91-6.5,6.5-6.5s6.5,2.91,6.5,6.5S116.09,169,112.5,169z"/>
		<polygon points="116.742,160.025 116.035,159.318 111.086,164.268 108.965,162.146 108.258,162.854 111.086,165.682   "/>
	</g>
	
    </g>
</svg>
