<?xml version="1.0" encoding="iso-8859-1"?>
<!DOCTYPE svg PUBLIC "-//W3C//DTD SVG 1.1//EN" "http://www.w3.org/Graphics/SVG/1.1/DTD/svg11.dtd">
<svg version="1.1" xmlns="http://www.w3.org/2000/svg" xmlns:xlink="http://www.w3.org/1999/xlink" x="0px" y="0px" width="30" height="30" viewBox="0 0 30 30" xml:space="preserve">
    <g transform="translate(-510 -260)">
        <g xmlns="http://www.w3.org/2000/svg" xmlns:xlink="http://www.w3.org/1999/xlink" id="piggy-bank-7">
		<path d="M512,275v2c0,2.975,1.782,5.587,5.111,7.222L519,288h2l1.142-2.284c1.193,0.179,2.473,0.284,3.858,0.284    c0.707,0,1.349-0.032,1.961-0.079L529,288h2l1.599-3.197c2.944-1.49,3.401-4.198,3.401-7.137c0-0.816-0.069-1.625-0.231-2.404    c0.793,0.554,1.231,1.825,1.231,4.737h1c0-4.163-0.976-5.526-2.586-5.964c-0.702-1.917-2.129-3.525-4.718-4.378    c0.185-0.521,0.304-1.074,0.304-1.658c0-2.762-2.238-5-5-5s-5,2.238-5,5c0,0.587,0.12,1.142,0.306,1.665    c-0.883,0.275-1.655,0.616-2.321,0.996L516,269.667L514.667,271l1.744,1.744C515.357,273.958,515,275,515,275H512z M522,268    c0-2.209,1.791-4,4-4s4,1.791,4,4s-1.791,4-4,4S522,270.209,522,268z M515.946,275.324c0.001-0.003,0.324-0.893,1.22-1.924    l0.611-0.704L516.081,271l0.189-0.189l2.821,0.94l0.389-0.221c0.688-0.393,1.458-0.688,2.268-0.93    c0.334,0.546,0.768,1.019,1.279,1.4H522h-1v1h1h8h1v-1h-1h-1.027c0.521-0.389,0.96-0.874,1.297-1.433    c2.121,0.667,3.515,1.926,4.205,3.813l0.179,0.486l0.012,0.003l0.125,0.598c0.14,0.67,0.21,1.41,0.21,2.2    c0,2.964-0.478,5.042-2.853,6.245l-0.295,0.149l-1.471,2.94h-0.764l-1.063-2.127l-0.67,0.051C527.206,284.976,526.606,285,526,285    c-1.272,0-2.486-0.089-3.71-0.273l-0.718-0.108l-1.19,2.381h-0.764l-1.764-3.527l-0.303-0.148    c-2.159-1.061-3.598-2.559-4.211-4.325H515v-1h-1.918c-0.053-0.327-0.082-0.66-0.082-1v-1h2.714L515.946,275.324z"/>
		<rect x="524" y="266" width="1" height="4"/>
		<polygon points="528,270 528,269 527,269 527,267 528,267 528,266 526,266 526,270   "/>
		<rect x="518" y="274" width="2" height="2"/>
	</g>
	
    </g>
</svg>
