<?xml version="1.0" encoding="iso-8859-1"?>
<!DOCTYPE svg PUBLIC "-//W3C//DTD SVG 1.1//EN" "http://www.w3.org/Graphics/SVG/1.1/DTD/svg11.dtd">
<svg version="1.1" xmlns="http://www.w3.org/2000/svg" xmlns:xlink="http://www.w3.org/1999/xlink" x="0px" y="0px" width="30" height="30" viewBox="0 0 30 30" xml:space="preserve">
    <g transform="translate(-450 -560)">
        <g xmlns="http://www.w3.org/2000/svg" xmlns:xlink="http://www.w3.org/1999/xlink" id="pound-decor-7">
		<path d="M476.788,570.021c1.029-2.512-0.049-4.098-2.744-4.065c0.031-2.693-1.555-3.773-4.064-2.742    c-1.012-2.521-2.947-2.932-4.98-1.005c-2.031-1.927-3.967-1.516-4.979,1.005c-2.512-1.031-4.096,0.049-4.066,2.742    c-2.693-0.032-3.773,1.554-2.742,4.065c-2.52,1.01-2.932,2.946-1.006,4.979c-1.926,2.033-1.514,3.97,1.006,4.979    c-1.031,2.512,0.049,4.098,2.742,4.065c-0.029,2.693,1.555,3.773,4.066,2.742c1.012,2.521,2.947,2.933,4.979,1.005    c2.033,1.928,3.969,1.516,4.98-1.005c2.51,1.031,4.096-0.049,4.064-2.742c2.695,0.032,3.773-1.554,2.744-4.065    c2.52-1.01,2.93-2.946,1.006-4.979C479.718,572.967,479.308,571.03,476.788,570.021z M477.067,574.313l-0.65,0.688l0.65,0.688    c0.705,0.744,1.026,1.455,0.907,2c-0.114,0.522-0.668,1.007-1.559,1.363l-0.936,0.375l0.382,0.933    c0.366,0.893,0.41,1.618,0.124,2.045c-0.278,0.414-0.939,0.642-1.862,0.642h-1.012l-0.068,1.012    c0.01,0.833-0.166,1.475-0.494,1.807c-0.206,0.208-0.487,0.31-0.862,0.31c-0.38,0-0.827-0.104-1.328-0.311l-0.933-0.384    l-0.375,0.937c-0.291,0.723-0.804,1.585-1.601,1.585c-0.503,0-1.129-0.332-1.764-0.934l-0.688-0.652l-0.688,0.652    c-0.634,0.602-1.26,0.934-1.763,0.934c-0.796,0-1.309-0.862-1.6-1.585l-0.375-0.936l-0.933,0.383    c-0.502,0.206-0.949,0.311-1.329,0.311c-0.375,0-0.656-0.102-0.862-0.31c-0.328-0.332-0.504-0.974-0.495-1.808l0.011-1.022    c0,0-1.024,0.012-1.025,0.012c-0.989,0-1.649-0.229-1.927-0.642c-0.286-0.427-0.242-1.152,0.124-2.044l0.383-0.933l-0.936-0.376    c-0.891-0.356-1.445-0.841-1.56-1.364c-0.119-0.545,0.203-1.255,0.907-1.999l0.651-0.688l-0.651-0.688    c-0.704-0.744-1.026-1.454-0.907-1.999c0.114-0.523,0.669-1.008,1.56-1.364l0.936-0.376l-0.383-0.933    c-0.366-0.892-0.41-1.617-0.124-2.043c0.277-0.415,0.938-0.643,1.861-0.643h1.011l0.069-1.011    c-0.009-0.834,0.167-1.476,0.495-1.808c0.206-0.208,0.488-0.31,0.862-0.31c0.38,0,0.827,0.104,1.329,0.311l0.933,0.383    l0.375-0.936c0.29-0.723,0.804-1.584,1.6-1.584c0.503,0,1.129,0.331,1.763,0.933l0.688,0.652l0.688-0.652    c0.636-0.602,1.263-0.933,1.766-0.933c0.796,0,1.31,0.861,1.6,1.584l0.375,0.937l0.933-0.384c0.501-0.206,0.948-0.311,1.328-0.311    c0.375,0,0.656,0.102,0.862,0.31c0.328,0.332,0.504,0.974,0.494,1.807l-0.012,1.023c0,0,1.025-0.012,1.026-0.012    c0.99,0,1.65,0.228,1.928,0.642c0.286,0.427,0.242,1.152-0.124,2.045l-0.382,0.933l0.936,0.375    c0.891,0.356,1.444,0.841,1.559,1.363C478.094,572.857,477.772,573.568,477.067,574.313z"/>
		<path d="M466.903,569c-0.491,0-0.978,0.076-1.456,0.226c-0.479,0.149-0.925,0.363-1.337,0.643    c-0.412,0.278-0.771,0.618-1.076,1.02c-0.307,0.402-0.528,0.86-0.667,1.373c-0.137,0.515-0.188,0.969-0.147,1.365    c0.037,0.397,0.116,0.776,0.231,1.142h-0.931l-0.194,0.723h1.366c0.038,0.215,0.063,0.455,0.079,0.723    c0.013,0.268-0.013,0.524-0.079,0.771c-0.083,0.31-0.209,0.605-0.381,0.883c-0.171,0.279-0.372,0.54-0.605,0.787    c-0.23,0.246-0.481,0.472-0.75,0.675c-0.268,0.203-0.535,0.381-0.8,0.53l0.476,1.044c0.288-0.161,0.575-0.292,0.859-0.394    s0.582-0.152,0.894-0.152c0.311,0,0.591,0.035,0.847,0.104c0.254,0.068,0.504,0.147,0.748,0.232    c0.259,0.074,0.507,0.145,0.746,0.209c0.241,0.064,0.495,0.097,0.761,0.097c0.419,0,0.849-0.051,1.287-0.153    c0.439-0.102,0.858-0.291,1.253-0.57l-0.406-1.06c-0.232,0.149-0.493,0.286-0.776,0.409c-0.284,0.123-0.555,0.185-0.813,0.185    c-0.246,0-0.47-0.032-0.672-0.096c-0.202-0.065-0.402-0.13-0.601-0.193c-0.199-0.054-0.415-0.106-0.646-0.16    s-0.503-0.081-0.813-0.081c-0.32,0-0.627,0.049-0.914,0.145c-0.289,0.097-0.588,0.204-0.897,0.321l-0.023-0.031    c0.287-0.193,0.569-0.391,0.849-0.595c0.279-0.203,0.537-0.426,0.775-0.666c0.234-0.24,0.445-0.504,0.627-0.787    c0.182-0.284,0.323-0.607,0.422-0.973c0.06-0.226,0.084-0.438,0.076-0.643c-0.012-0.204-0.035-0.391-0.075-0.562h2.201    l0.193-0.723h-2.554c-0.045-0.193-0.093-0.38-0.141-0.562c-0.048-0.183-0.084-0.37-0.113-0.563    c-0.029-0.193-0.041-0.398-0.035-0.619c0.005-0.219,0.043-0.459,0.111-0.715c0.08-0.3,0.214-0.579,0.4-0.835    c0.188-0.257,0.41-0.479,0.668-0.667c0.259-0.188,0.542-0.334,0.85-0.441c0.307-0.107,0.621-0.161,0.943-0.161    c0.771,0,1.281,0.255,1.53,0.764c0.248,0.508,0.259,1.233,0.028,2.177h1.364c0.391-1.383,0.34-2.419-0.156-3.109    C468.934,569.347,468.093,569,466.903,569z"/>
	</g>
	
    </g>
</svg>
