<?xml version="1.0" encoding="iso-8859-1"?>
<!DOCTYPE svg PUBLIC "-//W3C//DTD SVG 1.1//EN" "http://www.w3.org/Graphics/SVG/1.1/DTD/svg11.dtd">
<svg version="1.1" xmlns="http://www.w3.org/2000/svg" xmlns:xlink="http://www.w3.org/1999/xlink" x="0px" y="0px" width="30" height="30" viewBox="0 0 30 30" xml:space="preserve">
    <g transform="translate(-510 -680)">
        <g xmlns="http://www.w3.org/2000/svg" xmlns:xlink="http://www.w3.org/1999/xlink" id="pushpin-7">
		<path d="M537.041,690.029l1.415-1.414l-7.071-7.071l-1.415,1.415l0.637,0.637l-7,5.727c0,0-4.242-1.414-7.778,2.121l5.656,5.657    L513,705.586V707h1.414l8.485-8.485l5.656,5.657c3.536-3.536,2.121-7.779,2.121-7.779l5.728-7L537.041,690.029z M529.554,696.187    l0.175,0.522c0.044,0.135,0.98,3.16-1.217,6.004l-11.225-11.225c2.878-2.219,5.969-1.229,6.003-1.217l0.523,0.174l7.503-6.14    l4.378,4.377L529.554,696.187z"/>
	</g>
	
    </g>
</svg>
