<?xml version="1.0" encoding="iso-8859-1"?>
<!DOCTYPE svg PUBLIC "-//W3C//DTD SVG 1.1//EN" "http://www.w3.org/Graphics/SVG/1.1/DTD/svg11.dtd">
<svg version="1.1" xmlns="http://www.w3.org/2000/svg" xmlns:xlink="http://www.w3.org/1999/xlink" x="0px" y="0px" width="30" height="30" viewBox="0 0 30 30" xml:space="preserve">
    <g transform="translate(-570 -680)">
        <g xmlns="http://www.w3.org/2000/svg" xmlns:xlink="http://www.w3.org/1999/xlink" id="pushpin-tick-7">
		<path d="M592.5,695c-0.241,0-0.479,0.014-0.713,0.036l4.617-5.644l0.637,0.637l1.415-1.414l-7.071-7.071l-1.415,1.415l0.637,0.637    l-7,5.727c0,0-4.242-1.414-7.778,2.121l5.656,5.657L573,705.586V707h1.414l8.485-8.485l2.298,2.299    c-0.125,0.543-0.197,1.105-0.197,1.687c0,4.143,3.357,7.5,7.5,7.5s7.5-3.357,7.5-7.5S596.643,695,592.5,695z M577.287,691.488    c2.878-2.219,5.969-1.229,6.003-1.217l0.523,0.174l7.503-6.14l4.378,4.377l-5.454,6.665c-2.152,0.68-3.88,2.305-4.707,4.387    L577.287,691.488z M592.5,709c-3.59,0-6.5-2.91-6.5-6.5s2.91-6.5,6.5-6.5s6.5,2.91,6.5,6.5S596.09,709,592.5,709z"/>
		<polygon points="591.086,704.268 588.965,702.146 588.258,702.854 591.086,705.682 596.742,700.025 596.035,699.318   "/>
	</g>
	
    </g>
</svg>
