<?xml version="1.0" encoding="iso-8859-1"?>
<!DOCTYPE svg PUBLIC "-//W3C//DTD SVG 1.1//EN" "http://www.w3.org/Graphics/SVG/1.1/DTD/svg11.dtd">
<svg version="1.1" xmlns="http://www.w3.org/2000/svg" xmlns:xlink="http://www.w3.org/1999/xlink" x="0px" y="0px" width="30" height="30" viewBox="0 0 30 30" xml:space="preserve">
    <g transform="translate(-330 -740)">
        <g xmlns="http://www.w3.org/2000/svg" xmlns:xlink="http://www.w3.org/1999/xlink" id="puzzle-7">
		<path d="M353.855,749.105c1.814-0.747,4.164-2.027,1.601-4.592c-2.563-2.563-3.844-0.214-4.591,1.603    c-0.746,1.813-2.028,0.745-3.096-0.323c-1.068-1.067-2.777-3.845-2.777-3.845s-1.707,2.774-2.775,3.843    c-1.066,1.067-2.35,2.136-3.097,0.319c-0.748-1.814-2.029-4.165-4.591-1.603c-2.562,2.561-0.212,3.843,1.603,4.592    c1.816,0.746,0.749,2.028-0.319,3.096c-1.067,1.067-3.842,2.774-3.842,2.774l6.515,6.515L345,768c0,0,2.775-1.708,3.843-2.775    s2.135-2.348,0.319-3.096c-1.815-0.747-4.164-2.029-1.603-4.591s3.844-0.214,4.591,1.603c0.748,1.816,2.028,0.748,3.096-0.319    s2.775-3.843,2.775-3.843s-2.776-1.709-3.844-2.777C353.11,751.134,352.041,749.853,353.855,749.105z M354.539,758.114    c-0.827,0.827-1.165,0.98-1.287,1.003c0-0.024-0.08-0.122-0.177-0.357c-0.412-1.002-1.378-3.351-3.445-3.351    c-0.912,0-1.82,0.465-2.777,1.422c-1.121,1.121-1.583,2.223-1.373,3.272c0.308,1.537,1.926,2.384,3.302,2.95    c0.309,0.127,0.381,0.225,0.382,0.226c-0.027,0.024-0.136,0.347-1.027,1.238c-0.628,0.628-2.046,1.596-2.994,2.209l-11.585-11.585    c0.938-0.618,2.262-1.537,2.963-2.239c0.634-0.633,1.813-1.812,1.557-3.095c-0.144-0.716-0.67-1.266-1.564-1.633    c-1.304-0.538-2.011-1.041-2.102-1.495c-0.067-0.339,0.233-0.872,0.826-1.465c0.728-0.728,1.166-0.837,1.362-0.837    c0.481,0,1.019,0.712,1.597,2.113c0.544,1.321,1.39,1.6,2.004,1.6c1.046,0,1.955-0.822,2.725-1.593    c0.64-0.64,1.46-1.795,2.068-2.705c0.609,0.911,1.431,2.068,2.07,2.707c0.771,0.771,1.68,1.594,2.727,1.594    c0.613,0,1.458-0.277,2.001-1.597c0.576-1.402,1.113-2.113,1.595-2.113c0.196,0,0.636,0.108,1.364,0.837    c0.594,0.594,0.896,1.129,0.827,1.469c-0.091,0.452-0.798,0.954-2.102,1.491c-0.893,0.368-1.418,0.917-1.562,1.633    c-0.256,1.281,0.924,2.461,1.558,3.095c0.755,0.756,2.229,1.763,3.17,2.377C356.026,756.226,355.132,757.521,354.539,758.114z"/>
	</g>
	
    </g>
</svg>
