<?xml version="1.0" encoding="iso-8859-1"?>
<!DOCTYPE svg PUBLIC "-//W3C//DTD SVG 1.1//EN" "http://www.w3.org/Graphics/SVG/1.1/DTD/svg11.dtd">
<svg version="1.1" xmlns="http://www.w3.org/2000/svg" xmlns:xlink="http://www.w3.org/1999/xlink" x="0px" y="0px" width="30" height="30" viewBox="0 0 30 30" xml:space="preserve">
    <g transform="translate(-90 -380)">
        <g xmlns="http://www.w3.org/2000/svg" xmlns:xlink="http://www.w3.org/1999/xlink" id="qr-code-7">
		<path d="M92,390h8v-8h-8V390z M93,383h6v6h-6V383z"/>
		<rect x="94" y="384" width="4" height="4"/>
		<path d="M92,408h8v-8h-8V408z M93,401h6v6h-6V401z"/>
		<rect x="94" y="402" width="4" height="4"/>
		<path d="M118,382h-8v8h8V382z M117,389h-6v-6h6V389z"/>
		<rect x="112" y="384" width="4" height="4"/>
		<polygon points="92,393 96,393 96,395 94,395 94,396 96,396 96,399 104,399 104,398 103,398 103,395 104,395 104,394 102,394     102,398 99,398 99,394 98,394 98,398 97,398 97,391 96,391 96,392 92,392   "/>
		<rect x="101" y="400" width="1" height="4"/>
		<polygon points="92,399 94,399 94,398 93,398 93,396 92,396   "/>
		<polygon points="101,408 107,408 107,407 102,407 102,406 104,406 104,405 101,405   "/>
		<polygon points="99,392 99,393 100,393 100,396 101,396 101,393 106,393 106,394 105,394 105,395 108,395 108,397 106,397     106,398 113,398 113,397 109,397 109,395 111,395 111,394 107,394 107,389 109,389 109,388 102,388 102,383 109,383 109,382     101,382 101,390 102,390 102,389 106,389 106,392   "/>
		<polygon points="105,385 105,384 103,384 103,387 109,387 109,384 108,384 108,386 104,386 104,385   "/>
		<polygon points="113,408 118,408 118,401 117,401 117,403 115,403 115,401 114,401 114,406 115,406 115,404 117,404 117,407     113,407   "/>
		<rect x="108" y="407" width="4" height="1"/>
		<polygon points="112,400 111,400 111,401 109,401 109,402 111,402 111,403 112,403   "/>
		<polygon points="112,404 108,404 108,400 109,400 109,399 105,399 105,400 107,400 107,401 105,401 105,402 107,402 107,404     105,404 105,405 109,405 109,406 110,406 110,405 112,405   "/>
		<polygon points="118,391 115,391 115,392 117,392 117,395 115,395 115,396 117,396 117,400 118,400   "/>
		<rect x="103" y="401" width="1" height="3"/>
		<rect x="108" y="391" width="4" height="1"/>
		<polygon points="116,393 112,393 112,396 113,396 113,394 116,394   "/>
		<rect x="114" y="397" width="1" height="3"/>
	</g>
	
    </g>
</svg>
