<?xml version="1.0" encoding="iso-8859-1"?>
<!DOCTYPE svg PUBLIC "-//W3C//DTD SVG 1.1//EN" "http://www.w3.org/Graphics/SVG/1.1/DTD/svg11.dtd">
<svg version="1.1" xmlns="http://www.w3.org/2000/svg" xmlns:xlink="http://www.w3.org/1999/xlink" x="0px" y="0px" width="30" height="30" viewBox="0 0 30 30" xml:space="preserve">
    <g transform="translate(-330 -200)">
        <g xmlns="http://www.w3.org/2000/svg" xmlns:xlink="http://www.w3.org/1999/xlink" id="safebox-tick-7">
		<path d="M357,216.51V203h-24v24h1v1h4v-1h8.51c1.369,1.819,3.539,3,5.99,3c4.143,0,7.5-3.358,7.5-7.5    C360,220.049,358.818,217.878,357,216.51z M334,226v-22h22v11.869c-0.621-0.329-1.291-0.575-2-0.719V206h-18v2h-1v3h1v8h-1v3h1v2    h9.15c0.145,0.708,0.391,1.379,0.719,2H334z M347.439,216.732c0.35-0.49,0.561-1.086,0.561-1.732s-0.211-1.242-0.561-1.732    l2.303-2.303l-0.707-0.707l-2.303,2.303c-0.49-0.35-1.086-0.561-1.732-0.561s-1.242,0.211-1.732,0.561l-2.303-2.303l-0.707,0.707    l2.303,2.303c-0.35,0.49-0.561,1.086-0.561,1.732s0.211,1.242,0.561,1.732l-2.303,2.303l0.707,0.707l2.303-2.303    c0.49,0.35,1.086,0.561,1.732,0.561s1.242-0.211,1.732-0.561l0.128,0.127c-1.155,1.319-1.86,3.042-1.86,4.933    c0,0.169,0.015,0.334,0.025,0.5H337v-16h16v8.025c-0.166-0.011-0.331-0.025-0.5-0.025c-1.892,0-3.614,0.705-4.933,1.86    L347.439,216.732z M347,215c0,1.103-0.897,2-2,2s-2-0.897-2-2s0.897-2,2-2S347,213.897,347,215z M352.5,229    c-3.59,0-6.5-2.91-6.5-6.5s2.91-6.5,6.5-6.5s6.5,2.91,6.5,6.5S356.09,229,352.5,229z"/>
		<polygon points="356.742,220.025 356.035,219.318 351.086,224.268 348.965,222.146 348.258,222.854 351.086,225.682   "/>
	</g>
	
    </g>
</svg>
