<?xml version="1.0" encoding="iso-8859-1"?>
<!DOCTYPE svg PUBLIC "-//W3C//DTD SVG 1.1//EN" "http://www.w3.org/Graphics/SVG/1.1/DTD/svg11.dtd">
<svg version="1.1" xmlns="http://www.w3.org/2000/svg" xmlns:xlink="http://www.w3.org/1999/xlink" x="0px" y="0px" width="30" height="30" viewBox="0 0 30 30" xml:space="preserve">
    <g transform="translate(-390 -200)">
        <g xmlns="http://www.w3.org/2000/svg" xmlns:xlink="http://www.w3.org/1999/xlink" id="safebox-lock-7">
		<path d="M418,218c0-1.063-0.384-2.027-1-2.797V203h-24v24h1v1h4v-1h9v3h13v-11h-2V218z M409,218v0.293l-1.561-1.561    c0.35-0.49,0.561-1.086,0.561-1.732s-0.211-1.242-0.561-1.732l2.303-2.303l-0.707-0.707l-2.303,2.303    c-0.49-0.35-1.086-0.561-1.732-0.561s-1.242,0.211-1.732,0.561l-2.303-2.303l-0.707,0.707l2.303,2.303    c-0.35,0.49-0.561,1.086-0.561,1.732s0.211,1.242,0.561,1.732l-2.303,2.303l0.707,0.707l2.303-2.303    c0.49,0.35,1.086,0.561,1.732,0.561s1.242-0.211,1.732-0.561l1.561,1.561H407v4h-10v-16h16v6.55    C410.753,213.802,409,215.686,409,218z M407,215c0,1.103-0.897,2-2,2s-2-0.897-2-2s0.897-2,2-2S407,213.897,407,215z M410,218    c0-1.93,1.57-3.5,3.5-3.5s3.5,1.57,3.5,3.5v1h-7V218z M394,226v-22h22v10.26c-0.583-0.391-1.268-0.627-2-0.709V206h-18v2h-1v3h1v8    h-1v3h1v2h11v2H394z M419,220v9h-11v-9H419z"/>
		<path d="M414,224.908c0.581-0.207,1-0.756,1-1.408c0-0.828-0.672-1.5-1.5-1.5s-1.5,0.672-1.5,1.5c0,0.652,0.419,1.201,1,1.408V227    h1V224.908z"/>
	</g>
	
    </g>
</svg>
