<?xml version="1.0" encoding="iso-8859-1"?>
<!DOCTYPE svg PUBLIC "-//W3C//DTD SVG 1.1//EN" "http://www.w3.org/Graphics/SVG/1.1/DTD/svg11.dtd">
<svg version="1.1" xmlns="http://www.w3.org/2000/svg" xmlns:xlink="http://www.w3.org/1999/xlink" x="0px" y="0px" width="29" height="30" viewBox="0 0 29 30" xml:space="preserve">
    <g transform="translate(-90 -680)">
        <g xmlns="http://www.w3.org/2000/svg" xmlns:xlink="http://www.w3.org/1999/xlink" id="sale-sign-7">
		<polygon points="99,699 96,699 96,697 99,697 99,696 95,696 95,700 98,700 98,702 95,702 95,703 99,703   "/>
		<polygon points="114,702 111,702 111,700 114,700 114,699 111,699 111,697 114,697 114,696 110,696 110,703 114,703   "/>
		<path d="M117,692h-2.801l-7.582-7.184c0.238-0.383,0.383-0.832,0.383-1.316c0-1.38-1.119-2.5-2.5-2.5s-2.5,1.12-2.5,2.5    c0,0.484,0.145,0.934,0.383,1.316L94.801,692H92v15h25V692z M103,683.5c0-0.827,0.673-1.5,1.5-1.5s1.5,0.673,1.5,1.5    s-0.673,1.5-1.5,1.5S103,684.327,103,683.5z M103.068,685.545c0.406,0.285,0.898,0.455,1.432,0.455s1.025-0.17,1.432-0.455    l6.813,6.455h-16.49L103.068,685.545z M116,706H93v-13h23V706z"/>
		<path d="M101,700h2v3h1v-7h-4v7h1V700z M101,697h2v2h-2V697z"/>
		<polygon points="109,702 106,702 106,696 105,696 105,703 109,703   "/>
	</g>
	
    </g>
</svg>
