<?xml version="1.0" encoding="iso-8859-1"?>
<!DOCTYPE svg PUBLIC "-//W3C//DTD SVG 1.1//EN" "http://www.w3.org/Graphics/SVG/1.1/DTD/svg11.dtd">
<svg version="1.1" xmlns="http://www.w3.org/2000/svg" xmlns:xlink="http://www.w3.org/1999/xlink" x="0px" y="0px" width="29" height="30" viewBox="0 0 29 30" xml:space="preserve">
    <g transform="translate(-390 -740)">
        <g xmlns="http://www.w3.org/2000/svg" xmlns:xlink="http://www.w3.org/1999/xlink" id="scale-justice-7">
		<path d="M406,743.964V743h-1v-1h-1v1h-1v0.964h-7.81L391,758c0,2.761,2.238,5,5,5s5-2.239,5-5l-3.871-12.964H403V746h1v19h-4v2h-5    v1h19v-1h-5v-2h-4v-19h1v-0.964h5.871L408,758c0,2.761,2.238,5,5,5s5-2.239,5-5l-4.19-14.036H406z M396,762    c-1.86,0-3.429-1.276-3.873-3h7.746C399.429,760.724,397.86,762,396,762z M399.979,758h-7.957l3.889-12.964h0.18L399.979,758z     M408,766v1h-7v-1H408z M405,745h-1v-1h1V745z M413,762c-1.86,0-3.429-1.276-3.873-3h7.746C416.429,760.724,414.86,762,413,762z     M409.021,758l3.889-12.964h0.18L416.979,758H409.021z"/>
	</g>
	
    </g>
</svg>
