<?xml version="1.0" encoding="iso-8859-1"?>
<!DOCTYPE svg PUBLIC "-//W3C//DTD SVG 1.1//EN" "http://www.w3.org/Graphics/SVG/1.1/DTD/svg11.dtd">
<svg version="1.1" xmlns="http://www.w3.org/2000/svg" xmlns:xlink="http://www.w3.org/1999/xlink" x="0px" y="0px" width="30" height="30" viewBox="0 0 30 30" xml:space="preserve">
    <g transform="translate(-270 -740)">
        <g xmlns="http://www.w3.org/2000/svg" xmlns:xlink="http://www.w3.org/1999/xlink" id="scissor-cut-7">
		<path d="M276,751c0.705,0,1.375-0.149,1.983-0.413c0.198,0.229,0.4,0.458,0.614,0.691c0.232-0.239,0.469-0.478,0.711-0.714    c-0.148-0.161-0.299-0.324-0.436-0.481c0.388-0.273,0.723-0.608,1.019-0.979l0.519,0.413c0.249-0.229,0.502-0.454,0.755-0.677    l-0.728-0.58c0.348-0.682,0.563-1.441,0.563-2.26c0-2.762-2.238-5-5-5s-5,2.238-5,5S273.238,751,276,751z M276,742    c2.206,0,4,1.794,4,4s-1.794,4-4,4s-4-1.794-4-4S273.794,742,276,742z"/>
		<path d="M285.133,753.278l9.601,7.647c-1.993-0.39-5.783-2.049-10.553-5.849c-0.227-0.181-0.423-0.354-0.639-0.532l-0.805,0.642    c0.271,0.225,0.54,0.45,0.82,0.673c6.048,4.818,12.065,7.322,13.442,5.594l-11.065-8.814L285.133,753.278z"/>
		<path d="M280.438,755.74L297,742.547c-1.377-1.729-7.395,0.775-13.442,5.594c-2.208,1.759-4.11,3.581-5.574,5.272    c-0.329-0.143-0.675-0.248-1.036-0.317c-0.307-0.06-0.623-0.096-0.947-0.096c-2.762,0-5,2.238-5,5s2.238,5,5,5s5-2.238,5-5    c0-0.445-0.077-0.87-0.187-1.281C280.723,756.375,280.596,756.05,280.438,755.74z M284.181,748.923    c4.77-3.8,8.56-5.459,10.553-5.849l-14.842,11.822c-0.296-0.371-0.631-0.706-1.019-0.979    C280.171,752.43,281.906,750.734,284.181,748.923z M276,762c-2.206,0-4-1.794-4-4s1.794-4,4-4s4,1.794,4,4S278.206,762,276,762z"/>
		<rect x="289" y="751" width="2" height="1"/>
		<rect x="293" y="751" width="2" height="1"/>
		<rect x="297" y="751" width="2" height="1"/>
		<rect x="283" y="759" width="1" height="2"/>
		<rect x="283" y="763" width="1" height="2"/>
		<rect x="283" y="767" width="1" height="2"/>
	</g>
	
    </g>
</svg>
