<?xml version="1.0" encoding="iso-8859-1"?>
<!DOCTYPE svg PUBLIC "-//W3C//DTD SVG 1.1//EN" "http://www.w3.org/Graphics/SVG/1.1/DTD/svg11.dtd">
<svg version="1.1" xmlns="http://www.w3.org/2000/svg" xmlns:xlink="http://www.w3.org/1999/xlink" x="0px" y="0px" width="29" height="30" viewBox="0 0 29 30" xml:space="preserve">
    <g transform="translate(-330 -440)">
        <g xmlns="http://www.w3.org/2000/svg" xmlns:xlink="http://www.w3.org/1999/xlink" id="shopping-basket-off-7">
		<path d="M342.533,441.82l-2.722,7.077l-7.333-7.333l-0.707,0.707l25.457,25.457l0.707-0.707l-3.233-3.233L356,456h1v-2h-5.849    l-4.685-12.18l-0.934,0.359L350.08,454h-5.166l-4.329-4.329l2.882-7.491L342.533,441.82z M354.986,456l-1.153,6.919L349,458.086    V458h-0.086l-2-2H354.986z"/>
		<polygon points="353.153,467 335.847,467 334.014,456 344.086,456 342.086,454 338.92,454 339.8,451.714 339.025,450.939     337.849,454 332,454 332,456 333,456 335,468 354,468 354.298,466.212 353.43,465.344   "/>
		<rect x="340" y="458" width="1" height="6"/>
		<rect x="344" y="458" width="1" height="6"/>
		<polygon points="349,464 349,460.914 348,459.914 348,464   "/>
	</g>
	
    </g>
</svg>
