<?xml version="1.0" encoding="iso-8859-1"?>
<!DOCTYPE svg PUBLIC "-//W3C//DTD SVG 1.1//EN" "http://www.w3.org/Graphics/SVG/1.1/DTD/svg11.dtd">
<svg version="1.1" xmlns="http://www.w3.org/2000/svg" xmlns:xlink="http://www.w3.org/1999/xlink" x="0px" y="0px" width="29" height="30" viewBox="0 0 29 30" xml:space="preserve">
    <g transform="translate(-210 -440)">
        <g xmlns="http://www.w3.org/2000/svg" xmlns:xlink="http://www.w3.org/1999/xlink" id="shopping-basket-star-7">
		<path d="M226.413,468c1.337,1.237,3.121,2,5.087,2c4.143,0,7.5-3.357,7.5-7.5c0-2.878-1.622-5.373-4-6.631V454h-5.849    l-4.685-12.18l-0.934,0.359L228.08,454h-11.16l4.547-11.82l-0.934-0.359L215.849,454H210v2h1l2,12H226.413z M238,462.5    c0,3.59-2.91,6.5-6.5,6.5s-6.5-2.91-6.5-6.5s2.91-6.5,6.5-6.5S238,458.91,238,462.5z M227.77,456    c-2.251,1.295-3.77,3.718-3.77,6.5c0,1.691,0.566,3.246,1.51,4.5h-11.663l-1.833-11H227.77z"/>
		<rect x="218" y="458" width="1" height="6"/>
		<rect x="222" y="458" width="1" height="6"/>
		<polygon points="232.568,461 231.5,457.785 230.43,461 227,461 229.768,463.078 228.717,466.344 231.5,464.336 234.278,466.344     233.23,463.078 236,461   "/>
	</g>
	
    </g>
</svg>
