<?xml version="1.0" encoding="iso-8859-1"?>
<!DOCTYPE svg PUBLIC "-//W3C//DTD SVG 1.1//EN" "http://www.w3.org/Graphics/SVG/1.1/DTD/svg11.dtd">
<svg version="1.1" xmlns="http://www.w3.org/2000/svg" xmlns:xlink="http://www.w3.org/1999/xlink" x="0px" y="0px" width="30" height="30" viewBox="0 0 30 30" xml:space="preserve">
    <g transform="translate(-390 -440)">
        <g xmlns="http://www.w3.org/2000/svg" xmlns:xlink="http://www.w3.org/1999/xlink" id="shopping-bag-7">
		<path d="M405,443c-3.313,0-6,2.687-6,6v2h-6v12c0,2.209,1.791,4,4,4h16c2.209,0,4-1.791,4-4v-12h-6v-2    C411,445.687,408.313,443,405,443z M400,449c0-2.757,2.243-5,5-5s5,2.243,5,5v2h-10V449z M416,463c0,1.654-1.346,3-3,3h-16    c-1.654,0-3-1.346-3-3v-6h22V463z M416,452v4h-22v-4H416z"/>
	</g>
	
    </g>
</svg>
