<?xml version="1.0" encoding="iso-8859-1"?>
<!DOCTYPE svg PUBLIC "-//W3C//DTD SVG 1.1//EN" "http://www.w3.org/Graphics/SVG/1.1/DTD/svg11.dtd">
<svg version="1.1" xmlns="http://www.w3.org/2000/svg" xmlns:xlink="http://www.w3.org/1999/xlink" x="0px" y="0px" width="29" height="30" viewBox="0 0 29 30" xml:space="preserve">
    <g transform="translate(-210 -680)">
        <g xmlns="http://www.w3.org/2000/svg" xmlns:xlink="http://www.w3.org/1999/xlink" id="sold-sign-7">
		<polygon points="219,699 216,699 216,697 219,697 219,696 215,696 215,700 218,700 218,702 215,702 215,703 219,703   "/>
		<polygon points="229,702 226,702 226,696 225,696 225,703 229,703   "/>
		<path d="M226.617,684.816c0.238-0.383,0.383-0.832,0.383-1.316c0-1.38-1.119-2.5-2.5-2.5s-2.5,1.12-2.5,2.5    c0,0.484,0.145,0.934,0.383,1.316L214.801,692H212v15h25v-15h-2.801L226.617,684.816z M223,683.5c0-0.827,0.673-1.5,1.5-1.5    s1.5,0.673,1.5,1.5s-0.673,1.5-1.5,1.5S223,684.327,223,683.5z M223.068,685.545c0.406,0.285,0.898,0.455,1.432,0.455    s1.025-0.17,1.432-0.455l6.813,6.455h-16.49L223.068,685.545z M236,706h-23v-13h23V706z"/>
		<path d="M224,696h-4v7h4V696z M223,702h-2v-5h2V702z"/>
		<path d="M234,702v-5l-1-1h-3v7h3L234,702z M231,702v-5h1.586l0.414,0.414v4.172L232.586,702H231z"/>
	</g>
	
    </g>
</svg>
