<?xml version="1.0" encoding="iso-8859-1"?>
<!DOCTYPE svg PUBLIC "-//W3C//DTD SVG 1.1//EN" "http://www.w3.org/Graphics/SVG/1.1/DTD/svg11.dtd">
<svg version="1.1" xmlns="http://www.w3.org/2000/svg" xmlns:xlink="http://www.w3.org/1999/xlink" x="0px" y="0px" width="30" height="30" viewBox="0 0 30 30" xml:space="preserve">
    <g transform="translate(-570 -440)">
        <g xmlns="http://www.w3.org/2000/svg" xmlns:xlink="http://www.w3.org/1999/xlink" id="tag-double-7">
		<path d="M592,443l-1.414,1.414L589.172,443h-4.243l-13.435,13.436l7.778,7.778l7.728-7.729V467h11v-19l-3-3h-2v-2H592z M592,445    h-0.585l0.585-0.585V445z M579.272,462.8l-6.364-6.364L585.344,444h3.414l1.121,1.121L587,448v7.071L579.272,462.8z M594.586,446    l2.414,2.414V466h-9v-17.586l2.414-2.414H592v2h1v-2H594.586z"/>
	</g>
	
    </g>
</svg>
