<?xml version="1.0" encoding="iso-8859-1"?>
<!DOCTYPE svg PUBLIC "-//W3C//DTD SVG 1.1//EN" "http://www.w3.org/Graphics/SVG/1.1/DTD/svg11.dtd">
<svg version="1.1" xmlns="http://www.w3.org/2000/svg" xmlns:xlink="http://www.w3.org/1999/xlink" x="0px" y="0px" width="29" height="30" viewBox="0 0 29 30" xml:space="preserve">
    <g transform="translate(-270 -680)">
        <g xmlns="http://www.w3.org/2000/svg" xmlns:xlink="http://www.w3.org/1999/xlink" id="tax-sign-7">
		<path d="M272,692v15h25v-15h-2.801l-7.582-7.184c0.238-0.383,0.383-0.832,0.383-1.316c0-1.38-1.119-2.5-2.5-2.5s-2.5,1.12-2.5,2.5    c0,0.484,0.145,0.934,0.383,1.316L274.801,692H272z M296,706h-23v-13h23V706z M283,683.5c0-0.827,0.673-1.5,1.5-1.5    s1.5,0.673,1.5,1.5s-0.673,1.5-1.5,1.5S283,684.327,283,683.5z M283.068,685.545c0.406,0.285,0.898,0.455,1.432,0.455    s1.025-0.17,1.432-0.455l6.813,6.455h-16.49L283.068,685.545z"/>
		<path d="M283,700h2v3h1v-7h-4v7h1V700z M283,697h2v2h-2V697z"/>
		<polygon points="278,703 279,703 279,697 281,697 281,696 276,696 276,697 278,697   "/>
		<polygon points="288.193,703 289.862,700.421 291.532,703 292.725,703 290.459,699.501 292.725,696 291.533,696 289.862,698.58     288.191,696 287,696 289.267,699.501 287,703   "/>
	</g>
	
    </g>
</svg>
