<?xml version="1.0" encoding="iso-8859-1"?>
<!DOCTYPE svg PUBLIC "-//W3C//DTD SVG 1.1//EN" "http://www.w3.org/Graphics/SVG/1.1/DTD/svg11.dtd">
<svg version="1.1" xmlns="http://www.w3.org/2000/svg" xmlns:xlink="http://www.w3.org/1999/xlink" x="0px" y="0px" width="30" height="30" viewBox="0 0 30 30" xml:space="preserve">
    <g transform="translate(-390 -140)">
        <g xmlns="http://www.w3.org/2000/svg" xmlns:xlink="http://www.w3.org/1999/xlink" id="uptrend-7">
		<path d="M419,167h-3v-15h-6v15h-2v-12h-6v12h-2v-9h-6v9h-3v1h28V167z M395,167v-8h4v8H395z M403,167v-11h4v11H403z M411,167v-14h4    v14H411z"/>
		<polygon points="413.667,149.993 416.349,144.62 410.795,142.335 410.413,143.26 414.293,144.856 393.824,152.532     394.176,153.468 414.646,145.792 412.771,149.546   "/>
	</g>
	
    </g>
</svg>
