<?xml version="1.0" encoding="iso-8859-1"?>
<!DOCTYPE svg PUBLIC "-//W3C//DTD SVG 1.1//EN" "http://www.w3.org/Graphics/SVG/1.1/DTD/svg11.dtd">
<svg version="1.1" xmlns="http://www.w3.org/2000/svg" xmlns:xlink="http://www.w3.org/1999/xlink" x="0px" y="0px" width="30" height="30" viewBox="0 0 30 30" xml:space="preserve">
    <g transform="translate(-450 -260)">
        <g xmlns="http://www.w3.org/2000/svg" xmlns:xlink="http://www.w3.org/1999/xlink" id="wallet-tick-7">
		<rect x="466" y="272" width="1" height="1"/>
		<rect x="464" y="272" width="1" height="1"/>
		<path d="M477,276.51V273v-1c0-1.104-0.896-2-2-2h-0.315L469,262l-11.259,8H455c-1.104,0-2,0.896-2,2v13c0,1.104,0.896,2,2,2h11.51    c1.369,1.819,3.539,3,5.99,3c4.143,0,7.5-3.358,7.5-7.5C480,280.049,478.818,277.878,477,276.51z M468.764,263.395l4.693,6.605    h-13.989L468.764,263.395z M455,286c-0.552,0-1-0.449-1-1v-13c0-0.551,0.448-1,1-1h20c0.552,0,1,0.449,1,1h-8v1h8v2.869    c-1.045-0.553-2.235-0.869-3.5-0.869c-4.143,0-7.5,3.358-7.5,7.5c0,1.265,0.316,2.455,0.869,3.5H455z M472.5,289    c-3.59,0-6.5-2.91-6.5-6.5s2.91-6.5,6.5-6.5s6.5,2.91,6.5,6.5S476.09,289,472.5,289z"/>
		<polygon points="476.742,280.025 476.035,279.318 471.086,284.268 468.965,282.146 468.258,282.854 471.086,285.682   "/>
	</g>
	
    </g>
</svg>
