<?xml version="1.0" encoding="iso-8859-1"?>
<!DOCTYPE svg PUBLIC "-//W3C//DTD SVG 1.1//EN" "http://www.w3.org/Graphics/SVG/1.1/DTD/svg11.dtd">
<svg version="1.1" xmlns="http://www.w3.org/2000/svg" xmlns:xlink="http://www.w3.org/1999/xlink" x="0px" y="0px" width="30" height="30" viewBox="0 0 30 30" xml:space="preserve">
    <g transform="translate(-570 -560)">
        <g xmlns="http://www.w3.org/2000/svg" xmlns:xlink="http://www.w3.org/1999/xlink" id="yen-decor-7">
		<path d="M575.955,584.044c-0.029,2.693,1.555,3.773,4.066,2.742c1.012,2.521,2.947,2.933,4.979,1.005    c2.033,1.928,3.969,1.516,4.98-1.005c2.51,1.031,4.096-0.049,4.064-2.742c2.695,0.032,3.773-1.554,2.744-4.065    c2.52-1.01,2.93-2.946,1.006-4.979c1.924-2.033,1.514-3.97-1.006-4.979c1.029-2.512-0.049-4.098-2.744-4.065    c0.031-2.693-1.555-3.773-4.064-2.742c-1.012-2.521-2.947-2.932-4.98-1.005c-2.031-1.927-3.967-1.516-4.979,1.005    c-2.512-1.031-4.096,0.049-4.066,2.742c-2.693-0.032-3.773,1.554-2.742,4.065c-2.52,1.01-2.932,2.946-1.006,4.979    c-1.926,2.033-1.514,3.97,1.006,4.979C572.182,582.49,573.262,584.076,575.955,584.044z M572.025,577.686    c-0.119-0.545,0.203-1.255,0.907-1.999l0.651-0.688l-0.651-0.688c-0.704-0.744-1.026-1.454-0.907-1.999    c0.114-0.523,0.669-1.008,1.56-1.364l0.936-0.376l-0.383-0.933c-0.366-0.892-0.41-1.617-0.124-2.043    c0.277-0.415,0.938-0.643,1.861-0.643h1.011l0.069-1.011c-0.009-0.834,0.167-1.476,0.495-1.808c0.206-0.208,0.488-0.31,0.862-0.31    c0.38,0,0.827,0.104,1.329,0.311l0.933,0.383l0.375-0.936c0.29-0.723,0.804-1.584,1.6-1.584c0.503,0,1.129,0.331,1.763,0.933    l0.688,0.652l0.688-0.652c0.636-0.602,1.263-0.933,1.766-0.933c0.796,0,1.31,0.861,1.6,1.584l0.375,0.937l0.933-0.384    c0.501-0.206,0.948-0.311,1.328-0.311c0.375,0,0.656,0.102,0.862,0.31c0.328,0.332,0.504,0.974,0.494,1.807l-0.012,1.023    c0,0,1.025-0.012,1.026-0.012c0.99,0,1.65,0.228,1.928,0.642c0.286,0.427,0.242,1.152-0.124,2.045l-0.382,0.933l0.936,0.375    c0.891,0.356,1.444,0.841,1.559,1.363c0.119,0.545-0.202,1.256-0.907,2l-0.65,0.688l0.65,0.688c0.705,0.744,1.026,1.455,0.907,2    c-0.114,0.522-0.668,1.007-1.559,1.363l-0.936,0.375l0.382,0.933c0.366,0.893,0.41,1.618,0.124,2.045    c-0.278,0.414-0.939,0.642-1.862,0.642h-1.012l-0.068,1.012c0.01,0.833-0.166,1.475-0.494,1.807    c-0.206,0.208-0.487,0.31-0.862,0.31c-0.38,0-0.827-0.104-1.328-0.311l-0.933-0.384l-0.375,0.937    c-0.291,0.723-0.804,1.585-1.601,1.585c-0.503,0-1.129-0.332-1.764-0.934L585,586.413l-0.688,0.652    c-0.634,0.602-1.26,0.934-1.763,0.934c-0.796,0-1.309-0.862-1.6-1.585l-0.375-0.936l-0.933,0.383    c-0.502,0.206-0.949,0.311-1.329,0.311c-0.375,0-0.656-0.102-0.862-0.31c-0.328-0.332-0.504-0.974-0.495-1.808l0.011-1.022    c0,0-1.024,0.012-1.025,0.012c-0.989,0-1.649-0.229-1.927-0.642c-0.286-0.427-0.242-1.152,0.124-2.044l0.383-0.933l-0.936-0.376    C572.694,578.693,572.14,578.209,572.025,577.686z"/>
		<polygon points="582.464,581 584.059,581 584.843,578.076 587.264,578.076 587.534,577.068 585.113,577.068 585.303,576.362     585.756,575.807 587.872,575.807 588.142,574.799 586.578,574.799 591.124,569 589.375,569 584.947,574.933 583.612,569     581.779,569 583.301,574.799 581.755,574.799 581.485,575.807 583.554,575.807 583.706,576.362 583.518,577.068 581.147,577.068     580.876,578.076 583.247,578.076   "/>
	</g>
	
    </g>
</svg>
