<?xml version="1.0" encoding="iso-8859-1"?>
<!DOCTYPE svg PUBLIC "-//W3C//DTD SVG 1.1//EN" "http://www.w3.org/Graphics/SVG/1.1/DTD/svg11.dtd">
<svg version="1.1" xmlns="http://www.w3.org/2000/svg" xmlns:xlink="http://www.w3.org/1999/xlink" x="0px" y="0px" width="30" height="30" viewBox="0 0 30 30" xml:space="preserve">
    <g transform="translate(-330 -80)">
        <g xmlns="http://www.w3.org/2000/svg" xmlns:xlink="http://www.w3.org/1999/xlink" id="_x38_ball-7">
		<path d="M345,108c7.18,0,13-5.82,13-13s-5.82-13-13-13s-13,5.82-13,13S337.82,108,345,108z M345,83c6.617,0,12,5.383,12,12    s-5.383,12-12,12s-12-5.383-12-12S338.383,83,345,83z"/>
		<path d="M345,102c3.867,0,7-3.134,7-7s-3.133-7-7-7c-3.865,0-7,3.134-7,7S341.135,102,345,102z M345,89c3.309,0,6,2.691,6,6    s-2.691,6-6,6s-6-2.691-6-6S341.691,89,345,89z"/>
		<path d="M342.367,96.932c0,1.14,0.983,2.099,2.615,2.099c1.487,0,2.65-0.899,2.65-2.267c0-0.936-0.6-1.631-1.571-2.015v-0.036    c0.96-0.444,1.295-1.163,1.295-1.823c0-0.983-0.768-1.919-2.278-1.919c-1.379,0-2.423,0.84-2.423,2.075    c0,0.671,0.372,1.343,1.247,1.751l0.013,0.036C342.955,95.24,342.367,95.948,342.367,96.932z M343.663,92.974    c0-0.672,0.479-1.247,1.355-1.247c0.947,0,1.319,0.647,1.319,1.271c0,0.707-0.517,1.187-1.188,1.415    C344.251,94.173,343.65,93.753,343.663,92.974z M344.851,95.169c1.055,0.3,1.715,0.768,1.715,1.702    c0,0.804-0.612,1.392-1.56,1.392c-0.995,0-1.595-0.695-1.559-1.476C343.447,96.044,343.938,95.433,344.851,95.169z"/>
	</g>
	
    </g>
</svg>
