<?xml version="1.0" encoding="iso-8859-1"?>
<!DOCTYPE svg PUBLIC "-//W3C//DTD SVG 1.1//EN" "http://www.w3.org/Graphics/SVG/1.1/DTD/svg11.dtd">
<svg version="1.1" xmlns="http://www.w3.org/2000/svg" xmlns:xlink="http://www.w3.org/1999/xlink" x="0px" y="0px" width="30" height="30" viewBox="0 0 30 30" xml:space="preserve">
    <g transform="translate(-390 -80)">
        <g xmlns="http://www.w3.org/2000/svg" xmlns:xlink="http://www.w3.org/1999/xlink" id="_x39_ball-7">
		<path d="M405,108c7.18,0,13-5.82,13-13s-5.82-13-13-13s-13,5.82-13,13S397.82,108,405,108z M397.089,104h15.822    c-2.114,1.861-4.879,3-7.911,3S399.203,105.861,397.089,104z M412.911,86h-15.822c2.114-1.861,4.879-3,7.911-3    S410.797,84.139,412.911,86z M396.081,87h17.838c1.909,2.125,3.081,4.925,3.081,8s-1.172,5.875-3.081,8h-17.838    c-1.909-2.125-3.081-4.925-3.081-8S394.172,89.125,396.081,87z"/>
		<path d="M405,102c3.867,0,7-3.134,7-7s-3.133-7-7-7c-3.865,0-7,3.134-7,7S401.135,102,405,102z M405,89c3.309,0,6,2.691,6,6    s-2.691,6-6,6s-6-2.691-6-6S401.691,89,405,89z"/>
		<path d="M404.77,96.146c0.664,0,1.25-0.282,1.758-0.844c-0.055,0.942-0.229,1.663-0.52,2.163s-0.674,0.75-1.15,0.75    c-0.74,0-1.152-0.381-1.238-1.143h-1.02c0.082,0.637,0.326,1.118,0.73,1.442S404.223,99,404.799,99    c1.824,0,2.736-1.417,2.736-4.249c0-1.211-0.232-2.139-0.695-2.784c-0.463-0.645-1.113-0.967-1.953-0.967    c-0.732,0-1.318,0.258-1.76,0.773c-0.441,0.516-0.662,1.141-0.662,1.875c0,0.723,0.223,1.32,0.668,1.791    S404.123,96.146,404.77,96.146z M403.881,92.298c0.256-0.346,0.598-0.519,1.029-0.519c0.488,0,0.879,0.237,1.172,0.709    s0.445,1.154,0.457,2.045c-0.52,0.551-1.053,0.826-1.6,0.826c-0.439,0-0.789-0.166-1.051-0.498s-0.393-0.758-0.393-1.278    C403.496,93.073,403.625,92.644,403.881,92.298z"/>
	</g>
	
    </g>
</svg>
