<?xml version="1.0" encoding="iso-8859-1"?>
<!DOCTYPE svg PUBLIC "-//W3C//DTD SVG 1.1//EN" "http://www.w3.org/Graphics/SVG/1.1/DTD/svg11.dtd">
<svg version="1.1" xmlns="http://www.w3.org/2000/svg" xmlns:xlink="http://www.w3.org/1999/xlink" x="0px" y="0px" width="30" height="30" viewBox="0 0 30 30" xml:space="preserve">
    <g transform="translate(-270 -80)">
        <g xmlns="http://www.w3.org/2000/svg" xmlns:xlink="http://www.w3.org/1999/xlink" id="american-football-7">
		<path d="M282.988,106.437c0.37-0.089,0.742-0.185,1.118-0.297c2.659-0.796,5.396-2.192,7.618-4.416    c2.223-2.223,3.617-4.957,4.414-7.617c0.112-0.375,0.209-0.748,0.297-1.12c0.998-4.162,0.564-7.93-0.465-8.958    c-1.028-1.029-4.796-1.463-8.959-0.466c-0.371,0.09-0.742,0.186-1.119,0.297c-2.659,0.796-5.395,2.192-7.617,4.416    c-2.223,2.223-3.618,4.958-4.414,7.618c-0.113,0.375-0.209,0.747-0.298,1.119c-0.998,4.162-0.563,7.931,0.466,8.959    C275.057,107,278.826,107.435,282.988,106.437z M295.263,84.737c0.67,0.669,1.058,3.777,0.319,7.397l-7.717-7.717    C291.486,83.679,294.594,84.067,295.263,84.737z M278.984,88.983c2.271-2.271,5.083-3.592,7.736-4.295l8.591,8.592    c-0.704,2.653-2.023,5.464-4.295,7.736c-2.272,2.271-5.085,3.592-7.737,4.296l-8.592-8.591    C275.392,94.068,276.713,91.255,278.984,88.983z M274.417,97.865l7.718,7.718c-3.62,0.738-6.729,0.35-7.398-0.32    C274.066,104.594,273.679,101.485,274.417,97.865z"/>
		<polygon points="285,98.539 283.584,97.124 285,95.708 286.415,97.124 287.123,96.416 285.707,95 287.123,93.585 288.539,95     289.246,94.292 287.83,92.877 289.246,91.461 288.539,90.754 287.123,92.169 285.707,90.754 285,91.461 286.415,92.877     285,94.292 283.584,92.877 282.877,93.585 284.292,95 282.877,96.416 281.461,95 280.754,95.708 282.169,97.124 280.754,98.539     281.461,99.247 282.877,97.831 284.292,99.247   "/>
	</g>
	
    </g>
</svg>
