<?xml version="1.0" encoding="iso-8859-1"?>
<!DOCTYPE svg PUBLIC "-//W3C//DTD SVG 1.1//EN" "http://www.w3.org/Graphics/SVG/1.1/DTD/svg11.dtd">
<svg version="1.1" xmlns="http://www.w3.org/2000/svg" xmlns:xlink="http://www.w3.org/1999/xlink" x="0px" y="0px" width="30" height="30" viewBox="0 0 30 30" xml:space="preserve">
    <g transform="translate(-210 -140)">
        <g xmlns="http://www.w3.org/2000/svg" xmlns:xlink="http://www.w3.org/1999/xlink" id="badminton-racquet-7">
		<rect x="227.655" y="157.306" transform="matrix(-0.7071 0.7071 -0.7071 -0.7071 502.8126 112.2658)" width="1" height="5.925"/>
		<path d="M222.076,153.482c1.568-2,1.18-5.184-1.018-7.381c-2.344-2.344-5.826-2.661-7.778-0.708    c-1.953,1.953-1.636,5.435,0.708,7.778c2.197,2.198,5.381,2.586,7.381,1.018l2.217,2.217l0.707-0.707L222.076,153.482z     M214.695,152.465c-1.95-1.95-2.268-4.805-0.708-6.364s4.415-1.242,6.364,0.708c1.949,1.949,2.266,4.804,0.707,6.363    C219.498,154.731,216.645,154.414,214.695,152.465z"/>
		<rect x="229.372" y="163.485" transform="matrix(0.7071 0.7071 -0.7071 0.7071 184.3849 -116.1376)" width="6" height="2.001"/>
		<path d="M236.72,145.394c-1.952-1.953-5.435-1.636-7.778,0.708c-1.896,1.896-2.439,4.527-1.552,6.501    c0.142,0.313,0.319,0.606,0.534,0.88l-8.527,8.528l0.707,0.707l8.527-8.528c0.273,0.215,0.566,0.393,0.88,0.534    c1.974,0.888,4.604,0.345,6.501-1.552C238.355,150.828,238.673,147.346,236.72,145.394z M235.305,152.465    c-1.949,1.949-4.803,2.266-6.363,0.707c-1.559-1.56-1.242-4.414,0.707-6.363c1.949-1.95,4.805-2.267,6.364-0.708    S237.255,150.515,235.305,152.465z"/>
		<polygon points="219.042,161.657 218.336,162.364 214.8,165.899 216.214,167.313 219.75,163.778 220.457,163.071   "/>
	</g>
	
    </g>
</svg>
