<?xml version="1.0" encoding="iso-8859-1"?>
<!DOCTYPE svg PUBLIC "-//W3C//DTD SVG 1.1//EN" "http://www.w3.org/Graphics/SVG/1.1/DTD/svg11.dtd">
<svg version="1.1" xmlns="http://www.w3.org/2000/svg" xmlns:xlink="http://www.w3.org/1999/xlink" x="0px" y="0px" width="29" height="30" viewBox="0 0 29 30" xml:space="preserve">
    <g transform="translate(-210 -80)">
        <g xmlns="http://www.w3.org/2000/svg" xmlns:xlink="http://www.w3.org/1999/xlink" id="baseball-7">
		<path d="M215.652,103.348c2.086,2.087,4.728,3.273,7.449,3.579c0.333,0.037,0.668,0.057,1.002,0.067    c3.334,0.104,6.699-1.103,9.243-3.646c2.372-2.372,3.581-5.459,3.651-8.566c0.007-0.333-0.002-0.665-0.021-0.998    c-0.169-2.959-1.37-5.87-3.63-8.13c-2.261-2.26-5.171-3.46-8.13-3.63c-0.333-0.019-0.666-0.028-0.998-0.021    c-3.107,0.069-6.195,1.279-8.566,3.651c-2.543,2.543-3.75,5.91-3.646,9.243c0.012,0.335,0.031,0.669,0.068,1.002    C212.379,98.62,213.565,101.261,215.652,103.348z M232.639,102.641c-2.313,2.313-5.375,3.424-8.413,3.354    c0.169-1.026,0.482-2.053,0.927-3.056l1.471,1.471l0.707-0.708l-1.711-1.712c0.623-1.149,1.426-2.249,2.42-3.243l1.414,1.417    l0.709-0.708l-1.387-1.386c1.074-0.935,2.244-1.667,3.457-2.206l1.469,1.468l0.707-0.708l-1.162-1.161    c0.908-0.316,1.83-0.532,2.742-0.625C235.906,97.672,234.797,100.482,232.639,102.641z M224.324,86.541    c0.447-1.156,0.732-2.341,0.844-3.512c2.721,0.156,5.396,1.259,7.471,3.333s3.177,4.75,3.334,7.471    c-1.172,0.111-2.355,0.396-3.512,0.844l-1.592-1.591l-0.707,0.708l1.307,1.307c-1.194,0.57-2.34,1.331-3.4,2.262l-1.445-1.445    l-0.708,0.708l1.415,1.416c-0.989,0.99-1.799,2.079-2.445,3.217l-1.093-1.093l-0.708,0.708l1.315,1.315    c-0.58,1.22-0.981,2.483-1.178,3.743c-2.508-0.279-4.942-1.37-6.862-3.288c-1.918-1.919-3.01-4.354-3.287-6.861    c1.26-0.197,2.521-0.598,3.742-1.179l1.314,1.316l0.709-0.708l-1.094-1.093c1.139-0.647,2.227-1.457,3.217-2.445l1.415,1.415    l0.708-0.708l-1.445-1.446c0.931-1.061,1.691-2.206,2.262-3.4l1.307,1.307l0.708-0.708L224.324,86.541z M216.359,86.361    c2.16-2.158,4.969-3.268,7.803-3.35c-0.093,0.913-0.309,1.833-0.624,2.743l-1.162-1.162l-0.708,0.708l1.469,1.469    c-0.538,1.211-1.271,2.381-2.206,3.456l-1.386-1.386l-0.707,0.708l1.415,1.416c-0.994,0.993-2.094,1.796-3.243,2.418l-1.711-1.71    l-0.708,0.708l1.471,1.47c-1.003,0.444-2.029,0.758-3.056,0.927C212.936,91.737,214.047,88.675,216.359,86.361z"/>
	</g>
	
    </g>
</svg>
