<?xml version="1.0" encoding="iso-8859-1"?>
<!DOCTYPE svg PUBLIC "-//W3C//DTD SVG 1.1//EN" "http://www.w3.org/Graphics/SVG/1.1/DTD/svg11.dtd">
<svg version="1.1" xmlns="http://www.w3.org/2000/svg" xmlns:xlink="http://www.w3.org/1999/xlink" x="0px" y="0px" width="48" height="30" viewBox="0 0 48 30" xml:space="preserve">
    <g transform="translate(-552 -200)">
        <g xmlns="http://www.w3.org/2000/svg" xmlns:xlink="http://www.w3.org/1999/xlink" id="baseball-field-7">
		<path d="M574.168,225.99c-0.176,0.297-0.283,0.64-0.283,1.01c0,1.104,0.896,2,2,2s2-0.896,2-2c0-0.37-0.107-0.713-0.283-1.01    l7.49-7.49l14.146-14.146l-0.707-0.707l-3.992,3.993c-5.144-4.605-11.735-7.139-18.654-7.139s-13.511,2.534-18.654,7.139    l-3.992-3.993l-0.707,0.707l14.146,14.146L574.168,225.99z M574.505,212.087c0.229,0.536,0.76,0.913,1.38,0.913    s1.151-0.376,1.38-0.913l5.032,5.032c-0.536,0.229-0.912,0.761-0.912,1.38s0.376,1.152,0.913,1.38l-5.403,5.403    c-0.297-0.176-0.64-0.283-1.01-0.283s-0.713,0.107-1.01,0.283l-5.403-5.403c0.537-0.229,0.913-0.761,0.913-1.38    s-0.376-1.152-0.912-1.38L574.505,212.087z M557.938,208.347c4.954-4.417,11.293-6.847,17.946-6.847s12.992,2.43,17.946,6.847    l-9.446,9.446l-8.5-8.5l-8.5,8.5L557.938,208.347z"/>
		<circle cx="575.885" cy="218.5" r="1.5"/>
	</g>
	
    </g>
</svg>
