<?xml version="1.0" encoding="iso-8859-1"?>
<!DOCTYPE svg PUBLIC "-//W3C//DTD SVG 1.1//EN" "http://www.w3.org/Graphics/SVG/1.1/DTD/svg11.dtd">
<svg version="1.1" xmlns="http://www.w3.org/2000/svg" xmlns:xlink="http://www.w3.org/1999/xlink" x="0px" y="0px" width="30" height="30" viewBox="0 0 30 30" xml:space="preserve">
    <g transform="translate(-270 -140)">
        <g xmlns="http://www.w3.org/2000/svg" xmlns:xlink="http://www.w3.org/1999/xlink" id="baseball-bat-7">
		<path d="M281.677,153.034l-8.448-8.452c-0.285-0.285-0.155-0.544,0.004-0.711l0.703-0.703c0.163-0.155,0.423-0.284,0.707,0    l8.485,8.485l0.646,0.789l0.645-0.787l-0.55-0.671l-8.519-8.522c-0.778-0.778-1.695-0.426-2.121,0l-0.707,0.707    c-0.427,0.427-0.778,1.343,0,2.122l8.485,8.485l1.003,0.821l0.632-0.772L281.677,153.034z"/>
		<path d="M289.458,159.395l6.751,6.754l-6.717-6.717l-2.855-2.337l-0.789,0.646l2.972,2.434l7.036,7.036    c-0.195,0.195-0.195,0.512,0,0.707s0.512,0.195,0.707,0l1.414-1.414c0.196-0.196,0.196-0.512,0-0.708    c-0.195-0.195-0.512-0.195-0.707,0l-7.07-7.071l-2.227-2.723l-0.772,0.632L289.458,159.395z"/>
		<path d="M296.893,142.461c-0.426-0.426-1.343-0.778-2.121,0l-8.519,8.522l-6.331,7.741l-7.07,7.071    c-0.195-0.195-0.512-0.195-0.707,0c-0.196,0.196-0.196,0.512,0,0.708l1.414,1.414c0.195,0.195,0.512,0.195,0.707,0    s0.195-0.512,0-0.707l7.036-7.036l7.813-6.399l8.485-8.485c0.778-0.778,0.427-1.695,0-2.122L296.893,142.461z M296.893,144.583    l-8.448,8.452l-7.815,6.397l-6.717,6.717l6.751-6.754l6.33-7.741l8.485-8.485c0.284-0.284,0.544-0.155,0.707,0l0.703,0.703    C297.048,144.039,297.178,144.298,296.893,144.583z"/>
	</g>
	
    </g>
</svg>
