<?xml version="1.0" encoding="iso-8859-1"?>
<!DOCTYPE svg PUBLIC "-//W3C//DTD SVG 1.1//EN" "http://www.w3.org/Graphics/SVG/1.1/DTD/svg11.dtd">
<svg version="1.1" xmlns="http://www.w3.org/2000/svg" xmlns:xlink="http://www.w3.org/1999/xlink" x="0px" y="0px" width="29" height="30" viewBox="0 0 29 30" xml:space="preserve">
    <g transform="translate(-90 -80)">
        <g xmlns="http://www.w3.org/2000/svg" xmlns:xlink="http://www.w3.org/1999/xlink" id="basketball-7">
		<path d="M95.652,103.348c2.087,2.087,4.728,3.273,7.449,3.579c0.333,0.037,0.668,0.057,1.002,0.067    c3.334,0.104,6.699-1.103,9.243-3.646c2.372-2.372,3.581-5.459,3.651-8.566c0.007-0.333-0.002-0.665-0.021-0.998    c-0.169-2.959-1.37-5.87-3.63-8.13s-5.171-3.461-8.13-3.63c-0.333-0.019-0.666-0.028-0.998-0.021    c-3.107,0.069-6.195,1.279-8.566,3.651c-2.543,2.543-3.75,5.91-3.646,9.243c0.012,0.334,0.031,0.669,0.068,1.002    C92.379,98.62,93.566,101.261,95.652,103.348z M93.072,95.779c2.786-0.437,5.595-1.815,7.889-4.109l2.831,2.831l-7.768,7.767    C94.32,100.411,93.333,98.131,93.072,95.779z M103.222,105.929c-2.353-0.261-4.632-1.249-6.489-2.953l7.768-7.767l2.83,2.831    C105.037,100.333,103.658,103.142,103.222,105.929z M104.226,105.994c0.421-2.555,1.7-5.135,3.813-7.247l4.229,4.229    C110.002,105.054,107.107,106.061,104.226,105.994z M112.975,102.268l-4.199-4.198c2.166-1.886,4.722-2.978,7.214-3.232    C115.911,97.516,114.905,100.164,112.975,102.268z M115.973,93.833c-2.739,0.261-5.543,1.455-7.904,3.53l-2.861-2.861l7.768-7.767    C114.826,88.751,115.824,91.269,115.973,93.833z M105.168,83.028c2.564,0.147,5.08,1.146,7.1,2.998l-7.768,7.767l-2.862-2.862    C103.713,88.57,104.907,85.767,105.168,83.028z M104.162,83.012c-0.254,2.492-1.346,5.048-3.231,7.213l-4.198-4.198    C98.836,84.095,101.484,83.09,104.162,83.012z M96.024,86.734l4.229,4.229c-2.112,2.111-4.692,3.392-7.246,3.813    C92.939,91.893,93.947,89,96.024,86.734z"/>
	</g>
	
    </g>
</svg>
