<?xml version="1.0" encoding="iso-8859-1"?>
<!DOCTYPE svg PUBLIC "-//W3C//DTD SVG 1.1//EN" "http://www.w3.org/Graphics/SVG/1.1/DTD/svg11.dtd">
<svg version="1.1" xmlns="http://www.w3.org/2000/svg" xmlns:xlink="http://www.w3.org/1999/xlink" x="0px" y="0px" width="30" height="30" viewBox="0 0 30 30" xml:space="preserve">
    <g transform="translate(-450 -80)">
        <g xmlns="http://www.w3.org/2000/svg" xmlns:xlink="http://www.w3.org/1999/xlink" id="bowling-7">
		<path d="M465,108c7.18,0,13-5.82,13-13s-5.82-13-13-13s-13,5.82-13,13S457.82,108,465,108z M465,83c6.617,0,12,5.383,12,12    s-5.383,12-12,12s-12-5.383-12-12S458.383,83,465,83z"/>
		<path d="M464,89c1.104,0,2-0.895,2-2s-0.896-2-2-2s-2,0.895-2,2S462.896,89,464,89z M464,86c0.552,0,1,0.448,1,1s-0.448,1-1,1    s-1-0.448-1-1S463.448,86,464,86z"/>
		<path d="M468,94c1.104,0,2-0.895,2-2s-0.896-2-2-2s-2,0.895-2,2S466.896,94,468,94z M468,91c0.553,0,1,0.448,1,1s-0.447,1-1,1    s-1-0.448-1-1S467.447,91,468,91z"/>
		<path d="M459,95c0-1.105-0.896-2-2-2s-2,0.895-2,2s0.896,2,2,2S459,96.105,459,95z M456,95c0-0.552,0.447-1,1-1s1,0.448,1,1    s-0.447,1-1,1S456,95.552,456,95z"/>
	</g>
	
    </g>
</svg>
