<?xml version="1.0" encoding="iso-8859-1"?>
<!DOCTYPE svg PUBLIC "-//W3C//DTD SVG 1.1//EN" "http://www.w3.org/Graphics/SVG/1.1/DTD/svg11.dtd">
<svg version="1.1" xmlns="http://www.w3.org/2000/svg" xmlns:xlink="http://www.w3.org/1999/xlink" x="0px" y="0px" width="30" height="30" viewBox="0 0 30 30" xml:space="preserve">
    <g transform="translate(-510 -320)">
        <g xmlns="http://www.w3.org/2000/svg" xmlns:xlink="http://www.w3.org/1999/xlink" id="chess-7">
		<path d="M534.5,343h-0.392c-4.28-4.938-6.608-10.563-7.567-13.31c1.443-0.604,2.459-2.028,2.459-3.69c0-2.209-1.791-4-4-4    s-4,1.791-4,4c0,1.662,1.016,3.087,2.459,3.69c-0.959,2.746-3.287,8.372-7.567,13.31H515.5c-1.381,0-2.5,1.119-2.5,2.5    s1.119,2.5,2.5,2.5h19c1.381,0,2.5-1.119,2.5-2.5S535.881,343,534.5,343z M522,326c0-1.654,1.346-3,3-3s3,1.346,3,3s-1.346,3-3,3    S522,327.654,522,326z M524.436,329.943C524.622,329.97,524.807,330,525,330s0.378-0.03,0.564-0.057    c0.925,2.682,3.135,8.104,7.222,13.057h-15.572C521.301,338.047,523.511,332.625,524.436,329.943z M534.5,347h-19    c-0.827,0-1.5-0.673-1.5-1.5s0.673-1.5,1.5-1.5h19c0.827,0,1.5,0.673,1.5,1.5S535.327,347,534.5,347z"/>
	</g>
	
    </g>
</svg>
