<?xml version="1.0" encoding="iso-8859-1"?>
<!DOCTYPE svg PUBLIC "-//W3C//DTD SVG 1.1//EN" "http://www.w3.org/Graphics/SVG/1.1/DTD/svg11.dtd">
<svg version="1.1" xmlns="http://www.w3.org/2000/svg" xmlns:xlink="http://www.w3.org/1999/xlink" x="0px" y="0px" width="30" height="30" viewBox="0 0 30 30" xml:space="preserve">
    <g transform="translate(-150 -380)">
        <g xmlns="http://www.w3.org/2000/svg" xmlns:xlink="http://www.w3.org/1999/xlink" id="chip-7">
		<path d="M165,382c-7.181,0-13,5.819-13,13s5.819,13,13,13s13-5.819,13-13S172.181,382,165,382z M166,383.051    c1.459,0.121,2.841,0.508,4.105,1.105l-1.502,2.602c-0.813-0.356-1.688-0.597-2.604-0.699V383.051z M164,383.051v3.008    c-0.916,0.103-1.791,0.343-2.604,0.699l-1.502-2.602C161.159,383.559,162.541,383.172,164,383.051z M158.16,385.153l1.509,2.612    c-0.726,0.536-1.367,1.178-1.903,1.903l-2.612-1.509C155.97,386.988,156.988,385.97,158.16,385.153z M154.156,389.895l2.602,1.502    c-0.356,0.813-0.597,1.688-0.699,2.604h-3.008C153.172,392.541,153.559,391.159,154.156,389.895z M153.051,396h3.008    c0.103,0.916,0.343,1.791,0.699,2.604l-2.602,1.502C153.559,398.841,153.172,397.459,153.051,396z M158.16,404.847    c-1.172-0.816-2.19-1.835-3.007-3.007l2.612-1.509c0.536,0.726,1.178,1.367,1.903,1.903L158.16,404.847z M164,406.949    c-1.459-0.121-2.841-0.508-4.105-1.105l1.502-2.602c0.813,0.356,1.688,0.597,2.604,0.699V406.949z M157,395c0-4.412,3.588-8,8-8    s8,3.588,8,8s-3.588,8-8,8S157,399.412,157,395z M166,406.949v-3.008c0.916-0.103,1.791-0.343,2.604-0.699l1.502,2.602    C168.841,406.441,167.459,406.828,166,406.949z M171.84,404.847l-1.509-2.612c0.726-0.536,1.367-1.178,1.903-1.903l2.612,1.509    C174.03,403.012,173.012,404.03,171.84,404.847z M175.844,400.105l-2.602-1.502c0.356-0.813,0.597-1.688,0.699-2.604h3.008    C176.828,397.459,176.441,398.841,175.844,400.105z M176.949,394h-3.008c-0.103-0.916-0.343-1.791-0.699-2.604l2.602-1.502    C176.441,391.159,176.828,392.541,176.949,394z M172.234,389.669c-0.536-0.726-1.178-1.367-1.903-1.903l1.509-2.612    c1.172,0.816,2.19,1.835,3.007,3.007L172.234,389.669z"/>
		<path d="M166.625,393.162L165,389.871l-1.625,3.291l-3.632,0.528l2.628,2.563l-0.62,3.618l3.249-1.708l3.249,1.708l-0.62-3.618    l2.628-2.563L166.625,393.162z M166.921,398.043l-1.921-1.01l-1.921,1.01l0.366-2.139l-1.554-1.516l2.147-0.313L165,392.13    l0.961,1.946l2.147,0.313l-1.554,1.516L166.921,398.043z"/>
	</g>
	
    </g>
</svg>
