<?xml version="1.0" encoding="iso-8859-1"?>
<!DOCTYPE svg PUBLIC "-//W3C//DTD SVG 1.1//EN" "http://www.w3.org/Graphics/SVG/1.1/DTD/svg11.dtd">
<svg version="1.1" xmlns="http://www.w3.org/2000/svg" xmlns:xlink="http://www.w3.org/1999/xlink" x="0px" y="0px" width="29" height="30" viewBox="0 0 29 30" xml:space="preserve">
    <g transform="translate(-210 -320)">
        <g xmlns="http://www.w3.org/2000/svg" xmlns:xlink="http://www.w3.org/1999/xlink" id="cycling-7">
		<path d="M217,346c2.762,0,5-2.238,5-5s-2.238-5-5-5c-2.763,0-5,2.238-5,5S214.237,346,217,346z M217,337c2.206,0,4,1.795,4,4    c0,2.206-1.794,4-4,4c-2.205,0-4-1.794-4-4C213,338.795,214.795,337,217,337z"/>
		<path d="M232,346c2.762,0,5-2.238,5-5s-2.238-5-5-5c-2.763,0-5,2.238-5,5S229.237,346,232,346z M232,337c2.206,0,4,1.795,4,4    c0,2.206-1.794,4-4,4c-2.205,0-4-1.794-4-4C228,338.795,229.795,337,232,337z"/>
		<circle cx="227" cy="326" r="2"/>
		<polygon points="227.223,334 232,334 232,333 227.777,333 225.13,328.766 219.746,332.953 224,337.207 224,343 225,343     225,336.793 221.254,333.047 224.87,330.234   "/>
	</g>
	
    </g>
</svg>
