<?xml version="1.0" encoding="iso-8859-1"?>
<!DOCTYPE svg PUBLIC "-//W3C//DTD SVG 1.1//EN" "http://www.w3.org/Graphics/SVG/1.1/DTD/svg11.dtd">
<svg version="1.1" xmlns="http://www.w3.org/2000/svg" xmlns:xlink="http://www.w3.org/1999/xlink" x="0px" y="0px" width="30" height="30" viewBox="0 0 30 30" xml:space="preserve">
    <g transform="translate(-330 -320)">
        <g xmlns="http://www.w3.org/2000/svg" xmlns:xlink="http://www.w3.org/1999/xlink" id="dumbbell-7">
		<path d="M339,326h-2c-0.553,0-1,0.447-1,1v2h-2c-0.553,0-1,0.447-1,1v4h-1v2h1v4c0,0.553,0.447,1,1,1h2v2c0,0.553,0.447,1,1,1h2    c0.553,0,1-0.447,1-1v-7h10v7c0,0.553,0.447,1,1,1h2c0.553,0,1-0.447,1-1v-2h2c0.553,0,1-0.447,1-1v-4h1v-2h-1v-4    c0-0.553-0.447-1-1-1h-2v-2c0-0.553-0.447-1-1-1h-2c-0.553,0-1,0.447-1,1v7h-10v-7C340,326.447,339.553,326,339,326z M336,340h-2    v-10h2V340z M339,343h-2v-16h2V343z M354,330h2v10h-2V330z M351,327h2v16h-2V327z"/>
	</g>
	
    </g>
</svg>
