<?xml version="1.0" encoding="iso-8859-1"?>
<!DOCTYPE svg PUBLIC "-//W3C//DTD SVG 1.1//EN" "http://www.w3.org/Graphics/SVG/1.1/DTD/svg11.dtd">
<svg version="1.1" xmlns="http://www.w3.org/2000/svg" xmlns:xlink="http://www.w3.org/1999/xlink" x="0px" y="0px" width="47" height="30" viewBox="0 0 47 30" xml:space="preserve">
    <g transform="translate(-90 -200)">
        <g xmlns="http://www.w3.org/2000/svg" xmlns:xlink="http://www.w3.org/1999/xlink" id="football-field-7">
		<path d="M91,208v15v6h45v-6v-15v-6H91V208z M99,213.058c0.617,0.632,1,1.492,1,2.442s-0.383,1.811-1,2.442V213.058z M98,222h-6v-3    h2v-7h-2v-3h6V222z M93,213v5h-1v-5H93z M128,217.942c-0.617-0.632-1-1.492-1-2.442s0.383-1.811,1-2.442V217.942z M129,209h6v3h-2    v7h2v3h-6V209z M134,218v-5h1v5H134z M135,203v5h-7v3.76c-1.205,0.808-2,2.181-2,3.74s0.795,2.933,2,3.74V223h7v5h-21v-8.05    c2.246-0.252,4-2.136,4-4.45s-1.754-4.198-4-4.45V203H135z M114,212.051c1.692,0.245,3,1.69,3,3.449s-1.308,3.204-3,3.449V212.051    z M113,218.949c-1.692-0.245-3-1.69-3-3.449s1.308-3.204,3-3.449V218.949z M113,203v8.05c-2.246,0.252-4,2.136-4,4.45    s1.754,4.198,4,4.45V228H92v-5h7v-3.76c1.205-0.808,2-2.181,2-3.74s-0.795-2.933-2-3.74V208h-7v-5H113z"/>
	</g>
	
    </g>
</svg>
