<?xml version="1.0" encoding="iso-8859-1"?>
<!DOCTYPE svg PUBLIC "-//W3C//DTD SVG 1.1//EN" "http://www.w3.org/Graphics/SVG/1.1/DTD/svg11.dtd">
<svg version="1.1" xmlns="http://www.w3.org/2000/svg" xmlns:xlink="http://www.w3.org/1999/xlink" x="0px" y="0px" width="29" height="30" viewBox="0 0 29 30" xml:space="preserve">
    <g transform="translate(-150 -80)">
        <g xmlns="http://www.w3.org/2000/svg" xmlns:xlink="http://www.w3.org/1999/xlink" id="football-7">
		<path d="M155.321,102.972c0.113,0.123,0.216,0.252,0.335,0.372c0.12,0.12,0.249,0.222,0.372,0.335    c1.614,1.491,3.52,2.478,5.527,2.962c1.386,0.335,2.814,0.44,4.226,0.296c0.169-0.017,0.336-0.049,0.504-0.073    c0.604-0.087,1.205-0.205,1.795-0.38c0.75-0.224,1.484-0.52,2.191-0.888c0.407-0.212,0.806-0.451,1.192-0.711    c0.663-0.445,1.294-0.956,1.88-1.542c0.585-0.586,1.096-1.216,1.541-1.879c0.261-0.387,0.499-0.785,0.711-1.193    c0.369-0.707,0.664-1.44,0.889-2.191c0.176-0.59,0.293-1.19,0.379-1.795c0.024-0.167,0.057-0.335,0.074-0.503    c0.145-1.412,0.039-2.84-0.297-4.226c-0.484-2.008-1.471-3.914-2.962-5.527c-0.113-0.123-0.216-0.252-0.335-0.372    c-0.12-0.12-0.249-0.222-0.372-0.335c-1.614-1.491-3.52-2.478-5.527-2.962c-1.386-0.335-2.814-0.44-4.226-0.296    c-0.169,0.017-0.336,0.049-0.504,0.073c-0.604,0.086-1.205,0.204-1.795,0.379c-0.75,0.224-1.484,0.52-2.191,0.888    c-0.407,0.212-0.806,0.451-1.192,0.711c-0.663,0.445-1.294,0.957-1.88,1.542c-0.585,0.586-1.096,1.217-1.541,1.879    c-0.261,0.387-0.499,0.785-0.711,1.193c-0.369,0.707-0.664,1.44-0.889,2.191c-0.176,0.59-0.293,1.19-0.379,1.795    c-0.024,0.167-0.057,0.335-0.074,0.503c-0.145,1.412-0.039,2.84,0.297,4.226C152.844,99.452,153.83,101.358,155.321,102.972z     M153.378,97.388l0.911,0.248l1.668,0.455l0.455,1.667l0.454,1.668l-0.838,0.838C154.719,100.835,153.834,99.158,153.378,97.388z     M156.736,102.972l0.838-0.838l1.668,0.454l1.667,0.455l0.455,1.667l0.248,0.912C159.842,105.166,158.165,104.282,156.736,102.972    z M166.063,93.644l1.667,0.455l1.668,0.455l0.455,1.667l0.455,1.667l-2.42,2.419l-1.668-0.455l-1.667-0.455l-0.455-1.668    l-0.454-1.667L166.063,93.644z M165.412,89.343l2.42-2.42l1.668,0.455l1.668,0.455l0.454,1.667l0.455,1.668l-2.42,2.419    l-1.667-0.455l-1.668-0.455l-0.455-1.667L165.412,89.343z M162.937,95.356l-1.667-0.455l-1.668-0.455l-0.455-1.667l-0.455-1.667    l2.42-2.419l1.668,0.455l1.667,0.455l0.455,1.667l0.454,1.667L162.937,95.356z M159.343,95.413l1.667,0.455l1.668,0.455    l0.455,1.667l0.455,1.667l-2.42,2.42l-1.668-0.455l-1.668-0.455l-0.454-1.667l-0.455-1.668L159.343,95.413z M167.572,105.578    c-1.586,0.437-3.244,0.524-4.861,0.271l-0.381-1.396l-0.455-1.668l2.42-2.419l1.668,0.455l1.667,0.455l0.455,1.667l0.454,1.667    L167.572,105.578z M172.636,102.636c-0.762,0.761-1.608,1.383-2.504,1.886l-0.626-0.17l-0.455-1.668l-0.455-1.667l2.42-2.419    l1.668,0.455l1.668,0.455l0.17,0.626C174.019,101.028,173.396,101.874,172.636,102.636z M175.578,97.572l-0.969,0.968    l-1.668-0.455l-1.667-0.455l-0.455-1.667l-0.454-1.668l2.419-2.42l1.668,0.455l1.396,0.381    C176.102,94.329,176.014,95.986,175.578,97.572z M175.622,91.612l-0.911-0.248l-1.668-0.455l-0.455-1.667l-0.454-1.667    l0.838-0.838C174.281,88.165,175.166,89.842,175.622,91.612z M172.264,86.028l-0.838,0.838l-1.668-0.454l-1.667-0.455    l-0.455-1.667l-0.248-0.912C169.158,83.834,170.835,84.718,172.264,86.028z M161.428,83.423c1.586-0.437,3.244-0.525,4.861-0.271    l0.381,1.396l0.455,1.668l-2.42,2.419l-1.668-0.455l-1.667-0.455l-0.455-1.667l-0.454-1.668L161.428,83.423z M156.364,86.364    c0.762-0.761,1.608-1.383,2.504-1.886l0.626,0.17l0.455,1.668l0.455,1.667l-2.42,2.419l-1.668-0.455l-1.668-0.455l-0.17-0.626    C154.981,87.972,155.604,87.126,156.364,86.364z M153.422,91.428l0.969-0.968l1.668,0.455l1.667,0.455l0.455,1.667l0.454,1.667    l-2.419,2.42l-1.668-0.455l-1.396-0.381C152.898,94.671,152.986,93.014,153.422,91.428z"/>
	</g>
	
    </g>
</svg>
