<?xml version="1.0" encoding="iso-8859-1"?>
<!DOCTYPE svg PUBLIC "-//W3C//DTD SVG 1.1//EN" "http://www.w3.org/Graphics/SVG/1.1/DTD/svg11.dtd">
<svg version="1.1" xmlns="http://www.w3.org/2000/svg" xmlns:xlink="http://www.w3.org/1999/xlink" x="0px" y="0px" width="48" height="30" viewBox="0 0 48 30" xml:space="preserve">
    <g transform="translate(-473 -260)">
        <g xmlns="http://www.w3.org/2000/svg" xmlns:xlink="http://www.w3.org/1999/xlink" id="formula-one-7">
		<path d="M511,282h-2v-5c1.665,0,3.405,0,5,0v7h-1v1h1h5v-8c0.632,0,1,0,1,0v-4c0,0-0.368,0-1,0v-8h-5h-1v1h1v7    c-1.595,0-3.335,0-5,0v-5h2c0.553,0,1-0.447,1-1v-2c0-0.553-0.447-1-1-1h-6c-0.553,0-1,0.447-1,1v2c0,0.553,0.447,1,1,1h1.417    l-2.999,5c-0.595,0-1.084,0-1.418,0c-3,0-8-4-8-4h-1h-7v-1h2c0.553,0,1-0.447,1-1v-2c0-0.553-0.447-1-1-1h-6c-0.553,0-1,0.447-1,1    v2c0,0.553,0.447,1,1,1h2v1h-2v3.692L481,273v1h-1v-6h-6v14h6v-6h1v1l1,0.308V281h2v1h-2c-0.553,0-1,0.447-1,1v2    c0,0.553,0.447,1,1,1h6c0.553,0,1-0.447,1-1v-2c0-0.553-0.447-1-1-1h-2v-1h7h1c0,0,5-4,8-4c0.334,0,0.823,0,1.418,0l2.999,5H505    c-0.553,0-1,0.447-1,1v2c0,0.553,0.447,1,1,1h6c0.553,0,1-0.447,1-1v-2C512,282.447,511.553,282,511,282z M482,267v-2h6v2H482z     M479,281h-4v-12h4V281z M488,283v2h-6v-2H488z M518,284h-3v-7c1.145,0,2.174,0,3,0V284z M515,266h3v7c-0.826,0-1.855,0-3,0V266z     M505,265h6v2h-6V265z M507,268.971V273c-0.873,0-1.69,0-2.417,0L507,268.971z M483,270h7.75l-7.75,2.385V270z M482,273.754    l11-3.428V273h-3c-0.553,0-1,0.447-1,1v2c0,0.553,0.447,1,1,1h3v2.674l-11-3.428V273.754z M497,274v2h-7v-2H497z M483,280v-2.385    l7.75,2.385H483z M494,279.738V277h3c0.553,0,1-0.447,1-1v-2c0-0.553-0.447-1-1-1h-3v-2.738c1.521,1.137,5.301,3.738,8,3.738h17v2    h-17C499.301,276,495.521,278.602,494,279.738z M507,277v4.029L504.583,277C505.31,277,506.127,277,507,277z M511,285h-6v-2h6V285    z"/>
	</g>
	
    </g>
</svg>
