<?xml version="1.0" encoding="iso-8859-1"?>
<!DOCTYPE svg PUBLIC "-//W3C//DTD SVG 1.1//EN" "http://www.w3.org/Graphics/SVG/1.1/DTD/svg11.dtd">
<svg version="1.1" xmlns="http://www.w3.org/2000/svg" xmlns:xlink="http://www.w3.org/1999/xlink" x="0px" y="0px" width="30" height="30" viewBox="0 0 30 30" xml:space="preserve">
    <g transform="translate(-30 -200)">
        <g xmlns="http://www.w3.org/2000/svg" xmlns:xlink="http://www.w3.org/1999/xlink" id="golf-course-7">
		<path d="M53.201,213c-3.854,0-7.76,0.395-11.201,1.074v1.005c3.283-0.66,7.137-1.08,11.201-1.08c3.549,0,4.523,0.357,4.779,0.514    c-0.099,0.302-0.544,0.92-0.85,1.342c-0.811,1.124-1.819,2.521-1.819,4.145s1.009,3.021,1.819,4.145    c0.306,0.422,0.751,1.04,0.85,1.342c-0.256,0.156-1.23,0.514-4.779,0.514C41.783,226,32,222.701,32,220    c0-1.428,2.735-3.022,7-4.209v-1.02c-4.722,1.282-8,3.149-8,5.229c0,3.865,11.318,7,22.201,7c10.881,0,3.11-3.135,3.11-7    S64.082,213,53.201,213z"/>
		<path d="M40,217v1.307c-0.604,0.274-1,0.704-1,1.193c0,0.828,1.119,1.5,2.5,1.5s2.5-0.672,2.5-1.5s-1.119-1.5-2.5-1.5    c-0.172,0-0.338,0.011-0.5,0.03V217v-4v-4l7-6h-7v-1h-1v1v6v4V217z M45.297,204L41,207.684V204H45.297z"/>
	</g>
	
    </g>
</svg>
