<?xml version="1.0" encoding="iso-8859-1"?>
<!DOCTYPE svg PUBLIC "-//W3C//DTD SVG 1.1//EN" "http://www.w3.org/Graphics/SVG/1.1/DTD/svg11.dtd">
<svg version="1.1" xmlns="http://www.w3.org/2000/svg" xmlns:xlink="http://www.w3.org/1999/xlink" x="0px" y="0px" width="30" height="30" viewBox="0 0 30 30" xml:space="preserve">
    <g transform="translate(-150 -320)">
        <g xmlns="http://www.w3.org/2000/svg" xmlns:xlink="http://www.w3.org/1999/xlink" id="live-telecast-7">
		<path d="M152,341h12v1.049c-3.758,0.238-6.566,1.751-8.3,3.051l0.6,0.801c1.765-1.323,4.706-2.9,8.7-2.9s6.936,1.577,8.7,2.9    l0.6-0.801c-1.733-1.3-4.542-2.813-8.3-3.051V341h12v-17h-26V341z M153,325h24v15h-24V325z"/>
		<polygon points="157,329 156,329 156,335 156,336 157,336 159,336 159,335 157,335   "/>
		<polygon points="170,329 170,330 170,335 170,336 171,336 174,336 174,335 171,335 171,333 174,333 174,332 171,332 171,330     174,330 174,329 171,329   "/>
		<polygon points="166.5,334.25 165,329 164,329 166,336 167,336 169,329 168,329   "/>
		<polygon points="161,329 160,329 160,330 161,330 161,335 160,335 160,336 161,336 162,336 163,336 163,335 162,335 162,330     163,330 163,329 162,329   "/>
	</g>
	
    </g>
</svg>
