<?xml version="1.0" encoding="iso-8859-1"?>
<!DOCTYPE svg PUBLIC "-//W3C//DTD SVG 1.1//EN" "http://www.w3.org/Graphics/SVG/1.1/DTD/svg11.dtd">
<svg version="1.1" xmlns="http://www.w3.org/2000/svg" xmlns:xlink="http://www.w3.org/1999/xlink" x="0px" y="0px" width="29" height="30" viewBox="0 0 29 30" xml:space="preserve">
    <g transform="translate(-150 -260)">
        <g xmlns="http://www.w3.org/2000/svg" xmlns:xlink="http://www.w3.org/1999/xlink" id="player-one-7">
		<polygon points="166,276 166,275 166,274 166,273 166,272 166,271 165,271 163,271 163,272 165,272 165,273 164,273 164,274     165,274 165,275 163,275 163,276 165,276   "/>
		<path d="M162,289h5c0.553,0,1-0.447,1-1v-9c1.104,0,2-0.896,2-2v-7c0-1.104-0.896-2-2-2h-1.055c0.649-0.635,1.055-1.52,1.055-2.5    c0-1.934-1.566-3.5-3.5-3.5s-3.5,1.566-3.5,3.5c0,0.98,0.405,1.865,1.055,2.5H161c-1.104,0-2,0.896-2,2v7c0,1.104,0.896,2,2,2v9    C161,288.553,161.447,289,162,289z M162,288v-6h2v6H162z M167,288h-2v-6h2V288z M169,277c0,0.552-0.448,1-1,1v-4h1V277z     M162,265.5c0-1.379,1.121-2.5,2.5-2.5s2.5,1.121,2.5,2.5s-1.121,2.5-2.5,2.5S162,266.879,162,265.5z M160,270    c0-0.552,0.448-1,1-1h7c0.552,0,1,0.448,1,1v3h-1v-1h-1v9h-2v-3h-1v3h-2v-9h-1v1h-1V270z M160,277v-3h1v4    C160.448,278,160,277.552,160,277z"/>
	</g>
	
    </g>
</svg>
