<?xml version="1.0" encoding="iso-8859-1"?>
<!DOCTYPE svg PUBLIC "-//W3C//DTD SVG 1.1//EN" "http://www.w3.org/Graphics/SVG/1.1/DTD/svg11.dtd">
<svg version="1.1" xmlns="http://www.w3.org/2000/svg" xmlns:xlink="http://www.w3.org/1999/xlink" x="0px" y="0px" width="35" height="30" viewBox="0 0 35 30" xml:space="preserve">
    <g transform="translate(-331 -260)">
        <g xmlns="http://www.w3.org/2000/svg" xmlns:xlink="http://www.w3.org/1999/xlink" id="player-four-7">
		<path d="M339,279.22V281h-2v-1v-2h-1v1v2h-2v-9h-1v1h-1v-2v-1c0-0.552,0.449-1,1-1h1h1h3.185c0.077-0.218,0.173-0.426,0.297-0.617    c0.916-0.632,1.519-1.687,1.519-2.883c0-1.933-1.566-3.5-3.5-3.5s-3.5,1.567-3.5,3.5c0,0.98,0.405,1.864,1.056,2.5H334h-1    c-1.104,0-2,0.896-2,2v7c0,1.104,0.896,2,2,2v9c0,0.553,0.447,1,1,1h5c0.553,0,1-0.447,1-1v-8.185    C339.626,279.683,339.289,279.48,339,279.22z M334,265.5c0-1.379,1.121-2.5,2.5-2.5s2.5,1.121,2.5,2.5s-1.121,2.5-2.5,2.5    S334,266.879,334,265.5z M332,277v-3h1v4C332.449,278,332,277.552,332,277z M334,288v-6h2v6H334z M339,288h-2v-6h2V288z"/>
		<polygon points="337,273 336,273 336,271 335,271 335,273 335,274 336,274 337,274 337,276 338,276 338,271 337,271   "/>
		<path d="M364,268h-1h-0.056c0.65-0.636,1.056-1.52,1.056-2.5c0-1.933-1.566-3.5-3.5-3.5s-3.5,1.567-3.5,3.5    c0,0.736,0.229,1.418,0.618,1.981c0.242,0.353,0.548,0.658,0.9,0.901c0.124,0.191,0.22,0.399,0.297,0.617H359h3h1h1    c0.551,0,1,0.448,1,1v3h-1v-1h-1v9h-2v-2v-1h-1v1v2h-2v-1.78c-0.289,0.261-0.626,0.463-1,0.596V288c0,0.553,0.447,1,1,1h5    c0.553,0,1-0.447,1-1v-9c1.104,0,2-0.896,2-2v-7C366,268.896,365.104,268,364,268z M360.5,263c1.379,0,2.5,1.121,2.5,2.5    s-1.121,2.5-2.5,2.5s-2.5-1.121-2.5-2.5S359.121,263,360.5,263z M358,288v-6h2v6H358z M363,288h-2v-6h2V288z M365,277    c0,0.552-0.449,1-1,1v-4h1V277z"/>
		<path d="M347,279.22V281h-2v-1v-1v-1h-1v1v2h-2v-9h-1v1h-1v-1v-1v-1c0-0.552,0.449-1,1-1h1h1h3h0.185    c0.077-0.218,0.173-0.426,0.297-0.617c0.916-0.632,1.519-1.687,1.519-2.883c0-1.933-1.566-3.5-3.5-3.5s-3.5,1.567-3.5,3.5    c0,0.98,0.405,1.864,1.056,2.5H342h-1c-1.104,0-2,0.896-2,2v7c0,1.104,0.896,2,2,2v9c0,0.553,0.447,1,1,1h5c0.553,0,1-0.447,1-1    v-8.185C347.626,279.683,347.289,279.48,347,279.22z M342,265.5c0-1.379,1.121-2.5,2.5-2.5s2.5,1.121,2.5,2.5s-1.121,2.5-2.5,2.5    S342,266.879,342,265.5z M340,277v-3h1v4C340.449,278,340,277.552,340,277z M342,288v-6h2v6H342z M347,288h-2v-6h2V288z"/>
		<path d="M358,277v-7c0-1.104-0.896-2-2-2h-1h-0.056c0.65-0.636,1.056-1.52,1.056-2.5c0-1.933-1.566-3.5-3.5-3.5    s-3.5,1.567-3.5,3.5c0,0.98,0.405,1.864,1.056,2.5H350h-1c-1.104,0-2,0.896-2,2v7c0,1.104,0.896,2,2,2v9c0,0.553,0.447,1,1,1h5    c0.553,0,1-0.447,1-1v-9C357.104,279,358,278.104,358,277z M356,278v-1v-3h1v3C357,277.552,356.551,278,356,278z M350,265.5    c0-1.379,1.121-2.5,2.5-2.5s2.5,1.121,2.5,2.5s-1.121,2.5-2.5,2.5S350,266.879,350,265.5z M349,277v1c-0.551,0-1-0.448-1-1v-3h1    V277z M350,288v-6h2v6H350z M355,288h-2v-6h2V288z M355,281h-2v-1v-1v-1h-1v1v1v1h-2v-4v-5h-1v1h-1v-1v-1v-1c0-0.552,0.449-1,1-1    h1h1h3h1h1c0.551,0,1,0.448,1,1v1v1v1h-1v-1h-1v5V281z"/>
		<polygon points="354,275 353,275 353,271 352,271 351,271 351,272 352,272 352,275 351,275 351,276 352,276 353,276 354,276   "/>
		<polygon points="343,271 343,272 345,272 345,273 344,273 343,273 343,274 343,275 343,276 344,276 346,276 346,275 344,275     344,274 345,274 346,274 346,272 346,271 345,271   "/>
		<polygon points="359,272 361,272 361,273 360,273 360,274 361,274 361,275 359,275 359,276 361,276 362,276 362,275 362,274     362,273 362,272 362,271 361,271 359,271   "/>
	</g>
	
    </g>
</svg>
