<?xml version="1.0" encoding="iso-8859-1"?>
<!DOCTYPE svg PUBLIC "-//W3C//DTD SVG 1.1//EN" "http://www.w3.org/Graphics/SVG/1.1/DTD/svg11.dtd">
<svg version="1.1" xmlns="http://www.w3.org/2000/svg" xmlns:xlink="http://www.w3.org/1999/xlink" x="0px" y="0px" width="29" height="30" viewBox="0 0 29 30" xml:space="preserve">
    <g transform="translate(-270 -260)">
        <g xmlns="http://www.w3.org/2000/svg" xmlns:xlink="http://www.w3.org/1999/xlink" id="player-three-7">
		<path d="M273,288c0,0.553,0.447,1,1,1h5c0.553,0,1-0.447,1-1v-8.185c-0.373-0.133-0.711-0.335-1-0.596V281h-2v-1v-1v-1h-1v1v2h-2    v-9h-1v1h-1v-2v-1c0-0.552,0.449-1,1-1h1h1h3h0.184c0.078-0.218,0.174-0.426,0.298-0.617c0.916-0.632,1.519-1.687,1.519-2.883    c0-1.933-1.566-3.5-3.5-3.5s-3.5,1.567-3.5,3.5c0,0.98,0.406,1.864,1.056,2.5H274h-1c-1.104,0-2,0.896-2,2v7c0,1.104,0.896,2,2,2    V288z M279,282v6h-2v-6H279z M276,282v6h-2v-6H276z M274,265.5c0-1.379,1.121-2.5,2.5-2.5s2.5,1.121,2.5,2.5s-1.121,2.5-2.5,2.5    S274,266.879,274,265.5z M272,277v-3h1v4C272.449,278,272,277.552,272,277z"/>
		<path d="M282.056,268H282h-1c-1.104,0-2,0.896-2,2v7c0,1.104,0.896,2,2,2v9c0,0.553,0.447,1,1,1h5c0.553,0,1-0.447,1-1v-9    c1.104,0,2-0.896,2-2v-7c0-1.104-0.896-2-2-2h-1h-0.056c0.649-0.636,1.056-1.52,1.056-2.5c0-1.933-1.566-3.5-3.5-3.5    s-3.5,1.567-3.5,3.5C281,266.48,281.406,267.364,282.056,268z M281,277v1c-0.551,0-1-0.448-1-1v-3h1V277z M282,288v-6h2v6H282z     M287,288h-2v-6h2V288z M288,278v-1v-3h1v3C289,277.552,288.551,278,288,278z M288,269c0.551,0,1,0.448,1,1v1v1v1h-1v-1h-1v5v4h-2    v-1v-1v-1h-1v1v1v1h-2v-4v-5h-1v1h-1v-1v-1v-1c0-0.552,0.449-1,1-1h1h1h3h1H288z M284.5,263c1.379,0,2.5,1.121,2.5,2.5    s-1.121,2.5-2.5,2.5s-2.5-1.121-2.5-2.5S283.121,263,284.5,263z"/>
		<polygon points="286,275 285,275 285,271 284,271 283,271 283,272 284,272 284,275 283,275 283,276 284,276 285,276 286,276   "/>
		<polygon points="278,276 278,275 276,275 276,274 277,274 278,274 278,272 278,271 277,271 275,271 275,272 277,272 277,273     276,273 275,273 275,274 275,275 275,276 276,276   "/>
		<polygon points="291,272 293,272 293,273 292,273 292,274 293,274 293,275 291,275 291,276 293,276 294,276 294,275 294,274     294,273 294,272 294,271 293,271 291,271   "/>
		<path d="M290.519,268.383c0.124,0.191,0.22,0.399,0.298,0.617H291h3h1h1c0.551,0,1,0.448,1,1v3h-1v-1h-1v9h-2v-2v-1h-1v1v2h-2    v-1.78c-0.289,0.261-0.627,0.463-1,0.596V288c0,0.553,0.447,1,1,1h5c0.553,0,1-0.447,1-1v-9c1.104,0,2-0.896,2-2v-7    c0-1.104-0.896-2-2-2h-1h-0.056c0.649-0.636,1.056-1.52,1.056-2.5c0-1.933-1.566-3.5-3.5-3.5s-3.5,1.567-3.5,3.5    c0,0.736,0.229,1.418,0.617,1.981C289.861,267.834,290.166,268.14,290.519,268.383z M290,288v-6h2v6H290z M295,288h-2v-6h2V288z     M297,277c0,0.552-0.449,1-1,1v-4h1V277z M292.5,263c1.379,0,2.5,1.121,2.5,2.5s-1.121,2.5-2.5,2.5s-2.5-1.121-2.5-2.5    S291.121,263,292.5,263z"/>
	</g>
	
    </g>
</svg>
