<?xml version="1.0" encoding="iso-8859-1"?>
<!DOCTYPE svg PUBLIC "-//W3C//DTD SVG 1.1//EN" "http://www.w3.org/Graphics/SVG/1.1/DTD/svg11.dtd">
<svg version="1.1" xmlns="http://www.w3.org/2000/svg" xmlns:xlink="http://www.w3.org/1999/xlink" x="0px" y="0px" width="29" height="30" viewBox="0 0 29 30" xml:space="preserve">
    <g transform="translate(-210 -260)">
        <g xmlns="http://www.w3.org/2000/svg" xmlns:xlink="http://www.w3.org/1999/xlink" id="player-two-7">
		<polygon points="220,276 220,275 218,275 218,274 219,274 220,274 220,272 220,271 219,271 217,271 217,272 219,272 219,273     218,273 217,273 217,274 217,275 217,276 218,276   "/>
		<path d="M213,270v7c0,1.104,0.896,2,2,2v9c0,0.553,0.447,1,1,1h5c0.553,0,1-0.447,1-1v-9c1.104,0,2-0.896,2-2v-7    c0-1.104-0.896-2-2-2h-1.055c0.649-0.635,1.055-1.52,1.055-2.5c0-1.934-1.566-3.5-3.5-3.5s-3.5,1.566-3.5,3.5    c0,0.98,0.405,1.865,1.055,2.5H215C213.896,268,213,268.896,213,270z M215,278c-0.552,0-1-0.448-1-1v-3h1V278z M216,288v-6h2v6    H216z M221,288h-2v-6h2V288z M223,277c0,0.552-0.448,1-1,1v-4h1V277z M216,265.5c0-1.379,1.121-2.5,2.5-2.5s2.5,1.121,2.5,2.5    s-1.121,2.5-2.5,2.5S216,266.879,216,265.5z M222,269c0.552,0,1,0.448,1,1v3h-1v-1h-1v9h-2v-3h-1v3h-2v-9h-1v1h-1v-3    c0-0.552,0.448-1,1-1H222z"/>
		<polygon points="232,276 232,275 232,274 232,273 232,272 232,271 231,271 229,271 229,272 231,272 231,273 230,273 230,274     231,274 231,275 229,275 229,276 231,276   "/>
		<path d="M225,270v7c0,1.104,0.896,2,2,2v9c0,0.553,0.447,1,1,1h5c0.553,0,1-0.447,1-1v-9c1.104,0,2-0.896,2-2v-7    c0-1.104-0.896-2-2-2h-1.055c0.649-0.635,1.055-1.52,1.055-2.5c0-1.934-1.566-3.5-3.5-3.5s-3.5,1.566-3.5,3.5    c0,0.98,0.405,1.865,1.055,2.5H227C225.896,268,225,268.896,225,270z M227,278c-0.552,0-1-0.448-1-1v-3h1V278z M228,288v-6h2v6    H228z M233,288h-2v-6h2V288z M228,265.5c0-1.379,1.121-2.5,2.5-2.5s2.5,1.121,2.5,2.5s-1.121,2.5-2.5,2.5S228,266.879,228,265.5z     M234,269c0.552,0,1,0.448,1,1v7c0,0.552-0.448,1-1,1v-6h-1v9h-2v-3h-1v3h-2v-9h-1v1h-1v-3c0-0.552,0.448-1,1-1H234z"/>
	</g>
	
    </g>
</svg>
