<?xml version="1.0" encoding="iso-8859-1"?>
<!DOCTYPE svg PUBLIC "-//W3C//DTD SVG 1.1//EN" "http://www.w3.org/Graphics/SVG/1.1/DTD/svg11.dtd">
<svg version="1.1" xmlns="http://www.w3.org/2000/svg" xmlns:xlink="http://www.w3.org/1999/xlink" x="0px" y="0px" width="47" height="30" viewBox="0 0 47 30" xml:space="preserve">
    <g transform="translate(-396 -260)">
        <g xmlns="http://www.w3.org/2000/svg" xmlns:xlink="http://www.w3.org/1999/xlink" id="player-five-7">
		<path d="M441,277v-7c0-1.104-0.896-2-2-2h-1h-0.056c0.293-0.286,0.527-0.627,0.706-1c0.218-0.456,0.35-0.961,0.35-1.5    c0-1.933-1.566-3.5-3.5-3.5s-3.5,1.567-3.5,3.5c0,0.736,0.229,1.418,0.618,1.981c0.242,0.353,0.548,0.658,0.9,0.901    c0.124,0.191,0.22,0.399,0.297,0.617H437h1h1c0.551,0,1,0.448,1,1v3h-1v-1h-1v9h-2v-2v-1h-1v1v1v1h-2v-1.78    c-0.289,0.261-0.626,0.463-1,0.596V288c0,0.553,0.447,1,1,1h5c0.553,0,1-0.447,1-1v-8v-1C440.104,279,441,278.104,441,277z     M435.5,263c1.379,0,2.5,1.121,2.5,2.5s-1.121,2.5-2.5,2.5s-2.5-1.121-2.5-2.5S434.121,263,435.5,263z M433,288v-6h2v6H433z     M438,288h-2v-6h2V288z M439,274h1v3c0,0.552-0.449,1-1,1V274z"/>
		<path d="M406,279.22V281h-2v-1v-2h-1v1v2h-2v-9h-1v1h-1v-2v-1c0-0.552,0.449-1,1-1h1h1h3.185c0.077-0.218,0.173-0.426,0.297-0.617    c0.916-0.632,1.519-1.687,1.519-2.883c0-1.933-1.566-3.5-3.5-3.5s-3.5,1.567-3.5,3.5c0,0.98,0.405,1.864,1.056,2.5H401h-1    c-1.104,0-2,0.896-2,2v7c0,1.104,0.896,2,2,2v9c0,0.553,0.447,1,1,1h5c0.553,0,1-0.447,1-1v-8.185    C406.626,279.683,406.289,279.48,406,279.22z M401,265.5c0-1.379,1.121-2.5,2.5-2.5s2.5,1.121,2.5,2.5s-1.121,2.5-2.5,2.5    S401,266.879,401,265.5z M399,277v-3h1v4C399.449,278,399,277.552,399,277z M401,288v-6h2v6H401z M406,288h-2v-6h2V288z"/>
		<polygon points="404,273 403,273 403,271 402,271 402,273 402,274 403,274 404,274 404,276 405,276 405,271 404,271   "/>
		<path d="M433,277v-7c0-1.104-0.896-2-2-2h-1h-0.056c0.293-0.286,0.527-0.627,0.706-1c0.218-0.456,0.35-0.961,0.35-1.5    c0-1.933-1.566-3.5-3.5-3.5s-3.5,1.567-3.5,3.5c0,0.736,0.229,1.418,0.618,1.981c0.242,0.353,0.548,0.658,0.9,0.901    c0.124,0.191,0.22,0.399,0.297,0.617H426h3h1h1c0.551,0,1,0.448,1,1v2v1h-1v-1h-1v5v4h-2v-2v-1h-1v1v1v1h-2v-1.78    c-0.289,0.261-0.626,0.463-1,0.596V288c0,0.553,0.447,1,1,1h5c0.553,0,1-0.447,1-1v-8v-1C432.104,279,433,278.104,433,277z     M427.5,263c1.379,0,2.5,1.121,2.5,2.5s-1.121,2.5-2.5,2.5s-2.5-1.121-2.5-2.5S426.121,263,427.5,263z M425,288v-6h2v6H425z     M430,288h-2v-6h2V288z M431,274h1v3c0,0.552-0.449,1-1,1V274z"/>
		<path d="M414,279.22V281h-2v-1v-1v-1h-1v1v2h-2v-9h-1v1h-1v-1v-1v-1c0-0.552,0.449-1,1-1h1h1h3h0.185    c0.077-0.218,0.173-0.426,0.297-0.617c0.916-0.632,1.519-1.687,1.519-2.883c0-1.933-1.566-3.5-3.5-3.5s-3.5,1.567-3.5,3.5    c0,0.98,0.405,1.864,1.056,2.5H409h-1c-1.104,0-2,0.896-2,2v7c0,1.104,0.896,2,2,2v9c0,0.553,0.447,1,1,1h5c0.553,0,1-0.447,1-1    v-8.185C414.626,279.683,414.289,279.48,414,279.22z M409,265.5c0-1.379,1.121-2.5,2.5-2.5s2.5,1.121,2.5,2.5s-1.121,2.5-2.5,2.5    S409,266.879,409,265.5z M407,277v-3h1v4C407.449,278,407,277.552,407,277z M409,288v-6h2v6H409z M414,288h-2v-6h2V288z"/>
		<path d="M425,277v-7c0-1.104-0.896-2-2-2h-1h-0.056c0.65-0.636,1.056-1.52,1.056-2.5c0-1.933-1.566-3.5-3.5-3.5    s-3.5,1.567-3.5,3.5c0,0.98,0.405,1.864,1.056,2.5H417h-1c-1.104,0-2,0.896-2,2v7c0,1.104,0.896,2,2,2v9c0,0.553,0.447,1,1,1h5    c0.553,0,1-0.447,1-1v-9C424.104,279,425,278.104,425,277z M423,278v-1v-3h1v3C424,277.552,423.551,278,423,278z M417,265.5    c0-1.379,1.121-2.5,2.5-2.5s2.5,1.121,2.5,2.5s-1.121,2.5-2.5,2.5S417,266.879,417,265.5z M416,277v1c-0.551,0-1-0.448-1-1v-3h1    V277z M417,288v-6h2v6H417z M422,288h-2v-6h2V288z M422,281h-2v-1v-1v-1h-1v1v1v1h-2v-4v-5h-1v1h-1v-1v-1v-1c0-0.552,0.449-1,1-1    h1h1h3h1h1c0.551,0,1,0.448,1,1v1v1v1h-1v-1h-1v5V281z"/>
		<polygon points="421,275 420,275 420,271 419,271 418,271 418,272 419,272 419,275 418,275 418,276 419,276 420,276 421,276   "/>
		<polygon points="410,271 410,272 412,272 412,273 411,273 410,273 410,274 410,275 410,276 411,276 413,276 413,275 411,275     411,274 412,274 413,274 413,272 413,271 412,271   "/>
		<polygon points="426,272 428,272 428,273 427,273 427,274 428,274 428,275 426,275 426,276 428,276 429,276 429,275 429,274     429,273 429,272 429,271 428,271 426,271   "/>
		<polygon points="434,274 435,274 436,274 436,275 434,275 434,276 436,276 437,276 437,275 437,274 437,273 436,273 435,273     435,272 437,272 437,271 435,271 434,271 434,272 434,273   "/>
	</g>
	
    </g>
</svg>
