<?xml version="1.0" encoding="iso-8859-1"?>
<!DOCTYPE svg PUBLIC "-//W3C//DTD SVG 1.1//EN" "http://www.w3.org/Graphics/SVG/1.1/DTD/svg11.dtd">
<svg version="1.1" xmlns="http://www.w3.org/2000/svg" xmlns:xlink="http://www.w3.org/1999/xlink" x="0px" y="0px" width="29" height="30" viewBox="0 0 29 30" xml:space="preserve">
    <g transform="translate(-30 -380)">
        <g xmlns="http://www.w3.org/2000/svg" xmlns:xlink="http://www.w3.org/1999/xlink" id="poker-card-7">
		<path d="M55.386,385.959L54,385.501V385c0-1.104-0.896-2-2-2h-5.569l-5.287-1.747c-1.05-0.346-2.181,0.224-2.527,1.271L38.459,383    H37c-1.104,0-2,0.896-2,2v8.469l-2.658,8.046c-0.347,1.049,0.224,2.181,1.272,2.526L35,404.499V405c0,1.105,0.896,2,2,2h5.569    l5.287,1.747c1.05,0.346,2.18-0.222,2.527-1.271L50.541,407H52c1.104,0,2-0.895,2-2v-8.469l2.658-8.046    C57.004,387.438,56.435,386.305,55.386,385.959z M39.566,382.838c0.173-0.522,0.739-0.81,1.263-0.636L43.244,383h-3.731    L39.566,382.838z M33.929,403.092c-0.525-0.174-0.811-0.738-0.638-1.264L35,396.656v6.789L33.929,403.092z M49.433,407.162    c-0.172,0.524-0.738,0.809-1.262,0.635L45.759,407h3.728L49.433,407.162z M53,405c0,0.553-0.448,1-1,1H37c-0.552,0-1-0.447-1-1    v-20c0-0.551,0.448-1,1-1h15c0.552,0,1,0.449,1,1V405z M55.709,388.172L54,393.343v-6.788l1.071,0.354    C55.597,387.082,55.881,387.648,55.709,388.172z"/>
		<path d="M44.5,389c0,0-5,3.131-5,6.261c0,2.683,2.567,3.445,4.246,2.624L43.071,401h2.857l-0.675-3.115    c1.679,0.821,4.246,0.059,4.246-2.624C49.5,392.131,44.5,389,44.5,389z"/>
		<path d="M38,388h1v1h1v-4h-1h-1h-1v4h1V388z M38,386h1v1h-1V386z"/>
		<path d="M51,401v1h-1v-1h-1v4h1h1h1v-4H51z M51,404h-1v-1h1V404z"/>
	</g>
	
    </g>
</svg>
