<?xml version="1.0" encoding="iso-8859-1"?>
<!DOCTYPE svg PUBLIC "-//W3C//DTD SVG 1.1//EN" "http://www.w3.org/Graphics/SVG/1.1/DTD/svg11.dtd">
<svg version="1.1" xmlns="http://www.w3.org/2000/svg" xmlns:xlink="http://www.w3.org/1999/xlink" x="0px" y="0px" width="47" height="30" viewBox="0 0 47 30" xml:space="preserve">
    <g transform="translate(-398 -200)">
        <g xmlns="http://www.w3.org/2000/svg" xmlns:xlink="http://www.w3.org/1999/xlink" id="pool-table-7">
		<path d="M442,202h-41c-1.104,0-2,0.896-2,2v22c0,1.104,0.896,2,2,2h41c1.104,0,2-0.896,2-2v-22C444,202.896,443.104,202,442,202z     M443,226c0,0.551-0.448,1-1,1h-41c-0.552,0-1-0.449-1-1v-22c0-0.551,0.448-1,1-1h41c0.552,0,1,0.449,1,1V226z"/>
		<path d="M440.5,204h-38c-0.829,0-1.5,0.672-1.5,1.5v19c0,0.828,0.671,1.5,1.5,1.5h38c0.829,0,1.5-0.672,1.5-1.5v-19    C442,204.672,441.329,204,440.5,204z M403.908,225c0.056-0.157,0.092-0.324,0.092-0.5c0-0.828-0.671-1.5-1.5-1.5    c-0.177,0-0.343,0.036-0.5,0.092v-16.184c0.157,0.056,0.323,0.092,0.5,0.092c0.829,0,1.5-0.672,1.5-1.5    c0-0.176-0.036-0.343-0.092-0.5H412v6c-2.209,0-4,1.791-4,4s1.791,4,4,4v6H403.908z M412,218c-1.654,0-3-1.346-3-3s1.346-3,3-3    V218z M439,224.5c0,0.176,0.036,0.343,0.092,0.5h-16.184c0.056-0.157,0.092-0.324,0.092-0.5c0-0.828-0.671-1.5-1.5-1.5    s-1.5,0.672-1.5,1.5c0,0.176,0.036,0.343,0.092,0.5H413v-6v-8v-6h7.092c-0.056,0.157-0.092,0.324-0.092,0.5    c0,0.828,0.671,1.5,1.5,1.5s1.5-0.672,1.5-1.5c0-0.176-0.036-0.343-0.092-0.5h16.184c-0.056,0.157-0.092,0.324-0.092,0.5    c0,0.828,0.671,1.5,1.5,1.5c0.177,0,0.343-0.036,0.5-0.092v16.184c-0.157-0.056-0.323-0.092-0.5-0.092    C439.671,223,439,223.672,439,224.5z"/>
		<rect x="429" y="214" width="1" height="1"/>
		<rect x="431" y="213" width="1" height="1"/>
		<rect x="431" y="215" width="1" height="1"/>
		<rect x="433" y="214" width="1" height="1"/>
		<rect x="433" y="212" width="1" height="1"/>
		<rect x="433" y="216" width="1" height="1"/>
		<rect x="435" y="215" width="1" height="1"/>
		<rect x="435" y="213" width="1" height="1"/>
		<rect x="435" y="211" width="1" height="1"/>
		<rect x="435" y="217" width="1" height="1"/>
	</g>
	
    </g>
</svg>
