<?xml version="1.0" encoding="iso-8859-1"?>
<!DOCTYPE svg PUBLIC "-//W3C//DTD SVG 1.1//EN" "http://www.w3.org/Graphics/SVG/1.1/DTD/svg11.dtd">
<svg version="1.1" xmlns="http://www.w3.org/2000/svg" xmlns:xlink="http://www.w3.org/1999/xlink" x="0px" y="0px" width="50" height="30" viewBox="0 0 50 30" xml:space="preserve">
    <g transform="translate(-551 -260)">
        <g xmlns="http://www.w3.org/2000/svg" xmlns:xlink="http://www.w3.org/1999/xlink" id="race-flag-7">
		<path d="M584.469,262.627l-7.891,13.667l0.577,1.001l1.18-2.044l11.259,6.5l6-10.393l-11.259-6.5l1-1.731L584.469,262.627z     M589.228,280.385l-10.393-6l1.5-2.598l10.393,6L589.228,280.385z M594.228,271.725l-1.5,2.599l-10.393-6l1.5-2.599    L594.228,271.725z"/>
		<polygon points="575.422,280.296 574.845,279.295 570.469,286.875 571.335,287.375   "/>
		<path d="M580.665,287.375l0.866-0.5l-14-24.249l-0.866,0.5l1,1.732l-11.259,6.5l6,10.393l11.259-6.5L580.665,287.375z     M562.772,280.385l-5-8.66l3.464-2l5,8.66L562.772,280.385z M569.701,276.385l-5-8.66l3.464-2l5,8.66L569.701,276.385z"/>
	</g>
	
    </g>
</svg>
