<?xml version="1.0" encoding="iso-8859-1"?>
<!DOCTYPE svg PUBLIC "-//W3C//DTD SVG 1.1//EN" "http://www.w3.org/Graphics/SVG/1.1/DTD/svg11.dtd">
<svg version="1.1" xmlns="http://www.w3.org/2000/svg" xmlns:xlink="http://www.w3.org/1999/xlink" x="0px" y="0px" width="30" height="30" viewBox="0 0 30 30" xml:space="preserve">
    <g transform="translate(-210 -380)">
        <g xmlns="http://www.w3.org/2000/svg" xmlns:xlink="http://www.w3.org/1999/xlink" id="roulette-7">
		<path d="M224.5,381c-7.456,0-13.5,6.044-13.5,13.5s6.044,13.5,13.5,13.5s13.5-6.044,13.5-13.5S231.956,381,224.5,381z M224.5,407    c-6.893,0-12.5-5.607-12.5-12.5s5.607-12.5,12.5-12.5s12.5,5.607,12.5,12.5S231.393,407,224.5,407z"/>
		<path d="M228.673,400.728l1.501,2.6c1.264-0.813,2.339-1.89,3.152-3.153l-2.6-1.5    C230.182,399.484,229.483,400.183,228.673,400.728z"/>
		<path d="M231.975,394.001h3c-0.072-1.548-0.475-3.007-1.146-4.309l-2.605,1.505C231.646,392.054,231.908,393,231.975,394.001z"/>
		<path d="M231.223,397.805l2.605,1.504c0.672-1.301,1.073-2.76,1.146-4.308h-3C231.908,396.002,231.645,396.948,231.223,397.805z"/>
		<path d="M230.729,390.328l2.6-1.5c-0.814-1.265-1.891-2.341-3.154-3.154l-1.5,2.599    C229.484,388.818,230.184,389.518,230.729,390.328z"/>
		<path d="M220.326,388.272l-1.5-2.599c-1.264,0.813-2.34,1.89-3.153,3.153l2.599,1.501    C218.817,389.517,219.516,388.818,220.326,388.272z"/>
		<path d="M217.777,391.197l-2.605-1.505c-0.672,1.302-1.074,2.761-1.146,4.309h3C217.092,393,217.354,392.054,217.777,391.197z"/>
		<path d="M227.806,387.778l1.504-2.605c-1.302-0.673-2.761-1.074-4.31-1.147v3C226.002,387.092,226.949,387.354,227.806,387.778z"/>
		<path d="M218.273,398.674l-2.6,1.5c0.813,1.265,1.89,2.34,3.154,3.153l1.5-2.599C219.518,400.184,218.818,399.484,218.273,398.674    z"/>
		<path d="M217.025,395.001h-3c0.073,1.548,0.475,3.007,1.146,4.308l2.605-1.504C217.355,396.948,217.092,396.002,217.025,395.001z"/>
		<path d="M221.197,401.223l-1.504,2.605c1.301,0.672,2.76,1.073,4.307,1.146v-3C222.999,401.908,222.053,401.646,221.197,401.223z"/>
		<path d="M225,401.975v3c1.547-0.073,3.007-0.475,4.308-1.146l-1.504-2.605C226.947,401.646,226.001,401.908,225,401.975z"/>
		<path d="M224,387.025v-3c-1.548,0.073-3.008,0.475-4.309,1.146l1.504,2.605C222.053,387.354,222.998,387.092,224,387.025z"/>
		<path d="M226.153,392.638c-0.249-0.222-0.542-0.391-0.866-0.499c-0.094-0.031-0.188-0.068-0.287-0.088V390h-1v2.051    c-0.1,0.02-0.191,0.057-0.287,0.088c-0.323,0.107-0.616,0.277-0.866,0.499c-0.074,0.066-0.144,0.136-0.21,0.21    c-0.222,0.25-0.391,0.543-0.498,0.867c-0.031,0.094-0.068,0.187-0.088,0.285H220v0.001V395h2.051v0.001    c0.02,0.1,0.057,0.191,0.088,0.286c0.107,0.324,0.277,0.616,0.499,0.866c0.066,0.074,0.136,0.145,0.21,0.21    c0.25,0.222,0.543,0.391,0.867,0.498c0.094,0.032,0.186,0.068,0.285,0.088V399h1v-2.051c0.1-0.02,0.191-0.056,0.285-0.088    c0.324-0.107,0.617-0.276,0.867-0.498c0.074-0.066,0.145-0.136,0.21-0.21c0.222-0.25,0.392-0.543,0.499-0.866    c0.031-0.095,0.068-0.188,0.088-0.286V395H229v-0.999V394h-2.051c-0.02-0.099-0.057-0.191-0.088-0.285    c-0.107-0.324-0.276-0.617-0.498-0.866C226.297,392.773,226.229,392.704,226.153,392.638z M226,394.5c0,0.828-0.672,1.5-1.5,1.5    s-1.5-0.672-1.5-1.5s0.672-1.5,1.5-1.5S226,393.672,226,394.5z"/>
		<circle cx="236.5" cy="383.5" r="1.5"/>
	</g>
	
    </g>
</svg>
