<?xml version="1.0" encoding="iso-8859-1"?>
<!DOCTYPE svg PUBLIC "-//W3C//DTD SVG 1.1//EN" "http://www.w3.org/Graphics/SVG/1.1/DTD/svg11.dtd">
<svg version="1.1" xmlns="http://www.w3.org/2000/svg" xmlns:xlink="http://www.w3.org/1999/xlink" x="0px" y="0px" width="30" height="30" viewBox="0 0 30 30" xml:space="preserve">
    <g transform="translate(-90 -320)">
        <g xmlns="http://www.w3.org/2000/svg" xmlns:xlink="http://www.w3.org/1999/xlink" id="scoreboard-7">
		<path d="M92,342h11v4h-4v1h4h4h4v-1h-4v-4h11v-15H92V342z M106,346h-2v-4h2V346z M93,328h24v13H93V328z"/>
		<rect x="104" y="334" width="2" height="1"/>
		<polygon points="97,332 101,332 101,334 98,334 98,335 101,335 101,337 97,337 97,338 102,338 102,337 102,335 102,334 102,332     102,331 97,331   "/>
		<path d="M108,332v5v1h5v-1v-5v-1h-5V332z M112,332v5h-3v-5H112z"/>
		<rect x="93" y="325" width="4" height="1"/>
		<rect x="103" y="325" width="4" height="1"/>
		<rect x="113" y="325" width="4" height="1"/>
	</g>
	
    </g>
</svg>
