<?xml version="1.0" encoding="iso-8859-1"?>
<!DOCTYPE svg PUBLIC "-//W3C//DTD SVG 1.1//EN" "http://www.w3.org/Graphics/SVG/1.1/DTD/svg11.dtd">
<svg version="1.1" xmlns="http://www.w3.org/2000/svg" xmlns:xlink="http://www.w3.org/1999/xlink" x="0px" y="0px" width="30" height="30" viewBox="0 0 30 30" xml:space="preserve">
    <g transform="translate(-390 -380)">
        <g xmlns="http://www.w3.org/2000/svg" xmlns:xlink="http://www.w3.org/1999/xlink" id="show-divider-7">
		<path d="M418,404h-1v-13.051c1.142-0.231,2-1.239,2-2.449c0-1.381-1.119-2.5-2.5-2.5s-2.5,1.119-2.5,2.5    c0,0.244,0.046,0.476,0.111,0.698c-2.089,1.075-5.305,2.302-9.111,2.302c-3.801,0-7.019-1.228-9.11-2.304    c0.064-0.223,0.11-0.453,0.11-0.696c0-1.381-1.119-2.5-2.5-2.5s-2.5,1.119-2.5,2.5c0,1.21,0.858,2.218,2,2.449V404h-1v2h-2v1h3h1    h3v-1h-2v-2h-1v-13.051c0.568-0.115,1.057-0.43,1.414-0.858c2.187,1.132,5.546,2.409,9.586,2.409s7.399-1.277,9.586-2.409    c0.357,0.429,0.846,0.743,1.414,0.858V404h-1v2h-2v1h3h1h3v-1h-2V404z M394,406h-1v-1h1V406z M393.5,390    c-0.828,0-1.5-0.672-1.5-1.5s0.672-1.5,1.5-1.5s1.5,0.672,1.5,1.5S394.328,390,393.5,390z M415,388.5c0-0.828,0.672-1.5,1.5-1.5    s1.5,0.672,1.5,1.5s-0.672,1.5-1.5,1.5S415,389.328,415,388.5z M416,406v-1h1v1H416z"/>
	</g>
	
    </g>
</svg>
