<?xml version="1.0" encoding="iso-8859-1"?>
<!DOCTYPE svg PUBLIC "-//W3C//DTD SVG 1.1//EN" "http://www.w3.org/Graphics/SVG/1.1/DTD/svg11.dtd">
<svg version="1.1" xmlns="http://www.w3.org/2000/svg" xmlns:xlink="http://www.w3.org/1999/xlink" x="0px" y="0px" width="30" height="30" viewBox="0 0 30 30" xml:space="preserve">
    <g transform="translate(-570 -320)">
        <g xmlns="http://www.w3.org/2000/svg" xmlns:xlink="http://www.w3.org/1999/xlink" id="show-7">
		<path d="M578.525,336.453c-0.803,0.759-0.838,2.024-0.078,2.827l2.905-2.749C580.594,335.729,579.326,335.693,578.525,336.453z"/>
		<path d="M583.758,341.027c-1.914,0.579-2.291,2.783-2.291,2.783l5.742-1.739C587.209,342.071,585.672,340.448,583.758,341.027z"/>
		<path d="M579,322c0,0,0.288,5.16,1.937,9.954c-3.808,1.146-7.746,1.818-9.937,1.442c0,0,6.173,16.938,14.786,14.33    c3.401-1.03,4.792-4.387,5.233-8.069C598.149,337.203,599,322,599,322C595,324,583,324,579,322z M585.497,346.77    c-6.226,1.885-11.298-8.382-12.972-12.271c2.261-0.02,5.378-0.582,8.756-1.604C582.75,336.682,585.137,340,589,340    c0.344,0,0.671-0.034,0.991-0.085C589.551,343.11,588.319,345.915,585.497,346.77z M589,339c-6.504,0-8.385-11.296-8.858-15.503    c2.171,0.638,5.324,1.003,8.858,1.003s6.688-0.365,8.858-1.003C597.385,327.704,595.504,339,589,339z"/>
		<path d="M586,327c-1.104,0-2,0.896-2,2h4C588,327.896,587.104,327,586,327z"/>
		<path d="M590,329h4c0-1.104-0.896-2-2-2S590,327.896,590,329z"/>
		<path d="M586,334c0,0,1,2,3,2s3-2,3-2H586z"/>
	</g>
	
    </g>
</svg>
