<?xml version="1.0" encoding="iso-8859-1"?>
<!DOCTYPE svg PUBLIC "-//W3C//DTD SVG 1.1//EN" "http://www.w3.org/Graphics/SVG/1.1/DTD/svg11.dtd">
<svg version="1.1" xmlns="http://www.w3.org/2000/svg" xmlns:xlink="http://www.w3.org/1999/xlink" x="0px" y="0px" width="30" height="30" viewBox="0 0 30 30" xml:space="preserve">
    <g transform="translate(-30 -260)">
        <g xmlns="http://www.w3.org/2000/svg" xmlns:xlink="http://www.w3.org/1999/xlink" id="sport-singlet-7">
		<path d="M48,262c0,0,0,5-3,5s-3-5-3-5h-3v10l-3,2v14h9h9v-14l-3-2v-10H48z M53,274.535V287H37v-12.465l3-2V263h1.052    c0.226,2.2,1.228,5,3.948,5c2.72,0,3.722-2.8,3.947-5H50v9.535L53,274.535z"/>
		<rect x="42" y="272" width="1" height="6"/>
		<path d="M44,278h4v-6h-4V278z M45,273h2v4h-2V273z"/>
	</g>
	
    </g>
</svg>
