<?xml version="1.0" encoding="iso-8859-1"?>
<!DOCTYPE svg PUBLIC "-//W3C//DTD SVG 1.1//EN" "http://www.w3.org/Graphics/SVG/1.1/DTD/svg11.dtd">
<svg version="1.1" xmlns="http://www.w3.org/2000/svg" xmlns:xlink="http://www.w3.org/1999/xlink" x="0px" y="0px" width="30" height="30" viewBox="0 0 30 30" xml:space="preserve">
    <g transform="translate(-150 -140)">
        <g xmlns="http://www.w3.org/2000/svg" xmlns:xlink="http://www.w3.org/1999/xlink" id="squash-racquet-7">
		<path d="M158.334,163.08l-0.354-0.354l5.137-5.136c2.645-0.616,8.359-0.581,13.602-5.824c2.122-2.121,1.415-5.657-0.707-7.778    c-2.121-2.121-5.656-2.828-7.778-0.707c-5.242,5.243-5.208,10.958-5.823,13.602l-5.137,5.136l-0.354-0.354l-5.656,5.657    l1.414,1.415L158.334,163.08z M163.694,155.394c0.459-2.912,1.151-7.311,5.247-11.406c1.747-1.747,4.663-0.993,6.363,0.708    c1.7,1.7,2.454,4.617,0.707,6.364c-4.095,4.095-8.494,4.788-11.405,5.246c-0.391,0.062-0.754,0.119-1.092,0.18    C163.576,156.148,163.633,155.784,163.694,155.394z"/>
	</g>
	
    </g>
</svg>
