<?xml version="1.0" encoding="iso-8859-1"?>
<!DOCTYPE svg PUBLIC "-//W3C//DTD SVG 1.1//EN" "http://www.w3.org/Graphics/SVG/1.1/DTD/svg11.dtd">
<svg version="1.1" xmlns="http://www.w3.org/2000/svg" xmlns:xlink="http://www.w3.org/1999/xlink" x="0px" y="0px" width="30" height="30" viewBox="0 0 30 30" xml:space="preserve">
    <g transform="translate(-30 -140)">
        <g xmlns="http://www.w3.org/2000/svg" xmlns:xlink="http://www.w3.org/1999/xlink" id="table-tennis-7">
		<path d="M38.867,161.255c2.146,1.586,4.795,2.216,7.395,1.914c0.403-0.047,0.805-0.117,1.205-0.209    c1.982-0.457,3.886-1.463,5.454-3.031c4.296-4.295,4.454-11.102,0.354-15.202s-10.907-3.942-15.202,0.354    c-1.568,1.568-2.574,3.472-3.031,5.454c-0.092,0.4-0.162,0.802-0.209,1.205c-0.302,2.6,0.328,5.248,1.914,7.395L31,164.879    L33.122,167L38.867,161.255z M38.779,145.787c3.898-3.898,10.084-4.058,13.788-0.354s3.545,9.89-0.354,13.788    c-1.577,1.577-3.56,2.543-5.607,2.879L35.9,151.395C36.236,149.347,37.202,147.363,38.779,145.787z M38.063,159.231l-0.512-0.692    c-1.27-1.716-1.844-3.784-1.775-5.856l9.543,9.543c-2.072,0.068-4.141-0.506-5.856-1.775l-0.692-0.512l-5.647,5.647l-0.707-0.707    L38.063,159.231z"/>
		<path d="M53,164.5c0,1.381,1.119,2.5,2.5,2.5s2.5-1.119,2.5-2.5s-1.119-2.5-2.5-2.5S53,163.119,53,164.5z M57,164.5    c0,0.827-0.673,1.5-1.5,1.5s-1.5-0.673-1.5-1.5s0.673-1.5,1.5-1.5S57,163.673,57,164.5z"/>
	</g>
	
    </g>
</svg>
