<?xml version="1.0" encoding="iso-8859-1"?>
<!DOCTYPE svg PUBLIC "-//W3C//DTD SVG 1.1//EN" "http://www.w3.org/Graphics/SVG/1.1/DTD/svg11.dtd">
<svg version="1.1" xmlns="http://www.w3.org/2000/svg" xmlns:xlink="http://www.w3.org/1999/xlink" x="0px" y="0px" width="29" height="30" viewBox="0 0 29 30" xml:space="preserve">
    <g transform="translate(-30 -80)">
        <g xmlns="http://www.w3.org/2000/svg" xmlns:xlink="http://www.w3.org/1999/xlink" id="tennis-7">
		<path d="M35.652,103.348c2.087,2.087,4.728,3.273,7.449,3.579c0.333,0.037,0.668,0.057,1.002,0.067    c3.334,0.104,6.699-1.103,9.243-3.646c2.372-2.372,3.581-5.459,3.651-8.566c0.007-0.333-0.002-0.665-0.021-0.998    c-0.169-2.959-1.37-5.87-3.63-8.13c-2.261-2.26-5.171-3.461-8.13-3.63c-0.333-0.019-0.666-0.028-0.998-0.021    c-3.107,0.069-6.195,1.279-8.566,3.651c-2.543,2.543-3.75,5.91-3.646,9.243c0.012,0.334,0.031,0.669,0.068,1.002    C32.379,98.62,33.566,101.261,35.652,103.348z M52.639,102.641c-2.313,2.313-5.375,3.424-8.413,3.354    c0.421-2.555,1.7-5.135,3.813-7.247c2.306-2.306,5.17-3.625,7.949-3.91C55.906,97.672,54.797,100.482,52.639,102.641z     M45.168,83.028c2.721,0.156,5.396,1.259,7.471,3.333s3.178,4.75,3.334,7.471c-3.028,0.288-6.141,1.706-8.643,4.207    c-2.293,2.294-3.672,5.103-4.108,7.889c-2.508-0.279-4.942-1.37-6.862-3.288c-1.918-1.919-3.01-4.354-3.287-6.862    c2.786-0.436,5.594-1.814,7.889-4.108C43.462,89.169,44.88,86.057,45.168,83.028z M36.359,86.361    c2.16-2.158,4.969-3.268,7.803-3.35c-0.283,2.78-1.604,5.644-3.909,7.951c-2.112,2.111-4.692,3.392-7.247,3.813    C32.936,91.737,34.047,88.675,36.359,86.361z"/>
	</g>

    </g>
</svg>
