<?xml version="1.0" encoding="iso-8859-1"?>
<!DOCTYPE svg PUBLIC "-//W3C//DTD SVG 1.1//EN" "http://www.w3.org/Graphics/SVG/1.1/DTD/svg11.dtd">
<svg version="1.1" xmlns="http://www.w3.org/2000/svg" xmlns:xlink="http://www.w3.org/1999/xlink" x="0px" y="0px" width="30" height="30" viewBox="0 0 30 30" xml:space="preserve">
    <g transform="translate(-90 -140)">
        <g xmlns="http://www.w3.org/2000/svg" xmlns:xlink="http://www.w3.org/1999/xlink" id="tennis-racquet-7">
		<path d="M98.363,162.515c3.424-3.423,7.215-4.574,9.423-4.961c2.313,0.124,4.858-0.835,6.841-2.817    c3.319-3.319,3.795-8.227,1.061-10.96c-2.733-2.733-7.641-2.258-10.96,1.061c-1.974,1.973-2.933,4.505-2.818,6.811    c-0.384,2.206-1.528,6.021-4.96,9.453L92,166.05l1.414,1.415L98.363,162.515z M105.435,145.544c2.925-2.924,7.206-3.4,9.546-1.061    c2.34,2.339,1.864,6.622-1.061,9.546c-2.924,2.924-7.206,3.4-9.546,1.061S102.511,148.468,105.435,145.544z M102.413,153.919    c0.293,0.692,0.706,1.33,1.254,1.878c0.547,0.547,1.184,0.96,1.875,1.253c-2.071,0.625-4.659,1.822-7.153,4.076l-0.051-0.05    C100.593,158.582,101.789,155.992,102.413,153.919z"/>
	</g>
	
    </g>
</svg>
