<?xml version="1.0" encoding="iso-8859-1"?>
<!DOCTYPE svg PUBLIC "-//W3C//DTD SVG 1.1//EN" "http://www.w3.org/Graphics/SVG/1.1/DTD/svg11.dtd">
<svg version="1.1" xmlns="http://www.w3.org/2000/svg" xmlns:xlink="http://www.w3.org/1999/xlink" x="0px" y="0px" width="30" height="30" viewBox="0 0 30 30" xml:space="preserve">
    <g transform="translate(-450 -380)">
        <g xmlns="http://www.w3.org/2000/svg" xmlns:xlink="http://www.w3.org/1999/xlink" id="aperture-7">
		<path d="M465,408c1.753,0,3.423-0.352,4.949-0.98l0.001,0.001l0.003-0.003C474.675,405.069,478,400.425,478,395    c0-1.753-0.352-3.423-0.98-4.949l0.001-0.002l-0.003-0.003C475.068,385.325,470.425,382,465,382c-1.753,0-3.422,0.352-4.947,0.98    l-0.002-0.002l-0.003,0.004C455.326,384.93,452,389.574,452,395c0,1.752,0.352,3.422,0.98,4.947l-0.002,0.002l0.004,0.003    C454.93,404.674,459.574,408,465,408z M465,407c-1.404,0-2.746-0.255-4-0.7v-8.229l8.168,8.168    C467.867,406.723,466.467,407,465,407z M461,396.586v-3.172l2.414-2.414h3.172l2.414,2.414v3.179l-2.349,2.406h-3.238L461,396.586    z M470.161,405.817L464.344,400h2.728l0.001-0.001l8.822,0.001C474.722,402.546,472.687,404.607,470.161,405.817z M477,395    c0,1.404-0.255,2.747-0.699,4h-8.23l8.168-8.168C476.723,392.133,477,393.533,477,395z M470,393v-8.895    c2.546,1.173,4.607,3.209,5.816,5.733L470,395.656V393z M465,383c1.404,0,2.746,0.255,4,0.7v8.228l-8.167-8.166    C462.133,383.277,463.533,383,465,383z M459.84,384.183l5.816,5.817h-11.551C455.279,387.454,457.314,385.393,459.84,384.183z     M453,395c0-1.404,0.255-2.747,0.7-4l8.228-0.001l-8.167,8.167C453.277,397.866,453,396.467,453,395z M460,394.342V397v8.895    c-2.546-1.174-4.607-3.209-5.817-5.734L460,394.342z"/>
	</g>
	
    </g>
</svg>
