<?xml version="1.0" encoding="iso-8859-1"?>
<!DOCTYPE svg PUBLIC "-//W3C//DTD SVG 1.1//EN" "http://www.w3.org/Graphics/SVG/1.1/DTD/svg11.dtd">
<svg version="1.1" xmlns="http://www.w3.org/2000/svg" xmlns:xlink="http://www.w3.org/1999/xlink" x="0px" y="0px" width="30" height="30" viewBox="0 0 30 30" xml:space="preserve">
    <g transform="translate(-270 -80)">
        <g xmlns="http://www.w3.org/2000/svg" xmlns:xlink="http://www.w3.org/1999/xlink" id="camera-lens-7">
		<path d="M274,100c0.031,0,0.062-0.014,0.093-0.016C275.01,101.82,276.418,103,278,103h16c2.762,0,5-3.582,5-8s-2.238-8-5-8h-16    c-1.582,0-2.99,1.18-3.907,3.016C274.062,90.014,274.031,90,274,90c-1.657,0-3,2.239-3,5S272.343,100,274,100z M281,102    c-1.773,0-3.319-2.144-3.825-5h8.989c0.346,2.149,1.232,3.949,2.417,5H281z M277.175,93h8.989c-0.104,0.64-0.164,1.308-0.164,2    c0,0.339,0.018,0.672,0.043,1h-8.995C277.02,95.672,277,95.339,277,95C277,94.308,277.063,93.637,277.175,93z M298,95    c0,3.794-1.832,7-4,7s-4-3.206-4-7s1.832-7,4-7S298,91.206,298,95z M291.581,88c-1.538,1.364-2.581,3.986-2.581,7    s1.043,5.636,2.581,7H291c-2.168,0-4-3.206-4-7s1.832-7,4-7H291.581z M288.581,88c-0.996,0.883-1.782,2.295-2.214,4h-8.961    c0.654-2.34,2.035-4,3.594-4H288.581z M278,88h0.581c-1.538,1.364-2.581,3.986-2.581,7s1.043,5.636,2.581,7H278    c-2.168,0-4-3.206-4-7S275.832,88,278,88z"/>
	</g>
	
    </g>
</svg>
