<?xml version="1.0" encoding="iso-8859-1"?>
<!DOCTYPE svg PUBLIC "-//W3C//DTD SVG 1.1//EN" "http://www.w3.org/Graphics/SVG/1.1/DTD/svg11.dtd">
<svg version="1.1" xmlns="http://www.w3.org/2000/svg" xmlns:xlink="http://www.w3.org/1999/xlink" x="0px" y="0px" width="30" height="30" viewBox="0 0 30 30" xml:space="preserve">
    <g transform="translate(-30 -80)">
        <g xmlns="http://www.w3.org/2000/svg" xmlns:xlink="http://www.w3.org/1999/xlink" id="camera-7">
		<path d="M34,106h22c1.1,0,2-0.9,2-2V92c0-1.1-0.9-2-2-2h-2c-1.1,0-2.334-0.836-2.742-1.857l-0.516-1.285    C50.334,85.836,49.1,85,48,85h-6c-1.1,0-2.334,0.836-2.742,1.857l-0.516,1.285C38.334,89.164,37.1,90,36,90h-2c-1.1,0-2,0.9-2,2    v12C32,105.1,32.9,106,34,106z M33,92c0-0.551,0.448-1,1-1h2c1.501,0,3.113-1.092,3.671-2.486l0.515-1.285    C40.443,86.586,41.308,86,42,86h6c0.692,0,1.557,0.586,1.813,1.229l0.517,1.287C50.887,89.908,52.499,91,54,91h2    c0.552,0,1,0.449,1,1v12c0,0.551-0.448,1-1,1H34c-0.552,0-1-0.449-1-1V92z"/>
		<path d="M45,102c2.762,0,5-2.238,5-5s-2.238-5-5-5s-5,2.238-5,5S42.238,102,45,102z M45,93c2.206,0,4,1.795,4,4s-1.794,4-4,4    s-4-1.795-4-4S42.794,93,45,93z"/>
	</g>

    </g>
</svg>
