<?xml version="1.0" encoding="iso-8859-1"?>
<!DOCTYPE svg PUBLIC "-//W3C//DTD SVG 1.1//EN" "http://www.w3.org/Graphics/SVG/1.1/DTD/svg11.dtd">
<svg version="1.1" xmlns="http://www.w3.org/2000/svg" xmlns:xlink="http://www.w3.org/1999/xlink" x="0px" y="0px" width="30" height="30" viewBox="0 0 30 30" xml:space="preserve">
    <g transform="translate(-90 -80)">
        <g xmlns="http://www.w3.org/2000/svg" xmlns:xlink="http://www.w3.org/1999/xlink" id="camera-tick-7">
		<path d="M118,92c0-1.1-0.9-2-2-2h-2c-1.1,0-2.334-0.836-2.742-1.857l-0.516-1.285C110.334,85.836,109.1,85,108,85h-6    c-1.1,0-2.334,0.836-2.742,1.857l-0.516,1.285C98.334,89.164,97.1,90,96,90h-2c-1.1,0-2,0.9-2,2v12c0,1.1,0.9,2,2,2h11.869    c1.258,2.378,3.754,4,6.631,4c4.143,0,7.5-3.358,7.5-7.5c0-1.966-0.763-3.75-2-5.087V92z M94,105c-0.552,0-1-0.449-1-1V92    c0-0.551,0.448-1,1-1h2c1.501,0,3.113-1.092,3.671-2.486l0.515-1.285C100.443,86.586,101.308,86,102,86h6    c0.692,0,1.557,0.586,1.813,1.229l0.517,1.287C110.887,89.908,112.499,91,114,91h2c0.552,0,1,0.449,1,1v4.51    c-1.254-0.944-2.809-1.51-4.5-1.51c-0.971,0-1.895,0.19-2.746,0.526C109.121,93.489,107.245,92,105,92c-2.762,0-5,2.238-5,5    s2.238,5,5,5c0.009,0,0.017-0.002,0.025-0.002c-0.012,0.167-0.025,0.333-0.025,0.502c0,0.878,0.158,1.717,0.436,2.5H94z     M108.844,95.955c-1.869,1.046-3.246,2.867-3.69,5.03C105.102,100.986,105.053,101,105,101c-2.206,0-4-1.795-4-4s1.794-4,4-4    C106.842,93,108.381,94.258,108.844,95.955z M119,102.5c0,3.59-2.91,6.5-6.5,6.5s-6.5-2.91-6.5-6.5s2.91-6.5,6.5-6.5    S119,98.91,119,102.5z"/>
		<polygon points="116.742,100.025 116.035,99.318 111.086,104.268 108.965,102.146 108.258,102.854 111.086,105.682   "/>
	</g>
	
    </g>
</svg>
