<?xml version="1.0" encoding="iso-8859-1"?>
<!DOCTYPE svg PUBLIC "-//W3C//DTD SVG 1.1//EN" "http://www.w3.org/Graphics/SVG/1.1/DTD/svg11.dtd">
<svg version="1.1" xmlns="http://www.w3.org/2000/svg" xmlns:xlink="http://www.w3.org/1999/xlink" x="0px" y="0px" width="30" height="30" viewBox="0 0 30 30" xml:space="preserve">
    <g transform="translate(-150 -440)">
        <g xmlns="http://www.w3.org/2000/svg" xmlns:xlink="http://www.w3.org/1999/xlink" id="cd-7">
		<path d="M175.521,447.385c-1.636-2.255-3.967-3.971-6.691-4.81c-0.316-0.098-0.641-0.176-0.968-0.249    C166.94,442.119,165.984,442,165,442c-7.18,0-13,5.819-13,13s5.82,13,13,13s13-5.819,13-13c0-2.489-0.712-4.807-1.925-6.782    C175.9,447.933,175.717,447.655,175.521,447.385z M168.572,443.543c2.482,0.775,4.61,2.345,6.111,4.4l-7.506,5.004    c-0.264-0.28-0.58-0.508-0.935-0.67L168.572,443.543z M167,455c0,1.104-0.896,2-2,2s-2-0.896-2-2s0.896-2,2-2    c0.006,0,0.01,0.002,0.016,0.002c0.352,0.002,0.678,0.103,0.964,0.265c0.125,0.07,0.241,0.152,0.348,0.247    c0.251,0.225,0.442,0.509,0.555,0.833C166.953,454.553,167,454.77,167,455z M165,467c-6.617,0-12-5.383-12-12s5.383-12,12-12    c0.895,0,1.765,0.106,2.604,0.293l-2.329,8.734C165.184,452.02,165.094,452,165,452c-1.656,0-3,1.344-3,3s1.344,3,3,3s3-1.344,3-3    c0-0.437-0.098-0.848-0.266-1.222l7.505-5.004c1.109,1.818,1.761,3.944,1.761,6.226C177,461.617,171.617,467,165,467z"/>
	</g>
	
    </g>
</svg>
