<?xml version="1.0" encoding="iso-8859-1"?>
<!DOCTYPE svg PUBLIC "-//W3C//DTD SVG 1.1//EN" "http://www.w3.org/Graphics/SVG/1.1/DTD/svg11.dtd">
<svg version="1.1" xmlns="http://www.w3.org/2000/svg" xmlns:xlink="http://www.w3.org/1999/xlink" x="0px" y="0px" width="30" height="30" viewBox="0 0 30 30" xml:space="preserve">
    <g transform="translate(-30 -440)">
        <g xmlns="http://www.w3.org/2000/svg" xmlns:xlink="http://www.w3.org/1999/xlink" id="cd-cover-7">
		<path d="M51,446.059V445H31v20h20v-1.059c4.5-0.498,8-4.309,8-8.941S55.5,446.557,51,446.059z M32,464v-18h18v18H32z M51,453.277    c0.596,0.347,1,0.984,1,1.723s-0.404,1.376-1,1.723V453.277z M51,462.931v-5.114c1.162-0.414,2-1.513,2-2.816    s-0.838-2.402-2-2.816v-5.114c3.939,0.495,7,3.858,7,7.931S54.939,462.436,51,462.931z"/>
		<path d="M45,451.887v4.95c-0.508-0.136-1.135-0.079-1.725,0.212c-1.029,0.509-1.539,1.518-1.139,2.253s1.559,0.919,2.588,0.411    c0.9-0.445,1.275-0.938,1.275-1.951v-6v-1v-1l-8,1v1v1v5.075c-0.508-0.136-1.135-0.079-1.725,0.212    c-1.029,0.509-1.539,1.518-1.139,2.253s1.559,0.919,2.588,0.411c0.9-0.445,1.275-0.938,1.275-1.951v-6.125L45,451.887z"/>
		<rect x="33" y="447" width="1" height="1"/>
		<rect x="35" y="447" width="1" height="1"/>
		<rect x="37" y="447" width="1" height="1"/>
	</g>
	
    </g>
</svg>
