<?xml version="1.0" encoding="iso-8859-1"?>
<!DOCTYPE svg PUBLIC "-//W3C//DTD SVG 1.1//EN" "http://www.w3.org/Graphics/SVG/1.1/DTD/svg11.dtd">
<svg version="1.1" xmlns="http://www.w3.org/2000/svg" xmlns:xlink="http://www.w3.org/1999/xlink" x="0px" y="0px" width="30" height="30" viewBox="0 0 30 30" xml:space="preserve">
    <g transform="translate(-210 -440)">
        <g xmlns="http://www.w3.org/2000/svg" xmlns:xlink="http://www.w3.org/1999/xlink" id="cd-tick-7">
		<path d="M237.801,457.194C237.923,456.479,238,455.75,238,455c0-2.489-0.712-4.807-1.925-6.782    c-0.175-0.285-0.358-0.563-0.554-0.833c-1.636-2.255-3.967-3.971-6.691-4.81c-0.316-0.098-0.641-0.176-0.968-0.249    C226.94,442.119,225.984,442,225,442c-7.18,0-13,5.819-13,13s5.82,13,13,13c0.75,0,1.479-0.077,2.194-0.199    c1.357,1.358,3.233,2.199,5.306,2.199c4.143,0,7.5-3.357,7.5-7.5C240,460.428,239.16,458.552,237.801,457.194z M228.572,443.543    c2.482,0.775,4.61,2.345,6.111,4.4l-7.506,5.004c-0.264-0.28-0.58-0.508-0.935-0.67L228.572,443.543z M227,455    c0,1.104-0.896,2-2,2s-2-0.896-2-2s0.896-2,2-2c0.006,0,0.01,0.002,0.016,0.002c0.352,0.002,0.678,0.103,0.964,0.265    c0.125,0.07,0.241,0.152,0.348,0.247c0.251,0.225,0.442,0.509,0.555,0.833C226.953,454.553,227,454.77,227,455z M225,467    c-6.617,0-12-5.383-12-12s5.383-12,12-12c0.895,0,1.765,0.106,2.604,0.293l-2.329,8.734C225.184,452.02,225.094,452,225,452    c-1.656,0-3,1.344-3,3s1.344,3,3,3s3-1.344,3-3c0-0.437-0.098-0.848-0.266-1.222l7.505-5.004c1.109,1.818,1.761,3.944,1.761,6.226    c0,0.488-0.038,0.967-0.095,1.439c-1.237-0.901-2.757-1.439-4.405-1.439c-4.143,0-7.5,3.357-7.5,7.5    c0,1.648,0.538,3.168,1.439,4.405C225.967,466.962,225.488,467,225,467z M232.5,469c-3.59,0-6.5-2.91-6.5-6.5s2.91-6.5,6.5-6.5    s6.5,2.91,6.5,6.5S236.09,469,232.5,469z"/>
		<polygon points="236.742,460.025 236.035,459.318 231.086,464.268 228.965,462.146 228.258,462.854 231.086,465.682   "/>
	</g>
	
    </g>
</svg>
