<?xml version="1.0" encoding="iso-8859-1"?>
<!DOCTYPE svg PUBLIC "-//W3C//DTD SVG 1.1//EN" "http://www.w3.org/Graphics/SVG/1.1/DTD/svg11.dtd">
<svg version="1.1" xmlns="http://www.w3.org/2000/svg" xmlns:xlink="http://www.w3.org/1999/xlink" x="0px" y="0px" width="30" height="30" viewBox="0 0 30 30" xml:space="preserve">
    <g transform="translate(-510 -380)">
        <g xmlns="http://www.w3.org/2000/svg" xmlns:xlink="http://www.w3.org/1999/xlink" id="drum-7">
		<path d="M535.158,386.256l0.741-0.741l-1.414-1.414l-0.741,0.741c-1.852-1.568-4.183-2.58-6.744-2.791V381h-2v1.051    c-2.562,0.211-4.893,1.223-6.744,2.791l-0.741-0.741l-1.414,1.414l0.741,0.741c-1.567,1.852-2.579,4.184-2.791,6.744H513v2h1.051    c0.093,1.128,0.346,2.208,0.729,3.227l0.747-0.873C515.188,396.295,515,395.17,515,394c0-6.065,4.935-11,11-11s11,4.935,11,11    s-4.935,11-11,11c-0.867,0-1.708-0.111-2.518-0.302l-0.345,0.944c0.604,0.147,1.226,0.254,1.862,0.307V407h2v-1.051    c2.562-0.212,4.893-1.223,6.745-2.79l0.74,0.74l1.414-1.414l-0.74-0.74c1.567-1.853,2.578-4.184,2.79-6.745H539v-2h-1.051    C537.737,390.439,536.726,388.107,535.158,386.256z"/>
		<path d="M520.682,403.622c-1.477-0.819-2.743-1.97-3.705-3.349l-0.669,0.781c0.171,0.235,0.346,0.468,0.533,0.69l-0.74,0.74    l1.414,1.414l0.74-0.74c0.64,0.541,1.334,1.019,2.078,1.418L520.682,403.622z"/>
		<rect x="507.536" y="396.575" transform="matrix(0.6506 -0.7594 0.7594 0.6506 -120.6454 531.9358)" width="20.41" height="1"/>
		<rect x="513.764" y="398.491" transform="matrix(0.343 -0.9393 0.9393 0.343 -30.5278 754.3362)" width="20.41" height="0.999"/>
	</g>
	
    </g>
</svg>
