<?xml version="1.0" encoding="iso-8859-1"?>
<!DOCTYPE svg PUBLIC "-//W3C//DTD SVG 1.1//EN" "http://www.w3.org/Graphics/SVG/1.1/DTD/svg11.dtd">
<svg version="1.1" xmlns="http://www.w3.org/2000/svg" xmlns:xlink="http://www.w3.org/1999/xlink" x="0px" y="0px" width="30" height="30" viewBox="0 0 30 30" xml:space="preserve">
    <g transform="translate(-210 -80)">
        <g xmlns="http://www.w3.org/2000/svg" xmlns:xlink="http://www.w3.org/1999/xlink" id="dslr-7">
		<path d="M214,107h22c1.1,0,2-0.9,2-2V91c0-1.1-0.9-2-2-2s-2.334-0.835-2.742-1.857l-0.516-1.286C232.334,84.835,231.1,84,230,84    h-8c-1.1,0-2.334,0.835-2.742,1.857l-0.516,1.286C218.334,88.165,217.1,89,216,89h-2c-1.1,0-2,0.9-2,2v14    C212,106.1,212.9,107,214,107z M213,91c0-0.551,0.449-1,1-1h2c1.502,0,3.114-1.092,3.672-2.486l0.514-1.286    C220.443,85.585,221.308,85,222,85h8c0.692,0,1.557,0.585,1.814,1.228l0.515,1.287C232.886,88.908,234.498,90,236,90    c0.551,0,1,0.449,1,1v14c0,0.551-0.449,1-1,1h-22c-0.551,0-1-0.449-1-1V91z"/>
		<path d="M226,104c4.411,0,8-3.589,8-8s-3.589-8-8-8s-8,3.589-8,8S221.589,104,226,104z M226,89c3.859,0,7,3.14,7,7s-3.141,7-7,7    s-7-3.14-7-7S222.141,89,226,89z"/>
		<path d="M226,100c2.205,0,4-1.794,4-4s-1.795-4-4-4s-4,1.794-4,4S223.795,100,226,100z M226,94c1.104,0,2,0.897,2,2s-0.896,2-2,2    s-2-0.897-2-2S224.896,94,226,94z"/>
		<rect x="214" y="91" width="1" height="5"/>
		<rect x="214" y="97" width="1" height="1"/>
	</g>
	
    </g>
</svg>
