<?xml version="1.0" encoding="iso-8859-1"?>
<!DOCTYPE svg PUBLIC "-//W3C//DTD SVG 1.1//EN" "http://www.w3.org/Graphics/SVG/1.1/DTD/svg11.dtd">
<svg version="1.1" xmlns="http://www.w3.org/2000/svg" xmlns:xlink="http://www.w3.org/1999/xlink" x="0px" y="0px" width="29" height="30" viewBox="0 0 29 30" xml:space="preserve">
    <g transform="translate(-210 -260)">
        <g xmlns="http://www.w3.org/2000/svg" xmlns:xlink="http://www.w3.org/1999/xlink" id="film-star-7">
		<path d="M212,264v23h1v-2h2v2h1v-2h8.436c1.031,2.911,3.801,5,7.064,5c4.143,0,7.5-3.357,7.5-7.5c0-1.966-0.763-3.75-2-5.087V264    h-1v2h-2v-2h-1v2h-17v-2h-1v2h-2v-2H212z M238,282.5c0,3.59-2.91,6.5-6.5,6.5s-6.5-2.91-6.5-6.5s2.91-6.5,6.5-6.5    S238,278.91,238,282.5z M236,276.51c-0.246-0.185-0.501-0.355-0.77-0.51H236V276.51z M234,267h2v2h-2V267z M234,270h2v2h-2V270z     M234,273h2v2h-2V273z M216,267h17v8h-17V267z M216,276h11.77c-2.251,1.295-3.77,3.718-3.77,6.5c0,0.514,0.053,1.016,0.15,1.5H216    V276z M215,284h-2v-2h2V284z M215,281h-2v-2h2V281z M215,278h-2v-2h2V278z M215,275h-2v-2h2V275z M215,272h-2v-2h2V272z M215,267    v2h-2v-2H215z"/>
		<polygon points="233.23,283.078 236,281 234,281 232.568,281 231.5,277.785 230.43,281 227,281 229.768,283.078 228.717,286.344     231.5,284.336 234.278,286.344   "/>
	</g>
	
    </g>
</svg>
