<?xml version="1.0" encoding="iso-8859-1"?>
<!DOCTYPE svg PUBLIC "-//W3C//DTD SVG 1.1//EN" "http://www.w3.org/Graphics/SVG/1.1/DTD/svg11.dtd">
<svg version="1.1" xmlns="http://www.w3.org/2000/svg" xmlns:xlink="http://www.w3.org/1999/xlink" x="0px" y="0px" width="29" height="30" viewBox="0 0 29 30" xml:space="preserve">
    <g transform="translate(-30 -260)">
        <g xmlns="http://www.w3.org/2000/svg" xmlns:xlink="http://www.w3.org/1999/xlink" id="film-7">
		<path d="M33,285h2v2h1v-2h17v2h1v-2h2v2h1v-23h-1v2h-2v-2h-1v2H36v-2h-1v2h-2v-2h-1v23h1V285z M54,267h2v2h-2V267z M54,270h2v2h-2    V270z M54,273h2v2h-2V273z M54,276h2v2h-2V276z M54,279h2v2h-2V279z M54,282h2v2h-2V282z M36,267h17v8H36V267z M36,276h17v8H36    V276z M33,267h2v2h-2V267z M33,270h2v2h-2V270z M33,273h2v2h-2V273z M33,276h2v2h-2V276z M33,279h2v2h-2V279z M33,282h2v2h-2V282z    "/>
	</g>
	
    </g>
</svg>
