<?xml version="1.0" encoding="iso-8859-1"?>
<!DOCTYPE svg PUBLIC "-//W3C//DTD SVG 1.1//EN" "http://www.w3.org/Graphics/SVG/1.1/DTD/svg11.dtd">
<svg version="1.1" xmlns="http://www.w3.org/2000/svg" xmlns:xlink="http://www.w3.org/1999/xlink" x="0px" y="0px" width="29" height="30" viewBox="0 0 29 30" xml:space="preserve">
    <g transform="translate(-390 -260)">
        <g xmlns="http://www.w3.org/2000/svg" xmlns:xlink="http://www.w3.org/1999/xlink" id="film-setting-7">
		<path d="M392,287h1v-2h2v2h1v-2h17v2h1v-2h2v2h1v-23h-1v2h-2v-2h-1v2h-17v-2h-1v2h-2v-2h-1V287z M414,267h2v2h-2V267z M414,270h2    v2h-2V270z M414,273h2v2h-2V273z M414,276h2v2h-2V276z M414,279h2v2h-2V279z M414,282h2v2h-2V282z M396,276v-1v-8h17v8v1v8h-17    V276z M393,267h2v2h-2V267z M393,270h2v2h-2V270z M393,273h2v2h-2V273z M393,276h2v2h-2V276z M393,279h2v2h-2V279z M393,282h2v2    h-2V282z"/>
		<path d="M411,276.001v-1h-2.051c-0.097-0.865-0.432-1.649-0.947-2.295l1.448-1.448l-0.707-0.707l-1.448,1.448    c-0.646-0.517-1.43-0.852-2.295-0.948V269h-1v2.051c-0.865,0.097-1.649,0.432-2.295,0.948l-1.448-1.448l-0.707,0.707l1.448,1.448    c-0.516,0.646-0.851,1.43-0.947,2.295H398v1h2.051c0.097,0.865,0.432,1.649,0.948,2.295l-1.448,1.448l0.707,0.707l1.448-1.449    c0.646,0.516,1.43,0.851,2.294,0.947V282h1v-2.051c0.864-0.097,1.648-0.432,2.294-0.947l1.448,1.448l0.707-0.707l-1.448-1.448    c0.517-0.646,0.852-1.43,0.948-2.294H411z M404.5,279c-1.933,0-3.5-1.566-3.5-3.5s1.567-3.5,3.5-3.5s3.5,1.566,3.5,3.5    S406.433,279,404.5,279z"/>
		<circle cx="404.5" cy="275.5" r="1.5"/>
	</g>
	
    </g>
</svg>
