<?xml version="1.0" encoding="iso-8859-1"?>
<!DOCTYPE svg PUBLIC "-//W3C//DTD SVG 1.1//EN" "http://www.w3.org/Graphics/SVG/1.1/DTD/svg11.dtd">
<svg version="1.1" xmlns="http://www.w3.org/2000/svg" xmlns:xlink="http://www.w3.org/1999/xlink" x="0px" y="0px" width="29" height="30" viewBox="0 0 29 30" xml:space="preserve">
    <g transform="translate(-270 -260)">
        <g xmlns="http://www.w3.org/2000/svg" xmlns:xlink="http://www.w3.org/1999/xlink" id="film-tick-7">
		<path d="M272,264v23h1v-2h2v2h1v-2h8.436c1.031,2.911,3.801,5,7.064,5c4.143,0,7.5-3.357,7.5-7.5c0-1.966-0.763-3.75-2-5.087V264    h-1v2h-2v-2h-1v2h-17v-2h-1v2h-2v-2H272z M298,282.5c0,3.59-2.91,6.5-6.5,6.5s-6.5-2.91-6.5-6.5s2.91-6.5,6.5-6.5    S298,278.91,298,282.5z M296,276.51c-0.246-0.185-0.501-0.355-0.77-0.51H296V276.51z M294,267h2v2h-2V267z M294,270h2v2h-2V270z     M294,273h2v2h-2V273z M276,267h17v8h-17V267z M276,276h11.77c-2.251,1.295-3.77,3.718-3.77,6.5c0,0.514,0.053,1.016,0.15,1.5H276    V276z M275,284h-2v-2h2V284z M275,281h-2v-2h2V281z M275,278h-2v-2h2V278z M275,275h-2v-2h2V275z M275,272h-2v-2h2V272z M275,267    v2h-2v-2H275z"/>
		<polygon points="295.742,280.025 295.035,279.318 290.086,284.268 287.965,282.146 287.258,282.854 290.086,285.682   "/>
	</g>
	
    </g>
</svg>
