<?xml version="1.0" encoding="iso-8859-1"?>
<!DOCTYPE svg PUBLIC "-//W3C//DTD SVG 1.1//EN" "http://www.w3.org/Graphics/SVG/1.1/DTD/svg11.dtd">
<svg version="1.1" xmlns="http://www.w3.org/2000/svg" xmlns:xlink="http://www.w3.org/1999/xlink" x="0px" y="0px" width="29" height="30" viewBox="0 0 29 30" xml:space="preserve">
    <g transform="translate(-510 -320)">
        <g xmlns="http://www.w3.org/2000/svg" xmlns:xlink="http://www.w3.org/1999/xlink" id="guitar-string-7">
		<path d="M537,329v-1h-4.264c-1.923-2.434-4.895-4-8.236-4s-6.313,1.566-8.236,4H512v1h3.568c-0.906,1.467-1.457,3.171-1.543,5H512    v1h2.025c0.086,1.829,0.637,3.533,1.543,5H512v1h4.264c1.923,2.434,4.895,4,8.236,4s6.313-1.566,8.236-4H537v-1h-3.568    c0.906-1.467,1.457-3.171,1.543-5H537v-1h-2.025c-0.086-1.829-0.637-3.533-1.543-5H537z M524.5,325c2.723,0,5.176,1.158,6.909,3    h-13.818C519.324,326.158,521.777,325,524.5,325z M524.5,344c-2.723,0-5.176-1.158-6.909-3h13.818    C529.676,342.842,527.223,344,524.5,344z M532.231,340h-15.463c-1.018-1.426-1.646-3.143-1.743-5h18.949    C533.877,336.857,533.249,338.574,532.231,340z M533.975,334h-18.949c0.098-1.857,0.726-3.574,1.743-5h15.463    C533.249,330.426,533.877,332.143,533.975,334z"/>
	</g>
	
    </g>
</svg>
