<?xml version="1.0" encoding="iso-8859-1"?>
<!DOCTYPE svg PUBLIC "-//W3C//DTD SVG 1.1//EN" "http://www.w3.org/Graphics/SVG/1.1/DTD/svg11.dtd">
<svg version="1.1" xmlns="http://www.w3.org/2000/svg" xmlns:xlink="http://www.w3.org/1999/xlink" x="0px" y="0px" width="30" height="30" viewBox="0 0 30 30" xml:space="preserve">
    <g transform="translate(-330 -380)">
        <g xmlns="http://www.w3.org/2000/svg" xmlns:xlink="http://www.w3.org/1999/xlink" id="mic-off-7">
		<path d="M345,403c-4.411,0-8-3.589-8-8v-3h-1v3c0,4.624,3.507,8.441,8,8.941V407h-4v1h10v-1h-4v-3.059    c1.732-0.192,3.314-0.883,4.609-1.918l-0.712-0.712C348.543,402.365,346.846,403,345,403z"/>
		<path d="M345,400c-2.757,0-5-2.243-5-5v-3.586l-1-1V395c0,3.313,2.687,6,6,6c1.296,0,2.492-0.415,3.473-1.113l-0.72-0.72    C346.963,399.691,346.018,400,345,400z"/>
		<path d="M351,388c0-3.313-2.687-6-6-6c-3.181,0-5.776,2.477-5.98,5.605l-6.041-6.041l-0.707,0.707l25.457,25.457l0.707-0.707    l-6.413-6.413c1.233-1.54,1.978-3.486,1.978-5.608v-3h-1v3c0,1.846-0.635,3.543-1.688,4.897l-1.425-1.425    c0.698-0.98,1.113-2.177,1.113-3.473V388z M350,395c0,1.018-0.309,1.963-0.833,2.753L340,388.586V388c0-2.757,2.243-5,5-5    s5,2.243,5,5V395z"/>
	</g>
	
    </g>
</svg>
