<?xml version="1.0" encoding="iso-8859-1"?>
<!DOCTYPE svg PUBLIC "-//W3C//DTD SVG 1.1//EN" "http://www.w3.org/Graphics/SVG/1.1/DTD/svg11.dtd">
<svg version="1.1" xmlns="http://www.w3.org/2000/svg" xmlns:xlink="http://www.w3.org/1999/xlink" x="0px" y="0px" width="29" height="30" viewBox="0 0 29 30" xml:space="preserve">
    <g transform="translate(-571 -320)">
        <g xmlns="http://www.w3.org/2000/svg" xmlns:xlink="http://www.w3.org/1999/xlink" id="microphone-7">
		<path d="M574.003,344.738c0,0.936,0.364,1.814,1.025,2.475c0.662,0.662,1.541,1.025,2.476,1.025s1.813-0.363,2.474-1.025    l6.364-6.363c0.945-0.946,2.593-0.944,3.535,0c0.473,0.472,0.732,1.1,0.732,1.768s-0.26,1.295-0.732,1.768l-1.414,1.414    l0.707,0.707l1.414-1.414c0.661-0.66,1.025-1.539,1.025-2.475s-0.364-1.814-1.025-2.475c-1.319-1.322-3.626-1.322-4.949,0    l-6.364,6.363c-0.944,0.945-2.591,0.943-3.535,0c-0.473-0.473-0.732-1.1-0.732-1.768s0.26-1.295,0.732-1.768l0.707-0.707    l1.414,1.414l11.173-9.931c1.545,0.266,3.191-0.189,4.385-1.383l2.121-2.122c1.952-1.951,1.953-5.117,0-7.07l-0.707-0.707    c-1.953-1.953-5.119-1.953-7.071,0l-2.121,2.121c-1.193,1.193-1.648,2.838-1.384,4.383l-9.93,11.174l1.413,1.414l-0.707,0.707    C574.367,342.925,574.003,343.804,574.003,344.738z M586.343,325.293l2.121-2.121c1.56-1.56,4.097-1.561,5.657,0l0.707,0.707    c1.56,1.561,1.56,4.098,0,5.656l-2.121,2.122c-0.246,0.245-0.521,0.438-0.809,0.606l-6.162-6.163    C585.904,325.814,586.097,325.539,586.343,325.293z M585.322,327.101l5.576,5.577c-1.332,0.351-2.807,0.021-3.849-1.021    l-0.707-0.707C585.301,329.908,584.972,328.433,585.322,327.101z M575.695,340.103l8.893-10.003    c0.243,0.564,0.587,1.096,1.048,1.558l0.707,0.707c0.461,0.461,0.993,0.804,1.558,1.048l-10.004,8.891l-0.747-0.746l-0.707-0.707    L575.695,340.103z"/>
		<rect x="583.014" y="332.985" transform="matrix(0.7071 0.7071 -0.7071 0.7071 407.4246 -314.6382)" width="1" height="3.001"/>
		<rect x="580.893" y="336.107" transform="matrix(0.7071 0.7071 -0.7071 0.7071 408.3033 -312.5166)" width="1" height="1"/>
	</g>
	
    </g>
</svg>
