<?xml version="1.0" encoding="iso-8859-1"?>
<!DOCTYPE svg PUBLIC "-//W3C//DTD SVG 1.1//EN" "http://www.w3.org/Graphics/SVG/1.1/DTD/svg11.dtd">
<svg version="1.1" xmlns="http://www.w3.org/2000/svg" xmlns:xlink="http://www.w3.org/1999/xlink" x="0px" y="0px" width="30" height="30" viewBox="0 0 30 30" xml:space="preserve">
    <g transform="translate(-390 -440)">
        <g xmlns="http://www.w3.org/2000/svg" xmlns:xlink="http://www.w3.org/1999/xlink" id="music-folder-7">
		<path d="M416,447h-13c-0.55,0-1.25-0.375-1.555-0.832l-0.891-1.336C400.25,444.375,399.55,444,399,444h-5c-0.55,0-1,0.45-1,1v20    c0,0.55,0.45,1,1,1h22c0.55,0,1-0.45,1-1v-17C417,447.449,416.55,447,416,447z M416,465h-22v-20h5    c0.218,0,0.603,0.205,0.723,0.387l0.891,1.336C401.106,447.462,402.11,448,403,448h13V465z"/>
		<path d="M402,453v1v5.075c-0.508-0.136-1.135-0.079-1.725,0.212c-1.029,0.509-1.539,1.518-1.139,2.253s1.559,0.919,2.588,0.411    c0.9-0.445,1.275-0.938,1.275-1.951v-6.125l6-0.75v4.95c-0.508-0.136-1.135-0.079-1.725,0.212    c-1.029,0.509-1.539,1.518-1.139,2.253s1.559,0.919,2.588,0.411c0.9-0.445,1.275-0.938,1.275-1.951v-6v-1v-1l-8,1V453z"/>
	</g>
	
    </g>
</svg>
