<?xml version="1.0" encoding="iso-8859-1"?>
<!DOCTYPE svg PUBLIC "-//W3C//DTD SVG 1.1//EN" "http://www.w3.org/Graphics/SVG/1.1/DTD/svg11.dtd">
<svg version="1.1" xmlns="http://www.w3.org/2000/svg" xmlns:xlink="http://www.w3.org/1999/xlink" x="0px" y="0px" width="30" height="30" viewBox="0 0 30 30" xml:space="preserve">
    <g transform="translate(-330 -440)">
        <g xmlns="http://www.w3.org/2000/svg" xmlns:xlink="http://www.w3.org/1999/xlink" id="music-file-tick-7">
		<path d="M355,455.436V448l-5-5h-15v24h11.51c1.368,1.818,3.539,3,5.99,3c4.143,0,7.5-3.357,7.5-7.5    C360,459.235,357.911,456.467,355,455.436z M336,466v-22h14v4h4v7.15c-0.484-0.099-0.986-0.15-1.5-0.15    c-0.878,0-1.717,0.158-2.5,0.436V452v-1v-1l-8,1v1v1v6.075c-0.508-0.136-1.135-0.079-1.725,0.212    c-1.029,0.509-1.539,1.518-1.139,2.253s1.559,0.919,2.588,0.411c0.9-0.445,1.275-0.938,1.275-1.951v-7.125l6-0.75v3.744    c-2.378,1.258-4,3.753-4,6.631c0,1.265,0.316,2.455,0.869,3.5H336z M352.5,469c-3.59,0-6.5-2.91-6.5-6.5s2.91-6.5,6.5-6.5    s6.5,2.91,6.5,6.5S356.09,469,352.5,469z"/>
		<polygon points="351.086,464.268 348.965,462.146 348.258,462.854 351.086,465.682 356.742,460.025 356.035,459.318   "/>
	</g>
	
    </g>
</svg>
