<?xml version="1.0" encoding="iso-8859-1"?>
<!DOCTYPE svg PUBLIC "-//W3C//DTD SVG 1.1//EN" "http://www.w3.org/Graphics/SVG/1.1/DTD/svg11.dtd">
<svg version="1.1" xmlns="http://www.w3.org/2000/svg" xmlns:xlink="http://www.w3.org/1999/xlink" x="0px" y="0px" width="30" height="30" viewBox="0 0 30 30" xml:space="preserve">
    <g transform="translate(-210 -320)">
        <g xmlns="http://www.w3.org/2000/svg" xmlns:xlink="http://www.w3.org/1999/xlink" id="music-minus-7">
		<path d="M237.801,337.194C237.923,336.479,238,335.75,238,335c0-7.18-5.82-13-13-13s-13,5.82-13,13s5.82,13,13,13    c0.75,0,1.479-0.077,2.194-0.199c1.357,1.358,3.233,2.199,5.306,2.199c4.143,0,7.5-3.357,7.5-7.5    C240,340.428,239.159,338.552,237.801,337.194z M225,347c-6.617,0-12-5.383-12-12s5.383-12,12-12s12,5.383,12,12    c0,0.488-0.038,0.967-0.095,1.439c-1.237-0.901-2.757-1.439-4.405-1.439c-0.878,0-1.717,0.158-2.5,0.436c0-2.874,0-7.27,0-7.27    l-9,1.637v9.145c-0.424-0.137-0.935-0.146-1.449,0.012c-1.076,0.33-1.747,1.254-1.499,2.061c0.249,0.807,1.321,1.193,2.398,0.861    c1.066-0.328,1.55-1.041,1.55-2.041c0-0.824,0-6.293,0-8.188l7-1.271v5.488c-0.59,0.312-1.129,0.702-1.612,1.153    c-0.866,0.329-1.427,1.042-1.38,1.733c-0.637,1.103-1.008,2.379-1.008,3.744c0,1.648,0.538,3.168,1.439,4.405    C225.967,346.962,225.488,347,225,347z M232.5,349c-3.59,0-6.5-2.91-6.5-6.5s2.91-6.5,6.5-6.5s6.5,2.91,6.5,6.5    S236.09,349,232.5,349z"/>
		<rect x="228" y="342" width="9" height="1"/>
	</g>
	
    </g>
</svg>
