<?xml version="1.0" encoding="iso-8859-1"?>
<!DOCTYPE svg PUBLIC "-//W3C//DTD SVG 1.1//EN" "http://www.w3.org/Graphics/SVG/1.1/DTD/svg11.dtd">
<svg version="1.1" xmlns="http://www.w3.org/2000/svg" xmlns:xlink="http://www.w3.org/1999/xlink" x="0px" y="0px" width="30" height="30" viewBox="0 0 30 30" xml:space="preserve">
    <g transform="translate(-390 -320)">
        <g xmlns="http://www.w3.org/2000/svg" xmlns:xlink="http://www.w3.org/1999/xlink" id="music-off-7">
		<path d="M405,347c-6.617,0-12-5.383-12-12c0-2.949,1.074-5.649,2.846-7.74l-0.711-0.711c-1.95,2.273-3.135,5.222-3.135,8.451    c0,7.18,5.82,13,13,13c3.229,0,6.178-1.185,8.451-3.135l-0.711-0.711C410.649,345.926,407.949,347,405,347z"/>
		<path d="M418,335c0-7.18-5.82-13-13-13c-3.229,0-6.178,1.185-8.451,3.135l-3.57-3.57l-0.707,0.707l25.457,25.457l0.707-0.707    l-3.57-3.57C416.815,341.178,418,338.229,418,335z M409,336.947c-0.226-0.073-0.478-0.106-0.739-0.101l-5.358-5.358l6.098-1.107    V336.947z M409.912,338.498c0.057-0.203,0.088-0.421,0.088-0.658c0-0.584,0-9.674,0-9.674l-8.816,1.604l-3.924-3.924    c2.091-1.771,4.791-2.846,7.74-2.846c6.617,0,12,5.383,12,12c0,2.949-1.074,5.649-2.846,7.74L409.912,338.498z"/>
		<path d="M399.551,338.959c-1.076,0.33-1.747,1.254-1.499,2.061c0.249,0.807,1.321,1.193,2.398,0.861    c1.066-0.328,1.55-1.041,1.55-2.041c0-0.636,0-4.035,0-6.426l-1-1v6.533C400.576,338.811,400.065,338.801,399.551,338.959z"/>
		<path d="M406.052,339.02c0.249,0.807,1.321,1.193,2.398,0.861c0.005-0.001,0.007-0.004,0.012-0.005l-2.114-2.114    C406.048,338.146,405.922,338.598,406.052,339.02z"/>
	</g>
	
    </g>
</svg>
