<?xml version="1.0" encoding="iso-8859-1"?>
<!DOCTYPE svg PUBLIC "-//W3C//DTD SVG 1.1//EN" "http://www.w3.org/Graphics/SVG/1.1/DTD/svg11.dtd">
<svg version="1.1" xmlns="http://www.w3.org/2000/svg" xmlns:xlink="http://www.w3.org/1999/xlink" x="0px" y="0px" width="30" height="30" viewBox="0 0 30 30" xml:space="preserve">
    <g transform="translate(-90 -320)">
        <g xmlns="http://www.w3.org/2000/svg" xmlns:xlink="http://www.w3.org/1999/xlink" id="music-7">
		<path d="M105,322c-7.18,0-13,5.82-13,13s5.82,13,13,13s13-5.82,13-13S112.18,322,105,322z M105,347c-6.617,0-12-5.383-12-12    s5.383-12,12-12s12,5.383,12,12S111.617,347,105,347z"/>
		<path d="M101,338.947c-0.424-0.137-0.935-0.146-1.449,0.012c-1.076,0.33-1.747,1.254-1.499,2.061    c0.249,0.807,1.321,1.193,2.398,0.861c1.066-0.328,1.55-1.041,1.55-2.041c0-0.824,0-6.293,0-8.188l7-1.271v6.566    c-0.424-0.137-0.935-0.146-1.449,0.012c-1.076,0.33-1.747,1.254-1.499,2.061c0.249,0.807,1.321,1.193,2.398,0.861    c1.066-0.328,1.55-1.041,1.55-2.041c0-0.584,0-9.674,0-9.674l-9,1.637V338.947z"/>
	</g>
	
    </g>
</svg>
