<?xml version="1.0" encoding="iso-8859-1"?>
<!DOCTYPE svg PUBLIC "-//W3C//DTD SVG 1.1//EN" "http://www.w3.org/Graphics/SVG/1.1/DTD/svg11.dtd">
<svg version="1.1" xmlns="http://www.w3.org/2000/svg" xmlns:xlink="http://www.w3.org/1999/xlink" x="0px" y="0px" width="30" height="30" viewBox="0 0 30 30" xml:space="preserve">
    <g transform="translate(-450 -440)">
        <g xmlns="http://www.w3.org/2000/svg" xmlns:xlink="http://www.w3.org/1999/xlink" id="music-folder-tick-7">
		<path d="M477,456.51V448c0-0.551-0.45-1-1-1h-13c-0.55,0-1.25-0.375-1.555-0.832l-0.891-1.336C460.25,444.375,459.55,444,459,444    h-5c-0.55,0-1,0.45-1,1v20c0,0.55,0.45,1,1,1h11.869c1.258,2.378,3.753,4,6.631,4c4.143,0,7.5-3.357,7.5-7.5    C480,460.049,478.818,457.878,477,456.51z M454,465v-20h5c0.218,0,0.603,0.205,0.723,0.387l0.891,1.336    C461.106,447.462,462.11,448,463,448h13v7.869c-1.045-0.553-2.235-0.869-3.5-0.869c-0.878,0-1.717,0.158-2.5,0.436V453v-1v-1l-8,1    v1v1v5.075c-0.508-0.136-1.135-0.079-1.725,0.212c-1.029,0.509-1.539,1.518-1.139,2.253s1.559,0.919,2.588,0.411    c0.9-0.445,1.275-0.938,1.275-1.951v-6.125l6-0.75v2.744c-2.378,1.258-4,3.753-4,6.631c0,0.878,0.158,1.717,0.436,2.5H454z     M472.5,469c-3.59,0-6.5-2.91-6.5-6.5s2.91-6.5,6.5-6.5s6.5,2.91,6.5,6.5S476.09,469,472.5,469z"/>
		<polygon points="476.742,460.025 476.035,459.318 471.086,464.268 468.965,462.146 468.258,462.854 471.086,465.682   "/>
	</g>
	
    </g>
</svg>
