<?xml version="1.0" encoding="iso-8859-1"?>
<!DOCTYPE svg PUBLIC "-//W3C//DTD SVG 1.1//EN" "http://www.w3.org/Graphics/SVG/1.1/DTD/svg11.dtd">
<svg version="1.1" xmlns="http://www.w3.org/2000/svg" xmlns:xlink="http://www.w3.org/1999/xlink" x="0px" y="0px" width="30" height="30" viewBox="0 0 30 30" xml:space="preserve">
    <g transform="translate(-510 -200)">
        <g xmlns="http://www.w3.org/2000/svg" xmlns:xlink="http://www.w3.org/1999/xlink" id="photo-book-7">
		<path d="M514,204.5v21c0,1.379,1.121,2.5,2.5,2.5H536v-21v-0.5V206h-19.5c-0.827,0-1.5-0.673-1.5-1.5s0.673-1.5,1.5-1.5H536v-0.5    V202h-19.5C515.121,202,514,203.122,514,204.5z M535,227h-18.5c-0.827,0-1.5-0.673-1.5-1.5v-19.013    c0.419,0.317,0.935,0.513,1.5,0.513H535V227z"/>
		<rect x="517" y="204" width="18" height="1"/>
		<path d="M533,209h-16v10h16V209z M532,218h-14v-2h4.207l0.793-0.793l1,1l3-3l2.793,2.793H532V218z M532,215h-1.793L527,211.793    l-3,3l-1-1L521.793,215H518v-5h14V215z"/>
	</g>
	
    </g>
</svg>
