<?xml version="1.0" encoding="iso-8859-1"?>
<!DOCTYPE svg PUBLIC "-//W3C//DTD SVG 1.1//EN" "http://www.w3.org/Graphics/SVG/1.1/DTD/svg11.dtd">
<svg version="1.1" xmlns="http://www.w3.org/2000/svg" xmlns:xlink="http://www.w3.org/1999/xlink" x="0px" y="0px" width="30" height="30" viewBox="0 0 30 30" xml:space="preserve">
    <g transform="translate(-390 -200)">
        <g xmlns="http://www.w3.org/2000/svg" xmlns:xlink="http://www.w3.org/1999/xlink" id="photo-many-7">
		<path d="M392,228h26v-21h-26V228z M393,208h24v11.375L410,215l-6,6l-3-2l-3,2h-5V208z M393,222h5.303l2.697-1.799l3.127,2.086    l6.018-6.018l6.855,4.285V227h-24V222z"/>
		<path d="M401,213c0-1.657-1.343-3-3-3s-3,1.343-3,3s1.343,3,3,3S401,214.657,401,213z M396,213c0-1.103,0.897-2,2-2s2,0.897,2,2    c0,1.104-0.897,2-2,2S396,214.104,396,213z"/>
		<rect x="394" y="204" width="22" height="1"/>
		<rect x="396" y="201" width="18" height="1"/>
	</g>
	
    </g>
</svg>
