<?xml version="1.0" encoding="iso-8859-1"?>
<!DOCTYPE svg PUBLIC "-//W3C//DTD SVG 1.1//EN" "http://www.w3.org/Graphics/SVG/1.1/DTD/svg11.dtd">
<svg version="1.1" xmlns="http://www.w3.org/2000/svg" xmlns:xlink="http://www.w3.org/1999/xlink" x="0px" y="0px" width="30" height="30" viewBox="0 0 30 30" xml:space="preserve">
    <g transform="translate(-90 -200)">
        <g xmlns="http://www.w3.org/2000/svg" xmlns:xlink="http://www.w3.org/1999/xlink" id="photo-7-plus">
		<path d="M99,211c0-1.657-1.343-3-3-3s-3,1.343-3,3s1.343,3,3,3S99,212.657,99,211z M94,211c0-1.103,0.897-2,2-2s2,0.897,2,2    c0,1.104-0.897,2-2,2S94,212.104,94,211z"/>
		<path d="M116,215.869V205H90v21h15.869c1.258,2.378,3.754,4,6.631,4c4.143,0,7.5-3.358,7.5-7.5    C120,219.623,118.378,217.127,116,215.869z M91,206h24v9.436c-0.783-0.277-1.622-0.436-2.5-0.436    c-0.391,0-0.771,0.039-1.146,0.097L108,213l-6,6l-3-2l-3,2h-5V206z M91,225v-5h5.303L99,218.201l3.127,2.086l6.018-6.018    l1.862,1.164c-2.915,1.029-5.007,3.8-5.007,7.066c0,0.878,0.158,1.717,0.436,2.5H91z M112.5,229c-3.59,0-6.5-2.91-6.5-6.5    s2.91-6.5,6.5-6.5s6.5,2.91,6.5,6.5S116.09,229,112.5,229z"/>
		<polygon points="113,222 113,218 112,218 112,222 108,222 108,223 112,223 112,227 113,227 113,223 117,223 117,222   "/>
	</g>
	
    </g>
</svg>
