<?xml version="1.0" encoding="iso-8859-1"?>
<!DOCTYPE svg PUBLIC "-//W3C//DTD SVG 1.1//EN" "http://www.w3.org/Graphics/SVG/1.1/DTD/svg11.dtd">
<svg version="1.1" xmlns="http://www.w3.org/2000/svg" xmlns:xlink="http://www.w3.org/1999/xlink" x="0px" y="0px" width="30" height="30" viewBox="0 0 30 30" xml:space="preserve">
    <g transform="translate(-570 -200)">
        <g xmlns="http://www.w3.org/2000/svg" xmlns:xlink="http://www.w3.org/1999/xlink" id="photo-book-tick-7">
		<rect x="577" y="204" width="18" height="1"/>
		<path d="M596,215.869V207v-0.5V206h-19.5c-0.827,0-1.5-0.673-1.5-1.5s0.673-1.5,1.5-1.5H596v-0.5V202h-19.5    c-1.379,0-2.5,1.122-2.5,2.5v21c0,1.379,1.121,2.5,2.5,2.5h10.913c1.337,1.238,3.121,2,5.087,2c4.143,0,7.5-3.357,7.5-7.5    C600,219.622,598.378,217.126,596,215.869z M575,225.5v-19.013c0.419,0.317,0.935,0.513,1.5,0.513H595v8.436    c-0.633-0.224-1.303-0.364-2-0.41V209h-16v10h8.869c-0.553,1.045-0.869,2.235-0.869,3.5c0,1.691,0.566,3.246,1.51,4.5H576.5    C575.673,227,575,226.327,575,225.5z M586.51,218H578v-2h4.207l0.793-0.793l1,1l3-3l2.446,2.447    C588.277,216.176,587.271,216.989,586.51,218z M578,215v-5h14v5h-1.793L587,211.793l-3,3l-1-1L581.793,215H578z M592.5,229    c-3.59,0-6.5-2.91-6.5-6.5s2.91-6.5,6.5-6.5s6.5,2.91,6.5,6.5S596.09,229,592.5,229z"/>
		<polygon points="591.086,224.268 588.965,222.146 588.258,222.854 591.086,225.682 596.742,220.025 596.035,219.318   "/>
	</g>
	
    </g>
</svg>
