<?xml version="1.0" encoding="iso-8859-1"?>
<!DOCTYPE svg PUBLIC "-//W3C//DTD SVG 1.1//EN" "http://www.w3.org/Graphics/SVG/1.1/DTD/svg11.dtd">
<svg version="1.1" xmlns="http://www.w3.org/2000/svg" xmlns:xlink="http://www.w3.org/1999/xlink" x="0px" y="0px" width="30" height="30" viewBox="0 0 30 30" xml:space="preserve">
    <g transform="translate(-210 -200)">
        <g xmlns="http://www.w3.org/2000/svg" xmlns:xlink="http://www.w3.org/1999/xlink" id="photo-star-7">
		<path d="M219,211c0-1.657-1.343-3-3-3s-3,1.343-3,3s1.343,3,3,3S219,212.657,219,211z M214,211c0-1.103,0.897-2,2-2s2,0.897,2,2    c0,1.104-0.897,2-2,2S214,212.104,214,211z"/>
		<path d="M236,215.869V205h-26v21h15.869c1.258,2.378,3.754,4,6.631,4c4.143,0,7.5-3.358,7.5-7.5    C240,219.623,238.378,217.127,236,215.869z M211,206h24v9.436c-0.783-0.277-1.622-0.436-2.5-0.436    c-0.391,0-0.771,0.039-1.146,0.097L228,213l-6,6l-3-2l-3,2h-5V206z M211,225v-5h5.303l2.697-1.799l3.127,2.086l6.018-6.018    l1.862,1.164c-2.915,1.029-5.007,3.8-5.007,7.066c0,0.878,0.158,1.717,0.436,2.5H211z M232.5,229c-3.59,0-6.5-2.91-6.5-6.5    s2.91-6.5,6.5-6.5s6.5,2.91,6.5,6.5S236.09,229,232.5,229z"/>
		<polygon points="233.568,221 232.5,217.785 231.43,221 228,221 230.768,223.079 229.717,226.344 232.5,224.336 235.278,226.344     234.23,223.079 237,221   "/>
	</g>
	
    </g>
</svg>
