<?xml version="1.0" encoding="iso-8859-1"?>
<!DOCTYPE svg PUBLIC "-//W3C//DTD SVG 1.1//EN" "http://www.w3.org/Graphics/SVG/1.1/DTD/svg11.dtd">
<svg version="1.1" xmlns="http://www.w3.org/2000/svg" xmlns:xlink="http://www.w3.org/1999/xlink" x="0px" y="0px" width="30" height="30" viewBox="0 0 30 30" xml:space="preserve">
    <g transform="translate(-30 -200)">
        <g xmlns="http://www.w3.org/2000/svg" xmlns:xlink="http://www.w3.org/1999/xlink" id="photo-7">
		<path d="M58,205H32v21h26V205z M57,225H33v-5h5.303L41,218.201l3.127,2.086l6.018-6.018L57,218.555V225z M57,217.375L50,213l-6,6    l-3-2l-3,2h-5v-13h24V217.375z"/>
		<path d="M38,214c1.657,0,3-1.343,3-3s-1.343-3-3-3s-3,1.343-3,3S36.343,214,38,214z M38,209c1.103,0,2,0.897,2,2    c0,1.104-0.897,2-2,2s-2-0.896-2-2C36,209.897,36.897,209,38,209z"/>
	</g>
	
    </g>
</svg>
