<?xml version="1.0" encoding="iso-8859-1"?>
<!DOCTYPE svg PUBLIC "-//W3C//DTD SVG 1.1//EN" "http://www.w3.org/Graphics/SVG/1.1/DTD/svg11.dtd">
<svg version="1.1" xmlns="http://www.w3.org/2000/svg" xmlns:xlink="http://www.w3.org/1999/xlink" x="0px" y="0px" width="30" height="30" viewBox="0 0 30 30" xml:space="preserve">
    <g transform="translate(-330 -200)">
        <g xmlns="http://www.w3.org/2000/svg" xmlns:xlink="http://www.w3.org/1999/xlink" id="photo-off-7">
		<polygon points="333,225 333,220 338.303,220 341,218.201 344.127,220.287 346.5,217.914 345.793,217.207 344,219 341,217     338,219 333,219 333,206 334.586,206 333.586,205 332,205 332,226 354.586,226 353.586,225   "/>
		<path d="M358,205h-21.586l-3.436-3.435l-0.707,0.707l25.457,25.456l0.707-0.707L357.414,226H358V205z M337.414,206H357v11.375    L350,213l-2.793,2.793L337.414,206z M347.914,216.5l2.23-2.23l6.855,4.285V225h-0.586L347.914,216.5z"/>
		<path d="M335,211c0,1.657,1.343,3,3,3c1.24,0,2.304-0.752,2.761-1.825l-0.799-0.799C339.785,212.3,338.974,213,338,213    c-1.103,0-2-0.896-2-2c0-0.974,0.701-1.785,1.624-1.962l-0.799-0.799C335.752,208.697,335,209.76,335,211z"/>
	</g>
	
    </g>
</svg>
