<?xml version="1.0" encoding="iso-8859-1"?>
<!DOCTYPE svg PUBLIC "-//W3C//DTD SVG 1.1//EN" "http://www.w3.org/Graphics/SVG/1.1/DTD/svg11.dtd">
<svg version="1.1" xmlns="http://www.w3.org/2000/svg" xmlns:xlink="http://www.w3.org/1999/xlink" x="0px" y="0px" width="30" height="30" viewBox="0 0 30 30" xml:space="preserve">
    <g transform="translate(-150 -380)">
        <g xmlns="http://www.w3.org/2000/svg" xmlns:xlink="http://www.w3.org/1999/xlink" id="play-button-7">
		<path d="M165,382c-7.18,0-13,5.82-13,13s5.82,13,13,13s13-5.82,13-13S172.18,382,165,382z M165,407c-6.617,0-12-5.383-12-12    s5.383-12,12-12s12,5.383,12,12S171.617,407,165,407z"/>
		<path d="M162,401l9-6l-9-6V401z M163,390.868l6.197,4.132L163,399.132V390.868z"/>
	</g>
	
    </g>
</svg>
