<?xml version="1.0" encoding="iso-8859-1"?>
<!DOCTYPE svg PUBLIC "-//W3C//DTD SVG 1.1//EN" "http://www.w3.org/Graphics/SVG/1.1/DTD/svg11.dtd">
<svg version="1.1" xmlns="http://www.w3.org/2000/svg" xmlns:xlink="http://www.w3.org/1999/xlink" x="0px" y="0px" width="30" height="30" viewBox="0 0 30 30" xml:space="preserve">
    <g transform="translate(-270 -140)">
        <g xmlns="http://www.w3.org/2000/svg" xmlns:xlink="http://www.w3.org/1999/xlink" id="speaker-sound-7">
		<polygon points="280,153 280,157 283,157 288,161 288,149 283,153   "/>
		<path d="M293.101,149.152l-0.595,0.893C293.447,151.467,294,153.17,294,155s-0.553,3.533-1.494,4.955l0.595,0.893    c1.19-1.646,1.899-3.662,1.899-5.848S294.291,150.798,293.101,149.152z"/>
		<path d="M291.268,158.098c0.465-0.935,0.732-1.984,0.732-3.098s-0.268-2.163-0.732-3.098l-0.658,0.986    c0.248,0.658,0.391,1.367,0.391,2.111s-0.143,1.453-0.391,2.111L291.268,158.098z"/>
		<path d="M294.152,145.771c-2.35-2.33-5.582-3.771-9.152-3.771c-7.18,0-13,5.82-13,13s5.82,13,13,13    c3.57,0,6.803-1.441,9.152-3.771l-0.571-0.857C291.4,165.606,288.361,167,285,167c-6.617,0-12-5.383-12-12s5.383-12,12-12    c3.361,0,6.4,1.394,8.581,3.629L294.152,145.771z"/>
		<path d="M298,155c0-3.238-1.191-6.194-3.151-8.471l-0.575,0.864c1.702,2.071,2.727,4.722,2.727,7.606s-1.024,5.535-2.727,7.606    l0.575,0.864C296.809,161.194,298,158.238,298,155z"/>
	</g>
	
    </g>
</svg>
