<?xml version="1.0" encoding="iso-8859-1"?>
<!DOCTYPE svg PUBLIC "-//W3C//DTD SVG 1.1//EN" "http://www.w3.org/Graphics/SVG/1.1/DTD/svg11.dtd">
<svg version="1.1" xmlns="http://www.w3.org/2000/svg" xmlns:xlink="http://www.w3.org/1999/xlink" x="0px" y="0px" width="30" height="30" viewBox="0 0 30 30" xml:space="preserve">
    <g transform="translate(-210 -140)">
        <g xmlns="http://www.w3.org/2000/svg" xmlns:xlink="http://www.w3.org/1999/xlink" id="speaker-off-7">
		<polygon points="220,157 223,157 228,161 228,159.414 221.586,153 220,153   "/>
		<path d="M225,167c-6.617,0-12-5.383-12-12c0-2.949,1.074-5.649,2.846-7.741l-0.711-0.711c-1.95,2.273-3.135,5.222-3.135,8.452    c0,7.18,5.82,13,13,13c3.229,0,6.178-1.185,8.451-3.134l-0.711-0.711C230.649,165.926,227.949,167,225,167z"/>
		<path d="M237.729,167.728l0.707-0.707l-3.57-3.569c1.95-2.273,3.135-5.222,3.135-8.452c0-7.18-5.82-13-13-13    c-3.229,0-6.178,1.185-8.451,3.134l-3.57-3.569l-0.707,0.707L237.729,167.728z M225,143c6.617,0,12,5.383,12,12    c0,2.949-1.074,5.649-2.846,7.741L228,156.586V149l-4.215,3.372l-6.525-6.526C219.351,144.074,222.051,143,225,143z"/>
	</g>
	
    </g>
</svg>
