<?xml version="1.0" encoding="iso-8859-1"?>
<!DOCTYPE svg PUBLIC "-//W3C//DTD SVG 1.1//EN" "http://www.w3.org/Graphics/SVG/1.1/DTD/svg11.dtd">
<svg version="1.1" xmlns="http://www.w3.org/2000/svg" xmlns:xlink="http://www.w3.org/1999/xlink" x="0px" y="0px" width="30" height="30" viewBox="0 0 30 30" xml:space="preserve">
    <g transform="translate(-150 -140)">
        <g xmlns="http://www.w3.org/2000/svg" xmlns:xlink="http://www.w3.org/1999/xlink" id="speaker-minus-7">
		<path d="M177.801,157.194C177.923,156.479,178,155.75,178,155c0-7.18-5.82-13-13-13s-13,5.82-13,13s5.82,13,13,13    c0.75,0,1.479-0.077,2.194-0.199c1.357,1.359,3.233,2.199,5.306,2.199c4.143,0,7.5-3.358,7.5-7.5    C180,160.428,179.16,158.552,177.801,157.194z M165,167c-6.617,0-12-5.383-12-12s5.383-12,12-12s12,5.383,12,12    c0,0.488-0.038,0.966-0.095,1.439c-1.237-0.901-2.757-1.439-4.405-1.439c-1.691,0-3.246,0.566-4.5,1.51V149l-5,4h-3v4h3    l2.767,2.213c-0.486,0.994-0.767,2.106-0.767,3.287c0,1.648,0.538,3.167,1.439,4.405C165.967,166.962,165.488,167,165,167z     M172.5,169c-3.59,0-6.5-2.91-6.5-6.5s2.91-6.5,6.5-6.5s6.5,2.91,6.5,6.5S176.09,169,172.5,169z"/>
		<rect x="168" y="162" width="9" height="1"/>
	</g>
	
    </g>
</svg>
