<?xml version="1.0" encoding="iso-8859-1"?>
<!DOCTYPE svg PUBLIC "-//W3C//DTD SVG 1.1//EN" "http://www.w3.org/Graphics/SVG/1.1/DTD/svg11.dtd">
<svg version="1.1" xmlns="http://www.w3.org/2000/svg" xmlns:xlink="http://www.w3.org/1999/xlink" x="0px" y="0px" width="30" height="30" viewBox="0 0 30 30" xml:space="preserve">
    <g transform="translate(-390 -380)">
        <g xmlns="http://www.w3.org/2000/svg" xmlns:xlink="http://www.w3.org/1999/xlink" id="speaker-bass-7">
		<path d="M417,386c0-1.656-1.344-3-3-3c-1.221,0-2.268,0.732-2.735,1.779C409.439,383.658,407.299,383,405,383    s-4.439,0.658-6.265,1.779C398.268,383.732,397.221,383,396,383c-1.656,0-3,1.344-3,3c0,1.221,0.732,2.268,1.779,2.735    C393.658,390.561,393,392.701,393,395s0.658,4.439,1.779,6.265C393.732,401.732,393,402.779,393,404c0,1.656,1.344,3,3,3    c1.221,0,2.268-0.732,2.735-1.779c1.825,1.121,3.966,1.779,6.265,1.779s4.439-0.658,6.265-1.779    c0.468,1.047,1.515,1.779,2.735,1.779c1.656,0,3-1.344,3-3c0-1.221-0.732-2.268-1.779-2.735c1.121-1.825,1.779-3.966,1.779-6.265    s-0.658-4.439-1.779-6.265C416.268,388.268,417,387.221,417,386z M394,386c0-1.103,0.897-2,2-2c0.875,0,1.613,0.568,1.884,1.354    c-0.965,0.713-1.817,1.565-2.53,2.53C394.569,387.613,394,386.876,394,386z M396,406c-1.103,0-2-0.896-2-2    c0-0.876,0.569-1.613,1.354-1.884c0.713,0.965,1.565,1.817,2.53,2.53C397.613,405.432,396.875,406,396,406z M416,404    c0,1.104-0.897,2-2,2c-0.875,0-1.613-0.568-1.884-1.354c0.965-0.713,1.817-1.565,2.53-2.53C415.431,402.387,416,403.124,416,404z     M416,395c0,6.075-4.925,11-11,11s-11-4.925-11-11s4.925-11,11-11S416,388.925,416,395z M414.646,387.884    c-0.713-0.965-1.565-1.817-2.53-2.53c0.271-0.785,1.009-1.354,1.884-1.354c1.103,0,2,0.897,2,2    C416,386.876,415.431,387.613,414.646,387.884z"/>
		<path d="M405,386c-4.971,0-9,4.029-9,9s4.029,9,9,9s9-4.029,9-9S409.971,386,405,386z M405,403c-4.41,0-8-3.589-8-8s3.59-8,8-8    c4.411,0,8,3.589,8,8S409.411,403,405,403z"/>
		<circle cx="405" cy="395" r="4"/>
	</g>
	
    </g>
</svg>
