<?xml version="1.0" encoding="iso-8859-1"?>
<!DOCTYPE svg PUBLIC "-//W3C//DTD SVG 1.1//EN" "http://www.w3.org/Graphics/SVG/1.1/DTD/svg11.dtd">
<svg version="1.1" xmlns="http://www.w3.org/2000/svg" xmlns:xlink="http://www.w3.org/1999/xlink" x="0px" y="0px" width="30" height="30" viewBox="0 0 30 30" xml:space="preserve">
    <g transform="translate(-30 -380)">
        <g xmlns="http://www.w3.org/2000/svg" xmlns:xlink="http://www.w3.org/1999/xlink" id="subtitle-7">
		<path d="M33,403c0,1.104,0.896,2,2,2h20c1.104,0,2-0.896,2-2v-16c0-1.104-0.896-2-2-2H35c-1.104,0-2,0.896-2,2V403z M34,387    c0-0.552,0.448-1,1-1h20c0.552,0,1,0.448,1,1v16c0,0.552-0.448,1-1,1H35c-0.552,0-1-0.448-1-1V387z"/>
		<circle cx="37.5" cy="400.5" r="1.5"/>
		<circle cx="42.5" cy="400.5" r="1.5"/>
		<circle cx="47.5" cy="400.5" r="1.5"/>
		<circle cx="52.5" cy="400.5" r="1.5"/>
	</g>
	
    </g>
</svg>
