<?xml version="1.0" encoding="iso-8859-1"?>
<!DOCTYPE svg PUBLIC "-//W3C//DTD SVG 1.1//EN" "http://www.w3.org/Graphics/SVG/1.1/DTD/svg11.dtd">
<svg version="1.1" xmlns="http://www.w3.org/2000/svg" xmlns:xlink="http://www.w3.org/1999/xlink" x="0px" y="0px" width="30" height="30" viewBox="0 0 30 30" xml:space="preserve">
    <g transform="translate(-90 -380)">
        <g xmlns="http://www.w3.org/2000/svg" xmlns:xlink="http://www.w3.org/1999/xlink" id="subtitle-many-7">
		<path d="M115,387H95c-1.104,0-2,0.896-2,2v16c0,1.104,0.896,2,2,2h20c1.104,0,2-0.896,2-2v-16C117,387.896,116.104,387,115,387z     M116,405c0,0.552-0.448,1-1,1H95c-0.552,0-1-0.448-1-1v-16c0-0.552,0.448-1,1-1h20c0.552,0,1,0.448,1,1V405z"/>
		<circle cx="97.5" cy="402.5" r="1.5"/>
		<circle cx="102.5" cy="402.5" r="1.5"/>
		<circle cx="107.5" cy="402.5" r="1.5"/>
		<circle cx="112.5" cy="402.5" r="1.5"/>
		<rect x="95" y="384" width="20" height="1"/>
		<rect x="97" y="381" width="16" height="1"/>
	</g>
	
    </g>
</svg>
