<?xml version="1.0" encoding="iso-8859-1"?>
<!DOCTYPE svg PUBLIC "-//W3C//DTD SVG 1.1//EN" "http://www.w3.org/Graphics/SVG/1.1/DTD/svg11.dtd">
<svg version="1.1" xmlns="http://www.w3.org/2000/svg" xmlns:xlink="http://www.w3.org/1999/xlink" x="0px" y="0px" width="29" height="30" viewBox="0 0 29 30" xml:space="preserve">
    <g transform="translate(-330 -80)">
        <g xmlns="http://www.w3.org/2000/svg" xmlns:xlink="http://www.w3.org/1999/xlink" id="tripod-7">
		<path d="M337,96h15c0.55,0,1-0.45,1-1V85c0-0.55-0.45-1-1-1h-2c-0.55,0-1.143-0.427-1.316-0.949l-0.367-1.103    C348.143,81.427,347.55,81,347,81h-5c-0.55,0-1.143,0.427-1.316,0.949l-0.367,1.103C340.143,83.573,339.55,84,339,84h-2    c-0.55,0-1,0.45-1,1v10C336,95.55,336.45,96,337,96z M337,85h2c0.98,0,1.954-0.702,2.266-1.632l0.367-1.104    C341.67,82.151,341.88,82,342,82h5c0.12,0,0.33,0.151,0.367,0.266l0.367,1.102C348.046,84.298,349.02,85,350,85h2v10h-15V85z"/>
		<path d="M344.5,86c-1.934,0-3.5,1.566-3.5,3.5s1.566,3.5,3.5,3.5s3.5-1.566,3.5-3.5S346.434,86,344.5,86z M344.5,92    c-1.381,0-2.5-1.119-2.5-2.5s1.119-2.5,2.5-2.5s2.5,1.119,2.5,2.5S345.881,92,344.5,92z"/>
		<polygon points="338.916,107.277 344,99.651 344,109 345,109 345,99.651 350.084,107.277 350.916,106.723 345.102,98 347,98     347,97 342,97 342,98 343.898,98 338.084,106.723   "/>
	</g>
	
    </g>
</svg>
