<?xml version="1.0" encoding="iso-8859-1"?>
<!DOCTYPE svg PUBLIC "-//W3C//DTD SVG 1.1//EN" "http://www.w3.org/Graphics/SVG/1.1/DTD/svg11.dtd">
<svg version="1.1" xmlns="http://www.w3.org/2000/svg" xmlns:xlink="http://www.w3.org/1999/xlink" x="0px" y="0px" width="29" height="30" viewBox="0 0 29 30" xml:space="preserve">
    <g transform="translate(-510 -140)">
        <g xmlns="http://www.w3.org/2000/svg" xmlns:xlink="http://www.w3.org/1999/xlink" id="tune-adjust-7">
		<rect x="524" y="142" width="1" height="4"/>
		<rect x="524" y="154" width="1" height="14"/>
		<path d="M523,147h-2c-1.104,0-2,0.896-2,2v2c0,1.104,0.896,2,2,2h2h3h2c1.104,0,2-0.896,2-2v-2c0-1.104-0.896-2-2-2h-2H523z     M528,148c0.552,0,1,0.449,1,1v2c0,0.551-0.448,1-1,1h-7c-0.552,0-1-0.449-1-1v-2c0-0.551,0.448-1,1-1H528z"/>
		<rect x="521" y="149" width="7" height="1"/>
		<rect x="512" y="147" width="5" height="1"/>
		<rect x="514" y="151" width="3" height="1"/>
		<rect x="512" y="155" width="5" height="1"/>
		<rect x="512" y="163" width="5" height="1"/>
		<rect x="514" y="159" width="3" height="1"/>
		<rect x="532" y="147" width="5" height="1"/>
		<rect x="532" y="151" width="3" height="1"/>
		<rect x="532" y="155" width="5" height="1"/>
		<rect x="532" y="163" width="5" height="1"/>
		<rect x="532" y="159" width="3" height="1"/>
	</g>
	
    </g>
</svg>
