<?xml version="1.0" encoding="iso-8859-1"?>
<!DOCTYPE svg PUBLIC "-//W3C//DTD SVG 1.1//EN" "http://www.w3.org/Graphics/SVG/1.1/DTD/svg11.dtd">
<svg version="1.1" xmlns="http://www.w3.org/2000/svg" xmlns:xlink="http://www.w3.org/1999/xlink" x="0px" y="0px" width="30" height="30" viewBox="0 0 30 30" xml:space="preserve">
    <g transform="translate(-570 -80)">
        <g xmlns="http://www.w3.org/2000/svg" xmlns:xlink="http://www.w3.org/1999/xlink" id="video-camera-big-7">
		<path d="M572,99c0,1.104,0.896,2,2,2h5v2h1v2h2v3h1v-3h2v-2h1v-2h5c1.104,0,2-0.896,2-2h1l4,2V89l-4,2h-0.81    c0.512-0.883,0.81-1.906,0.81-3c0-3.313-2.686-6-6-6c-2.463,0-4.575,1.484-5.5,3.605C581.575,83.484,579.463,82,577,82    c-3.314,0-6,2.687-6,6c0,1.226,0.369,2.364,1,3.314V99z M584,104h-3v-1h3V104z M585,102h-5v-1h5V102z M591,100h-17    c-0.552,0-1-0.449-1-1v-6.537c1.062,0.952,2.461,1.537,4,1.537c2.463,0,4.575-1.484,5.5-3.605C583.425,92.516,585.537,94,588,94    c1.539,0,2.938-0.584,4-1.537V99C592,99.551,591.552,100,591,100z M594.236,92L597,90.618v8.764L594.236,98H593v-6H594.236z     M588,83c2.757,0,5,2.243,5,5s-2.243,5-5,5s-5-2.243-5-5S585.243,83,588,83z M577,83c2.757,0,5,2.243,5,5s-2.243,5-5,5    s-5-2.243-5-5S574.243,83,577,83z"/>
		<path d="M577,90c1.104,0,2-0.895,2-2s-0.896-2-2-2s-2,0.895-2,2S575.896,90,577,90z M577,87c0.553,0,1,0.448,1,1s-0.447,1-1,1    s-1-0.448-1-1S576.447,87,577,87z"/>
		<path d="M588,90c1.104,0,2-0.895,2-2s-0.896-2-2-2s-2,0.895-2,2S586.896,90,588,90z M588,87c0.553,0,1,0.448,1,1s-0.447,1-1,1    s-1-0.448-1-1S587.447,87,588,87z"/>
		<rect x="584" y="98" width="7" height="1"/>
		<rect x="582" y="98" width="1" height="1"/>
	</g>
	
    </g>
</svg>
