<?xml version="1.0" encoding="iso-8859-1"?>
<!DOCTYPE svg PUBLIC "-//W3C//DTD SVG 1.1//EN" "http://www.w3.org/Graphics/SVG/1.1/DTD/svg11.dtd">
<svg version="1.1" xmlns="http://www.w3.org/2000/svg" xmlns:xlink="http://www.w3.org/1999/xlink" x="0px" y="0px" width="30" height="30" viewBox="0 0 30 30" xml:space="preserve">
    <g transform="translate(-390 -80)">
        <g xmlns="http://www.w3.org/2000/svg" xmlns:xlink="http://www.w3.org/1999/xlink" id="video-camera-7">
		<path d="M394,103h12c1.104,0,2-0.896,2-2V89c0-1.104-0.896-2-2-2h-12c-1.104,0-2,0.896-2,2v12C392,102.104,392.896,103,394,103z     M393,89c0-0.551,0.448-1,1-1h12c0.552,0,1,0.449,1,1v12c0,0.551-0.448,1-1,1h-12c-0.552,0-1-0.449-1-1V89z"/>
		<path d="M417.215,102.789c0.433,0.387,0.785,0.227,0.785-0.357V87.568c0-0.584-0.353-0.744-0.785-0.357l-7.891,7.084    c-0.432,0.388-0.432,1.022,0,1.41L417.215,102.789z M417,88.75v12.5l-7.008-6.289L417,88.75z"/>
	</g>
	
    </g>
</svg>
