<?xml version="1.0" encoding="iso-8859-1"?>
<!DOCTYPE svg PUBLIC "-//W3C//DTD SVG 1.1//EN" "http://www.w3.org/Graphics/SVG/1.1/DTD/svg11.dtd">
<svg version="1.1" xmlns="http://www.w3.org/2000/svg" xmlns:xlink="http://www.w3.org/1999/xlink" x="0px" y="0px" width="30" height="30" viewBox="0 0 30 30" xml:space="preserve">
    <g transform="translate(-450 -80)">
        <g xmlns="http://www.w3.org/2000/svg" xmlns:xlink="http://www.w3.org/1999/xlink" id="video-camera-tick-7">
		<path d="M478,96.921v-9.353c0-0.584-0.353-0.744-0.785-0.357l-7.891,7.084c-0.432,0.388-0.432,1.022,0,1.41l0.181,0.162    c-0.547,0.289-1.049,0.646-1.505,1.054V89c0-1.104-0.896-2-2-2h-12c-1.104,0-2,0.896-2,2v12c0,1.104,0.896,2,2,2h11.525    c0.258,3.908,3.501,7,7.475,7c4.143,0,7.5-3.358,7.5-7.5C480.5,100.281,479.531,98.294,478,96.921z M469.992,94.961L477,88.75    v7.413c-1.158-0.732-2.527-1.163-4-1.163c-0.872,0-1.706,0.157-2.484,0.43L469.992,94.961z M453,101V89c0-0.551,0.448-1,1-1h12    c0.552,0,1,0.449,1,1v9.014c-0.844,1.126-1.376,2.495-1.475,3.986H454C453.448,102,453,101.551,453,101z M473,109    c-3.59,0-6.5-2.91-6.5-6.5s2.91-6.5,6.5-6.5s6.5,2.91,6.5,6.5S476.59,109,473,109z"/>
		<polygon points="477.242,100.025 476.535,99.318 471.586,104.268 469.465,102.146 468.758,102.854 471.586,105.682   "/>
	</g>
	
    </g>
</svg>
