<?xml version="1.0" encoding="iso-8859-1"?>
<!DOCTYPE svg PUBLIC "-//W3C//DTD SVG 1.1//EN" "http://www.w3.org/Graphics/SVG/1.1/DTD/svg11.dtd">
<svg version="1.1" xmlns="http://www.w3.org/2000/svg" xmlns:xlink="http://www.w3.org/1999/xlink" x="0px" y="0px" width="29" height="30" viewBox="0 0 29 30" xml:space="preserve">
    <g transform="translate(-330 -620)">
        <g xmlns="http://www.w3.org/2000/svg" xmlns:xlink="http://www.w3.org/1999/xlink" id="business-man-suitcase-carry-three-7">
		<rect x="352" y="630" width="1" height="1"/>
		<rect x="352" y="632" width="1" height="4"/>
		<path d="M357,638.723c0.596-0.347,1-0.984,1-1.723v-7c0-1.104-0.896-2-2-2h-1.056c0.649-0.636,1.056-1.52,1.056-2.5    c0-1.933-1.567-3.5-3.5-3.5s-3.5,1.567-3.5,3.5c0,0.736,0.229,1.418,0.618,1.981c0.243,0.353,0.548,0.657,0.9,0.9    c0.124,0.191,0.22,0.4,0.297,0.618H356c0.552,0,1,0.448,1,1v7c0,0.552-0.448,1-1,1v-6h-1v7h-1v7h1v2h-2v-10h-1v10h-2v-2h1v-7h-2    v-0.277c0.596-0.347,1-0.984,1-1.723v-5v-2c0-1.104-0.896-2-2-2h-1.055c0.292-0.285,0.525-0.627,0.704-1    c0.219-0.456,0.351-0.961,0.351-1.5c0-1.934-1.566-3.5-3.5-3.5s-3.5,1.566-3.5,3.5c0,0.539,0.132,1.044,0.351,1.5    c0.179,0.373,0.412,0.715,0.704,1H341c-1.104,0-2,0.896-2,2v2v5c0,1.104,0.896,2,2,2v9c0,0.553,0.447,1,1,1h5c0.553,0,1-0.447,1-1    v-2h1v2c0,0.553,0.447,1,1,1h5c0.553,0,1-0.447,1-1v-2h3v-7h-2V638.723z M352.5,623c1.379,0,2.5,1.121,2.5,2.5s-1.121,2.5-2.5,2.5    s-2.5-1.121-2.5-2.5S351.121,623,352.5,623z M342,625.5c0-1.379,1.121-2.5,2.5-2.5s2.5,1.121,2.5,2.5    c0,0.565-0.195,1.081-0.513,1.5c-0.456,0.604-1.174,1-1.987,1s-1.531-0.396-1.987-1C342.195,626.581,342,626.065,342,625.5z     M347,648h-2v-10h-1v10h-2v-11v-5h-1v5v1c-0.552,0-1-0.448-1-1v-5v-2c0-0.552,0.448-1,1-1h7c0.552,0,1,0.448,1,1v2v5    c0,0.552-0.448,1-1,1v-1v-5h-1v5v2h-1v7h1V648z M347,645v-5h3v5H347z M358,640v5h-3v-5H358z"/>
		<path d="M339,639v9h-2v-10h-1v10h-2v-2h1v-7h-1v-7h-1v6c-0.552,0-1-0.448-1-1v-7c0-0.552,0.448-1,1-1h5.185    c0.077-0.218,0.174-0.427,0.297-0.618c0.353-0.243,0.657-0.548,0.9-0.9c0.389-0.563,0.618-1.245,0.618-1.981    c0-1.933-1.567-3.5-3.5-3.5s-3.5,1.567-3.5,3.5c0,0.98,0.406,1.864,1.056,2.5H333c-1.104,0-2,0.896-2,2v7    c0,0.738,0.404,1.376,1,1.723V639h-2v7h3v2c0,0.553,0.447,1,1,1h5c0.553,0,1-0.447,1-1v-9H339z M334,625.5    c0-1.379,1.121-2.5,2.5-2.5s2.5,1.121,2.5,2.5s-1.121,2.5-2.5,2.5S334,626.879,334,625.5z M331,645v-5h3v5H331z"/>
		<rect x="336" y="630" width="1" height="1"/>
		<rect x="336" y="632" width="1" height="4"/>
		<rect x="344" y="630" width="1" height="1"/>
		<rect x="344" y="632" width="1" height="4"/>
	</g>
	
    </g>
</svg>
