<?xml version="1.0" encoding="iso-8859-1"?>
<!DOCTYPE svg PUBLIC "-//W3C//DTD SVG 1.1//EN" "http://www.w3.org/Graphics/SVG/1.1/DTD/svg11.dtd">
<svg version="1.1" xmlns="http://www.w3.org/2000/svg" xmlns:xlink="http://www.w3.org/1999/xlink" x="0px" y="0px" width="30" height="30" viewBox="0 0 30 30" xml:space="preserve">
    <g transform="translate(-390 -620)">
        <g xmlns="http://www.w3.org/2000/svg" xmlns:xlink="http://www.w3.org/1999/xlink" id="business-man-presentation-7">
		<path d="M393,648c0,0.553,0.447,1,1,1h5c0.553,0,1-0.447,1-1v-16v-0.836l8.62-3.554c0.766-0.315,1.131-1.192,0.815-1.958    c-0.315-0.767-1.192-1.131-1.958-0.815L399.803,628h-0.858c0.65-0.636,1.056-1.52,1.056-2.5c0-1.933-1.566-3.5-3.5-3.5    s-3.5,1.567-3.5,3.5c0,0.98,0.405,1.864,1.056,2.5H393c-1.104,0-2,0.896-2,2v7c0,1.104,0.896,2,2,2V648z M394,625.5    c0-1.379,1.121-2.5,2.5-2.5s2.5,1.121,2.5,2.5s-1.121,2.5-2.5,2.5S394,626.879,394,625.5z M393,632v6c-0.551,0-1-0.448-1-1v-7    c0-0.552,0.449-1,1-1h1h1h1h2h1h1l7.858-3.239c0.255-0.104,0.548,0.018,0.652,0.272c0.105,0.255-0.017,0.548-0.271,0.652    L399,630.494V631v1v1v15h-2v-10h-1v1v9h-2v-16H393z"/>
		<rect x="396" y="630" width="1" height="1"/>
		<rect x="396" y="632" width="1" height="4"/>
		<polygon points="402,621 402,625 403,625 403,622 418,622 418,635 403,635 403,632 402,632 402,635 402,636 418,636 419,636     419,622 419,621 403,621   "/>
	</g>
	
    </g>
</svg>
