<?xml version="1.0" encoding="iso-8859-1"?>
<!DOCTYPE svg PUBLIC "-//W3C//DTD SVG 1.1//EN" "http://www.w3.org/Graphics/SVG/1.1/DTD/svg11.dtd">
<svg version="1.1" xmlns="http://www.w3.org/2000/svg" xmlns:xlink="http://www.w3.org/1999/xlink" x="0px" y="0px" width="29" height="30" viewBox="0 0 29 30" xml:space="preserve">
    <g transform="translate(-510 -620)">
        <g xmlns="http://www.w3.org/2000/svg" xmlns:xlink="http://www.w3.org/1999/xlink" id="business-man-run-7">
		<path d="M518,636v5h-4c-0.553,0-1,0.447-1,1v1c0,0.553,0.447,1,1,1h6c1.104,0,2-0.896,2-2v-2.571l3,2.571v6c0,0.553,0.447,1,1,1h1    c0.553,0,1-0.447,1-1v-8l-4-3.386l0.745-2.39l3.435,1.196l-0.18,0.47l1.868,0.714l-0.715,1.869l5.605,2.141l2.855-7.473    L532.01,631l-0.714,1.868l-0.934-0.356v-0.001l-0.935-0.356l-0.177,0.464l-3.611-1.258l1.078-3.456    c1.309-0.323,2.282-1.496,2.282-2.904c0-1.657-1.343-3-3-3s-3,1.343-3,3c0,0.771,0.3,1.469,0.778,2H520h-0.848h-1.023H517    l-3.25,6.201c-0.257,0.489-0.068,1.092,0.422,1.35l0.885,0.464c0.489,0.257,1.094,0.068,1.35-0.422l2.407-4.593H520L518,636z     M521,642c0,0.552-0.448,1-1,1h-6v-1h5v-5.143l2,1.714V642z M532.587,632.29l3.737,1.43l-2.143,5.604l-3.736-1.429L532.587,632.29    z M530.938,633.803l-0.714,1.868l-0.934-0.357l0.01-0.026c0.135-0.112,0.252-0.247,0.313-0.425l0.33-0.944    c0.05-0.143,0.059-0.288,0.044-0.429l0.017-0.044L530.938,633.803z M528.999,633.589l-0.329,0.944l-3.626-1.264l0.298-0.955    L528.999,633.589z M524,625c0-1.104,0.896-2,2-2s2,0.896,2,2s-0.896,2-2,2S524,626.104,524,625z M518.209,629l-2.688,5.129    l-0.886-0.465l2.969-5.664H518h2h5.641l-2.793,8.949l4.152,3.515V648h-1v-6.46l-6.839-5.861l2.227-6.679H520H518.209z"/>
	</g>
	
    </g>
</svg>
