<?xml version="1.0" encoding="iso-8859-1"?>
<!DOCTYPE svg PUBLIC "-//W3C//DTD SVG 1.1//EN" "http://www.w3.org/Graphics/SVG/1.1/DTD/svg11.dtd">
<svg version="1.1" xmlns="http://www.w3.org/2000/svg" xmlns:xlink="http://www.w3.org/1999/xlink" x="0px" y="0px" width="29" height="30" viewBox="0 0 29 30" xml:space="preserve">
    <g transform="translate(-450 -620)">
        <g xmlns="http://www.w3.org/2000/svg" xmlns:xlink="http://www.w3.org/1999/xlink" id="business-man-walk-7">
		<path d="M471.342,635.478c0.521,0.182,1.091-0.094,1.272-0.615l0.33-0.944c0.181-0.522-0.095-1.091-0.617-1.273L467.606,631    l-0.032,0.092l0.4-3.85c0.624-0.55,1.025-1.345,1.025-2.242c0-1.657-1.343-3-3-3s-3,1.343-3,3c0,0.771,0.3,1.469,0.778,2h-1.211    L459,629v2v1v3v1v1h-1v2h-2v7h3.318l-0.493,1.281c-0.199,0.517,0.059,1.095,0.574,1.293l0.933,0.359    c0.516,0.197,1.094-0.059,1.293-0.574l0.907-2.359H465v-7h-2v-2h-1v-1v-4l0,0v-0.099V631h-0.001H461v4v2h-1v-6v-1v-0.414    l2.828-1.586h4.063l-0.919,8.839l2.028,3.435V648h-1v-6.355l-1-1.229V642v4v2c0,0.553,0.447,1,1,1h1c0.553,0,1-0.447,1-1v-8    l-2-3.386l0.266-2.557L471.342,635.478z M460.691,648l-0.933-0.359L460.39,646h1.071L460.691,648z M464,640v5h-7v-5H464z M461,638    h1v1h-3v-1h1H461z M464,625c0-1.104,0.896-2,2-2s2,0.896,2,2s-0.896,2-2,2S464,626.104,464,625z M471.999,633.589l-0.329,0.944    l-4.298-1.497l0.106-1.021L471.999,633.589z"/>
		<polygon points="464,637.959 464,638 464.033,638   "/>
		<polygon points="463.004,632 463.004,631 462.004,631 462.004,632 463,632   "/>
	</g>
	
    </g>
</svg>
