<?xml version="1.0" encoding="iso-8859-1"?>
<!DOCTYPE svg PUBLIC "-//W3C//DTD SVG 1.1//EN" "http://www.w3.org/Graphics/SVG/1.1/DTD/svg11.dtd">
<svg version="1.1" xmlns="http://www.w3.org/2000/svg" xmlns:xlink="http://www.w3.org/1999/xlink" x="0px" y="0px" width="29" height="30" viewBox="0 0 29 30" xml:space="preserve">
    <g transform="translate(-270 -620)">
        <g xmlns="http://www.w3.org/2000/svg" xmlns:xlink="http://www.w3.org/1999/xlink" id="business-man-suitcase-carry-two-7">
		<path d="M273,630v7c0,1.104,0.896,2,2,2v9c0,0.553,0.447,1,1,1h5c0.553,0,1-0.447,1-1v-2h3v-7h-2v-0.277    c0.596-0.347,1-0.984,1-1.723v-7c0-1.104-0.896-2-2-2h-1.055c0.649-0.635,1.055-1.52,1.055-2.5c0-1.934-1.566-3.5-3.5-3.5    s-3.5,1.566-3.5,3.5c0,0.98,0.405,1.865,1.055,2.5H275C273.896,628,273,628.896,273,630z M284,640v5h-3v-5H284z M276,625.5    c0-1.379,1.121-2.5,2.5-2.5s2.5,1.121,2.5,2.5s-1.121,2.5-2.5,2.5S276,626.879,276,625.5z M282,629c0.552,0,1,0.448,1,1v7    c0,0.552-0.448,1-1,1v-6h-1v7h-1v7h1v2h-2v-10h-1v10h-2v-16h-1v6c-0.552,0-1-0.448-1-1v-7c0-0.552,0.448-1,1-1H282z"/>
		<rect x="278" y="630" width="1" height="1"/>
		<rect x="278" y="632" width="1" height="4"/>
		<path d="M296,637v-7c0-1.104-0.896-2-2-2h-1.055c0.649-0.635,1.055-1.52,1.055-2.5c0-1.934-1.566-3.5-3.5-3.5s-3.5,1.566-3.5,3.5    c0,0.98,0.405,1.865,1.055,2.5H287c-1.104,0-2,0.896-2,2v7c0,1.104,0.896,2,2,2v9c0,0.553,0.447,1,1,1h5c0.553,0,1-0.447,1-1v-2h3    v-7h-2v-0.277C295.596,638.376,296,637.738,296,637z M288,625.5c0-1.379,1.121-2.5,2.5-2.5s2.5,1.121,2.5,2.5s-1.121,2.5-2.5,2.5    S288,626.879,288,625.5z M293,648h-2v-10h-1v10h-2v-16h-1v6c-0.552,0-1-0.448-1-1v-7c0-0.552,0.448-1,1-1h7c0.552,0,1,0.448,1,1v7    c0,0.552-0.448,1-1,1v-6h-1v7h-1v7h1V648z M296,640v5h-3v-5H296z"/>
		<rect x="290" y="630" width="1" height="1"/>
		<rect x="290" y="632" width="1" height="4"/>
	</g>
	
    </g>
</svg>
