<?xml version="1.0" encoding="iso-8859-1"?>
<!DOCTYPE svg PUBLIC "-//W3C//DTD SVG 1.1//EN" "http://www.w3.org/Graphics/SVG/1.1/DTD/svg11.dtd">
<svg version="1.1" xmlns="http://www.w3.org/2000/svg" xmlns:xlink="http://www.w3.org/1999/xlink" x="0px" y="0px" width="48" height="30" viewBox="0 0 48 30" xml:space="preserve">
    <g transform="translate(-91 -140)">
        <g xmlns="http://www.w3.org/2000/svg" xmlns:xlink="http://www.w3.org/1999/xlink" id="circle-user-woman-man-7">
		<path d="M126,142c-4.246,0-8.006,2.045-10.378,5.194c0.201,0.299,0.384,0.61,0.562,0.925c2.174-3.091,5.76-5.119,9.816-5.119    c6.617,0,12,5.383,12,12c0,3.562-1.568,6.757-4.041,8.957c-0.865-0.424-1.759-0.822-2.42-1.107    c-0.105-0.043-1.042-0.438-1.042-0.438s-3-1.518-1.5-3.036c0.606-0.613,0.961-1.726,1.177-2.931    c0.35-0.009,0.813-0.773,1.065-1.796c0.269-1.085,0.197-2.038-0.161-2.127c-0.035-0.009-0.07-0.002-0.106,0.005    c0.081-0.876,0.056-1.707-0.193-2.067c-0.776-1.11-0.842-2.089-2.018-2.512C127.588,147.523,129,146,129,146    s-5.024,0.141-6.095,1.945c-0.629,1.055-0.934,1.403-1.708,2.514c-0.25,0.361-0.257,1.193-0.15,2.069    c-0.045-0.012-0.088-0.017-0.13-0.006c-0.359,0.089-0.431,1.042-0.163,2.127c0.254,1.023,0.717,1.787,1.066,1.796    c0.216,1.205,0.57,2.317,1.177,2.931c1.5,1.518-1.5,3.036-1.5,3.036s-0.937,0.395-1.042,0.438    c-0.66,0.285-1.552,0.683-2.416,1.105c-0.695-0.619-1.31-1.324-1.848-2.086c-0.18,0.319-0.365,0.635-0.569,0.938    C117.994,165.955,121.754,168,126,168c7.18,0,13-5.82,13-13S133.18,142,126,142z M126,167c-2.658,0-5.11-0.88-7.102-2.349    c0.588-0.28,1.238-0.576,1.953-0.883c0.089-0.036,1.034-0.435,1.034-0.435c0.427-0.213,2.258-1.21,2.504-2.721    c0.079-0.49,0.026-1.224-0.681-1.939c-0.264-0.267-0.635-0.9-0.904-2.404l-0.145-0.803l-0.528-0.014    c-0.112-0.177-0.28-0.529-0.407-1.044c-0.065-0.266-0.102-0.5-0.119-0.695l0.614,0.165l-0.18-1.472    c-0.11-0.902-0.036-1.329,0.001-1.417c0.203-0.284,0.389-0.542,0.554-0.773c0.409-0.569,0.705-0.981,1.169-1.76    c0.373-0.628,1.977-1.083,3.545-1.306c-0.023,0.195-0.016,0.395,0.032,0.594c0.075,0.308,0.313,0.865,1.079,1.142    c0.417,0.149,0.555,0.382,0.891,1.034c0.171,0.331,0.365,0.706,0.646,1.109c0,0,0,0,0,0c-0.007,0,0.117,0.344,0.02,1.404    l-0.125,1.344l0.541-0.111c-0.016,0.203-0.053,0.454-0.124,0.742c-0.128,0.515-0.294,0.866-0.406,1.043l-0.53,0.014l-0.143,0.803    c-0.27,1.503-0.64,2.137-0.903,2.403c-0.708,0.716-0.761,1.45-0.682,1.939c0.246,1.511,2.077,2.507,2.44,2.691    c0.063,0.029,1.009,0.428,1.115,0.471c0.708,0.305,1.354,0.599,1.939,0.878C131.108,166.121,128.658,167,126,167z"/>
		<path d="M117,155c0-7.18-5.82-13-13-13s-13,5.82-13,13s5.82,13,13,13S117,162.18,117,155z M104,167    c-2.436,0-4.701-0.734-6.596-1.986c1.395-0.403,3.006-0.746,3.73-0.753l0.406-0.004l0.289-0.287    c0.246-0.244,1.424-1.857,1.086-3.621l-0.217-1.131l-1.09,0.373c-1.148,0.393-2.125,0.592-2.906,0.592    c-0.696,0-1.207-0.159-1.52-0.471c0.378-0.147,0.79-0.48,1.139-1.17c0.287-0.57,0.315-1.262,0.355-2.219    c0.043-1.031,0.102-2.444,0.542-4.19c0.769-3.05,3.046-4.133,4.761-4.133c1.693,0,3.957,1.085,4.764,4.144    c0.465,1.76,0.529,3.179,0.576,4.215c0.043,0.94,0.074,1.619,0.357,2.183c0.342,0.676,0.742,1.009,1.109,1.161    c-0.311,0.319-0.824,0.481-1.529,0.481c-0.771,0-1.738-0.195-2.872-0.581l-1.097-0.373l-0.209,1.14    c-0.322,1.759,0.847,3.358,1.09,3.6l0.289,0.287l0.406,0.004c0.725,0.007,2.336,0.35,3.73,0.753    C108.701,166.266,106.436,167,104,167z M111.603,164.276c-1.669-0.548-3.833-1.006-4.728-1.015    c-0.172-0.171-1.04-1.459-0.811-2.711c6.813,2.316,6.131-2.458,6.131-2.458s-0.803,1.63-1.624,0c-0.438-0.87,0-2.943-0.86-6.203    c-0.927-3.514-3.582-4.889-5.73-4.889s-4.842,1.365-5.73,4.889c-0.821,3.259-0.383,5.333-0.821,6.203c-0.821,1.63-1.662,0-1.662,0    s-0.685,4.79,6.167,2.446c0.24,1.255-0.635,2.551-0.809,2.724c-0.895,0.009-3.059,0.467-4.728,1.015    c-0.082-0.067-0.157-0.142-0.237-0.211c-0.009-0.052-0.031-0.086-0.089-0.082C93.581,161.783,92,158.576,92,155    c0-6.617,5.383-12,12-12s12,5.383,12,12C116,158.733,114.285,162.073,111.603,164.276z"/>
	</g>
	
    </g>
</svg>
