<?xml version="1.0" encoding="iso-8859-1"?>
<!DOCTYPE svg PUBLIC "-//W3C//DTD SVG 1.1//EN" "http://www.w3.org/Graphics/SVG/1.1/DTD/svg11.dtd">
<svg version="1.1" xmlns="http://www.w3.org/2000/svg" xmlns:xlink="http://www.w3.org/1999/xlink" x="0px" y="0px" width="30" height="30" viewBox="0 0 30 30" xml:space="preserve">
    <g transform="translate(-210 -80)">
        <g xmlns="http://www.w3.org/2000/svg" xmlns:xlink="http://www.w3.org/1999/xlink" id="circle-user-star-7">
		<path d="M237.801,97.194C237.923,96.479,238,95.75,238,95c0-7.18-5.82-13-13-13s-13,5.82-13,13s5.82,13,13,13    c0.75,0,1.479-0.077,2.194-0.199c1.357,1.358,3.233,2.199,5.306,2.199c4.143,0,7.5-3.358,7.5-7.5    C240,100.428,239.16,98.552,237.801,97.194z M213,95c0-6.617,5.383-12,12-12s12,5.383,12,12c0,0.488-0.035,0.968-0.093,1.441    C235.67,95.539,234.149,95,232.5,95c-0.886,0-1.732,0.162-2.521,0.443c0.099-0.237,0.189-0.503,0.261-0.794    c0.269-1.085,0.197-2.038-0.161-2.127c-0.035-0.009-0.07-0.002-0.106,0.005c0.081-0.876,0.056-1.707-0.193-2.067    c-0.776-1.11-0.842-2.089-2.018-2.512C226.588,87.523,228,86,228,86s-5.024,0.141-6.095,1.945    c-0.629,1.055-0.934,1.403-1.708,2.514c-0.25,0.361-0.257,1.193-0.15,2.069c-0.045-0.012-0.088-0.017-0.13-0.006    c-0.359,0.089-0.431,1.042-0.163,2.127c0.254,1.023,0.717,1.787,1.066,1.796c0.216,1.205,0.57,2.317,1.177,2.931    c1.5,1.518-1.5,3.036-1.5,3.036s-0.937,0.395-1.042,0.438c-0.66,0.285-1.552,0.683-2.416,1.105C214.568,101.755,213,98.561,213,95    z M225,107c-2.658,0-5.11-0.88-7.102-2.349c0.588-0.28,1.238-0.576,1.953-0.883c0.089-0.036,1.034-0.435,1.034-0.435    c0.427-0.213,2.258-1.21,2.504-2.721c0.079-0.49,0.026-1.224-0.681-1.939c-0.264-0.267-0.635-0.9-0.904-2.404l-0.145-0.803    l-0.528-0.014c-0.112-0.177-0.28-0.529-0.407-1.044c-0.065-0.266-0.102-0.5-0.119-0.695l0.614,0.165l-0.18-1.472    c-0.11-0.902-0.036-1.329,0.001-1.417c0.203-0.284,0.389-0.542,0.554-0.773c0.409-0.569,0.705-0.981,1.169-1.76    c0.373-0.628,1.977-1.083,3.545-1.306c-0.023,0.195-0.016,0.395,0.032,0.594c0.075,0.308,0.313,0.865,1.079,1.142    c0.417,0.149,0.555,0.382,0.891,1.034c0.171,0.331,0.365,0.706,0.646,1.109c0,0,0,0,0,0c-0.007,0,0.117,0.344,0.02,1.404    l-0.125,1.344l0.541-0.111c-0.016,0.203-0.053,0.454-0.124,0.742c-0.128,0.515-0.294,0.866-0.406,1.043l-0.53,0.014l-0.143,0.803    c-0.008,0.042-0.016,0.076-0.023,0.117C226.252,97.745,225,99.974,225,102.5c0,1.647,0.537,3.166,1.438,4.403    C225.966,106.961,225.488,107,225,107z M232.5,109c-3.59,0-6.5-2.91-6.5-6.5s2.91-6.5,6.5-6.5s6.5,2.91,6.5,6.5    S236.09,109,232.5,109z"/>
		<polygon points="237,101 233.568,101 232.5,97.785 231.43,101 228,101 230.768,103.079 229.717,106.344 232.5,104.336     235.278,106.344 234.23,103.079   "/>
	</g>
	
    </g>
</svg>
