<?xml version="1.0" encoding="iso-8859-1"?>
<!DOCTYPE svg PUBLIC "-//W3C//DTD SVG 1.1//EN" "http://www.w3.org/Graphics/SVG/1.1/DTD/svg11.dtd">
<svg version="1.1" xmlns="http://www.w3.org/2000/svg" xmlns:xlink="http://www.w3.org/1999/xlink" x="0px" y="0px" width="48" height="30" viewBox="0 0 48 30" xml:space="preserve">
    <g transform="translate(-169 -140)">
        <g xmlns="http://www.w3.org/2000/svg" xmlns:xlink="http://www.w3.org/1999/xlink" id="circle-user-man-man-7">
		<path d="M217,155c0-7.18-5.82-13-13-13c-4.246,0-8.006,2.045-10.378,5.194c0.201,0.299,0.384,0.611,0.562,0.925    c2.174-3.09,5.76-5.119,9.816-5.119c6.616,0,12,5.383,12,12c0,3.562-1.569,6.757-4.042,8.957c-0.865-0.424-1.758-0.822-2.42-1.107    c-0.104-0.043-1.041-0.438-1.041-0.438s-3-1.518-1.5-3.036c0.606-0.613,0.961-1.726,1.176-2.931    c0.351-0.009,0.813-0.773,1.066-1.796c0.269-1.085,0.197-2.038-0.162-2.127c-0.034-0.009-0.07-0.002-0.105,0.005    c0.081-0.876,0.057-1.707-0.193-2.067c-0.776-1.11-0.842-2.089-2.018-2.512C205.588,147.523,207,146,207,146    s-5.024,0.141-6.095,1.945c-0.629,1.055-0.934,1.403-1.709,2.514c-0.25,0.361-0.256,1.193-0.148,2.069    c-0.046-0.012-0.09-0.017-0.131-0.006c-0.359,0.089-0.431,1.042-0.163,2.127c0.254,1.023,0.717,1.787,1.066,1.796    c0.216,1.205,0.57,2.317,1.177,2.931c1.5,1.518-1.5,3.036-1.5,3.036s-0.937,0.395-1.041,0.438    c-0.661,0.285-1.553,0.683-2.416,1.105c-0.696-0.619-1.31-1.324-1.848-2.087c-0.181,0.319-0.366,0.635-0.57,0.938    C195.994,165.955,199.754,168,204,168C211.18,168,217,162.18,217,155z M204,167c-2.659,0-5.11-0.88-7.102-2.349    c0.589-0.28,1.239-0.576,1.952-0.883c0.09-0.036,1.035-0.435,1.035-0.435c0.428-0.213,2.258-1.21,2.504-2.721    c0.08-0.49,0.025-1.224-0.682-1.939c-0.264-0.267-0.634-0.9-0.903-2.404l-0.144-0.803l-0.529-0.014    c-0.112-0.177-0.279-0.529-0.407-1.044c-0.065-0.266-0.102-0.5-0.118-0.695l0.613,0.165l-0.18-1.472    c-0.11-0.902-0.037-1.329,0.002-1.417c0.201-0.284,0.387-0.542,0.553-0.773c0.41-0.569,0.705-0.981,1.17-1.76    c0.373-0.628,1.976-1.083,3.543-1.306c-0.021,0.195-0.016,0.395,0.033,0.594c0.074,0.308,0.314,0.865,1.08,1.142    c0.416,0.149,0.553,0.382,0.89,1.034c0.171,0.331,0.364,0.706,0.647,1.109c0,0-0.001,0-0.001,0c-0.007,0,0.117,0.344,0.019,1.404    l-0.124,1.344l0.54-0.111c-0.016,0.203-0.052,0.454-0.123,0.742c-0.127,0.515-0.295,0.866-0.406,1.043l-0.529,0.014l-0.145,0.803    c-0.269,1.503-0.639,2.137-0.902,2.403c-0.707,0.716-0.762,1.45-0.682,1.939c0.246,1.511,2.076,2.507,2.441,2.691    c0.063,0.029,1.008,0.428,1.113,0.471c0.709,0.305,1.355,0.599,1.94,0.878C209.108,166.121,206.658,167,204,167z"/>
		<path d="M195,155c0-7.18-5.82-13-13-13s-13,5.82-13,13s5.82,13,13,13S195,162.18,195,155z M182,167    c-2.659,0-5.11-0.88-7.102-2.349c0.589-0.28,1.239-0.576,1.952-0.883c0.09-0.036,1.035-0.435,1.035-0.435    c0.428-0.213,2.258-1.21,2.504-2.721c0.08-0.49,0.025-1.224-0.682-1.939c-0.264-0.267-0.634-0.9-0.903-2.404l-0.144-0.803    l-0.529-0.014c-0.112-0.177-0.279-0.529-0.407-1.044c-0.065-0.266-0.102-0.5-0.118-0.695l0.613,0.165l-0.18-1.472    c-0.11-0.902-0.037-1.329,0.002-1.417c0.201-0.284,0.387-0.542,0.553-0.773c0.41-0.569,0.705-0.981,1.17-1.76    c0.373-0.628,1.976-1.083,3.543-1.306c-0.021,0.195-0.016,0.395,0.033,0.594c0.074,0.308,0.314,0.865,1.08,1.142    c0.416,0.149,0.553,0.382,0.89,1.034c0.171,0.331,0.364,0.706,0.647,1.109c0,0-0.001,0-0.001,0c-0.007,0,0.117,0.344,0.019,1.404    l-0.124,1.344l0.54-0.111c-0.016,0.203-0.052,0.454-0.123,0.742c-0.127,0.515-0.295,0.866-0.406,1.043l-0.529,0.014l-0.145,0.803    c-0.269,1.503-0.639,2.137-0.902,2.403c-0.707,0.716-0.762,1.45-0.682,1.939c0.246,1.511,2.076,2.507,2.441,2.691    c0.063,0.029,1.008,0.428,1.113,0.471c0.709,0.305,1.355,0.599,1.94,0.878C187.108,166.121,184.658,167,182,167z M189.958,163.957    c-0.865-0.424-1.758-0.822-2.42-1.107c-0.104-0.043-1.041-0.438-1.041-0.438s-3-1.518-1.5-3.036    c0.606-0.613,0.961-1.726,1.176-2.931c0.351-0.009,0.813-0.773,1.066-1.796c0.269-1.085,0.197-2.038-0.162-2.127    c-0.034-0.009-0.07-0.002-0.105,0.005c0.081-0.876,0.057-1.707-0.193-2.067c-0.776-1.11-0.842-2.089-2.018-2.512    C183.588,147.523,185,146,185,146s-5.024,0.141-6.095,1.945c-0.629,1.055-0.934,1.403-1.709,2.514    c-0.25,0.361-0.256,1.193-0.148,2.069c-0.046-0.012-0.09-0.017-0.131-0.006c-0.359,0.089-0.431,1.042-0.163,2.127    c0.254,1.023,0.717,1.787,1.066,1.796c0.216,1.205,0.57,2.317,1.177,2.931c1.5,1.518-1.5,3.036-1.5,3.036    s-0.937,0.395-1.041,0.438c-0.661,0.285-1.553,0.683-2.416,1.105c-2.472-2.2-4.04-5.394-4.04-8.955c0-6.617,5.384-12,12-12    s12,5.383,12,12C194,158.562,192.431,161.757,189.958,163.957z"/>
	</g>
	
    </g>
</svg>
