<?xml version="1.0" encoding="iso-8859-1"?>
<!DOCTYPE svg PUBLIC "-//W3C//DTD SVG 1.1//EN" "http://www.w3.org/Graphics/SVG/1.1/DTD/svg11.dtd">
<svg version="1.1" xmlns="http://www.w3.org/2000/svg" xmlns:xlink="http://www.w3.org/1999/xlink" x="0px" y="0px" width="30" height="30" viewBox="0 0 30 30" xml:space="preserve">
    <g transform="translate(-570 -80)">
        <g xmlns="http://www.w3.org/2000/svg" xmlns:xlink="http://www.w3.org/1999/xlink" id="circle-user-off-7">
		<path d="M590.539,102.849c-0.105-0.043-1.043-0.438-1.043-0.438s-2.972-1.505-1.516-3.017l-0.708-0.708    c-0.693,0.711-0.747,1.439-0.669,1.925c0.246,1.511,2.078,2.507,2.441,2.691c0.063,0.029,1.008,0.428,1.115,0.471    c0.707,0.305,1.354,0.599,1.939,0.878c-1.992,1.468-4.441,2.348-7.1,2.348s-5.111-0.88-7.102-2.349    c0.588-0.28,1.238-0.576,1.953-0.883c0.088-0.036,1.033-0.435,1.033-0.435c0.428-0.213,2.258-1.21,2.504-2.721    c0.08-0.49,0.027-1.224-0.68-1.939c-0.264-0.267-0.635-0.9-0.904-2.404l-0.145-0.803l-0.529-0.014    c-0.111-0.177-0.279-0.529-0.406-1.044c-0.066-0.266-0.102-0.5-0.119-0.695l0.613,0.165l-0.173-1.418l-1.058-1.058    c-0.011,0.341,0.01,0.726,0.059,1.125c-0.045-0.012-0.088-0.017-0.131-0.006c-0.359,0.089-0.43,1.042-0.162,2.127    c0.254,1.023,0.717,1.787,1.066,1.796c0.215,1.205,0.57,2.317,1.176,2.931c1.5,1.518-1.5,3.036-1.5,3.036    s-0.936,0.395-1.041,0.438c-0.66,0.285-1.553,0.683-2.416,1.105C574.568,101.755,573,98.561,573,95    c0-2.949,1.074-5.649,2.845-7.74l-0.711-0.711C573.185,88.822,572,91.771,572,95c0,7.18,5.82,13,13,13    c3.229,0,6.179-1.185,8.452-3.135l-1.288-1.287C591.569,103.301,590.997,103.047,590.539,102.849z"/>
		<path d="M597.729,107.728l0.707-0.707l-3.569-3.57C596.815,101.178,598,98.229,598,95c0-7.18-5.82-13-13-13    c-3.229,0-6.179,1.185-8.452,3.135l-3.569-3.57l-0.707,0.707L597.729,107.728z M581.609,90.195    c0.401-0.558,0.695-0.97,1.154-1.738c0.373-0.628,1.977-1.083,3.545-1.306c-0.023,0.195-0.016,0.395,0.031,0.594    c0.076,0.308,0.314,0.865,1.08,1.142c0.416,0.149,0.555,0.382,0.891,1.034c0.17,0.331,0.365,0.706,0.646,1.109c0,0,0,0,0,0    c-0.008,0,0.117,0.344,0.02,1.404l-0.125,1.344l0.541-0.111c-0.016,0.203-0.053,0.454-0.125,0.742    c-0.127,0.515-0.293,0.866-0.406,1.043l-0.529,0.014l-0.143,0.803c-0.027,0.151-0.056,0.288-0.085,0.421L581.609,90.195z M585,83    c6.617,0,12,5.383,12,12c0,2.949-1.086,5.637-2.859,7.726l-5.215-5.215c0.096-0.341,0.182-0.696,0.248-1.066    c0.35-0.009,0.813-0.773,1.064-1.796c0.27-1.085,0.197-2.038-0.16-2.127c-0.035-0.009-0.07-0.002-0.107,0.005    c0.082-0.876,0.057-1.707-0.193-2.067c-0.775-1.11-0.842-2.089-2.018-2.512C586.588,87.523,588,86,588,86    s-5.025,0.141-6.096,1.945c-0.4,0.671-0.67,1.057-1.012,1.534l-3.634-3.633C579.351,84.074,582.051,83,585,83z"/>
	</g>
	
    </g>
</svg>
