<?xml version="1.0" encoding="iso-8859-1"?>
<!DOCTYPE svg PUBLIC "-//W3C//DTD SVG 1.1//EN" "http://www.w3.org/Graphics/SVG/1.1/DTD/svg11.dtd">
<svg version="1.1" xmlns="http://www.w3.org/2000/svg" xmlns:xlink="http://www.w3.org/1999/xlink" x="0px" y="0px" width="48" height="30" viewBox="0 0 48 30" xml:space="preserve">
    <g transform="translate(-403 -140)">
        <g xmlns="http://www.w3.org/2000/svg" xmlns:xlink="http://www.w3.org/1999/xlink" id="circle-user-woman-three-7">
		<path d="M438,143c6.617,0,12,5.383,12,12c0,3.733-1.715,7.073-4.396,9.276c-1.67-0.548-3.834-1.006-4.729-1.015    c-0.172-0.171-1.039-1.459-0.811-2.711c6.814,2.316,6.131-2.458,6.131-2.458s-0.803,1.63-1.623,0c-0.439-0.87,0-2.943-0.861-6.203    c-0.852-3.231-3.162-4.638-5.199-4.846c0.258,0.372,0.497,0.755,0.719,1.152c1.418,0.424,2.895,1.603,3.514,3.95    c0.465,1.76,0.529,3.179,0.576,4.215c0.043,0.94,0.074,1.619,0.357,2.183c0.342,0.676,0.742,1.009,1.109,1.161    c-0.311,0.319-0.824,0.481-1.529,0.481c-0.771,0-1.738-0.195-2.871-0.581l-0.157-0.054c-0.287,0.834-0.646,1.632-1.078,2.386    c0.258,1.058,0.853,1.869,1.019,2.035l0.289,0.287l0.406,0.004c0.725,0.007,2.336,0.35,3.73,0.753    c-1.895,1.252-4.16,1.986-6.596,1.986c-1.083,0-2.13-0.153-3.128-0.424c-0.366,0.249-0.744,0.48-1.134,0.694    c1.337,0.464,2.767,0.729,4.262,0.729c7.18,0,13-5.82,13-13s-5.82-13-13-13c-1.495,0-2.925,0.265-4.262,0.729    c0.391,0.215,0.771,0.447,1.138,0.697C435.874,143.157,436.918,143,438,143z"/>
		<path d="M416,167c-2.436,0-4.701-0.734-6.596-1.986c1.395-0.403,3.006-0.746,3.73-0.753l0.406-0.004l0.289-0.287    c0.168-0.167,0.762-0.978,1.02-2.033c-0.434-0.758-0.796-1.561-1.083-2.399l-0.157,0.054c-1.148,0.393-2.125,0.592-2.906,0.592    c-0.695,0-1.207-0.159-1.52-0.471c0.379-0.147,0.791-0.48,1.139-1.17c0.287-0.57,0.316-1.262,0.355-2.219    c0.043-1.031,0.102-2.444,0.543-4.19c0.598-2.375,2.108-3.546,3.559-3.954c0.22-0.392,0.457-0.772,0.712-1.14    c-2.053,0.191-4.418,1.587-5.241,4.85c-0.82,3.259-0.383,5.333-0.82,6.203c-0.822,1.63-1.662,0-1.662,0s-0.686,4.79,6.166,2.446    c0.24,1.255-0.635,2.551-0.809,2.724c-0.895,0.009-3.059,0.467-4.727,1.015c-0.082-0.067-0.158-0.142-0.238-0.211    c-0.008-0.052-0.031-0.086-0.088-0.082c-2.49-2.2-4.072-5.407-4.072-8.983c0-6.617,5.383-12,12-12    c1.082,0,2.126,0.157,3.124,0.427c0.367-0.25,0.747-0.482,1.138-0.697C418.925,142.265,417.495,142,416,142c-7.18,0-13,5.82-13,13    s5.82,13,13,13c1.495,0,2.925-0.265,4.262-0.729c-0.39-0.214-0.768-0.445-1.134-0.694C418.13,166.847,417.083,167,416,167z"/>
		<path d="M414,155c0,7.18,5.82,13,13,13s13-5.82,13-13s-5.82-13-13-13S414,147.82,414,155z M427,167    c-2.436,0-4.701-0.734-6.596-1.986c1.395-0.403,3.006-0.746,3.73-0.753l0.406-0.004l0.289-0.287    c0.246-0.244,1.424-1.857,1.086-3.621l-0.217-1.131l-1.09,0.373c-1.148,0.393-2.125,0.592-2.906,0.592    c-0.695,0-1.207-0.159-1.52-0.471c0.379-0.147,0.791-0.48,1.139-1.17c0.287-0.57,0.316-1.262,0.355-2.219    c0.043-1.031,0.102-2.444,0.543-4.19c0.768-3.05,3.045-4.133,4.76-4.133c1.693,0,3.957,1.085,4.764,4.144    c0.465,1.76,0.529,3.179,0.576,4.215c0.043,0.94,0.074,1.619,0.357,2.183c0.342,0.676,0.742,1.009,1.109,1.161    c-0.311,0.319-0.824,0.481-1.529,0.481c-0.771,0-1.738-0.195-2.871-0.581l-1.098-0.373l-0.209,1.14    c-0.322,1.759,0.848,3.358,1.09,3.6l0.289,0.287l0.406,0.004c0.725,0.007,2.336,0.35,3.73,0.753    C431.701,166.266,429.436,167,427,167z M439,155c0,3.733-1.715,7.073-4.396,9.276c-1.67-0.548-3.834-1.006-4.729-1.015    c-0.172-0.171-1.039-1.459-0.811-2.711c6.814,2.316,6.131-2.458,6.131-2.458s-0.803,1.63-1.623,0c-0.439-0.87,0-2.943-0.861-6.203    c-0.926-3.514-3.582-4.889-5.73-4.889s-4.842,1.365-5.73,4.889c-0.82,3.259-0.383,5.333-0.82,6.203c-0.822,1.63-1.662,0-1.662,0    s-0.686,4.79,6.166,2.446c0.24,1.255-0.635,2.551-0.809,2.724c-0.895,0.009-3.059,0.467-4.727,1.015    c-0.082-0.067-0.158-0.142-0.238-0.211c-0.008-0.052-0.031-0.086-0.088-0.082c-2.49-2.2-4.072-5.407-4.072-8.983    c0-6.617,5.383-12,12-12S439,148.383,439,155z"/>
	</g>
	
    </g>
</svg>
