<?xml version="1.0" encoding="iso-8859-1"?>
<!DOCTYPE svg PUBLIC "-//W3C//DTD SVG 1.1//EN" "http://www.w3.org/Graphics/SVG/1.1/DTD/svg11.dtd">
<svg version="1.1" xmlns="http://www.w3.org/2000/svg" xmlns:xlink="http://www.w3.org/1999/xlink" x="0px" y="0px" width="30" height="30" viewBox="0 0 30 30" xml:space="preserve">
    <g transform="translate(-510 -80)">
        <g xmlns="http://www.w3.org/2000/svg" xmlns:xlink="http://www.w3.org/1999/xlink" id="circle-user-error-7">
		<path d="M538,95c0-7.18-5.82-13-13-13s-13,5.82-13,13c0,6.922,5.415,12.565,12.237,12.961L523,110h17l-4.481-7.382    C537.072,100.476,538,97.849,538,95z M513,95c0-6.617,5.383-12,12-12c6.616,0,12,5.383,12,12c0,2.473-0.77,4.759-2.059,6.668    L531.5,96l-3.316,5.462c-0.563-0.569-0.938-1.328-0.188-2.087c0.607-0.613,0.961-1.726,1.177-2.931    c0.351-0.009,0.813-0.773,1.065-1.796c0.27-1.085,0.197-2.038-0.161-2.127c-0.034-0.009-0.07-0.002-0.106,0.005    c0.082-0.876,0.057-1.707-0.193-2.067c-0.775-1.11-0.842-2.089-2.018-2.512C526.588,87.523,528,86,528,86    s-5.025,0.141-6.096,1.945c-0.629,1.055-0.934,1.403-1.708,2.514c-0.25,0.361-0.257,1.193-0.149,2.069    c-0.045-0.012-0.089-0.017-0.131-0.006c-0.359,0.089-0.43,1.042-0.162,2.127c0.254,1.023,0.717,1.787,1.066,1.796    c0.215,1.205,0.57,2.317,1.176,2.931c1.5,1.518-1.5,3.036-1.5,3.036s-0.936,0.395-1.041,0.438    c-0.66,0.285-1.553,0.683-2.416,1.105C514.567,101.755,513,98.561,513,95z M517.898,104.651c0.588-0.28,1.238-0.576,1.952-0.883    c0.089-0.036,1.034-0.435,1.034-0.435c0.428-0.213,2.258-1.21,2.504-2.721c0.08-0.49,0.026-1.224-0.681-1.939    c-0.264-0.267-0.634-0.9-0.903-2.404l-0.145-0.803l-0.529-0.014c-0.111-0.177-0.279-0.529-0.406-1.044    c-0.066-0.266-0.102-0.5-0.119-0.695l0.613,0.165l-0.18-1.472c-0.109-0.902-0.036-1.329,0.002-1.417    c0.202-0.284,0.388-0.542,0.553-0.773c0.41-0.569,0.705-0.981,1.17-1.76c0.373-0.628,1.977-1.083,3.544-1.306    c-0.022,0.195-0.016,0.395,0.032,0.594c0.075,0.308,0.314,0.865,1.08,1.142c0.416,0.149,0.554,0.382,0.891,1.034    c0.17,0.331,0.364,0.706,0.646,1.109c0,0,0,0,0,0c-0.008,0,0.117,0.344,0.019,1.404l-0.124,1.344l0.54-0.111    c-0.016,0.203-0.052,0.454-0.124,0.742c-0.127,0.515-0.294,0.866-0.406,1.043l-0.529,0.014l-0.144,0.803    c-0.269,1.503-0.64,2.137-0.903,2.403c-0.707,0.716-0.761,1.45-0.682,1.939c0.113,0.695,0.563,1.274,1.051,1.723l-2.828,4.658    C522.234,106.955,519.845,106.088,517.898,104.651z M538.223,109h-13.445l6.723-11.073L538.223,109z"/>
		<rect x="531" y="101" width="1" height="5"/>
		<rect x="531" y="107" width="1" height="1"/>
	</g>
	
    </g>
</svg>
