<?xml version="1.0" encoding="iso-8859-1"?>
<!DOCTYPE svg PUBLIC "-//W3C//DTD SVG 1.1//EN" "http://www.w3.org/Graphics/SVG/1.1/DTD/svg11.dtd">
<svg version="1.1" xmlns="http://www.w3.org/2000/svg" xmlns:xlink="http://www.w3.org/1999/xlink" x="0px" y="0px" width="48" height="30" viewBox="0 0 48 30" xml:space="preserve">
    <g transform="translate(-247 -140)">
        <g xmlns="http://www.w3.org/2000/svg" xmlns:xlink="http://www.w3.org/1999/xlink" id="circle-user-woman-woman-7">
		<path d="M282,143c6.617,0,12,5.383,12,12c0,3.733-1.715,7.073-4.397,9.276c-1.669-0.548-3.833-1.006-4.728-1.015    c-0.172-0.171-1.04-1.459-0.811-2.711c6.813,2.316,6.131-2.458,6.131-2.458s-0.803,1.63-1.624,0c-0.438-0.87,0-2.943-0.86-6.203    c-0.927-3.514-3.582-4.889-5.73-4.889s-4.842,1.365-5.73,4.889c-0.821,3.259-0.383,5.333-0.821,6.203c-0.821,1.63-1.662,0-1.662,0    s-0.685,4.79,6.167,2.446c0.24,1.255-0.635,2.551-0.809,2.724c-0.895,0.009-3.059,0.467-4.728,1.015    c-0.082-0.067-0.157-0.142-0.237-0.211c-0.009-0.052-0.031-0.086-0.089-0.082c-0.708-0.626-1.333-1.341-1.879-2.116    c-0.181,0.319-0.366,0.635-0.57,0.938C273.994,165.955,277.754,168,282,168c7.18,0,13-5.82,13-13s-5.82-13-13-13    c-4.246,0-8.006,2.045-10.378,5.194c0.201,0.299,0.384,0.61,0.562,0.925C274.357,145.028,277.943,143,282,143z M282,167    c-2.436,0-4.701-0.734-6.596-1.986c1.395-0.403,3.006-0.746,3.73-0.753l0.406-0.004l0.289-0.287    c0.246-0.244,1.424-1.857,1.086-3.621l-0.217-1.131l-1.09,0.373c-1.148,0.393-2.125,0.592-2.906,0.592    c-0.696,0-1.207-0.159-1.52-0.471c0.378-0.147,0.79-0.48,1.139-1.17c0.287-0.57,0.315-1.262,0.355-2.219    c0.043-1.031,0.102-2.444,0.542-4.19c0.769-3.05,3.046-4.133,4.761-4.133c1.693,0,3.957,1.085,4.764,4.144    c0.465,1.76,0.529,3.179,0.576,4.215c0.043,0.94,0.074,1.619,0.357,2.183c0.342,0.676,0.742,1.009,1.109,1.161    c-0.311,0.319-0.824,0.481-1.529,0.481c-0.771,0-1.738-0.195-2.872-0.581l-1.097-0.373l-0.209,1.14    c-0.322,1.759,0.847,3.358,1.09,3.6l0.289,0.287l0.406,0.004c0.725,0.007,2.336,0.35,3.73,0.753    C286.701,166.266,284.436,167,282,167z"/>
		<path d="M273,155c0-7.18-5.82-13-13-13s-13,5.82-13,13s5.82,13,13,13S273,162.18,273,155z M260,167    c-2.436,0-4.701-0.734-6.596-1.986c1.395-0.403,3.006-0.746,3.73-0.753l0.406-0.004l0.289-0.287    c0.246-0.244,1.424-1.857,1.086-3.621l-0.217-1.131l-1.09,0.373c-1.148,0.393-2.125,0.592-2.906,0.592    c-0.696,0-1.207-0.159-1.52-0.471c0.378-0.147,0.79-0.48,1.139-1.17c0.287-0.57,0.315-1.262,0.355-2.219    c0.043-1.031,0.102-2.444,0.542-4.19c0.769-3.05,3.046-4.133,4.761-4.133c1.693,0,3.957,1.085,4.764,4.144    c0.465,1.76,0.529,3.179,0.576,4.215c0.043,0.94,0.074,1.619,0.357,2.183c0.342,0.676,0.742,1.009,1.109,1.161    c-0.311,0.319-0.824,0.481-1.529,0.481c-0.771,0-1.738-0.195-2.872-0.581l-1.097-0.373l-0.209,1.14    c-0.322,1.759,0.847,3.358,1.09,3.6l0.289,0.287l0.406,0.004c0.725,0.007,2.336,0.35,3.73,0.753    C264.701,166.266,262.436,167,260,167z M267.603,164.276c-1.669-0.548-3.833-1.006-4.728-1.015    c-0.172-0.171-1.04-1.459-0.811-2.711c6.813,2.316,6.131-2.458,6.131-2.458s-0.803,1.63-1.624,0c-0.438-0.87,0-2.943-0.86-6.203    c-0.927-3.514-3.582-4.889-5.73-4.889s-4.842,1.365-5.73,4.889c-0.821,3.259-0.383,5.333-0.821,6.203c-0.821,1.63-1.662,0-1.662,0    s-0.685,4.79,6.167,2.446c0.24,1.255-0.635,2.551-0.809,2.724c-0.895,0.009-3.059,0.467-4.728,1.015    c-0.082-0.067-0.157-0.142-0.237-0.211c-0.009-0.052-0.031-0.086-0.089-0.082c-2.49-2.2-4.071-5.407-4.071-8.983    c0-6.617,5.383-12,12-12s12,5.383,12,12C272,158.733,270.285,162.073,267.603,164.276z"/>
	</g>
	
    </g>
</svg>
