<?xml version="1.0" encoding="iso-8859-1"?>
<!DOCTYPE svg PUBLIC "-//W3C//DTD SVG 1.1//EN" "http://www.w3.org/Graphics/SVG/1.1/DTD/svg11.dtd">
<svg version="1.1" xmlns="http://www.w3.org/2000/svg" xmlns:xlink="http://www.w3.org/1999/xlink" x="0px" y="0px" width="30" height="30" viewBox="0 0 30 30" xml:space="preserve">
    <g transform="translate(-450 -80)">
        <g xmlns="http://www.w3.org/2000/svg" xmlns:xlink="http://www.w3.org/1999/xlink" id="circle-user-lock-7">
		<path d="M465,108c0.682,0,1.347-0.068,2-0.169V110h13V99h-2v-1c0-0.384-0.063-0.75-0.153-1.106C477.938,96.274,478,95.645,478,95    c0-7.18-5.82-13-13-13s-13,5.82-13,13S457.82,108,465,108z M465,107c-2.659,0-5.111-0.88-7.102-2.349    c0.588-0.28,1.238-0.576,1.952-0.883c0.089-0.036,1.034-0.435,1.034-0.435c0.428-0.213,2.258-1.21,2.504-2.721    c0.08-0.49,0.026-1.224-0.681-1.939c-0.264-0.267-0.634-0.9-0.903-2.404l-0.145-0.803l-0.529-0.014    c-0.111-0.177-0.279-0.529-0.406-1.044c-0.066-0.266-0.102-0.5-0.119-0.695l0.613,0.165l-0.18-1.472    c-0.109-0.902-0.036-1.329,0.002-1.417c0.202-0.284,0.388-0.542,0.553-0.773c0.41-0.569,0.705-0.981,1.17-1.76    c0.373-0.628,1.977-1.083,3.544-1.306c-0.022,0.195-0.016,0.395,0.032,0.594c0.075,0.308,0.314,0.865,1.08,1.142    c0.416,0.149,0.554,0.382,0.891,1.034c0.17,0.331,0.364,0.706,0.646,1.109c0,0,0,0,0,0c-0.008,0,0.117,0.344,0.019,1.404    l-0.124,1.344l0.54-0.111c-0.016,0.203-0.052,0.454-0.124,0.742c-0.127,0.515-0.294,0.866-0.406,1.043l-0.529,0.014l-0.144,0.803    c-0.269,1.503-0.64,2.137-0.903,2.403c-0.107,0.109-0.196,0.219-0.275,0.328H467v0.015c-0.431,0.601-0.463,1.186-0.396,1.597    c0.058,0.352,0.206,0.672,0.396,0.964v5.253C466.35,106.94,465.682,107,465,107z M470,98c0-1.93,1.57-3.5,3.5-3.5    s3.5,1.57,3.5,3.5v1h-7V98z M479,100v9h-11v-9H479z M465,83c6.616,0,12,5.383,12,12c0,0.064-0.01,0.126-0.011,0.19    c-0.824-1.023-2.072-1.69-3.489-1.69c-1.354,0-2.554,0.61-3.378,1.556c0.042-0.13,0.081-0.265,0.116-0.407    c0.27-1.085,0.197-2.038-0.161-2.127c-0.034-0.009-0.07-0.002-0.106,0.005c0.082-0.876,0.057-1.707-0.193-2.067    c-0.775-1.11-0.842-2.089-2.018-2.512C466.588,87.523,468,86,468,86s-5.025,0.141-6.096,1.945    c-0.629,1.055-0.934,1.403-1.708,2.514c-0.25,0.361-0.257,1.193-0.149,2.069c-0.045-0.012-0.089-0.017-0.131-0.006    c-0.359,0.089-0.43,1.042-0.162,2.127c0.254,1.023,0.717,1.787,1.066,1.796c0.215,1.205,0.57,2.317,1.176,2.931    c1.5,1.518-1.5,3.036-1.5,3.036s-0.936,0.395-1.041,0.438c-0.66,0.285-1.553,0.683-2.416,1.105C454.567,101.755,453,98.561,453,95    C453,88.383,458.383,83,465,83z"/>
		<path d="M475,103.5c0-0.828-0.672-1.5-1.5-1.5s-1.5,0.672-1.5,1.5c0,0.652,0.419,1.201,1,1.408V107h1v-2.092    C474.581,104.701,475,104.152,475,103.5z"/>
	</g>
	
    </g>
</svg>
