<?xml version="1.0" encoding="iso-8859-1"?>
<!DOCTYPE svg PUBLIC "-//W3C//DTD SVG 1.1//EN" "http://www.w3.org/Graphics/SVG/1.1/DTD/svg11.dtd">
<svg version="1.1" xmlns="http://www.w3.org/2000/svg" xmlns:xlink="http://www.w3.org/1999/xlink" x="0px" y="0px" width="30" height="30" viewBox="0 0 30 30" xml:space="preserve">
    <g transform="translate(-390 -80)">
        <g xmlns="http://www.w3.org/2000/svg" xmlns:xlink="http://www.w3.org/1999/xlink" id="circle-user-upload-7">
		<path d="M405,108c0.749,0,1.479-0.077,2.194-0.199c1.357,1.359,3.233,2.199,5.306,2.199c4.143,0,7.5-3.357,7.5-7.5    c0-2.073-0.841-3.948-2.199-5.306C417.923,96.479,418,95.75,418,95c0-7.18-5.82-13-13-13s-13,5.82-13,13S397.82,108,405,108z     M405,107c-2.659,0-5.111-0.88-7.102-2.349c0.588-0.28,1.238-0.576,1.952-0.883c0.089-0.036,1.034-0.435,1.034-0.435    c0.428-0.213,2.258-1.21,2.504-2.721c0.08-0.49,0.026-1.224-0.681-1.939c-0.264-0.267-0.634-0.9-0.903-2.404l-0.145-0.803    l-0.529-0.014c-0.111-0.177-0.279-0.529-0.406-1.044c-0.066-0.266-0.102-0.5-0.119-0.695l0.613,0.165l-0.18-1.472    c-0.109-0.902-0.036-1.329,0.002-1.417c0.202-0.284,0.388-0.542,0.553-0.773c0.41-0.569,0.705-0.981,1.17-1.76    c0.373-0.628,1.977-1.083,3.544-1.306c-0.022,0.195-0.016,0.395,0.032,0.594c0.075,0.308,0.314,0.865,1.08,1.142    c0.416,0.149,0.554,0.382,0.891,1.034c0.17,0.331,0.364,0.706,0.646,1.109c0,0,0,0,0,0c-0.008,0,0.117,0.344,0.019,1.404    l-0.124,1.344l0.54-0.111c-0.016,0.203-0.052,0.454-0.124,0.742c-0.127,0.515-0.294,0.866-0.406,1.043l-0.529,0.014l-0.144,0.803    c-0.008,0.042-0.016,0.077-0.023,0.118C406.252,97.746,405,99.975,405,102.5c0,1.647,0.537,3.166,1.438,4.403    C405.966,106.961,405.487,107,405,107z M419,102.5c0,3.59-2.91,6.5-6.5,6.5s-6.5-2.91-6.5-6.5s2.91-6.5,6.5-6.5    S419,98.91,419,102.5z M405,83c6.616,0,12,5.383,12,12c0,0.488-0.035,0.968-0.093,1.44c-1.238-0.902-2.758-1.44-4.407-1.44    c-0.886,0-1.732,0.162-2.521,0.444c0.099-0.238,0.188-0.504,0.26-0.795c0.27-1.085,0.197-2.038-0.161-2.127    c-0.034-0.009-0.07-0.002-0.106,0.005c0.082-0.876,0.057-1.707-0.193-2.067c-0.775-1.11-0.842-2.089-2.018-2.512    C406.588,87.523,408,86,408,86s-5.025,0.141-6.096,1.945c-0.629,1.055-0.934,1.403-1.708,2.514    c-0.25,0.361-0.257,1.193-0.149,2.069c-0.045-0.012-0.089-0.017-0.131-0.006c-0.359,0.089-0.43,1.042-0.162,2.127    c0.254,1.023,0.717,1.787,1.066,1.796c0.215,1.205,0.57,2.317,1.176,2.931c1.5,1.518-1.5,3.036-1.5,3.036    s-0.936,0.395-1.041,0.438c-0.66,0.285-1.553,0.683-2.416,1.105C394.567,101.755,393,98.561,393,95C393,88.383,398.383,83,405,83z    "/>
		<polygon points="412.501,98.5 408.411,102.898 409.144,103.58 412,100.507 412,106 413,106 413,100.505 415.857,103.58     416.59,102.898   "/>
	</g>
	
    </g>
</svg>
