<?xml version="1.0" encoding="iso-8859-1"?>
<!DOCTYPE svg PUBLIC "-//W3C//DTD SVG 1.1//EN" "http://www.w3.org/Graphics/SVG/1.1/DTD/svg11.dtd">
<svg version="1.1" xmlns="http://www.w3.org/2000/svg" xmlns:xlink="http://www.w3.org/1999/xlink" x="0px" y="0px" width="30" height="30" viewBox="0 0 30 30" xml:space="preserve">
    <g transform="translate(-330 -80)">
        <g xmlns="http://www.w3.org/2000/svg" xmlns:xlink="http://www.w3.org/1999/xlink" id="circle-user-download-7">
		<path d="M345.043,108c0.736,0,1.454-0.076,2.157-0.193c1.356,1.355,3.23,2.193,5.3,2.193c4.143,0,7.5-3.357,7.5-7.5    c0-2.053-0.826-3.912-2.162-5.266c0.126-0.728,0.205-1.471,0.205-2.234c0-7.18-5.82-13-13-13s-13,5.82-13,13    S337.863,108,345.043,108z M337.941,104.651c0.588-0.28,1.238-0.576,1.952-0.883c0.089-0.036,1.034-0.435,1.034-0.435    c0.428-0.213,2.258-1.21,2.504-2.721c0.08-0.49,0.026-1.224-0.681-1.939c-0.264-0.267-0.634-0.9-0.903-2.404l-0.145-0.803    l-0.529-0.014c-0.111-0.177-0.279-0.529-0.406-1.044c-0.066-0.266-0.102-0.5-0.119-0.695l0.613,0.165l-0.18-1.472    c-0.109-0.902-0.036-1.329,0.002-1.417c0.202-0.284,0.388-0.542,0.553-0.773c0.41-0.569,0.705-0.981,1.17-1.76    c0.373-0.628,1.977-1.083,3.544-1.306c-0.022,0.195-0.016,0.395,0.032,0.594c0.075,0.308,0.314,0.865,1.08,1.142    c0.416,0.149,0.554,0.382,0.891,1.034c0.17,0.331,0.364,0.706,0.646,1.109c0,0,0,0,0,0c-0.008,0,0.117,0.344,0.019,1.404    l-0.124,1.344l0.54-0.111c-0.016,0.203-0.052,0.454-0.124,0.742c-0.127,0.515-0.294,0.866-0.406,1.043l-0.529,0.014l-0.144,0.803    c-0.005,0.029-0.011,0.052-0.016,0.08C346.273,97.704,345,99.952,345,102.5c0,1.65,0.539,3.17,1.441,4.408    c-0.46,0.054-0.924,0.092-1.398,0.092C342.384,107,339.932,106.12,337.941,104.651z M359,102.5c0,3.59-2.91,6.5-6.5,6.5    s-6.5-2.91-6.5-6.5s2.91-6.5,6.5-6.5S359,98.91,359,102.5z M345.043,83c6.616,0,12,5.383,12,12c0,0.498-0.038,0.987-0.098,1.469    C355.7,95.55,354.166,95,352.5,95c-0.867,0-1.695,0.154-2.471,0.425c0.096-0.233,0.183-0.493,0.252-0.776    c0.27-1.085,0.197-2.038-0.161-2.127c-0.034-0.009-0.07-0.002-0.106,0.005c0.082-0.876,0.057-1.707-0.193-2.067    c-0.775-1.11-0.842-2.089-2.018-2.512c-1.172-0.424,0.24-1.947,0.24-1.947s-5.025,0.141-6.096,1.945    c-0.629,1.055-0.934,1.403-1.708,2.514c-0.25,0.361-0.257,1.193-0.149,2.069c-0.045-0.012-0.089-0.017-0.131-0.006    c-0.359,0.089-0.43,1.042-0.162,2.127c0.254,1.023,0.717,1.787,1.066,1.796c0.215,1.205,0.57,2.317,1.176,2.931    c1.5,1.518-1.5,3.036-1.5,3.036s-0.936,0.395-1.041,0.438c-0.66,0.285-1.553,0.683-2.416,1.105    c-2.472-2.2-4.039-5.394-4.039-8.955C333.043,88.383,338.426,83,345.043,83z"/>
		<polygon points="353,104.493 353,99 352,99 352,104.495 349.143,101.42 348.41,102.102 352.499,106.5 356.589,102.102     355.856,101.42   "/>
	</g>
	
    </g>
</svg>
