<?xml version="1.0" encoding="iso-8859-1"?>
<!DOCTYPE svg PUBLIC "-//W3C//DTD SVG 1.1//EN" "http://www.w3.org/Graphics/SVG/1.1/DTD/svg11.dtd">
<svg version="1.1" xmlns="http://www.w3.org/2000/svg" xmlns:xlink="http://www.w3.org/1999/xlink" x="0px" y="0px" width="48" height="30" viewBox="0 0 48 30" xml:space="preserve">
    <g transform="translate(-325 -140)">
        <g xmlns="http://www.w3.org/2000/svg" xmlns:xlink="http://www.w3.org/1999/xlink" id="circle-user-man-three-7">
		<path d="M360,143c6.616,0,12,5.383,12,12c0,3.562-1.569,6.757-4.042,8.957c-0.865-0.424-1.758-0.822-2.42-1.107    c-0.104-0.043-1.041-0.438-1.041-0.438s-3-1.518-1.5-3.036c0.606-0.613,0.961-1.726,1.176-2.931    c0.351-0.009,0.813-0.773,1.066-1.796c0.269-1.085,0.197-2.038-0.162-2.127c-0.034-0.009-0.07-0.002-0.105,0.005    c0.081-0.876,0.057-1.707-0.193-2.067c-0.776-1.11-0.842-2.089-2.018-2.512C361.588,147.523,363,146,363,146    s-1.473,0.044-2.993,0.368c0.228,0.29,0.449,0.583,0.654,0.89c0.214-0.04,0.431-0.076,0.646-0.106    c-0.021,0.195-0.016,0.395,0.033,0.594c0.074,0.308,0.314,0.865,1.08,1.142c0.416,0.149,0.553,0.382,0.89,1.034    c0.171,0.331,0.364,0.706,0.647,1.109c0,0-0.001,0-0.001,0c-0.007,0,0.117,0.344,0.019,1.404l-0.124,1.344l0.54-0.111    c-0.016,0.203-0.052,0.454-0.123,0.742c-0.127,0.515-0.295,0.866-0.406,1.043l-0.529,0.014l-0.145,0.803    c-0.165,0.926-0.369,1.52-0.563,1.904c-0.22,0.947-0.536,1.855-0.938,2.718c0.409,1.351,2.017,2.24,2.358,2.413    c0.063,0.029,1.008,0.428,1.113,0.471c0.709,0.305,1.355,0.599,1.94,0.878c-1.991,1.468-4.441,2.348-7.1,2.348    c-1.083,0-2.13-0.153-3.127-0.425c-0.366,0.25-0.745,0.481-1.135,0.696c1.337,0.464,2.767,0.729,4.262,0.729c7.18,0,13-5.82,13-13    s-5.82-13-13-13c-1.495,0-2.925,0.265-4.262,0.729c0.391,0.215,0.771,0.447,1.137,0.698C357.874,143.157,358.918,143,360,143z"/>
		<path d="M342.262,167.271c-0.39-0.214-0.769-0.446-1.135-0.696C340.129,166.847,339.083,167,338,167    c-2.659,0-5.11-0.88-7.102-2.349c0.589-0.28,1.239-0.576,1.952-0.883c0.09-0.036,1.035-0.435,1.035-0.435    c0.401-0.2,2.018-1.095,2.424-2.449c-0.396-0.853-0.709-1.75-0.929-2.685c-0.197-0.383-0.406-0.983-0.576-1.93l-0.144-0.803    l-0.529-0.014c-0.112-0.177-0.279-0.529-0.407-1.044c-0.065-0.266-0.102-0.5-0.118-0.695l0.613,0.165l-0.18-1.472    c-0.11-0.902-0.037-1.329,0.002-1.417c0.201-0.284,0.387-0.542,0.553-0.773c0.41-0.569,0.705-0.981,1.17-1.76    c0.188-0.316,0.688-0.588,1.338-0.809c0.273-0.442,0.568-0.869,0.888-1.277c-1.283,0.275-2.596,0.75-3.085,1.574    c-0.629,1.055-0.934,1.403-1.709,2.514c-0.25,0.361-0.256,1.193-0.148,2.069c-0.046-0.012-0.09-0.017-0.131-0.006    c-0.359,0.089-0.431,1.042-0.163,2.127c0.254,1.023,0.717,1.787,1.066,1.796c0.216,1.205,0.57,2.317,1.177,2.931    c1.5,1.518-1.5,3.036-1.5,3.036s-0.937,0.395-1.041,0.438c-0.661,0.285-1.553,0.683-2.416,1.105c-2.473-2.2-4.04-5.394-4.04-8.955    c0-6.617,5.384-12,12-12c1.082,0,2.126,0.157,3.125,0.427c0.366-0.25,0.746-0.483,1.137-0.698    C340.925,142.265,339.495,142,338,142c-7.18,0-13,5.82-13,13s5.82,13,13,13C339.495,168,340.925,167.735,342.262,167.271z"/>
		<path d="M336,155c0,7.18,5.82,13,13,13s13-5.82,13-13s-5.82-13-13-13S336,147.82,336,155z M349,167    c-2.659,0-5.11-0.88-7.102-2.349c0.589-0.28,1.239-0.576,1.952-0.883c0.09-0.036,1.035-0.435,1.035-0.435    c0.428-0.213,2.258-1.21,2.504-2.721c0.08-0.49,0.025-1.224-0.682-1.939c-0.264-0.267-0.634-0.9-0.903-2.404l-0.144-0.803    l-0.529-0.014c-0.112-0.177-0.279-0.529-0.407-1.044c-0.065-0.266-0.102-0.5-0.118-0.695l0.613,0.165l-0.18-1.472    c-0.11-0.902-0.037-1.329,0.002-1.417c0.201-0.284,0.387-0.542,0.553-0.773c0.41-0.569,0.705-0.981,1.17-1.76    c0.373-0.628,1.976-1.083,3.543-1.306c-0.021,0.195-0.016,0.395,0.033,0.594c0.074,0.308,0.314,0.865,1.08,1.142    c0.416,0.149,0.553,0.382,0.89,1.034c0.171,0.331,0.364,0.706,0.647,1.109c0,0-0.001,0-0.001,0c-0.007,0,0.117,0.344,0.019,1.404    l-0.124,1.344l0.54-0.111c-0.016,0.203-0.052,0.454-0.123,0.742c-0.127,0.515-0.295,0.866-0.406,1.043l-0.529,0.014l-0.145,0.803    c-0.269,1.503-0.639,2.137-0.902,2.403c-0.707,0.716-0.762,1.45-0.682,1.939c0.246,1.511,2.076,2.507,2.441,2.691    c0.063,0.029,1.008,0.428,1.113,0.471c0.709,0.305,1.355,0.599,1.94,0.878C354.108,166.121,351.658,167,349,167z M349,143    c6.616,0,12,5.383,12,12c0,3.562-1.569,6.757-4.042,8.957c-0.865-0.424-1.758-0.822-2.42-1.107    c-0.104-0.043-1.041-0.438-1.041-0.438s-3-1.518-1.5-3.036c0.606-0.613,0.961-1.726,1.176-2.931    c0.351-0.009,0.813-0.773,1.066-1.796c0.269-1.085,0.197-2.038-0.162-2.127c-0.034-0.009-0.07-0.002-0.105,0.005    c0.081-0.876,0.057-1.707-0.193-2.067c-0.776-1.11-0.842-2.089-2.018-2.512C350.588,147.523,352,146,352,146    s-5.024,0.141-6.095,1.945c-0.629,1.055-0.934,1.403-1.709,2.514c-0.25,0.361-0.256,1.193-0.148,2.069    c-0.046-0.012-0.09-0.017-0.131-0.006c-0.359,0.089-0.431,1.042-0.163,2.127c0.254,1.023,0.717,1.787,1.066,1.796    c0.216,1.205,0.57,2.317,1.177,2.931c1.5,1.518-1.5,3.036-1.5,3.036s-0.937,0.395-1.041,0.438    c-0.661,0.285-1.553,0.683-2.416,1.105c-2.473-2.2-4.04-5.394-4.04-8.955C337,148.383,342.384,143,349,143z"/>
	</g>
	
    </g>
</svg>
