<?xml version="1.0" encoding="iso-8859-1"?>
<!DOCTYPE svg PUBLIC "-//W3C//DTD SVG 1.1//EN" "http://www.w3.org/Graphics/SVG/1.1/DTD/svg11.dtd">
<svg version="1.1" xmlns="http://www.w3.org/2000/svg" xmlns:xlink="http://www.w3.org/1999/xlink" x="0px" y="0px" width="30" height="30" viewBox="0 0 30 30" xml:space="preserve">
    <g transform="translate(-481 -140)">
        <g xmlns="http://www.w3.org/2000/svg" xmlns:xlink="http://www.w3.org/1999/xlink" id="circle-user-man-dark-7">
		<path d="M496,168c7.18,0,13-5.82,13-13s-5.82-13-13-13s-13,5.82-13,13S488.82,168,496,168z M496,143c6.616,0,12,5.383,12,12    c0,3.562-1.569,6.757-4.042,8.957c-0.865-0.424-1.758-0.822-2.42-1.107c-0.104-0.043-1.041-0.438-1.041-0.438s-3-1.518-1.5-3.036    c0.606-0.613,0.961-1.726,1.176-2.931c0.351-0.009,0.813-0.773,1.066-1.796c0.269-1.085,0.197-2.038-0.162-2.127    c-0.034-0.009-0.07-0.002-0.105,0.005c0.081-0.876,0.057-1.707-0.193-2.067c-0.776-1.11-0.842-2.089-2.018-2.512    C497.588,147.523,499,146,499,146s-5.024,0.141-6.095,1.945c-0.629,1.055-0.934,1.403-1.709,2.514    c-0.25,0.361-0.256,1.193-0.148,2.069c-0.046-0.012-0.09-0.017-0.131-0.006c-0.359,0.089-0.431,1.042-0.163,2.127    c0.254,1.023,0.717,1.787,1.066,1.796c0.216,1.205,0.57,2.317,1.177,2.931c1.5,1.518-1.5,3.036-1.5,3.036    s-0.937,0.395-1.041,0.438c-0.661,0.285-1.553,0.683-2.416,1.105c-2.473-2.2-4.04-5.394-4.04-8.955    C484,148.383,489.384,143,496,143z"/>
	</g>
	
    </g>
</svg>
