<?xml version="1.0" encoding="iso-8859-1"?>
<!DOCTYPE svg PUBLIC "-//W3C//DTD SVG 1.1//EN" "http://www.w3.org/Graphics/SVG/1.1/DTD/svg11.dtd">
<svg version="1.1" xmlns="http://www.w3.org/2000/svg" xmlns:xlink="http://www.w3.org/1999/xlink" x="0px" y="0px" width="30" height="30" viewBox="0 0 30 30" xml:space="preserve">
    <g transform="translate(-541 -140)">
        <g xmlns="http://www.w3.org/2000/svg" xmlns:xlink="http://www.w3.org/1999/xlink" id="circle-user-woman-dark-7">
		<path d="M556,168c3.402,0,6.49-1.318,8.808-3.458c2.571-2.375,4.192-5.765,4.192-9.542c0-7.18-5.82-13-13-13s-13,5.82-13,13    c0,3.777,1.621,7.167,4.192,9.542C549.51,166.682,552.598,168,556,168z M544,155c0-6.617,5.383-12,12-12s12,5.383,12,12    c0,3.563-1.57,6.76-4.045,8.959c-1.23-0.545-3.584-1.012-4.895-1.236c-0.457-0.07-0.752-0.107-0.752-0.107    s-0.431-0.949-0.424-2.009c0.002-0.195,0.014-0.393,0.051-0.591c6.396,2.197,5.756-2.314,5.756-2.314s-0.786,1.539-1.555,0    c-0.411-0.82,0-2.778-0.771-5.855c-0.83-3.326-3.353-4.614-5.365-4.614s-4.535,1.288-5.365,4.614    c-0.771,3.077-0.36,5.035-0.771,5.855c-0.769,1.539-1.555,0-1.555,0s-0.64,4.512,5.756,2.314c0.037,0.198,0.049,0.396,0.051,0.591    c0.007,1.06-0.424,2.009-0.424,2.009s-0.295,0.037-0.751,0.107c-1.312,0.225-3.665,0.691-4.896,1.236    C545.57,161.76,544,158.563,544,155z"/>
	</g>
	
    </g>
</svg>
