<?xml version="1.0" encoding="iso-8859-1"?>
<!DOCTYPE svg PUBLIC "-//W3C//DTD SVG 1.1//EN" "http://www.w3.org/Graphics/SVG/1.1/DTD/svg11.dtd">
<svg version="1.1" xmlns="http://www.w3.org/2000/svg" xmlns:xlink="http://www.w3.org/1999/xlink" x="0px" y="0px" width="30" height="30" viewBox="0 0 30 30" xml:space="preserve">
    <g transform="translate(-570 -680)">
        <g xmlns="http://www.w3.org/2000/svg" xmlns:xlink="http://www.w3.org/1999/xlink" id="emoticon-cool-7">
		<path d="M585,682c-5.783,0-10.679,3.779-12.366,9H571v1h1.361c-0.228,0.965-0.361,1.966-0.361,3c0,7.18,5.82,13,13,13    s13-5.82,13-13c0-1.034-0.134-2.035-0.361-3H599v-1h-1.634C595.679,685.779,590.783,682,585,682z M585,683    c5.213,0,9.647,3.347,11.3,8h-22.6C575.353,686.347,579.787,683,585,683z M597,695c0,6.617-5.383,12-12,12s-12-5.383-12-12    c0-1.037,0.146-2.039,0.395-3H575c0,2.762,2.238,5,5,5s5-2.238,5-5c0,2.762,2.238,5,5,5s5-2.238,5-5h1.605    C596.854,692.961,597,693.963,597,695z"/>
		<path d="M585,702c-3.67,0-5.508-2.665-5.585-2.778l-0.831,0.556c0.088,0.132,2.197,3.223,6.416,3.223s6.328-3.091,6.416-3.223    l-0.832-0.555C590.565,699.25,588.689,702,585,702z"/>
	</g>
	
    </g>
</svg>
