<?xml version="1.0" encoding="iso-8859-1"?>
<!DOCTYPE svg PUBLIC "-//W3C//DTD SVG 1.1//EN" "http://www.w3.org/Graphics/SVG/1.1/DTD/svg11.dtd">
<svg version="1.1" xmlns="http://www.w3.org/2000/svg" xmlns:xlink="http://www.w3.org/1999/xlink" x="0px" y="0px" width="30" height="30" viewBox="0 0 30 30" xml:space="preserve">
    <g transform="translate(-30 -740)">
        <g xmlns="http://www.w3.org/2000/svg" xmlns:xlink="http://www.w3.org/1999/xlink" id="emoticon-nerd-7">
		<path d="M45,742c-5.783,0-10.679,3.779-12.366,9H31v1h1.361c-0.228,0.965-0.361,1.966-0.361,3c0,7.18,5.82,13,13,13s13-5.82,13-13    c0-1.034-0.134-2.035-0.361-3H59v-1h-1.634C55.679,745.779,50.783,742,45,742z M45,743c5.213,0,9.647,3.347,11.3,8h-2.856    c-0.693-1.189-1.969-2-3.443-2s-2.75,0.811-3.443,2h-3.113c-0.693-1.189-1.969-2-3.443-2s-2.75,0.811-3.443,2H33.7    C35.353,746.347,39.787,743,45,743z M53,753c0,1.654-1.346,3-3,3s-3-1.346-3-3s1.346-3,3-3S53,751.346,53,753z M43,753    c0,1.654-1.346,3-3,3s-3-1.346-3-3s1.346-3,3-3S43,751.346,43,753z M57,755c0,6.617-5.383,12-12,12s-12-5.383-12-12    c0-1.037,0.146-2.039,0.395-3h2.748c-0.084,0.321-0.143,0.652-0.143,1c0,2.206,1.794,4,4,4s4-1.794,4-4    c0-0.348-0.059-0.679-0.143-1h2.285c-0.084,0.321-0.143,0.652-0.143,1c0,2.206,1.794,4,4,4s4-1.794,4-4    c0-0.348-0.059-0.679-0.143-1h2.748C56.854,752.961,57,753.963,57,755z"/>
		<circle cx="40" cy="753" r="1.5"/>
		<circle cx="50" cy="753" r="1.5"/>
		<path d="M45,762c-3.67,0-5.508-2.665-5.585-2.778l-0.831,0.556C38.672,759.909,40.781,763,45,763s6.328-3.091,6.416-3.223    l-0.832-0.555C50.565,759.25,48.689,762,45,762z"/>
	</g>
	
    </g>
</svg>
