<?xml version="1.0" encoding="iso-8859-1"?>
<!DOCTYPE svg PUBLIC "-//W3C//DTD SVG 1.1//EN" "http://www.w3.org/Graphics/SVG/1.1/DTD/svg11.dtd">
<svg version="1.1" xmlns="http://www.w3.org/2000/svg" xmlns:xlink="http://www.w3.org/1999/xlink" x="0px" y="0px" width="30" height="30" viewBox="0 0 30 30" xml:space="preserve">
    <g transform="translate(-90 -740)">
        <g xmlns="http://www.w3.org/2000/svg" xmlns:xlink="http://www.w3.org/1999/xlink" id="emoticon-cry-7">
		<path d="M105,742c-7.18,0-13,5.82-13,13c0,2.774,0.876,5.34,2.357,7.451C96.708,765.803,100.595,768,105,768    c4.438,0,8.352-2.227,10.697-5.62c1.449-2.098,2.303-4.638,2.303-7.38C118,747.82,112.18,742,105,742z M105,743    c6.617,0,12,5.383,12,12c0,2.524-0.787,4.866-2.124,6.801c-0.188-1.001-0.604-1.941-1.213-2.785    c0.208-0.337,0.337-0.733,0.337-1.17c0-1.189-2-4.846-2-4.846s-0.499,0.913-0.998,1.974c-0.016,0.032-0.031,0.063-0.045,0.099    c-0.145,0.31-0.287,0.627-0.417,0.939c-0.039,0.094-0.073,0.185-0.108,0.276C108.866,755.477,107.004,755,105,755    c-5.012,0-9.15,2.953-9.876,6.801C93.787,759.866,93,757.524,93,755C93,748.383,98.383,743,105,743z M105,767    c-3.582,0-6.794-1.586-8.994-4.083C96.063,759.096,100.074,756,105,756c1.896,0,3.654,0.461,5.106,1.242    c-0.063,0.233-0.106,0.445-0.106,0.604c0,0.349,0.084,0.673,0.219,0.963c0.053,0.11,0.109,0.214,0.176,0.312    c0.109,0.158,0.236,0.297,0.379,0.416c0.34,0.285,0.762,0.463,1.225,0.463H112c0.346,0,0.666-0.106,0.949-0.272    c0.652,0.954,1.027,2.038,1.045,3.189C111.794,765.414,108.582,767,105,767z M112.461,758.86c-0.15,0.092-0.308,0.14-0.461,0.14    c-0.207,0-0.402-0.077-0.582-0.229c-0.078-0.065-0.145-0.138-0.199-0.218c-0.035-0.05-0.066-0.109-0.096-0.172    c-0.08-0.173-0.123-0.354-0.123-0.536c0-0.033,0.014-0.362,0.464-1.451c0.124-0.299,0.261-0.603,0.399-0.899    c0,0,0.106-0.229,0.138-0.294c0.562,1.179,0.999,2.271,0.999,2.645C113,758.266,112.793,758.654,112.461,758.86z"/>
		<rect x="99.027" y="748.441" transform="matrix(0.5053 0.863 -0.863 0.5053 696.8417 285.3799)" width="0.999" height="4"/>
		<rect x="108.474" y="749.942" transform="matrix(0.863 0.5051 -0.5051 0.863 394.2009 46.9746)" width="4" height="0.999"/>
	</g>
	
    </g>
</svg>
