<?xml version="1.0" encoding="iso-8859-1"?>
<!DOCTYPE svg PUBLIC "-//W3C//DTD SVG 1.1//EN" "http://www.w3.org/Graphics/SVG/1.1/DTD/svg11.dtd">
<svg version="1.1" xmlns="http://www.w3.org/2000/svg" xmlns:xlink="http://www.w3.org/1999/xlink" x="0px" y="0px" width="30" height="30" viewBox="0 0 30 30" xml:space="preserve">
    <g transform="translate(-330 -680)">
        <g xmlns="http://www.w3.org/2000/svg" xmlns:xlink="http://www.w3.org/1999/xlink" id="emoticon-happy-7">
		<path d="M345,682c-7.18,0-13,5.82-13,13s5.82,13,13,13s13-5.82,13-13S352.18,682,345,682z M345,707c-6.617,0-12-5.383-12-12    s5.383-12,12-12s12,5.383,12,12S351.617,707,345,707z"/>
		<circle cx="340" cy="691" r="2"/>
		<circle cx="350" cy="691" r="2"/>
		<path d="M345,704c4.971,0,9-4.029,9-9h-18C336,699.971,340.029,704,345,704z M345,703c-4.072,0-7.444-3.06-7.938-7h15.875    C352.444,699.94,349.072,703,345,703z"/>
	</g>
	
    </g>
</svg>
