<?xml version="1.0" encoding="iso-8859-1"?>
<!DOCTYPE svg PUBLIC "-//W3C//DTD SVG 1.1//EN" "http://www.w3.org/Graphics/SVG/1.1/DTD/svg11.dtd">
<svg version="1.1" xmlns="http://www.w3.org/2000/svg" xmlns:xlink="http://www.w3.org/1999/xlink" x="0px" y="0px" width="30" height="30" viewBox="0 0 30 30" xml:space="preserve">
    <g transform="translate(-510 -680)">
        <g xmlns="http://www.w3.org/2000/svg" xmlns:xlink="http://www.w3.org/1999/xlink" id="emoticon-angry-7">
		<path d="M525,699c-4.219,0-6.328,3.091-6.416,3.223l0.832,0.555C519.435,702.75,521.311,700,525,700    c3.67,0,5.508,2.665,5.585,2.778l0.831-0.556C531.328,702.091,529.219,699,525,699z"/>
		<path d="M537.061,686.082l-0.594-0.805l-1.65,1.218C532.434,683.746,528.924,682,525,682s-7.434,1.746-9.816,4.495l-1.65-1.218    l-0.594,0.805l1.62,1.195c-1.601,2.161-2.56,4.826-2.56,7.723c0,7.18,5.82,13,13,13s13-5.82,13-13c0-2.896-0.959-5.562-2.56-7.723    L537.061,686.082z M537,695c0,6.617-5.383,12-12,12s-12-5.383-12-12c0-2.67,0.888-5.131,2.367-7.126l4.285,3.161    C518.715,691.2,518,692.016,518,693c0,1.104,0.896,2,2,2s2-0.896,2-2c0-0.086-0.015-0.168-0.025-0.252l1.432,1.057L524,693    l-8.005-5.906c2.201-2.503,5.417-4.094,9.005-4.094s6.804,1.591,9.005,4.094L526,693l0.594,0.805l1.432-1.057    C528.015,692.832,528,692.914,528,693c0,1.104,0.896,2,2,2c1.104,0,2-0.896,2-2c0-0.984-0.715-1.8-1.652-1.965l4.285-3.161    C536.112,689.869,537,692.33,537,695z"/>
	</g>
	
    </g>
</svg>
