<?xml version="1.0" encoding="iso-8859-1"?>
<!DOCTYPE svg PUBLIC "-//W3C//DTD SVG 1.1//EN" "http://www.w3.org/Graphics/SVG/1.1/DTD/svg11.dtd">
<svg version="1.1" xmlns="http://www.w3.org/2000/svg" xmlns:xlink="http://www.w3.org/1999/xlink" x="0px" y="0px" width="29" height="30" viewBox="0 0 29 30" xml:space="preserve">
    <g transform="translate(-510 -560)">
        <g xmlns="http://www.w3.org/2000/svg" xmlns:xlink="http://www.w3.org/1999/xlink" id="man-run-7">
		<path d="M521,576v5h-4c-0.553,0-1,0.447-1,1v1c0,0.553,0.447,1,1,1h6c1.104,0,2-0.896,2-2v-2.571l3,2.571v6c0,0.553,0.447,1,1,1h1    c0.553,0,1-0.447,1-1v-8l-4-3.386l0.745-2.39l3.597,1.253c0.521,0.182,1.091-0.094,1.272-0.615l0.33-0.944    c0.181-0.522-0.095-1.091-0.617-1.273l-3.688-1.284l1.078-3.456c1.309-0.323,2.282-1.496,2.282-2.904c0-1.657-1.343-3-3-3    s-3,1.343-3,3c0,0.771,0.3,1.469,0.778,2H523h-0.848h-1.023H520l-3.25,6.201c-0.257,0.489-0.068,1.092,0.422,1.35l0.885,0.464    c0.489,0.257,1.094,0.068,1.35-0.422l2.407-4.593H523L521,576z M524,582c0,0.552-0.448,1-1,1h-6v-1h5v-5.143l2,1.714V582z     M531.999,573.589l-0.329,0.944l-3.626-1.264l0.298-0.955L531.999,573.589z M527,565c0-1.104,0.896-2,2-2s2,0.896,2,2    s-0.896,2-2,2S527,566.104,527,565z M521.209,569l-2.688,5.129l-0.886-0.465l2.969-5.664H521h2h5.641l-2.793,8.949l4.152,3.515    V588h-1v-6.46l-6.839-5.861l2.227-6.679H523H521.209z"/>
	</g>
	
    </g>
</svg>
