<?xml version="1.0" encoding="iso-8859-1"?>
<!DOCTYPE svg PUBLIC "-//W3C//DTD SVG 1.1//EN" "http://www.w3.org/Graphics/SVG/1.1/DTD/svg11.dtd">
<svg version="1.1" xmlns="http://www.w3.org/2000/svg" xmlns:xlink="http://www.w3.org/1999/xlink" x="0px" y="0px" width="29" height="30" viewBox="0 0 29 30" xml:space="preserve">
    <g transform="translate(-270 -320)">
        <g xmlns="http://www.w3.org/2000/svg" xmlns:xlink="http://www.w3.org/1999/xlink" id="man-tick-7">
		<path d="M291.5,334c-0.514,0-1.016,0.052-1.5,0.15V330c0-1.104-0.896-2-2-2h-1.055c0.649-0.635,1.055-1.52,1.055-2.5    c0-1.934-1.566-3.5-3.5-3.5s-3.5,1.566-3.5,3.5c0,0.98,0.405,1.865,1.055,2.5H281c-1.104,0-2,0.896-2,2v7c0,1.104,0.896,2,2,2v9    c0,0.553,0.447,1,1,1h5c0.51,0,0.914-0.387,0.977-0.88c1.051,0.561,2.249,0.88,3.523,0.88c4.143,0,7.5-3.357,7.5-7.5    C299,337.358,295.643,334,291.5,334z M282,325.5c0-1.379,1.121-2.5,2.5-2.5s2.5,1.121,2.5,2.5s-1.121,2.5-2.5,2.5    S282,326.879,282,325.5z M284,348h-2v-16h-1v6c-0.552,0-1-0.448-1-1v-7c0-0.552,0.448-1,1-1h7c0.552,0,1,0.448,1,1v4.436    c-0.346,0.122-0.68,0.264-1,0.433V332h-1v3.51c-0.881,0.662-1.612,1.509-2.131,2.49H284V348z M287,348h-2v-2.769    c0.508,0.883,1.189,1.649,2,2.259V348z M291.5,348c-3.59,0-6.5-2.91-6.5-6.5s2.91-6.5,6.5-6.5s6.5,2.91,6.5,6.5    S295.09,348,291.5,348z"/>
		<polygon points="290.086,343.268 287.965,341.146 287.258,341.854 290.086,344.682 295.742,339.025 295.035,338.318   "/>
	</g>
	
    </g>
</svg>
