<?xml version="1.0" encoding="iso-8859-1"?>
<!DOCTYPE svg PUBLIC "-//W3C//DTD SVG 1.1//EN" "http://www.w3.org/Graphics/SVG/1.1/DTD/svg11.dtd">
<svg version="1.1" xmlns="http://www.w3.org/2000/svg" xmlns:xlink="http://www.w3.org/1999/xlink" x="0px" y="0px" width="29" height="30" viewBox="0 0 29 30" xml:space="preserve">
    <g transform="translate(-90 -500)">
        <g xmlns="http://www.w3.org/2000/svg" xmlns:xlink="http://www.w3.org/1999/xlink" id="man-man-7">
		<path d="M93,510v7c0,1.104,0.896,2,2,2v9c0,0.553,0.447,1,1,1h5c0.553,0,1-0.447,1-1v-9c1.104,0,2-0.896,2-2v-7    c0-1.104-0.896-2-2-2h-1.055c0.649-0.635,1.055-1.52,1.055-2.5c0-1.934-1.566-3.5-3.5-3.5s-3.5,1.566-3.5,3.5    c0,0.98,0.405,1.865,1.055,2.5H95C93.896,508,93,508.896,93,510z M96,505.5c0-1.379,1.121-2.5,2.5-2.5s2.5,1.121,2.5,2.5    s-1.121,2.5-2.5,2.5S96,506.879,96,505.5z M102,509c0.552,0,1,0.448,1,1v7c0,0.552-0.448,1-1,1v-6h-1v16h-2v-10h-1v10h-2v-16h-1v6    c-0.552,0-1-0.448-1-1v-7c0-0.552,0.448-1,1-1H102z"/>
		<path d="M105,510v7c0,1.104,0.896,2,2,2v9c0,0.553,0.447,1,1,1h5c0.553,0,1-0.447,1-1v-9c1.104,0,2-0.896,2-2v-7    c0-1.104-0.896-2-2-2h-1.055c0.649-0.635,1.055-1.52,1.055-2.5c0-1.934-1.566-3.5-3.5-3.5s-3.5,1.566-3.5,3.5    c0,0.98,0.405,1.865,1.055,2.5H107C105.896,508,105,508.896,105,510z M108,505.5c0-1.379,1.121-2.5,2.5-2.5s2.5,1.121,2.5,2.5    s-1.121,2.5-2.5,2.5S108,506.879,108,505.5z M114,509c0.552,0,1,0.448,1,1v7c0,0.552-0.448,1-1,1v-6h-1v16h-2v-10h-1v10h-2v-16h-1    v6c-0.552,0-1-0.448-1-1v-7c0-0.552,0.448-1,1-1H114z"/>
	</g>
	
    </g>
</svg>
