<?xml version="1.0" encoding="iso-8859-1"?>
<!DOCTYPE svg PUBLIC "-//W3C//DTD SVG 1.1//EN" "http://www.w3.org/Graphics/SVG/1.1/DTD/svg11.dtd">
<svg version="1.1" xmlns="http://www.w3.org/2000/svg" xmlns:xlink="http://www.w3.org/1999/xlink" x="0px" y="0px" width="29" height="30" viewBox="0 0 29 30" xml:space="preserve">
    <g transform="translate(-510 -320)">
        <g xmlns="http://www.w3.org/2000/svg" xmlns:xlink="http://www.w3.org/1999/xlink" id="man-error-7">
		<path d="M530,335.824V330c0-1.104-0.896-2-2-2h-1.055c0.649-0.635,1.055-1.52,1.055-2.5c0-1.934-1.566-3.5-3.5-3.5    s-3.5,1.566-3.5,3.5c0,0.98,0.405,1.865,1.055,2.5H521c-1.104,0-2,0.896-2,2v7c0,1.104,0.896,2,2,2v9c0,0.553,0.447,1,1,1h5h12    l-8.5-14L530,335.824z M522,325.5c0-1.379,1.121-2.5,2.5-2.5s2.5,1.121,2.5,2.5s-1.121,2.5-2.5,2.5S522,326.879,522,325.5z     M522,348v-16h-1v6c-0.552,0-1-0.448-1-1v-7c0-0.552,0.448-1,1-1h7c0.552,0,1,0.448,1,1v7c0,0.552-0.448,1-1,1v-6h-1v8.765    l-2,3.294V338h-1v7.706L522.607,348H522z M528.076,338.992L528,339.118V339C528.026,339,528.051,338.993,528.076,338.992z     M527,348h-2h-1h-0.223l6.723-11.073L537.223,348H527z"/>
		<rect x="530" y="340" width="1" height="5"/>
		<rect x="530" y="346" width="1" height="1"/>
	</g>
	
    </g>
</svg>
