<?xml version="1.0" encoding="iso-8859-1"?>
<!DOCTYPE svg PUBLIC "-//W3C//DTD SVG 1.1//EN" "http://www.w3.org/Graphics/SVG/1.1/DTD/svg11.dtd">
<svg version="1.1" xmlns="http://www.w3.org/2000/svg" xmlns:xlink="http://www.w3.org/1999/xlink" x="0px" y="0px" width="29" height="30" viewBox="0 0 29 30" xml:space="preserve">
    <g transform="translate(-150 -440)">
        <g xmlns="http://www.w3.org/2000/svg" xmlns:xlink="http://www.w3.org/1999/xlink" id="man-woman-hand-7">
		<path d="M176,457v-7c0-1.104-0.896-2-2-2h-0.055c0.649-0.636,1.055-1.52,1.055-2.5c0-1.934-1.566-3.5-3.5-3.5s-3.5,1.566-3.5,3.5    c0,0.98,0.405,1.864,1.055,2.5h-0.722l-4.167,7.217L160,448h-2.056c0.649-0.636,1.056-1.52,1.056-2.5c0-1.933-1.566-3.5-3.5-3.5    s-3.5,1.567-3.5,3.5c0,0.98,0.406,1.864,1.056,2.5H152c-1.104,0-2,0.896-2,2v7c0,1.104,0.896,2,2,2v9c0,0.553,0.447,1,1,1h5    c0.553,0,1-0.447,1-1v-15.732l3.652,6.325c0.316,0.548,0.924,0.817,1.514,0.732c0.59,0.085,1.199-0.185,1.515-0.732l3.319-5.748    v3.03L164.667,464H169v4c0,0.553,0.447,1,1,1h3c0.553,0,1-0.447,1-1v-4h4.333l-2.96-5.552C175.758,458.084,176,457.571,176,457z     M169,445.5c0-1.379,1.121-2.5,2.5-2.5s2.5,1.121,2.5,2.5s-1.121,2.5-2.5,2.5S169,446.879,169,445.5z M153,445.5    c0-1.379,1.121-2.5,2.5-2.5s2.5,1.121,2.5,2.5s-1.121,2.5-2.5,2.5S153,446.879,153,445.5z M159.423,451H158v1v16h-2v-10h-1v1v9h-2    v-16h-1v6c-0.551,0-1-0.448-1-1v-7c0-0.552,0.449-1,1-1h1h1h1h2h1h0.268H159h0.425l4.96,8.593    c0.138,0.239,0.055,0.546-0.183,0.684c-0.239,0.138-0.546,0.056-0.683-0.184L159.423,451z M170,468v-4h1v4H170z M173,468h-1v-4h1    V468z M176.667,463H174h-5h-2.667l3.667-6.875V453v-1h-1h-0.667v-0.001l-3.021,5.231c-0.021-0.046-0.036-0.093-0.062-0.137    l-0.507-0.878l4.165-7.216h0.425h0.732H171h0.333h1H174c0.552,0,1,0.448,1,1v7c0,0.179-0.06,0.338-0.143,0.483L174,455.875V452h-1    v1v3.125L176.667,463z"/>
	</g>
	
    </g>
</svg>
