<?xml version="1.0" encoding="iso-8859-1"?>
<!DOCTYPE svg PUBLIC "-//W3C//DTD SVG 1.1//EN" "http://www.w3.org/Graphics/SVG/1.1/DTD/svg11.dtd">
<svg version="1.1" xmlns="http://www.w3.org/2000/svg" xmlns:xlink="http://www.w3.org/1999/xlink" x="0px" y="0px" width="29" height="30" viewBox="0 0 29 30" xml:space="preserve">
    <g transform="translate(-570 -320)">
        <g xmlns="http://www.w3.org/2000/svg" xmlns:xlink="http://www.w3.org/1999/xlink" id="man-off-7">
		<path d="M587,348h-2v-10h-1v10h-2v-14.086l-1-1V338c-0.552,0-1-0.448-1-1v-5.086l-1-1V337c0,1.104,0.896,2,2,2v9    c0,0.553,0.447,1,1,1h5c0.553,0,1-0.447,1-1v-8.086l-1-1V348z"/>
		<path d="M597.229,347.729l0.707-0.707l-8.568-8.568c0.388-0.365,0.633-0.879,0.633-1.453v-7c0-1.104-0.896-2-2-2h-1.055    c0.649-0.635,1.055-1.52,1.055-2.5c0-1.934-1.566-3.5-3.5-3.5s-3.5,1.566-3.5,3.5c0,0.98,0.405,1.865,1.055,2.5H581    c-0.574,0-1.088,0.245-1.453,0.633l-7.068-7.068l-0.707,0.707L597.229,347.729z M582,325.5c0-1.379,1.121-2.5,2.5-2.5    s2.5,1.121,2.5,2.5s-1.121,2.5-2.5,2.5S582,326.879,582,325.5z M581,329h7c0.552,0,1,0.448,1,1v7c0,0.298-0.137,0.558-0.345,0.742    L588,337.086V332h-1v4.086l-6.741-6.742C580.441,329.137,580.702,329,581,329z"/>
	</g>
	
    </g>
</svg>
