<?xml version="1.0" encoding="iso-8859-1"?>
<!DOCTYPE svg PUBLIC "-//W3C//DTD SVG 1.1//EN" "http://www.w3.org/Graphics/SVG/1.1/DTD/svg11.dtd">
<svg version="1.1" xmlns="http://www.w3.org/2000/svg" xmlns:xlink="http://www.w3.org/1999/xlink" x="0px" y="0px" width="29" height="30" viewBox="0 0 29 30" xml:space="preserve">
    <g transform="translate(-30 -440)">
        <g xmlns="http://www.w3.org/2000/svg" xmlns:xlink="http://www.w3.org/1999/xlink" id="man-check-7">
		<path d="M33.055,450v7c0,1.104,0.896,2,2,2v9c0,0.553,0.447,1,1,1h5c0.553,0,1-0.447,1-1v-5.563c-0.344-0.136-0.678-0.298-1-0.481    V468h-2v-7.66c-0.385-0.427-0.72-0.888-1-1.377V468h-2v-16h-1v6c-0.552,0-1-0.448-1-1v-7c0-0.552,0.448-1,1-1h4.672    c0.432-0.381,0.902-0.719,1.409-1H41c0.649-0.635,1.055-1.52,1.055-2.5c0-1.934-1.566-3.5-3.5-3.5s-3.5,1.566-3.5,3.5    c0,0.98,0.405,1.865,1.055,2.5h-1.055C33.95,448,33.055,448.896,33.055,450z M36.055,445.5c0-1.379,1.121-2.5,2.5-2.5    s2.5,1.121,2.5,2.5s-1.121,2.5-2.5,2.5S36.055,446.879,36.055,445.5z"/>
		<path d="M44.055,457v-6.904c-0.347,0.066-0.683,0.164-1,0.299V457c0,0.552-0.448,1-1,1v-6h-1v6.035    c0.287,0.373,0.621,0.705,1,0.984V459C43.159,459,44.055,458.104,44.055,457z"/>
		<path d="M38,455c-0.001,3.867,3.133,7,7,7c1.754,0,3.352-0.648,4.58-1.713l7.087,7.088l0.707-0.707l-7.087-7.088    C51.352,458.352,52,456.754,52,455c0.001-3.865-3.134-7-7-7S38,451.135,38,455z M51,455c0,1.649-0.666,3.143-1.742,4.227    l-0.031,0.031C48.143,460.334,46.648,461,45,461c-3.314,0-6-2.686-6-6c0.001-3.313,2.686-6,6-6C48.313,449,51,451.686,51,455z"/>
	</g>
	
    </g>
</svg>
