<?xml version="1.0" encoding="iso-8859-1"?>
<!DOCTYPE svg PUBLIC "-//W3C//DTD SVG 1.1//EN" "http://www.w3.org/Graphics/SVG/1.1/DTD/svg11.dtd">
<svg version="1.1" xmlns="http://www.w3.org/2000/svg" xmlns:xlink="http://www.w3.org/1999/xlink" x="0px" y="0px" width="29" height="30" viewBox="0 0 29 30" xml:space="preserve">
    <g transform="translate(-570 -560)">
        <g xmlns="http://www.w3.org/2000/svg" xmlns:xlink="http://www.w3.org/1999/xlink" id="man-running-7_1_">
		<path d="M580,581h-4c-0.553,0-1,0.447-1,1v1c0,0.553,0.447,1,1,1h6c1.104,0,2-0.896,2-2v-3.408l6.839,8.358    c0.297,0.362,0.728,0.55,1.162,0.55c0.334,0,0.67-0.111,0.949-0.339c0.641-0.524,0.735-1.47,0.211-2.111l-7.231-8.839l1.195-3.586    L589.15,576H594c0.55,0,1-0.45,1-1v-1c0-0.55-0.45-1-1-1h-3.15l-2.576-4.293c1.018-0.48,1.727-1.508,1.727-2.707    c0-1.656-1.344-3-3-3s-3,1.344-3,3c0,0.771,0.3,1.469,0.779,2H579l-2.599,5.846c-0.224,0.503,0.004,1.098,0.507,1.321l0.912,0.406    c0.503,0.224,1.098-0.004,1.321-0.507l1.808-4.066h0.926L580,576V581z M587,564c1.103,0,2,0.897,2,2s-0.897,2-2,2s-2-0.897-2-2    S585.897,564,587,564z M581,576.182l2.318-6.182H580.3l-2.072,4.66l-0.912-0.406l2.334-5.254h7.634l3,5H594v1h-4.283l-2.853-4.754    l-2.058,6.172l7.58,9.265c0.175,0.214,0.144,0.53-0.07,0.705c-0.113,0.093-0.234,0.112-0.315,0.112    c-0.151,0-0.293-0.067-0.389-0.184L583,575.79V582c0,0.552-0.448,1-1,1h-6v-1h5V576.182z"/>
	</g>
	
    </g>
</svg>
