<?xml version="1.0" encoding="iso-8859-1"?>
<!DOCTYPE svg PUBLIC "-//W3C//DTD SVG 1.1//EN" "http://www.w3.org/Graphics/SVG/1.1/DTD/svg11.dtd">
<svg version="1.1" xmlns="http://www.w3.org/2000/svg" xmlns:xlink="http://www.w3.org/1999/xlink" x="0px" y="0px" width="29" height="30" viewBox="0 0 29 30" xml:space="preserve">
    <g transform="translate(-450 -320)">
        <g xmlns="http://www.w3.org/2000/svg" xmlns:xlink="http://www.w3.org/1999/xlink" id="man-lock-7">
		<path d="M479,338h-2v-1c0-2.485-2.015-4.5-4.5-4.5c-0.926,0-1.785,0.281-2.5,0.76V330c0-1.104-0.896-2-2-2h-1.055    c0.649-0.635,1.055-1.52,1.055-2.5c0-1.934-1.566-3.5-3.5-3.5s-3.5,1.566-3.5,3.5c0,0.98,0.405,1.865,1.055,2.5H461    c-1.104,0-2,0.896-2,2v7c0,1.104,0.896,2,2,2v9c0,0.553,0.447,1,1,1h4h1h12V338z M472.5,333.5c1.93,0,3.5,1.57,3.5,3.5v1h-7v-1    C469,335.07,470.57,333.5,472.5,333.5z M462,325.5c0-1.379,1.121-2.5,2.5-2.5s2.5,1.121,2.5,2.5s-1.121,2.5-2.5,2.5    S462,326.879,462,325.5z M465,348v-10h-1v10h-2v-16h-1v6c-0.552,0-1-0.448-1-1v-7c0-0.552,0.448-1,1-1h7c0.552,0,1,0.448,1,1    v4.203c-0.616,0.77-1,1.734-1,2.797v-5h-1v6h-1v10H465z M478,348h-11v-9h11V348z"/>
		<path d="M471,342.5c0,0.652,0.419,1.201,1,1.408V346h1v-2.092c0.581-0.207,1-0.756,1-1.408c0-0.828-0.672-1.5-1.5-1.5    S471,341.672,471,342.5z"/>
	</g>
	
    </g>
</svg>
