<?xml version="1.0" encoding="iso-8859-1"?>
<!DOCTYPE svg PUBLIC "-//W3C//DTD SVG 1.1//EN" "http://www.w3.org/Graphics/SVG/1.1/DTD/svg11.dtd">
<svg version="1.1" xmlns="http://www.w3.org/2000/svg" xmlns:xlink="http://www.w3.org/1999/xlink" x="0px" y="0px" width="35" height="30" viewBox="0 0 35 30" xml:space="preserve">
    <g transform="translate(-331 -500)">
        <g xmlns="http://www.w3.org/2000/svg" xmlns:xlink="http://www.w3.org/1999/xlink" id="man-four-7">
		<path d="M339,519.22V528h-2v-9v-1h-1v1v9h-2v-16h-1v6c-0.551,0-1-0.448-1-1v-7c0-0.552,0.449-1,1-1h1h1h3h0.185    c0.077-0.218,0.173-0.426,0.297-0.617c0.353-0.243,0.658-0.549,0.9-0.901c0.389-0.563,0.618-1.245,0.618-1.981    c0-1.933-1.566-3.5-3.5-3.5s-3.5,1.567-3.5,3.5c0,0.98,0.405,1.864,1.056,2.5H334h-1c-1.104,0-2,0.896-2,2v7c0,1.104,0.896,2,2,2    v9c0,0.553,0.447,1,1,1h5c0.553,0,1-0.447,1-1v-8.185C339.626,519.683,339.289,519.48,339,519.22z M334,505.5    c0-1.379,1.121-2.5,2.5-2.5s2.5,1.121,2.5,2.5s-1.121,2.5-2.5,2.5S334,506.879,334,505.5z"/>
		<path d="M364,508h-1h-0.056c0.65-0.636,1.056-1.52,1.056-2.5c0-1.933-1.566-3.5-3.5-3.5s-3.5,1.567-3.5,3.5    c0,0.736,0.229,1.418,0.618,1.981c0.242,0.353,0.548,0.658,0.9,0.901c0.124,0.191,0.22,0.399,0.297,0.617H359h3h1h1    c0.551,0,1,0.448,1,1v7c0,0.552-0.449,1-1,1v-6h-1v16h-2v-9v-1h-1v1v9h-2v-8.78c-0.289,0.261-0.626,0.463-1,0.596V528    c0,0.553,0.447,1,1,1h5c0.553,0,1-0.447,1-1v-9c1.104,0,2-0.896,2-2v-7C366,508.896,365.104,508,364,508z M360.5,503    c1.379,0,2.5,1.121,2.5,2.5s-1.121,2.5-2.5,2.5s-2.5-1.121-2.5-2.5S359.121,503,360.5,503z"/>
		<path d="M347,519.22V528h-2v-8v-1v-1h-1v1v9h-2v-11v-5h-1v5v1c-0.551,0-1-0.448-1-1v-5v-1v-1c0-0.552,0.449-1,1-1h1h1h3h0.185    c0.077-0.218,0.173-0.426,0.297-0.617c0.916-0.632,1.519-1.687,1.519-2.883c0-1.933-1.566-3.5-3.5-3.5s-3.5,1.567-3.5,3.5    c0,0.98,0.405,1.864,1.056,2.5H342h-1c-1.104,0-2,0.896-2,2v7c0,1.104,0.896,2,2,2v9c0,0.553,0.447,1,1,1h5c0.553,0,1-0.447,1-1    v-8.185C347.626,519.683,347.289,519.48,347,519.22z M342,505.5c0-1.379,1.121-2.5,2.5-2.5s2.5,1.121,2.5,2.5s-1.121,2.5-2.5,2.5    S342,506.879,342,505.5z"/>
		<path d="M358,517v-7c0-1.104-0.896-2-2-2h-1h-0.056c0.65-0.636,1.056-1.52,1.056-2.5c0-1.933-1.566-3.5-3.5-3.5    s-3.5,1.567-3.5,3.5c0,0.98,0.405,1.864,1.056,2.5H350h-1c-1.104,0-2,0.896-2,2v7c0,1.104,0.896,2,2,2v9c0,0.553,0.447,1,1,1h5    c0.553,0,1-0.447,1-1v-9C357.104,519,358,518.104,358,517z M350,505.5c0-1.379,1.121-2.5,2.5-2.5s2.5,1.121,2.5,2.5    s-1.121,2.5-2.5,2.5S350,506.879,350,505.5z M355,528h-2v-8v-1v-1h-1v1v1v8h-2v-11v-5h-1v5v1c-0.551,0-1-0.448-1-1v-5v-1v-1    c0-0.552,0.449-1,1-1h1h1h3h1h1c0.551,0,1,0.448,1,1v1v1v5c0,0.552-0.449,1-1,1v-1v-5h-1v5V528z"/>
	</g>
	
    </g>
</svg>
