<?xml version="1.0" encoding="iso-8859-1"?>
<!DOCTYPE svg PUBLIC "-//W3C//DTD SVG 1.1//EN" "http://www.w3.org/Graphics/SVG/1.1/DTD/svg11.dtd">
<svg version="1.1" xmlns="http://www.w3.org/2000/svg" xmlns:xlink="http://www.w3.org/1999/xlink" x="0px" y="0px" width="30" height="30" viewBox="0 0 30 30" xml:space="preserve">
    <g transform="translate(-390 -440)">
        <g xmlns="http://www.w3.org/2000/svg" xmlns:xlink="http://www.w3.org/1999/xlink" id="man-child-hand-7">
		<path d="M409,469h3c0.553,0,1-0.447,1-1v-5.277c0.596-0.347,1-0.984,1-1.723v-3c0-0.951-0.666-1.744-1.556-1.946    c0.343-0.428,0.556-0.963,0.556-1.554c0-1.381-1.119-2.5-2.5-2.5c-0.69,0-1.315,0.28-1.768,0.732L406,448h-2.056    c0.65-0.636,1.056-1.52,1.056-2.5c0-1.933-1.566-3.5-3.5-3.5s-3.5,1.567-3.5,3.5c0,0.98,0.405,1.864,1.056,2.5H398    c-1.104,0-2,0.896-2,2v7c0,1.104,0.896,2,2,2v9c0,0.553,0.447,1,1,1h5c0.553,0,1-0.447,1-1v-15.732l2.531,4.384    C407.204,457.008,407,457.479,407,458v3c0,0.738,0.404,1.376,1,1.723V468C408,468.553,408.447,469,409,469z M410.5,453    c0.827,0,1.5,0.673,1.5,1.5s-0.673,1.5-1.5,1.5s-1.5-0.673-1.5-1.5S409.673,453,410.5,453z M399,445.5c0-1.379,1.121-2.5,2.5-2.5    s2.5,1.121,2.5,2.5s-1.121,2.5-2.5,2.5S399,446.879,399,445.5z M404,468h-2v-10h-1v1v9h-2v-16h-1v6c-0.551,0-1-0.448-1-1v-7    c0-0.552,0.449-1,1-1h1h1h1h2h1h0.268H405h0.425l2.716,4.705c-0.084,0.251-0.141,0.516-0.141,0.795    c0,0.591,0.213,1.126,0.556,1.554c-0.063,0.014-0.121,0.036-0.182,0.056L405.423,451H404v1V468z M408,458c0-0.552,0.448-1,1-1h1h1    h1c0.552,0,1,0.448,1,1v3h-1v7h-1v-5c-0.596,0-1,0-1,0v5h-1v-7h-1V458z"/>
	</g>
	
    </g>
</svg>
