<?xml version="1.0" encoding="iso-8859-1"?>
<!DOCTYPE svg PUBLIC "-//W3C//DTD SVG 1.1//EN" "http://www.w3.org/Graphics/SVG/1.1/DTD/svg11.dtd">
<svg version="1.1" xmlns="http://www.w3.org/2000/svg" xmlns:xlink="http://www.w3.org/1999/xlink" x="0px" y="0px" width="29" height="30" viewBox="0 0 29 30" xml:space="preserve">
    <g transform="translate(-30 -560)">
        <g xmlns="http://www.w3.org/2000/svg" xmlns:xlink="http://www.w3.org/1999/xlink" id="man-win-7">
		<path d="M42,589h5c0.553,0,1-0.447,1-1v-17.547l8.41-7.359c0.414-0.361,0.457-0.997,0.094-1.41l-0.658-0.752    c-0.361-0.414-0.997-0.457-1.41-0.094l-6.645,5.813C47.918,566.289,48,565.906,48,565.5c0-1.934-1.566-3.5-3.5-3.5    s-3.5,1.566-3.5,3.5c0,0.406,0.082,0.789,0.209,1.151l-6.645-5.813c-0.413-0.363-1.049-0.32-1.41,0.094l-0.658,0.752    c-0.363,0.413-0.32,1.049,0.094,1.41l8.41,7.359V588C41,588.553,41.447,589,42,589z M44.5,563c1.379,0,2.5,1.121,2.5,2.5    s-1.121,2.5-2.5,2.5s-2.5-1.121-2.5-2.5S43.121,563,44.5,563z M33.248,562.341l0.659-0.751l8.468,7.41h4.25l8.468-7.41    l0.659,0.751L47,570v18h-2v-10h-1v10h-2v-18L33.248,562.341z"/>
	</g>
	
    </g>
</svg>
