<?xml version="1.0" encoding="iso-8859-1"?>
<!DOCTYPE svg PUBLIC "-//W3C//DTD SVG 1.1//EN" "http://www.w3.org/Graphics/SVG/1.1/DTD/svg11.dtd">
<svg version="1.1" xmlns="http://www.w3.org/2000/svg" xmlns:xlink="http://www.w3.org/1999/xlink" x="0px" y="0px" width="29" height="30" viewBox="0 0 29 30" xml:space="preserve">
    <g transform="translate(-330 -320)">
        <g xmlns="http://www.w3.org/2000/svg" xmlns:xlink="http://www.w3.org/1999/xlink" id="man-download-7">
		<path d="M339,330v7c0,1.104,0.896,2,2,2v9c0,0.553,0.447,1,1,1h5c0.511,0,0.914-0.387,0.976-0.88    c1.051,0.561,2.25,0.88,3.524,0.88c4.143,0,7.5-3.357,7.5-7.5s-3.357-7.5-7.5-7.5c-0.514,0-1.016,0.052-1.5,0.15V330    c0-1.104-0.896-2-2-2h-1.055c0.649-0.635,1.055-1.52,1.055-2.5c0-1.934-1.566-3.5-3.5-3.5s-3.5,1.566-3.5,3.5    c0,0.98,0.405,1.865,1.055,2.5H341C339.896,328,339,328.896,339,330z M347,348h-2v-2.769c0.508,0.883,1.19,1.649,2,2.259V348z     M351.5,335c3.59,0,6.5,2.91,6.5,6.5s-2.91,6.5-6.5,6.5s-6.5-2.91-6.5-6.5S347.91,335,351.5,335z M342,325.5    c0-1.379,1.121-2.5,2.5-2.5s2.5,1.121,2.5,2.5s-1.121,2.5-2.5,2.5S342,326.879,342,325.5z M348,329c0.552,0,1,0.448,1,1v4.436    c-0.345,0.123-0.681,0.264-1,0.434V332h-1v3.51c-0.881,0.663-1.612,1.51-2.131,2.49H344v10h-2v-16h-1v6c-0.552,0-1-0.448-1-1v-7    c0-0.552,0.448-1,1-1H348z"/>
		<polygon points="348.143,340.42 347.41,341.102 351.499,345.5 355.589,341.102 354.856,340.42 352,343.493 352,338 351,338     351,343.495   "/>
	</g>
	
    </g>
</svg>
