<?xml version="1.0" encoding="iso-8859-1"?>
<!DOCTYPE svg PUBLIC "-//W3C//DTD SVG 1.1//EN" "http://www.w3.org/Graphics/SVG/1.1/DTD/svg11.dtd">
<svg version="1.1" xmlns="http://www.w3.org/2000/svg" xmlns:xlink="http://www.w3.org/1999/xlink" x="0px" y="0px" width="29" height="30" viewBox="0 0 29 30" xml:space="preserve">
    <g transform="translate(-210 -500)">
        <g xmlns="http://www.w3.org/2000/svg" xmlns:xlink="http://www.w3.org/1999/xlink" id="man-three-7">
		<path d="M236,508h-1h-0.056c0.649-0.636,1.056-1.52,1.056-2.5c0-1.933-1.566-3.5-3.5-3.5s-3.5,1.567-3.5,3.5    c0,0.736,0.229,1.418,0.617,1.981c0.244,0.353,0.549,0.658,0.901,0.901c0.124,0.191,0.22,0.399,0.298,0.617H231h3h1h1    c0.551,0,1,0.448,1,1v7c0,0.552-0.449,1-1,1v-6h-1v16h-2v-9v-1h-1v1v9h-2v-8.78c-0.289,0.261-0.627,0.463-1,0.596V528    c0,0.553,0.447,1,1,1h5c0.553,0,1-0.447,1-1v-9c1.104,0,2-0.896,2-2v-7C238,508.896,237.104,508,236,508z M232.5,503    c1.379,0,2.5,1.121,2.5,2.5s-1.121,2.5-2.5,2.5s-2.5-1.121-2.5-2.5S231.121,503,232.5,503z"/>
		<path d="M219,519.22V528h-2v-8v-1v-1h-1v1v9h-2v-16h-1v6c-0.551,0-1-0.448-1-1v-6v-1c0-0.552,0.449-1,1-1h1h1h3h0.184    c0.078-0.218,0.174-0.426,0.298-0.617c0.916-0.632,1.519-1.687,1.519-2.883c0-1.933-1.566-3.5-3.5-3.5s-3.5,1.567-3.5,3.5    c0,0.98,0.406,1.864,1.056,2.5H214h-1c-1.104,0-2,0.896-2,2v7c0,1.104,0.896,2,2,2v9c0,0.553,0.447,1,1,1h5c0.553,0,1-0.447,1-1    v-8.185C219.627,519.683,219.289,519.48,219,519.22z M214,505.5c0-1.379,1.121-2.5,2.5-2.5s2.5,1.121,2.5,2.5s-1.121,2.5-2.5,2.5    S214,506.879,214,505.5z"/>
		<path d="M230,517v-7c0-1.104-0.896-2-2-2h-1h-0.056c0.649-0.636,1.056-1.52,1.056-2.5c0-1.933-1.566-3.5-3.5-3.5    s-3.5,1.567-3.5,3.5c0,0.98,0.406,1.864,1.056,2.5H222h-1c-1.104,0-2,0.896-2,2v7c0,1.104,0.896,2,2,2v9c0,0.553,0.447,1,1,1h5    c0.553,0,1-0.447,1-1v-9C229.104,519,230,518.104,230,517z M222,505.5c0-1.379,1.121-2.5,2.5-2.5s2.5,1.121,2.5,2.5    s-1.121,2.5-2.5,2.5S222,506.879,222,505.5z M227,528h-2v-8v-1v-1h-1v1v1v8h-2v-11v-5h-1v5v1c-0.551,0-1-0.448-1-1v-5v-1v-1    c0-0.552,0.449-1,1-1h1h1h3h1h1c0.551,0,1,0.448,1,1v1v1v5c0,0.552-0.449,1-1,1v-1v-5h-1v5V528z"/>
	</g>
	
    </g>
</svg>
