<?xml version="1.0" encoding="iso-8859-1"?>
<!DOCTYPE svg PUBLIC "-//W3C//DTD SVG 1.1//EN" "http://www.w3.org/Graphics/SVG/1.1/DTD/svg11.dtd">
<svg version="1.1" xmlns="http://www.w3.org/2000/svg" xmlns:xlink="http://www.w3.org/1999/xlink" x="0px" y="0px" width="30" height="30" viewBox="0 0 30 30" xml:space="preserve">
    <g transform="translate(-510 -440)">
        <g xmlns="http://www.w3.org/2000/svg" xmlns:xlink="http://www.w3.org/1999/xlink" id="man-man-hand-7">
		<path d="M537,448h-1.056c0.65-0.636,1.056-1.52,1.056-2.5c0-1.933-1.566-3.5-3.5-3.5s-3.5,1.567-3.5,3.5    c0,0.98,0.405,1.864,1.056,2.5H529l-4,6.929L521,448h-2.056c0.65-0.636,1.056-1.52,1.056-2.5c0-1.933-1.566-3.5-3.5-3.5    s-3.5,1.567-3.5,3.5c0,0.98,0.405,1.864,1.056,2.5H513c-1.104,0-2,0.896-2,2v7c0,1.104,0.896,2,2,2v9c0,0.553,0.447,1,1,1h5    c0.553,0,1-0.447,1-1v-15.732l3.652,6.325c0.286,0.496,0.813,0.76,1.348,0.743c0.535,0.017,1.062-0.247,1.348-0.743l3.652-6.325    V468c0,0.553,0.447,1,1,1h5c0.553,0,1-0.447,1-1v-9c1.104,0,2-0.896,2-2v-7C539,448.896,538.104,448,537,448z M531,445.5    c0-1.379,1.121-2.5,2.5-2.5s2.5,1.121,2.5,2.5s-1.121,2.5-2.5,2.5S531,446.879,531,445.5z M514,445.5c0-1.379,1.121-2.5,2.5-2.5    s2.5,1.121,2.5,2.5s-1.121,2.5-2.5,2.5S514,446.879,514,445.5z M519,468h-2v-10h-1v1v9h-2v-16h-1v6c-0.551,0-1-0.448-1-1v-7    c0-0.552,0.449-1,1-1h1h1h1h2h1h0.268H520h0.425l4.96,8.593c0.138,0.239,0.055,0.546-0.183,0.684    c-0.239,0.138-0.546,0.056-0.683-0.184L520.423,451H519v1V468z M538,457c0,0.552-0.449,1-1,1v-6h-1v16h-2v-9v-1h-1v10h-2v-16v-1    h-1.423l-3.424,5.927l-0.577-0.999l3.999-6.928H530h0.732H531h1h2h1h1h1c0.551,0,1,0.448,1,1V457z"/>
	</g>
	
    </g>
</svg>
