<?xml version="1.0" encoding="iso-8859-1"?>
<!DOCTYPE svg PUBLIC "-//W3C//DTD SVG 1.1//EN" "http://www.w3.org/Graphics/SVG/1.1/DTD/svg11.dtd">
<svg version="1.1" xmlns="http://www.w3.org/2000/svg" xmlns:xlink="http://www.w3.org/1999/xlink" x="0px" y="0px" width="29" height="30" viewBox="0 0 29 30" xml:space="preserve">
    <g transform="translate(-450 -560)">
        <g xmlns="http://www.w3.org/2000/svg" xmlns:xlink="http://www.w3.org/1999/xlink" id="man-walk-7">
		<path d="M469,565c0-1.657-1.343-3-3-3s-3,1.343-3,3c0,0.771,0.3,1.469,0.778,2h-1.211L459,569v2v1v3v2c0,0.553,0.447,1,1,1h1    v3.627l-2.175,5.654c-0.199,0.517,0.059,1.095,0.574,1.293l0.933,0.359c0.516,0.197,1.094-0.059,1.293-0.574l2.872-7.467    l0.057-0.669L466,582v6c0,0.553,0.447,1,1,1h1c0.553,0,1-0.447,1-1v-8l-2-3.386l0.266-2.557l4.076,1.42    c0.521,0.182,1.091-0.094,1.272-0.615l0.33-0.944c0.181-0.522-0.095-1.091-0.617-1.273L467.606,571l-0.032,0.092l0.4-3.85    C468.599,566.692,469,565.897,469,565z M464,565c0-1.104,0.896-2,2-2s2,0.896,2,2s-0.896,2-2,2S464,566.104,464,565z     M463.513,580.666L460.691,588l-0.933-0.359l2.241-5.828v-4.726l1.646,2.021L463.513,580.666z M471.999,573.589l-0.329,0.944    l-4.298-1.497l0.106-1.021L471.999,573.589z M466.891,568l-0.919,8.839l2.028,3.435V588h-1v-6.355l-4.996-6.138L462.003,575H462    v-3l0,0v-0.099V571h-0.001H461v4v2h-1v-6v-1v-0.414l2.828-1.586H466.891z"/>
		<rect x="462.004" y="571" width="1" height="1"/>
	</g>
	
    </g>
</svg>
