<?xml version="1.0" encoding="iso-8859-1"?>
<!DOCTYPE svg PUBLIC "-//W3C//DTD SVG 1.1//EN" "http://www.w3.org/Graphics/SVG/1.1/DTD/svg11.dtd">
<svg version="1.1" xmlns="http://www.w3.org/2000/svg" xmlns:xlink="http://www.w3.org/1999/xlink" x="0px" y="0px" width="30" height="30" viewBox="0 0 30 30" xml:space="preserve">
    <g transform="translate(-210 -440)">
        <g xmlns="http://www.w3.org/2000/svg" xmlns:xlink="http://www.w3.org/1999/xlink" id="man-woman-child-7">
		<path d="M237,457v-7c0-1.104-0.896-2-2-2h-0.055c0.649-0.636,1.055-1.52,1.055-2.5c0-1.934-1.566-3.5-3.5-3.5s-3.5,1.566-3.5,3.5    c0,0.98,0.405,1.864,1.055,2.5h-0.722l-2.339,4.051c0.258,0.264,0.465,0.572,0.631,0.905l2.283-3.956h0.425h0.732H232h0.333h1H235    c0.552,0,1,0.448,1,1v7c0,0.179-0.06,0.338-0.143,0.483L235,455.875V452h-1v1v3.125l3.667,6.875H235h-5h-1.78    c-0.069,0.077-0.143,0.15-0.22,0.22V464h2v4c0,0.553,0.447,1,1,1h3c0.553,0,1-0.447,1-1v-4h4.333l-2.96-5.552    C236.758,458.084,237,457.571,237,457z M230,445.5c0-1.379,1.121-2.5,2.5-2.5s2.5,1.121,2.5,2.5s-1.121,2.5-2.5,2.5    S230,446.879,230,445.5z M231,468v-4h1v4H231z M234,468h-1v-4h1V468z"/>
		<path d="M227.801,455.616c0.142,0.106,0.273,0.224,0.395,0.354l1.805-3.125v3.03l-1.021,1.915c0.006,0.07,0.021,0.138,0.021,0.21    v1.875l2-3.75V453v-1h-1h-0.667v-0.001l-1.35,2.337c0.003,0.056,0.017,0.107,0.017,0.164    C228,454.893,227.92,455.264,227.801,455.616z"/>
		<path d="M221,454.5c0-0.225,0.025-0.442,0.066-0.654L219.423,451H218v1v16h-2v-10h-1v1v9h-2v-16h-1v6c-0.551,0-1-0.448-1-1v-7    c0-0.552,0.449-1,1-1h1h1h1h2h1h0.268H219h0.425l2.112,3.658c0.188-0.302,0.422-0.567,0.691-0.799L220,448h-2.056    c0.649-0.636,1.056-1.52,1.056-2.5c0-1.933-1.566-3.5-3.5-3.5s-3.5,1.567-3.5,3.5c0,0.98,0.406,1.864,1.056,2.5H212    c-1.104,0-2,0.896-2,2v7c0,1.104,0.896,2,2,2v9c0,0.553,0.447,1,1,1h5c0.553,0,1-0.447,1-1v-15.732l2.02,3.497    c0.058-0.052,0.117-0.102,0.18-0.148C221.08,455.264,221,454.893,221,454.5z M213,445.5c0-1.379,1.121-2.5,2.5-2.5    s2.5,1.121,2.5,2.5s-1.121,2.5-2.5,2.5S213,446.879,213,445.5z"/>
		<path d="M228,461v-1v-2c0-0.951-0.666-1.744-1.556-1.946c0.343-0.428,0.556-0.963,0.556-1.554c0-1.381-1.119-2.5-2.5-2.5    s-2.5,1.119-2.5,2.5c0,0.591,0.213,1.126,0.556,1.554c-0.89,0.202-1.556,0.995-1.556,1.946v2v1c0,0.738,0.404,1.376,1,1.723V468    c0,0.553,0.447,1,1,1h3c0.553,0,1-0.447,1-1v-5.277C227.596,462.376,228,461.738,228,461z M224.5,453c0.827,0,1.5,0.673,1.5,1.5    s-0.673,1.5-1.5,1.5s-1.5-0.673-1.5-1.5S223.673,453,224.5,453z M226,468h-1v-5c-0.596,0-1,0-1,0v5h-1v-4v-3h-1v-3    c0-0.552,0.448-1,1-1h1h1h1c0.552,0,1,0.448,1,1v3h-1v3V468z"/>
	</g>
	
    </g>
</svg>
