<?xml version="1.0" encoding="iso-8859-1"?>
<!DOCTYPE svg PUBLIC "-//W3C//DTD SVG 1.1//EN" "http://www.w3.org/Graphics/SVG/1.1/DTD/svg11.dtd">
<svg version="1.1" xmlns="http://www.w3.org/2000/svg" xmlns:xlink="http://www.w3.org/1999/xlink" x="0px" y="0px" width="30" height="30" viewBox="0 0 30 30" xml:space="preserve">
    <g transform="translate(-330 -560)">
        <g xmlns="http://www.w3.org/2000/svg" xmlns:xlink="http://www.w3.org/1999/xlink" id="man-point-right-7">
		<path d="M336,570v7c0,1.104,0.896,2,2,2v9c0,0.553,0.447,1,1,1h5c0.553,0,1-0.447,1-1v-15v-1v-1h1h7c0.553,0,1-0.447,1-1v-1    c0-0.553-0.447-1-1-1h-7h-2.056c0.65-0.636,1.056-1.52,1.056-2.5c0-1.933-1.566-3.5-3.5-3.5s-3.5,1.567-3.5,3.5    c0,0.98,0.405,1.864,1.056,2.5H338C336.896,568,336,568.896,336,570z M339,565.5c0-1.379,1.121-2.5,2.5-2.5s2.5,1.121,2.5,2.5    s-1.121,2.5-2.5,2.5S339,566.879,339,565.5z M340,569h1h2h1h1h1h7v1h-7h-1h-1v1v1v1v15h-2v-10h-1v1v9h-2v-16h-1v6    c-0.551,0-1-0.448-1-1v-7c0-0.552,0.449-1,1-1h1H340z"/>
	</g>
	
    </g>
</svg>
