<?xml version="1.0" encoding="iso-8859-1"?>
<!DOCTYPE svg PUBLIC "-//W3C//DTD SVG 1.1//EN" "http://www.w3.org/Graphics/SVG/1.1/DTD/svg11.dtd">
<svg version="1.1" xmlns="http://www.w3.org/2000/svg" xmlns:xlink="http://www.w3.org/1999/xlink" x="0px" y="0px" width="29" height="30" viewBox="0 0 29 30" xml:space="preserve">
    <g transform="translate(-390 -320)">
        <g xmlns="http://www.w3.org/2000/svg" xmlns:xlink="http://www.w3.org/1999/xlink" id="man-upload-7">
		<path d="M408,328h-1.055c0.649-0.635,1.055-1.52,1.055-2.5c0-1.934-1.566-3.5-3.5-3.5s-3.5,1.566-3.5,3.5    c0,0.98,0.405,1.865,1.055,2.5H401c-1.104,0-2,0.896-2,2v7c0,1.104,0.896,2,2,2v9c0,0.553,0.447,1,1,1h5    c0.511,0,0.914-0.387,0.976-0.88c1.051,0.561,2.25,0.88,3.524,0.88c4.143,0,7.5-3.357,7.5-7.5s-3.357-7.5-7.5-7.5    c-0.514,0-1.016,0.052-1.5,0.15V330C410,328.896,409.104,328,408,328z M402,325.5c0-1.379,1.121-2.5,2.5-2.5s2.5,1.121,2.5,2.5    s-1.121,2.5-2.5,2.5S402,326.879,402,325.5z M404,348h-2v-16h-1v6c-0.552,0-1-0.448-1-1v-7c0-0.552,0.448-1,1-1h7    c0.552,0,1,0.448,1,1v4.436c-0.345,0.123-0.681,0.264-1,0.434V332h-1v3.51c-0.881,0.663-1.612,1.51-2.131,2.49H404V348z M407,348    h-2v-2.769c0.508,0.883,1.19,1.649,2,2.259V348z M411.5,335c3.59,0,6.5,2.91,6.5,6.5s-2.91,6.5-6.5,6.5s-6.5-2.91-6.5-6.5    S407.91,335,411.5,335z"/>
		<polygon points="407.411,341.898 408.144,342.58 411,339.507 411,345 412,345 412,339.505 414.857,342.58 415.59,341.898     411.501,337.5   "/>
	</g>
	
    </g>
</svg>
