<?xml version="1.0" encoding="iso-8859-1"?>
<!DOCTYPE svg PUBLIC "-//W3C//DTD SVG 1.1//EN" "http://www.w3.org/Graphics/SVG/1.1/DTD/svg11.dtd">
<svg version="1.1" xmlns="http://www.w3.org/2000/svg" xmlns:xlink="http://www.w3.org/1999/xlink" x="0px" y="0px" width="30" height="30" viewBox="0 0 30 30" xml:space="preserve">
    <g transform="translate(-270 -740)">
        <g xmlns="http://www.w3.org/2000/svg" xmlns:xlink="http://www.w3.org/1999/xlink" id="sex-male-7">
		<path d="M287,745h7.292l-7.152,7.152c-1.501-1.335-3.473-2.152-5.64-2.152c-4.695,0-8.5,3.805-8.5,8.5s3.805,8.5,8.5,8.5    s8.5-3.805,8.5-8.5c0-2.168-0.818-4.14-2.153-5.641l7.153-7.153V753h1v-9h-9V745z M289,758.5c0,4.135-3.365,7.5-7.5,7.5    c-4.136,0-7.5-3.365-7.5-7.5s3.364-7.5,7.5-7.5C285.635,751,289,754.365,289,758.5z"/>
	</g>
	
    </g>
</svg>
