<?xml version="1.0" encoding="iso-8859-1"?>
<!DOCTYPE svg PUBLIC "-//W3C//DTD SVG 1.1//EN" "http://www.w3.org/Graphics/SVG/1.1/DTD/svg11.dtd">
<svg version="1.1" xmlns="http://www.w3.org/2000/svg" xmlns:xlink="http://www.w3.org/1999/xlink" x="0px" y="0px" width="30" height="30" viewBox="0 0 30 30" xml:space="preserve">
    <g transform="translate(-210 -740)">
        <g xmlns="http://www.w3.org/2000/svg" xmlns:xlink="http://www.w3.org/1999/xlink" id="sex-female-7">
		<path d="M225.5,742c-4.695,0-8.5,3.805-8.5,8.5c0,4.526,3.539,8.215,8,8.475V763h-5v1h5v4h1v-4h5v-1h-5v-4.025    c4.461-0.26,8-3.948,8-8.475C234,745.805,230.195,742,225.5,742z M225.5,758c-4.136,0-7.5-3.365-7.5-7.5s3.364-7.5,7.5-7.5    c4.135,0,7.5,3.365,7.5,7.5S229.635,758,225.5,758z"/>
	</g>
	
    </g>
</svg>
