<?xml version="1.0" encoding="iso-8859-1"?>
<!DOCTYPE svg PUBLIC "-//W3C//DTD SVG 1.1//EN" "http://www.w3.org/Graphics/SVG/1.1/DTD/svg11.dtd">
<svg version="1.1" xmlns="http://www.w3.org/2000/svg" xmlns:xlink="http://www.w3.org/1999/xlink" x="0px" y="0px" width="30" height="30" viewBox="0 0 30 30" xml:space="preserve">
    <g transform="translate(-330 -740)">
        <g xmlns="http://www.w3.org/2000/svg" xmlns:xlink="http://www.w3.org/1999/xlink" id="sex-female-male-7">
		<path d="M349,742h6.292l-6.057,6.057c-1.187-1.264-2.866-2.057-4.735-2.057c-3.589,0-6.5,2.91-6.5,6.5    c0,3.421,2.646,6.219,6,6.475V763h-4v1h4v4h1v-4h4v-1h-4v-4.025c3.355-0.256,6-3.054,6-6.475c0-1.359-0.418-2.619-1.131-3.662    l6.131-6.132V749h1v-8h-8V742z M350,752.5c0,3.031-2.469,5.5-5.5,5.5s-5.5-2.469-5.5-5.5c0-3.033,2.469-5.5,5.5-5.5    S350,749.467,350,752.5z"/>
	</g>
	
    </g>
</svg>
