<?xml version="1.0" encoding="iso-8859-1"?>
<!DOCTYPE svg PUBLIC "-//W3C//DTD SVG 1.1//EN" "http://www.w3.org/Graphics/SVG/1.1/DTD/svg11.dtd">
<svg version="1.1" xmlns="http://www.w3.org/2000/svg" xmlns:xlink="http://www.w3.org/1999/xlink" x="0px" y="0px" width="30" height="30" viewBox="0 0 30 30" xml:space="preserve">
    <g transform="translate(-450 -200)">
        <g xmlns="http://www.w3.org/2000/svg" xmlns:xlink="http://www.w3.org/1999/xlink" id="user-lock-7_1_">
		<path d="M467,228v2h13v-11h-2v-1c0-2.485-2.015-4.5-4.5-4.5s-4.5,2.015-4.5,4.5v1h-0.276c-0.739-0.633-1.402-1.571-0.474-2.51    c0.657-0.664,1.041-1.87,1.274-3.175c0.379-0.008,0.881-0.837,1.154-1.945c0.291-1.176,0.214-2.208-0.174-2.304    c-0.038-0.01-0.076-0.003-0.116,0.005c0.088-0.95,0.062-1.85-0.209-2.239c-0.841-1.203-0.912-2.264-2.186-2.722    c-1.271-0.459,0.259-2.109,0.259-2.109s-5.443,0.152-6.603,2.107c-0.681,1.143-1.011,1.521-1.851,2.723    c-0.271,0.391-0.277,1.292-0.162,2.242c-0.049-0.013-0.096-0.018-0.142-0.006c-0.389,0.096-0.466,1.128-0.176,2.304    c0.274,1.108,0.776,1.937,1.155,1.945c0.233,1.306,0.617,2.511,1.274,3.175c1.625,1.645-1.625,3.289-1.625,3.289    s-1.015,0.428-1.128,0.475c-1.578,0.678-4.372,1.947-5.372,2.813C452.203,224.301,452,228,452,228h13H467z M479,220v9h-11v-9H479z     M470,218c0-1.93,1.57-3.5,3.5-3.5s3.5,1.57,3.5,3.5v1h-7V218z M454.28,223.822c0.648-0.562,2.559-1.553,5.111-2.65    c0.101-0.041,1.122-0.472,1.122-0.472c0.451-0.226,2.402-1.287,2.663-2.884c0.083-0.511,0.026-1.278-0.715-2.029    c-0.295-0.297-0.707-0.998-1.002-2.648l-0.145-0.806l-0.549-0.012c-0.127-0.189-0.328-0.594-0.476-1.191    c-0.086-0.349-0.126-0.649-0.14-0.885l0.658,0.176l-0.179-1.47c-0.124-1.014-0.036-1.484,0.008-1.58    c0.222-0.314,0.421-0.591,0.599-0.837c0.445-0.62,0.768-1.068,1.272-1.915c0.44-0.743,2.28-1.237,4.009-1.47    c-0.04,0.237-0.041,0.481,0.018,0.723c0.078,0.317,0.325,0.892,1.117,1.178c0.48,0.172,0.635,0.433,1.011,1.16    c0.185,0.356,0.393,0.76,0.695,1.194c0,0,0,0,0,0c-0.005,0,0.146,0.368,0.034,1.575l-0.125,1.349l0.582-0.122    c-0.012,0.241-0.051,0.555-0.143,0.923c-0.147,0.598-0.348,1.003-0.475,1.191l-0.551,0.012l-0.143,0.806    c-0.295,1.65-0.707,2.351-1.001,2.647c-0.742,0.751-0.799,1.519-0.716,2.03c0.071,0.439,0.276,0.833,0.536,1.184H467v8h-13.889    C453.3,225.75,453.699,224.326,454.28,223.822z"/>
		<path d="M472,223.5c0,0.652,0.419,1.201,1,1.408V227h1v-2.092c0.581-0.207,1-0.756,1-1.408c0-0.828-0.672-1.5-1.5-1.5    S472,222.672,472,223.5z"/>
	</g>
	
    </g>
</svg>
