<?xml version="1.0" encoding="iso-8859-1"?>
<!DOCTYPE svg PUBLIC "-//W3C//DTD SVG 1.1//EN" "http://www.w3.org/Graphics/SVG/1.1/DTD/svg11.dtd">
<svg version="1.1" xmlns="http://www.w3.org/2000/svg" xmlns:xlink="http://www.w3.org/1999/xlink" x="0px" y="0px" width="30" height="30" viewBox="0 0 30 30" xml:space="preserve">
    <g transform="translate(-570 -200)">
        <g xmlns="http://www.w3.org/2000/svg" xmlns:xlink="http://www.w3.org/1999/xlink" id="user-off-7_1_">
		<path d="M589.043,220.457l-2.023-2.024C587.463,219.408,588.46,220.111,589.043,220.457z"/>
		<path d="M573.111,227c0.188-1.25,0.588-2.674,1.169-3.178c0.648-0.562,2.56-1.553,5.111-2.65c0.101-0.041,1.122-0.472,1.122-0.472    c0.451-0.226,2.402-1.287,2.662-2.884c0.084-0.511,0.027-1.278-0.715-2.029c-0.294-0.297-0.706-0.998-1.001-2.648l-0.058-0.322    l-0.492-0.493l-0.144-0.003c-0.046-0.069-0.104-0.178-0.164-0.304l-1.422-1.422c0.028,0.245,0.073,0.505,0.14,0.775    c0.274,1.108,0.776,1.937,1.155,1.945c0.233,1.306,0.617,2.511,1.274,3.175c1.625,1.645-1.625,3.289-1.625,3.289    s-1.015,0.428-1.129,0.475c-1.576,0.678-4.371,1.947-5.371,2.813C572.203,224.301,572,228,572,228h13h11.586l-1-1H573.111z"/>
		<path d="M597.729,227.728L597.457,228H598c0,0-0.012-0.194-0.044-0.5l0.479-0.479l-0.64-0.639    c-0.21-1.155-0.623-2.623-1.421-3.315c-0.78-0.677-2.647-1.594-4.182-2.288l-4.099-4.098c0.049-0.063,0.092-0.127,0.155-0.191    c0.657-0.664,1.041-1.87,1.273-3.175c0.381-0.008,0.882-0.837,1.155-1.945c0.292-1.176,0.214-2.208-0.175-2.304    c-0.037-0.01-0.076-0.003-0.115,0.005c0.088-0.95,0.061-1.85-0.209-2.239c-0.841-1.203-0.912-2.264-2.186-2.722    c-1.271-0.459,0.26-2.109,0.26-2.109s-5.444,0.152-6.604,2.107c-0.681,1.143-1.011,1.521-1.852,2.723    c-0.18,0.26-0.235,0.756-0.223,1.333l-6.598-6.597l-0.707,0.707L597.729,227.728z M595.72,223.822    c0.264,0.229,0.488,0.652,0.674,1.157l-2.011-2.012C594.999,223.306,595.463,223.599,595.72,223.822z M580.631,208.951    c-0.123-1.014-0.037-1.484,0.008-1.58c0.223-0.314,0.422-0.591,0.599-0.837c0.446-0.62,0.769-1.068,1.272-1.915    c0.439-0.743,2.281-1.237,4.009-1.47c-0.04,0.237-0.04,0.481,0.019,0.723c0.076,0.317,0.324,0.892,1.117,1.178    c0.479,0.172,0.634,0.433,1.01,1.16c0.184,0.356,0.393,0.76,0.695,1.194c0,0,0,0,0,0c-0.004,0,0.146,0.368,0.033,1.575    l-0.125,1.349l0.584-0.122c-0.012,0.241-0.053,0.555-0.144,0.923c-0.147,0.598-0.349,1.003-0.475,1.191l-0.55,0.012l-0.145,0.806    c-0.294,1.65-0.706,2.351-1,2.647c-0.06,0.06-0.107,0.12-0.158,0.181l-6.713-6.713L580.631,208.951z"/>
	</g>
	
    </g>
</svg>
