<?xml version="1.0" encoding="iso-8859-1"?>
<!DOCTYPE svg PUBLIC "-//W3C//DTD SVG 1.1//EN" "http://www.w3.org/Graphics/SVG/1.1/DTD/svg11.dtd">
<svg version="1.1" xmlns="http://www.w3.org/2000/svg" xmlns:xlink="http://www.w3.org/1999/xlink" x="0px" y="0px" width="30" height="30" viewBox="0 0 30 30" xml:space="preserve">
    <g transform="translate(-270 -260)">
        <g xmlns="http://www.w3.org/2000/svg" xmlns:xlink="http://www.w3.org/1999/xlink" id="user-man-woman-7">
		<path d="M281,286h8h3h8c0,0-0.559-2.586-1.832-3.679c-0.936-0.801-5.107-1.826-6.418-1.84c-0.164-0.164-0.994-1.403-0.775-2.606    c6.518,2.227,5.863-2.364,5.863-2.364s-0.766,1.567-1.553,0c-0.418-0.836,0-2.83-0.822-5.964c-0.887-3.378-3.426-4.701-5.48-4.701    c-1.412,0-3.06,0.641-4.234,2.128c-0.279-0.527-0.558-0.954-1.215-1.19c-1.074-0.389,0.221-1.785,0.221-1.785    s-4.607,0.129-5.588,1.783c-0.576,0.967-0.855,1.287-1.566,2.304c-0.229,0.331-0.234,1.094-0.137,1.897    c-0.041-0.011-0.082-0.015-0.119-0.005c-0.33,0.081-0.395,0.954-0.148,1.949c0.23,0.938,0.656,1.639,0.977,1.646    c0.197,1.105,0.521,2.125,1.078,2.687c1.375,1.391-1.375,2.782-1.375,2.782s-0.857,0.363-0.955,0.402    c-1.334,0.574-3.698,1.647-4.545,2.38C270.172,282.87,270,286,270,286h8H281z M288.982,265.846c1.604,0,3.748,1.036,4.514,3.955    c0.443,1.689,0.506,3.051,0.551,4.046c0.041,0.908,0.07,1.563,0.344,2.112c0.316,0.629,0.686,0.955,1.031,1.114    c-0.293,0.273-0.76,0.412-1.393,0.412c-0.732,0-1.652-0.187-2.732-0.556l-1.1-0.375l-0.207,1.144    c-0.311,1.708,0.818,3.258,1.055,3.493l0.287,0.288l0.408,0.004c1.225,0.013,5.117,1.035,5.777,1.6    c0.484,0.416,0.873,1.211,1.137,1.919h-6.766c-0.152-1.01-0.5-2.511-1.264-3.174c-0.57-0.496-1.833-1.144-3.005-1.69    c0.308-0.654,0.563-1.531,0.386-2.459l-0.217-1.134l-1.09,0.375c-1.094,0.376-2.023,0.566-2.764,0.566    c-0.182,0-0.345-0.015-0.499-0.038c-0.132-0.372-0.089-0.778,0.313-1.186c0.557-0.562,0.881-1.582,1.078-2.687    c0.322-0.007,0.746-0.708,0.977-1.646c0.248-0.995,0.182-1.868-0.146-1.949c-0.031-0.008-0.064-0.003-0.098,0.004    c0.074-0.804,0.051-1.565-0.178-1.895c-0.039-0.057-0.071-0.112-0.107-0.169C286.267,266.422,287.771,265.846,288.982,265.846z     M286.08,279.445c-0.096-0.04-0.955-0.402-0.955-0.402s-0.437-0.224-0.875-0.578c0.741-0.04,1.645-0.213,2.773-0.602    c0.129,0.675-0.077,1.354-0.313,1.858C286.486,279.622,286.271,279.527,286.08,279.445z M271.12,285    c0.163-0.982,0.474-2.039,0.911-2.419c0.537-0.466,2.139-1.295,4.285-2.217c0.082-0.034,0.947-0.4,0.947-0.4    c0.404-0.201,2.113-1.132,2.346-2.557c0.076-0.468,0.025-1.168-0.648-1.85c-0.191-0.193-0.549-0.73-0.805-2.16l-0.145-0.807    l-0.508-0.011c-0.098-0.165-0.232-0.467-0.338-0.893c-0.047-0.187-0.076-0.356-0.096-0.504l0.564,0.153l-0.18-1.474    c-0.096-0.796-0.035-1.178-0.004-1.259c0.172-0.236,0.34-0.47,0.49-0.678c0.379-0.528,0.654-0.91,1.084-1.633    c0.322-0.542,1.703-0.938,3.086-1.143c-0.01,0.154,0.002,0.312,0.039,0.468c0.125,0.515,0.496,0.908,1.043,1.105    c0.354,0.127,0.467,0.319,0.771,0.908c0.156,0.305,0.336,0.65,0.596,1.024c0,0,0-0.001,0-0.001c-0.01,0,0.088,0.318,0.004,1.234    l-0.125,1.339l0.496-0.101c-0.018,0.16-0.049,0.347-0.102,0.558c-0.104,0.426-0.24,0.728-0.338,0.893l-0.508,0.011l-0.145,0.807    c-0.256,1.429-0.613,1.966-0.805,2.159c-0.674,0.682-0.725,1.382-0.648,1.85c0.232,1.425,1.943,2.356,2.283,2.528    c0.063,0.029,0.928,0.395,1.025,0.435c2.131,0.916,3.732,1.745,4.271,2.211c0.432,0.376,0.746,1.443,0.908,2.419h-11.535H271.12z"/>
	</g>
	
    </g>
</svg>
