<?xml version="1.0" encoding="iso-8859-1"?>
<!DOCTYPE svg PUBLIC "-//W3C//DTD SVG 1.1//EN" "http://www.w3.org/Graphics/SVG/1.1/DTD/svg11.dtd">
<svg version="1.1" xmlns="http://www.w3.org/2000/svg" xmlns:xlink="http://www.w3.org/1999/xlink" x="0px" y="0px" width="30" height="30" viewBox="0 0 30 30" xml:space="preserve">
    <g transform="translate(-210 -200)">
        <g xmlns="http://www.w3.org/2000/svg" xmlns:xlink="http://www.w3.org/1999/xlink" id="user-star-7_1_">
		<path d="M232.5,215c-1.477,0-2.85,0.433-4.011,1.17c0.507-0.694,0.833-1.726,1.034-2.855c0.381-0.008,0.882-0.837,1.155-1.945    c0.292-1.176,0.214-2.208-0.175-2.304c-0.037-0.01-0.076-0.003-0.115,0.005c0.088-0.95,0.061-1.85-0.209-2.239    c-0.841-1.203-0.912-2.264-2.186-2.722c-1.271-0.459,0.26-2.109,0.26-2.109s-5.444,0.152-6.604,2.107    c-0.681,1.143-1.011,1.521-1.852,2.723c-0.27,0.391-0.276,1.292-0.16,2.242c-0.05-0.013-0.098-0.018-0.143-0.006    c-0.389,0.096-0.466,1.128-0.176,2.304c0.274,1.108,0.776,1.937,1.155,1.945c0.233,1.306,0.617,2.511,1.274,3.175    c1.625,1.645-1.625,3.289-1.625,3.289s-1.015,0.428-1.129,0.475c-1.576,0.678-4.371,1.947-5.371,2.813    C212.203,224.301,212,228,212,228h13h2.413c1.337,1.237,3.121,2,5.087,2s3.75-0.763,5.087-2H238c0,0-0.008-0.144-0.031-0.379    c1.256-1.341,2.031-3.139,2.031-5.121C240,218.358,236.643,215,232.5,215z M213.111,227c0.188-1.25,0.588-2.674,1.169-3.178    c0.648-0.562,2.56-1.553,5.111-2.65c0.101-0.041,1.122-0.472,1.122-0.472c0.451-0.226,2.402-1.287,2.662-2.884    c0.084-0.511,0.027-1.278-0.715-2.029c-0.294-0.297-0.706-0.998-1.001-2.648l-0.144-0.806l-0.55-0.012    c-0.126-0.189-0.327-0.594-0.476-1.191c-0.086-0.349-0.126-0.649-0.141-0.885l0.66,0.176l-0.18-1.47    c-0.123-1.014-0.037-1.484,0.008-1.58c0.223-0.314,0.422-0.591,0.599-0.837c0.446-0.62,0.769-1.068,1.272-1.915    c0.439-0.743,2.281-1.237,4.009-1.47c-0.04,0.237-0.04,0.481,0.019,0.723c0.076,0.317,0.324,0.892,1.117,1.178    c0.479,0.172,0.634,0.433,1.01,1.16c0.184,0.356,0.393,0.76,0.695,1.194c0,0,0,0,0,0c-0.004,0,0.146,0.368,0.033,1.575    l-0.125,1.349l0.584-0.122c-0.012,0.241-0.053,0.555-0.144,0.923c-0.147,0.598-0.349,1.003-0.475,1.191l-0.55,0.012l-0.145,0.806    c-0.294,1.65-0.706,2.351-1,2.647c-0.658,0.666-0.776,1.343-0.736,1.845c-1.122,1.311-1.803,3.009-1.803,4.869    c0,1.691,0.566,3.246,1.51,4.5H213.111z M232.5,229c-3.59,0-6.5-2.91-6.5-6.5s2.91-6.5,6.5-6.5s6.5,2.91,6.5,6.5    S236.09,229,232.5,229z"/>
		<polygon points="231.43,221 228,221 230.768,223.079 229.717,226.344 232.5,224.336 235.278,226.344 234.23,223.079 237,221     233.568,221 232.5,217.785   "/>
	</g>
	
    </g>
</svg>
