<?xml version="1.0" encoding="iso-8859-1"?>
<!DOCTYPE svg PUBLIC "-//W3C//DTD SVG 1.1//EN" "http://www.w3.org/Graphics/SVG/1.1/DTD/svg11.dtd">
<svg version="1.1" xmlns="http://www.w3.org/2000/svg" xmlns:xlink="http://www.w3.org/1999/xlink" x="0px" y="0px" width="48" height="30" viewBox="0 0 48 30" xml:space="preserve">
    <g transform="translate(-330 -260)">
        <g xmlns="http://www.w3.org/2000/svg" xmlns:xlink="http://www.w3.org/1999/xlink" id="user-man-woman-big-7">
		<path d="M372.834,283.652c-1.105-0.946-6.035-2.158-7.584-2.174c-0.195-0.194-1.176-1.658-0.918-3.081    c7.703,2.632,6.932-2.794,6.932-2.794s-0.906,1.853-1.836,0c-0.496-0.988,0-3.345-0.971-7.048    c-1.049-3.993-4.051-5.555-6.479-5.555c-2.43,0-5.475,1.551-6.479,5.555c-0.928,3.704-0.434,6.06-0.928,7.048    c-0.93,1.853-1.879,0-1.879,0s-0.775,5.443,6.971,2.779c0.271,1.427-0.719,2.898-0.914,3.096    c-0.627,0.006-1.811,0.211-3.068,0.512c-1.207-0.648-2.684-1.31-3.678-1.737c-0.115-0.047-1.129-0.476-1.129-0.476    s-3.25-1.644-1.625-3.288c0.656-0.664,1.041-1.87,1.273-3.176c0.381-0.008,0.881-0.837,1.154-1.945    c0.293-1.176,0.215-2.207-0.174-2.303c-0.037-0.01-0.076-0.004-0.115,0.004c0.088-0.949,0.061-1.85-0.209-2.239    c-0.842-1.203-0.912-2.264-2.186-2.722c-1.271-0.459,0.26-2.109,0.26-2.109s-5.445,0.152-6.604,2.107    c-0.682,1.143-1.012,1.521-1.852,2.723c-0.27,0.391-0.277,1.292-0.16,2.243c-0.051-0.014-0.098-0.018-0.143-0.006    c-0.389,0.096-0.467,1.127-0.176,2.303c0.273,1.108,0.775,1.938,1.154,1.945c0.234,1.306,0.617,2.512,1.275,3.176    c1.625,1.645-1.625,3.288-1.625,3.288s-1.016,0.429-1.129,0.476c-1.576,0.678-4.371,1.946-5.371,2.813    C333.203,284.301,333,288,333,288h13h3h10h3h13C375,288,374.34,284.943,372.834,283.652z M350.33,287h-16.219    c0.188-1.25,0.588-2.674,1.168-3.178c0.648-0.563,2.561-1.553,5.111-2.65c0.102-0.041,1.123-0.473,1.123-0.473    c0.451-0.225,2.402-1.286,2.662-2.883c0.084-0.512,0.027-1.279-0.715-2.029c-0.295-0.297-0.707-0.998-1.002-2.648l-0.143-0.807    l-0.551-0.012c-0.125-0.189-0.326-0.594-0.475-1.191c-0.086-0.349-0.127-0.648-0.141-0.885l0.66,0.176l-0.18-1.469    c-0.123-1.014-0.037-1.484,0.008-1.58c0.223-0.314,0.422-0.591,0.598-0.837c0.447-0.62,0.77-1.068,1.273-1.915    c0.439-0.743,2.281-1.237,4.008-1.47c-0.039,0.237-0.039,0.481,0.02,0.723c0.076,0.317,0.324,0.892,1.117,1.178    c0.479,0.172,0.633,0.433,1.01,1.16c0.184,0.356,0.393,0.76,0.695,1.194c0,0,0,0,0,0c-0.004,0,0.145,0.368,0.033,1.575    l-0.125,1.35l0.584-0.123c-0.012,0.241-0.053,0.556-0.145,0.924c-0.146,0.598-0.348,1.003-0.475,1.191l-0.549,0.012l-0.145,0.807    c-0.295,1.65-0.707,2.351-1,2.647c-0.742,0.751-0.799,1.519-0.715,2.03c0.26,1.597,2.211,2.658,2.6,2.854    c0.063,0.029,1.084,0.461,1.199,0.508c2.539,1.092,4.449,2.083,5.096,2.645c0.582,0.504,0.98,1.928,1.17,3.178H350.33z     M358.895,287c-0.165-1.187-0.569-3.108-1.52-3.934c-0.122-0.105-0.271-0.218-0.441-0.333c0.748-0.152,1.408-0.251,1.826-0.255    l0.408-0.005l0.289-0.288c0.42-0.42,1.527-2.217,1.189-3.989l-0.217-1.134l-1.092,0.375c-1.311,0.451-2.43,0.68-3.324,0.68    c-0.873,0-1.504-0.217-1.875-0.645c-0.027-0.031-0.053-0.063-0.076-0.096c0.447-0.114,0.969-0.459,1.402-1.325    c0.313-0.62,0.344-1.394,0.389-2.464c0.049-1.178,0.115-2.792,0.617-4.79c0.887-3.542,3.521-4.798,5.508-4.798    c1.959,0,4.578,1.259,5.51,4.809c0.529,2.015,0.604,3.636,0.656,4.82c0.047,1.051,0.082,1.81,0.389,2.423    c0.426,0.847,0.932,1.195,1.367,1.317c-0.027,0.039-0.059,0.076-0.09,0.112c-0.373,0.423-1,0.636-1.867,0.636    c-0.887,0-1.992-0.224-3.287-0.666l-1.1-0.375l-0.207,1.143c-0.322,1.771,0.777,3.553,1.193,3.967l0.289,0.288l0.408,0.005    c1.508,0.015,6.123,1.231,6.943,1.934c0.662,0.568,1.168,1.673,1.488,2.588H358.895z"/>
	</g>
	
    </g>
</svg>
