<?xml version="1.0" encoding="iso-8859-1"?>
<!DOCTYPE svg PUBLIC "-//W3C//DTD SVG 1.1//EN" "http://www.w3.org/Graphics/SVG/1.1/DTD/svg11.dtd">
<svg version="1.1" xmlns="http://www.w3.org/2000/svg" xmlns:xlink="http://www.w3.org/1999/xlink" x="0px" y="0px" width="48" height="30" viewBox="0 0 48 30" xml:space="preserve">
    <g transform="translate(-486 -260)">
        <g xmlns="http://www.w3.org/2000/svg" xmlns:xlink="http://www.w3.org/1999/xlink" id="user-man-three-big-7">
		<path d="M522,288h1h10c0,0-0.172-3.13-1.375-4.175c-0.846-0.733-3.211-1.806-4.545-2.38c-0.098-0.039-0.955-0.402-0.955-0.402    s-2.75-1.391-1.375-2.782c0.555-0.562,0.881-1.582,1.078-2.687c0.322-0.007,0.744-0.709,0.977-1.646    c0.248-0.995,0.182-1.867-0.148-1.948c-0.031-0.009-0.064-0.004-0.096,0.003c0.074-0.803,0.051-1.564-0.178-1.894    c-0.713-1.019-0.771-1.916-1.85-2.303c-1.076-0.389,0.221-1.785,0.221-1.785s-4.607,0.129-5.588,1.783    c-0.576,0.967-0.855,1.287-1.566,2.304c-0.229,0.332-0.234,1.094-0.137,1.898c-0.043-0.012-0.082-0.015-0.119-0.005    c-0.33,0.081-0.396,0.953-0.15,1.948c0.232,0.938,0.656,1.64,0.977,1.646c0.199,1.104,0.523,2.125,1.08,2.687    c1.375,1.392-1.375,2.782-1.375,2.782s-0.023,0.01-0.057,0.024c-0.663-0.309-1.305-0.594-1.814-0.813    c-0.115-0.047-1.129-0.476-1.129-0.476s-3.25-1.644-1.625-3.288c0.656-0.664,1.041-1.87,1.273-3.176    c0.381-0.008,0.881-0.837,1.154-1.945c0.293-1.176,0.215-2.207-0.174-2.303c-0.037-0.01-0.076-0.004-0.115,0.004    c0.088-0.949,0.061-1.85-0.209-2.239c-0.842-1.203-0.912-2.264-2.186-2.722c-1.271-0.459,0.26-2.109,0.26-2.109    s-5.445,0.152-6.604,2.107c-0.682,1.143-1.012,1.521-1.852,2.723c-0.27,0.391-0.277,1.292-0.16,2.243    c-0.051-0.014-0.098-0.018-0.143-0.006c-0.389,0.096-0.467,1.127-0.176,2.303c0.273,1.108,0.775,1.938,1.154,1.945    c0.234,1.306,0.617,2.512,1.275,3.176c1.625,1.645-1.625,3.288-1.625,3.288s-1.016,0.429-1.129,0.476    c-0.51,0.219-1.15,0.504-1.814,0.813c-0.033-0.014-0.057-0.024-0.057-0.024s-2.75-1.391-1.375-2.782    c0.555-0.562,0.881-1.582,1.078-2.687c0.322-0.007,0.744-0.709,0.977-1.646c0.248-0.995,0.182-1.867-0.148-1.948    c-0.031-0.009-0.064-0.004-0.096,0.003c0.074-0.803,0.051-1.564-0.178-1.894c-0.713-1.019-0.771-1.916-1.85-2.303    c-1.076-0.389,0.221-1.785,0.221-1.785s-4.607,0.129-5.588,1.783c-0.576,0.967-0.855,1.287-1.566,2.304    c-0.229,0.332-0.234,1.094-0.137,1.898c-0.043-0.012-0.082-0.015-0.119-0.005c-0.33,0.081-0.396,0.953-0.15,1.948    c0.232,0.938,0.656,1.64,0.977,1.646c0.199,1.104,0.523,2.125,1.08,2.687c1.375,1.392-1.375,2.782-1.375,2.782    s-0.859,0.363-0.955,0.402c-1.334,0.574-3.699,1.647-4.545,2.38C487.172,284.87,487,288,487,288h10h1h11h1h1H522z     M520.609,279.408c0.076-0.468,0.025-1.168-0.648-1.85c-0.189-0.193-0.549-0.729-0.807-2.162l-0.145-0.805l-0.506-0.011    c-0.098-0.166-0.234-0.468-0.34-0.894c-0.045-0.184-0.074-0.35-0.094-0.495l0.564,0.157l-0.18-1.485    c-0.115-0.961-0.004-1.257-0.004-1.26c0.174-0.24,0.344-0.475,0.494-0.684c0.377-0.526,0.65-0.906,1.08-1.627    c0.322-0.542,1.703-0.939,3.084-1.143c-0.008,0.154,0.004,0.311,0.041,0.468c0.125,0.515,0.496,0.908,1.043,1.106    c0.354,0.127,0.467,0.319,0.77,0.906c0.158,0.306,0.336,0.652,0.598,1.027v0c-0.01,0,0.09,0.318,0.004,1.232l-0.125,1.361    l0.496-0.108c-0.02,0.156-0.051,0.339-0.102,0.543c-0.105,0.427-0.24,0.729-0.338,0.895l-0.508,0.011l-0.145,0.807    c-0.254,1.428-0.613,1.966-0.805,2.16c-0.674,0.681-0.723,1.382-0.646,1.85c0.232,1.425,1.941,2.355,2.281,2.528    c0.063,0.028,0.934,0.397,1.031,0.437c2.129,0.916,3.73,1.745,4.266,2.208c0.438,0.38,0.748,1.437,0.91,2.419h-8.986    c-0.165-1.187-0.569-3.108-1.52-3.934c-0.5-0.434-1.449-0.967-2.47-1.478C519.561,281.157,520.446,280.408,520.609,279.408z     M488.119,287c0.164-0.982,0.475-2.04,0.912-2.42c0.535-0.464,2.139-1.293,4.285-2.216c0.078-0.032,0.949-0.4,0.949-0.4    c0.402-0.201,2.111-1.131,2.344-2.556c0.076-0.468,0.025-1.168-0.648-1.85c-0.189-0.193-0.549-0.729-0.807-2.162l-0.145-0.805    l-0.506-0.011c-0.098-0.166-0.234-0.468-0.34-0.894c-0.045-0.184-0.074-0.35-0.094-0.495l0.564,0.157l-0.18-1.485    c-0.115-0.961-0.004-1.257-0.004-1.26c0.174-0.24,0.344-0.475,0.494-0.684c0.377-0.526,0.65-0.906,1.08-1.627    c0.322-0.542,1.703-0.939,3.084-1.143c-0.008,0.154,0.004,0.311,0.041,0.468c0.125,0.515,0.496,0.908,1.043,1.106    c0.354,0.127,0.467,0.319,0.77,0.906c0.158,0.306,0.336,0.652,0.598,1.027v0c-0.01,0,0.09,0.318,0.004,1.232l-0.125,1.361    l0.496-0.108c-0.02,0.156-0.051,0.339-0.102,0.543c-0.105,0.427-0.24,0.729-0.338,0.895l-0.508,0.011l-0.145,0.807    c-0.254,1.428-0.613,1.966-0.805,2.16c-0.674,0.681-0.723,1.382-0.646,1.85c0.165,1.009,1.064,1.763,1.7,2.183    c-1.021,0.51-1.968,1.043-2.468,1.476c-0.95,0.825-1.354,2.747-1.52,3.934H488.119z M507.881,287h-9.77    c0.188-1.25,0.588-2.674,1.168-3.178c0.648-0.563,2.561-1.553,5.111-2.65c0.102-0.041,1.123-0.473,1.123-0.473    c0.451-0.225,2.402-1.286,2.662-2.883c0.084-0.512,0.027-1.279-0.715-2.029c-0.295-0.297-0.707-0.998-1.002-2.648l-0.143-0.807    l-0.551-0.012c-0.125-0.189-0.326-0.594-0.475-1.191c-0.086-0.349-0.127-0.648-0.141-0.885l0.66,0.176l-0.18-1.469    c-0.123-1.014-0.037-1.484,0.008-1.58c0.223-0.314,0.422-0.591,0.598-0.837c0.447-0.62,0.77-1.068,1.273-1.915    c0.439-0.743,2.281-1.237,4.008-1.47c-0.039,0.237-0.039,0.481,0.02,0.723c0.076,0.317,0.324,0.892,1.117,1.178    c0.479,0.172,0.633,0.433,1.01,1.16c0.184,0.356,0.393,0.76,0.695,1.194c0,0,0,0,0,0c-0.004,0,0.145,0.368,0.033,1.575    l-0.125,1.35l0.584-0.123c-0.012,0.241-0.053,0.556-0.145,0.924c-0.146,0.598-0.348,1.003-0.475,1.191l-0.549,0.012l-0.145,0.807    c-0.295,1.65-0.707,2.351-1,2.647c-0.742,0.751-0.799,1.519-0.715,2.03c0.26,1.597,2.211,2.658,2.6,2.854    c0.063,0.029,1.084,0.461,1.199,0.508c2.539,1.092,4.449,2.083,5.096,2.645c0.582,0.504,0.98,1.928,1.17,3.178h-9.77H507.881z"/>
	</g>
	
    </g>
</svg>
