<?xml version="1.0" encoding="iso-8859-1"?>
<!DOCTYPE svg PUBLIC "-//W3C//DTD SVG 1.1//EN" "http://www.w3.org/Graphics/SVG/1.1/DTD/svg11.dtd">
<svg version="1.1" xmlns="http://www.w3.org/2000/svg" xmlns:xlink="http://www.w3.org/1999/xlink" x="0px" y="0px" width="30" height="30" viewBox="0 0 30 30" xml:space="preserve">
    <g transform="translate(-390 -200)">
        <g xmlns="http://www.w3.org/2000/svg" xmlns:xlink="http://www.w3.org/1999/xlink" id="user-upload-7_1_">
		<path d="M407.413,228c1.337,1.238,3.121,2,5.087,2s3.75-0.762,5.087-2H418c0,0-0.008-0.143-0.031-0.378    c1.257-1.341,2.031-3.139,2.031-5.122c0-4.143-3.357-7.5-7.5-7.5c-1.477,0-2.85,0.433-4.01,1.169    c0.506-0.694,0.832-1.726,1.034-2.855c0.379-0.008,0.881-0.837,1.154-1.945c0.291-1.176,0.214-2.208-0.174-2.304    c-0.038-0.01-0.076-0.003-0.116,0.005c0.088-0.95,0.062-1.85-0.209-2.239c-0.841-1.203-0.912-2.264-2.186-2.722    c-1.271-0.459,0.259-2.109,0.259-2.109s-5.443,0.152-6.603,2.107c-0.681,1.143-1.011,1.521-1.851,2.723    c-0.271,0.391-0.277,1.292-0.162,2.242c-0.049-0.013-0.096-0.018-0.142-0.006c-0.389,0.096-0.466,1.128-0.176,2.304    c0.274,1.108,0.776,1.937,1.155,1.945c0.233,1.306,0.617,2.511,1.274,3.175c1.625,1.645-1.625,3.289-1.625,3.289    s-1.015,0.428-1.128,0.475c-1.578,0.678-4.372,1.947-5.372,2.813C392.203,224.301,392,228,392,228h13H407.413z M419,222.5    c0,3.59-2.91,6.5-6.5,6.5s-6.5-2.91-6.5-6.5s2.91-6.5,6.5-6.5S419,218.91,419,222.5z M394.28,223.822    c0.648-0.562,2.559-1.553,5.111-2.65c0.101-0.041,1.122-0.472,1.122-0.472c0.451-0.226,2.402-1.287,2.663-2.884    c0.083-0.511,0.026-1.278-0.715-2.029c-0.295-0.297-0.707-0.998-1.002-2.648l-0.145-0.806l-0.549-0.012    c-0.127-0.189-0.328-0.594-0.476-1.191c-0.086-0.349-0.126-0.649-0.14-0.885l0.658,0.176l-0.179-1.47    c-0.124-1.014-0.036-1.484,0.008-1.58c0.222-0.314,0.421-0.591,0.599-0.837c0.445-0.62,0.768-1.068,1.272-1.915    c0.44-0.743,2.28-1.237,4.009-1.47c-0.04,0.237-0.041,0.481,0.018,0.723c0.078,0.317,0.325,0.892,1.117,1.178    c0.48,0.172,0.635,0.433,1.011,1.16c0.185,0.356,0.393,0.76,0.695,1.194c0,0,0,0,0,0c-0.005,0,0.146,0.368,0.034,1.575    l-0.125,1.349l0.582-0.122c-0.012,0.241-0.051,0.555-0.143,0.923c-0.147,0.598-0.348,1.003-0.475,1.191l-0.551,0.012l-0.143,0.806    c-0.295,1.65-0.707,2.351-1.001,2.647c-0.657,0.666-0.776,1.343-0.737,1.845c-1.121,1.311-1.802,3.009-1.802,4.869    c0,1.691,0.566,3.246,1.51,4.5h-13.398C393.3,225.75,393.699,224.326,394.28,223.822z"/>
		<polygon points="408.411,222.898 409.144,223.58 412,220.507 412,226 413,226 413,220.505 415.857,223.58 416.59,222.898     412.501,218.5   "/>
	</g>
	
    </g>
</svg>
