<?xml version="1.0" encoding="iso-8859-1"?>
<!DOCTYPE svg PUBLIC "-//W3C//DTD SVG 1.1//EN" "http://www.w3.org/Graphics/SVG/1.1/DTD/svg11.dtd">
<svg version="1.1" xmlns="http://www.w3.org/2000/svg" xmlns:xlink="http://www.w3.org/1999/xlink" x="0px" y="0px" width="30" height="30" viewBox="0 0 30 30" xml:space="preserve">
    <g transform="translate(-30 -260)">
        <g xmlns="http://www.w3.org/2000/svg" xmlns:xlink="http://www.w3.org/1999/xlink" id="user-check-7">
		<path d="M39.961,272.558c-0.191-0.194-0.549-0.731-0.805-2.16l-0.145-0.807l-0.508-0.011c-0.098-0.165-0.233-0.467-0.339-0.893    c-0.046-0.187-0.076-0.356-0.095-0.504l0.564,0.153l-0.18-1.474c-0.096-0.796-0.035-1.178-0.004-1.259    c0.172-0.236,0.34-0.47,0.489-0.678c0.38-0.528,0.654-0.91,1.085-1.633c0.321-0.542,1.702-0.938,3.085-1.143    c-0.009,0.154,0.003,0.312,0.04,0.468c0.125,0.515,0.496,0.908,1.043,1.105c0.354,0.127,0.467,0.319,0.771,0.908    c0.157,0.305,0.336,0.65,0.597,1.024v0c0,0,0,0,0,0.001c0,0,0,0,0,0c-0.01,0,0.088,0.318,0.004,1.234l-0.125,1.339l0.496-0.101    c-0.018,0.16-0.049,0.347-0.102,0.558c-0.041,0.167-0.088,0.3-0.135,0.428c0.354-0.058,0.715-0.094,1.082-0.104    c0.008-0.028,0.017-0.054,0.023-0.083c0.247-0.995,0.182-1.868-0.146-1.949c-0.032-0.008-0.064-0.003-0.099,0.004    c0.074-0.804,0.052-1.565-0.177-1.895c-0.711-1.018-0.771-1.916-1.85-2.304c-1.074-0.389,0.22-1.785,0.22-1.785    s-4.606,0.129-5.587,1.783c-0.576,0.967-0.855,1.287-1.566,2.304c-0.229,0.331-0.234,1.094-0.137,1.897    c-0.041-0.011-0.082-0.015-0.12-0.005c-0.329,0.081-0.394,0.954-0.148,1.949c0.231,0.938,0.657,1.639,0.978,1.646    c0.197,1.105,0.521,2.125,1.078,2.687c0.223,0.226,0.329,0.451,0.364,0.67c0.161-0.388,0.358-0.755,0.577-1.109    C40.123,272.734,40.048,272.646,39.961,272.558z"/>
		<path d="M43.392,274.408c0.231,1.425,1.942,2.355,2.282,2.528c0.063,0.028,0.928,0.395,1.025,0.435    c2.131,0.916,3.732,1.745,4.271,2.211c0.063,0.055,0.122,0.127,0.18,0.208c0.2-0.297,0.363-0.614,0.494-0.944    c-0.007-0.006-0.013-0.013-0.019-0.019c-0.846-0.733-3.211-1.807-4.545-2.38c-0.097-0.04-0.955-0.402-0.955-0.402    s-2.75-1.391-1.375-2.782c0.238-0.24,0.426-0.576,0.587-0.955c-0.706,0.251-1.349,0.639-1.869,1.159    C43.351,273.822,43.35,274.15,43.392,274.408z"/>
		<path d="M40.758,282h-8.639c0.163-0.982,0.474-2.039,0.912-2.419c0.537-0.466,2.139-1.295,4.284-2.217    c0.083-0.034,0.948-0.4,0.948-0.4c0.138-0.068,0.431-0.228,0.762-0.457c0.032-0.535,0.117-1.055,0.25-1.557    c-0.514,0.643-1.4,1.092-1.4,1.092s-0.858,0.363-0.955,0.402c-1.334,0.574-3.699,1.647-4.545,2.38C31.172,279.87,31,283,31,283    h10.721c-0.128-0.112-0.258-0.222-0.379-0.343C41.133,282.448,40.939,282.228,40.758,282z"/>
		<path d="M52.287,281.58C53.352,280.352,54,278.753,54,277c0.001-3.865-3.134-7-7-7s-7,3.135-7,7c-0.001,3.867,3.133,7,7,7    c1.754,0,3.352-0.648,4.58-1.713l0.707,0.707c-0.003,0.002-0.005,0.004-0.008,0.006h0.014l6.374,6.375l0.707-0.707l-6.38-6.381    L52.287,281.58z M41,277c0.001-3.313,2.686-6,6-6c3.313,0,6,2.686,6,6c0,1.649-0.666,3.143-1.742,4.227l-0.031,0.031    C50.143,282.334,48.648,283,47,283C43.686,283,41,280.314,41,277z"/>
	</g>
	
    </g>
</svg>
