<?xml version="1.0" encoding="iso-8859-1"?>
<!DOCTYPE svg PUBLIC "-//W3C//DTD SVG 1.1//EN" "http://www.w3.org/Graphics/SVG/1.1/DTD/svg11.dtd">
<svg version="1.1" xmlns="http://www.w3.org/2000/svg" xmlns:xlink="http://www.w3.org/1999/xlink" x="0px" y="0px" width="30" height="30" viewBox="0 0 30 30" xml:space="preserve">
    <g transform="translate(-90 -260)">
        <g xmlns="http://www.w3.org/2000/svg" xmlns:xlink="http://www.w3.org/1999/xlink" id="user-woman-7">
		<path d="M94.166,283.652C92.66,284.944,92,288,92,288h13h13c0,0-0.66-3.056-2.166-4.348c-1.105-0.946-6.035-2.158-7.584-2.174    c-0.194-0.194-1.176-1.658-0.917-3.081c7.703,2.632,6.931-2.794,6.931-2.794s-0.906,1.853-1.836,0    c-0.495-0.988,0-3.345-0.971-7.048c-1.049-3.993-4.05-5.555-6.479-5.555c-2.43,0-5.475,1.551-6.479,5.555    c-0.928,3.704-0.433,6.06-0.928,7.048c-0.93,1.853-1.879,0-1.879,0s-0.775,5.443,6.971,2.78c0.271,1.426-0.718,2.898-0.914,3.095    C100.201,281.494,95.271,282.706,94.166,283.652z M102.168,282.474l0.289-0.289c0.42-0.419,1.527-2.216,1.189-3.989l-0.216-1.134    l-1.092,0.375c-1.312,0.451-2.431,0.68-3.325,0.68c-0.873,0-1.504-0.217-1.875-0.645c-0.026-0.031-0.052-0.063-0.076-0.095    c0.447-0.115,0.969-0.459,1.403-1.326c0.312-0.621,0.343-1.394,0.388-2.463c0.049-1.179,0.115-2.792,0.617-4.79    c0.887-3.542,3.521-4.798,5.508-4.798c1.959,0,4.578,1.259,5.511,4.809c0.528,2.015,0.603,3.636,0.655,4.819    c0.048,1.051,0.082,1.81,0.39,2.423c0.425,0.847,0.931,1.195,1.366,1.318c-0.027,0.038-0.059,0.076-0.09,0.112    c-0.372,0.422-1,0.636-1.867,0.636c-0.887,0-1.992-0.224-3.287-0.667l-1.1-0.375l-0.207,1.143    c-0.322,1.771,0.778,3.553,1.194,3.967l0.288,0.288l0.408,0.004c1.508,0.015,6.123,1.232,6.943,1.934    c0.663,0.569,1.169,1.673,1.488,2.588H93.33c0.32-0.917,0.827-2.023,1.487-2.589c0.819-0.701,5.435-1.918,6.942-1.933    L102.168,282.474z"/>
	</g>
	
    </g>
</svg>
