<?xml version="1.0" encoding="iso-8859-1"?>
<!DOCTYPE svg PUBLIC "-//W3C//DTD SVG 1.1//EN" "http://www.w3.org/Graphics/SVG/1.1/DTD/svg11.dtd">
<svg version="1.1" xmlns="http://www.w3.org/2000/svg" xmlns:xlink="http://www.w3.org/1999/xlink" x="0px" y="0px" width="30" height="30" viewBox="0 0 30 30" xml:space="preserve">
    <g transform="translate(-210 -260)">
        <g xmlns="http://www.w3.org/2000/svg" xmlns:xlink="http://www.w3.org/1999/xlink" id="user-woman-off-7">
		<path d="M213.33,287c0.32-0.917,0.827-2.023,1.487-2.589c0.819-0.701,5.435-1.918,6.942-1.933l0.408-0.004l0.289-0.289    c0.42-0.419,1.527-2.216,1.189-3.989l-0.216-1.134l-1.092,0.375c-1.312,0.451-2.431,0.68-3.325,0.68    c-0.873,0-1.504-0.217-1.875-0.645c-0.026-0.031-0.052-0.063-0.076-0.095c0.447-0.115,0.969-0.459,1.403-1.326    c0.312-0.621,0.343-1.394,0.388-2.463c0.033-0.811,0.086-1.842,0.271-3.048l-0.866-0.867c-0.586,3.059-0.243,5.046-0.687,5.931    c-0.93,1.853-1.879,0-1.879,0s-0.775,5.443,6.971,2.78c0.271,1.426-0.718,2.898-0.914,3.095c-1.549,0.016-6.479,1.228-7.584,2.174    C212.66,284.944,212,288,212,288h13h11.586l-1-1H213.33z"/>
		<path d="M228.25,281.478c-0.18-0.179-1.02-1.443-0.943-2.757l-0.887-0.888l-0.07,0.386c-0.322,1.771,0.778,3.553,1.194,3.967    l0.288,0.288l0.408,0.004c0.708,0.007,2.1,0.28,3.463,0.639l-1.34-1.34C229.485,281.597,228.715,281.483,228.25,281.478z"/>
		<path d="M234.264,275.604c0,0-0.906,1.853-1.836,0c-0.495-0.988,0-3.345-0.971-7.048c-1.049-3.993-4.05-5.555-6.479-5.555    c-2.189,0-4.874,1.267-6.119,4.446l-5.881-5.881l-0.707,0.707l25.457,25.456L237.457,288H238c0,0-0.037-0.168-0.109-0.434    l0.545-0.545l-1.119-1.12c-0.35-0.821-0.838-1.697-1.482-2.25c-0.292-0.25-0.854-0.517-1.545-0.777l-3.785-3.786    C234.781,279.356,234.264,275.604,234.264,275.604z M219.656,268.243c1.018-3.099,3.449-4.243,5.322-4.243    c1.959,0,4.578,1.259,5.511,4.809c0.528,2.015,0.603,3.636,0.655,4.819c0.048,1.051,0.082,1.81,0.39,2.423    c0.425,0.847,0.931,1.195,1.366,1.318c-0.027,0.038-0.059,0.076-0.09,0.112c-0.372,0.422-1,0.636-1.867,0.636    c-0.473,0-1.014-0.069-1.607-0.196L219.656,268.243z"/>
	</g>
	
    </g>
</svg>
