<?xml version="1.0" encoding="iso-8859-1"?>
<!DOCTYPE svg PUBLIC "-//W3C//DTD SVG 1.1//EN" "http://www.w3.org/Graphics/SVG/1.1/DTD/svg11.dtd">
<svg version="1.1" xmlns="http://www.w3.org/2000/svg" xmlns:xlink="http://www.w3.org/1999/xlink" x="0px" y="0px" width="30" height="30" viewBox="0 0 30 30" xml:space="preserve">
    <g transform="translate(-30 -200)">
        <g xmlns="http://www.w3.org/2000/svg" xmlns:xlink="http://www.w3.org/1999/xlink" id="user-7_1_">
		<path d="M40.125,219.778c0,0-1.015,0.428-1.129,0.475c-1.576,0.678-4.371,1.947-5.371,2.813C32.203,224.301,32,228,32,228h13h13    c0,0-0.203-3.699-1.625-4.933c-1-0.867-3.795-2.135-5.371-2.813c-0.114-0.047-1.129-0.475-1.129-0.475s-3.25-1.644-1.625-3.289    c0.657-0.664,1.041-1.87,1.273-3.175c0.381-0.008,0.882-0.837,1.155-1.945c0.292-1.176,0.214-2.208-0.175-2.304    c-0.037-0.01-0.076-0.003-0.115,0.005c0.088-0.95,0.061-1.85-0.209-2.239c-0.841-1.203-0.912-2.264-2.186-2.722    c-1.271-0.459,0.26-2.109,0.26-2.109s-5.444,0.152-6.604,2.107c-0.681,1.143-1.011,1.521-1.852,2.723    c-0.27,0.391-0.276,1.292-0.16,2.242c-0.05-0.013-0.098-0.018-0.143-0.006c-0.389,0.096-0.466,1.128-0.176,2.304    c0.274,1.108,0.776,1.937,1.155,1.945c0.233,1.306,0.617,2.511,1.274,3.175C43.375,218.134,40.125,219.778,40.125,219.778z     M42.461,215.787c-0.294-0.297-0.706-0.998-1.001-2.648l-0.144-0.806l-0.55-0.012c-0.126-0.189-0.327-0.594-0.476-1.191    c-0.086-0.349-0.126-0.649-0.141-0.885l0.66,0.176l-0.18-1.47c-0.123-1.014-0.037-1.484,0.008-1.58    c0.223-0.314,0.422-0.591,0.599-0.837c0.446-0.62,0.769-1.068,1.272-1.915c0.439-0.743,2.281-1.237,4.009-1.47    c-0.04,0.237-0.04,0.481,0.019,0.723c0.076,0.317,0.324,0.892,1.117,1.178c0.479,0.172,0.634,0.433,1.01,1.16    c0.184,0.356,0.393,0.76,0.695,1.194c0,0,0,0,0,0c-0.004,0,0.146,0.368,0.033,1.575l-0.125,1.349l0.584-0.122    c-0.012,0.241-0.053,0.555-0.144,0.923c-0.147,0.598-0.349,1.003-0.475,1.191l-0.55,0.012l-0.145,0.806    c-0.294,1.65-0.706,2.351-1,2.647c-0.742,0.751-0.799,1.519-0.715,2.03c0.26,1.597,2.211,2.658,2.6,2.854    c0.063,0.029,1.084,0.46,1.199,0.508c2.539,1.092,4.449,2.083,5.097,2.644c0.581,0.504,0.98,1.927,1.169,3.178H33.111    c0.188-1.25,0.588-2.674,1.169-3.178c0.648-0.562,2.56-1.553,5.111-2.65c0.101-0.041,1.122-0.472,1.122-0.472    c0.451-0.226,2.402-1.287,2.662-2.884C43.26,217.305,43.203,216.538,42.461,215.787z"/>
	</g>
	
    </g>
</svg>
