<?xml version="1.0" encoding="iso-8859-1"?>
<!DOCTYPE svg PUBLIC "-//W3C//DTD SVG 1.1//EN" "http://www.w3.org/Graphics/SVG/1.1/DTD/svg11.dtd">
<svg version="1.1" xmlns="http://www.w3.org/2000/svg" xmlns:xlink="http://www.w3.org/1999/xlink" x="0px" y="0px" width="30" height="30" viewBox="0 0 30 30" xml:space="preserve">
    <g transform="translate(-150 -260)">
        <g xmlns="http://www.w3.org/2000/svg" xmlns:xlink="http://www.w3.org/1999/xlink" id="user-woman-tick-7">
		<path d="M172.5,275c-0.08,0-0.158,0.01-0.238,0.012c-0.203-1.197,0.012-3.345-0.805-6.457c-1.049-3.993-4.05-5.555-6.479-5.555    c-2.43,0-5.475,1.551-6.479,5.555c-0.928,3.704-0.433,6.06-0.928,7.048c-0.93,1.853-1.879,0-1.879,0s-0.775,5.443,6.971,2.78    c0.271,1.426-0.718,2.898-0.914,3.095c-1.549,0.016-6.479,1.228-7.584,2.174C152.66,284.944,152,288,152,288h13h2.413    c1.337,1.237,3.121,2,5.087,2s3.75-0.763,5.087-2H178c0,0-0.027-0.123-0.08-0.325c1.286-1.347,2.08-3.167,2.08-5.175    C180,278.358,176.643,275,172.5,275z M153.33,287c0.32-0.917,0.827-2.023,1.487-2.589c0.819-0.701,5.435-1.918,6.942-1.933    l0.408-0.004l0.289-0.289c0.42-0.419,1.527-2.216,1.189-3.989l-0.216-1.134l-1.092,0.375c-1.312,0.451-2.431,0.68-3.325,0.68    c-0.873,0-1.504-0.217-1.875-0.645c-0.026-0.031-0.052-0.063-0.076-0.095c0.447-0.115,0.969-0.459,1.403-1.326    c0.312-0.621,0.343-1.394,0.388-2.463c0.049-1.179,0.115-2.792,0.617-4.79c0.887-3.542,3.521-4.798,5.508-4.798    c1.959,0,4.578,1.259,5.511,4.809c0.528,2.015,0.603,3.636,0.655,4.819c0.026,0.576,0.053,1.058,0.118,1.482    c-1.608,0.268-3.044,1.042-4.134,2.161l-0.572-0.195l-0.207,1.139c-0.848,1.215-1.35,2.691-1.35,4.286    c0,1.691,0.566,3.246,1.51,4.5H153.33z M172.5,289c-3.59,0-6.5-2.91-6.5-6.5s2.91-6.5,6.5-6.5s6.5,2.91,6.5,6.5    S176.09,289,172.5,289z"/>
		<polygon points="171.086,284.268 168.965,282.146 168.258,282.854 171.086,285.682 176.742,280.025 176.035,279.318   "/>
	</g>
	
    </g>
</svg>
