<?xml version="1.0" encoding="iso-8859-1"?>
<!DOCTYPE svg PUBLIC "-//W3C//DTD SVG 1.1//EN" "http://www.w3.org/Graphics/SVG/1.1/DTD/svg11.dtd">
<svg version="1.1" xmlns="http://www.w3.org/2000/svg" xmlns:xlink="http://www.w3.org/1999/xlink" x="0px" y="0px" width="31" height="30" viewBox="0 0 31 30" xml:space="preserve">
    <g transform="translate(-270 -500)">
        <g xmlns="http://www.w3.org/2000/svg" xmlns:xlink="http://www.w3.org/1999/xlink" id="woman-three-7">
		<path d="M297.373,518.448c0.385-0.364,0.627-0.877,0.627-1.448v-7c0-1.104-0.896-2-2-2h-0.055c0.274-0.269,0.495-0.588,0.67-0.936    c0.238-0.473,0.385-0.999,0.385-1.564c0-1.934-1.566-3.5-3.5-3.5s-3.5,1.566-3.5,3.5c0,0.565,0.146,1.092,0.385,1.564    c0.175,0.348,0.396,0.667,0.67,0.936H291c-0.18,0-0.352,0.031-0.518,0.076c0.326,0.333,0.518,0.678,0.518,0.924h0.333H292h1h0.333    H294h1h1c0.552,0,1,0.448,1,1v7c0,0.179-0.06,0.338-0.143,0.483L296,515.875V512h-1v1v3.125l3.667,6.875H296h-4.2l-1.733-3.25    l1.934-3.625V513v-1h-1v3v0.875l-0.857,1.608C290.06,517.338,290,517.179,290,517v-7c0-1.104-0.896-2-2-2h-0.055    c0.275-0.27,0.496-0.59,0.671-0.938c0.237-0.472,0.384-0.998,0.384-1.563c0-1.934-1.566-3.5-3.5-3.5s-3.5,1.566-3.5,3.5    c0,0.565,0.146,1.092,0.385,1.564c0.175,0.348,0.396,0.667,0.67,0.936H283c-1.104,0-2,0.896-2,2v7c0,0.179-0.06,0.338-0.143,0.483    L280,515.875V515v-3h-1v1v3.125l1.934,3.625L279.2,523H275h-2.667l3.667-6.875V513v-1h-1v3.875l-0.857,1.608    C274.06,517.338,274,517.179,274,517v-7c0-0.552,0.448-1,1-1h0.333H276h1h0.333H278h1h1c0.062,0,0.115,0.024,0.174,0.035    c0.114-0.335,0.285-0.64,0.503-0.909C280.465,508.049,280.238,508,280,508h-0.055c0.274-0.269,0.495-0.588,0.67-0.936    c0.238-0.473,0.385-0.999,0.385-1.564c0-1.934-1.566-3.5-3.5-3.5s-3.5,1.566-3.5,3.5c0,0.565,0.146,1.092,0.385,1.564    c0.175,0.348,0.396,0.667,0.67,0.936H275c-1.104,0-2,0.896-2,2v5v2c0,0.571,0.242,1.084,0.627,1.448l-2.96,5.552H275v4    c0,0.553,0.447,1,1,1h3c0.553,0,1-0.447,1-1v-4h3v4c0,0.553,0.447,1,1,1h3c0.553,0,1-0.447,1-1v-4h3v4c0,0.553,0.447,1,1,1h3    c0.553,0,1-0.447,1-1v-4h4.333l-2.483-4.656L297.373,518.448z M293.5,503c1.379,0,2.5,1.121,2.5,2.5s-1.121,2.5-2.5,2.5    s-2.5-1.121-2.5-2.5S292.121,503,293.5,503z M277.5,503c1.379,0,2.5,1.121,2.5,2.5s-1.121,2.5-2.5,2.5s-2.5-1.121-2.5-2.5    S276.121,503,277.5,503z M285.5,503c1.379,0,2.5,1.121,2.5,2.5s-1.121,2.5-2.5,2.5s-2.5-1.121-2.5-2.5S284.121,503,285.5,503z     M276,528v-4h1v4H276z M279,528h-1v-4h0.667H279V528z M284,528v-4h0.333H285v4H284z M287,528h-1v-4h0.667H287V528z M288.333,523    H288h-5h-0.333h-2.334l3.667-6.875V513v-1h-1v3v0.875l-0.857,1.608C282.06,517.338,282,517.179,282,517v-7c0-0.552,0.448-1,1-1    h0.333H284h1h0.333H286h1h1c0.552,0,1,0.448,1,1v7c0,0.179-0.06,0.338-0.143,0.483L288,515.875V512h-1v1v3.125l3.667,6.875    H288.333z M292,528v-4h0.333H293v4H292z M295,528h-1v-4h1V528z"/>
	</g>
	
    </g>
</svg>
