<?xml version="1.0" encoding="iso-8859-1"?>
<!DOCTYPE svg PUBLIC "-//W3C//DTD SVG 1.1//EN" "http://www.w3.org/Graphics/SVG/1.1/DTD/svg11.dtd">
<svg version="1.1" xmlns="http://www.w3.org/2000/svg" xmlns:xlink="http://www.w3.org/1999/xlink" x="0px" y="0px" width="29" height="30" viewBox="0 0 29 30" xml:space="preserve">
    <g transform="translate(-90 -560)">
        <g xmlns="http://www.w3.org/2000/svg" xmlns:xlink="http://www.w3.org/1999/xlink" id="woman-win-7">
		<path d="M101,565.5c0,0.16,0.026,0.313,0.047,0.469l-5.727-5.031c-0.416-0.365-1.047-0.325-1.412,0.092l-0.66,0.75    c-0.364,0.416-0.323,1.047,0.092,1.412l8.66,7.607v2.101L97.747,583H102v5c0,0.553,0.447,1,1,1h3c0.553,0,1-0.447,1-1v-5h4.253    L107,572.899v-2.102l8.66-7.606c0.414-0.365,0.455-0.996,0.092-1.412l-0.66-0.75c-0.365-0.417-0.996-0.457-1.412-0.092    l-5.727,5.031c0.021-0.155,0.047-0.309,0.047-0.469c0-1.934-1.566-3.5-3.5-3.5S101,563.566,101,565.5z M104,588h-1v-5h1V588z     M106,588h-1v-5h1V588z M114.34,561.688l0.66,0.752l-9,7.906V573l3.747,9H99.253l3.747-9v-2.653l-9-7.907l0.66-0.752l8.34,7.328    V569h3v0.016L114.34,561.688z M107,565.5c0,1.379-1.121,2.5-2.5,2.5s-2.5-1.121-2.5-2.5s1.121-2.5,2.5-2.5S107,564.121,107,565.5z    "/>
	</g>
	
    </g>
</svg>
