<?xml version="1.0" encoding="iso-8859-1"?>
<!DOCTYPE svg PUBLIC "-//W3C//DTD SVG 1.1//EN" "http://www.w3.org/Graphics/SVG/1.1/DTD/svg11.dtd">
<svg version="1.1" xmlns="http://www.w3.org/2000/svg" xmlns:xlink="http://www.w3.org/1999/xlink" x="0px" y="0px" width="47" height="30" viewBox="0 0 47 30" xml:space="preserve">
    <g transform="translate(-542 -500)">
        <g xmlns="http://www.w3.org/2000/svg" xmlns:xlink="http://www.w3.org/1999/xlink" id="woman-five-7">
		<path d="M571,524v4c0,0.553,0.447,1,1,1h3c0.553,0,1-0.447,1-1v-4h3v4c0,0.553,0.447,1,1,1h3c0.553,0,1-0.447,1-1v-4h4.333    l-2.961-5.552c0.385-0.364,0.628-0.877,0.628-1.448v-7c0-1.104-0.896-2-2-2h-0.055c0.649-0.636,1.055-1.52,1.055-2.5    c0-1.934-1.566-3.5-3.5-3.5s-3.5,1.566-3.5,3.5c0,0.98,0.405,1.864,1.055,2.5H579c-0.18,0-0.352,0.031-0.518,0.076    c0.326,0.333,0.518,0.678,0.518,0.924h0.333H580h1h0.333H582h1h1c0.552,0,1,0.448,1,1v7c0,0.179-0.06,0.338-0.143,0.483    L584,515.875V512h-1v1v3.125l3.667,6.875H584h-4.2l-1.733-3.25l1.934-3.625V513v-1h-1v3v0.875l-0.857,1.608    C578.06,517.338,578,517.179,578,517v-7c0-1.104-0.896-2-2-2h-0.055c0.275-0.27,0.496-0.59,0.671-0.938    c0.237-0.472,0.384-0.998,0.384-1.563c0-1.934-1.566-3.5-3.5-3.5s-3.5,1.566-3.5,3.5c0,0.565,0.146,1.092,0.385,1.564    c0.175,0.348,0.396,0.667,0.67,0.936H571c-0.18,0-0.352,0.031-0.518,0.076c0.326,0.333,0.518,0.678,0.518,0.924h0.333H572h1h0.333    H574h1h1c0.552,0,1,0.448,1,1v7c0,0.179-0.06,0.338-0.143,0.483L576,515.875V512h-1v1v3.125l3.667,6.875h-2.334H576h-4.2    l-1.733-3.25l1.934-3.625V513v-1h-1v3v0.875l-0.857,1.608C570.06,517.338,570,517.179,570,517v-7c0-1.104-0.896-2-2-2h-0.055    c0.275-0.27,0.496-0.59,0.671-0.938c0.237-0.472,0.384-0.998,0.384-1.563c0-1.934-1.566-3.5-3.5-3.5s-3.5,1.566-3.5,3.5    c0,0.565,0.146,1.092,0.385,1.564c0.175,0.348,0.396,0.667,0.67,0.936H563c-1.104,0-2,0.896-2,2v7c0,0.179-0.06,0.338-0.143,0.483    L560,515.875V515v-3h-1v1v3.125l1.934,3.625L559.2,523H555h-0.333h-2.334l3.667-6.875V513v-1h-1v3.875l-0.857,1.608    C554.06,517.338,554,517.179,554,517v-7c0-0.552,0.448-1,1-1h0.333H556h1h0.333H558h1h1c0.062,0,0.115,0.024,0.174,0.035    c0.114-0.335,0.285-0.64,0.503-0.909C560.465,508.049,560.238,508,560,508h-0.055c0.274-0.269,0.495-0.588,0.67-0.936    c0.238-0.473,0.385-0.999,0.385-1.564c0-1.934-1.566-3.5-3.5-3.5s-3.5,1.566-3.5,3.5c0,0.565,0.146,1.092,0.385,1.564    c0.175,0.348,0.396,0.667,0.67,0.936H555c-1.104,0-2,0.896-2,2v7c0,0.179-0.06,0.338-0.143,0.483L552,515.875V515v-3h-1v1v3.125    l1.934,3.625L551.2,523H547h-2.667l3.667-6.875V513v-1h-1v3.875l-0.857,1.608C546.06,517.338,546,517.179,546,517v-7    c0-0.552,0.448-1,1-1h0.333H548h1h0.333H550h1h1c0.062,0,0.115,0.024,0.174,0.035c0.114-0.335,0.285-0.64,0.503-0.909    C552.465,508.049,552.238,508,552,508h-0.055c0.649-0.636,1.055-1.52,1.055-2.5c0-1.934-1.566-3.5-3.5-3.5s-3.5,1.566-3.5,3.5    c0,0.98,0.405,1.864,1.055,2.5H547c-1.104,0-2,0.896-2,2v7c0,0.571,0.243,1.084,0.628,1.448L542.667,524H547v4    c0,0.553,0.447,1,1,1h3c0.553,0,1-0.447,1-1v-4h3v4c0,0.553,0.447,1,1,1h3c0.553,0,1-0.447,1-1v-4h3v4c0,0.553,0.447,1,1,1h3    c0.553,0,1-0.447,1-1v-4H571z M579,505.5c0-1.379,1.121-2.5,2.5-2.5s2.5,1.121,2.5,2.5s-1.121,2.5-2.5,2.5S579,506.879,579,505.5z     M573.5,503c1.379,0,2.5,1.121,2.5,2.5s-1.121,2.5-2.5,2.5s-2.5-1.121-2.5-2.5S572.121,503,573.5,503z M583,524v4h-1v-4H583z     M581,524v4h-1v-4h0.333H581z M557.5,503c1.379,0,2.5,1.121,2.5,2.5s-1.121,2.5-2.5,2.5s-2.5-1.121-2.5-2.5S556.121,503,557.5,503    z M547,505.5c0-1.379,1.121-2.5,2.5-2.5s2.5,1.121,2.5,2.5s-1.121,2.5-2.5,2.5S547,506.879,547,505.5z M548,528v-4h1v4H548z     M551,528h-1v-4h0.667H551V528z M574.667,524H575v4h-1v-4H574.667z M573,524v4h-1v-4h0.333H573z M565.5,503    c1.379,0,2.5,1.121,2.5,2.5s-1.121,2.5-2.5,2.5s-2.5-1.121-2.5-2.5S564.121,503,565.5,503z M556,528v-4h0.333H557v4H556z M559,528    h-1v-4h0.667H559V528z M562.667,523h-2.334l3.667-6.875V513v-1h-1v3v0.875l-0.857,1.608C562.06,517.338,562,517.179,562,517v-7    c0-0.552,0.448-1,1-1h0.333H564h1h0.333H566h1h1c0.552,0,1,0.448,1,1v7c0,0.179-0.06,0.338-0.143,0.483L568,515.875V515v-3h-1v1    v3.125l3.667,6.875h-2.334H568h-5H562.667z M564,528v-4h0.333H565v4H564z M567,528h-1v-4h0.667H567V528z"/>
	</g>
	
    </g>
</svg>
