<?xml version="1.0" encoding="iso-8859-1"?>
<!DOCTYPE svg PUBLIC "-//W3C//DTD SVG 1.1//EN" "http://www.w3.org/Graphics/SVG/1.1/DTD/svg11.dtd">
<svg version="1.1" xmlns="http://www.w3.org/2000/svg" xmlns:xlink="http://www.w3.org/1999/xlink" x="0px" y="0px" width="29" height="30" viewBox="0 0 29 30" xml:space="preserve">
    <g transform="translate(-150 -500)">
        <g xmlns="http://www.w3.org/2000/svg" xmlns:xlink="http://www.w3.org/1999/xlink" id="woman-woman-7">
		<path d="M156,524v4c0,0.553,0.447,1,1,1h3c0.553,0,1-0.447,1-1v-4h7v4c0,0.553,0.447,1,1,1h3c0.553,0,1-0.447,1-1v-4h4.333    l-2.96-5.551c0.384-0.365,0.627-0.877,0.627-1.449v-7c0-1.104-0.896-2-2-2h-0.055c0.649-0.635,1.055-1.52,1.055-2.5    c0-1.934-1.566-3.5-3.5-3.5s-3.5,1.566-3.5,3.5c0,0.98,0.405,1.865,1.055,2.5H168c-1.104,0-2,0.896-2,2v7    c0,0.572,0.243,1.084,0.627,1.449l-2.127,3.988l-2.127-3.988c0.384-0.365,0.627-0.877,0.627-1.449v-7c0-1.104-0.896-2-2-2h-0.055    c0.649-0.635,1.055-1.52,1.055-2.5c0-1.934-1.566-3.5-3.5-3.5s-3.5,1.566-3.5,3.5c0,0.98,0.405,1.865,1.055,2.5H156    c-1.104,0-2,0.896-2,2v7c0,0.572,0.243,1.084,0.627,1.449l-2.96,5.551H156z M170,528h-1v-4h1V528z M172,528h-1v-4h1V528z     M168,505.5c0-1.379,1.121-2.5,2.5-2.5s2.5,1.121,2.5,2.5s-1.121,2.5-2.5,2.5S168,506.879,168,505.5z M169,516.125V512h-1v3.875    l-0.857,1.608C167.06,517.338,167,517.179,167,517v-7c0-0.552,0.448-1,1-1h5c0.552,0,1,0.448,1,1v7    c0,0.179-0.06,0.338-0.143,0.483L173,515.875V512h-1v4.125l3.667,6.875h-10.334L169,516.125z M158,528h-1v-4h1V528z M160,528h-1    v-4h1V528z M156,505.5c0-1.379,1.121-2.5,2.5-2.5s2.5,1.121,2.5,2.5s-1.121,2.5-2.5,2.5S156,506.879,156,505.5z M156,512v3.875    l-0.857,1.608C155.06,517.338,155,517.179,155,517v-7c0-0.552,0.448-1,1-1h5c0.552,0,1,0.448,1,1v7    c0,0.179-0.06,0.338-0.143,0.483L161,515.875V512h-1v4.125l3.667,6.875h-10.334l3.667-6.875V512H156z"/>
	</g>
	
    </g>
</svg>
