<?xml version="1.0" encoding="iso-8859-1"?>
<!DOCTYPE svg PUBLIC "-//W3C//DTD SVG 1.1//EN" "http://www.w3.org/Graphics/SVG/1.1/DTD/svg11.dtd">
<svg version="1.1" xmlns="http://www.w3.org/2000/svg" xmlns:xlink="http://www.w3.org/1999/xlink" x="0px" y="0px" width="29" height="30" viewBox="0 0 29 30" xml:space="preserve">
    <g transform="translate(-90 -440)">
        <g xmlns="http://www.w3.org/2000/svg" xmlns:xlink="http://www.w3.org/1999/xlink" id="woman-check-7">
		<path d="M103,457v-6.576c-0.36,0.158-0.689,0.367-1,0.603V457c0,0.179-0.06,0.338-0.143,0.483L101,455.875v-3.844    c-0.619,0.833-1,1.854-1,2.969c0,0.617,0.127,1.202,0.333,1.749l0.62,1.164c0.514,0.71,1.203,1.28,2.01,1.644l-0.59-1.107    C102.757,458.084,103,457.572,103,457z"/>
		<path d="M103.667,463H93.333L97,456.125V455v-3h-1v3.875l-0.857,1.608C95.06,457.338,95,457.179,95,457v-7c0-0.552,0.448-1,1-1    h3.727c0.426-0.376,0.891-0.709,1.39-0.988C101.077,448.01,101.04,448,101,448h-0.055c0.649-0.635,1.055-1.52,1.055-2.5    c0-1.934-1.566-3.5-3.5-3.5s-3.5,1.566-3.5,3.5c0,0.98,0.405,1.865,1.055,2.5H96c-1.104,0-2,0.896-2,2v7    c0,0.572,0.243,1.084,0.627,1.449L91.667,464H96v4c0,0.553,0.447,1,1,1h3c0.553,0,1-0.447,1-1v-4h4.333l-0.538-1.01    c-0.405-0.011-0.805-0.05-1.196-0.118L103.667,463z M96,445.5c0-1.379,1.121-2.5,2.5-2.5s2.5,1.121,2.5,2.5s-1.121,2.5-2.5,2.5    S96,446.879,96,445.5z M98,468h-1v-4h1V468z M100,468h-1v-4h1V468z"/>
		<path d="M112,455c0.001-3.865-3.134-7-7-7s-7,3.135-7,7c-0.001,3.867,3.133,7,7,7c1.754,0,3.352-0.648,4.58-1.713l7.087,7.088    l0.707-0.707l-7.087-7.088C111.352,458.352,112,456.754,112,455z M105,461c-3.314,0-6-2.686-6-6c0.001-3.313,2.686-6,6-6    c3.313,0,6,2.686,6,6c0,1.649-0.666,3.143-1.742,4.227l-0.031,0.031C108.143,460.334,106.648,461,105,461z"/>
	</g>
	
    </g>
</svg>
