<?xml version="1.0" encoding="iso-8859-1"?>
<!DOCTYPE svg PUBLIC "-//W3C//DTD SVG 1.1//EN" "http://www.w3.org/Graphics/SVG/1.1/DTD/svg11.dtd">
<svg version="1.1" xmlns="http://www.w3.org/2000/svg" xmlns:xlink="http://www.w3.org/1999/xlink" x="0px" y="0px" width="39" height="30" viewBox="0 0 39 30" xml:space="preserve">
    <g transform="translate(-396 -500)">
        <g xmlns="http://www.w3.org/2000/svg" xmlns:xlink="http://www.w3.org/1999/xlink" id="woman-four-7">
		<path d="M431.85,519.344l-0.478-0.896c0.385-0.364,0.628-0.877,0.628-1.448v-7c0-1.104-0.896-2-2-2h-0.055    c0.274-0.269,0.495-0.588,0.67-0.936c0.238-0.473,0.385-0.999,0.385-1.564c0-1.934-1.566-3.5-3.5-3.5s-3.5,1.566-3.5,3.5    c0,0.565,0.146,1.092,0.385,1.564c0.175,0.348,0.396,0.667,0.67,0.936H425c-0.18,0-0.352,0.031-0.518,0.076    c0.326,0.333,0.518,0.678,0.518,0.924h0.333H426h1h0.333H428h1h1c0.552,0,1,0.448,1,1v7c0,0.179-0.06,0.338-0.143,0.483    L430,515.875V512h-1v1v3.125l3.667,6.875H430h-4.2l-1.733-3.25l1.934-3.625V513v-1h-1v3v0.875l-0.857,1.608    C424.06,517.338,424,517.179,424,517v-7c0-1.104-0.896-2-2-2h-0.055c0.275-0.27,0.496-0.59,0.671-0.938    c0.237-0.472,0.384-0.998,0.384-1.563c0-1.934-1.566-3.5-3.5-3.5s-3.5,1.566-3.5,3.5c0,0.565,0.146,1.092,0.385,1.564    c0.175,0.348,0.396,0.667,0.67,0.936H417c-1.104,0-2,0.896-2,2v7c0,0.179-0.06,0.338-0.143,0.483L414,515.875V515v-3h-1v1v3.125    l1.934,3.625L413.2,523H409h-0.333h-2.334l3.667-6.875V513v-1h-1v3.875l-0.857,1.608C408.06,517.338,408,517.179,408,517v-7    c0-0.552,0.448-1,1-1h0.333H410h1h0.333H412h1h1c0.062,0,0.115,0.024,0.174,0.035c0.114-0.335,0.285-0.64,0.503-0.909    C414.465,508.049,414.238,508,414,508h-0.055c0.274-0.269,0.495-0.588,0.67-0.936c0.238-0.473,0.385-0.999,0.385-1.564    c0-1.934-1.566-3.5-3.5-3.5s-3.5,1.566-3.5,3.5c0,0.565,0.146,1.092,0.385,1.564c0.175,0.348,0.396,0.667,0.67,0.936H409    c-1.104,0-2,0.896-2,2v7c0,0.179-0.06,0.338-0.143,0.483L406,515.875V515v-3h-1v1v3.125l1.934,3.625L405.2,523H401h-2.667    l3.667-6.875V513v-1h-1v3.875l-0.857,1.608C400.06,517.338,400,517.179,400,517v-7c0-0.552,0.448-1,1-1h0.333H402h1h0.333H404h1h1    c0.062,0,0.115,0.024,0.174,0.035c0.114-0.335,0.285-0.64,0.503-0.909C406.465,508.049,406.238,508,406,508h-0.055    c0.649-0.636,1.055-1.52,1.055-2.5c0-1.934-1.566-3.5-3.5-3.5s-3.5,1.566-3.5,3.5c0,0.98,0.405,1.864,1.055,2.5H401    c-1.104,0-2,0.896-2,2v7c0,0.571,0.243,1.084,0.628,1.448L396.667,524H401v4c0,0.553,0.447,1,1,1h3c0.553,0,1-0.447,1-1v-4h3v4    c0,0.553,0.447,1,1,1h3c0.553,0,1-0.447,1-1v-4h3v4c0,0.553,0.447,1,1,1h3c0.553,0,1-0.447,1-1v-4h3v4c0,0.553,0.447,1,1,1h3    c0.553,0,1-0.447,1-1v-4h4.333L431.85,519.344z M427.5,503c1.379,0,2.5,1.121,2.5,2.5s-1.121,2.5-2.5,2.5s-2.5-1.121-2.5-2.5    S426.121,503,427.5,503z M411.5,503c1.379,0,2.5,1.121,2.5,2.5s-1.121,2.5-2.5,2.5s-2.5-1.121-2.5-2.5S410.121,503,411.5,503z     M401,505.5c0-1.379,1.121-2.5,2.5-2.5s2.5,1.121,2.5,2.5s-1.121,2.5-2.5,2.5S401,506.879,401,505.5z M402,528v-4h1v4H402z     M405,528h-1v-4h0.667H405V528z M419.5,503c1.379,0,2.5,1.121,2.5,2.5s-1.121,2.5-2.5,2.5s-2.5-1.121-2.5-2.5    S418.121,503,419.5,503z M410,528v-4h0.333H411v4H410z M413,528h-1v-4h0.667H413V528z M418,528v-4h0.333H419v4H418z M421,528h-1    v-4h0.667H421V528z M422.333,523H422h-5h-0.333h-2.334l3.667-6.875V513v-1h-1v3v0.875l-0.857,1.608    C416.06,517.338,416,517.179,416,517v-7c0-0.552,0.448-1,1-1h0.333H418h1h0.333H420h1h1c0.552,0,1,0.448,1,1v7    c0,0.179-0.06,0.338-0.143,0.483L422,515.875V512h-1v1v3.125l3.667,6.875H422.333z M426,528v-4h0.333H427v4H426z M429,528h-1v-4h1    V528z"/>
	</g>
	
    </g>
</svg>
