<?xml version="1.0" encoding="iso-8859-1"?>
<!DOCTYPE svg PUBLIC "-//W3C//DTD SVG 1.1//EN" "http://www.w3.org/Graphics/SVG/1.1/DTD/svg11.dtd">
<svg version="1.1" xmlns="http://www.w3.org/2000/svg" xmlns:xlink="http://www.w3.org/1999/xlink" x="0px" y="0px" width="29" height="30" viewBox="0 0 29 30" xml:space="preserve">
    <g transform="translate(-390 -380)">
        <g xmlns="http://www.w3.org/2000/svg" xmlns:xlink="http://www.w3.org/1999/xlink" id="woman-upload-7">
		<path d="M419,401.5c0-4.143-3.357-7.5-7.5-7.5c-0.878,0-1.717,0.159-2.5,0.436V390c0-1.104-0.896-2-2-2h-0.055    c0.649-0.635,1.055-1.52,1.055-2.5c0-1.934-1.566-3.5-3.5-3.5s-3.5,1.566-3.5,3.5c0,0.98,0.405,1.865,1.055,2.5H402    c-1.104,0-2,0.896-2,2v7c0,0.572,0.243,1.084,0.627,1.449l-2.96,5.551H402v4c0,0.553,0.447,1,1,1h3c0.553,0,1-0.447,1-1v-0.51    c1.254,0.943,2.809,1.51,4.5,1.51C415.643,409,419,405.643,419,401.5z M402,385.5c0-1.379,1.121-2.5,2.5-2.5s2.5,1.121,2.5,2.5    s-1.121,2.5-2.5,2.5S402,386.879,402,385.5z M399.333,403l3.667-6.875V392h-1v3.875l-0.857,1.608    C401.06,397.338,401,397.179,401,397v-7c0-0.552,0.448-1,1-1h5c0.552,0,1,0.448,1,1v4.869c-0.352,0.186-0.684,0.403-1,0.641V392    h-1v4.125l0.097,0.181c-1.296,1.348-2.097,3.176-2.097,5.194c0,0.514,0.052,1.016,0.15,1.5H399.333z M404,408h-1v-4h1V408z     M405,408v-2.769c0.282,0.49,0.618,0.943,1,1.355V408H405z M411.5,408c-3.59,0-6.5-2.91-6.5-6.5s2.91-6.5,6.5-6.5    s6.5,2.91,6.5,6.5S415.09,408,411.5,408z"/>
		<polygon points="407.411,401.898 408.144,402.58 411,399.507 411,405 412,405 412,399.505 414.857,402.58 415.59,401.898     411.501,397.5   "/>
	</g>
	
    </g>
</svg>
