<?xml version="1.0" encoding="iso-8859-1"?>
<!DOCTYPE svg PUBLIC "-//W3C//DTD SVG 1.1//EN" "http://www.w3.org/Graphics/SVG/1.1/DTD/svg11.dtd">
<svg version="1.1" xmlns="http://www.w3.org/2000/svg" xmlns:xlink="http://www.w3.org/1999/xlink" x="0px" y="0px" width="29" height="30" viewBox="0 0 29 30" xml:space="preserve">
    <g transform="translate(-30 -380)">
        <g xmlns="http://www.w3.org/2000/svg" xmlns:xlink="http://www.w3.org/1999/xlink" id="woman-7">
		<path d="M42,404v4c0,0.553,0.447,1,1,1h3c0.553,0,1-0.447,1-1v-4h4.333l-2.96-5.551C48.757,398.084,49,397.572,49,397v-7    c0-1.104-0.896-2-2-2h-0.055c0.649-0.635,1.055-1.52,1.055-2.5c0-1.934-1.566-3.5-3.5-3.5s-3.5,1.566-3.5,3.5    c0,0.98,0.405,1.865,1.055,2.5H42c-1.104,0-2,0.896-2,2v7c0,0.572,0.243,1.084,0.627,1.449L37.667,404H42z M44,408h-1v-4h1V408z     M46,408h-1v-4h1V408z M42,385.5c0-1.379,1.121-2.5,2.5-2.5s2.5,1.121,2.5,2.5s-1.121,2.5-2.5,2.5S42,386.879,42,385.5z M42,392    v3.875l-0.857,1.608C41.06,397.338,41,397.179,41,397v-7c0-0.552,0.448-1,1-1h5c0.552,0,1,0.448,1,1v7    c0,0.179-0.06,0.338-0.143,0.483L47,395.875V392h-1v4.125L49.667,403H39.333L43,396.125V392H42z"/>
	</g>
	
    </g>
</svg>
