<?xml version="1.0" encoding="iso-8859-1"?>
<!DOCTYPE svg PUBLIC "-//W3C//DTD SVG 1.1//EN" "http://www.w3.org/Graphics/SVG/1.1/DTD/svg11.dtd">
<svg version="1.1" xmlns="http://www.w3.org/2000/svg" xmlns:xlink="http://www.w3.org/1999/xlink" x="0px" y="0px" width="29" height="30" viewBox="0 0 29 30" xml:space="preserve">
    <g transform="translate(-30 -500)">
        <g xmlns="http://www.w3.org/2000/svg" xmlns:xlink="http://www.w3.org/1999/xlink" id="woman-man-7">
		<path d="M36,524v4c0,0.553,0.447,1,1,1h3c0.553,0,1-0.447,1-1v-4h4.333l-2.96-5.551C42.757,518.084,43,517.572,43,517v-7    c0-1.104-0.896-2-2-2h-0.055c0.649-0.635,1.055-1.52,1.055-2.5c0-1.934-1.566-3.5-3.5-3.5s-3.5,1.566-3.5,3.5    c0,0.98,0.405,1.865,1.055,2.5H36c-1.104,0-2,0.896-2,2v7c0,0.572,0.243,1.084,0.627,1.449L31.667,524H36z M38,528h-1v-4h1V528z     M40,528h-1v-4h1V528z M36,505.5c0-1.379,1.121-2.5,2.5-2.5s2.5,1.121,2.5,2.5s-1.121,2.5-2.5,2.5S36,506.879,36,505.5z M36,512    v3.875l-0.857,1.608C35.06,517.338,35,517.179,35,517v-7c0-0.552,0.448-1,1-1h5c0.552,0,1,0.448,1,1v7    c0,0.179-0.06,0.338-0.143,0.483L41,515.875V512h-1v4.125L43.667,523H33.333L37,516.125V512H36z"/>
		<path d="M45,510v7c0,1.104,0.896,2,2,2v9c0,0.553,0.447,1,1,1h5c0.553,0,1-0.447,1-1v-9c1.104,0,2-0.896,2-2v-7    c0-1.104-0.896-2-2-2h-1.055c0.649-0.635,1.055-1.52,1.055-2.5c0-1.934-1.566-3.5-3.5-3.5s-3.5,1.566-3.5,3.5    c0,0.98,0.405,1.865,1.055,2.5H47C45.896,508,45,508.896,45,510z M48,505.5c0-1.379,1.121-2.5,2.5-2.5s2.5,1.121,2.5,2.5    s-1.121,2.5-2.5,2.5S48,506.879,48,505.5z M54,509c0.552,0,1,0.448,1,1v7c0,0.552-0.448,1-1,1v-6h-1v16h-2v-10h-1v10h-2v-16h-1v6    c-0.552,0-1-0.448-1-1v-7c0-0.552,0.448-1,1-1H54z"/>
	</g>
	
    </g>
</svg>
