<?xml version="1.0" encoding="iso-8859-1"?>
<!DOCTYPE svg PUBLIC "-//W3C//DTD SVG 1.1//EN" "http://www.w3.org/Graphics/SVG/1.1/DTD/svg11.dtd">
<svg version="1.1" xmlns="http://www.w3.org/2000/svg" xmlns:xlink="http://www.w3.org/1999/xlink" x="0px" y="0px" width="30" height="30" viewBox="0 0 30 30" xml:space="preserve">
    <g transform="translate(-570 -440)">
        <g xmlns="http://www.w3.org/2000/svg" xmlns:xlink="http://www.w3.org/1999/xlink" id="woman-woman-hand-7">
		<path d="M575,468c0,0.553,0.447,1,1,1h3c0.553,0,1-0.447,1-1v-4h4.333L580,455.875v-3.03l3.319,5.748    c0.346,0.6,1.042,0.863,1.681,0.694c0.639,0.169,1.335-0.095,1.681-0.694l3.319-5.748v3.03L585.667,464H590v4c0,0.553,0.447,1,1,1    h3c0.553,0,1-0.447,1-1v-4h4.333l-2.961-5.552c0.385-0.364,0.628-0.877,0.628-1.448v-7c0-1.104-0.896-2-2-2h-0.055    c0.649-0.636,1.055-1.52,1.055-2.5c0-1.934-1.566-3.5-3.5-3.5s-3.5,1.566-3.5,3.5c0,0.98,0.405,1.864,1.055,2.5h-0.722    L585,455.506L580.667,448h-0.722c0.649-0.636,1.055-1.52,1.055-2.5c0-1.934-1.566-3.5-3.5-3.5s-3.5,1.566-3.5,3.5    c0,0.98,0.405,1.864,1.055,2.5H575c-1.104,0-2,0.896-2,2v7c0,0.571,0.243,1.084,0.628,1.448L570.667,464H575V468z M576,468v-4h1v4    H576z M579,468h-1v-4h1V468z M591,468v-4h1v4H591z M594,468h-1v-4h1V468z M590,445.5c0-1.379,1.121-2.5,2.5-2.5s2.5,1.121,2.5,2.5    s-1.121,2.5-2.5,2.5S590,446.879,590,445.5z M589.908,449h0.425h0.732H592h0.333h1H595c0.552,0,1,0.448,1,1v7    c0,0.179-0.06,0.338-0.143,0.483L595,455.875V452h-1v1v3.125l3.667,6.875H595h-5h-2.667l3.667-6.875V453v-1h-1h-0.667v-0.001    l-3.238,5.606c-0.028-0.175-0.084-0.349-0.178-0.512l-0.341-0.59L589.908,449z M575,445.5c0-1.379,1.121-2.5,2.5-2.5    s2.5,1.121,2.5,2.5s-1.121,2.5-2.5,2.5S575,446.879,575,445.5z M572.333,463l3.667-6.875V453v-1h-1v3.875l-0.857,1.608    C574.06,457.338,574,457.179,574,457v-7c0-0.552,0.448-1,1-1h1.667h1H578h0.935h0.732h0.425l4.96,8.593    c0.138,0.239,0.055,0.546-0.183,0.684c-0.239,0.138-0.546,0.056-0.683-0.184l-3.52-6.094V452H580h-1v1v3.125l3.667,6.875H580h-5    H572.333z"/>
	</g>
	
    </g>
</svg>
