<?xml version="1.0" encoding="iso-8859-1"?>
<!DOCTYPE svg PUBLIC "-//W3C//DTD SVG 1.1//EN" "http://www.w3.org/Graphics/SVG/1.1/DTD/svg11.dtd">
<svg version="1.1" xmlns="http://www.w3.org/2000/svg" xmlns:xlink="http://www.w3.org/1999/xlink" x="0px" y="0px" width="29" height="30" viewBox="0 0 29 30" xml:space="preserve">
    <g transform="translate(-510 -380)">
        <g xmlns="http://www.w3.org/2000/svg" xmlns:xlink="http://www.w3.org/1999/xlink" id="woman-error-7">
		<path d="M528.867,397.689c0.081-0.216,0.133-0.445,0.133-0.689v-7c0-1.104-0.896-2-2-2h-0.055c0.649-0.635,1.055-1.52,1.055-2.5    c0-1.934-1.566-3.5-3.5-3.5s-3.5,1.566-3.5,3.5c0,0.98,0.405,1.865,1.055,2.5H522c-1.104,0-2,0.896-2,2v7    c0,0.572,0.243,1.084,0.627,1.449l-2.96,5.551H522v4c0,0.237,0.095,0.446,0.232,0.617L522,409h1h3h13l-8.5-14L528.867,397.689z     M528.482,398.323l-0.094,0.155l-0.016-0.029C528.413,398.411,528.445,398.364,528.482,398.323z M522,385.5    c0-1.379,1.121-2.5,2.5-2.5s2.5,1.121,2.5,2.5s-1.121,2.5-2.5,2.5S522,386.879,522,385.5z M519.333,403l3.667-6.875V392h-1v3.875    l-0.857,1.608C521.06,397.338,521,397.179,521,397v-7c0-0.552,0.448-1,1-1h5c0.552,0,1,0.448,1,1v7    c0,0.179-0.06,0.338-0.143,0.483L527,395.875V392h-1v4.125l1.785,3.347L525.643,403H519.333z M525.036,404L525,404.059V404    H525.036z M523,404h1v1.706l-1,1.646V404z M526,408h-1h-1h-0.223l6.723-11.073L537.223,408H526z"/>
		<rect x="530" y="400" width="1" height="5"/>
		<rect x="530" y="406" width="1" height="1"/>
	</g>
	
    </g>
</svg>
