<?xml version="1.0" encoding="iso-8859-1"?>
<!DOCTYPE svg PUBLIC "-//W3C//DTD SVG 1.1//EN" "http://www.w3.org/Graphics/SVG/1.1/DTD/svg11.dtd">
<svg version="1.1" xmlns="http://www.w3.org/2000/svg" xmlns:xlink="http://www.w3.org/1999/xlink" x="0px" y="0px" width="30" height="30" viewBox="0 0 30 30" xml:space="preserve">
    <g transform="translate(-330 -440)">
        <g xmlns="http://www.w3.org/2000/svg" xmlns:xlink="http://www.w3.org/1999/xlink" id="woman-child-7">
		<path d="M350,469h3c0.553,0,1-0.447,1-1v-5.277c0.596-0.347,1-0.984,1-1.723v-3c0-0.951-0.666-1.744-1.556-1.946    c0.343-0.428,0.556-0.963,0.556-1.554c0-1.381-1.119-2.5-2.5-2.5s-2.5,1.119-2.5,2.5c0,0.591,0.213,1.126,0.556,1.554    c-0.89,0.202-1.556,0.995-1.556,1.946v3c0,0.738,0.404,1.376,1,1.723V468C349,468.553,349.447,469,350,469z M351.5,453    c0.827,0,1.5,0.673,1.5,1.5s-0.673,1.5-1.5,1.5s-1.5-0.673-1.5-1.5S350.673,453,351.5,453z M349,458c0-0.552,0.448-1,1-1h1h1h1    c0.552,0,1,0.448,1,1v3h-1v7h-1v-5c-0.596,0-1,0-1,0v5h-1v-7h-1V458z"/>
		<path d="M338,464v4c0,0.553,0.447,1,1,1h3c0.553,0,1-0.447,1-1v-4h4.333l-2.96-5.551c0.384-0.365,0.627-0.877,0.627-1.449v-7    c0-1.104-0.896-2-2-2h-0.055c0.649-0.635,1.055-1.52,1.055-2.5c0-1.934-1.566-3.5-3.5-3.5s-3.5,1.566-3.5,3.5    c0,0.98,0.405,1.865,1.055,2.5H338c-1.104,0-2,0.896-2,2v7c0,0.572,0.243,1.084,0.627,1.449l-2.96,5.551H338z M340,468h-1v-4h1    V468z M342,468h-1v-4h1V468z M338,445.5c0-1.379,1.121-2.5,2.5-2.5s2.5,1.121,2.5,2.5s-1.121,2.5-2.5,2.5S338,446.879,338,445.5z     M338,452v3.875l-0.857,1.608C337.06,457.338,337,457.179,337,457v-7c0-0.552,0.448-1,1-1h5c0.552,0,1,0.448,1,1v7    c0,0.179-0.06,0.338-0.143,0.483L343,455.875V452h-1v4.125l3.667,6.875h-10.334l3.667-6.875V452H338z"/>
	</g>
	
    </g>
</svg>
