<?xml version="1.0" encoding="iso-8859-1"?>
<!DOCTYPE svg PUBLIC "-//W3C//DTD SVG 1.1//EN" "http://www.w3.org/Graphics/SVG/1.1/DTD/svg11.dtd">
<svg version="1.1" xmlns="http://www.w3.org/2000/svg" xmlns:xlink="http://www.w3.org/1999/xlink" x="0px" y="0px" width="29" height="30" viewBox="0 0 29 30" xml:space="preserve">
    <g transform="translate(-570 -380)">
        <g xmlns="http://www.w3.org/2000/svg" xmlns:xlink="http://www.w3.org/1999/xlink" id="woman-off-7">
		<path d="M589.667,403h-10.334l3.667-6.875v-1.211l-1-1v1.961l-0.857,1.608C581.06,397.338,581,397.179,581,397v-4.086l-1-1V397    c0,0.572,0.243,1.084,0.627,1.449l-2.96,5.551H582v4c0,0.553,0.447,1,1,1h3c0.553,0,1-0.447,1-1v-4h4.333l-0.86-1.613    l-2.428-2.428L589.667,403z M584,408h-1v-4h1V408z M586,408h-1v-4h1V408z"/>
		<path d="M597.229,407.729l0.707-0.707l-9.146-9.146C588.92,397.61,589,397.316,589,397v-7c0-1.104-0.896-2-2-2h-0.055    c0.649-0.635,1.055-1.52,1.055-2.5c0-1.934-1.566-3.5-3.5-3.5s-3.5,1.566-3.5,3.5c0,0.98,0.405,1.865,1.055,2.5H582    c-0.834,0-1.548,0.512-1.848,1.238l-7.674-7.673l-0.707,0.707L597.229,407.729z M582,385.5c0-1.379,1.121-2.5,2.5-2.5    s2.5,1.121,2.5,2.5s-1.121,2.5-2.5,2.5S582,386.879,582,385.5z M581,390c0-0.552,0.448-1,1-1h5c0.552,0,1,0.448,1,1v7    c0,0.026-0.01,0.049-0.012,0.074l-0.747-0.748L587,395.875V392h-1v3.086l-3-3V392h-0.086L581,390.086V390z"/>
	</g>
	
    </g>
</svg>
