<?xml version="1.0" encoding="iso-8859-1"?>
<!DOCTYPE svg PUBLIC "-//W3C//DTD SVG 1.1//EN" "http://www.w3.org/Graphics/SVG/1.1/DTD/svg11.dtd">
<svg version="1.1" xmlns="http://www.w3.org/2000/svg" xmlns:xlink="http://www.w3.org/1999/xlink" x="0px" y="0px" width="29" height="30" viewBox="0 0 29 30" xml:space="preserve">
    <g transform="translate(-450 -380)">
        <g xmlns="http://www.w3.org/2000/svg" xmlns:xlink="http://www.w3.org/1999/xlink" id="woman-lock-7">
		<path d="M479,398h-2v-1c0-2.485-2.015-4.5-4.5-4.5c-1.423,0-2.676,0.673-3.5,1.703V390c0-1.104-0.896-2-2-2h-0.055    c0.649-0.635,1.055-1.52,1.055-2.5c0-1.934-1.566-3.5-3.5-3.5s-3.5,1.566-3.5,3.5c0,0.98,0.405,1.865,1.055,2.5H462    c-1.104,0-2,0.896-2,2v7c0,0.572,0.243,1.084,0.627,1.449l-2.96,5.551H462v4c0,0.553,0.447,1,1,1h3h13V398z M472.5,393.5    c1.93,0,3.5,1.57,3.5,3.5v1h-7v-1C469,395.07,470.57,393.5,472.5,393.5z M462,385.5c0-1.379,1.121-2.5,2.5-2.5s2.5,1.121,2.5,2.5    s-1.121,2.5-2.5,2.5S462,386.879,462,385.5z M459.333,403l3.667-6.875V392h-1v3.875l-0.857,1.608    C461.06,397.338,461,397.179,461,397v-7c0-0.552,0.448-1,1-1h5c0.552,0,1,0.448,1,1v7c0,0.179-0.06,0.338-0.143,0.483L467,395.875    V392h-1v4.125l1,1.875h-1v5H459.333z M464,408h-1v-4h1V408z M465,408v-4h1v4H465z M478,408h-11v-4v-5h11V408z"/>
		<path d="M471,402.5c0,0.652,0.419,1.201,1,1.408V406h1v-2.092c0.581-0.207,1-0.756,1-1.408c0-0.828-0.672-1.5-1.5-1.5    S471,401.672,471,402.5z"/>
	</g>
	
    </g>
</svg>
