<?xml version="1.0" encoding="iso-8859-1"?>
<!DOCTYPE svg PUBLIC "-//W3C//DTD SVG 1.1//EN" "http://www.w3.org/Graphics/SVG/1.1/DTD/svg11.dtd">
<svg version="1.1" xmlns="http://www.w3.org/2000/svg" xmlns:xlink="http://www.w3.org/1999/xlink" x="0px" y="0px" width="30" height="30" viewBox="0 0 30 30" xml:space="preserve">
    <g transform="translate(-210 -320)">
        <g xmlns="http://www.w3.org/2000/svg" xmlns:xlink="http://www.w3.org/1999/xlink" id="compass-point-off-7">
		<path d="M238,335c0-7.18-5.82-13-13-13c-3.229,0-6.178,1.185-8.451,3.135l-3.57-3.57l-0.707,0.707l25.457,25.457l0.707-0.707    l-3.57-3.57C236.815,341.178,238,338.229,238,335z M224.689,333.275l3.865-1.83l-1.83,3.865L224.689,333.275z M227.475,336.061    l3.183-6.717l-6.718,3.182l-6.68-6.68c2.091-1.771,4.791-2.846,7.74-2.846c6.617,0,12,5.383,12,12c0,2.949-1.074,5.649-2.846,7.74    L227.475,336.061z"/>
		<path d="M225,347c-6.617,0-12-5.383-12-12c0-2.949,1.074-5.649,2.846-7.74l-0.711-0.711c-1.95,2.273-3.135,5.222-3.135,8.451    c0,7.18,5.82,13,13,13c3.229,0,6.178-1.185,8.451-3.135l-0.711-0.711C230.649,345.926,227.949,347,225,347z"/>
		<polygon points="222.879,337.121 224.293,342.778 226.566,337.98 225.814,337.229 224.586,339.824 223.703,336.297     220.176,335.414 222.771,334.185 222.021,333.435 217.222,335.707   "/>
	</g>
	
    </g>
</svg>
