<?xml version="1.0" encoding="iso-8859-1"?>
<!DOCTYPE svg PUBLIC "-//W3C//DTD SVG 1.1//EN" "http://www.w3.org/Graphics/SVG/1.1/DTD/svg11.dtd">
<svg version="1.1" xmlns="http://www.w3.org/2000/svg" xmlns:xlink="http://www.w3.org/1999/xlink" x="0px" y="0px" width="30" height="30" viewBox="0 0 30 30" xml:space="preserve">
    <g transform="translate(-30 -320)">
        <g xmlns="http://www.w3.org/2000/svg" xmlns:xlink="http://www.w3.org/1999/xlink" id="compass-point-7">
		<path d="M45,322c-7.18,0-13,5.82-13,13s5.82,13,13,13s13-5.82,13-13S52.18,322,45,322z M45,347c-6.617,0-12-5.383-12-12    s5.383-12,12-12s12,5.383,12,12S51.617,347,45,347z"/>
		<path d="M42.879,337.121l1.414,5.657l6.364-13.435l-13.436,6.363L42.879,337.121z M44.586,339.824l-0.883-3.527l-3.527-0.883    l8.379-3.969L44.586,339.824z"/>
	</g>
	
    </g>
</svg>
