<?xml version="1.0" encoding="iso-8859-1"?>
<!DOCTYPE svg PUBLIC "-//W3C//DTD SVG 1.1//EN" "http://www.w3.org/Graphics/SVG/1.1/DTD/svg11.dtd">
<svg version="1.1" xmlns="http://www.w3.org/2000/svg" xmlns:xlink="http://www.w3.org/1999/xlink" x="0px" y="0px" width="30" height="30" viewBox="0 0 30 30" xml:space="preserve">
    <g transform="translate(-90 -320)">
        <g xmlns="http://www.w3.org/2000/svg" xmlns:xlink="http://www.w3.org/1999/xlink" id="compass-point-tick-7">
		<path d="M95.222,335.707l5.657,1.414l1.414,5.657l6.364-13.435L95.222,335.707z M101.703,336.297l-3.527-0.883l8.379-3.969    l-3.969,8.379L101.703,336.297z"/>
		<path d="M115.957,335.849c0.019-0.282,0.043-0.563,0.043-0.849c0-7.18-5.82-13-13-13s-13,5.82-13,13s5.82,13,13,13    c1.34,0,2.632-0.203,3.848-0.58c1.375,1.578,3.395,2.58,5.652,2.58c4.143,0,7.5-3.357,7.5-7.5    C120,339.605,118.357,337.099,115.957,335.849z M103,347c-6.617,0-12-5.383-12-12s5.383-12,12-12s12,5.383,12,12    c0,0.145-0.017,0.285-0.021,0.428c-0.777-0.272-1.608-0.428-2.479-0.428c-4.143,0-7.5,3.357-7.5,7.5    c0,1.495,0.442,2.885,1.196,4.055C105.177,346.837,104.108,347,103,347z M112.5,349c-3.59,0-6.5-2.91-6.5-6.5s2.91-6.5,6.5-6.5    s6.5,2.91,6.5,6.5S116.09,349,112.5,349z"/>
		<polygon points="111.086,344.268 108.965,342.146 108.258,342.854 111.086,345.682 116.742,340.025 116.035,339.318   "/>
	</g>
	
    </g>
</svg>
