<?xml version="1.0" encoding="iso-8859-1"?>
<!DOCTYPE svg PUBLIC "-//W3C//DTD SVG 1.1//EN" "http://www.w3.org/Graphics/SVG/1.1/DTD/svg11.dtd">
<svg version="1.1" xmlns="http://www.w3.org/2000/svg" xmlns:xlink="http://www.w3.org/1999/xlink" x="0px" y="0px" width="30" height="30" viewBox="0 0 30 30" xml:space="preserve">
    <g transform="translate(-510 -200)">
        <g xmlns="http://www.w3.org/2000/svg" xmlns:xlink="http://www.w3.org/1999/xlink" id="earth-wireframe-error-7">
		<path d="M538,215c0-3.131-1.108-6.004-2.952-8.248c-0.206-0.25-0.429-0.486-0.652-0.721C532.028,203.552,528.699,202,525,202    s-7.028,1.552-9.396,4.031c-0.224,0.234-0.446,0.471-0.652,0.721C513.108,208.996,512,211.869,512,215s1.108,6.004,2.952,8.248    c0.206,0.25,0.429,0.486,0.652,0.721c2.202,2.307,5.242,3.793,8.634,3.991L523,230h17l-4.479-7.378    C537.075,220.479,538,217.849,538,215z M534.948,221.68l-2.595-4.274c0.067-0.623,0.117-1.256,0.132-1.906h4.489    C536.88,217.782,536.146,219.898,534.948,221.68z M536.975,214.5h-4.489c-0.048-2.184-0.405-4.229-1.003-6.009    c0.99-0.33,1.904-0.729,2.709-1.192C535.841,209.265,536.861,211.767,536.975,214.5z M533.525,206.567    c-0.708,0.388-1.511,0.723-2.379,1.005c-0.678-1.68-1.576-3.071-2.625-4.043C530.438,204.119,532.149,205.176,533.525,206.567z     M525.5,203.047c1.926,0.272,3.614,2.098,4.707,4.801c-1.436,0.376-3.025,0.601-4.707,0.639V203.047z M525.5,209.485    c1.8-0.04,3.504-0.29,5.046-0.712c0.557,1.684,0.894,3.635,0.94,5.727H525.5V209.485z M525.5,215.5h5.986    c-0.004,0.196-0.023,0.384-0.033,0.577l-2.872,4.73c-0.986-0.164-2.014-0.269-3.081-0.293V215.5z M524.5,203.047v5.439    c-1.682-0.038-3.271-0.263-4.707-0.639C520.886,205.145,522.574,203.319,524.5,203.047z M518.514,214.5    c0.047-2.092,0.384-4.043,0.94-5.727c1.542,0.422,3.246,0.672,5.046,0.712v5.015H518.514z M524.5,215.5v5.015    c-1.8,0.04-3.504,0.29-5.046,0.712c-0.557-1.684-0.894-3.635-0.94-5.727H524.5z M521.479,203.529    c-1.049,0.972-1.947,2.363-2.625,4.043c-0.868-0.282-1.671-0.617-2.379-1.005C517.851,205.176,519.563,204.119,521.479,203.529z     M515.809,207.299c0.805,0.464,1.719,0.862,2.709,1.192c-0.598,1.78-0.955,3.825-1.003,6.009h-4.489    C513.139,211.767,514.159,209.265,515.809,207.299z M513.025,215.5h4.489c0.048,2.184,0.405,4.229,1.003,6.009    c-0.99,0.33-1.904,0.729-2.709,1.192C514.159,220.735,513.139,218.233,513.025,215.5z M516.475,223.433    c0.708-0.388,1.511-0.723,2.379-1.005c0.678,1.68,1.576,3.071,2.625,4.043C519.563,225.881,517.851,224.824,516.475,223.433z     M519.793,222.152c1.436-0.376,3.025-0.601,4.707-0.639v5.439C522.574,226.681,520.886,224.855,519.793,222.152z M525.5,221.514    c0.87,0.02,1.715,0.091,2.527,0.206l-2.527,4.163V221.514z M524.777,229l6.723-11.073L538.223,229H524.777z"/>
		<rect x="531" y="221" width="1" height="5"/>
		<rect x="531" y="227" width="1" height="1"/>
	</g>
	
    </g>
</svg>
