<?xml version="1.0" encoding="iso-8859-1"?>
<!DOCTYPE svg PUBLIC "-//W3C//DTD SVG 1.1//EN" "http://www.w3.org/Graphics/SVG/1.1/DTD/svg11.dtd">
<svg version="1.1" xmlns="http://www.w3.org/2000/svg" xmlns:xlink="http://www.w3.org/1999/xlink" x="0px" y="0px" width="30" height="30" viewBox="0 0 30 30" xml:space="preserve">
    <g transform="translate(-150 -200)">
        <g xmlns="http://www.w3.org/2000/svg" xmlns:xlink="http://www.w3.org/1999/xlink" id="earth-europe-7">
		<path d="M165.253,221.334c1.64,0.447,1.714-2.384,1.64-3.353c-0.072-0.969-0.669,0.744-1.713,1.192    C164.137,219.621,164.641,221.166,165.253,221.334z"/>
		<path d="M178,215c0-7.18-5.82-13-13-13s-13,5.82-13,13s5.82,13,13,13S178,222.18,178,215z M153,215    c0-0.793,0.082-1.567,0.229-2.317c0.187,0.169,0.394,0.294,0.636,0.308c1.359,0.074,2.342-0.075,2.494,0.819    c0.15,0.895,1.736,3.128,1.283,5.141c-0.453,2.011,0.904,3.353,2.418,3.874c1.511,0.521,2.493-0.671,2.72-1.863    c0.227-1.191,0.905-2.458,1.511-2.383c0.605,0.074-1.209-2.533,0.151-3.279c1.36-0.745,3.175-2.905,3.098-3.65    s-1.889,0.745-2.341,0.074c-0.454-0.671-2.72-4.619-2.117-4.396c0.605,0.224,2.947,3.948,4.759,2.981    c1.814-0.971,2.192-1.416,1.361-1.863s1.661-1.416,2.57,0.223c0.905,1.641,1.284,3.129,2.267,3.801    c0.981,0.67-0.152-1.193,0.452-2.088c0.3-0.441,0.636-1.039,0.943-1.285c0.991,1.746,1.565,3.758,1.565,5.904    c0,6.617-5.383,12-12,12S153,221.617,153,215z"/>
	</g>
	
    </g>
</svg>
