<?xml version="1.0" encoding="iso-8859-1"?>
<!DOCTYPE svg PUBLIC "-//W3C//DTD SVG 1.1//EN" "http://www.w3.org/Graphics/SVG/1.1/DTD/svg11.dtd">
<svg version="1.1" xmlns="http://www.w3.org/2000/svg" xmlns:xlink="http://www.w3.org/1999/xlink" x="0px" y="0px" width="30" height="30" viewBox="0 0 30 30" xml:space="preserve">
    <g transform="translate(-270 -200)">
        <g xmlns="http://www.w3.org/2000/svg" xmlns:xlink="http://www.w3.org/1999/xlink" id="earth-asia-7">
		<path d="M289.673,214.065c-0.753,0.521-1.332,1.446-1.332,1.446c-0.058,0.985,0.927,0.638,1.505,0.869    c0.582,0.232,1.391-0.115,0.985-0.695c-0.403-0.578,0.349-1.215,0.405-1.969C291.294,212.965,290.428,213.544,289.673,214.065z"/>
		<path d="M287.355,219.145c-1.396-0.399-1.68-0.231-2.259-1.043c-0.579-0.811-2.315-2.315-2.722-2.026    c-0.404,0.29,0.232,1.331,0.464,1.968c0.232,0.638,0.21,1.643,2.294,2.222C287.217,220.845,288.164,219.376,287.355,219.145z"/>
		<path d="M285,202c-7.18,0-13,5.82-13,13s5.82,13,13,13s13-5.82,13-13S292.18,202,285,202z M296.822,216.98    c-0.842-0.857-2.66-2.116-2.808-0.796c-0.113,1.015,1.911,1.491,2.712,1.345c-0.163,0.758-0.396,1.49-0.695,2.188    c-0.079-1.896-1.076-0.802-1.148,0.088c-0.078,0.926-0.928,0.309-1.545-0.464c-0.617-0.771-1.698,1.313-2.548,1.698    c-0.85,0.387-3.241-0.153-2.544,1.39c0.692,1.544-0.773,1.486,0.151,2.163c0.922,0.672,3.222-1.219,4.005-0.166    C290.361,226.033,287.794,227,285,227c-6.004,0-10.979-4.438-11.851-10.202c0.552-1.239,1.536-2.35,2.267-3.081    c1.775-1.774-0.064-5.415,1.556-4.488c1.623,0.926,1.081,4.324,2.24,4.709c1.157,0.386,0.771-2.393,1.62-3.011    c0.851-0.617,3.012-0.308,3.012,0.696c0,0.506,0.549,5.137,2.649,4.914c1.151-0.121-2.417-4.451-0.023-3.525    c2.39,0.926,1.729-1.188,1.267-1.804c-0.462-0.618,0.661-1.361,1.434-1.67c0.771-0.31,0.927-2.471,0.464-3.011    c-0.464-0.54,1.234-0.618,1.698-1.082c0.102-0.101,0.229-0.243,0.362-0.399c0.331,0.224,0.65,0.464,0.957,0.719    c-0.296,0.649-0.833,1.049-1.552,1.38c-1.129,0.521,1.444,1.214,2.041,0.734c0.354-0.287,0.479-0.721,0.498-1.188    C295.715,208.85,297,211.775,297,215C297,215.676,296.93,216.334,296.822,216.98z"/>
	</g>
	
    </g>
</svg>
