<?xml version="1.0" encoding="iso-8859-1"?>
<!DOCTYPE svg PUBLIC "-//W3C//DTD SVG 1.1//EN" "http://www.w3.org/Graphics/SVG/1.1/DTD/svg11.dtd">
<svg version="1.1" xmlns="http://www.w3.org/2000/svg" xmlns:xlink="http://www.w3.org/1999/xlink" x="0px" y="0px" width="30" height="30" viewBox="0 0 30 30" xml:space="preserve">
    <g transform="translate(-90 -200)">
        <g xmlns="http://www.w3.org/2000/svg" xmlns:xlink="http://www.w3.org/1999/xlink" id="earth-america-tick-7">
		<path d="M117.801,217.194C117.923,216.479,118,215.75,118,215c0-7.18-5.82-13-13-13s-13,5.82-13,13s5.82,13,13,13    c0.75,0,1.479-0.077,2.194-0.199c1.357,1.358,3.233,2.199,5.306,2.199c4.143,0,7.5-3.358,7.5-7.5    C120,220.428,119.16,218.552,117.801,217.194z M100.044,210.387c0.471-3.246,2.88-0.156,3.246,0.315    c0.366,0.471,0.314-2.305,1.728-3.143c1.414-0.838,3.509-1.728,2.776-2.355c-0.604-0.519-2.232-1.518-2.789-2.204    c6.615,0.003,11.995,5.385,11.995,12c0,0.488-0.038,0.966-0.095,1.439c-1.237-0.901-2.757-1.439-4.405-1.439    c-0.828,0-1.623,0.14-2.369,0.388c-0.793-0.343-1.512-0.726-1.97-1.125c-1.205-1.047-2.095,0.104-2.934,0    c-0.838-0.104-3.457-0.839-3.246-1.361c0.209-0.523,0.261-1.1-0.313-0.995C101.09,212.011,99.573,213.635,100.044,210.387z     M105,227c-6.617,0-12-5.383-12-12c0-3.616,1.615-6.857,4.154-9.059c-0.916,1.452-0.732,5.504,1.267,6.697    c4.031,2.409,6.389,2.252,6.231,3.718c-0.129,1.199-0.137,2.774,0.748,3.742c-0.256,0.755-0.4,1.561-0.4,2.402    c0,1.648,0.538,3.167,1.439,4.405C105.967,226.962,105.488,227,105,227z M112.5,229c-3.59,0-6.5-2.91-6.5-6.5s2.91-6.5,6.5-6.5    s6.5,2.91,6.5,6.5S116.09,229,112.5,229z"/>
		<polygon points="116.742,220.025 116.035,219.318 111.086,224.268 108.965,222.146 108.258,222.854 111.086,225.682   "/>
	</g>
	
    </g>
</svg>
