<?xml version="1.0" encoding="iso-8859-1"?>
<!DOCTYPE svg PUBLIC "-//W3C//DTD SVG 1.1//EN" "http://www.w3.org/Graphics/SVG/1.1/DTD/svg11.dtd">
<svg version="1.1" xmlns="http://www.w3.org/2000/svg" xmlns:xlink="http://www.w3.org/1999/xlink" x="0px" y="0px" width="30" height="30" viewBox="0 0 30 30" xml:space="preserve">
    <g transform="translate(-390 -200)">
        <g xmlns="http://www.w3.org/2000/svg" xmlns:xlink="http://www.w3.org/1999/xlink" id="earth-wireframe-7">
		<path d="M405,228c3.699,0,7.028-1.552,9.396-4.031c0.224-0.234,0.446-0.471,0.652-0.721c1.844-2.244,2.952-5.117,2.952-8.248    s-1.108-6.004-2.952-8.248c-0.206-0.25-0.429-0.486-0.652-0.721C412.028,203.552,408.699,202,405,202s-7.028,1.552-9.396,4.031    c-0.224,0.234-0.446,0.471-0.652,0.721C393.108,208.996,392,211.869,392,215s1.108,6.004,2.952,8.248    c0.206,0.25,0.429,0.486,0.652,0.721C397.972,226.448,401.301,228,405,228z M408.521,226.471c1.049-0.972,1.947-2.363,2.625-4.043    c0.868,0.282,1.671,0.617,2.379,1.005C412.149,224.824,410.438,225.881,408.521,226.471z M414.191,222.701    c-0.805-0.464-1.719-0.862-2.709-1.192c0.598-1.78,0.955-3.825,1.003-6.009h4.489    C416.861,218.233,415.841,220.735,414.191,222.701z M416.975,214.5h-4.489c-0.048-2.184-0.405-4.229-1.003-6.009    c0.99-0.33,1.904-0.729,2.709-1.192C415.841,209.265,416.861,211.767,416.975,214.5z M413.525,206.567    c-0.708,0.388-1.511,0.723-2.379,1.005c-0.678-1.68-1.576-3.071-2.625-4.043C410.438,204.119,412.149,205.176,413.525,206.567z     M405.5,203.047c1.926,0.272,3.614,2.098,4.707,4.801c-1.436,0.376-3.025,0.601-4.707,0.639V203.047z M405.5,209.485    c1.8-0.04,3.504-0.29,5.046-0.712c0.557,1.684,0.894,3.635,0.94,5.727H405.5V209.485z M405.5,215.5h5.986    c-0.047,2.092-0.384,4.043-0.94,5.727c-1.542-0.422-3.246-0.672-5.046-0.712V215.5z M405.5,221.514    c1.682,0.038,3.271,0.263,4.707,0.639c-1.093,2.703-2.781,4.528-4.707,4.801V221.514z M396.475,223.433    c0.708-0.388,1.511-0.723,2.379-1.005c0.678,1.68,1.576,3.071,2.625,4.043C399.563,225.881,397.851,224.824,396.475,223.433z     M404.5,226.953c-1.926-0.272-3.614-2.098-4.707-4.801c1.436-0.376,3.025-0.601,4.707-0.639V226.953z M404.5,220.515    c-1.8,0.04-3.504,0.29-5.046,0.712c-0.557-1.684-0.894-3.635-0.94-5.727h5.986V220.515z M404.5,214.5h-5.986    c0.047-2.092,0.384-4.043,0.94-5.727c1.542,0.422,3.246,0.672,5.046,0.712V214.5z M404.5,203.047v5.439    c-1.682-0.038-3.271-0.263-4.707-0.639C400.886,205.145,402.574,203.319,404.5,203.047z M401.479,203.529    c-1.049,0.972-1.947,2.363-2.625,4.043c-0.868-0.282-1.671-0.617-2.379-1.005C397.851,205.176,399.563,204.119,401.479,203.529z     M395.809,207.299c0.805,0.464,1.719,0.862,2.709,1.192c-0.598,1.78-0.955,3.825-1.003,6.009h-4.489    C393.139,211.767,394.159,209.265,395.809,207.299z M393.025,215.5h4.489c0.048,2.184,0.405,4.229,1.003,6.009    c-0.99,0.33-1.904,0.729-2.709,1.192C394.159,220.735,393.139,218.233,393.025,215.5z"/>
	</g>
	
    </g>
</svg>
