<?xml version="1.0" encoding="iso-8859-1"?>
<!DOCTYPE svg PUBLIC "-//W3C//DTD SVG 1.1//EN" "http://www.w3.org/Graphics/SVG/1.1/DTD/svg11.dtd">
<svg version="1.1" xmlns="http://www.w3.org/2000/svg" xmlns:xlink="http://www.w3.org/1999/xlink" x="0px" y="0px" width="30" height="30" viewBox="0 0 30 30" xml:space="preserve">
    <g transform="translate(-450 -200)">
        <g xmlns="http://www.w3.org/2000/svg" xmlns:xlink="http://www.w3.org/1999/xlink" id="earth-wireframe-tick-7">
		<path d="M478,215c0-3.131-1.108-6.004-2.952-8.248c-0.206-0.25-0.429-0.486-0.652-0.721C472.028,203.552,468.699,202,465,202    s-7.028,1.552-9.396,4.031c-0.224,0.234-0.446,0.471-0.652,0.721C453.108,208.996,452,211.869,452,215s1.108,6.004,2.952,8.248    c0.206,0.25,0.429,0.486,0.652,0.721c2.367,2.479,5.696,4.031,9.396,4.031c0.749,0,1.479-0.08,2.192-0.202    c1.357,1.36,3.234,2.202,5.308,2.202c4.143,0,7.5-3.358,7.5-7.5c0-2.067-0.837-3.939-2.19-5.296    C477.933,216.487,478,215.751,478,215z M461.479,203.529c-1.049,0.972-1.947,2.363-2.625,4.043    c-0.868-0.282-1.671-0.617-2.379-1.005C457.851,205.176,459.563,204.119,461.479,203.529z M455.809,207.299    c0.805,0.464,1.719,0.862,2.709,1.192c-0.598,1.78-0.955,3.825-1.003,6.009h-4.489    C453.139,211.767,454.159,209.265,455.809,207.299z M453.025,215.5h4.489c0.048,2.184,0.405,4.229,1.003,6.009    c-0.99,0.33-1.904,0.729-2.709,1.192C454.159,220.735,453.139,218.233,453.025,215.5z M456.475,223.433    c0.708-0.388,1.511-0.723,2.379-1.005c0.678,1.68,1.576,3.071,2.625,4.043C459.563,225.881,457.851,224.824,456.475,223.433z     M464.5,226.953c-1.926-0.272-3.614-2.098-4.707-4.801c1.436-0.376,3.025-0.601,4.707-0.639V226.953z M464.5,220.515    c-1.8,0.04-3.504,0.29-5.046,0.712c-0.557-1.684-0.894-3.635-0.94-5.727h5.986V220.515z M464.5,214.5h-5.986    c0.047-2.092,0.384-4.043,0.94-5.727c1.542,0.422,3.246,0.672,5.046,0.712V214.5z M464.5,208.486    c-1.682-0.038-3.271-0.263-4.707-0.639c1.093-2.703,2.781-4.528,4.707-4.801V208.486z M476.896,216.433    c-0.526-0.382-1.104-0.697-1.722-0.933h1.8C476.962,215.814,476.934,216.125,476.896,216.433z M476.975,214.5h-4.489    c-0.048-2.184-0.405-4.229-1.003-6.009c0.99-0.33,1.904-0.729,2.709-1.192C475.841,209.265,476.861,211.767,476.975,214.5z     M473.525,206.567c-0.708,0.388-1.511,0.723-2.379,1.005c-0.678-1.68-1.576-3.071-2.625-4.043    C470.438,204.119,472.149,205.176,473.525,206.567z M465.5,203.047c1.926,0.272,3.614,2.098,4.707,4.801    c-1.436,0.376-3.025,0.601-4.707,0.639V203.047z M465.5,209.485c1.8-0.04,3.504-0.29,5.046-0.712    c0.557,1.684,0.894,3.635,0.94,5.727H465.5V209.485z M469.825,215.5c-1.987,0.76-3.565,2.337-4.325,4.325V215.5H469.825z     M465.5,226.953v-1.778c0.212,0.553,0.481,1.077,0.811,1.559C466.046,226.834,465.776,226.914,465.5,226.953z M479,222.5    c0,3.59-2.91,6.5-6.5,6.5s-6.5-2.91-6.5-6.5s2.91-6.5,6.5-6.5S479,218.91,479,222.5z"/>
		<polygon points="471.086,224.268 468.965,222.146 468.258,222.854 471.086,225.682 476.742,220.025 476.035,219.318   "/>
	</g>
	
    </g>
</svg>
