<?xml version="1.0" encoding="iso-8859-1"?>
<!DOCTYPE svg PUBLIC "-//W3C//DTD SVG 1.1//EN" "http://www.w3.org/Graphics/SVG/1.1/DTD/svg11.dtd">
<svg version="1.1" xmlns="http://www.w3.org/2000/svg" xmlns:xlink="http://www.w3.org/1999/xlink" x="0px" y="0px" width="30" height="30" viewBox="0 0 30 30" xml:space="preserve">
    <g transform="translate(-330 -200)">
        <g xmlns="http://www.w3.org/2000/svg" xmlns:xlink="http://www.w3.org/1999/xlink" id="earth-asia-tick-7">
		<path d="M357.801,217.194C357.923,216.479,358,215.75,358,215c0-7.18-5.82-13-13-13s-13,5.82-13,13s5.82,13,13,13    c0.75,0,1.479-0.077,2.194-0.199c1.357,1.358,3.233,2.199,5.306,2.199c4.143,0,7.5-3.358,7.5-7.5    C360,220.428,359.159,218.552,357.801,217.194z M345,227c-6.004,0-10.979-4.438-11.851-10.202c0.552-1.239,1.536-2.35,2.267-3.081    c1.775-1.774-0.064-5.415,1.556-4.488c1.623,0.926,1.081,4.324,2.24,4.709c1.157,0.386,0.771-2.393,1.62-3.011    c0.851-0.617,3.012-0.308,3.012,0.696c0,0.506,0.549,5.137,2.649,4.914c1.151-0.121-2.417-4.451-0.023-3.525    c2.39,0.926,1.729-1.188,1.267-1.804c-0.462-0.618,0.661-1.361,1.434-1.67c0.771-0.31,0.927-2.471,0.464-3.011    c-0.464-0.54,1.234-0.618,1.698-1.082c0.102-0.101,0.229-0.243,0.362-0.399c0.331,0.224,0.65,0.464,0.957,0.719    c-0.296,0.649-0.833,1.049-1.552,1.38c-1.129,0.521,1.444,1.214,2.041,0.734c0.354-0.287,0.479-0.721,0.498-1.188    C355.715,208.85,357,211.775,357,215c0,0.486-0.045,0.961-0.105,1.431c-1.235-0.896-2.751-1.431-4.395-1.431    c-0.614,0-1.208,0.082-1.779,0.221c0.053-0.453,0.474-0.947,0.516-1.504c0.058-0.752-0.809-0.173-1.563,0.349    c-0.753,0.521-1.332,1.446-1.332,1.446c-0.02,0.327,0.083,0.499,0.24,0.603c-1.076,0.662-1.972,1.583-2.598,2.682    c-0.352-0.11-0.579-0.264-0.887-0.694c-0.579-0.811-2.315-2.315-2.722-2.026c-0.404,0.29,0.232,1.331,0.464,1.968    c0.232,0.638,0.21,1.643,2.294,2.222c0.07,0.02,0.129,0.02,0.197,0.035c-0.214,0.696-0.33,1.435-0.33,2.201    c0,1.647,0.537,3.166,1.438,4.403C345.966,226.96,345.487,227,345,227z M352.5,229c-3.59,0-6.5-2.91-6.5-6.5s2.91-6.5,6.5-6.5    s6.5,2.91,6.5,6.5S356.09,229,352.5,229z"/>
		<polygon points="356.742,220.025 356.035,219.318 351.086,224.268 348.965,222.146 348.258,222.854 351.086,225.682   "/>
	</g>
	
    </g>
</svg>
