<?xml version="1.0" encoding="iso-8859-1"?>
<!DOCTYPE svg PUBLIC "-//W3C//DTD SVG 1.1//EN" "http://www.w3.org/Graphics/SVG/1.1/DTD/svg11.dtd">
<svg version="1.1" xmlns="http://www.w3.org/2000/svg" xmlns:xlink="http://www.w3.org/1999/xlink" x="0px" y="0px" width="30" height="30" viewBox="0 0 30 30" xml:space="preserve">
    <g transform="translate(-570 -200)">
        <g xmlns="http://www.w3.org/2000/svg" xmlns:xlink="http://www.w3.org/1999/xlink" id="earth-wireframe-off-7">
		<path d="M588.521,226.471c1.029-0.953,1.91-2.314,2.584-3.952l-1.523-1.522c-1.279-0.279-2.647-0.45-4.082-0.481v-3.601l-1-1    v4.601c-1.8,0.04-3.504,0.29-5.046,0.712c-0.557-1.684-0.894-3.635-0.94-5.727h5.572l-1-1h-4.572    c0.032-1.442,0.211-2.81,0.496-4.076l-0.816-0.816c-0.397,1.502-0.641,3.149-0.679,4.893h-4.489    c0.113-2.733,1.134-5.235,2.783-7.201c0.048,0.027,0.104,0.05,0.152,0.077l-0.826-0.826c-0.06,0.068-0.125,0.132-0.183,0.202    C573.108,208.996,572,211.869,572,215s1.108,6.004,2.952,8.248c0.206,0.25,0.429,0.486,0.652,0.721    c2.367,2.479,5.696,4.031,9.396,4.031c3.23,0,6.179-1.184,8.45-3.136l-0.72-0.72C591.509,225.18,590.089,225.988,588.521,226.471z     M573.025,215.5h4.489c0.048,2.184,0.405,4.229,1.003,6.009c-0.99,0.33-1.904,0.729-2.709,1.192    C574.159,220.735,573.139,218.233,573.025,215.5z M576.475,223.433c0.708-0.388,1.511-0.723,2.379-1.005    c0.678,1.68,1.576,3.071,2.625,4.043C579.563,225.881,577.851,224.824,576.475,223.433z M584.5,226.953    c-1.926-0.272-3.614-2.098-4.707-4.801c1.436-0.376,3.025-0.601,4.707-0.639V226.953z M585.5,226.953v-5.439    c1.682,0.038,3.271,0.263,4.707,0.639C589.114,224.855,587.426,226.681,585.5,226.953z"/>
		<path d="M595.048,223.248c1.844-2.244,2.952-5.117,2.952-8.248s-1.108-6.004-2.952-8.248c-0.206-0.25-0.429-0.486-0.652-0.721    C592.028,203.552,588.699,202,585,202c-3.23,0-6.179,1.184-8.45,3.136l-3.571-3.571l-0.707,0.707l25.457,25.456l0.707-0.707    l-3.57-3.571C594.925,223.382,594.99,223.318,595.048,223.248z M596.975,214.5h-4.489c-0.048-2.184-0.405-4.229-1.003-6.009    c0.99-0.33,1.904-0.729,2.709-1.192C595.841,209.265,596.861,211.767,596.975,214.5z M593.525,206.567    c-0.708,0.388-1.511,0.723-2.379,1.005c-0.678-1.68-1.576-3.071-2.625-4.043C590.438,204.119,592.149,205.176,593.525,206.567z     M585.5,203.047c1.926,0.272,3.614,2.098,4.707,4.801c-1.436,0.376-3.025,0.601-4.707,0.639V203.047z M590.546,208.773    c0.557,1.684,0.894,3.635,0.94,5.727h-5.572l-0.414-0.414v-4.601C587.3,209.445,589.004,209.195,590.546,208.773z M584.5,213.086    l-4.082-4.082c1.279,0.279,2.647,0.45,4.082,0.481V213.086z M584.5,203.047v5.439c-1.682-0.038-3.271-0.263-4.707-0.639    C580.886,205.145,582.574,203.319,584.5,203.047z M581.479,203.529c-1.029,0.953-1.91,2.314-2.584,3.952l-1.625-1.626    C578.491,204.82,579.911,204.012,581.479,203.529z M586.914,215.5h4.572c-0.032,1.442-0.211,2.81-0.496,4.076L586.914,215.5z     M591.807,220.393c0.397-1.502,0.641-3.149,0.679-4.893h4.489c-0.113,2.733-1.134,5.235-2.783,7.201    c-0.048-0.027-0.104-0.05-0.152-0.077L591.807,220.393z"/>
	</g>
	
    </g>
</svg>
