<?xml version="1.0" encoding="iso-8859-1"?>
<!DOCTYPE svg PUBLIC "-//W3C//DTD SVG 1.1//EN" "http://www.w3.org/Graphics/SVG/1.1/DTD/svg11.dtd">
<svg version="1.1" xmlns="http://www.w3.org/2000/svg" xmlns:xlink="http://www.w3.org/1999/xlink" x="0px" y="0px" width="30" height="30" viewBox="0 0 30 30" xml:space="preserve">
    <g transform="translate(-30 -200)">
        <g xmlns="http://www.w3.org/2000/svg" xmlns:xlink="http://www.w3.org/1999/xlink" id="earth-america-7">
		<path d="M45,202c-7.18,0-13,5.82-13,13s5.82,13,13,13s13-5.82,13-13S52.18,202,45,202z M45,227c-6.617,0-12-5.383-12-12    c0-3.616,1.615-6.857,4.154-9.059c-0.916,1.452-0.732,5.504,1.267,6.697c4.031,2.409,6.389,2.252,6.231,3.718    c-0.158,1.466-0.158,3.51,1.466,4.295c1.409,0.682-0.404,3.696-0.472,4.474c0.837-0.052,1.649-0.19,2.425-0.419    c2.421-1.088,4.879-3.359,5.273-4.421c0.523-1.415,1.938-3.299,0.472-3.666c-1.468-0.366-4.452-1.31-5.655-2.356    c-1.205-1.047-2.095,0.104-2.934,0c-0.838-0.104-3.457-0.839-3.246-1.361c0.209-0.523,0.261-1.1-0.313-0.995    c-0.578,0.104-2.095,1.729-1.624-1.52c0.471-3.246,2.88-0.156,3.246,0.315c0.366,0.471,0.314-2.305,1.728-3.143    c1.414-0.838,3.509-1.728,2.776-2.355c-0.604-0.519-2.232-1.518-2.789-2.204C51.62,203.003,57,208.385,57,215    C57,221.617,51.617,227,45,227z"/>
	</g>
	
    </g>
</svg>
