<?xml version="1.0" encoding="iso-8859-1"?>
<!DOCTYPE svg PUBLIC "-//W3C//DTD SVG 1.1//EN" "http://www.w3.org/Graphics/SVG/1.1/DTD/svg11.dtd">
<svg version="1.1" xmlns="http://www.w3.org/2000/svg" xmlns:xlink="http://www.w3.org/1999/xlink" x="0px" y="0px" width="30" height="30" viewBox="0 0 30 30" xml:space="preserve">
    <g transform="translate(-210 -200)">
        <g xmlns="http://www.w3.org/2000/svg" xmlns:xlink="http://www.w3.org/1999/xlink" id="earth-europe-tick-7">
		<path d="M237.801,217.194C237.923,216.479,238,215.75,238,215c0-7.18-5.82-13-13-13s-13,5.82-13,13s5.82,13,13,13    c0.75,0,1.479-0.077,2.194-0.199c1.357,1.358,3.233,2.199,5.306,2.199c4.143,0,7.5-3.358,7.5-7.5    C240,220.428,239.16,218.552,237.801,217.194z M225,227c-6.617,0-12-5.383-12-12c0-0.793,0.082-1.567,0.229-2.317    c0.187,0.169,0.394,0.294,0.636,0.308c1.359,0.074,2.342-0.075,2.494,0.819c0.15,0.895,1.736,3.128,1.283,5.141    c-0.453,2.011,0.904,3.353,2.418,3.874c1.511,0.521,2.493-0.671,2.72-1.863c0.227-1.191,0.905-2.458,1.511-2.383    c0.605,0.074-1.209-2.533,0.151-3.279c1.36-0.745,3.175-2.905,3.098-3.65s-1.889,0.745-2.341,0.074    c-0.454-0.671-2.72-4.619-2.117-4.396c0.605,0.224,2.947,3.948,4.759,2.981c1.814-0.971,2.192-1.416,1.361-1.863    s1.661-1.416,2.57,0.223c0.905,1.641,1.284,3.129,2.267,3.801c0.981,0.67-0.152-1.193,0.452-2.088    c0.3-0.441,0.636-1.039,0.943-1.285c0.991,1.746,1.565,3.758,1.565,5.904c0,0.488-0.038,0.966-0.095,1.439    c-1.237-0.901-2.757-1.439-4.405-1.439c-2.314,0-4.381,1.049-5.758,2.696c-0.246,0.09-0.777,1.141-1.563,1.478    c-0.96,0.412-0.607,1.74-0.068,2.082c-0.067,0.405-0.111,0.819-0.111,1.244c0,1.648,0.538,3.167,1.439,4.405    C225.967,226.962,225.488,227,225,227z M232.5,229c-3.59,0-6.5-2.91-6.5-6.5s2.91-6.5,6.5-6.5s6.5,2.91,6.5,6.5    S236.09,229,232.5,229z"/>
		<polygon points="236.742,220.025 236.035,219.318 231.086,224.268 228.965,222.146 228.258,222.854 231.086,225.682   "/>
	</g>
	
    </g>
</svg>
