<?xml version="1.0" encoding="iso-8859-1"?>
<!DOCTYPE svg PUBLIC "-//W3C//DTD SVG 1.1//EN" "http://www.w3.org/Graphics/SVG/1.1/DTD/svg11.dtd">
<svg version="1.1" xmlns="http://www.w3.org/2000/svg" xmlns:xlink="http://www.w3.org/1999/xlink" x="0px" y="0px" width="30" height="30" viewBox="0 0 30 30" xml:space="preserve">
    <g transform="translate(-570 -320)">
        <g xmlns="http://www.w3.org/2000/svg" xmlns:xlink="http://www.w3.org/1999/xlink" id="map-proximity-7">
		<path d="M585,322c-7.18,0-13,5.82-13,13s5.82,13,13,13c2.258,0,4.381-0.577,6.23-1.59c-0.284-0.209-0.534-0.462-0.73-0.757    c-1.649,0.855-3.517,1.347-5.5,1.347c-6.617,0-12-5.383-12-12s5.383-12,12-12s12,5.383,12,12c0,2.49-0.764,4.805-2.067,6.725    c0.265,0.225,0.486,0.491,0.66,0.794c1.511-2.124,2.407-4.714,2.407-7.519C598,327.82,592.18,322,585,322z"/>
		<path d="M577,335c0,0.563,0.06,1.11,0.17,1.641c0.277-0.216,0.591-0.381,0.934-0.488C578.041,335.776,578,335.394,578,335    c0-3.859,3.141-7,7-7c0.394,0,0.776,0.041,1.152,0.104c0.107-0.343,0.272-0.656,0.488-0.934c-0.53-0.11-1.078-0.17-1.641-0.17    C580.582,327,577,330.582,577,335z"/>
		<path d="M593,335c0-1.68-0.52-3.236-1.404-4.523c-0.177,0.309-0.403,0.58-0.674,0.808c0.679,1.079,1.078,2.351,1.078,3.716    c0,3.859-3.141,7-7,7c-1.365,0-2.637-0.399-3.716-1.078c-0.228,0.27-0.499,0.497-0.808,0.674C581.764,342.48,583.32,343,585,343    C589.418,343,593,339.418,593,335z"/>
		<circle cx="585" cy="335" r="2"/>
		<circle cx="589" cy="329" r="2"/>
		<circle cx="579" cy="339" r="2"/>
		<circle cx="593" cy="344" r="2"/>
	</g>
	
    </g>
</svg>
