<?xml version="1.0" encoding="iso-8859-1"?>
<!DOCTYPE svg PUBLIC "-//W3C//DTD SVG 1.1//EN" "http://www.w3.org/Graphics/SVG/1.1/DTD/svg11.dtd">
<svg version="1.1" xmlns="http://www.w3.org/2000/svg" xmlns:xlink="http://www.w3.org/1999/xlink" x="0px" y="0px" width="30" height="30" viewBox="0 0 30 30" xml:space="preserve">
    <g transform="translate(-390 -141)">
        <g xmlns="http://www.w3.org/2000/svg" xmlns:xlink="http://www.w3.org/1999/xlink" id="map-draw-7">
		<path d="M394,153l-4,16h30l-4-16H394z M394.781,154h4.317c-0.58,1.655-2.017,3.889-5.561,4.974L394.781,154z M393.262,160.078    c4.533-1.183,6.233-4.088,6.86-6.078h15.097l0.484,1.936c-8.486,1.828-13.574,5.428-16.516,8.51    c-2.405-1.214-4.949-1.672-6.558-1.841L393.262,160.078z M391.281,168l1.102-4.406c1.451,0.151,3.825,0.556,6.089,1.637    c-0.908,1.047-1.563,2.001-2.022,2.769H391.281z M397.664,168c0.439-0.661,1.022-1.436,1.767-2.267    c1.01,0.588,1.962,1.329,2.752,2.267H397.664z M418.719,168h-7.005c1.438-3.603,3.491-6.096,5.099-7.626L418.719,168z M410.63,168    h-7.204c-0.907-1.281-2.046-2.277-3.283-3.029c2.88-2.928,7.787-6.331,15.803-8.063l0.585,2.338    C414.732,160.848,412.257,163.668,410.63,168z"/>
	</g>
	
    </g>
</svg>
