<?xml version="1.0" encoding="iso-8859-1"?>
<!DOCTYPE svg PUBLIC "-//W3C//DTD SVG 1.1//EN" "http://www.w3.org/Graphics/SVG/1.1/DTD/svg11.dtd">
<svg version="1.1" xmlns="http://www.w3.org/2000/svg" xmlns:xlink="http://www.w3.org/1999/xlink" x="0px" y="0px" width="30" height="30" viewBox="0 0 30 30" xml:space="preserve">
    <g transform="translate(-570 -141)">
        <g xmlns="http://www.w3.org/2000/svg" xmlns:xlink="http://www.w3.org/1999/xlink" id="map-draw-message-7">
		<path d="M596,153h-2v1h1.219l0.484,1.936c-0.585,0.126-1.15,0.262-1.703,0.404V157h-2.285c-1.919,0.613-3.627,1.318-5.137,2.079    l-0.805,1.611c2.646-1.513,5.98-2.877,10.172-3.783l0.585,2.338c-1.798,1.602-4.273,4.423-5.9,8.754h-7.204    c-0.907-1.281-2.046-2.277-3.283-3.029c1.14-1.158,2.602-2.39,4.442-3.564l-0.47-0.939c-2.079,1.305-3.695,2.687-4.928,3.979    c-2.405-1.214-4.949-1.672-6.558-1.841l0.632-2.527c2.494-0.651,4.127-1.824,5.199-3.078h-1.362    c-0.852,0.782-1.99,1.493-3.561,1.974l1.243-4.974H576v-1h-2l-4,16h30L596,153z M571.281,168l1.102-4.406    c1.451,0.151,3.825,0.556,6.089,1.637c-0.908,1.047-1.563,2.001-2.022,2.769H571.281z M577.664,168    c0.439-0.661,1.022-1.436,1.767-2.267c1.01,0.588,1.962,1.329,2.752,2.267H577.664z M596.813,160.374l1.906,7.626h-7.005    C593.152,164.397,595.205,161.904,596.813,160.374z"/>
		<path d="M577,156h6l2,4l2-4h6v-13h-16V156z M578,144h14v11h-5.618L585,157.764L583.618,155H578V144z"/>
		<rect x="582" y="147" width="6" height="1"/>
		<rect x="582" y="149" width="6" height="1"/>
		<rect x="582" y="151" width="6" height="1"/>
	</g>
	
    </g>
</svg>
