<?xml version="1.0" encoding="iso-8859-1"?>
<!DOCTYPE svg PUBLIC "-//W3C//DTD SVG 1.1//EN" "http://www.w3.org/Graphics/SVG/1.1/DTD/svg11.dtd">
<svg version="1.1" xmlns="http://www.w3.org/2000/svg" xmlns:xlink="http://www.w3.org/1999/xlink" x="0px" y="0px" width="29" height="30" viewBox="0 0 29 30" xml:space="preserve">
    <g transform="translate(-450 -380)">
        <g xmlns="http://www.w3.org/2000/svg" xmlns:xlink="http://www.w3.org/1999/xlink" id="meter-tick-7">
		<rect x="462" y="385" width="1" height="2"/>
		<rect x="457.75" y="386.139" transform="matrix(0.8658 -0.5003 0.5003 0.8658 -132.2175 281.2254)" width="0.999" height="2"/>
		<rect x="454.139" y="389.75" transform="matrix(-0.8661 -0.4999 0.4999 -0.8661 654.2278 955.7673)" width="2" height="0.999"/>
		<rect x="454.637" y="397.749" transform="matrix(-0.5007 -0.8656 0.8656 -0.5007 337.8264 992.3728)" width="1.001" height="2"/>
		<rect x="469.362" y="389.249" transform="matrix(0.5 0.866 -0.866 0.5 572.873 -211.7908)" width="0.998" height="2"/>
		<rect x="466.25" y="386.138" transform="matrix(0.866 0.5 -0.5 0.866 256.123 -181.5159)" width="0.998" height="2"/>
		<path d="M464,398.5c0-0.652-0.419-1.201-1-1.408V389h-1v8.092c-0.581,0.207-1,0.756-1,1.408c0,0.828,0.672,1.5,1.5,1.5    S464,399.328,464,398.5z"/>
		<rect x="453" y="394" width="2" height="1"/>
		<polygon points="472,394 470,394 470,395 471.5,395 472,395   "/>
		<rect x="459" y="403" width="1" height="1"/>
		<rect x="461" y="403" width="1" height="1"/>
		<rect x="463" y="403" width="1" height="1"/>
		<path d="M474.927,395.834c0.047-0.438,0.073-0.883,0.073-1.334c0-6.903-5.597-12.5-12.5-12.5s-12.5,5.597-12.5,12.5    s5.597,12.5,12.5,12.5c0.954,0,1.88-0.117,2.773-0.319c1.346,2.002,3.632,3.319,6.227,3.319c4.143,0,7.5-3.357,7.5-7.5    C479,399.594,477.344,397.079,474.927,395.834z M462.5,406c-6.341,0-11.5-5.159-11.5-11.5s5.159-11.5,11.5-11.5    s11.5,5.159,11.5,11.5c0,0.311-0.022,0.615-0.047,0.919c-0.77-0.267-1.593-0.419-2.453-0.419c-4.143,0-7.5,3.357-7.5,7.5    c0,1.176,0.278,2.284,0.76,3.274C464.029,405.921,463.273,406,462.5,406z M471.5,409c-3.59,0-6.5-2.91-6.5-6.5s2.91-6.5,6.5-6.5    s6.5,2.91,6.5,6.5S475.09,409,471.5,409z"/>
		<polygon points="470.086,404.268 467.965,402.146 467.258,402.854 470.086,405.682 475.742,400.025 475.035,399.318   "/>
	</g>
	
    </g>
</svg>
