<?xml version="1.0" encoding="iso-8859-1"?>
<!DOCTYPE svg PUBLIC "-//W3C//DTD SVG 1.1//EN" "http://www.w3.org/Graphics/SVG/1.1/DTD/svg11.dtd">
<svg version="1.1" xmlns="http://www.w3.org/2000/svg" xmlns:xlink="http://www.w3.org/1999/xlink" x="0px" y="0px" width="29" height="30" viewBox="0 0 29 30" xml:space="preserve">
    <g transform="translate(-570 -380)">
        <g xmlns="http://www.w3.org/2000/svg" xmlns:xlink="http://www.w3.org/1999/xlink" id="meter-off-7">
		<rect x="584" y="385" width="1" height="2"/>
		<rect x="579.25" y="386.639" transform="matrix(-0.4999 -0.8661 0.8661 -0.4999 535.0386 1083.2151)" width="2" height="0.999"/>
		<rect x="576.138" y="389.75" transform="matrix(0.8659 0.5003 -0.5003 0.8659 272.6537 -236.3862)" width="2.001" height="1"/>
		
			<rect x="590.861" y="398.25" transform="matrix(0.8659 0.5001 -0.5001 0.8659 278.7664 -242.5555)" width="1.999" height="0.999"/>
		<rect x="576.637" y="397.749" transform="matrix(-0.5007 -0.8656 0.8656 -0.5007 520.9059 1097.9819)" width="1.001" height="2"/>
		<rect x="591.362" y="389.249" transform="matrix(0.5 0.866 -0.866 0.5 633.869 -317.4436)" width="0.998" height="2"/>
		<rect x="588.25" y="386.138" transform="matrix(0.866 0.5 -0.5 0.866 272.4703 -242.52)" width="0.998" height="2"/>
		<path d="M583,398.5c0,0.828,0.672,1.5,1.5,1.5s1.5-0.672,1.5-1.5c0-0.323-0.104-0.621-0.279-0.865l-0.337-0.337    c-0.116-0.085-0.245-0.156-0.384-0.206v-0.178l-1-1v1.178C583.419,397.299,583,397.848,583,398.5z"/>
		<path d="M597,394.5c0-6.903-5.597-12.5-12.5-12.5c-3.219,0-6.145,1.228-8.359,3.227l-3.662-3.662l-0.707,0.707l25.457,25.457    l0.707-0.707l-4.162-4.162C595.772,400.645,597,397.719,597,394.5z M584,389v4.086l-7.149-7.149    c2.035-1.819,4.711-2.937,7.649-2.937c6.341,0,11.5,5.159,11.5,11.5c0,2.938-1.117,5.614-2.937,7.649L585,394.086V389H584z"/>
		<path d="M584.5,406c-6.341,0-11.5-5.159-11.5-11.5c0-2.684,0.932-5.149,2.478-7.108l-0.717-0.717    c-1.724,2.143-2.761,4.861-2.761,7.825c0,6.903,5.597,12.5,12.5,12.5c2.964,0,5.683-1.037,7.825-2.761l-0.717-0.717    C589.649,405.068,587.184,406,584.5,406z"/>
		<rect x="575" y="394" width="2" height="1"/>
		<rect x="592" y="394" width="2" height="1"/>
		<rect x="581" y="403" width="1" height="1"/>
		<rect x="583" y="403" width="1" height="1"/>
		<rect x="585" y="403" width="1" height="1"/>
		<rect x="587" y="403" width="1" height="1"/>
	</g>
	
    </g>
</svg>
