<?xml version="1.0" encoding="iso-8859-1"?>
<!DOCTYPE svg PUBLIC "-//W3C//DTD SVG 1.1//EN" "http://www.w3.org/Graphics/SVG/1.1/DTD/svg11.dtd">
<svg version="1.1" xmlns="http://www.w3.org/2000/svg" xmlns:xlink="http://www.w3.org/1999/xlink" x="0px" y="0px" width="30" height="30" viewBox="0 0 30 30" xml:space="preserve">
    <g transform="translate(-270 -260)">
        <g xmlns="http://www.w3.org/2000/svg" xmlns:xlink="http://www.w3.org/1999/xlink" id="paper-map-tick-7">
		<path d="M298,268l-9-3l-8,3l-9-3v17l9,3l4.07-1.526c0.479,3.682,3.618,6.526,7.43,6.526c4.143,0,7.5-3.357,7.5-7.5    c0-1.966-0.762-3.75-2-5.087V268z M280,283.612l-7-2.333v-14.893l7,2.334V283.612z M297,268.721v7.789    c-1.254-0.943-2.809-1.51-4.5-1.51c-0.878,0-1.717,0.158-2.5,0.436v-9.048L297,268.721z M281,269.054l0.02,0.007l7.98-2.992v9.801    c-2.359,1.247-3.971,3.713-3.996,6.562L281,283.932V269.054z M299,282.5c0,3.59-2.91,6.5-6.5,6.5s-6.5-2.91-6.5-6.5    s2.91-6.5,6.5-6.5S299,278.91,299,282.5z"/>
		<polygon points="296.742,280.025 296.035,279.318 291.086,284.268 288.965,282.146 288.258,282.854 291.086,285.682   "/>
	</g>
	
    </g>
</svg>
