<?xml version="1.0" encoding="iso-8859-1"?>
<!DOCTYPE svg PUBLIC "-//W3C//DTD SVG 1.1//EN" "http://www.w3.org/Graphics/SVG/1.1/DTD/svg11.dtd">
<svg version="1.1" xmlns="http://www.w3.org/2000/svg" xmlns:xlink="http://www.w3.org/1999/xlink" x="0px" y="0px" width="30" height="30" viewBox="0 0 30 30" xml:space="preserve">
    <g transform="translate(-90 -260)">
        <g xmlns="http://www.w3.org/2000/svg" xmlns:xlink="http://www.w3.org/1999/xlink" id="paper-map-plus-7">
		<path d="M118,268l-9-3l-8,3l-9-3v17l9,3l4.07-1.526c0.479,3.682,3.618,6.526,7.43,6.526c4.143,0,7.5-3.357,7.5-7.5    c0-1.966-0.763-3.75-2-5.087V268z M100,283.612l-7-2.333v-14.893l7,2.334V283.612z M117,268.721v7.789    c-1.254-0.943-2.809-1.51-4.5-1.51c-0.878,0-1.717,0.158-2.5,0.436v-9.048L117,268.721z M101,269.054l0.02,0.007l7.98-2.992v9.801    c-2.358,1.247-3.971,3.714-3.996,6.562L101,283.932V269.054z M119,282.5c0,3.59-2.91,6.5-6.5,6.5s-6.5-2.91-6.5-6.5    s2.91-6.5,6.5-6.5S119,278.91,119,282.5z"/>
		<polygon points="113,283 117,283 117,282 113,282 113,278 112,278 112,282 108,282 108,283 112,283 112,287 113,287   "/>
	</g>
	
    </g>
</svg>
