<?xml version="1.0" encoding="iso-8859-1"?>
<!DOCTYPE svg PUBLIC "-//W3C//DTD SVG 1.1//EN" "http://www.w3.org/Graphics/SVG/1.1/DTD/svg11.dtd">
<svg version="1.1" xmlns="http://www.w3.org/2000/svg" xmlns:xlink="http://www.w3.org/1999/xlink" x="0px" y="0px" width="30" height="30" viewBox="0 0 30 30" xml:space="preserve">
    <g transform="translate(-330 -260)">
        <g xmlns="http://www.w3.org/2000/svg" xmlns:xlink="http://www.w3.org/1999/xlink" id="paper-map-download-7">
		<path d="M358,268l-9-3l-8,3l-9-3v17l9,3l4.07-1.526c0.479,3.682,3.618,6.526,7.43,6.526c4.143,0,7.5-3.357,7.5-7.5    c0-1.966-0.763-3.75-2-5.087V268z M340,283.612l-7-2.333v-14.893l7,2.334V283.612z M357,268.721v7.789    c-1.254-0.943-2.809-1.51-4.5-1.51c-0.878,0-1.717,0.158-2.5,0.436v-9.048L357,268.721z M341,269.054l0.02,0.007l7.98-2.992v9.801    c-2.358,1.247-3.971,3.713-3.996,6.562L341,283.932V269.054z M359,282.5c0,3.59-2.91,6.5-6.5,6.5s-6.5-2.91-6.5-6.5    s2.91-6.5,6.5-6.5S359,278.91,359,282.5z"/>
		<polygon points="356.589,282.102 355.856,281.42 353,284.492 353,279 352,279 352,284.494 349.143,281.42 348.41,282.102     352.499,286.5   "/>
	</g>
	
    </g>
</svg>
