<?xml version="1.0" encoding="iso-8859-1"?>
<!DOCTYPE svg PUBLIC "-//W3C//DTD SVG 1.1//EN" "http://www.w3.org/Graphics/SVG/1.1/DTD/svg11.dtd">
<svg version="1.1" xmlns="http://www.w3.org/2000/svg" xmlns:xlink="http://www.w3.org/1999/xlink" x="0px" y="0px" width="30" height="30" viewBox="0 0 30 30" xml:space="preserve">
    <g transform="translate(-450 -80)">
        <g xmlns="http://www.w3.org/2000/svg" xmlns:xlink="http://www.w3.org/1999/xlink" id="pin-map-lock-7">
		<circle cx="463" cy="91" r="4"/>
		<path d="M478,98c0-2.485-2.015-4.5-4.5-4.5c-0.702,0-1.358,0.175-1.95,0.461c0.283-1.02,0.45-2.019,0.45-2.961    c0-4.971-4.029-9-9-9s-9,4.029-9,9c0,7,9,17,9,17s1.929-2.145,4-5.14V110h13V99h-2V98z M473.5,94.5c1.93,0,3.5,1.57,3.5,3.5v1h-7    v-1C470,96.07,471.57,94.5,473.5,94.5z M463,106.463c-2.113-2.533-8-10.075-8-15.463c0-4.411,3.589-8,8-8s8,3.589,8,8    c0,1.249-0.325,2.615-0.838,4.007c-0.62,0.691-1.02,1.57-1.117,2.546c-0.248,0.488-0.513,0.97-0.786,1.447H467v2.061    C465.479,103.399,463.898,105.386,463,106.463z M479,100v9h-11v-9H479z"/>
		<path d="M472,103.5c0,0.652,0.419,1.201,1,1.408V107h1v-2.092c0.581-0.207,1-0.756,1-1.408c0-0.828-0.672-1.5-1.5-1.5    S472,102.672,472,103.5z"/>
	</g>
	
    </g>
</svg>
