<?xml version="1.0" encoding="iso-8859-1"?>
<!DOCTYPE svg PUBLIC "-//W3C//DTD SVG 1.1//EN" "http://www.w3.org/Graphics/SVG/1.1/DTD/svg11.dtd">
<svg version="1.1" xmlns="http://www.w3.org/2000/svg" xmlns:xlink="http://www.w3.org/1999/xlink" x="0px" y="0px" width="30" height="30" viewBox="0 0 30 30" xml:space="preserve">
    <g transform="translate(-570 -80)">
        <g xmlns="http://www.w3.org/2000/svg" xmlns:xlink="http://www.w3.org/1999/xlink" id="pin-map-off-7">
		<path d="M583.068,94.482l-1.551-1.551C581.881,93.584,582.415,94.119,583.068,94.482z"/>
		<path d="M585,106.463c-2.113-2.533-8-10.075-8-15.463c0-0.784,0.118-1.54,0.329-2.256l-0.789-0.79    C576.196,88.907,576,89.929,576,91c0,7,9,17,9,17s2.581-2.869,4.979-6.608l-0.726-0.725    C587.657,103.175,585.949,105.326,585,106.463z"/>
		<path d="M597.729,107.728l0.707-0.707l-7.388-7.387C592.678,96.803,594,93.682,594,91c0-4.971-4.029-9-9-9    c-3.147,0-5.913,1.618-7.521,4.064l-4.5-4.5l-0.707,0.707L597.729,107.728z M585,83c4.411,0,8,3.589,8,8    c0,2.417-1.187,5.265-2.684,7.902l-4.108-4.108C587.823,94.279,589,92.785,589,91c0-2.209-1.79-4-4-4    c-1.786,0-3.279,1.177-3.794,2.792l-2.998-2.998C579.62,84.521,582.133,83,585,83z"/>
	</g>
	
    </g>
</svg>
