<?xml version="1.0" encoding="iso-8859-1"?>
<!DOCTYPE svg PUBLIC "-//W3C//DTD SVG 1.1//EN" "http://www.w3.org/Graphics/SVG/1.1/DTD/svg11.dtd">
<svg version="1.1" xmlns="http://www.w3.org/2000/svg" xmlns:xlink="http://www.w3.org/1999/xlink" x="0px" y="0px" width="30" height="30" viewBox="0 0 30 30" xml:space="preserve">
    <g transform="translate(-90 -140)">
        <g xmlns="http://www.w3.org/2000/svg" xmlns:xlink="http://www.w3.org/1999/xlink" id="pin-map-area-7">
		<path d="M92,168h26l-4-15h-2.998c0.599-1.4,0.998-2.803,0.998-4.077c0-3.823-3.134-6.923-7-6.923s-7,3.1-7,6.923    c0,1.274,0.399,2.677,0.998,4.077H96L92,168z M99,148.923c0-3.266,2.691-5.923,6-5.923s6,2.657,6,5.923    c0,3.937-4.25,9.443-6,11.544C103.25,158.366,99,152.86,99,148.923z M99.459,154c2.051,4.155,5.541,8,5.541,8s3.49-3.845,5.541-8    h2.691l3.466,13H93.302l3.466-13H99.459z"/>
		<circle cx="105" cy="149" r="3"/>
	</g>
	
    </g>
</svg>
