<?xml version="1.0" encoding="iso-8859-1"?>
<!DOCTYPE svg PUBLIC "-//W3C//DTD SVG 1.1//EN" "http://www.w3.org/Graphics/SVG/1.1/DTD/svg11.dtd">
<svg version="1.1" xmlns="http://www.w3.org/2000/svg" xmlns:xlink="http://www.w3.org/1999/xlink" x="0px" y="0px" width="30" height="30" viewBox="0 0 30 30" xml:space="preserve">
    <g transform="translate(-390 -80)">
        <g xmlns="http://www.w3.org/2000/svg" xmlns:xlink="http://www.w3.org/1999/xlink" id="pin-map-upload-7">
		<circle cx="403" cy="91" r="4"/>
		<path d="M412.5,95c-0.449,0-0.888,0.046-1.315,0.123C411.689,93.7,412,92.298,412,91c0-4.971-4.029-9-9-9s-9,4.029-9,9    c0,7,9,17,9,17s1.054-1.171,2.439-2.991c1.033,2.906,3.8,4.991,7.061,4.991c4.143,0,7.5-3.357,7.5-7.5S416.643,95,412.5,95z     M403,106.463c-2.113-2.533-8-10.075-8-15.463c0-4.411,3.589-8,8-8s8,3.589,8,8c0,1.377-0.388,2.895-0.996,4.434    c-2.913,1.029-5.004,3.8-5.004,7.066c0,0.434,0.045,0.856,0.115,1.271C404.277,104.901,403.522,105.836,403,106.463z M412.5,109    c-3.59,0-6.5-2.91-6.5-6.5s2.91-6.5,6.5-6.5s6.5,2.91,6.5,6.5S416.09,109,412.5,109z"/>
		<polygon points="408.411,102.898 409.144,103.58 412,100.507 412,106 413,106 413,100.505 415.857,103.58 416.59,102.898     412.501,98.5   "/>
	</g>
	
    </g>
</svg>
