<?xml version="1.0" encoding="iso-8859-1"?>
<!DOCTYPE svg PUBLIC "-//W3C//DTD SVG 1.1//EN" "http://www.w3.org/Graphics/SVG/1.1/DTD/svg11.dtd">
<svg version="1.1" xmlns="http://www.w3.org/2000/svg" xmlns:xlink="http://www.w3.org/1999/xlink" x="0px" y="0px" width="30" height="30" viewBox="0 0 30 30" xml:space="preserve">
    <g transform="translate(-330 -80)">
        <g xmlns="http://www.w3.org/2000/svg" xmlns:xlink="http://www.w3.org/1999/xlink" id="pin-map-download-7">
		<circle cx="343" cy="91" r="4"/>
		<path d="M352.5,95c-0.449,0-0.888,0.046-1.315,0.123C351.689,93.7,352,92.298,352,91c0-4.971-4.029-9-9-9s-9,4.029-9,9    c0,7,9,17,9,17s1.054-1.171,2.439-2.991c1.033,2.906,3.8,4.991,7.061,4.991c4.143,0,7.5-3.357,7.5-7.5S356.643,95,352.5,95z     M343,106.463c-2.113-2.533-8-10.075-8-15.463c0-4.411,3.589-8,8-8s8,3.589,8,8c0,1.377-0.388,2.895-0.996,4.434    c-2.913,1.029-5.004,3.8-5.004,7.066c0,0.434,0.045,0.856,0.115,1.271C344.277,104.901,343.522,105.836,343,106.463z M352.5,109    c-3.59,0-6.5-2.91-6.5-6.5s2.91-6.5,6.5-6.5s6.5,2.91,6.5,6.5S356.09,109,352.5,109z"/>
		<polygon points="353,104.493 353,99 352,99 352,104.495 349.143,101.42 348.41,102.102 352.499,106.5 356.589,102.102     355.856,101.42   "/>
	</g>
	
    </g>
</svg>
