<?xml version="1.0" encoding="iso-8859-1"?>
<!DOCTYPE svg PUBLIC "-//W3C//DTD SVG 1.1//EN" "http://www.w3.org/Graphics/SVG/1.1/DTD/svg11.dtd">
<svg version="1.1" xmlns="http://www.w3.org/2000/svg" xmlns:xlink="http://www.w3.org/1999/xlink" x="0px" y="0px" width="30" height="30" viewBox="0 0 30 30" xml:space="preserve">
    <g transform="translate(-150 -140)">
        <g xmlns="http://www.w3.org/2000/svg" xmlns:xlink="http://www.w3.org/1999/xlink" id="pin-map-many-area-7">
		<path d="M178,150.884c0-3.25-2.686-5.884-6-5.884c-0.396,0-0.783,0.04-1.158,0.112c-1.253-1.874-3.4-3.112-5.842-3.112    s-4.589,1.238-5.842,3.112C158.783,145.04,158.396,145,158,145c-3.314,0-6,2.635-6,5.884c0,1.408,0.57,3,1.355,4.532L150,168h30    l-3.355-12.583C177.43,153.885,178,152.292,178,150.884z M172,146c2.757,0,5,2.191,5,4.884c0,2.989-3.134,7.362-5,9.594    c-0.834-0.999-1.921-2.427-2.869-3.967c0.576-0.916,1.121-1.891,1.585-2.876c0.376,0.227,0.813,0.365,1.284,0.365    c1.381,0,2.5-1.12,2.5-2.5s-1.119-2.5-2.5-2.5c-0.002,0-0.004,0-0.006,0c0-0.025,0.006-0.052,0.006-0.078    c0-1.021-0.229-1.988-0.631-2.86C171.578,146.036,171.784,146,172,146z M165,143c3.309,0,6,2.657,6,5.923    c0,3.937-4.25,9.443-6,11.544c-1.75-2.101-6-7.607-6-11.544C159,145.657,161.691,143,165,143z M153,150.884    c0-2.693,2.243-4.884,5-4.884c0.216,0,0.422,0.036,0.631,0.063c-0.401,0.873-0.631,1.839-0.631,2.86    c0,0.025,0.006,0.052,0.006,0.078c-0.002,0-0.004,0-0.006,0c-1.381,0-2.5,1.12-2.5,2.5s1.119,2.5,2.5,2.5    c0.472,0,0.908-0.138,1.284-0.365c0.464,0.986,1.009,1.962,1.586,2.878c-0.948,1.54-2.035,2.967-2.87,3.965    C156.135,158.244,153,153.868,153,150.884z M178.698,167h-27.396l2.754-10.328C155.793,159.588,158,162,158,162    s1.833-2.001,3.473-4.562C163.232,160.056,165,162,165,162s1.768-1.944,3.527-4.562C170.167,159.999,172,162,172,162    s2.207-2.412,3.944-5.328L178.698,167z"/>
		<circle cx="165" cy="149" r="3"/>
	</g>
	
    </g>
</svg>
