<?xml version="1.0" encoding="iso-8859-1"?>
<!DOCTYPE svg PUBLIC "-//W3C//DTD SVG 1.1//EN" "http://www.w3.org/Graphics/SVG/1.1/DTD/svg11.dtd">
<svg version="1.1" xmlns="http://www.w3.org/2000/svg" xmlns:xlink="http://www.w3.org/1999/xlink" x="0px" y="0px" width="30" height="30" viewBox="0 0 30 30" xml:space="preserve">
    <g transform="translate(-330 -140)">
        <g xmlns="http://www.w3.org/2000/svg" xmlns:xlink="http://www.w3.org/1999/xlink" id="pin-map-down-7">
		<path d="M345,169c7.29,0,13-2.855,13-6.5c0-2.9-3.619-5.294-8.768-6.154c1.474-2.372,2.768-5.109,2.768-7.423    c0-3.823-3.134-6.923-7-6.923s-7,3.1-7,6.923c0,2.313,1.294,5.051,2.768,7.423c-5.148,0.86-8.768,3.254-8.768,6.154    C332,166.145,337.71,169,345,169z M339,148.923c0-3.266,2.691-5.923,6-5.923s6,2.657,6,5.923c0,3.937-4.25,9.443-6,11.544    C343.25,158.366,339,152.86,339,148.923z M346.568,160.121C348.602,160.417,350,161.24,350,162c0,0.944-2.139,2-5,2s-5-1.056-5-2    c0-0.76,1.398-1.583,3.432-1.879C344.342,161.275,345,162,345,162S345.658,161.275,346.568,160.121z M341.363,157.271    c0.465,0.698,0.93,1.353,1.368,1.937c-2.229,0.43-3.731,1.487-3.731,2.792c0,1.71,2.579,3,6,3s6-1.29,6-3    c0-1.304-1.502-2.362-3.731-2.792c0.438-0.584,0.903-1.239,1.368-1.937c4.791,0.725,8.363,2.825,8.363,5.229    c0,2.981-5.495,5.5-12,5.5s-12-2.519-12-5.5C333,160.097,336.572,157.997,341.363,157.271z"/>
		<circle cx="345" cy="149" r="3"/>
	</g>
	
    </g>
</svg>
