<?xml version="1.0" encoding="iso-8859-1"?>
<!DOCTYPE svg PUBLIC "-//W3C//DTD SVG 1.1//EN" "http://www.w3.org/Graphics/SVG/1.1/DTD/svg11.dtd">
<svg version="1.1" xmlns="http://www.w3.org/2000/svg" xmlns:xlink="http://www.w3.org/1999/xlink" x="0px" y="0px" width="29" height="30" viewBox="0 0 29 30" xml:space="preserve">
    <g transform="translate(-270 -140)">
        <g xmlns="http://www.w3.org/2000/svg" xmlns:xlink="http://www.w3.org/1999/xlink" id="pin-map-travel-7">
		<path d="M299,144.846c0-2.677-2.238-4.846-5-4.846s-5,2.169-5,4.846c0,3.769,5,9.154,5,9.154S299,148.615,299,144.846z M294,141    c2.205,0,4,1.726,4,3.846c0,2.345-2.449,5.778-4,7.635c-1.55-1.859-4-5.294-4-7.635C290,142.726,291.795,141,294,141z"/>
		<circle cx="294" cy="145" r="2"/>
		<path d="M284,152.923c0-3.823-3.134-6.923-7-6.923s-7,3.1-7,6.923c0,5.385,7,13.077,7,13.077S284,158.308,284,152.923z M277,147    c3.309,0,6,2.657,6,5.923c0,3.937-4.25,9.443-6,11.544c-1.75-2.101-6-7.607-6-11.544C271,149.657,273.691,147,277,147z"/>
		<circle cx="277" cy="153" r="3"/>
		<polygon points="273,168 273,169 281,169 281,168 278.047,168 294.662,156 297,156 297,155 291,155 291,156 292.953,156     276.338,168   "/>
	</g>
	
    </g>
</svg>
