<?xml version="1.0" encoding="iso-8859-1"?>
<!DOCTYPE svg PUBLIC "-//W3C//DTD SVG 1.1//EN" "http://www.w3.org/Graphics/SVG/1.1/DTD/svg11.dtd">
<svg version="1.1" xmlns="http://www.w3.org/2000/svg" xmlns:xlink="http://www.w3.org/1999/xlink" x="0px" y="0px" width="30" height="30" viewBox="0 0 30 30" xml:space="preserve">
    <g transform="translate(-90 -380)">
        <g xmlns="http://www.w3.org/2000/svg" xmlns:xlink="http://www.w3.org/1999/xlink" id="route-7">
		<path d="M118,386l-5-5c0,0-1.463,2-4,2c-2.536,0-4-2-4-2s-1.464,2-4,2c-2.537,0-4-2-4-2l-5,5c0,0,0.914,1,1.457,2    S94,389.729,94,391c0,3.722-2,3.898-2,7s2.731,6,4,6c0,0,1.854,0.039,3.927,0.52S105,408,105,408s3-3,5.073-3.48S114,404,114,404    c1.269,0,4-2.898,4-6s-2-3.278-2-7c0-1.271,0-2,0.543-3S118,386,118,386z M93.354,386.061l3.634-3.634    C97.78,383.124,99.146,384,101,384c1.843,0,3.205-0.867,4-1.562c0.795,0.694,2.157,1.562,4,1.562c1.854,0,3.22-0.876,4.013-1.573    l3.634,3.634c-0.315,0.403-0.692,0.929-0.982,1.462c-0.286,0.527-0.444,1.003-0.537,1.478H94.873    c-0.093-0.475-0.251-0.95-0.537-1.478C94.046,386.989,93.669,386.464,93.354,386.061z M116.195,395.343    C116.645,396.146,117,396.78,117,398c0,2.704-2.38,4.938-3.009,5c-0.092,0.002-1.994,0.047-4.144,0.545    c-1.703,0.396-3.769,2.099-4.848,3.078c-1.079-0.979-3.145-2.683-4.848-3.078c-2.149-0.498-4.052-0.543-4.131-0.545    C95.38,402.938,93,400.704,93,398c0-1.22,0.355-1.854,0.805-2.657C94.365,394.342,95,393.206,95,391c0-0.356-0.002-0.685-0.015-1    h20.029c-0.013,0.315-0.015,0.644-0.015,1C115,393.206,115.635,394.342,116.195,395.343z"/>
	</g>
	
    </g>
</svg>
