<?xml version="1.0" encoding="iso-8859-1"?>
<!DOCTYPE svg PUBLIC "-//W3C//DTD SVG 1.1//EN" "http://www.w3.org/Graphics/SVG/1.1/DTD/svg11.dtd">
<svg version="1.1" xmlns="http://www.w3.org/2000/svg" xmlns:xlink="http://www.w3.org/1999/xlink" x="0px" y="0px" width="30" height="30" viewBox="0 0 30 30" xml:space="preserve">
    <g transform="translate(-210 -380)">
        <g xmlns="http://www.w3.org/2000/svg" xmlns:xlink="http://www.w3.org/1999/xlink" id="route-66">
		<path d="M238,386l-5-5c0,0-1.463,2-4,2c-2.536,0-4-2-4-2s-1.464,2-4,2c-2.537,0-4-2-4-2l-5,5c0,0,0.914,1,1.457,2    s0.543,1.729,0.543,3c0,3.722-2,3.898-2,7s2.731,6,4,6c0,0,1.854,0.039,3.927,0.52S225,408,225,408s3-3,5.073-3.48    S234,404,234,404c1.269,0,4-2.898,4-6s-2-3.278-2-7c0-1.271,0-2,0.543-3S238,386,238,386z M213.354,386.061l3.634-3.634    C217.78,383.124,219.146,384,221,384c1.843,0,3.205-0.867,4-1.562c0.795,0.694,2.157,1.562,4,1.562    c1.854,0,3.22-0.876,4.013-1.573l3.634,3.634c-0.315,0.403-0.692,0.929-0.982,1.462c-0.286,0.527-0.444,1.003-0.537,1.478h-20.254    c-0.093-0.475-0.251-0.95-0.537-1.478C214.046,386.989,213.669,386.464,213.354,386.061z M236.195,395.343    C236.645,396.146,237,396.78,237,398c0,2.704-2.38,4.938-3.009,5c-0.092,0.002-1.994,0.047-4.144,0.545    c-1.703,0.396-3.769,2.099-4.848,3.078c-1.079-0.979-3.145-2.683-4.848-3.078c-2.149-0.498-4.052-0.543-4.131-0.545    c-0.642-0.062-3.021-2.296-3.021-5c0-1.22,0.355-1.854,0.805-2.657c0.561-1.001,1.195-2.137,1.195-4.343    c0-0.356-0.002-0.685-0.015-1h20.029c-0.013,0.315-0.015,0.644-0.015,1C235,393.206,235.635,394.342,236.195,395.343z"/>
		<path d="M223.813,395.988c-0.229-0.259-0.513-0.461-0.85-0.606c-0.338-0.146-0.719-0.219-1.145-0.219    c-0.482,0-0.91,0.091-1.281,0.274c-0.371,0.183-0.681,0.479-0.932,0.887l-0.024-0.024c0.009-0.342,0.042-0.708,0.1-1.1    c0.059-0.392,0.165-0.757,0.319-1.095c0.154-0.336,0.369-0.616,0.644-0.837s0.638-0.332,1.087-0.332    c0.426,0,0.768,0.121,1.025,0.363c0.259,0.241,0.412,0.563,0.463,0.963h1.063c-0.066-0.733-0.316-1.294-0.75-1.682    s-1.017-0.581-1.75-0.581c-0.633,0-1.158,0.133-1.575,0.399s-0.75,0.621-1,1.063c-0.25,0.441-0.427,0.947-0.531,1.518    c-0.104,0.572-0.156,1.161-0.156,1.77c0,0.467,0.035,0.95,0.106,1.45c0.07,0.5,0.214,0.958,0.432,1.375    c0.217,0.417,0.524,0.759,0.924,1.025c0.4,0.267,0.93,0.399,1.588,0.399c0.559,0,1.027-0.094,1.406-0.281    c0.38-0.188,0.684-0.425,0.912-0.713c0.23-0.287,0.395-0.606,0.494-0.956c0.101-0.35,0.15-0.688,0.15-1.012    c0-0.408-0.063-0.788-0.188-1.138S224.041,396.246,223.813,395.988z M223.287,398.856c-0.078,0.237-0.193,0.447-0.344,0.631    c-0.149,0.185-0.336,0.327-0.557,0.432s-0.477,0.156-0.768,0.156c-0.293,0-0.553-0.052-0.781-0.156    c-0.23-0.104-0.422-0.243-0.576-0.418c-0.154-0.176-0.272-0.384-0.355-0.626c-0.084-0.241-0.125-0.5-0.125-0.775    c0-0.274,0.039-0.535,0.119-0.781c0.078-0.245,0.197-0.458,0.355-0.637s0.35-0.321,0.575-0.426    c0.226-0.104,0.487-0.156,0.788-0.156c0.3,0,0.563,0.055,0.787,0.163s0.412,0.252,0.563,0.431c0.15,0.18,0.26,0.393,0.331,0.639    c0.071,0.245,0.106,0.505,0.106,0.781C223.406,398.371,223.367,398.618,223.287,398.856z"/>
		<path d="M230.895,395.988c-0.23-0.259-0.514-0.461-0.851-0.606c-0.337-0.146-0.719-0.219-1.144-0.219    c-0.483,0-0.91,0.091-1.281,0.274c-0.371,0.183-0.682,0.479-0.932,0.887l-0.025-0.024c0.009-0.342,0.042-0.708,0.1-1.1    c0.059-0.392,0.166-0.757,0.319-1.095c0.154-0.336,0.369-0.616,0.644-0.837c0.275-0.221,0.638-0.332,1.088-0.332    c0.426,0,0.767,0.121,1.025,0.363c0.258,0.241,0.412,0.563,0.462,0.963h1.063c-0.066-0.733-0.315-1.294-0.749-1.682    S229.596,392,228.862,392c-0.633,0-1.158,0.133-1.575,0.399c-0.416,0.267-0.75,0.621-1,1.063c-0.25,0.441-0.427,0.947-0.531,1.518    c-0.104,0.572-0.156,1.161-0.156,1.77c0,0.467,0.035,0.95,0.107,1.45c0.07,0.5,0.213,0.958,0.431,1.375    c0.217,0.417,0.524,0.759,0.925,1.025s0.93,0.399,1.588,0.399c0.559,0,1.027-0.094,1.406-0.281s0.683-0.425,0.912-0.713    c0.229-0.287,0.394-0.606,0.494-0.956c0.1-0.35,0.15-0.688,0.15-1.012c0-0.408-0.063-0.788-0.188-1.138    S231.123,396.246,230.895,395.988z M230.369,398.856c-0.08,0.237-0.193,0.447-0.344,0.631c-0.15,0.185-0.336,0.327-0.557,0.432    s-0.477,0.156-0.769,0.156s-0.552-0.052-0.781-0.156s-0.421-0.243-0.575-0.418c-0.154-0.176-0.273-0.384-0.355-0.626    c-0.084-0.241-0.126-0.5-0.126-0.775c0-0.274,0.04-0.535,0.119-0.781c0.079-0.245,0.198-0.458,0.356-0.637s0.35-0.321,0.574-0.426    c0.226-0.104,0.488-0.156,0.788-0.156s0.563,0.055,0.788,0.163c0.225,0.108,0.412,0.252,0.563,0.431    c0.149,0.18,0.26,0.393,0.33,0.639c0.071,0.245,0.107,0.505,0.107,0.781C230.488,398.371,230.447,398.618,230.369,398.856z"/>
	</g>
	
    </g>
</svg>
