<?xml version="1.0" encoding="iso-8859-1"?>
<!DOCTYPE svg PUBLIC "-//W3C//DTD SVG 1.1//EN" "http://www.w3.org/Graphics/SVG/1.1/DTD/svg11.dtd">
<svg version="1.1" xmlns="http://www.w3.org/2000/svg" xmlns:xlink="http://www.w3.org/1999/xlink" x="0px" y="0px" width="30" height="30" viewBox="0 0 30 30" xml:space="preserve">
    <g transform="translate(-150 -380)">
        <g xmlns="http://www.w3.org/2000/svg" xmlns:xlink="http://www.w3.org/1999/xlink" id="state-95-7">
		<path d="M174,382c0,0-1.571,1.297-4.172,1.297c-2.6,0-4.828-2.297-4.828-2.297s-2.229,2.297-4.828,2.297    C157.571,383.297,156,382,156,382s-2.401,3.301-3.553,7c-0.271,1.115-0.447,2.33-0.447,3.639c0,5.242,2.919,12.611,13,15.361    c10.082-2.75,13-10.119,13-15.361c0-1.309-0.176-2.523-0.447-3.639C176.401,385.301,174,382,174,382z M156.289,383.357    c0.821,0.431,2.157,0.939,3.883,0.939c2.063,0,3.872-1.189,4.828-1.96c0.956,0.771,2.765,1.96,4.828,1.96    c1.725,0,3.061-0.509,3.883-0.938c0.717,1.11,2.004,3.289,2.785,5.642H153.5C154.27,386.66,155.567,384.472,156.289,383.357z     M165,406.962c-11.13-3.165-12-11.751-12-14.323c0-0.879,0.109-1.752,0.278-2.639h23.447c0.165,0.87,0.274,1.747,0.274,2.639    C177,395.211,176.13,403.797,165,406.962z"/>
		<path d="M164.092,392.862c-0.276-0.317-0.6-0.54-0.971-0.669c-0.369-0.129-0.764-0.193-1.184-0.193    c-0.43,0-0.824,0.071-1.186,0.213s-0.672,0.34-0.933,0.593c-0.261,0.254-0.462,0.559-0.605,0.912    c-0.143,0.355-0.214,0.745-0.214,1.169c0,0.434,0.061,0.835,0.183,1.201c0.122,0.367,0.303,0.679,0.542,0.938    c0.24,0.259,0.535,0.46,0.889,0.606c0.353,0.146,0.756,0.219,1.211,0.219c0.436,0,0.84-0.111,1.209-0.332    c0.37-0.221,0.656-0.519,0.857-0.894l0.025,0.025c-0.033,1.158-0.215,2.018-0.543,2.58c-0.327,0.563-0.818,0.845-1.475,0.845    c-0.428,0-0.798-0.117-1.109-0.35c-0.311-0.233-0.486-0.566-0.529-1h-1.07c0.066,0.767,0.348,1.338,0.844,1.712    c0.496,0.375,1.118,0.563,1.865,0.563c1.085,0,1.873-0.41,2.363-1.23c0.492-0.821,0.738-1.998,0.738-3.532    c0-0.842-0.082-1.535-0.246-2.082C164.59,393.61,164.369,393.179,164.092,392.862z M163.601,395.706    c-0.084,0.238-0.206,0.446-0.366,0.626c-0.158,0.179-0.352,0.32-0.579,0.424c-0.228,0.104-0.479,0.156-0.757,0.156    c-0.26,0-0.498-0.052-0.711-0.156c-0.215-0.104-0.4-0.243-0.556-0.418s-0.276-0.376-0.365-0.601s-0.132-0.459-0.132-0.699    c0-0.276,0.031-0.539,0.094-0.788c0.063-0.25,0.164-0.473,0.303-0.669c0.139-0.195,0.319-0.353,0.542-0.469    s0.493-0.176,0.813-0.176c0.303,0,0.566,0.056,0.794,0.163c0.227,0.109,0.418,0.257,0.573,0.443    c0.156,0.188,0.273,0.403,0.354,0.645c0.08,0.242,0.119,0.5,0.119,0.774C163.727,395.221,163.685,395.469,163.601,395.706z"/>
		<path d="M170.951,395.693c-0.261-0.259-0.568-0.451-0.924-0.578c-0.354-0.128-0.729-0.19-1.127-0.19    c-0.303,0-0.609,0.053-0.917,0.158c-0.308,0.106-0.56,0.269-0.753,0.489l-0.025-0.025l0.48-2.593h3.621V392h-4.431l-0.835,4.678    l0.924,0.051c0.21-0.253,0.453-0.459,0.728-0.616c0.273-0.156,0.589-0.235,0.942-0.235c0.305,0,0.58,0.051,0.83,0.153    c0.248,0.102,0.461,0.243,0.639,0.425c0.178,0.183,0.314,0.398,0.412,0.649c0.096,0.25,0.145,0.523,0.145,0.819    c0,0.356-0.051,0.668-0.152,0.935c-0.1,0.268-0.238,0.489-0.41,0.667c-0.174,0.179-0.376,0.312-0.607,0.4    c-0.232,0.09-0.476,0.134-0.729,0.134c-0.27,0-0.517-0.04-0.74-0.121s-0.418-0.194-0.582-0.344    c-0.165-0.147-0.296-0.321-0.393-0.52c-0.098-0.2-0.154-0.414-0.171-0.643H165.8c0.009,0.406,0.089,0.771,0.241,1.093    c0.151,0.322,0.357,0.591,0.619,0.808c0.262,0.216,0.564,0.382,0.906,0.495c0.342,0.115,0.707,0.172,1.094,0.172    c0.523,0,0.981-0.083,1.374-0.247c0.393-0.166,0.719-0.388,0.981-0.669c0.262-0.279,0.457-0.599,0.588-0.958    c0.131-0.36,0.196-0.731,0.196-1.113c0-0.517-0.075-0.968-0.228-1.354S171.213,395.952,170.951,395.693z"/>
	</g>
	
    </g>
</svg>
