<?xml version="1.0" encoding="iso-8859-1"?>
<!DOCTYPE svg PUBLIC "-//W3C//DTD SVG 1.1//EN" "http://www.w3.org/Graphics/SVG/1.1/DTD/svg11.dtd">
<svg version="1.1" xmlns="http://www.w3.org/2000/svg" xmlns:xlink="http://www.w3.org/1999/xlink" x="0px" y="0px" width="30" height="30" viewBox="0 0 30 30" xml:space="preserve">
    <g transform="translate(-30 -380)">
        <g xmlns="http://www.w3.org/2000/svg" xmlns:xlink="http://www.w3.org/1999/xlink" id="state-7">
		<path d="M54,382c0,0-1.571,1.297-4.172,1.297C47.229,383.297,45,381,45,381s-2.229,2.297-4.828,2.297    C37.571,383.297,36,382,36,382s-2.401,3.301-3.553,7c-0.271,1.115-0.447,2.33-0.447,3.639c0,5.242,2.919,12.611,13,15.361    c10.082-2.75,13-10.119,13-15.361c0-1.309-0.176-2.523-0.447-3.639C56.401,385.301,54,382,54,382z M36.289,383.357    c0.821,0.431,2.157,0.939,3.883,0.939c2.063,0,3.872-1.189,4.828-1.96c0.956,0.771,2.765,1.96,4.828,1.96    c1.725,0,3.061-0.509,3.883-0.938c0.716,1.11,2.004,3.289,2.785,5.642H33.5C34.27,386.66,35.567,384.472,36.289,383.357z     M45,406.962c-11.13-3.165-12-11.751-12-14.323c0-0.879,0.109-1.752,0.278-2.639h23.446c0.166,0.87,0.275,1.747,0.275,2.639    C57,395.211,56.13,403.797,45,406.962z"/>
	</g>
	
    </g>
</svg>
