<?xml version="1.0" encoding="iso-8859-1"?>
<!DOCTYPE svg PUBLIC "-//W3C//DTD SVG 1.1//EN" "http://www.w3.org/Graphics/SVG/1.1/DTD/svg11.dtd">
<svg version="1.1" xmlns="http://www.w3.org/2000/svg" xmlns:xlink="http://www.w3.org/1999/xlink" x="0px" y="0px" width="30" height="30" viewBox="0 0 30 30" xml:space="preserve">
    <g transform="translate(-330 -380)">
        <g xmlns="http://www.w3.org/2000/svg" xmlns:xlink="http://www.w3.org/1999/xlink" id="traffic-light-7">
		<path d="M345.5,384c-1.934,0-3.5,1.566-3.5,3.5s1.566,3.5,3.5,3.5s3.5-1.566,3.5-3.5S347.434,384,345.5,384z M345.5,390    c-1.381,0-2.5-1.119-2.5-2.5s1.119-2.5,2.5-2.5s2.5,1.119,2.5,2.5S346.881,390,345.5,390z"/>
		<path d="M345.5,392c-1.934,0-3.5,1.566-3.5,3.5s1.566,3.5,3.5,3.5s3.5-1.566,3.5-3.5S347.434,392,345.5,392z M345.5,398    c-1.381,0-2.5-1.119-2.5-2.5s1.119-2.5,2.5-2.5s2.5,1.119,2.5,2.5S346.881,398,345.5,398z"/>
		<path d="M345.5,400c-1.934,0-3.5,1.566-3.5,3.5s1.566,3.5,3.5,3.5s3.5-1.566,3.5-3.5S347.434,400,345.5,400z M345.5,406    c-1.381,0-2.5-1.119-2.5-2.5s1.119-2.5,2.5-2.5s2.5,1.119,2.5,2.5S346.881,406,345.5,406z"/>
		<path d="M355,391l2-7h-5v-2h-2v-2h-9v2h-2v2h-5l2,7h3v1h-5l2,7h3v1h-5l2,7h3v2h13v-2h3l2-7h-5v-1h3l2-7h-5v-1H355z M355.674,385    l-1.428,5H352v-5H355.674z M342,381h7v1h-7V381z M336.754,390l-1.428-5H339v5H336.754z M336.754,398l-1.428-5H339v5H336.754z     M336.754,406l-1.428-5H339v5H336.754z M355.674,401l-1.428,5H352v-5H355.674z M355.674,393l-1.428,5H352v-5H355.674z M351,392v7    v1v7v1h-11v-1v-7v-1v-7v-1v-7v-1h11v1v7V392z"/>
	</g>
	
    </g>
</svg>
