<?xml version="1.0" encoding="iso-8859-1"?>
<!DOCTYPE svg PUBLIC "-//W3C//DTD SVG 1.1//EN" "http://www.w3.org/Graphics/SVG/1.1/DTD/svg11.dtd">
<svg version="1.1" xmlns="http://www.w3.org/2000/svg" xmlns:xlink="http://www.w3.org/1999/xlink" x="0px" y="0px" width="29" height="30" viewBox="0 0 29 30" xml:space="preserve">
    <g transform="translate(-570 -200)">
        <g xmlns="http://www.w3.org/2000/svg" xmlns:xlink="http://www.w3.org/1999/xlink" id="abc-block-7">
		<path d="M578,214h13v-13h-13V214z M579,202h11v11h-11V202z"/>
		<path d="M582,211h1v-3h3v3h1v-7h-5V211z M583,205h3v2h-3V205z"/>
		<path d="M584,215h-13v13h13V215z M583,227h-11v-11h11V227z"/>
		<path d="M580,218h-5v7h5V218z M579,224h-3v-2h3V224z M579,221h-3v-2h3V221z"/>
		<path d="M585,228h13v-13h-13V228z M586,216h11v11h-11V216z"/>
		<polygon points="589,225 594,225 594,224 590,224 590,219 594,219 594,218 589,218   "/>
	</g>
	
    </g>
</svg>
