<?xml version="1.0" encoding="iso-8859-1"?>
<!DOCTYPE svg PUBLIC "-//W3C//DTD SVG 1.1//EN" "http://www.w3.org/Graphics/SVG/1.1/DTD/svg11.dtd">
<svg version="1.1" xmlns="http://www.w3.org/2000/svg" xmlns:xlink="http://www.w3.org/1999/xlink" x="0px" y="0px" width="30" height="30" viewBox="0 0 30 30" xml:space="preserve">
    <g transform="translate(-390 -80)">
        <g xmlns="http://www.w3.org/2000/svg" xmlns:xlink="http://www.w3.org/1999/xlink" id="baby-pin-7">
		<path d="M400.535,106.535l16.264-16.264c1.953-1.952,1.953-5.119,0-7.072c-1.951-1.952-5.119-1.953-7.07,0l-16.266,16.264    c-1.951,1.953-1.951,5.12,0,7.072C395.418,108.486,398.584,108.487,400.535,106.535z M410.436,83.906    c1.561-1.559,4.098-1.559,5.656,0c1.561,1.561,1.561,4.098,0,5.658c-1.559,1.559-4.096,1.559-5.658,0    C408.873,88.004,408.875,85.467,410.436,83.906z M408.332,86.008c-0.221,1.513,0.232,3.102,1.395,4.264    c1.162,1.163,2.754,1.615,4.264,1.395l-11.332,11.332L397,97.342L408.332,86.008z M394.17,100.17l2.123-2.121l5.658,5.657    l-2.123,2.122c-0.756,0.756-1.76,1.172-2.828,1.171c-1.07,0.001-2.072-0.416-2.83-1.171c-0.754-0.755-1.172-1.76-1.172-2.829    C393,101.932,393.414,100.926,394.17,100.17z"/>
		<path d="M397,105c1.105,0,2-0.896,2-2.001c0-1.104-0.895-1.999-2-1.999c-1.104,0-2,0.895-2,2C395,104.104,395.896,104.999,397,105    z M397,102c0.553,0,1.002,0.449,1,0.999c0,0.553-0.447,1.001-1,1.001c-0.551,0-1-0.448-1-1C396,102.447,396.447,102,397,102z"/>
	</g>
	
    </g>
</svg>
