<?xml version="1.0" encoding="iso-8859-1"?>
<!DOCTYPE svg PUBLIC "-//W3C//DTD SVG 1.1//EN" "http://www.w3.org/Graphics/SVG/1.1/DTD/svg11.dtd">
<svg version="1.1" xmlns="http://www.w3.org/2000/svg" xmlns:xlink="http://www.w3.org/1999/xlink" x="0px" y="0px" width="30" height="30" viewBox="0 0 30 30" xml:space="preserve">
    <g transform="translate(-210 -440)">
        <g xmlns="http://www.w3.org/2000/svg" xmlns:xlink="http://www.w3.org/1999/xlink" id="bomb-7">
		<path d="M233.508,449.022l-1.891-1.067c1.293-2.004,1.163-4.495-0.384-5.945c-1.543-1.445-4.602-1.782-8.559,1.611    c-5.212,4.467-7.708,4.346-8.729,3.874c-1.141-0.524-1.445-1.815-1.445-2.495h-1c0,1.23,0.627,2.76,2.027,3.404    c0.473,0.217,0.995,0.325,1.567,0.325c2.097,0,4.854-1.456,8.23-4.351c3.456-2.96,5.997-2.787,7.225-1.639    c1.204,1.128,1.266,3.116,0.199,4.726l-2.467-1.392l-1.208,2.143c-4.16-0.884-8.584,0.971-10.784,4.871    c-2.714,4.811-1.014,10.908,3.798,13.622c4.811,2.714,10.908,1.014,13.622-3.798c2.2-3.9,1.498-8.646-1.41-11.748L233.508,449.022    z M232.839,462.421c-1.594,2.826-4.601,4.581-7.847,4.581c0,0,0,0-0.001,0c-1.538,0-3.063-0.402-4.412-1.163    c-2.095-1.182-3.604-3.107-4.249-5.422c-0.646-2.315-0.351-4.744,0.831-6.838c1.593-2.824,4.6-4.579,7.846-4.579    c0.625,0,1.25,0.065,1.859,0.195l0.719,0.152l1.077-1.911l3.483,1.965l-1.077,1.911l0.502,0.535    C234.271,454.729,234.781,458.979,232.839,462.421z"/>
	</g>
	
    </g>
</svg>
