<?xml version="1.0" encoding="iso-8859-1"?>
<!DOCTYPE svg PUBLIC "-//W3C//DTD SVG 1.1//EN" "http://www.w3.org/Graphics/SVG/1.1/DTD/svg11.dtd">
<svg version="1.1" xmlns="http://www.w3.org/2000/svg" xmlns:xlink="http://www.w3.org/1999/xlink" x="0px" y="0px" width="30" height="30" viewBox="0 0 30 30" xml:space="preserve">
    <g transform="translate(-30 -200)">
        <g xmlns="http://www.w3.org/2000/svg" xmlns:xlink="http://www.w3.org/1999/xlink" id="broom-7">
		<path d="M51.104,207.481c-1.472-0.812-3.418-0.824-3.418-0.824s-9.192,4.95-15.557,4.243c0,0,0.488,1.455,1.453,3.429    c0.355,0.726,0.776,1.52,1.262,2.342c0.7,1.188,1.538,2.425,2.512,3.582c0.362,0.431,0.738,0.854,1.138,1.253    s0.822,0.775,1.253,1.137c1.157,0.974,2.395,1.812,3.582,2.513c0.823,0.485,1.616,0.906,2.343,1.261    c1.974,0.965,3.429,1.454,3.429,1.454c-0.707-6.364,4.242-15.557,4.242-15.557s-0.012-1.946-0.823-3.418l6.48-6.481L57.586,201    L51.104,207.481z M48.032,226.387c-0.6-0.25-1.367-0.596-2.211-1.019l0.451-3.155l-2.211,2.21    c-1.267-0.732-2.599-1.622-3.82-2.669l2.495-4.491l-4.491,2.496c-1.047-1.222-1.937-2.554-2.669-3.821l2.211-2.21l-3.155,0.451    c-0.422-0.844-0.77-1.612-1.019-2.211c4.225-0.051,9.062-1.887,11.96-3.181l5.641,5.641    C49.92,217.325,48.084,222.162,48.032,226.387z M51.657,213.457l-5.113-5.114c0.631-0.298,1.106-0.539,1.376-0.678    c0.587,0.031,1.611,0.173,2.447,0.554c0.325,0.148,0.625,0.33,0.854,0.56c0.23,0.23,0.411,0.529,0.56,0.854    c0.382,0.837,0.523,1.861,0.555,2.448C52.196,212.35,51.956,212.826,51.657,213.457z"/>
		<circle cx="53" cy="223" r="1"/>
		<circle cx="56" cy="221" r="1"/>
		<path d="M57,224c-1.104,0-2,0.896-2,2s0.896,2,2,2s2-0.896,2-2S58.104,224,57,224z M57,227c-0.553,0-1-0.448-1-1s0.447-1,1-1    s1,0.448,1,1S57.553,227,57,227z"/>
	</g>
	
    </g>
</svg>
