<?xml version="1.0" encoding="iso-8859-1"?>
<!DOCTYPE svg PUBLIC "-//W3C//DTD SVG 1.1//EN" "http://www.w3.org/Graphics/SVG/1.1/DTD/svg11.dtd">
<svg version="1.1" xmlns="http://www.w3.org/2000/svg" xmlns:xlink="http://www.w3.org/1999/xlink" x="0px" y="0px" width="30" height="30" viewBox="0 0 30 30" xml:space="preserve">
    <g transform="translate(-450 -140)">
        <g xmlns="http://www.w3.org/2000/svg" xmlns:xlink="http://www.w3.org/1999/xlink" id="burger-7">
		<path d="M452,160.723V163c0,1.104,0.896,2,2,2h22c1.104,0,2-0.896,2-2v-2.277c0.596-0.347,1-0.984,1-1.723c0-1.104-0.896-2-2-2v-2    h1c0-6.075-5.82-11-13-11s-13,4.925-13,11h1v2c-1.104,0-2,0.896-2,2C451,159.738,451.404,160.376,452,160.723z M477,163    c0,0.551-0.448,1-1,1h-22c-0.552,0-1-0.449-1-1v-2h24V163z M465,145c6.212,0,11.336,3.954,11.94,9H453.06    C453.664,148.954,458.788,145,465,145z M476,155v2h-22v-2H476z M453,158h1h22h1c0.552,0,1,0.449,1,1s-0.448,1-1,1h-24    c-0.552,0-1-0.449-1-1S452.448,158,453,158z"/>
	</g>
	
    </g>
</svg>
