<?xml version="1.0" encoding="iso-8859-1"?>
<!DOCTYPE svg PUBLIC "-//W3C//DTD SVG 1.1//EN" "http://www.w3.org/Graphics/SVG/1.1/DTD/svg11.dtd">
<svg version="1.1" xmlns="http://www.w3.org/2000/svg" xmlns:xlink="http://www.w3.org/1999/xlink" x="0px" y="0px" width="30" height="30" viewBox="0 0 30 30" xml:space="preserve">
    <g transform="translate(-450 -80)">
        <g xmlns="http://www.w3.org/2000/svg" xmlns:xlink="http://www.w3.org/1999/xlink" id="button-7">
		<path d="M465,108c7.18,0,13-5.82,13-13s-5.82-13-13-13s-13,5.82-13,13S457.82,108,465,108z M465,83c6.617,0,12,5.383,12,12    s-5.383,12-12,12s-12-5.383-12-12S458.383,83,465,83z"/>
		<path d="M465,105c5.514,0,10-4.486,10-10s-4.486-10-10-10s-10,4.486-10,10S459.486,105,465,105z M465,86c4.963,0,9,4.037,9,9    s-4.037,9-9,9s-9-4.037-9-9S460.037,86,465,86z"/>
		<path d="M464.293,94.293c1.172-1.172,1.172-3.071,0-4.243c-1.172-1.171-3.071-1.171-4.243,0c-1.172,1.172-1.172,3.071,0,4.243    S463.121,95.465,464.293,94.293z M460.757,90.758c0.78-0.78,2.049-0.78,2.829,0c0.779,0.779,0.779,2.049,0,2.828    c-0.78,0.779-2.049,0.779-2.829,0C459.978,92.807,459.978,91.537,460.757,90.758z"/>
		<path d="M465.707,99.949c1.172,1.172,3.07,1.172,4.242,0s1.172-3.07,0-4.242s-3.07-1.172-4.242,0S464.535,98.777,465.707,99.949z     M466.414,96.414c0.779-0.779,2.049-0.779,2.828,0s0.779,2.049,0,2.828c-0.779,0.78-2.049,0.78-2.828,0    C465.635,98.463,465.635,97.193,466.414,96.414z"/>
	</g>
	
    </g>
</svg>
