<?xml version="1.0" encoding="iso-8859-1"?>
<!DOCTYPE svg PUBLIC "-//W3C//DTD SVG 1.1//EN" "http://www.w3.org/Graphics/SVG/1.1/DTD/svg11.dtd">
<svg version="1.1" xmlns="http://www.w3.org/2000/svg" xmlns:xlink="http://www.w3.org/1999/xlink" x="0px" y="0px" width="29" height="30" viewBox="0 0 29 30" xml:space="preserve">
    <g transform="translate(-150 -260)">
        <g xmlns="http://www.w3.org/2000/svg" xmlns:xlink="http://www.w3.org/1999/xlink" id="couch-7">
		<path d="M175,271h-2v-5c0-1.104-0.896-2-2-2h-13c-1.104,0-2,0.896-2,2v5h-2c-1.104,0-2,0.896-2,2v9c0,1.104,0.896,2,2,2v1h-1v1h1    h1h1v-1h-1v-1h19v1h-1v1h1h1h1v-1h-1v-1c1.104,0,2-0.896,2-2v-9C177,271.896,176.104,271,175,271z M157,266c0-0.552,0.449-1,1-1    h13c0.551,0,1,0.448,1,1v12h-15V266z M176,282c0,0.552-0.449,1-1,1h-21c-0.551,0-1-0.448-1-1v-9c0-0.552,0.449-1,1-1h2v6h-1v1h1    h17h1v-1h-1v-6h2c0.551,0,1,0.448,1,1V282z"/>
		<rect x="161" y="268" width="1" height="1"/>
		<rect x="167" y="268" width="1" height="1"/>
		<rect x="161" y="272.5" width="1" height="1"/>
		<rect x="167" y="272.5" width="1" height="1"/>
	</g>
	
    </g>
</svg>
