<?xml version="1.0" encoding="iso-8859-1"?>
<!DOCTYPE svg PUBLIC "-//W3C//DTD SVG 1.1//EN" "http://www.w3.org/Graphics/SVG/1.1/DTD/svg11.dtd">
<svg version="1.1" xmlns="http://www.w3.org/2000/svg" xmlns:xlink="http://www.w3.org/1999/xlink" x="0px" y="0px" width="30" height="30" viewBox="0 0 30 30" xml:space="preserve">
    <g transform="translate(-330 -80)">
        <g xmlns="http://www.w3.org/2000/svg" xmlns:xlink="http://www.w3.org/1999/xlink" id="dryer-7">
		<path d="M356,82h-22v26h22V82z M355,107h-20V87h20V107z M355,86h-20v-3h20V86z"/>
		<rect x="351" y="84" width="1" height="1"/>
		<rect x="349" y="84" width="1" height="1"/>
		<rect x="353" y="84" width="1" height="1"/>
		<path d="M341,104h8c2.209,0,4-1.791,4-4v-6c0-2.209-1.791-4-4-4h-8c-2.209,0-4,1.791-4,4v6C337,102.209,338.791,104,341,104z     M338,94c0-1.654,1.346-3,3-3h8c1.654,0,3,1.346,3,3v6c0,1.654-1.346,3-3,3h-8c-1.654,0-3-1.346-3-3V94z"/>
		<rect x="339" y="95" width="1" height="4"/>
	</g>
	
    </g>
</svg>
