<?xml version="1.0" encoding="iso-8859-1"?>
<!DOCTYPE svg PUBLIC "-//W3C//DTD SVG 1.1//EN" "http://www.w3.org/Graphics/SVG/1.1/DTD/svg11.dtd">
<svg version="1.1" xmlns="http://www.w3.org/2000/svg" xmlns:xlink="http://www.w3.org/1999/xlink" x="0px" y="0px" width="30" height="30" viewBox="0 0 30 30" xml:space="preserve">
    <g transform="translate(-90 -260)">
        <g xmlns="http://www.w3.org/2000/svg" xmlns:xlink="http://www.w3.org/1999/xlink" id="fan-7">
		<path d="M113.428,278.401c-1.991-1.149-3.992-1.753-5.463-1.756c-0.101-0.833-0.535-1.559-1.174-2.038    c0.732-1.276,1.209-3.31,1.209-5.607c0-3.866-1.344-7-3-7s-3,3.134-3,7c0,2.298,0.477,4.331,1.209,5.607    c-0.639,0.479-1.073,1.205-1.174,2.038c-1.471,0.003-3.472,0.606-5.463,1.756c-3.349,1.933-5.391,4.663-4.563,6.099    c0.828,1.434,4.214,1.031,7.563-0.902c1.984-1.146,3.504-2.572,4.245-3.843C104.181,279.912,104.58,280,105,280    s0.818-0.088,1.182-0.244c0.74,1.271,2.261,2.695,4.246,3.842c3.348,1.934,6.733,2.337,7.563,0.902    C118.818,283.064,116.775,280.334,113.428,278.401z M103,269c0-3.723,1.295-6,2-6s2,2.277,2,6c0,2.391-0.534,4.174-1.104,5.152    c-0.285-0.09-0.582-0.152-0.896-0.152s-0.611,0.063-0.896,0.152C103.534,273.174,103,271.391,103,269z M99.072,282.731    c-3.225,1.861-5.844,1.878-6.197,1.269c-0.352-0.611,0.973-2.871,4.197-4.732c2.063-1.191,3.869-1.622,5.002-1.621    c0.135,0.611,0.46,1.147,0.906,1.557C102.416,280.185,101.139,281.538,99.072,282.731z M105,279c-1.104,0-2-0.896-2-2s0.896-2,2-2    s2,0.896,2,2S106.104,279,105,279z M117.124,284c-0.353,0.61-2.974,0.593-6.196-1.269c-2.068-1.193-3.346-2.546-3.909-3.527    c0.446-0.409,0.772-0.946,0.907-1.558c1.133-0.001,2.939,0.43,5.002,1.621C116.151,281.129,117.477,283.389,117.124,284z"/>
	</g>
	
    </g>
</svg>
