<?xml version="1.0" encoding="iso-8859-1"?>
<!DOCTYPE svg PUBLIC "-//W3C//DTD SVG 1.1//EN" "http://www.w3.org/Graphics/SVG/1.1/DTD/svg11.dtd">
<svg version="1.1" xmlns="http://www.w3.org/2000/svg" xmlns:xlink="http://www.w3.org/1999/xlink" x="0px" y="0px" width="30" height="30" viewBox="0 0 30 30" xml:space="preserve">
    <g transform="translate(-90 -140)">
        <g xmlns="http://www.w3.org/2000/svg" xmlns:xlink="http://www.w3.org/1999/xlink" id="fork-knife-7">
		<path d="M101,167.366c0.327,0.106,0.662,0.192,1,0.272c0.965,0.228,1.966,0.361,3,0.361c1.772,0,3.461-0.357,5-1    c0.342-0.143,0.674-0.304,1-0.475c4.157-2.168,7-6.512,7-11.525c0-7.18-5.82-13-13-13s-13,5.82-13,13    C92,160.783,95.779,165.679,101,167.366z M110,159h-2.978c0.218-4.818,1.969-7.969,2.978-9.401V159z M105,143    c6.617,0,12,5.383,12,12c0,4.431-2.419,8.298-6,10.377V148h-1c0,0-4,4-4,12h4v5.895c-1.524,0.703-3.215,1.105-5,1.105    c-1.037,0-2.039-0.146-3-0.395V160l2-2v-1v-9h-1v9h-1v-9h-1v9h-1v-9h-1v9v1l2,2v6.3c-4.653-1.652-8-6.087-8-11.3    C93,148.383,98.383,143,105,143z"/>
	</g>
	
    </g>
</svg>
