<?xml version="1.0" encoding="iso-8859-1"?>
<!DOCTYPE svg PUBLIC "-//W3C//DTD SVG 1.1//EN" "http://www.w3.org/Graphics/SVG/1.1/DTD/svg11.dtd">
<svg version="1.1" xmlns="http://www.w3.org/2000/svg" xmlns:xlink="http://www.w3.org/1999/xlink" x="0px" y="0px" width="30" height="30" viewBox="0 0 30 30" xml:space="preserve">
    <g transform="translate(-150 -140)">
        <g xmlns="http://www.w3.org/2000/svg" xmlns:xlink="http://www.w3.org/1999/xlink" id="fork-knife-plate-7">
		<path d="M165,145c-5.523,0-10,4.478-10,10c0,5.521,4.477,10,10,10s10-4.479,10-10C175,149.478,170.523,145,165,145z M165,164    c-4.963,0-9-4.037-9-9s4.037-9,9-9s9,4.037,9,9S169.963,164,165,164z"/>
		<path d="M159,155c0,1.507,0.56,2.881,1.478,3.935c-0.306-0.753-0.478-1.573-0.478-2.435c0-3.584,2.916-6.5,6.5-6.5    c0.861,0,1.682,0.172,2.435,0.478C167.881,149.56,166.507,149,165,149C161.687,149,159,151.687,159,155z"/>
		<polygon points="152,165 152,152 153,152 153,145 152,145 152,151 151,151 151,145 150,145 150,152 151,152 151,165   "/>
		<path d="M176,155.5v0.5h3v9h1v-21l-0.9,1.2C178.974,145.369,176,149.403,176,155.5z M179,155h-1.993    c0.099-3.402,1.181-6.113,1.993-7.688V155z"/>
	</g>
	
    </g>
</svg>
