<?xml version="1.0" encoding="iso-8859-1"?>
<!DOCTYPE svg PUBLIC "-//W3C//DTD SVG 1.1//EN" "http://www.w3.org/Graphics/SVG/1.1/DTD/svg11.dtd">
<svg version="1.1" xmlns="http://www.w3.org/2000/svg" xmlns:xlink="http://www.w3.org/1999/xlink" x="0px" y="0px" width="30" height="30" viewBox="0 0 30 30" xml:space="preserve">
    <g transform="translate(-330 -140)">
        <g xmlns="http://www.w3.org/2000/svg" xmlns:xlink="http://www.w3.org/1999/xlink" id="ice-cream-7">
		<path d="M340.97,156.998c-0.396-0.002-0.784-0.041-1.159-0.117L345,168l5.189-11.119c-0.375,0.076-0.763,0.115-1.159,0.117    l-4.03,8.638L340.97,156.998z"/>
		<path d="M354,151c0-2.444-1.763-4.484-4.084-4.916C349.484,143.763,347.444,142,345,142s-4.484,1.763-4.916,4.084    C337.763,146.516,336,148.556,336,151c0,2.757,2.243,5,5,5c1.634,0,3.087-0.788,4-2.003c0.913,1.215,2.366,2.003,4,2.003    C351.757,156,354,153.757,354,151z M349,155c-2.209,0-4-1.79-4-4c0,2.21-1.791,4-4,4s-4-1.79-4-4c0-2.209,1.791-4,4-4    c0-2.209,1.791-4,4-4s4,1.791,4,4c2.209,0,4,1.791,4,4C353,153.21,351.209,155,349,155z"/>
	</g>
	
    </g>
</svg>
