<?xml version="1.0" encoding="iso-8859-1"?>
<!DOCTYPE svg PUBLIC "-//W3C//DTD SVG 1.1//EN" "http://www.w3.org/Graphics/SVG/1.1/DTD/svg11.dtd">
<svg version="1.1" xmlns="http://www.w3.org/2000/svg" xmlns:xlink="http://www.w3.org/1999/xlink" x="0px" y="0px" width="30" height="30" viewBox="0 0 30 30" xml:space="preserve">
    <g transform="translate(-270 -200)">
        <g xmlns="http://www.w3.org/2000/svg" xmlns:xlink="http://www.w3.org/1999/xlink" id="light-bulb-energy-7">
		<path d="M295.456,212.633c0.117-0.25,0.01-0.547-0.241-0.665l-10.606-4.95c-0.251-0.117-0.548-0.009-0.664,0.242    c-0.092,0.195-0.045,0.42,0.099,0.565c0.04,0.04,0.088,0.074,0.143,0.1l10.606,4.95    C295.042,212.992,295.34,212.884,295.456,212.633z"/>
		<path d="M297.578,210.512c0.116-0.25,0.008-0.545-0.242-0.664l-10.606-4.95c-0.25-0.117-0.548-0.009-0.664,0.242    c-0.092,0.195-0.045,0.42,0.1,0.564c0.04,0.04,0.087,0.074,0.142,0.1l10.606,4.95    C297.164,210.871,297.461,210.762,297.578,210.512z"/>
		<path d="M294.214,206.382c0.25,0.117,0.547,0.009,0.664-0.242c0.116-0.249,0.01-0.545-0.242-0.664l-5.785-2.7    c-0.25-0.117-0.547-0.009-0.664,0.242c-0.092,0.195-0.045,0.42,0.1,0.565c0.04,0.04,0.088,0.074,0.143,0.1L294.214,206.382z"/>
		<path d="M293.335,214.754c0.117-0.25,0.009-0.546-0.241-0.664l-10.606-4.95c-0.004-0.002-0.009-0.001-0.013-0.003    c-0.035-0.016-0.073-0.02-0.112-0.027c-0.026-0.004-0.052-0.014-0.077-0.015c-0.032-0.001-0.063,0.009-0.094,0.015    c-0.032,0.006-0.064,0.007-0.095,0.019c-0.025,0.009-0.046,0.028-0.069,0.042c-0.033,0.02-0.066,0.037-0.095,0.063    c-0.004,0.002-0.008,0.003-0.011,0.006c-0.021,0.022-0.032,0.049-0.049,0.074c-0.017,0.023-0.038,0.042-0.051,0.068    c-0.001,0.002,0.001,0.006-0.001,0.009c-0.037,0.084-0.045,0.173-0.034,0.263c0.003,0.021,0.006,0.037,0.012,0.057    c0.021,0.086,0.057,0.168,0.123,0.235l1.414,1.415c0.073,0.072,1.74,1.795-0.707,4.243l-1.768-1.768    c-0.391-0.391-1.023-0.391-1.414,0l-2.828,2.829v2.828l-0.708,0.708l-0.707-0.708l-0.707,0.708l0.707,0.707l-0.707,0.707    l-0.707-0.707l-0.707,0.707l0.707,0.707l-1.414,1.414l0.707,0.708l-0.707,0.707l2.121,2.121l0.707-0.707l0.707,0.707l1.415-1.414    l0.707,0.707l0.707-0.707l-0.707-0.707l0.707-0.707l0.707,0.707l0.707-0.707l-0.707-0.708l0.707-0.707h2.828l2.829-2.828    c0.39-0.391,0.391-1.023,0-1.415l-1.769-1.768c2.383-2.382,4.062-0.884,4.243-0.707l1.414,1.414c0.195,0.195,0.512,0.195,0.707,0    s0.195-0.512,0-0.707l-1.414-1.414c-0.025-0.025-2.512-2.439-5.657,0.707c2.333-2.333,1.609-4.299,1.068-5.173l8.267,3.858    C292.921,215.113,293.219,215.005,293.335,214.754z M275.911,225.857l-2.121-2.122l0.707-0.707l2.122,2.122L275.911,225.857z     M277.326,224.443l-2.122-2.122l0.707-0.707l2.122,2.121L277.326,224.443z M285.104,219.493l-2.536,2.536h-2.828l-1,1    l-2.121-2.121l0.999-1v-2.829l2.536-2.536L285.104,219.493z"/>
	</g>
	
    </g>
</svg>
