<?xml version="1.0" encoding="iso-8859-1"?>
<!DOCTYPE svg PUBLIC "-//W3C//DTD SVG 1.1//EN" "http://www.w3.org/Graphics/SVG/1.1/DTD/svg11.dtd">
<svg version="1.1" xmlns="http://www.w3.org/2000/svg" xmlns:xlink="http://www.w3.org/1999/xlink" x="0px" y="0px" width="29" height="30" viewBox="0 0 29 30" xml:space="preserve">
    <g transform="translate(-30 -380)">
        <g xmlns="http://www.w3.org/2000/svg" xmlns:xlink="http://www.w3.org/1999/xlink" id="lipstick-7">
		<path d="M32.772,404.253l3.535,3.535c0.781,0.781,2.048,0.781,2.828,0l4.243-4.242l0.707,0.707l0.707-0.707l-0.707-0.707    l11.313-11.313l-1.414-1.414l2.828-2.829l-1.414-5.656l-4.95,4.949l-1.414-1.414l-11.313,11.313l-0.707-0.707l-0.707,0.707    l0.707,0.707l-4.242,4.243C31.991,402.205,31.991,403.472,32.772,404.253z M49.035,386.575l4.95,4.95l-10.606,10.606l-4.95-4.95    L49.035,386.575z M33.479,402.132l4.242-4.243l4.95,4.95l-4.243,4.242c-0.39,0.391-1.023,0.391-1.414,0l-3.535-3.535    C33.089,403.155,33.089,402.521,33.479,402.132z"/>
		<rect x="40.854" y="391.378" transform="matrix(0.7071 -0.7072 0.7072 0.7071 -263.6866 147.2232)" width="10" height="1"/>
		<rect x="40.404" y="395.828" transform="matrix(-0.7071 -0.7071 0.7071 -0.7071 -210.7727 706.3513)" width="1" height="2"/>
	</g>
	
    </g>
</svg>
