<?xml version="1.0" encoding="iso-8859-1"?>
<!DOCTYPE svg PUBLIC "-//W3C//DTD SVG 1.1//EN" "http://www.w3.org/Graphics/SVG/1.1/DTD/svg11.dtd">
<svg version="1.1" xmlns="http://www.w3.org/2000/svg" xmlns:xlink="http://www.w3.org/1999/xlink" x="0px" y="0px" width="30" height="30" viewBox="0 0 30 30" xml:space="preserve">
    <g transform="translate(-510 -140)">
        <g xmlns="http://www.w3.org/2000/svg" xmlns:xlink="http://www.w3.org/1999/xlink" id="lollipop-7">
		<path d="M525.572,155.136c2.822,2.471,7.043,2.471,9.863-0.001l0.727,0.726l0.707-0.707l-0.727-0.726    c2.582-2.946,2.475-7.426-0.336-10.234c-2.809-2.811-7.287-2.917-10.234-0.336l-0.725-0.725l-0.707,0.707l0.725,0.725    c-2.471,2.82-2.471,7.042,0,9.863l-12.746,12.746l0.707,0.707L525.572,155.136z M535.1,144.9c2.416,2.415,2.523,6.27,0.336,8.82    l-9.156-9.156C528.83,142.377,532.686,142.485,535.1,144.9z M525.572,145.271l9.156,9.156c-2.551,2.188-6.406,2.08-8.82-0.335    C523.492,151.678,523.385,147.822,525.572,145.271z"/>
	</g>
	
    </g>
</svg>
