<?xml version="1.0" encoding="iso-8859-1"?>
<!DOCTYPE svg PUBLIC "-//W3C//DTD SVG 1.1//EN" "http://www.w3.org/Graphics/SVG/1.1/DTD/svg11.dtd">
<svg version="1.1" xmlns="http://www.w3.org/2000/svg" xmlns:xlink="http://www.w3.org/1999/xlink" x="0px" y="0px" width="30" height="30" viewBox="0 0 30 30" xml:space="preserve">
    <g transform="translate(-210 -320)">
        <g xmlns="http://www.w3.org/2000/svg" xmlns:xlink="http://www.w3.org/1999/xlink" id="pacifier-7">
		<path d="M215.15,344.85c2.083,2.083,5.459,2.083,7.542,0c1.731-1.731,2.218-5.466,3.954-8.303l4.061,4.061    c0.391,0.391,1.023,0.391,1.414,0c0.391-0.392,0.391-1.023,0-1.415l-3.312-3.312c0.385,0.077,0.782,0.119,1.19,0.119    c3.314,0,6-2.686,6-6s-2.686-6-6-6s-6,2.686-6,6c0,0.407,0.041,0.806,0.119,1.19l-3.312-3.312c-0.392-0.391-1.023-0.391-1.415,0    c-0.391,0.391-0.391,1.023,0,1.414l4.072,4.072c-3.009,1.936-7.24,2.867-8.314,3.942    C213.067,339.391,213.067,342.767,215.15,344.85z M230,325c2.756,0,5,2.244,5,5c0,2.757-2.244,5.001-5,5.001    c-2.757,0-5.001-2.244-5.001-5.001C224.999,327.244,227.243,325,230,325z M218.764,336.664c1.715-0.664,3.742-1.452,5.426-2.574    l1.744,1.745c-0.896,1.399-1.494,2.977-2.023,4.427c-0.575,1.581-1.12,3.075-1.925,3.881c-1.689,1.689-4.438,1.689-6.128,0    s-1.689-4.438,0-6.128C216.225,337.647,217.515,337.147,218.764,336.664z"/>
		<path d="M230,333c1.656,0,3-1.344,3-3s-1.344-3-3-3s-3,1.344-3,3S228.344,333,230,333z M230,328c1.105,0,2,0.895,2,2s-0.895,2-2,2    s-2-0.895-2-2S228.895,328,230,328z"/>
	</g>
	
    </g>
</svg>
