<?xml version="1.0" encoding="iso-8859-1"?>
<!DOCTYPE svg PUBLIC "-//W3C//DTD SVG 1.1//EN" "http://www.w3.org/Graphics/SVG/1.1/DTD/svg11.dtd">
<svg version="1.1" xmlns="http://www.w3.org/2000/svg" xmlns:xlink="http://www.w3.org/1999/xlink" x="0px" y="0px" width="29" height="30" viewBox="0 0 29 30" xml:space="preserve">
    <g transform="translate(-330 -200)">
        <g xmlns="http://www.w3.org/2000/svg" xmlns:xlink="http://www.w3.org/1999/xlink" id="pan-7">
		<path d="M347,202c-6.074,0-11,4.925-11,11c0,2.677,0.958,5.129,2.548,7.037l-7.104,7.105l1.415,1.415l7.104-7.104    c1.907,1.59,4.359,2.548,7.037,2.548c6.075,0,11-4.925,11-11S353.075,202,347,202z M347,223c-5.514,0-10-4.486-10-10    c0-5.515,4.486-10.001,10-10c5.514,0,10,4.486,10,10C357,218.513,352.514,222.999,347,223z"/>
		<path d="M347,209c-2.209,0-4,1.791-4,4c0,2.209,1.791,4,4,4s4-1.791,4-4C351,210.791,349.209,209,347,209z M347,216    c-1.654,0-3-1.346-3-3c0-1.655,1.346-3,3-3c1.654,0,3,1.346,3,3C350,214.654,348.654,216,347,216z"/>
	</g>
	
    </g>
</svg>
