<?xml version="1.0" encoding="iso-8859-1"?>
<!DOCTYPE svg PUBLIC "-//W3C//DTD SVG 1.1//EN" "http://www.w3.org/Graphics/SVG/1.1/DTD/svg11.dtd">
<svg version="1.1" xmlns="http://www.w3.org/2000/svg" xmlns:xlink="http://www.w3.org/1999/xlink" x="0px" y="0px" width="30" height="30" viewBox="0 0 30 30" xml:space="preserve">
    <g transform="translate(-90 -320)">
        <g xmlns="http://www.w3.org/2000/svg" xmlns:xlink="http://www.w3.org/1999/xlink" id="plaster-two-7">
		<path d="M116.668,325.454l-2.122-2.121c-1.562-1.563-4.095-1.563-5.657,0L105,327.221l-3.889-3.888    c-1.563-1.563-4.096-1.563-5.656,0l-2.123,2.121c-1.561,1.561-1.561,4.094,0,5.656l3.89,3.89l-3.889,3.888    c-1.562,1.563-1.562,4.096,0,5.658l2.121,2.121c1.562,1.563,4.095,1.563,5.657,0l3.889-3.889l3.889,3.889    c1.563,1.563,4.096,1.563,5.658,0l2.121-2.121c1.561-1.563,1.561-4.096,0-5.658L112.779,335l3.889-3.89    C118.229,329.548,118.229,327.015,116.668,325.454z M94.039,330.403c-1.168-1.17-1.168-3.072,0-4.242l2.123-2.121    c1.17-1.17,3.072-1.17,4.242,0l3.889,3.889l-6.364,6.364L94.039,330.403z M115.961,339.595c1.17,1.17,1.17,3.074,0,4.244    l-2.121,2.121c-1.17,1.17-3.074,1.17-4.244,0l-3.889-3.889l6.365-6.364L115.961,339.595z M100.404,345.96    c-1.17,1.17-3.073,1.17-4.243,0l-2.121-2.121c-1.17-1.17-1.17-3.074,0-4.244l15.557-15.555c1.169-1.17,3.072-1.17,4.242,0    l2.122,2.121c1.169,1.17,1.169,3.072,0,4.242L100.404,345.96z"/>
		<path d="M98.99,336.06l4.949,4.949l7.071-7.07l-4.95-4.949L98.99,336.06z M103.939,332.524l1.414,1.414l-1.414,1.414l-1.414-1.414    L103.939,332.524z M100.404,336.06l1.414-1.414l1.414,1.414l-1.414,1.414L100.404,336.06z M103.939,339.595l-1.414-1.414    l1.414-1.414l1.414,1.414L103.939,339.595z M106.061,337.474l-1.414-1.414l1.414-1.414l1.414,1.414L106.061,337.474z     M109.597,333.938l-1.415,1.414l-1.414-1.414l1.414-1.414L109.597,333.938z M106.061,333.231l-1.414-1.414l1.414-1.414    l1.414,1.414L106.061,333.231z"/>
	</g>
	
    </g>
</svg>
