<?xml version="1.0" encoding="iso-8859-1"?>
<!DOCTYPE svg PUBLIC "-//W3C//DTD SVG 1.1//EN" "http://www.w3.org/Graphics/SVG/1.1/DTD/svg11.dtd">
<svg version="1.1" xmlns="http://www.w3.org/2000/svg" xmlns:xlink="http://www.w3.org/1999/xlink" x="0px" y="0px" width="29" height="30" viewBox="0 0 29 30" xml:space="preserve">
    <g transform="translate(-210 -380)">
        <g xmlns="http://www.w3.org/2000/svg" xmlns:xlink="http://www.w3.org/1999/xlink" id="rim-7">
		<path d="M224.5,386c-5.246,0-9.5,4.253-9.5,9.5s4.254,9.5,9.5,9.5s9.5-4.253,9.5-9.5S229.746,386,224.5,386z M227.949,395    c-0.085-0.591-0.313-1.131-0.654-1.588l3.549-3.55c1.232,1.385,2.016,3.171,2.131,5.138H227.949z M222.411,398.294    c0.457,0.343,0.997,0.57,1.589,0.655v5.025c-1.967-0.115-3.753-0.898-5.138-2.131L222.411,398.294z M225,398.949    c0.591-0.085,1.131-0.313,1.588-0.654l3.55,3.549c-1.386,1.232-3.171,2.016-5.138,2.131V398.949z M224.5,398    c-1.379,0-2.5-1.121-2.5-2.5s1.121-2.5,2.5-2.5s2.5,1.121,2.5,2.5S225.879,398,224.5,398z M226.588,392.705    c-0.457-0.342-0.997-0.569-1.588-0.654v-5.025c1.967,0.115,3.752,0.898,5.137,2.13L226.588,392.705z M224,392.051    c-0.591,0.085-1.131,0.313-1.588,0.654l-3.549-3.55c1.385-1.231,3.17-2.015,5.137-2.13V392.051z M218.156,389.862l3.549,3.55    c-0.342,0.457-0.569,0.996-0.654,1.588h-5.025C216.141,393.033,216.924,391.247,218.156,389.862z M216.025,396h5.025    c0.085,0.591,0.313,1.13,0.653,1.586l-3.549,3.551C216.924,399.752,216.141,397.966,216.025,396z M230.844,401.137l-3.549-3.549    c0.342-0.457,0.569-0.997,0.654-1.588h5.025C232.859,397.967,232.076,399.752,230.844,401.137z"/>
		<path d="M224.5,383c-6.903,0-12.5,5.597-12.5,12.5s5.597,12.5,12.5,12.5c6.904,0,12.5-5.597,12.5-12.5S231.404,383,224.5,383z     M224.5,407c-6.342,0-11.5-5.159-11.5-11.5s5.158-11.5,11.5-11.5s11.5,5.159,11.5,11.5S230.842,407,224.5,407z"/>
	</g>
	
    </g>
</svg>
