<?xml version="1.0" encoding="iso-8859-1"?>
<!DOCTYPE svg PUBLIC "-//W3C//DTD SVG 1.1//EN" "http://www.w3.org/Graphics/SVG/1.1/DTD/svg11.dtd">
<svg version="1.1" xmlns="http://www.w3.org/2000/svg" xmlns:xlink="http://www.w3.org/1999/xlink" x="0px" y="0px" width="29" height="30" viewBox="0 0 29 30" xml:space="preserve">
    <g transform="translate(-330 -320)">
        <g xmlns="http://www.w3.org/2000/svg" xmlns:xlink="http://www.w3.org/1999/xlink" id="shampoo-7">
		<path d="M340,327v2h-3v4v10v5h15v-19h-3v-2h-3v-2h3v-3h-9v1h-3.5c-0.864,0-2.5,0.522-2.5,2.5v0.5h1v-0.5    c0-1.411,1.252-1.497,1.5-1.5h3.5v1h3v2H340z M341.5,324H341v-1h0.5h6.5v1h-2h-3H341.5z M338,334h7v8h-7V334z M348,328v2h3v17h-13    v-4h8v-10h-8v-3h3v-2H348z"/>
	</g>
	
    </g>
</svg>
