<?xml version="1.0" encoding="iso-8859-1"?>
<!DOCTYPE svg PUBLIC "-//W3C//DTD SVG 1.1//EN" "http://www.w3.org/Graphics/SVG/1.1/DTD/svg11.dtd">
<svg version="1.1" xmlns="http://www.w3.org/2000/svg" xmlns:xlink="http://www.w3.org/1999/xlink" x="0px" y="0px" width="29" height="30" viewBox="0 0 29 30" xml:space="preserve">
    <g transform="translate(-90 -440)">
        <g xmlns="http://www.w3.org/2000/svg" xmlns:xlink="http://www.w3.org/1999/xlink" id="shield-7">
		<path d="M92,446c0,0,0,18,12.5,22c12.5-4,12.5-22,12.5-22c-7.292,0-12.5-4-12.5-4S99.291,446,92,446z M104,443.538V454h-9.818    c-0.803-2.981-1.061-5.652-1.143-7.025C98.179,446.724,102.162,444.674,104,443.538z M94.479,455H104v11.732    C98.633,464.627,95.881,459.596,94.479,455z M105,466.732V455h9.516C113.111,459.597,110.358,464.629,105,466.732z M114.813,454    H105v-10.462c1.838,1.135,5.82,3.185,10.961,3.437C115.877,448.348,115.616,451.019,114.813,454z"/>
	</g>
	
    </g>
</svg>
