<?xml version="1.0" encoding="iso-8859-1"?>
<!DOCTYPE svg PUBLIC "-//W3C//DTD SVG 1.1//EN" "http://www.w3.org/Graphics/SVG/1.1/DTD/svg11.dtd">
<svg version="1.1" xmlns="http://www.w3.org/2000/svg" xmlns:xlink="http://www.w3.org/1999/xlink" x="0px" y="0px" width="30" height="30" viewBox="0 0 30 30" xml:space="preserve">
    <g transform="translate(-390 -260)">
        <g xmlns="http://www.w3.org/2000/svg" xmlns:xlink="http://www.w3.org/1999/xlink" id="spade-7">
		<path d="M392.594,265.422l7.778,7.778l-1.415,5.656c0,0,14.85,12.021,18.385,8.485c3.536-3.535-8.485-18.385-8.485-18.385    l-5.656,1.415l-7.778-7.778c-0.781-0.781-2.048-0.781-2.828,0C391.813,263.374,391.813,264.641,392.594,265.422z M403.2,271.786    l0.511-0.512l4.768-1.191c5.339,6.714,9.903,14.806,8.156,16.552c-1.747,1.747-9.839-2.815-16.552-8.156l1.191-4.768l0.512-0.511    l1.414,1.414l1.414-1.414L403.2,271.786z M396.129,264.715l6.364,6.364l-1.414,1.414l-6.364-6.364L396.129,264.715z     M393.301,263.301c0.39-0.391,1.023-0.391,1.414,0l0.707,0.707l-1.414,1.414l-0.707-0.707    C392.91,264.324,392.91,263.69,393.301,263.301z"/>
	</g>
	
    </g>
</svg>
