<?xml version="1.0" encoding="iso-8859-1"?>
<!DOCTYPE svg PUBLIC "-//W3C//DTD SVG 1.1//EN" "http://www.w3.org/Graphics/SVG/1.1/DTD/svg11.dtd">
<svg version="1.1" xmlns="http://www.w3.org/2000/svg" xmlns:xlink="http://www.w3.org/1999/xlink" x="0px" y="0px" width="30" height="30" viewBox="0 0 30 30" xml:space="preserve">
    <g transform="translate(-390 -380)">
        <g xmlns="http://www.w3.org/2000/svg" xmlns:xlink="http://www.w3.org/1999/xlink" id="spark-plug-7">
		<path d="M415.96,382.272l-0.707,0.707l1.414,1.414l-0.707,0.707l-2.121-2.121l-0.707,0.707l-1.414-1.414l-4.95,4.949l-0.707-0.707    l-2.121,2.121l0.707,0.707l-6.364,6.364l5.657,5.657l6.364-6.364l0.707,0.707l2.121-2.121l-0.707-0.707l4.949-4.95l-1.414-1.414    l2.121-2.121L415.96,382.272z M403.939,399.95l-4.243-4.243l5.657-5.657l4.242,4.243L403.939,399.95z M411.011,394.293    l-5.657-5.657l0.707-0.707l5.657,5.657L411.011,394.293z M411.718,392.172l-4.243-4.243l4.243-4.242l4.242,4.242L411.718,392.172z    "/>
		<rect x="396.05" y="399.096" transform="matrix(0.7071 0.7071 -0.7071 0.7071 399.7292 -165.8392)" width="8.001" height="1"/>
		<rect x="394.636" y="400.51" transform="matrix(0.7071 0.7071 -0.7071 0.7071 400.3149 -164.4252)" width="8.001" height="1"/>
		<rect x="393.222" y="401.924" transform="matrix(0.7071 0.7071 -0.7071 0.7071 400.901 -163.011)" width="8.001" height="1.001"/>
		<polygon points="396.161,404.899 397.575,406.313 398.282,405.606 394.04,401.364 393.333,402.071 394.747,403.485     391.919,406.313 393.333,407.728   "/>
	</g>
	
    </g>
</svg>
