<?xml version="1.0" encoding="iso-8859-1"?>
<!DOCTYPE svg PUBLIC "-//W3C//DTD SVG 1.1//EN" "http://www.w3.org/Graphics/SVG/1.1/DTD/svg11.dtd">
<svg version="1.1" xmlns="http://www.w3.org/2000/svg" xmlns:xlink="http://www.w3.org/1999/xlink" x="0px" y="0px" width="30" height="30" viewBox="0 0 30 30" xml:space="preserve">
    <g transform="translate(-90 -200)">
        <g xmlns="http://www.w3.org/2000/svg" xmlns:xlink="http://www.w3.org/1999/xlink" id="toilet-paper-7">
		<path d="M110,202c-4.581,0-8.354,1.522-8.919,3.49C99.372,206.34,95.465,208,91,208v18c4.46,0,8.363-1.656,10.075-2.507    c0.548,1.976,4.331,3.507,8.925,3.507c4.971,0,9-1.791,9-4v-17C119,203.791,114.971,202,110,202z M101,222.408    c-1.26,0.658-4.824,2.323-9,2.563v-15.997c3.848-0.196,7.166-1.473,9-2.332V222.408z M118,223c0,1.223-3.117,3-8,3s-8-1.777-8-3    v-15.173c1.494,1.289,4.512,2.173,8,2.173s6.506-0.884,8-2.173V223z M110,209c-4.883,0-8-1.777-8-3s3.117-3,8-3s8,1.777,8,3    S114.883,209,110,209z"/>
		<path d="M110,204c-2.209,0-4,0.671-4,1.5s1.791,1.5,4,1.5s4-0.671,4-1.5S112.209,204,110,204z M110,206    c-1.344,0-2.312-0.269-2.773-0.5c0.462-0.231,1.43-0.5,2.773-0.5s2.312,0.269,2.773,0.5C112.312,205.731,111.344,206,110,206z"/>
	</g>
	
    </g>
</svg>
