<?xml version="1.0" encoding="iso-8859-1"?>
<!DOCTYPE svg PUBLIC "-//W3C//DTD SVG 1.1//EN" "http://www.w3.org/Graphics/SVG/1.1/DTD/svg11.dtd">
<svg version="1.1" xmlns="http://www.w3.org/2000/svg" xmlns:xlink="http://www.w3.org/1999/xlink" x="0px" y="0px" width="30" height="30" viewBox="0 0 30 30" xml:space="preserve">
    <g transform="translate(-510 -320)">
        <g xmlns="http://www.w3.org/2000/svg" xmlns:xlink="http://www.w3.org/1999/xlink" id="toothpaste-7">
		<path d="M528.889,323.334l-0.707,0.707l-13.436,14.848l-0.707,3.537l-2.828,4.242l2.121,2.121l4.242-2.828l3.537-0.707    l14.848-13.436l0.707-0.707l2.123-2.121l-7.779-7.779L528.889,323.334z M517.904,344.875l-2.779-2.779l0.473-2.355l4.662,4.664    L517.904,344.875z M521.139,343.867l-5.006-5.006l12.756-14.113l6.363,6.363L521.139,343.867z M535.959,330.404l-6.363-6.363    l1.414-1.414l6.365,6.363L535.959,330.404z"/>
	</g>
	
    </g>
</svg>
