<?xml version="1.0" encoding="iso-8859-1"?>
<!DOCTYPE svg PUBLIC "-//W3C//DTD SVG 1.1//EN" "http://www.w3.org/Graphics/SVG/1.1/DTD/svg11.dtd">
<svg version="1.1" xmlns="http://www.w3.org/2000/svg" xmlns:xlink="http://www.w3.org/1999/xlink" x="0px" y="0px" width="29" height="30" viewBox="0 0 29 30" xml:space="preserve">
    <g transform="translate(-270 -380)">
        <g xmlns="http://www.w3.org/2000/svg" xmlns:xlink="http://www.w3.org/1999/xlink" id="tyre-7">
		<path d="M284.5,408c6.904,0,12.5-5.596,12.5-12.5s-5.596-12.5-12.5-12.5s-12.5,5.596-12.5,12.5S277.596,408,284.5,408z     M276.035,387.742l0.685,0.687l0.709-0.707l-0.687-0.687c0.493-0.451,1.021-0.861,1.587-1.223l0.485,0.844l0.868-0.5l-0.489-0.849    c0.59-0.308,1.207-0.571,1.851-0.774l0.253,0.953l0.968-0.259l-0.253-0.948c0.644-0.144,1.309-0.225,1.988-0.254V385h1v-0.975    c0.68,0.029,1.345,0.11,1.989,0.254l-0.255,0.949l0.966,0.259l0.256-0.955c0.645,0.204,1.261,0.468,1.851,0.776l-0.49,0.849    l0.866,0.499l0.487-0.845c0.566,0.361,1.095,0.772,1.588,1.224l-0.688,0.687l0.707,0.707l0.688-0.687    c0.451,0.493,0.861,1.021,1.223,1.587l-0.845,0.487l0.5,0.866l0.849-0.49c0.309,0.591,0.572,1.207,0.775,1.852l-0.954,0.255    l0.259,0.966l0.949-0.254c0.143,0.645,0.225,1.31,0.254,1.989H295v1h0.975c-0.029,0.68-0.111,1.345-0.254,1.989l-0.949-0.256    l-0.259,0.966l0.954,0.257c-0.203,0.645-0.467,1.261-0.775,1.852l-0.848-0.492l-0.5,0.866l0.844,0.489    c-0.361,0.565-0.771,1.094-1.223,1.587l-0.686-0.688l-0.707,0.708l0.686,0.688c-0.493,0.451-1.021,0.862-1.588,1.224l-0.485-0.847    l-0.866,0.501l0.488,0.85c-0.59,0.308-1.207,0.571-1.852,0.775l-0.253-0.956l-0.966,0.26l0.252,0.949    c-0.644,0.144-1.309,0.225-1.988,0.254V406h-1v0.975c-0.68-0.029-1.345-0.11-1.989-0.254l0.255-0.949l-0.966-0.259l-0.256,0.955    c-0.645-0.204-1.261-0.468-1.851-0.776l0.49-0.849l-0.866-0.5l-0.488,0.845c-0.565-0.361-1.094-0.771-1.587-1.223l0.688-0.687    l-0.707-0.708l-0.688,0.687c-0.451-0.492-0.861-1.021-1.223-1.586l0.845-0.487l-0.5-0.867l-0.85,0.49    c-0.308-0.59-0.571-1.207-0.774-1.851l0.954-0.255l-0.259-0.967l-0.949,0.254c-0.144-0.644-0.225-1.309-0.254-1.988H274v-1h-0.975    c0.029-0.68,0.111-1.345,0.254-1.989l0.948,0.256l0.26-0.967l-0.954-0.257c0.203-0.644,0.467-1.261,0.775-1.851l0.847,0.491    l0.501-0.866l-0.844-0.488C275.174,388.764,275.584,388.235,276.035,387.742z"/>
		<path d="M284.5,403c4.143,0,7.5-3.357,7.5-7.5s-3.357-7.5-7.5-7.5s-7.5,3.357-7.5,7.5S280.357,403,284.5,403z M287.949,395    c-0.085-0.591-0.313-1.131-0.654-1.588l2.136-2.136c0.874,1.019,1.436,2.308,1.544,3.724H287.949z M282.412,398.295    c0.457,0.342,0.997,0.569,1.588,0.654v3.025c-1.416-0.108-2.705-0.67-3.724-1.544L282.412,398.295z M285,398.949    c0.591-0.085,1.131-0.313,1.588-0.654l2.135,2.136c-1.018,0.874-2.307,1.436-3.723,1.544V398.949z M284.5,398    c-1.379,0-2.5-1.121-2.5-2.5s1.121-2.5,2.5-2.5s2.5,1.121,2.5,2.5S285.879,398,284.5,398z M286.588,392.705    c-0.457-0.342-0.997-0.569-1.588-0.654v-3.025c1.416,0.108,2.705,0.67,3.724,1.544L286.588,392.705z M284,392.051    c-0.591,0.085-1.131,0.313-1.588,0.654l-2.136-2.136c1.019-0.874,2.308-1.436,3.724-1.544V392.051z M281.705,393.412    c-0.342,0.457-0.569,0.997-0.654,1.588h-3.025c0.108-1.416,0.67-2.705,1.544-3.724L281.705,393.412z M281.051,396    c0.085,0.591,0.313,1.131,0.654,1.588l-2.137,2.135c-0.873-1.018-1.435-2.307-1.543-3.723H281.051z M289.431,399.724l-2.136-2.136    c0.342-0.457,0.569-0.997,0.654-1.588h3.025C290.866,397.416,290.305,398.705,289.431,399.724z"/>
	</g>
	
    </g>
</svg>
