<?xml version="1.0" encoding="iso-8859-1"?>
<!DOCTYPE svg PUBLIC "-//W3C//DTD SVG 1.1//EN" "http://www.w3.org/Graphics/SVG/1.1/DTD/svg11.dtd">
<svg version="1.1" xmlns="http://www.w3.org/2000/svg" xmlns:xlink="http://www.w3.org/1999/xlink" x="0px" y="0px" width="29" height="30" viewBox="0 0 29 30" xml:space="preserve">
    <g transform="translate(-450 -260)">
        <g xmlns="http://www.w3.org/2000/svg" xmlns:xlink="http://www.w3.org/1999/xlink" id="vase-flower-7">
		<path d="M460,288h9l2-11h1v-1h-1h-6v-3.306c4.248,2.637,7.503-0.877,4.375-5.194c3.25-4.486-0.389-8.125-4.875-4.875    c-4.486-3.25-8.125,0.389-4.875,4.875c-3.128,4.317,0.127,7.831,4.375,5.194V276h-6h-1v1h1L460,288z M463.913,271.565    c-1.203,0.871-2.14,1.055-2.713,1.055c-0.751,0-1.324-0.312-1.613-0.877c-0.466-0.913-0.149-2.28,0.848-3.656l0.425-0.587    l-0.425-0.587c-0.996-1.376-1.313-2.742-0.848-3.655c0.289-0.566,0.862-0.878,1.613-0.878c0.573,0,1.51,0.184,2.713,1.055    l0.587,0.425l0.587-0.425c1.203-0.871,2.14-1.055,2.713-1.055c0.751,0,1.324,0.312,1.613,0.878    c0.466,0.913,0.149,2.279-0.848,3.655l-0.425,0.587l0.425,0.587c0.996,1.376,1.313,2.742,0.848,3.655    c-0.289,0.566-0.862,0.878-1.613,0.878c-0.573,0-1.51-0.184-2.713-1.055l-0.587-0.425L463.913,271.565z M469.983,277l-1.818,10    h-7.33l-1.818-10H469.983z"/>
		<path d="M467,267.5c0-1.381-1.119-2.5-2.5-2.5s-2.5,1.119-2.5,2.5s1.119,2.5,2.5,2.5S467,268.881,467,267.5z M464.5,266    c0.827,0,1.5,0.673,1.5,1.5s-0.673,1.5-1.5,1.5s-1.5-0.673-1.5-1.5S463.673,266,464.5,266z"/>
	</g>
	
    </g>
</svg>
