<?xml version="1.0" encoding="iso-8859-1"?>
<!DOCTYPE svg PUBLIC "-//W3C//DTD SVG 1.1//EN" "http://www.w3.org/Graphics/SVG/1.1/DTD/svg11.dtd">
<svg version="1.1" xmlns="http://www.w3.org/2000/svg" xmlns:xlink="http://www.w3.org/1999/xlink" x="0px" y="0px" width="30" height="30" viewBox="0 0 30 30" xml:space="preserve">
    <g transform="translate(-270 -80)">
        <g xmlns="http://www.w3.org/2000/svg" xmlns:xlink="http://www.w3.org/1999/xlink" id="washing-machine-7">
		<path d="M296,82h-22v26h22V82z M295,107h-20V87h20V107z M295,86h-20v-3h20V86z"/>
		<path d="M285,103c3.313,0,6-2.687,6-6s-2.687-6-6-6s-6,2.687-6,6S281.687,103,285,103z M285,102c-2.713,0-4.917-2.175-4.986-4.871    c0.198-0.289,0.798-1.041,1.737-1.167c0.88-0.124,1.854,0.35,2.896,1.391c1.131,1.131,2.25,1.703,3.33,1.703    c0.136,0,0.271-0.009,0.405-0.027c0.544-0.073,0.995-0.29,1.368-0.544C289.113,100.514,287.236,102,285,102z M285,92    c2.713,0,4.917,2.175,4.986,4.871c-0.198,0.289-0.798,1.041-1.737,1.167c-0.88,0.119-1.854-0.351-2.896-1.391    c-1.272-1.272-2.526-1.838-3.735-1.675c-0.544,0.073-0.995,0.29-1.368,0.544C280.887,93.486,282.764,92,285,92z"/>
		<rect x="291" y="84" width="1" height="1"/>
		<rect x="289" y="84" width="1" height="1"/>
		<rect x="293" y="84" width="1" height="1"/>
	</g>
	
    </g>
</svg>
