<?xml version="1.0" encoding="iso-8859-1"?>
<!DOCTYPE svg PUBLIC "-//W3C//DTD SVG 1.1//EN" "http://www.w3.org/Graphics/SVG/1.1/DTD/svg11.dtd">
<svg version="1.1" xmlns="http://www.w3.org/2000/svg" xmlns:xlink="http://www.w3.org/1999/xlink" x="0px" y="0px" width="30" height="30" viewBox="0 0 30 30" xml:space="preserve">
    <g transform="translate(-210 -200)">
        <g xmlns="http://www.w3.org/2000/svg" xmlns:xlink="http://www.w3.org/1999/xlink" id="water-bottle-7">
		<path d="M236.813,201.065c-0.391-0.391-1.023-0.391-1.414,0l-0.707,0.707c-0.391,0.391-0.391,1.023,0,1.415    c0,0-4.876-0.781-5.657,0l-3.535,3.535c-0.522,0.522-0.688,1.259-0.511,1.925l-1.1,1.1c-0.666-0.176-1.403-0.011-1.925,0.511    l-10.607,10.606c-0.78,0.781-0.78,2.048,0,2.829l4.95,4.95c0.781,0.781,2.048,0.781,2.828,0l10.606-10.606    c0.522-0.522,0.688-1.259,0.512-1.925l1.099-1.099c0.667,0.176,1.403,0.011,1.926-0.511l3.535-3.536c0.781-0.781,0-5.657,0-5.657    c0.391,0.391,1.024,0.391,1.414,0l0.707-0.707c0.391-0.391,0.392-1.023,0-1.414L236.813,201.065z M232.571,213.793    c-0.251,0.25-0.611,0.344-0.963,0.251l-0.556-0.147l-1.913,1.913l0.147,0.556c0.093,0.352-0.001,0.712-0.252,0.963l-10.606,10.606    c-0.39,0.39-1.023,0.39-1.414,0l-4.95-4.95c-0.39-0.39-0.39-1.024,0-1.414l10.607-10.607c0.25-0.25,0.61-0.344,0.962-0.251    l0.557,0.147l1.912-1.913l-0.146-0.556c-0.093-0.352,0.001-0.712,0.251-0.962l0.707-0.708l6.364,6.364L232.571,213.793z     M236.053,210.311l-0.653,0.653l-6.364-6.364l0.654-0.654c0.536-0.208,2.761-0.107,4.845,0.227l0.504,0.081l0.361-0.361    l0.707,0.707l-0.36,0.361l0.08,0.504C236.159,207.55,236.262,209.776,236.053,210.311z M237.521,204.601l-2.121-2.122l0.707-0.707    l2.121,2.122L237.521,204.601z"/>
		<rect x="216.869" y="213.389" transform="matrix(-0.7071 -0.7071 0.7071 -0.7071 216.647 526.5165)" width="1" height="10"/>
		<rect x="221.465" y="213.293" transform="matrix(-0.7071 -0.7071 0.7071 -0.7071 227.7432 521.9203)" width="1" height="1"/>
		<rect x="222.879" y="211.879" transform="matrix(-0.7071 -0.7071 0.7071 -0.7071 231.1571 520.5062)" width="1" height="1"/>
	</g>
	
    </g>
</svg>
