<?xml version="1.0" encoding="iso-8859-1"?>
<!DOCTYPE svg PUBLIC "-//W3C//DTD SVG 1.1//EN" "http://www.w3.org/Graphics/SVG/1.1/DTD/svg11.dtd">
<svg version="1.1" xmlns="http://www.w3.org/2000/svg" xmlns:xlink="http://www.w3.org/1999/xlink" x="0px" y="0px" width="29" height="30" viewBox="0 0 29 30" xml:space="preserve">
    <g transform="translate(-390 -140)">
        <g xmlns="http://www.w3.org/2000/svg" xmlns:xlink="http://www.w3.org/1999/xlink" id="wine-glass-7">
		<path d="M412,149c0-6-2-7-2-7h-11c0,0-2,1-2,7s7,8,7,8v10h-5v1h5h1h5v-1h-5v-10C405,157,412,155,412,149z M398,149    c0-4.129,0.98-5.592,1.355-6h10.304c0.334,0.369,1.341,1.815,1.341,6c0,0.35-0.035,0.68-0.088,1h-12.826    C398.035,149.68,398,149.35,398,149z M404.848,156h-0.697c-0.773-0.248-4.639-1.652-5.807-5h12.307    C409.471,154.327,405.59,155.756,404.848,156z"/>
	</g>
	
    </g>
</svg>
