<?xml version="1.0" encoding="iso-8859-1"?>
<!DOCTYPE svg PUBLIC "-//W3C//DTD SVG 1.1//EN" "http://www.w3.org/Graphics/SVG/1.1/DTD/svg11.dtd">
<svg version="1.1" xmlns="http://www.w3.org/2000/svg" xmlns:xlink="http://www.w3.org/1999/xlink" x="0px" y="0px" width="30" height="30" viewBox="0 0 30 30" xml:space="preserve">
    <g transform="translate(-390 -980)">
        <g xmlns="http://www.w3.org/2000/svg" xmlns:xlink="http://www.w3.org/1999/xlink" id="_x33_d-sphere-7">
		<path d="M405,982c-7.18,0-13,5.82-13,13s5.82,13,13,13s13-5.82,13-13S412.18,982,405,982z M405,1007    c-6.107,0-11.152-4.588-11.896-10.497c2.132,1.316,7.035,1.997,11.896,1.997s9.764-0.681,11.896-1.997    C416.152,1002.412,411.107,1007,405,1007z M405,997.5c-7.879,0-12-1.628-12-2.5c0-6.617,5.383-12,12-12s12,5.383,12,12    C417,995.872,412.879,997.5,405,997.5z"/>
		<path d="M402.115,991.58l0.055,0.998c0.61-0.033,1.238-0.057,1.88-0.069l-0.02-1C403.377,991.521,402.737,991.545,402.115,991.58z    "/>
		<path d="M394.506,992.838l0.33,0.943c0.51-0.179,1.105-0.345,1.772-0.493l-0.219-0.977    C395.686,992.47,395.052,992.646,394.506,992.838z"/>
		<path d="M398.291,991.963l0.148,0.988c0.588-0.088,1.209-0.165,1.858-0.229l-0.098-0.996    C399.533,991.792,398.895,991.871,398.291,991.963z"/>
		<path d="M415.144,993.774l0.33-0.943c-0.546-0.191-1.181-0.367-1.886-0.523l-0.217,0.977    C414.038,993.432,414.635,993.597,415.144,993.774z"/>
		<path d="M405.93,992.509c0.641,0.012,1.269,0.035,1.879,0.068l0.055-0.998c-0.622-0.035-1.262-0.059-1.916-0.07L405.93,992.509z"/>
		<path d="M409.68,992.72c0.649,0.063,1.271,0.141,1.86,0.228l0.146-0.988c-0.604-0.091-1.242-0.17-1.909-0.235L409.68,992.72z"/>
	</g>
	
    </g>
</svg>
