<?xml version="1.0" encoding="iso-8859-1"?>
<!DOCTYPE svg PUBLIC "-//W3C//DTD SVG 1.1//EN" "http://www.w3.org/Graphics/SVG/1.1/DTD/svg11.dtd">
<svg version="1.1" xmlns="http://www.w3.org/2000/svg" xmlns:xlink="http://www.w3.org/1999/xlink" x="0px" y="0px" width="29" height="30" viewBox="0 0 29 30" xml:space="preserve">
    <g transform="translate(-90 -260)">
        <g xmlns="http://www.w3.org/2000/svg" xmlns:xlink="http://www.w3.org/1999/xlink" id="bin-tick-7">
		<rect x="101" y="269" width="1" height="15"/>
		<path d="M112.658,275.099l0.844-9.099H115v-1h-6v-1.5c0-0.827-0.673-1.5-1.5-1.5h-6c-0.827,0-1.5,0.673-1.5,1.5v1.5h-6v1h1.498    l2.039,22h8.876c1.337,1.237,3.121,2,5.087,2c4.143,0,7.5-3.358,7.5-7.5C119,278.753,116.249,275.657,112.658,275.099z M101,263.5    c0-0.275,0.225-0.5,0.5-0.5h6c0.275,0,0.5,0.225,0.5,0.5v1.5h-7V263.5z M96.502,266h15.996l-0.835,9.008    c-0.055-0.001-0.108-0.008-0.163-0.008c-1.265,0-2.455,0.316-3.5,0.869V269h-1v7.51c-0.811,0.609-1.492,1.376-2,2.259V269h-1v15    h0.15c0.226,1.11,0.703,2.127,1.359,3h-7.062L96.502,266z M111.5,289c-3.59,0-6.5-2.91-6.5-6.5s2.91-6.5,6.5-6.5s6.5,2.91,6.5,6.5    S115.09,289,111.5,289z"/>
		<polygon points="110.086,284.268 107.965,282.146 107.258,282.854 110.086,285.682 115.742,280.025 115.035,279.318   "/>
	</g>
	
    </g>
</svg>
