<?xml version="1.0" encoding="iso-8859-1"?>
<!DOCTYPE svg PUBLIC "-//W3C//DTD SVG 1.1//EN" "http://www.w3.org/Graphics/SVG/1.1/DTD/svg11.dtd">
<svg version="1.1" xmlns="http://www.w3.org/2000/svg" xmlns:xlink="http://www.w3.org/1999/xlink" x="0px" y="0px" width="29" height="30" viewBox="0 0 29 30" xml:space="preserve">
    <g transform="translate(-570 -800)">
        <g xmlns="http://www.w3.org/2000/svg" xmlns:xlink="http://www.w3.org/1999/xlink" id="circle-nine-connect-7">
		<path d="M597,806.5c0-1.934-1.567-3.5-3.5-3.5c-1.762,0-3.205,1.306-3.449,3h-2.102c-0.244-1.694-1.688-3-3.449-3    s-3.205,1.306-3.449,3h-2.102c-0.244-1.694-1.688-3-3.449-3c-1.933,0-3.5,1.566-3.5,3.5c0,1.763,1.307,3.205,3,3.449v2.102    c-1.693,0.244-3,1.687-3,3.449s1.307,3.205,3,3.449v2.102c-1.693,0.244-3,1.687-3,3.449c0,1.934,1.567,3.5,3.5,3.5    c1.762,0,3.205-1.306,3.449-3h2.102c0.244,1.694,1.688,3,3.449,3s3.205-1.306,3.449-3h2.102c0.244,1.694,1.688,3,3.449,3    c1.933,0,3.5-1.566,3.5-3.5c0-1.763-1.307-3.205-3-3.449v-2.102c1.693-0.244,3-1.687,3-3.449s-1.307-3.205-3-3.449v-2.102    C595.693,809.705,597,808.263,597,806.5z M593.5,804c1.379,0,2.5,1.121,2.5,2.5s-1.121,2.5-2.5,2.5s-2.5-1.121-2.5-2.5    S592.121,804,593.5,804z M590.051,815h-2.102c-0.221-1.529-1.42-2.729-2.949-2.949v-2.102c1.529-0.221,2.729-1.42,2.949-2.949    h2.102c0.221,1.529,1.42,2.729,2.949,2.949v2.102C591.471,812.271,590.271,813.471,590.051,815z M590.051,824h-2.102    c-0.221-1.529-1.42-2.729-2.949-2.949v-2.102c1.529-0.221,2.729-1.42,2.949-2.949h2.102c0.221,1.529,1.42,2.729,2.949,2.949v2.102    C591.471,821.271,590.271,822.471,590.051,824z M581.051,824h-2.102c-0.221-1.529-1.42-2.729-2.949-2.949v-2.102    c1.529-0.221,2.729-1.42,2.949-2.949h2.102c0.221,1.529,1.42,2.729,2.949,2.949v2.102    C582.471,821.271,581.271,822.471,581.051,824z M578.949,807h2.102c0.221,1.529,1.42,2.729,2.949,2.949v2.102    c-1.529,0.221-2.729,1.42-2.949,2.949h-2.102c-0.221-1.529-1.42-2.729-2.949-2.949v-2.102    C577.529,809.729,578.729,808.529,578.949,807z M584.5,818c-1.379,0-2.5-1.121-2.5-2.5s1.121-2.5,2.5-2.5s2.5,1.121,2.5,2.5    S585.879,818,584.5,818z M584.5,804c1.379,0,2.5,1.121,2.5,2.5s-1.121,2.5-2.5,2.5s-2.5-1.121-2.5-2.5S583.121,804,584.5,804z     M573,806.5c0-1.379,1.121-2.5,2.5-2.5s2.5,1.121,2.5,2.5s-1.121,2.5-2.5,2.5S573,807.879,573,806.5z M573,815.5    c0-1.379,1.121-2.5,2.5-2.5s2.5,1.121,2.5,2.5s-1.121,2.5-2.5,2.5S573,816.879,573,815.5z M575.5,827c-1.379,0-2.5-1.121-2.5-2.5    s1.121-2.5,2.5-2.5s2.5,1.121,2.5,2.5S576.879,827,575.5,827z M584.5,827c-1.379,0-2.5-1.121-2.5-2.5s1.121-2.5,2.5-2.5    s2.5,1.121,2.5,2.5S585.879,827,584.5,827z M596,824.5c0,1.379-1.121,2.5-2.5,2.5s-2.5-1.121-2.5-2.5s1.121-2.5,2.5-2.5    S596,823.121,596,824.5z M596,815.5c0,1.379-1.121,2.5-2.5,2.5s-2.5-1.121-2.5-2.5s1.121-2.5,2.5-2.5S596,814.121,596,815.5z"/>
	</g>
	
    </g>
</svg>
