<?xml version="1.0" encoding="iso-8859-1"?>
<!DOCTYPE svg PUBLIC "-//W3C//DTD SVG 1.1//EN" "http://www.w3.org/Graphics/SVG/1.1/DTD/svg11.dtd">
<svg version="1.1" xmlns="http://www.w3.org/2000/svg" xmlns:xlink="http://www.w3.org/1999/xlink" x="0px" y="0px" width="30" height="30" viewBox="0 0 30 30" xml:space="preserve">
    <g transform="translate(-450 -500)">
        <g xmlns="http://www.w3.org/2000/svg" xmlns:xlink="http://www.w3.org/1999/xlink" id="circle-dot-7">
		<path d="M464,502.051c-1.642,0.125-3.194,0.557-4.608,1.234l0.503,0.871c1.265-0.598,2.646-0.984,4.105-1.105V502.051z"/>
		<path d="M470.609,503.286c-1.415-0.679-2.968-1.11-4.609-1.235v1c1.459,0.121,2.841,0.508,4.106,1.105L470.609,503.286z"/>
		<path d="M466,527.949c1.642-0.125,3.193-0.557,4.608-1.234l-0.503-0.871c-1.265,0.598-2.646,0.984-4.105,1.105V527.949z"/>
		<path d="M454.277,507.654l0.876,0.506c0.816-1.172,1.835-2.19,3.007-3.007l-0.506-0.876    C456.331,505.186,455.186,506.332,454.277,507.654z"/>
		<path d="M474.847,508.16l0.876-0.505c-0.908-1.323-2.054-2.469-3.376-3.377l-0.506,0.876    C473.013,505.971,474.031,506.989,474.847,508.16z"/>
		<path d="M452.051,514h1c0.121-1.459,0.507-2.84,1.105-4.105l-0.871-0.503C452.607,510.807,452.176,512.359,452.051,514z"/>
		<path d="M452.051,516c0.125,1.643,0.557,3.194,1.235,4.609l0.871-0.503c-0.599-1.265-0.985-2.646-1.106-4.106H452.051z"/>
		<path d="M459.393,526.715c1.414,0.678,2.966,1.109,4.607,1.234v-1c-1.459-0.121-2.84-0.508-4.105-1.105L459.393,526.715z"/>
		<path d="M476.714,520.609c0.679-1.415,1.11-2.967,1.235-4.608h-1c-0.121,1.459-0.508,2.841-1.105,4.105L476.714,520.609z"/>
		<path d="M477.949,514c-0.125-1.641-0.556-3.193-1.234-4.607l-0.871,0.503c0.599,1.265,0.984,2.646,1.105,4.104H477.949z"/>
		<path d="M472.346,525.723c1.322-0.908,2.468-2.055,3.376-3.377l-0.875-0.506c-0.816,1.172-1.835,2.19-3.007,3.007L472.346,525.723    z"/>
		<path d="M454.278,522.346c0.908,1.323,2.054,2.469,3.377,3.377l0.506-0.875c-1.172-0.816-2.19-1.836-3.008-3.008L454.278,522.346z    "/>
	</g>
	
    </g>
</svg>
