<?xml version="1.0" encoding="iso-8859-1"?>
<!DOCTYPE svg PUBLIC "-//W3C//DTD SVG 1.1//EN" "http://www.w3.org/Graphics/SVG/1.1/DTD/svg11.dtd">
<svg version="1.1" xmlns="http://www.w3.org/2000/svg" xmlns:xlink="http://www.w3.org/1999/xlink" x="0px" y="0px" width="30" height="30" viewBox="0 0 30 30" xml:space="preserve">
    <g transform="translate(-570 -500)">
        <g xmlns="http://www.w3.org/2000/svg" xmlns:xlink="http://www.w3.org/1999/xlink" id="circle-many-7">
		<path d="M585,528c7.18,0,13-5.82,13-13s-5.82-13-13-13s-13,5.82-13,13S577.82,528,585,528z M585,503c6.617,0,12,5.383,12,12    s-5.383,12-12,12s-12-5.383-12-12S578.383,503,585,503z"/>
		<path d="M585,523c4.418,0,8-3.582,8-8s-3.582-8-8-8s-8,3.582-8,8S580.582,523,585,523z M585,508c3.859,0,7,3.141,7,7s-3.141,7-7,7    s-7-3.141-7-7S581.141,508,585,508z"/>
		<path d="M585,518c1.654,0,3-1.346,3-3s-1.346-3-3-3s-3,1.346-3,3S583.346,518,585,518z M585,513c1.103,0,2,0.896,2,2s-0.897,2-2,2    s-2-0.896-2-2S583.897,513,585,513z"/>
	</g>
	
    </g>
</svg>
