<?xml version="1.0" encoding="iso-8859-1"?>
<!DOCTYPE svg PUBLIC "-//W3C//DTD SVG 1.1//EN" "http://www.w3.org/Graphics/SVG/1.1/DTD/svg11.dtd">
<svg version="1.1" xmlns="http://www.w3.org/2000/svg" xmlns:xlink="http://www.w3.org/1999/xlink" x="0px" y="0px" width="30" height="30" viewBox="0 0 30 30" xml:space="preserve">
    <g transform="translate(-510 -800)">
        <g xmlns="http://www.w3.org/2000/svg" xmlns:xlink="http://www.w3.org/1999/xlink" id="circle-nine-7">
		<path d="M517,804c-1.656,0-3,1.344-3,3s1.344,3,3,3s3-1.344,3-3S518.656,804,517,804z M517,809c-1.103,0-2-0.897-2-2s0.897-2,2-2    s2,0.897,2,2S518.103,809,517,809z"/>
		<path d="M525,810c1.656,0,3-1.344,3-3s-1.344-3-3-3s-3,1.344-3,3S523.344,810,525,810z M525,805c1.103,0,2,0.897,2,2s-0.897,2-2,2    s-2-0.897-2-2S523.897,805,525,805z"/>
		<path d="M533,810c1.656,0,3-1.344,3-3s-1.344-3-3-3s-3,1.344-3,3S531.344,810,533,810z M533,805c1.103,0,2,0.897,2,2s-0.897,2-2,2    s-2-0.897-2-2S531.897,805,533,805z"/>
		<path d="M517,812c-1.656,0-3,1.344-3,3s1.344,3,3,3s3-1.344,3-3S518.656,812,517,812z M517,817c-1.103,0-2-0.897-2-2s0.897-2,2-2    s2,0.897,2,2S518.103,817,517,817z"/>
		<path d="M525,818c1.656,0,3-1.344,3-3s-1.344-3-3-3s-3,1.344-3,3S523.344,818,525,818z M525,813c1.103,0,2,0.897,2,2s-0.897,2-2,2    s-2-0.897-2-2S523.897,813,525,813z"/>
		<path d="M533,818c1.656,0,3-1.344,3-3s-1.344-3-3-3s-3,1.344-3,3S531.344,818,533,818z M533,813c1.103,0,2,0.897,2,2s-0.897,2-2,2    s-2-0.897-2-2S531.897,813,533,813z"/>
		<path d="M517,820c-1.656,0-3,1.344-3,3s1.344,3,3,3s3-1.344,3-3S518.656,820,517,820z M517,825c-1.103,0-2-0.897-2-2s0.897-2,2-2    s2,0.897,2,2S518.103,825,517,825z"/>
		<path d="M525,826c1.656,0,3-1.344,3-3s-1.344-3-3-3s-3,1.344-3,3S523.344,826,525,826z M525,821c1.103,0,2,0.897,2,2s-0.897,2-2,2    s-2-0.897-2-2S523.897,821,525,821z"/>
		<path d="M533,826c1.656,0,3-1.344,3-3s-1.344-3-3-3s-3,1.344-3,3S531.344,826,533,826z M533,821c1.103,0,2,0.897,2,2s-0.897,2-2,2    s-2-0.897-2-2S531.897,821,533,821z"/>
	</g>
	
    </g>
</svg>
