<?xml version="1.0" encoding="iso-8859-1"?>
<!DOCTYPE svg PUBLIC "-//W3C//DTD SVG 1.1//EN" "http://www.w3.org/Graphics/SVG/1.1/DTD/svg11.dtd">
<svg version="1.1" xmlns="http://www.w3.org/2000/svg" xmlns:xlink="http://www.w3.org/1999/xlink" x="0px" y="0px" width="30" height="30" viewBox="0 0 30 30" xml:space="preserve">
    <g transform="translate(-90 -980)">
        <g xmlns="http://www.w3.org/2000/svg" xmlns:xlink="http://www.w3.org/1999/xlink" id="compound-2-7">
		<rect x="108" y="1006" width="1" height="1"/>
		<rect x="110" y="1004" width="1" height="1"/>
		<rect x="104" y="1006" width="1" height="1"/>
		<rect x="110" y="1006" width="1" height="1"/>
		<rect x="106" y="1006" width="1" height="1"/>
		<rect x="98" y="1006" width="1" height="1"/>
		<rect x="100" y="1006" width="1" height="1"/>
		<rect x="96" y="1006" width="1" height="1"/>
		<rect x="110" y="1002" width="1" height="1"/>
		<rect x="102" y="1006" width="1" height="1"/>
		<rect x="93" y="989" width="1" height="1"/>
		<rect x="93" y="991" width="1" height="1"/>
		<polygon points="94,1006 94,1005 93,1005 93,1007 95,1007 95,1006   "/>
		<rect x="93" y="1003" width="1" height="1"/>
		<rect x="93" y="1001" width="1" height="1"/>
		<rect x="95" y="989" width="1" height="1"/>
		<rect x="93" y="995" width="1" height="1"/>
		<rect x="93" y="993" width="1" height="1"/>
		<rect x="93" y="997" width="1" height="1"/>
		<rect x="93" y="999" width="1" height="1"/>
		<rect x="97" y="989" width="1" height="1"/>
		<path d="M99,988v2h11v11h1h6v-18H99V988z M116,984v16h-5v-11h-11v-5H116z"/>
	</g>
	
    </g>
</svg>
