<?xml version="1.0" encoding="iso-8859-1"?>
<!DOCTYPE svg PUBLIC "-//W3C//DTD SVG 1.1//EN" "http://www.w3.org/Graphics/SVG/1.1/DTD/svg11.dtd">
<svg version="1.1" xmlns="http://www.w3.org/2000/svg" xmlns:xlink="http://www.w3.org/1999/xlink" x="0px" y="0px" width="29" height="30" viewBox="0 0 29 30" xml:space="preserve">
    <g transform="translate(-150 -260)">
        <g xmlns="http://www.w3.org/2000/svg" xmlns:xlink="http://www.w3.org/1999/xlink" id="compass-mathematical-7">
		<path d="M161.587,276.305c0.877,0.441,1.864,0.695,2.913,0.695s2.036-0.254,2.913-0.695l-0.553-0.845    c-0.717,0.343-1.515,0.54-2.36,0.54s-1.644-0.197-2.36-0.54L161.587,276.305z"/>
		<path d="M164.5,265c3.032,0,5.5,2.468,5.5,5.5c0,0.196-0.012,0.39-0.031,0.58l0.78,1.191c0.159-0.563,0.251-1.156,0.251-1.771    c0-3.421-2.645-6.219-6-6.475V262h-1v2.025c-3.355,0.256-6,3.054-6,6.475c0,0.615,0.092,1.208,0.251,1.771l0.78-1.191    c-0.02-0.19-0.031-0.384-0.031-0.58C159,267.468,161.468,265,164.5,265z"/>
		<path d="M155.67,281.691l0.836,0.549l7.121-10.877l-2.509-1.645l-7.121,10.877l0.837,0.548L151,287l0.836,0.548L155.67,281.691z     M161.406,271.104l0.837,0.549l-6.025,9.202l-0.836-0.548L161.406,271.104z"/>
		<path d="M174.166,281.144l0.837-0.548l-7.121-10.877l-2.509,1.645l7.121,10.877l0.836-0.549l3.834,5.856L178,287L174.166,281.144z     M172.782,280.854l-6.025-9.202l0.837-0.549l6.024,9.203L172.782,280.854z"/>
	</g>
	
    </g>
</svg>
