<?xml version="1.0" encoding="iso-8859-1"?>
<!DOCTYPE svg PUBLIC "-//W3C//DTD SVG 1.1//EN" "http://www.w3.org/Graphics/SVG/1.1/DTD/svg11.dtd">
<svg version="1.1" xmlns="http://www.w3.org/2000/svg" xmlns:xlink="http://www.w3.org/1999/xlink" x="0px" y="0px" width="29" height="30" viewBox="0 0 29 30" xml:space="preserve">
    <g transform="translate(-570 -260)">
        <g xmlns="http://www.w3.org/2000/svg" xmlns:xlink="http://www.w3.org/1999/xlink" id="cube-tick-7">
		<path d="M584.836,285.931c1.245,2.415,3.759,4.069,6.664,4.069c4.143,0,7.5-3.358,7.5-7.5c0-3.264-2.089-6.034-5-7.064v-6.796    L582.5,262l-11.5,6.64v12l11.5,6.64L584.836,285.931z M598,282.5c0,3.59-2.91,6.5-6.5,6.5s-6.5-2.91-6.5-6.5s2.91-6.5,6.5-6.5    S598,278.91,598,282.5z M593,275.15c-0.484-0.098-0.986-0.15-1.5-0.15c-4.143,0-7.5,3.358-7.5,7.5c0,0.88,0.159,1.721,0.438,2.506    l-1.438,0.83v-10.268l10-5.774V275.15z M582.5,263.154l10,5.774l-10,5.773l-10-5.773L582.5,263.154z M582,285.836l-10-5.773    v-10.269l10,5.774V285.836z"/>
		<polygon points="590.086,284.268 587.965,282.146 587.258,282.854 590.086,285.682 595.742,280.025 595.035,279.318   "/>
	</g>
	
    </g>
</svg>
