<?xml version="1.0" encoding="iso-8859-1"?>
<!DOCTYPE svg PUBLIC "-//W3C//DTD SVG 1.1//EN" "http://www.w3.org/Graphics/SVG/1.1/DTD/svg11.dtd">
<svg version="1.1" xmlns="http://www.w3.org/2000/svg" xmlns:xlink="http://www.w3.org/1999/xlink" x="0px" y="0px" width="30" height="30" viewBox="0 0 30 30" xml:space="preserve">
    <g transform="translate(-390 -80)">
        <g xmlns="http://www.w3.org/2000/svg" xmlns:xlink="http://www.w3.org/1999/xlink" id="feather-pen-7">
		<path d="M407.756,105.951c0.037-0.158,0.061-0.369,0.008-0.611c-0.05-0.24-0.19-0.473-0.337-0.619    c-0.306-0.299-0.552-0.369-0.766-0.438c-0.213-0.061-0.399-0.088-0.579-0.109c-0.701-0.072-1.31-0.039-1.943,0.008    c-1.248,0.111-2.462,0.336-3.635,0.674c-1.165,0.373-2.293,0.816-3.393,1.307c-1.082,0.537-2.149,1.092-3.134,1.793l0.045,0.09    c2.14-1.01,4.378-1.828,6.676-2.387c1.15-0.273,2.319-0.475,3.497-0.541c0.586-0.029,1.181-0.041,1.758,0.031    c0.279,0.043,0.586,0.102,0.766,0.268c0.182,0.162,0.057,0.459-0.086,0.699c-0.146,0.25-0.327,0.486-0.475,0.756    c-0.071,0.135-0.143,0.281-0.155,0.455c-0.021,0.176,0.083,0.369,0.226,0.457c0.578,0.324,1.192,0.279,1.788,0.299    c1.194-0.006,2.383-0.244,3.513-0.615c2.261-0.764,4.338-1.998,6.171-3.514l-0.066-0.074c-2.009,1.262-4.139,2.299-6.327,2.904    c-1.109,0.283-2.19,0.424-3.312,0.422c-0.239-0.008-0.541-0.021-0.777-0.057c-0.033-0.003-0.067-0.01-0.101-0.016l0.351-0.525    C407.563,106.445,407.676,106.264,407.756,105.951z"/>
		<path d="M418.249,80.253c-4.23,0.383-7.36,1.267-9.413,2.039c-1.951,0.733-2.931,1.364-2.931,1.364    c-0.411,0.219-0.788,0.449-1.172,0.677c-8.801,5.216-10.677,12.694-10.729,18.417c-1.934,2.883-2.968,5.07-2.588,5.333    c1.214-1.438,2.325-2.795,3.408-4.12c6.228-0.355,14.437-4.357,19.372-10.22c0.264-0.313,0.527-0.628,0.771-0.953    c0,0,0.514-0.57,1.184-1.578c1.292-1.941,3.18-5.537,3.18-10.017l-0.057-1.029L418.249,80.253z M414.659,91.585L409,93l4.02,0.574    c-4.75,5.332-11.919,8.679-17.311,9.308c0.026-0.032,0.054-0.065,0.08-0.097c4.526-5.539,8.479-10.294,15.127-15.535    c-6.044,2.21-12.104,8.791-15.849,13.977c0.469-6.652,3.627-11.872,9.399-15.563L404,88c0,0,1.728-2.072,3.354-3.984    c1.626-0.79,5.281-2.249,10.979-2.766C418.332,86.282,415.71,90.212,414.659,91.585z"/>
	</g>
	
    </g>
</svg>
