<?xml version="1.0" encoding="iso-8859-1"?>
<!DOCTYPE svg PUBLIC "-//W3C//DTD SVG 1.1//EN" "http://www.w3.org/Graphics/SVG/1.1/DTD/svg11.dtd">
<svg version="1.1" xmlns="http://www.w3.org/2000/svg" xmlns:xlink="http://www.w3.org/1999/xlink" x="0px" y="0px" width="30" height="30" viewBox="0 0 30 30" xml:space="preserve">
    <g transform="translate(-570 -320)">
        <g xmlns="http://www.w3.org/2000/svg" xmlns:xlink="http://www.w3.org/1999/xlink" id="finger-press-7">
		<path d="M578.268,335.732c-0.977-0.977-2.56-0.977-3.535,0c-0.977,0.977-0.977,2.559,0,3.536l5.268,5.268V347c0,1.104,0.896,2,2,2    h9c1.104,0,2-0.896,2-2v-8v-4c0-1.104-0.896-2-2-2c-0.415,0-0.8,0.126-1.119,0.343c-0.273-0.78-1.008-1.343-1.881-1.343    c-0.415,0-0.8,0.126-1.119,0.343c-0.273-0.78-1.008-1.343-1.881-1.343c-0.366,0-0.705,0.105-1,0.277v-1.699    c1.765-0.772,3-2.529,3-4.578c0-2.761-2.238-5-5-5s-5,2.239-5,5c0,2.049,1.235,3.806,3,4.578v7.887L578.268,335.732z M578,325    c0-2.206,1.794-4,4-4s4,1.794,4,4c0,1.474-0.811,2.75-2,3.444V326c0-1.104-0.896-2-2-2s-2,0.896-2,2v2.444    C578.811,327.75,578,326.474,578,325z M581,338v-12c0-0.551,0.448-1,1-1s1,0.449,1,1v7v5h1v-5c0-0.551,0.448-1,1-1s1,0.449,1,1v1    v4h1v-4c0-0.551,0.448-1,1-1s1,0.449,1,1v1v3h1v-3c0-0.551,0.448-1,1-1s1,0.449,1,1v3v2v2v5c0,0.551-0.449,1-1,1h-9    c-0.551,0-1-0.449-1-1v-2.878l-5.561-5.561c-0.585-0.585-0.585-1.537,0-2.122c0.283-0.284,0.66-0.439,1.061-0.439    s0.777,0.156,1.061,0.439l3.439,3.439V338z"/>
	</g>
	
    </g>
</svg>
