<?xml version="1.0" encoding="iso-8859-1"?>
<!DOCTYPE svg PUBLIC "-//W3C//DTD SVG 1.1//EN" "http://www.w3.org/Graphics/SVG/1.1/DTD/svg11.dtd">
<svg version="1.1" xmlns="http://www.w3.org/2000/svg" xmlns:xlink="http://www.w3.org/1999/xlink" x="0px" y="0px" width="30" height="30" viewBox="0 0 30 30" xml:space="preserve">
    <g transform="translate(-330 -80)">
        <g xmlns="http://www.w3.org/2000/svg" xmlns:xlink="http://www.w3.org/1999/xlink" id="fountain-pen-7">
		<path d="M333.929,107.693c1.605-1.605,8.485-4.243,8.485-4.243l7.071-8.485l1.414,1.414l0.707-0.707l-0.707-0.707l7.071-5.657    l-7.778-7.778l-5.657,7.071l-0.707-0.707l-0.707,0.707l1.414,1.415l-8.485,7.071c0,0-2.637,6.88-4.242,8.485l0.707,0.707    L333.929,107.693z M345.316,89.226l4.959-6.199l6.198,6.198l-6.242,4.994l-0.039,0.039l-4.95-4.95L345.316,89.226z M336.89,97.688    l7.584-6.321l3.658,3.659l-6.32,7.584c-1.211,0.472-5.646,2.247-7.807,3.744l-0.076-0.076l6.429-6.429    c0.557,0.265,1.242,0.172,1.703-0.289c0.586-0.586,0.585-1.536,0-2.122c-0.586-0.585-1.535-0.586-2.121,0    c-0.462,0.461-0.554,1.146-0.289,1.703l-6.429,6.429l-0.076-0.076C334.642,103.334,336.417,98.9,336.89,97.688z"/>
		<rect x="337" y="107" width="21" height="1"/>
	</g>
	
    </g>
</svg>
