<?xml version="1.0" encoding="iso-8859-1"?>
<!DOCTYPE svg PUBLIC "-//W3C//DTD SVG 1.1//EN" "http://www.w3.org/Graphics/SVG/1.1/DTD/svg11.dtd">
<svg version="1.1" xmlns="http://www.w3.org/2000/svg" xmlns:xlink="http://www.w3.org/1999/xlink" x="0px" y="0px" width="30" height="30" viewBox="0 0 30 30" xml:space="preserve">
    <g transform="translate(-510 -320)">
        <g xmlns="http://www.w3.org/2000/svg" xmlns:xlink="http://www.w3.org/1999/xlink" id="grab-7">
		<path d="M523,346h9c1.104,0,2-0.896,2-2v-4v-6v-4c0-1.104-0.896-2-2-2c-0.415,0-0.8,0.126-1.119,0.343    c-0.273-0.78-1.008-1.343-1.881-1.343c-0.415,0-0.8,0.126-1.119,0.343c-0.273-0.78-1.008-1.343-1.881-1.343    c-0.415,0-0.8,0.126-1.119,0.343c-0.273-0.78-1.008-1.343-1.881-1.343c-1.104,0-2,0.896-2,2v7v0.808    c-0.229,0.247-0.556,0.474-1.003,0.474c-0.983,0-0.983-0.975-0.983-1.093c0-0.975,0.803-2.774,0.803-2.774    c0.384-0.796,0.117-1.79-0.597-2.219c-0.713-0.429-1.603-0.131-1.987,0.666l-1.712,3.551c-0.328,1.462,1.236,7.098,5.479,9.483    V344C521,345.104,521.896,346,523,346z M518.733,339.549c-1.738-2.322-2.341-5.021-2.252-5.828l1.651-3.426    c0.089-0.182,0.239-0.296,0.393-0.296c0.061,0,0.12,0.018,0.179,0.053c0.272,0.164,0.371,0.597,0.212,0.927    c-0.161,0.36-0.902,2.078-0.902,3.208c0,1.232,0.815,2.093,1.983,2.093c0.654,0,1.255-0.275,1.736-0.794L522,335.2V335v-2v-6    c0-0.551,0.448-1,1-1s1,0.449,1,1v6h1v-5c0-0.551,0.448-1,1-1s1,0.449,1,1v5h1v-4c0-0.551,0.448-1,1-1s1,0.449,1,1v4h1v-3    c0-0.551,0.448-1,1-1s1,0.449,1,1v3v2v1v4v4c0,0.551-0.448,1-1,1h-9c-0.552,0-1-0.449-1-1v-1.714    C520.769,341.719,519.677,340.81,518.733,339.549z"/>
	</g>
	
    </g>
</svg>
