<?xml version="1.0" encoding="iso-8859-1"?>
<!DOCTYPE svg PUBLIC "-//W3C//DTD SVG 1.1//EN" "http://www.w3.org/Graphics/SVG/1.1/DTD/svg11.dtd">
<svg version="1.1" xmlns="http://www.w3.org/2000/svg" xmlns:xlink="http://www.w3.org/1999/xlink" x="0px" y="0px" width="30" height="30" viewBox="0 0 30 30" xml:space="preserve">
    <g transform="translate(-90 -800)">
        <g xmlns="http://www.w3.org/2000/svg" xmlns:xlink="http://www.w3.org/1999/xlink" id="grid-out-many-7">
		<path d="M113,803h-1v4h-4v-4h-1v4h-4v-4h-1v4h-4v-4h-1v4h-4v1h4v4h-4v1h4v4h-4v1h4v4h-4v1h4v4h1v-4h4v4h1v-4h4v4h1v-4h4v4h1v-4h4    v-1h-4v-4h4v-1h-4v-4h4v-1h-4v-4h4v-1h-4V803z M102,822h-4v-4h4V822z M102,817h-4v-4h4V817z M102,812h-4v-4h4V812z M107,822h-4v-4    h4V822z M107,817h-4v-4h4V817z M107,812h-4v-4h4V812z M112,822h-4v-4h4V822z M112,817h-4v-4h4V817z M112,812h-4v-4h4V812z"/>
	</g>
	
    </g>
</svg>
