<?xml version="1.0" encoding="iso-8859-1"?>
<!DOCTYPE svg PUBLIC "-//W3C//DTD SVG 1.1//EN" "http://www.w3.org/Graphics/SVG/1.1/DTD/svg11.dtd">
<svg version="1.1" xmlns="http://www.w3.org/2000/svg" xmlns:xlink="http://www.w3.org/1999/xlink" x="0px" y="0px" width="30" height="30" viewBox="0 0 30 30" xml:space="preserve">
    <g transform="translate(-270 -320)">
        <g xmlns="http://www.w3.org/2000/svg" xmlns:xlink="http://www.w3.org/1999/xlink" id="lasso-7">
		<path d="M273.222,348.448c0.218-0.107,4.254-2.145,5.46-4.751c0.137-0.249,0.234-0.521,0.279-0.813    c0.04-0.192,0.055-0.386,0.057-0.582c2.754,0.869,6.037,0.959,9.348,0.051c7.284-1.997,11.906-8.028,10.324-13.471    c-1.582-5.442-8.77-8.235-16.055-6.237c-7.284,1.998-11.906,8.029-10.324,13.472c0.49,1.688,1.523,3.121,2.929,4.235    c-0.738,0.435-1.239,1.229-1.239,2.147c0,1.371,1.104,2.482,2.473,2.497c-1.203,1.151-2.805,2.113-3.695,2.555L273.222,348.448z     M273.271,335.838c-0.549-1.888-0.264-3.915,0.826-5.864c1.636-2.922,4.926-5.301,8.803-6.364c1.477-0.405,2.975-0.61,4.455-0.61    c5.134,0,9.303,2.476,10.373,6.162c0.549,1.888,0.264,3.916-0.827,5.864c-1.635,2.922-4.925,5.301-8.801,6.364    c-1.478,0.405-2.976,0.61-4.456,0.61C278.512,342,274.342,339.524,273.271,335.838z M275,342.5c0-0.727,0.517-1.332,1.201-1.47    c0.516,0.321,1.075,0.599,1.659,0.846c0.087,0.19,0.14,0.4,0.14,0.624c0,0.829-0.672,1.5-1.5,1.5S275,343.329,275,342.5z"/>
	</g>
	
    </g>
</svg>
