<?xml version="1.0" encoding="iso-8859-1"?>
<!DOCTYPE svg PUBLIC "-//W3C//DTD SVG 1.1//EN" "http://www.w3.org/Graphics/SVG/1.1/DTD/svg11.dtd">
<svg version="1.1" xmlns="http://www.w3.org/2000/svg" xmlns:xlink="http://www.w3.org/1999/xlink" x="0px" y="0px" width="30" height="30" viewBox="0 0 30 30" xml:space="preserve">
    <g transform="translate(-330 -320)">
        <g xmlns="http://www.w3.org/2000/svg" xmlns:xlink="http://www.w3.org/1999/xlink" id="lasso-select-7">
		<path d="M351.674,342.021l7.646,0.317l-4.233-3.552c3.1-2.748,4.608-6.443,3.603-9.903c-1.582-5.442-8.77-8.235-16.055-6.237    c-7.284,1.998-11.906,8.029-10.324,13.472c0.491,1.688,1.523,3.121,2.929,4.235c-0.738,0.435-1.239,1.229-1.239,2.147    c0,1.371,1.104,2.482,2.473,2.497c-1.203,1.151-2.805,2.113-3.694,2.555l0.443,0.896c0.217-0.107,4.257-2.146,5.462-4.753    c0.136-0.248,0.232-0.518,0.277-0.809c0.04-0.192,0.056-0.387,0.058-0.583c2.374,0.75,5.141,0.922,7.981,0.371v5.411    L351.674,342.021z M356.429,341.218l-5.23-0.217L348,345.149v-11.005L356.429,341.218z M335,342.5c0-0.727,0.517-1.332,1.202-1.47    c0.516,0.321,1.074,0.599,1.658,0.846c0.088,0.19,0.14,0.4,0.14,0.624c0,0.829-0.672,1.5-1.5,1.5S335,343.329,335,342.5z     M343.645,342c-5.133,0-9.303-2.476-10.373-6.162c-0.549-1.888-0.264-3.915,0.826-5.864c1.636-2.922,4.926-5.301,8.803-6.364    c1.477-0.405,2.975-0.61,4.455-0.61c5.134,0,9.303,2.476,10.373,6.162c0.549,1.888,0.264,3.916-0.827,5.864    c-0.634,1.134-1.522,2.182-2.593,3.107L347,332v9.653C345.883,341.883,344.759,342,343.645,342z"/>
	</g>
	
    </g>
</svg>
