<?xml version="1.0" encoding="iso-8859-1"?>
<!DOCTYPE svg PUBLIC "-//W3C//DTD SVG 1.1//EN" "http://www.w3.org/Graphics/SVG/1.1/DTD/svg11.dtd">
<svg version="1.1" xmlns="http://www.w3.org/2000/svg" xmlns:xlink="http://www.w3.org/1999/xlink" x="0px" y="0px" width="30" height="30" viewBox="0 0 30 30" xml:space="preserve">
    <g transform="translate(-330 -380)">
        <g xmlns="http://www.w3.org/2000/svg" xmlns:xlink="http://www.w3.org/1999/xlink" id="layer-lock-7">
		<path d="M358,398.993V398c0-0.974-0.316-1.869-0.842-2.605l0.857-0.395l-3.145-1.449l-0.239,0.11    c-0.364-0.095-0.738-0.161-1.132-0.161c-0.535,0-1.04,0.109-1.516,0.28l6.031-2.78L345,385l-12.984,6L345,397l6.314-2.911    c-1.375,0.77-2.314,2.223-2.314,3.911v0.055l-3.999,1.844L334.399,395l1.944-0.898l-1.192-0.551L332.016,395L345,401l2-0.922    v2.899l-1.999,0.921L334.399,399l1.944-0.898l-1.192-0.551L332.016,399L345,405l2-0.922V410h13v-11h-1.984L358,398.993z     M334.399,391l10.602-4.898L355.627,391l-10.626,4.898L334.399,391z M350,398c0-1.93,1.57-3.5,3.5-3.5s3.5,1.57,3.5,3.5v1h-7V398z     M359,400v9h-11v-9H359z"/>
		<path d="M353.5,402c-0.828,0-1.5,0.672-1.5,1.5c0,0.652,0.419,1.201,1,1.408V407h1v-2.092c0.581-0.207,1-0.756,1-1.408    C355,402.672,354.328,402,353.5,402z"/>
	</g>
	
    </g>
</svg>
