<?xml version="1.0" encoding="iso-8859-1"?>
<!DOCTYPE svg PUBLIC "-//W3C//DTD SVG 1.1//EN" "http://www.w3.org/Graphics/SVG/1.1/DTD/svg11.dtd">
<svg version="1.1" xmlns="http://www.w3.org/2000/svg" xmlns:xlink="http://www.w3.org/1999/xlink" x="0px" y="0px" width="30" height="30" viewBox="0 0 30 30" xml:space="preserve">
    <g transform="translate(-450 -380)">
        <g xmlns="http://www.w3.org/2000/svg" xmlns:xlink="http://www.w3.org/1999/xlink" id="layer-up-7">
		<polygon points="478.016,402 474.871,400.551 473.677,401.102 475.627,402 465.001,406.898 454.399,402 456.344,401.102     455.151,400.551 452.016,402 465,408   "/>
		<polygon points="474.871,396.551 473.677,397.102 475.627,398 465.001,402.898 454.399,398 456.344,397.102 455.151,396.551     452.016,398 465,404 478.016,398   "/>
		<polygon points="467,388.922 467,390.023 475.627,394 465.001,398.898 454.399,394 464,389.564 464,388.462 452.016,394 465,400     478.016,394   "/>
		<polygon points="465,391.586 465,394 466,394 466,391.586 466,386.586 466,382.915 469.742,386.657 470.45,385.95 465.5,381     460.55,385.95 461.258,386.657 465,382.915 465,386.586   "/>
	</g>
	
    </g>
</svg>
