<?xml version="1.0" encoding="iso-8859-1"?>
<!DOCTYPE svg PUBLIC "-//W3C//DTD SVG 1.1//EN" "http://www.w3.org/Graphics/SVG/1.1/DTD/svg11.dtd">
<svg version="1.1" xmlns="http://www.w3.org/2000/svg" xmlns:xlink="http://www.w3.org/1999/xlink" x="0px" y="0px" width="30" height="30" viewBox="0 0 30 30" xml:space="preserve">
    <g transform="translate(-570 -380)">
        <g xmlns="http://www.w3.org/2000/svg" xmlns:xlink="http://www.w3.org/1999/xlink" id="layer-many-7">
		<polygon points="594.871,393.551 593.677,394.102 595.627,395 585.001,399.898 574.399,395 576.344,394.102 575.151,393.551     572.016,395 585,401 598.016,395   "/>
		<polygon points="594.871,397.551 593.677,398.102 595.627,399 585.001,403.898 574.399,399 576.344,398.102 575.151,397.551     572.016,399 585,405 598.016,399   "/>
		<polygon points="575.151,401.551 572.016,403 585,409 598.016,403 594.871,401.551 593.677,402.102 595.627,403 585.001,407.898     574.399,403 576.344,402.102   "/>
		<polygon points="594.871,389.551 593.677,390.102 595.627,391 585.001,395.898 574.399,391 576.344,390.102 575.151,389.551     572.016,391 585,397 598.016,391   "/>
		<path d="M585,381l-12.984,6L585,393l13.016-6L585,381z M574.399,387l10.602-4.898L595.627,387l-10.626,4.898L574.399,387z"/>
	</g>
	
    </g>
</svg>
