<?xml version="1.0" encoding="iso-8859-1"?>
<!DOCTYPE svg PUBLIC "-//W3C//DTD SVG 1.1//EN" "http://www.w3.org/Graphics/SVG/1.1/DTD/svg11.dtd">
<svg version="1.1" xmlns="http://www.w3.org/2000/svg" xmlns:xlink="http://www.w3.org/1999/xlink" x="0px" y="0px" width="30" height="30" viewBox="0 0 30 30" xml:space="preserve">
    <g transform="translate(-390 -380)">
        <g xmlns="http://www.w3.org/2000/svg" xmlns:xlink="http://www.w3.org/1999/xlink" id="layer-off-7">
		<polygon points="405.001,403.898 394.399,399 396.344,398.102 395.151,397.551 392.016,399 405,405 410.877,402.291     410.123,401.537   "/>
		<polygon points="405.001,399.898 394.399,395 396.344,394.102 395.151,393.551 392.016,395 405,401 408.139,399.553     407.386,398.799   "/>
		<polygon points="394.399,391 397.946,389.361 397.193,388.607 392.016,391 405,397 405.401,396.815 404.041,395.455   "/>
		<path d="M417.729,407.728l0.707-0.707l-5.623-5.623l5.203-2.398l-3.145-1.449l-1.194,0.551l1.95,0.898l-3.568,1.645l-1.983-1.984    l7.94-3.661l-3.145-1.449l-1.194,0.551l1.95,0.898l-6.306,2.907l-1.984-1.984L418.016,391L405,385l-5.873,2.714l-6.148-6.149    l-0.707,0.707L417.729,407.728z M405.001,386.102L415.627,391l-9.044,4.169l-6.702-6.702L405.001,386.102z"/>
	</g>
	
    </g>
</svg>
