<?xml version="1.0" encoding="iso-8859-1"?>
<!DOCTYPE svg PUBLIC "-//W3C//DTD SVG 1.1//EN" "http://www.w3.org/Graphics/SVG/1.1/DTD/svg11.dtd">
<svg version="1.1" xmlns="http://www.w3.org/2000/svg" xmlns:xlink="http://www.w3.org/1999/xlink" x="0px" y="0px" width="30" height="30" viewBox="0 0 30 30" xml:space="preserve">
    <g transform="translate(-150 -380)">
        <g xmlns="http://www.w3.org/2000/svg" xmlns:xlink="http://www.w3.org/1999/xlink" id="layer-minus-7">
		<path d="M176,391l-13.016-6L150,391l12.984,6L176,391z M162.985,386.102L173.611,391l-10.626,4.898L152.384,391L162.985,386.102z"/>
		<path d="M175.03,395.447L176,395l-3.145-1.449l-1.194,0.551l1.95,0.898l-0.148,0.068c-0.316-0.041-0.636-0.068-0.963-0.068    c-2.631,0-4.941,1.357-6.28,3.407l-3.234,1.491L152.384,395l1.944-0.898l-1.192-0.551L150,395l12.984,6l2.509-1.157    c-0.313,0.827-0.493,1.72-0.493,2.657c0,0.155,0.014,0.307,0.023,0.459l-2.038,0.939L152.384,399l1.944-0.898l-1.192-0.551    L150,399l12.984,6l2.166-0.999c0.695,3.422,3.722,5.999,7.35,5.999c4.143,0,7.5-3.358,7.5-7.5    C180,399.247,177.926,396.486,175.03,395.447z M172.5,409c-3.59,0-6.5-2.91-6.5-6.5s2.91-6.5,6.5-6.5s6.5,2.91,6.5,6.5    S176.09,409,172.5,409z"/>
		<rect x="168" y="402" width="9" height="1"/>
	</g>
	
    </g>
</svg>
