<?xml version="1.0" encoding="iso-8859-1"?>
<!DOCTYPE svg PUBLIC "-//W3C//DTD SVG 1.1//EN" "http://www.w3.org/Graphics/SVG/1.1/DTD/svg11.dtd">
<svg version="1.1" xmlns="http://www.w3.org/2000/svg" xmlns:xlink="http://www.w3.org/1999/xlink" x="0px" y="0px" width="30" height="30" viewBox="0 0 30 30" xml:space="preserve">
    <g transform="translate(-150 -140)">
        <g xmlns="http://www.w3.org/2000/svg" xmlns:xlink="http://www.w3.org/1999/xlink" id="magnifying-minus-7">
		<path d="M161.551,161.05c2.081,0,4-0.677,5.565-1.813l8.93,8.93c0.586,0.586,1.536,0.586,2.122,0c0.585-0.586,0.585-1.536,0-2.122    l-8.931-8.93c1.136-1.565,1.813-3.484,1.813-5.566c0-5.246-4.254-9.5-9.5-9.5c-5.247,0-9.5,4.254-9.5,9.5    C152.051,156.797,156.304,161.051,161.551,161.05z M177.46,166.753c0.195,0.195,0.195,0.512,0,0.707    c-0.194,0.195-0.512,0.195-0.707,0l-8.855-8.855c0.248-0.224,0.483-0.459,0.707-0.707L177.46,166.753z M161.551,143.051    c4.693,0,8.5,3.805,8.499,8.5c0,4.694-3.806,8.5-8.499,8.5c-4.695,0-8.5-3.806-8.5-8.5    C153.05,146.856,156.855,143.05,161.551,143.051z"/>
		<rect x="156" y="151" width="11" height="1"/>
	</g>
	
    </g>
</svg>
