<?xml version="1.0" encoding="iso-8859-1"?>
<!DOCTYPE svg PUBLIC "-//W3C//DTD SVG 1.1//EN" "http://www.w3.org/Graphics/SVG/1.1/DTD/svg11.dtd">
<svg version="1.1" xmlns="http://www.w3.org/2000/svg" xmlns:xlink="http://www.w3.org/1999/xlink" x="0px" y="0px" width="30" height="30" viewBox="0 0 30 30" xml:space="preserve">
    <g transform="translate(-330 -260)">
        <g xmlns="http://www.w3.org/2000/svg" xmlns:xlink="http://www.w3.org/1999/xlink" id="magnet-7">
		<path d="M333,275c0,6.627,5.373,12,12,12s12-5.373,12-12v-11h-6v11c0,3.309-2.691,6-6,6s-6-2.691-6-6v-11h-6V275z M352,265h4v3h-4    V265z M334,265h4v3h-4V265z M334,269h4v6c0,3.859,3.141,7,7,7s7-3.141,7-7v-6h4v6c0,6.065-4.935,11-11,11s-11-4.935-11-11V269z"/>
	</g>
	
    </g>
</svg>
