<?xml version="1.0" encoding="iso-8859-1"?>
<!DOCTYPE svg PUBLIC "-//W3C//DTD SVG 1.1//EN" "http://www.w3.org/Graphics/SVG/1.1/DTD/svg11.dtd">
<svg version="1.1" xmlns="http://www.w3.org/2000/svg" xmlns:xlink="http://www.w3.org/1999/xlink" x="0px" y="0px" width="30" height="30" viewBox="0 0 30 30" xml:space="preserve">
    <g transform="translate(-150 -200)">
        <g xmlns="http://www.w3.org/2000/svg" xmlns:xlink="http://www.w3.org/1999/xlink" id="paintbrush-7_1_">
		<circle cx="174.827" cy="205.173" r="1"/>
		<path d="M172.705,218.608l-3.4-3.401l8.22-7.253c0.608-0.536,0.956-1.271,0.981-2.068s-0.277-1.552-0.851-2.126l-1.414-1.414    c-0.573-0.574-1.329-0.876-2.126-0.851c-0.797,0.025-1.532,0.374-2.068,0.982l-7.254,8.22l-3.4-3.401l-9.9,9.899l11.314,11.313    L172.705,218.608z M172.797,203.137c0.728-0.825,1.959-0.863,2.737-0.085l1.414,1.414c0.778,0.778,0.739,2.01-0.085,2.737    l-8.268,7.295l-3.094-3.094L172.797,203.137z M161.393,208.708l9.898,9.899l-1.414,1.415l-9.899-9.9L161.393,208.708z     M159.271,210.83l4.95,4.95l4.949,4.95l-3.73,3.73c-1.719-0.874-4.101-2.546-4.256-5.174c-0.175-2.977-2.615-4.85-4.506-5.862    L159.271,210.83z M155.93,214.171c1.719,0.873,4.102,2.546,4.256,5.174c0.098,1.656,0.896,2.971,1.912,3.986    c0.813,0.813,1.757,1.423,2.598,1.873l-1.889,1.89l-9.9-9.899L155.93,214.171z"/>
	</g>
	
    </g>
</svg>
