<?xml version="1.0" encoding="iso-8859-1"?>
<!DOCTYPE svg PUBLIC "-//W3C//DTD SVG 1.1//EN" "http://www.w3.org/Graphics/SVG/1.1/DTD/svg11.dtd">
<svg version="1.1" xmlns="http://www.w3.org/2000/svg" xmlns:xlink="http://www.w3.org/1999/xlink" x="0px" y="0px" width="30" height="30" viewBox="0 0 30 30" xml:space="preserve">
    <g transform="translate(-450 -260)">
        <g xmlns="http://www.w3.org/2000/svg" xmlns:xlink="http://www.w3.org/1999/xlink" id="paper-clip-tick-7">
		<path d="M473.716,275.107l2.156-2.147c2.17-2.161,2.17-5.678,0-7.839s-5.702-2.161-7.873,0l-14.313,14.252    c-0.766,0.762-1.187,1.774-1.187,2.852s0.421,2.09,1.187,2.851c0.764,0.761,1.78,1.18,2.861,1.181    c1.082,0,2.099-0.419,2.863-1.181l7.08-7.05c-0.904,1.213-1.452,2.705-1.483,4.328l-3.45,3.435l0.717,0.713l2.828-2.816    c0.568,3.578,3.659,6.316,7.397,6.316c4.143,0,7.5-3.358,7.5-7.5C480,278.773,477.278,275.689,473.716,275.107z M473.01,267.972    c-0.478-0.477-1.113-0.738-1.788-0.738h-0.001c-0.676,0.001-1.312,0.264-1.79,0.74L456.55,280.8l0.715,0.712l12.881-12.826    c0.594-0.589,1.557-0.591,2.148-0.002c0.592,0.59,0.592,1.55-0.001,2.139l-13.597,13.54c-0.574,0.571-1.337,0.886-2.148,0.886    c-0.811,0-1.572-0.314-2.146-0.886c-0.573-0.571-0.889-1.33-0.889-2.138c0-0.807,0.315-1.566,0.889-2.139l14.313-14.252    c1.776-1.768,4.665-1.768,6.441,0c1.776,1.769,1.776,4.646,0,6.414l-2.77,2.758c-1.624,0.024-3.119,0.566-4.336,1.466l4.958-4.937    C473.995,270.553,473.995,268.954,473.01,267.972z M472.5,289c-3.59,0-6.5-2.91-6.5-6.5s2.91-6.5,6.5-6.5s6.5,2.91,6.5,6.5    S476.09,289,472.5,289z"/>
		<polygon points="471.086,284.268 468.965,282.146 468.258,282.854 471.086,285.682 476.742,280.025 476.035,279.318   "/>
	</g>
	
    </g>
</svg>
