<?xml version="1.0" encoding="iso-8859-1"?>
<!DOCTYPE svg PUBLIC "-//W3C//DTD SVG 1.1//EN" "http://www.w3.org/Graphics/SVG/1.1/DTD/svg11.dtd">
<svg version="1.1" xmlns="http://www.w3.org/2000/svg" xmlns:xlink="http://www.w3.org/1999/xlink" x="0px" y="0px" width="30" height="30" viewBox="0 0 30 30" xml:space="preserve">
    <g transform="translate(-210 -80)">
        <g xmlns="http://www.w3.org/2000/svg" xmlns:xlink="http://www.w3.org/1999/xlink" id="pencil-star-7">
		<path d="M223.495,102.162c1.075,2.826,3.802,4.838,7.005,4.838c4.143,0,7.5-3.358,7.5-7.5c0-3.203-2.012-5.93-4.838-7.005    l4.587-4.587c0.391-0.391,0.391-1.023,0-1.414l-4.243-4.243c-0.391-0.391-1.023-0.391-1.414,0L213,101.343V107h5.656    L223.495,102.162z M237,99.5c0,3.59-2.91,6.5-6.5,6.5s-6.5-2.91-6.5-6.5s2.91-6.5,6.5-6.5S237,95.91,237,99.5z M232.799,82.958    l4.242,4.243l-2.828,2.828l-4.243-4.242L232.799,82.958z M229.263,86.494l4.243,4.242l-1.432,1.432    C231.566,92.06,231.04,92,230.5,92c-4.143,0-7.5,3.358-7.5,7.5c0,0.541,0.061,1.066,0.168,1.574l-3.804,3.805l-4.243-4.243    L229.263,86.494z M214,106v-4.242l0.414-0.415l4.242,4.243L218.242,106H214z"/>
		<polygon points="229.43,98 226,98 228.768,100.079 227.717,103.344 230.5,101.336 233.278,103.344 232.23,100.079 235,98     231.568,98 230.5,94.785   "/>
	</g>
	
    </g>
</svg>
