<?xml version="1.0" encoding="iso-8859-1"?>
<!DOCTYPE svg PUBLIC "-//W3C//DTD SVG 1.1//EN" "http://www.w3.org/Graphics/SVG/1.1/DTD/svg11.dtd">
<svg version="1.1" xmlns="http://www.w3.org/2000/svg" xmlns:xlink="http://www.w3.org/1999/xlink" x="0px" y="0px" width="29" height="30" viewBox="0 0 29 30" xml:space="preserve">
    <g transform="translate(-30 -740)">
        <g xmlns="http://www.w3.org/2000/svg" xmlns:xlink="http://www.w3.org/1999/xlink" id="plus-sign-7">
		<path d="M44.5,742c-6.903,0-12.5,5.597-12.5,12.5S37.597,767,44.5,767S57,761.403,57,754.5S51.403,742,44.5,742z M44.5,766    c-6.341,0-11.5-5.159-11.5-11.5S38.159,743,44.5,743S56,748.159,56,754.5S50.841,766,44.5,766z"/>
		<polygon points="45,747 44,747 44,754 37,754 37,755 44,755 44,762 45,762 45,755 52,755 52,754 45,754   "/>
	</g>
	
    </g>
</svg>
