<?xml version="1.0" encoding="iso-8859-1"?>
<!DOCTYPE svg PUBLIC "-//W3C//DTD SVG 1.1//EN" "http://www.w3.org/Graphics/SVG/1.1/DTD/svg11.dtd">
<svg version="1.1" xmlns="http://www.w3.org/2000/svg" xmlns:xlink="http://www.w3.org/1999/xlink" x="0px" y="0px" width="30" height="30" viewBox="0 0 30 30" xml:space="preserve">
    <g transform="translate(-330 -200)">
        <g xmlns="http://www.w3.org/2000/svg" xmlns:xlink="http://www.w3.org/1999/xlink" id="rubber-stamp-7">
		<path d="M335,224h-2v4h24v-4h-2v-2h-6.883L350,206h2v-4h-14v4h2l1.883,16H335V224z M339,205v-2h12v2h-1h-0.89h-8.221H340H339z     M341.008,206h7.984l-1.882,16h-4.221L341.008,206z M336,223h6h6h6v1h-18V223z M354,225h2v2h-22v-2h2H354z"/>
	</g>
	
    </g>
</svg>
