<?xml version="1.0" encoding="iso-8859-1"?>
<!DOCTYPE svg PUBLIC "-//W3C//DTD SVG 1.1//EN" "http://www.w3.org/Graphics/SVG/1.1/DTD/svg11.dtd">
<svg version="1.1" xmlns="http://www.w3.org/2000/svg" xmlns:xlink="http://www.w3.org/1999/xlink" x="0px" y="0px" width="30" height="30" viewBox="0 0 30 30" xml:space="preserve">
    <g transform="translate(-210 -260)">
        <g xmlns="http://www.w3.org/2000/svg" xmlns:xlink="http://www.w3.org/1999/xlink" id="ruler-7">
		<polygon points="218,263 232,263 232,265 224,265 224,266 232,266 232,268 228,268 228,269 232,269 232,271 228,271 228,272     232,272 232,274 228,274 228,275 232,275 232,277 228,277 228,278 232,278 232,280 224,280 224,281 232,281 232,283 228,283     228,284 232,284 232,286 228,286 228,287 232,287 232,288 233,288 233,262 217,262 217,288 218,288   "/>
	</g>
	
    </g>
</svg>
