<?xml version="1.0" encoding="iso-8859-1"?>
<!DOCTYPE svg PUBLIC "-//W3C//DTD SVG 1.1//EN" "http://www.w3.org/Graphics/SVG/1.1/DTD/svg11.dtd">
<svg version="1.1" xmlns="http://www.w3.org/2000/svg" xmlns:xlink="http://www.w3.org/1999/xlink" x="0px" y="0px" width="30" height="30" viewBox="0 0 30 30" xml:space="preserve">
    <g transform="translate(-330 -140)">
        <g xmlns="http://www.w3.org/2000/svg" xmlns:xlink="http://www.w3.org/1999/xlink" id="saw-cutter-7">
		<path d="M340.678,169.269l-0.113-2.982l2.982,0.113l-0.113-2.982l2.982,0.114l-0.113-2.982l2.982,0.113l-0.113-2.982l2.98,0.113    l-0.113-2.981l2.982,0.113l-0.113-2.982l0.926,0.035l1.066,1.067l2.143-2.143l-1.547-1.547l2.434-2.434l-6.191-6.19    l-23.668,23.667l2.322,2.321L340.678,169.269z M351.266,144.539l6.363,6.364l-0.707,0.707l-6.363-6.364L351.266,144.539z     M349.938,146.08l4.803,4.804l-0.926-0.035l0.113,2.981l-2.982-0.112l0.113,2.98l-2.982-0.113l0.113,2.983l-2.982-0.114    l0.113,2.982l-2.98-0.113l0.113,2.981l-2.982-0.112l0.102,2.655l-6.668-2.05l-1.342-1.342L349.938,146.08z"/>
	</g>
	
    </g>
</svg>
