<?xml version="1.0" encoding="iso-8859-1"?>
<!DOCTYPE svg PUBLIC "-//W3C//DTD SVG 1.1//EN" "http://www.w3.org/Graphics/SVG/1.1/DTD/svg11.dtd">
<svg version="1.1" xmlns="http://www.w3.org/2000/svg" xmlns:xlink="http://www.w3.org/1999/xlink" x="0px" y="0px" width="30" height="30" viewBox="0 0 30 30" xml:space="preserve">
    <g transform="translate(-210 -200)">
        <g xmlns="http://www.w3.org/2000/svg" xmlns:xlink="http://www.w3.org/1999/xlink" id="scissor-7">
		<path d="M221.84,217.835l-0.58,0.728c-0.682-0.348-1.441-0.563-2.26-0.563c-2.762,0-5,2.238-5,5s2.238,5,5,5s5-2.238,5-5    c0-0.705-0.149-1.375-0.413-1.983c0.229-0.198,0.458-0.4,0.691-0.614c-0.239-0.232-0.478-0.469-0.714-0.711    c-0.161,0.148-0.324,0.299-0.481,0.436c-0.273-0.388-0.608-0.723-0.979-1.019l0.413-0.519    C222.288,218.341,222.063,218.088,221.84,217.835z M223,223c0,2.206-1.794,4-4,4s-4-1.794-4-4s1.794-4,4-4S223,220.794,223,223z"/>
		<path d="M227.545,215.458l0.642,0.805c0.225-0.271,0.45-0.54,0.673-0.82c4.818-6.048,7.322-12.065,5.594-13.442l-8.814,11.065    l0.64,0.802l7.647-9.601c-0.39,1.993-2.049,5.783-5.849,10.553C227.896,215.046,227.724,215.242,227.545,215.458z"/>
		<path d="M231,218c-0.445,0-0.87,0.077-1.281,0.187c-0.344,0.091-0.669,0.218-0.979,0.376L215.547,202    c-1.729,1.377,0.775,7.395,5.594,13.442c1.759,2.208,3.581,4.11,5.272,5.574c-0.143,0.329-0.248,0.675-0.317,1.036    c-0.06,0.307-0.096,0.623-0.096,0.947c0,2.762,2.238,5,5,5s5-2.238,5-5S233.762,218,231,218z M221.923,214.819    c-3.8-4.77-5.459-8.56-5.849-10.553l11.822,14.842c-0.371,0.296-0.706,0.631-0.979,1.019    C225.43,218.829,223.734,217.094,221.923,214.819z M231,227c-2.206,0-4-1.794-4-4s1.794-4,4-4s4,1.794,4,4S233.206,227,231,227z"/>
	</g>
	
    </g>
</svg>
