<?xml version="1.0" encoding="iso-8859-1"?>
<!DOCTYPE svg PUBLIC "-//W3C//DTD SVG 1.1//EN" "http://www.w3.org/Graphics/SVG/1.1/DTD/svg11.dtd">
<svg version="1.1" xmlns="http://www.w3.org/2000/svg" xmlns:xlink="http://www.w3.org/1999/xlink" x="0px" y="0px" width="30" height="30" viewBox="0 0 30 30" xml:space="preserve">
    <g transform="translate(-210 -140)">
        <g xmlns="http://www.w3.org/2000/svg" xmlns:xlink="http://www.w3.org/1999/xlink" id="screwdriver-7">
		<path d="M214,167.415c0.781,0.781,2.047,0.781,2.828,0l8.485-8.485l0.707,0.707l0.707-0.707l-2.121-2.121l9.899-9.9l2.121-0.707    l2.828-4.243l-1.414-1.414l-4.242,2.829l-0.707,2.121l-9.9,9.899l-2.121-2.121l-0.707,0.707l0.707,0.707l-8.484,8.485    c-0.781,0.781-0.781,2.047,0,2.829L214,167.415z M234.639,144.015l3.275-2.184l0.255,0.255l-2.184,3.275l-2.021,0.673    L234.639,144.015z M213.293,163.879l8.484-8.485l2.829,2.829l-8.485,8.485c-0.39,0.39-1.024,0.39-1.414,0l-1.414-1.415    C212.902,164.903,212.902,164.269,213.293,163.879z"/>
	</g>
	
    </g>
</svg>
