<?xml version="1.0" encoding="iso-8859-1"?>
<!DOCTYPE svg PUBLIC "-//W3C//DTD SVG 1.1//EN" "http://www.w3.org/Graphics/SVG/1.1/DTD/svg11.dtd">
<svg version="1.1" xmlns="http://www.w3.org/2000/svg" xmlns:xlink="http://www.w3.org/1999/xlink" x="0px" y="0px" width="30" height="30" viewBox="0 0 30 30" xml:space="preserve">
    <g transform="translate(-510 -80)">
        <g xmlns="http://www.w3.org/2000/svg" xmlns:xlink="http://www.w3.org/1999/xlink" id="spanner-7">
		<circle cx="514.999" cy="105.001" r="1"/>
		<path d="M517.12,107.122l12.279-12.278c2.466,0.875,5.322,0.334,7.296-1.639c1.973-1.975,2.515-4.83,1.639-7.296l-3.053,3.053    c-1.172,1.171-3.072,1.171-4.243,0s-1.171-3.071,0-4.243l3.053-3.053c-2.466-0.876-5.321-0.334-7.296,1.639    c-1.974,1.975-2.514,4.831-1.638,7.297l-12.279,12.278c-1.171,1.172-1.171,3.072,0,4.242    C514.049,108.293,515.949,108.293,517.12,107.122z M527.503,84.012c1.214-1.214,2.89-1.828,4.567-1.739l-1.739,1.739    c-1.56,1.561-1.56,4.098,0,5.657s4.097,1.56,5.657,0l1.739-1.739c0.089,1.678-0.525,3.354-1.739,4.568    c-2.34,2.339-6.146,2.339-8.485,0C525.163,90.158,525.163,86.352,527.503,84.012z M513.585,103.587l12.003-12.005    c0.315,0.582,0.715,1.131,1.207,1.623s1.041,0.892,1.623,1.207l-12.005,12.003c-0.779,0.78-2.049,0.78-2.828,0    S512.805,104.366,513.585,103.587z"/>
	</g>
	
    </g>
</svg>
