<?xml version="1.0" encoding="iso-8859-1"?>
<!DOCTYPE svg PUBLIC "-//W3C//DTD SVG 1.1//EN" "http://www.w3.org/Graphics/SVG/1.1/DTD/svg11.dtd">
<svg version="1.1" xmlns="http://www.w3.org/2000/svg" xmlns:xlink="http://www.w3.org/1999/xlink" x="0px" y="0px" width="30" height="30" viewBox="0 0 30 30" xml:space="preserve">
    <g transform="translate(-330 -560)">
        <g xmlns="http://www.w3.org/2000/svg" xmlns:xlink="http://www.w3.org/1999/xlink" id="spiral-7">
		<path d="M346,588.5c6.342,0,11.5-5.159,11.5-11.5s-5.158-11.5-11.5-11.5c-5.238,0-9.5,4.262-9.5,9.5s4.262,9.5,9.5,9.5    c4.136,0,7.5-3.364,7.5-7.5s-3.364-7.5-7.5-7.5c-3.033,0-5.5,2.468-5.5,5.5s2.467,5.5,5.5,5.5c1.93,0,3.5-1.57,3.5-3.5    s-1.57-3.5-3.5-3.5s-3.5,1.57-3.5,3.5c0,0.345,0.065,0.671,0.158,0.986c-0.712-0.797-1.158-1.836-1.158-2.986    c0-2.481,2.019-4.5,4.5-4.5c3.584,0,6.5,2.916,6.5,6.5s-2.916,6.5-6.5,6.5c-4.688,0-8.5-3.813-8.5-8.5s3.813-8.5,8.5-8.5    c5.789,0,10.5,4.71,10.5,10.5s-4.711,10.5-10.5,10.5c-6.893,0-12.5-5.607-12.5-12.5s5.607-12.5,12.5-12.5v-1    c-7.443,0-13.5,6.056-13.5,13.5S338.557,588.5,346,588.5z M346,574.5c1.379,0,2.5,1.121,2.5,2.5s-1.121,2.5-2.5,2.5    c-0.172,0-0.336-0.032-0.504-0.051c-1.137-0.233-1.996-1.242-1.996-2.449C343.5,575.621,344.621,574.5,346,574.5z"/>
	</g>
	
    </g>
</svg>
