<?xml version="1.0" encoding="iso-8859-1"?>
<!DOCTYPE svg PUBLIC "-//W3C//DTD SVG 1.1//EN" "http://www.w3.org/Graphics/SVG/1.1/DTD/svg11.dtd">
<svg version="1.1" xmlns="http://www.w3.org/2000/svg" xmlns:xlink="http://www.w3.org/1999/xlink" x="0px" y="0px" width="29" height="30" viewBox="0 0 29 30" xml:space="preserve">
    <g transform="translate(-270 -800)">
        <g xmlns="http://www.w3.org/2000/svg" xmlns:xlink="http://www.w3.org/1999/xlink" id="square-nine-7">
		<path d="M272,828h25v-25h-25V828z M289,804h7v7h-7V804z M289,812h7v7h-7V812z M289,820h7v7h-7V820z M281,804h7v7h-7V804z M281,812    h7v7h-7V812z M281,820h7v7h-7V820z M273,804h7v7h-7V804z M273,812h7v7h-7V812z M273,820h7v7h-7V820z"/>
	</g>
	
    </g>
</svg>
