<?xml version="1.0" encoding="iso-8859-1"?>
<!DOCTYPE svg PUBLIC "-//W3C//DTD SVG 1.1//EN" "http://www.w3.org/Graphics/SVG/1.1/DTD/svg11.dtd">
<svg version="1.1" xmlns="http://www.w3.org/2000/svg" xmlns:xlink="http://www.w3.org/1999/xlink" x="0px" y="0px" width="30" height="30" viewBox="0 0 30 30" xml:space="preserve">
    <g transform="translate(-210 -560)">
        <g xmlns="http://www.w3.org/2000/svg" xmlns:xlink="http://www.w3.org/1999/xlink" id="square-round-7">
		<path d="M213,583c0,2.209,1.791,4,4,4h16c2.209,0,4-1.791,4-4v-16c0-2.209-1.791-4-4-4h-16c-2.209,0-4,1.791-4,4V583z M214,567    c0-1.654,1.346-3,3-3h16c1.654,0,3,1.346,3,3v16c0,1.654-1.346,3-3,3h-16c-1.654,0-3-1.346-3-3V567z"/>
	</g>
	
    </g>
</svg>
