<?xml version="1.0" encoding="iso-8859-1"?>
<!DOCTYPE svg PUBLIC "-//W3C//DTD SVG 1.1//EN" "http://www.w3.org/Graphics/SVG/1.1/DTD/svg11.dtd">
<svg version="1.1" xmlns="http://www.w3.org/2000/svg" xmlns:xlink="http://www.w3.org/1999/xlink" x="0px" y="0px" width="29" height="30" viewBox="0 0 29 30" xml:space="preserve">
    <g transform="translate(-450 -800)">
        <g xmlns="http://www.w3.org/2000/svg" xmlns:xlink="http://www.w3.org/1999/xlink" id="square-individual-nine-connect-7">
		<path d="M452,803v7h3v2h-3v7h3v2h-3v7h7v-3h2v3h7v-3h2v3h7v-7h-3v-2h3v-7h-3v-2h3v-7h-7v3h-2v-3h-7v3h-2v-3H452z M453,809v-5h5v5    H453z M453,818v-5h5v5H453z M458,827h-5v-5h5V827z M461,824h-2v-3h-3v-2h3v-3h2v3h3v2h-3V824z M462,818v-5h5v5H462z M467,827h-5    v-5h5V827z M476,822v5h-5v-5H476z M473,821h-3v3h-2v-3h-3v-2h3v-3h2v3h3V821z M476,813v5h-5v-5H476z M471,804h5v5h-5V804z     M468,807h2v3h3v2h-3v3h-2v-3h-3v-2h3V807z M462,804h5v5h-5V804z M461,807v3h3v2h-3v3h-2v-3h-3v-2h3v-3H461z"/>
	</g>
	
    </g>
</svg>
