<?xml version="1.0" encoding="iso-8859-1"?>
<!DOCTYPE svg PUBLIC "-//W3C//DTD SVG 1.1//EN" "http://www.w3.org/Graphics/SVG/1.1/DTD/svg11.dtd">
<svg version="1.1" xmlns="http://www.w3.org/2000/svg" xmlns:xlink="http://www.w3.org/1999/xlink" x="0px" y="0px" width="30" height="30" viewBox="0 0 30 30" xml:space="preserve">
    <g transform="translate(-450 -440)">
        <g xmlns="http://www.w3.org/2000/svg" xmlns:xlink="http://www.w3.org/1999/xlink" id="star-rate-plus-7">
		<path d="M474.529,455.285l2.971-3.203l-8.353-1.647L465,443l-4.147,7.435l-8.353,1.647l5.789,6.242l-1.015,8.452l7.726-3.577    l0.036,0.017c0.36,3.807,3.563,6.784,7.464,6.784c4.143,0,7.5-3.357,7.5-7.5C480,459.062,477.685,456.171,474.529,455.285z     M458.48,465.115l0.856-7.132l-4.885-5.268l7.048-1.39l3.5-6.273l3.5,6.273l7.048,1.39l-2.17,2.34    c-0.288-0.034-0.58-0.056-0.878-0.056c-4.01,0-7.274,3.148-7.48,7.107l-0.02-0.009L458.48,465.115z M472.5,469    c-3.59,0-6.5-2.91-6.5-6.5s2.91-6.5,6.5-6.5s6.5,2.91,6.5,6.5S476.09,469,472.5,469z"/>
		<polygon points="473,458 472,458 472,462 468,462 468,463 472,463 472,467 473,467 473,463 477,463 477,462 473,462   "/>
	</g>
	
    </g>
</svg>
