<?xml version="1.0" encoding="iso-8859-1"?>
<!DOCTYPE svg PUBLIC "-//W3C//DTD SVG 1.1//EN" "http://www.w3.org/Graphics/SVG/1.1/DTD/svg11.dtd">
<svg version="1.1" xmlns="http://www.w3.org/2000/svg" xmlns:xlink="http://www.w3.org/1999/xlink" x="0px" y="0px" width="30" height="30" viewBox="0 0 30 30" xml:space="preserve">
    <g transform="translate(-90 -440)">
        <g xmlns="http://www.w3.org/2000/svg" xmlns:xlink="http://www.w3.org/1999/xlink" id="text-area-7">
		<path d="M92,463v5h5v-2h16v2h5v-5h-2v-16h2v-5h-5v2H97v-2h-5v5h2v16H92z M117,464v3h-3v-3H117z M114,443h3v3h-3V443z M97,445h16v2    h2v16h-2v2H97v-2h-2v-16h2V445z M93,446v-3h3v3H93z M96,464v3h-3v-3H96z"/>
		<path d="M101,450c1,0,3,0,3,0v9c0,0,0,1-1,1s-1,0-1,0v1h3h3v-1c0,0,0,0-1,0s-1-1-1-1v-9c0,0,2,0,3,0s1,2,1,2h1v-3H99v3h1    C100,452,100,450,101,450z"/>
	</g>
	
    </g>
</svg>
