<?xml version="1.0" encoding="iso-8859-1"?>
<!DOCTYPE svg PUBLIC "-//W3C//DTD SVG 1.1//EN" "http://www.w3.org/Graphics/SVG/1.1/DTD/svg11.dtd">
<svg version="1.1" xmlns="http://www.w3.org/2000/svg" xmlns:xlink="http://www.w3.org/1999/xlink" x="0px" y="0px" width="30" height="30" viewBox="0 0 30 30" xml:space="preserve">
    <g transform="translate(-210 -440)">
        <g xmlns="http://www.w3.org/2000/svg" xmlns:xlink="http://www.w3.org/1999/xlink" id="text-select-tick-7">
		<path d="M215,452h1c0,0,0-2,1-2s3,0,3,0v9c0,0,0,1-1,1s-1,0-1,0v1h3h3v-1c0,0,0,0-1,0s-1-1-1-1v-9c0,0,2,0,3,0s1,2,1,2h1v-3h-12    V452z"/>
		<polygon points="211,445 212,445 212,444 210,444 210,446 211,446   "/>
		<polygon points="212,465 211,465 211,464 210,464 210,466 212,466   "/>
		<rect x="210" y="448" width="1" height="2"/>
		<rect x="210" y="452" width="1" height="2"/>
		<rect x="210" y="456" width="1" height="2"/>
		<rect x="210" y="460" width="1" height="2"/>
		<polygon points="232,444 230,444 230,445 231,445 231,446 232,446   "/>
		<rect x="231" y="452" width="1" height="2"/>
		<rect x="231" y="448" width="1" height="2"/>
		<rect x="214" y="465" width="2" height="1"/>
		<rect x="218" y="465" width="2" height="1"/>
		<rect x="222" y="465" width="2" height="1"/>
		<rect x="214" y="444" width="2" height="1"/>
		<rect x="218" y="444" width="2" height="1"/>
		<rect x="222" y="444" width="2" height="1"/>
		<rect x="226" y="444" width="2" height="1"/>
		<path d="M232.5,455c-4.143,0-7.5,3.357-7.5,7.5s3.357,7.5,7.5,7.5s7.5-3.357,7.5-7.5S236.643,455,232.5,455z M232.5,469    c-3.59,0-6.5-2.91-6.5-6.5s2.91-6.5,6.5-6.5s6.5,2.91,6.5,6.5S236.09,469,232.5,469z"/>
		<polygon points="231.086,464.268 228.965,462.146 228.258,462.854 231.086,465.682 236.742,460.025 236.035,459.318   "/>
	</g>
	
    </g>
</svg>
