<?xml version="1.0" encoding="iso-8859-1"?>
<!DOCTYPE svg PUBLIC "-//W3C//DTD SVG 1.1//EN" "http://www.w3.org/Graphics/SVG/1.1/DTD/svg11.dtd">
<svg version="1.1" xmlns="http://www.w3.org/2000/svg" xmlns:xlink="http://www.w3.org/1999/xlink" x="0px" y="0px" width="30" height="30" viewBox="0 0 30 30" xml:space="preserve">
    <g transform="translate(-330 -440)">
        <g xmlns="http://www.w3.org/2000/svg" xmlns:xlink="http://www.w3.org/1999/xlink" id="vector-point-7">
		<path d="M336.691,463H336v5h5v-2h8v2h5v-5h-0.691l2.5-5H359v-5h-3.191l-2.5-5H354v-5h-5v2h-8v-2h-5v5h0.691l-2.5,5H331v5h3.191    L336.691,463z M340,467h-3v-3h3V467z M353,464v3h-3v-3H353z M358,454v3h-3v-3H358z M350,444h3v3h-3V444z M337,447v-3h3v3H337z     M337.809,448H341v-2h8v2h3.191l2.5,5H354v5h0.691l-2.5,5H349v2h-8v-2h-3.191l-2.5-5H336v-5h-0.691L337.809,448z M332,457v-3h3v3    H332z"/>
	</g>
	
    </g>
</svg>
