<?xml version="1.0" encoding="iso-8859-1"?>
<!DOCTYPE svg PUBLIC "-//W3C//DTD SVG 1.1//EN" "http://www.w3.org/Graphics/SVG/1.1/DTD/svg11.dtd">
<svg version="1.1" xmlns="http://www.w3.org/2000/svg" xmlns:xlink="http://www.w3.org/1999/xlink" x="0px" y="0px" width="30" height="30" viewBox="0 0 30 30" xml:space="preserve">
    <g transform="translate(-210 -620)">
        <g xmlns="http://www.w3.org/2000/svg" xmlns:xlink="http://www.w3.org/1999/xlink" id="window-star-7">
		<rect x="219" y="626" width="1" height="1"/>
		<rect x="217" y="626" width="1" height="1"/>
		<rect x="215" y="626" width="1" height="1"/>
		<path d="M237,636.51V624h-24v22h12.869c1.258,2.378,3.753,4,6.631,4c4.143,0,7.5-3.357,7.5-7.5    C240,640.049,238.818,637.878,237,636.51z M214,625h22v3h-22V625z M214,645v-16h22v6.869c-1.045-0.553-2.235-0.869-3.5-0.869    c-4.143,0-7.5,3.357-7.5,7.5c0,0.878,0.158,1.717,0.436,2.5H214z M232.5,649c-3.59,0-6.5-2.91-6.5-6.5s2.91-6.5,6.5-6.5    s6.5,2.91,6.5,6.5S236.09,649,232.5,649z"/>
		<polygon points="233.568,641 232.5,637.785 231.43,641 228,641 230.768,643.078 229.717,646.344 232.5,644.336 235.278,646.344     234.23,643.078 237,641   "/>
	</g>
	
    </g>
</svg>
