<?xml version="1.0" encoding="iso-8859-1"?>
<!DOCTYPE svg PUBLIC "-//W3C//DTD SVG 1.1//EN" "http://www.w3.org/Graphics/SVG/1.1/DTD/svg11.dtd">
<svg version="1.1" xmlns="http://www.w3.org/2000/svg" xmlns:xlink="http://www.w3.org/1999/xlink" x="0px" y="0px" width="30" height="30" viewBox="0 0 30 30" xml:space="preserve">
    <g transform="translate(-30 -440)">
        <g xmlns="http://www.w3.org/2000/svg" xmlns:xlink="http://www.w3.org/1999/xlink" id="character-y-s-7">
		<path d="M45,443c-6.627,0-12,5.373-12,12s5.373,12,12,12s12-5.373,12-12S51.627,443,45,443z M45,466c-6.065,0-11-4.935-11-11    s4.935-11,11-11s11,4.935,11,11S51.065,466,45,466z"/>
		<path d="M44.506,455.852h-0.026L43.959,450h-1.328l0.93,7.109l-0.805,1.203c-0.168,0.213-0.341,0.373-0.519,0.484    s-0.385,0.166-0.626,0.166c-0.119,0-0.231-0.02-0.338-0.055c-0.105-0.039-0.207-0.074-0.309-0.111l-0.289,1.08    c0.117,0.045,0.242,0.076,0.375,0.096c0.135,0.018,0.271,0.027,0.408,0.027c0.268,0,0.508-0.033,0.72-0.104s0.419-0.18,0.62-0.33    c0.203-0.154,0.402-0.35,0.6-0.59c0.199-0.24,0.414-0.535,0.646-0.885L49.324,450H48.08L44.506,455.852z"/>
	</g>
	
    </g>
</svg>
