<?xml version="1.0" encoding="iso-8859-1"?>
<!DOCTYPE svg PUBLIC "-//W3C//DTD SVG 1.1//EN" "http://www.w3.org/Graphics/SVG/1.1/DTD/svg11.dtd">
<svg version="1.1" xmlns="http://www.w3.org/2000/svg" xmlns:xlink="http://www.w3.org/1999/xlink" x="0px" y="0px" width="30" height="30" viewBox="0 0 30 30" xml:space="preserve">
    <g transform="translate(-150 -500)">
        <g xmlns="http://www.w3.org/2000/svg" xmlns:xlink="http://www.w3.org/1999/xlink" id="character-alias-7">
		<path d="M159.772,519.256c0.396,0.542,0.919,0.967,1.569,1.277c0.648,0.311,1.398,0.467,2.244,0.467    c0.514,0,1.033-0.063,1.56-0.186c0.524-0.123,1.038-0.305,1.535-0.546c0.499-0.241,0.976-0.535,1.434-0.884    c0.457-0.347,0.875-0.747,1.251-1.196h-1.011c-0.618,0.59-1.33,1.06-2.138,1.415c-0.807,0.353-1.596,0.528-2.366,0.528    c-0.675,0-1.277-0.13-1.806-0.393c-0.53-0.264-0.962-0.621-1.295-1.076c-0.334-0.456-0.548-0.993-0.644-1.614    c-0.097-0.621-0.048-1.291,0.145-2.008c0.189-0.708,0.493-1.372,0.911-1.992c0.418-0.621,0.91-1.167,1.476-1.639    s1.181-0.844,1.849-1.116c0.668-0.273,1.345-0.41,2.029-0.41c0.568,0,1.085,0.097,1.554,0.289    c0.467,0.193,0.856,0.469,1.167,0.827c0.311,0.359,0.518,0.796,0.621,1.31c0.104,0.515,0.07,1.086-0.099,1.719    c-0.115,0.428-0.302,0.861-0.558,1.301c-0.258,0.439-0.539,0.836-0.85,1.188c-0.309,0.354-0.623,0.644-0.947,0.868    c-0.322,0.226-0.605,0.337-0.853,0.337c-0.257,0-0.341-0.166-0.252-0.497c0.031-0.118,0.086-0.251,0.161-0.394    c0.076-0.146,0.154-0.286,0.235-0.427l2.571-4.563h-1.012l-0.642,1.014c-0.052-0.482-0.213-0.822-0.481-1.021    c-0.268-0.197-0.589-0.297-0.963-0.297c-0.568,0-1.122,0.135-1.658,0.402c-0.537,0.267-1.027,0.615-1.469,1.044    s-0.826,0.915-1.154,1.461c-0.328,0.547-0.567,1.099-0.717,1.655c-0.094,0.353-0.127,0.686-0.098,0.996s0.111,0.577,0.25,0.803    c0.138,0.225,0.33,0.404,0.578,0.539c0.248,0.132,0.543,0.199,0.887,0.199c0.396,0,0.795-0.109,1.197-0.329    c0.4-0.219,0.762-0.468,1.082-0.747h0.049c-0.073,0.353-0.036,0.616,0.111,0.788c0.146,0.171,0.358,0.258,0.637,0.258    c0.375,0,0.812-0.113,1.311-0.338c0.5-0.225,0.992-0.541,1.475-0.948c0.485-0.407,0.929-0.896,1.335-1.471    c0.404-0.571,0.7-1.206,0.887-1.903c0.195-0.728,0.229-1.395,0.103-2c-0.127-0.604-0.381-1.124-0.763-1.558    c-0.383-0.433-0.872-0.772-1.47-1.02c-0.6-0.246-1.268-0.37-2.006-0.37c-0.813,0-1.624,0.156-2.43,0.467    c-0.807,0.312-1.553,0.735-2.238,1.277c-0.685,0.54-1.283,1.173-1.793,1.895c-0.509,0.723-0.874,1.498-1.095,2.32    c-0.229,0.857-0.287,1.652-0.174,2.386C159.121,518.078,159.375,518.716,159.772,519.256z M165.463,516.334    c-0.318,0.348-0.658,0.636-1.02,0.865c-0.361,0.232-0.719,0.348-1.072,0.348c-0.408,0-0.699-0.148-0.878-0.442    s-0.206-0.667-0.087-1.116c0.096-0.354,0.26-0.726,0.492-1.116c0.232-0.392,0.508-0.753,0.821-1.085    c0.313-0.333,0.657-0.608,1.032-0.827c0.375-0.22,0.75-0.328,1.125-0.328c0.171,0,0.322,0.041,0.454,0.128    c0.134,0.086,0.243,0.194,0.329,0.329c0.088,0.134,0.142,0.292,0.163,0.474c0.021,0.183,0.005,0.37-0.046,0.563    c-0.09,0.331-0.251,0.695-0.485,1.092C166.057,515.613,165.78,515.985,165.463,516.334z"/>
		<path d="M165,527c6.627,0,12-5.373,12-12s-5.373-12-12-12s-12,5.373-12,12S158.373,527,165,527z M165,504c6.065,0,11,4.935,11,11    s-4.935,11-11,11s-11-4.935-11-11S158.935,504,165,504z"/>
	</g>
	
    </g>
</svg>
