<?xml version="1.0" encoding="iso-8859-1"?>
<!DOCTYPE svg PUBLIC "-//W3C//DTD SVG 1.1//EN" "http://www.w3.org/Graphics/SVG/1.1/DTD/svg11.dtd">
<svg version="1.1" xmlns="http://www.w3.org/2000/svg" xmlns:xlink="http://www.w3.org/1999/xlink" x="0px" y="0px" width="30" height="30" viewBox="0 0 30 30" xml:space="preserve">
    <g transform="translate(-150 -260)">
        <g xmlns="http://www.w3.org/2000/svg" xmlns:xlink="http://www.w3.org/1999/xlink" id="character-w-7">
		<path d="M165,287c6.627,0,12-5.373,12-12s-5.373-12-12-12s-12,5.373-12,12S158.373,287,165,287z M165,264c6.065,0,11,4.935,11,11    s-4.935,11-11,11s-11-4.935-11-11S158.935,264,165,264z"/>
		<polygon points="165.949,271.596 165.979,271.596 166.01,280 167.396,280 172.751,270 171.42,270 167.16,278.318 167.132,278.318     167.148,270 165.706,270 161.235,278.318 161.207,278.318 161.476,270 160.117,270 160,280 161.387,280   "/>
	</g>
	
    </g>
</svg>
