<?xml version="1.0" encoding="iso-8859-1"?>
<!DOCTYPE svg PUBLIC "-//W3C//DTD SVG 1.1//EN" "http://www.w3.org/Graphics/SVG/1.1/DTD/svg11.dtd">
<svg version="1.1" xmlns="http://www.w3.org/2000/svg" xmlns:xlink="http://www.w3.org/1999/xlink" x="0px" y="0px" width="30" height="30" viewBox="0 0 30 30" xml:space="preserve">
    <g transform="translate(-450 -380)">
        <g xmlns="http://www.w3.org/2000/svg" xmlns:xlink="http://www.w3.org/1999/xlink" id="character-v-s-7">
		<path d="M465,407c6.627,0,12-5.373,12-12s-5.373-12-12-12s-12,5.373-12,12S458.373,407,465,407z M465,384c6.065,0,11,4.935,11,11    s-4.935,11-11,11s-11-4.935-11-11S458.935,384,465,384z"/>
		<polygon points="464,399 469.068,391 467.689,391 463.721,397.669 463.691,397.669 463.234,391 461.764,391 462.592,399   "/>
	</g>
	
    </g>
</svg>
