<?xml version="1.0" encoding="iso-8859-1"?>
<!DOCTYPE svg PUBLIC "-//W3C//DTD SVG 1.1//EN" "http://www.w3.org/Graphics/SVG/1.1/DTD/svg11.dtd">
<svg version="1.1" xmlns="http://www.w3.org/2000/svg" xmlns:xlink="http://www.w3.org/1999/xlink" x="0px" y="0px" width="30" height="30" viewBox="0 0 30 30" xml:space="preserve">
    <g transform="translate(-510 -200)">
        <g xmlns="http://www.w3.org/2000/svg" xmlns:xlink="http://www.w3.org/1999/xlink" id="character-s-7">
		<path d="M525,227c6.627,0,12-5.373,12-12s-5.373-12-12-12s-12,5.373-12,12S518.373,227,525,227z M525,204c6.065,0,11,4.935,11,11    s-4.935,11-11,11s-11-4.935-11-11S518.935,204,525,204z"/>
		<path d="M521.379,219.189c0.288,0.273,0.654,0.475,1.095,0.611c0.442,0.132,0.931,0.2,1.466,0.2c0.438,0,0.891-0.053,1.359-0.154    c0.47-0.103,0.913-0.268,1.332-0.495c0.417-0.229,0.787-0.523,1.112-0.884c0.325-0.36,0.556-0.795,0.692-1.306    c0.126-0.473,0.145-0.864,0.054-1.177c-0.091-0.313-0.253-0.571-0.488-0.776c-0.234-0.205-0.52-0.369-0.854-0.489    s-0.678-0.226-1.033-0.314c-0.354-0.088-0.704-0.171-1.05-0.248c-0.347-0.076-0.649-0.172-0.907-0.287    c-0.26-0.116-0.451-0.267-0.575-0.45c-0.127-0.183-0.149-0.422-0.069-0.716c0.083-0.313,0.212-0.573,0.39-0.783    c0.176-0.209,0.382-0.377,0.616-0.502c0.235-0.125,0.487-0.214,0.761-0.268s0.544-0.079,0.812-0.079    c0.661,0,1.161,0.153,1.504,0.461c0.341,0.307,0.454,0.805,0.342,1.492h1.205c0.123-0.527,0.144-0.98,0.063-1.359    s-0.247-0.694-0.497-0.944c-0.249-0.249-0.568-0.432-0.957-0.549c-0.388-0.115-0.827-0.174-1.318-0.174    c-0.438,0-0.879,0.056-1.324,0.167c-0.445,0.112-0.86,0.282-1.246,0.51c-0.388,0.228-0.725,0.517-1.017,0.87    c-0.29,0.353-0.501,0.769-0.63,1.25c-0.118,0.438-0.128,0.801-0.031,1.091s0.266,0.528,0.506,0.71    c0.241,0.184,0.53,0.33,0.865,0.441c0.336,0.113,0.683,0.211,1.039,0.294c0.356,0.085,0.706,0.167,1.053,0.249    c0.344,0.081,0.644,0.184,0.898,0.314c0.255,0.128,0.443,0.297,0.561,0.501c0.12,0.205,0.135,0.473,0.047,0.805    c-0.093,0.348-0.241,0.632-0.444,0.856c-0.202,0.223-0.437,0.399-0.704,0.528c-0.266,0.13-0.552,0.222-0.855,0.275    c-0.304,0.053-0.6,0.081-0.886,0.081c-0.356,0-0.693-0.045-1.008-0.134c-0.315-0.089-0.574-0.228-0.779-0.416    c-0.204-0.187-0.346-0.425-0.424-0.715c-0.079-0.29-0.063-0.636,0.043-1.037h-1.204c-0.155,0.58-0.186,1.081-0.088,1.505    C520.898,218.57,521.091,218.918,521.379,219.189z"/>
	</g>
	
    </g>
</svg>
