<?xml version="1.0" encoding="iso-8859-1"?>
<!DOCTYPE svg PUBLIC "-//W3C//DTD SVG 1.1//EN" "http://www.w3.org/Graphics/SVG/1.1/DTD/svg11.dtd">
<svg version="1.1" xmlns="http://www.w3.org/2000/svg" xmlns:xlink="http://www.w3.org/1999/xlink" x="0px" y="0px" width="30" height="30" viewBox="0 0 30 30" xml:space="preserve">
    <g transform="translate(-390 -200)">
        <g xmlns="http://www.w3.org/2000/svg" xmlns:xlink="http://www.w3.org/1999/xlink" id="character-q-7">
		<path d="M405,227c6.627,0,12-5.373,12-12s-5.373-12-12-12s-12,5.373-12,12S398.373,227,405,227z M405,204c6.065,0,11,4.935,11,11    s-4.935,11-11,11s-11-4.935-11-11S398.935,204,405,204z"/>
		<path d="M401.959,219.047c0.471,0.256,1.063,0.386,1.779,0.386c0.833,0,1.6-0.177,2.301-0.53l1.082,1.098l0.809-0.756    l-0.936-0.936c0.576-0.454,1.061-0.992,1.455-1.616c0.395-0.622,0.684-1.279,0.869-1.97c0.164-0.615,0.232-1.207,0.203-1.773    c-0.029-0.568-0.164-1.07-0.41-1.509c-0.244-0.438-0.602-0.787-1.07-1.048c-0.469-0.262-1.061-0.393-1.775-0.393    c-0.716,0-1.378,0.131-1.986,0.393c-0.609,0.261-1.152,0.61-1.633,1.048c-0.479,0.438-0.885,0.94-1.219,1.509    c-0.332,0.566-0.582,1.158-0.746,1.773c-0.164,0.614-0.232,1.206-0.203,1.773c0.027,0.569,0.164,1.072,0.409,1.51    S401.489,218.791,401.959,219.047z M401.881,214.723c0.123-0.454,0.301-0.902,0.537-1.344c0.236-0.442,0.527-0.841,0.875-1.194    s0.748-0.638,1.201-0.853c0.453-0.214,0.953-0.32,1.5-0.32c0.548,0,0.99,0.106,1.328,0.32c0.338,0.215,0.586,0.499,0.744,0.853    s0.236,0.752,0.235,1.194c-0.001,0.441-0.062,0.89-0.183,1.344c-0.149,0.556-0.377,1.088-0.681,1.597    c-0.306,0.51-0.683,0.941-1.13,1.295l-0.943-0.96l-0.827,0.732l0.785,0.795c-0.45,0.169-0.889,0.254-1.317,0.254    c-0.548,0-0.99-0.108-1.328-0.322c-0.338-0.216-0.586-0.499-0.744-0.853s-0.236-0.751-0.236-1.193    C401.697,215.626,401.76,215.177,401.881,214.723z"/>
	</g>
	
    </g>
</svg>
