<?xml version="1.0" encoding="iso-8859-1"?>
<!DOCTYPE svg PUBLIC "-//W3C//DTD SVG 1.1//EN" "http://www.w3.org/Graphics/SVG/1.1/DTD/svg11.dtd">
<svg version="1.1" xmlns="http://www.w3.org/2000/svg" xmlns:xlink="http://www.w3.org/1999/xlink" x="0px" y="0px" width="30" height="30" viewBox="0 0 30 30" xml:space="preserve">
    <g transform="translate(-270 -200)">
        <g xmlns="http://www.w3.org/2000/svg" xmlns:xlink="http://www.w3.org/1999/xlink" id="character-o-7">
		<path d="M285,227c6.627,0,12-5.373,12-12s-5.373-12-12-12s-12,5.373-12,12S278.373,227,285,227z M285,204c6.065,0,11,4.935,11,11    s-4.935,11-11,11s-11-4.935-11-11S278.935,204,285,204z"/>
		<path d="M281.777,219.591c0.498,0.271,1.127,0.409,1.886,0.409c0.758,0,1.459-0.138,2.103-0.409    c0.645-0.271,1.221-0.64,1.729-1.104s0.939-0.997,1.293-1.601c0.353-0.602,0.617-1.229,0.791-1.88    c0.174-0.652,0.247-1.28,0.216-1.88c-0.03-0.603-0.175-1.135-0.435-1.6c-0.26-0.463-0.639-0.834-1.135-1.111    c-0.496-0.277-1.125-0.416-1.883-0.416s-1.461,0.139-2.106,0.416c-0.646,0.276-1.222,0.647-1.729,1.111    c-0.508,0.465-0.939,0.997-1.292,1.6c-0.353,0.601-0.617,1.228-0.792,1.88c-0.174,0.651-0.246,1.278-0.216,1.88    c0.03,0.604,0.175,1.137,0.435,1.601S281.279,219.32,281.777,219.591z M281.694,215.007c0.129-0.481,0.318-0.957,0.569-1.425    c0.25-0.469,0.559-0.891,0.928-1.266c0.369-0.375,0.792-0.676,1.272-0.904c0.479-0.227,1.011-0.339,1.591-0.339    s1.049,0.113,1.408,0.339c0.357,0.228,0.621,0.529,0.788,0.904c0.167,0.375,0.251,0.797,0.25,1.266    c-0.001,0.468-0.065,0.943-0.194,1.425s-0.319,0.958-0.57,1.425c-0.25,0.469-0.559,0.891-0.928,1.265    c-0.367,0.375-0.792,0.675-1.272,0.904c-0.479,0.227-1.011,0.342-1.591,0.342s-1.049-0.115-1.407-0.342    c-0.358-0.229-0.621-0.529-0.789-0.904c-0.167-0.375-0.251-0.796-0.25-1.265C281.5,215.964,281.565,215.488,281.694,215.007z"/>
	</g>
	
    </g>
</svg>
