<?xml version="1.0" encoding="iso-8859-1"?>
<!DOCTYPE svg PUBLIC "-//W3C//DTD SVG 1.1//EN" "http://www.w3.org/Graphics/SVG/1.1/DTD/svg11.dtd">
<svg version="1.1" xmlns="http://www.w3.org/2000/svg" xmlns:xlink="http://www.w3.org/1999/xlink" x="0px" y="0px" width="30" height="30" viewBox="0 0 30 30" xml:space="preserve">
    <g transform="translate(-450 -140)">
        <g xmlns="http://www.w3.org/2000/svg" xmlns:xlink="http://www.w3.org/1999/xlink" id="character-h-7">
		<path d="M465,167c6.627,0,12-5.373,12-12s-5.373-12-12-12s-12,5.373-12,12S458.373,167,465,167z M465,144c6.065,0,11,4.935,11,11    s-4.935,11-11,11s-11-4.935-11-11S458.935,144,465,144z"/>
		<polygon points="462.253,155.42 467.52,155.42 466.294,160 467.624,160 470.304,150 468.974,150 467.821,154.3 462.554,154.3     463.707,150 462.376,150 459.696,160 461.026,160   "/>
	</g>
	
    </g>
</svg>
