<?xml version="1.0" encoding="iso-8859-1"?>
<!DOCTYPE svg PUBLIC "-//W3C//DTD SVG 1.1//EN" "http://www.w3.org/Graphics/SVG/1.1/DTD/svg11.dtd">
<svg version="1.1" xmlns="http://www.w3.org/2000/svg" xmlns:xlink="http://www.w3.org/1999/xlink" x="0px" y="0px" width="30" height="30" viewBox="0 0 30 30" xml:space="preserve">
    <g transform="translate(-510 -500)">
        <g xmlns="http://www.w3.org/2000/svg" xmlns:xlink="http://www.w3.org/1999/xlink" id="character-question-7">
		<path d="M523.74,511.634c0.161-0.301,0.359-0.562,0.594-0.782c0.233-0.221,0.5-0.397,0.795-0.527    c0.296-0.131,0.624-0.195,0.986-0.195c0.541,0,0.928,0.156,1.161,0.467c0.232,0.311,0.295,0.742,0.188,1.294    c-0.08,0.372-0.21,0.688-0.39,0.947c-0.18,0.261-0.393,0.501-0.636,0.716c-0.243,0.216-0.499,0.421-0.767,0.616    c-0.27,0.195-0.531,0.408-0.789,0.641c-0.257,0.229-0.493,0.493-0.707,0.789c-0.216,0.296-0.39,0.654-0.521,1.075l-0.189,0.708    h1.279l0.156-0.586c0.07-0.262,0.17-0.495,0.301-0.7c0.131-0.207,0.28-0.396,0.453-0.573c0.172-0.175,0.357-0.339,0.555-0.495    c0.197-0.155,0.396-0.31,0.597-0.46c0.204-0.16,0.407-0.325,0.607-0.495c0.201-0.172,0.39-0.356,0.563-0.558    c0.174-0.2,0.331-0.424,0.473-0.67c0.141-0.246,0.252-0.523,0.336-0.835c0.129-0.481,0.166-0.907,0.109-1.278    c-0.056-0.371-0.189-0.686-0.402-0.94c-0.212-0.256-0.494-0.451-0.844-0.588c-0.35-0.135-0.76-0.203-1.232-0.203    c-0.521,0-1.016,0.09-1.486,0.271c-0.471,0.181-0.895,0.435-1.271,0.76c-0.379,0.326-0.705,0.71-0.979,1.15    c-0.273,0.442-0.475,0.919-0.601,1.431h1.278C523.452,512.262,523.579,511.935,523.74,511.634z"/>
		<polygon points="522.552,520 524.223,520 524.67,518.33 523,518.33   "/>
		<path d="M525,527c6.627,0,12-5.373,12-12s-5.373-12-12-12s-12,5.373-12,12S518.373,527,525,527z M525,504c6.065,0,11,4.935,11,11    s-4.935,11-11,11s-11-4.935-11-11S518.935,504,525,504z"/>
	</g>
	
    </g>
</svg>
