<?xml version="1.0" encoding="iso-8859-1"?>
<!DOCTYPE svg PUBLIC "-//W3C//DTD SVG 1.1//EN" "http://www.w3.org/Graphics/SVG/1.1/DTD/svg11.dtd">
<svg version="1.1" xmlns="http://www.w3.org/2000/svg" xmlns:xlink="http://www.w3.org/1999/xlink" x="0px" y="0px" width="30" height="30" viewBox="0 0 30 30" xml:space="preserve">
    <g transform="translate(-90 -560)">
        <g xmlns="http://www.w3.org/2000/svg" xmlns:xlink="http://www.w3.org/1999/xlink" id="character-greater-than-7">
		<path d="M105,587c6.627,0,12-5.373,12-12s-5.373-12-12-12s-12,5.373-12,12S98.373,587,105,587z M105,564c6.065,0,11,4.935,11,11    s-4.935,11-11,11s-11-4.935-11-11S98.935,564,105,564z"/>
		<polygon points="109.083,574.564 103.062,571 102.782,572.038 107.917,574.985 107.908,575.016 101.195,577.962 100.917,579     108.853,575.421   "/>
	</g>
	
    </g>
</svg>
