<?xml version="1.0" encoding="iso-8859-1"?>
<!DOCTYPE svg PUBLIC "-//W3C//DTD SVG 1.1//EN" "http://www.w3.org/Graphics/SVG/1.1/DTD/svg11.dtd">
<svg version="1.1" xmlns="http://www.w3.org/2000/svg" xmlns:xlink="http://www.w3.org/1999/xlink" x="0px" y="0px" width="30" height="30" viewBox="0 0 30 30" xml:space="preserve">
    <g transform="translate(-390 -500)">
        <g xmlns="http://www.w3.org/2000/svg" xmlns:xlink="http://www.w3.org/1999/xlink" id="character-and-7">
		<path d="M401.376,519.697c0.349,0.202,0.854,0.303,1.518,0.303c0.543,0,1.1-0.114,1.671-0.345    c0.572-0.229,1.068-0.575,1.485-1.035l0.719,1.38h1.531l-1.323-2.371c0.162-0.222,0.302-0.417,0.42-0.588    c0.119-0.169,0.227-0.342,0.324-0.516c0.098-0.175,0.19-0.366,0.277-0.573c0.089-0.207,0.186-0.457,0.292-0.752h-1.118    c-0.162,0.506-0.405,1.016-0.728,1.531l-1.198-2.165c0.275-0.139,0.548-0.292,0.813-0.462c0.267-0.171,0.516-0.361,0.746-0.573    c0.231-0.211,0.432-0.443,0.601-0.696c0.171-0.254,0.293-0.526,0.372-0.821c0.087-0.33,0.101-0.622,0.035-0.875    c-0.066-0.253-0.187-0.464-0.36-0.635c-0.177-0.17-0.397-0.296-0.665-0.38c-0.268-0.082-0.554-0.124-0.856-0.124    c-0.358,0-0.691,0.056-0.996,0.166c-0.306,0.11-0.578,0.26-0.816,0.447c-0.238,0.189-0.439,0.405-0.602,0.649    s-0.278,0.498-0.35,0.766c-0.067,0.248-0.098,0.472-0.091,0.669c0.008,0.197,0.04,0.386,0.098,0.564    c0.058,0.18,0.127,0.357,0.209,0.532c0.082,0.174,0.166,0.358,0.253,0.551c-0.356,0.166-0.7,0.343-1.033,0.531    c-0.329,0.188-0.631,0.4-0.9,0.635c-0.269,0.234-0.506,0.499-0.709,0.793c-0.202,0.294-0.355,0.634-0.459,1.021    c-0.055,0.202-0.089,0.456-0.1,0.759c-0.013,0.303,0.054,0.598,0.197,0.884C400.776,519.251,401.023,519.495,401.376,519.697z     M404.325,512.083c0.098-0.358,0.285-0.623,0.571-0.793c0.284-0.17,0.565-0.255,0.841-0.255c0.349,0,0.598,0.104,0.743,0.31    c0.148,0.208,0.184,0.454,0.106,0.738c-0.057,0.211-0.148,0.402-0.276,0.572c-0.13,0.17-0.276,0.325-0.441,0.462    c-0.166,0.138-0.343,0.263-0.528,0.372c-0.186,0.111-0.359,0.213-0.522,0.305c-0.073-0.139-0.146-0.275-0.219-0.414    c-0.074-0.139-0.138-0.278-0.191-0.421s-0.092-0.287-0.112-0.435C404.276,512.377,404.285,512.23,404.325,512.083z     M401.78,517.311c0.078-0.294,0.192-0.549,0.343-0.765c0.148-0.216,0.326-0.413,0.529-0.586c0.203-0.176,0.427-0.332,0.67-0.47    c0.245-0.139,0.499-0.272,0.764-0.399l1.533,2.716c-0.335,0.359-0.708,0.645-1.118,0.855c-0.411,0.212-0.842,0.317-1.294,0.317    c-0.237,0-0.459-0.041-0.661-0.125c-0.204-0.082-0.373-0.195-0.511-0.337c-0.137-0.143-0.229-0.317-0.279-0.524    S401.714,517.559,401.78,517.311z"/>
		<path d="M405,527c6.627,0,12-5.373,12-12s-5.373-12-12-12s-12,5.373-12,12S398.373,527,405,527z M405,504c6.065,0,11,4.935,11,11    s-4.935,11-11,11s-11-4.935-11-11S398.935,504,405,504z"/>
	</g>
	
    </g>
</svg>
