<?xml version="1.0" encoding="iso-8859-1"?>
<!DOCTYPE svg PUBLIC "-//W3C//DTD SVG 1.1//EN" "http://www.w3.org/Graphics/SVG/1.1/DTD/svg11.dtd">
<svg version="1.1" xmlns="http://www.w3.org/2000/svg" xmlns:xlink="http://www.w3.org/1999/xlink" x="0px" y="0px" width="30" height="30" viewBox="0 0 30 30" xml:space="preserve">
    <g transform="translate(-450 -260)">
        <g xmlns="http://www.w3.org/2000/svg" xmlns:xlink="http://www.w3.org/1999/xlink" id="character-b-s-7">
		<path d="M465,287c6.627,0,12-5.373,12-12s-5.373-12-12-12s-12,5.373-12,12S458.373,287,465,287z M465,264c6.065,0,11,4.935,11,11    s-4.935,11-11,11s-11-4.935-11-11S458.935,264,465,264z"/>
		<path d="M462.482,278.896h0.028c0.071,0.212,0.183,0.39,0.333,0.531c0.15,0.144,0.321,0.256,0.51,0.339    c0.188,0.082,0.386,0.141,0.593,0.178c0.206,0.037,0.397,0.056,0.572,0.056c0.541,0,1.044-0.097,1.505-0.29    s0.873-0.458,1.232-0.792c0.36-0.337,0.67-0.729,0.923-1.18c0.255-0.45,0.45-0.929,0.585-1.435    c0.135-0.507,0.195-0.984,0.178-1.435c-0.019-0.45-0.114-0.848-0.294-1.193c-0.18-0.345-0.446-0.618-0.802-0.821    c-0.354-0.201-0.809-0.304-1.359-0.304c-0.497,0-0.976,0.09-1.438,0.27c-0.462,0.18-0.842,0.467-1.14,0.862h-0.028l0.986-3.683    h-1.172l-2.639,9.849h1.173L462.482,278.896z M463.144,276.275c0.089-0.33,0.214-0.657,0.38-0.979    c0.164-0.32,0.366-0.607,0.61-0.861c0.242-0.254,0.521-0.458,0.841-0.614c0.316-0.156,0.673-0.234,1.068-0.234    c0.377,0,0.687,0.074,0.927,0.221c0.243,0.147,0.418,0.345,0.532,0.593c0.112,0.248,0.17,0.531,0.173,0.849    c0.001,0.317-0.041,0.641-0.13,0.974c-0.095,0.348-0.223,0.688-0.384,1.019c-0.163,0.333-0.361,0.627-0.595,0.884    c-0.236,0.257-0.51,0.465-0.822,0.621c-0.313,0.157-0.674,0.234-1.077,0.234c-0.404,0-0.729-0.075-0.973-0.228    s-0.424-0.352-0.536-0.6c-0.112-0.249-0.168-0.537-0.162-0.862C463.001,276.963,463.05,276.625,463.144,276.275z"/>
	</g>
	
    </g>
</svg>
