<?xml version="1.0" encoding="iso-8859-1"?>
<!DOCTYPE svg PUBLIC "-//W3C//DTD SVG 1.1//EN" "http://www.w3.org/Graphics/SVG/1.1/DTD/svg11.dtd">
<svg version="1.1" xmlns="http://www.w3.org/2000/svg" xmlns:xlink="http://www.w3.org/1999/xlink" x="0px" y="0px" width="30" height="30" viewBox="0 0 30 30" xml:space="preserve">
    <g transform="translate(-270 -560)">
        <g xmlns="http://www.w3.org/2000/svg" xmlns:xlink="http://www.w3.org/1999/xlink" id="character-pi-7">
		<path d="M285,587c6.627,0,12-5.373,12-12s-5.373-12-12-12s-12,5.373-12,12S278.373,587,285,587z M285,564c6.065,0,11,4.935,11,11    s-4.935,11-11,11s-11-4.935-11-11S278.935,564,285,564z"/>
		<path d="M282.562,572.123c-0.049,2.133-0.512,5.306-1.107,6.877h1.372c0.579-1.322,1.058-4.762,1.124-6.877h2.612v4.645    c0,1.273,0.115,1.984,0.264,2.232h1.389c-0.115-0.414-0.215-1.075-0.215-2.381v-4.496h1.107l0.148-1.123h-6.214    c-1.29,0-1.935,0.164-2.298,0.413l0.198,0.858C281.355,572.173,281.917,572.123,282.562,572.123z"/>
	</g>
	
    </g>
</svg>
