<?xml version="1.0" encoding="iso-8859-1"?>
<!DOCTYPE svg PUBLIC "-//W3C//DTD SVG 1.1//EN" "http://www.w3.org/Graphics/SVG/1.1/DTD/svg11.dtd">
<svg version="1.1" xmlns="http://www.w3.org/2000/svg" xmlns:xlink="http://www.w3.org/1999/xlink" x="0px" y="0px" width="30" height="30" viewBox="0 0 30 30" xml:space="preserve">
    <g transform="translate(-330 -320)">
        <g xmlns="http://www.w3.org/2000/svg" xmlns:xlink="http://www.w3.org/1999/xlink" id="character-j-s-7">
		<path d="M345,347c6.627,0,12-5.373,12-12s-5.373-12-12-12s-12,5.373-12,12S338.373,347,345,347z M345,324c6.065,0,11,4.935,11,11    s-4.935,11-11,11s-11-4.935-11-11S338.935,324,345,324z"/>
		<polygon points="347.027,329 346,329 345.664,330.256 346.689,330.256   "/>
		<path d="M343.777,339.619c0.337-0.254,0.581-0.658,0.729-1.213l1.883-7.028h-1.025l-1.838,6.859    c-0.086,0.321-0.187,0.544-0.301,0.67c-0.113,0.124-0.282,0.187-0.509,0.187h-0.217c-0.032,0-0.063-0.002-0.09-0.006    c-0.026-0.004-0.059-0.01-0.097-0.018l-0.236,0.881c0.152,0.032,0.321,0.049,0.506,0.049    C343.041,340,343.439,339.872,343.777,339.619z"/>
	</g>
	
    </g>
</svg>
