<?xml version="1.0" encoding="iso-8859-1"?>
<!DOCTYPE svg PUBLIC "-//W3C//DTD SVG 1.1//EN" "http://www.w3.org/Graphics/SVG/1.1/DTD/svg11.dtd">
<svg version="1.1" xmlns="http://www.w3.org/2000/svg" xmlns:xlink="http://www.w3.org/1999/xlink" x="0px" y="0px" width="30" height="30" viewBox="0 0 30 30" xml:space="preserve">
    <g transform="translate(-30 -380)">
        <g xmlns="http://www.w3.org/2000/svg" xmlns:xlink="http://www.w3.org/1999/xlink" id="character-o-s-7">
		<path d="M45,383c-6.627,0-12,5.373-12,12s5.373,12,12,12s12-5.373,12-12S51.627,383,45,383z M45,406c-6.065,0-11-4.935-11-11    s4.935-11,11-11s11,4.935,11,11S51.065,406,45,406z"/>
		<path d="M47.6,391.311c-0.404-0.207-0.913-0.311-1.525-0.311c-0.602,0-1.162,0.104-1.684,0.311    c-0.518,0.207-0.986,0.492-1.398,0.854c-0.412,0.359-0.764,0.783-1.051,1.273c-0.29,0.488-0.51,1.016-0.661,1.576    c-0.151,0.564-0.212,1.088-0.183,1.572c0.028,0.482,0.151,0.906,0.371,1.266c0.219,0.361,0.533,0.643,0.943,0.844    c0.41,0.203,0.916,0.305,1.518,0.305c0.613,0,1.178-0.102,1.691-0.305c0.514-0.201,0.975-0.482,1.389-0.844    c0.412-0.359,0.762-0.783,1.051-1.266c0.287-0.484,0.506-1.008,0.657-1.572c0.151-0.561,0.214-1.088,0.186-1.576    c-0.027-0.49-0.15-0.914-0.37-1.273C48.314,391.803,48.003,391.518,47.6,391.311z M47.385,395.014    c-0.125,0.467-0.297,0.879-0.518,1.238c-0.219,0.361-0.471,0.662-0.752,0.904c-0.283,0.242-0.588,0.426-0.913,0.555    s-0.652,0.193-0.978,0.193c-0.326,0-0.617-0.064-0.875-0.193c-0.256-0.129-0.461-0.313-0.613-0.555    c-0.151-0.242-0.243-0.543-0.269-0.904c-0.028-0.359,0.021-0.771,0.146-1.238c0.126-0.463,0.297-0.875,0.518-1.236    c0.219-0.359,0.472-0.664,0.755-0.91c0.283-0.248,0.589-0.436,0.913-0.563c0.326-0.129,0.652-0.193,0.979-0.193    c0.325,0,0.617,0.064,0.874,0.193c0.257,0.127,0.46,0.314,0.611,0.563c0.151,0.246,0.241,0.551,0.268,0.91    C47.557,394.139,47.509,394.551,47.385,395.014z"/>
	</g>
	
    </g>
</svg>
