<?xml version="1.0" encoding="iso-8859-1"?>
<!DOCTYPE svg PUBLIC "-//W3C//DTD SVG 1.1//EN" "http://www.w3.org/Graphics/SVG/1.1/DTD/svg11.dtd">
<svg version="1.1" xmlns="http://www.w3.org/2000/svg" xmlns:xlink="http://www.w3.org/1999/xlink" x="0px" y="0px" width="30" height="30" viewBox="0 0 30 30" xml:space="preserve">
    <g transform="translate(-450 -200)">
        <g xmlns="http://www.w3.org/2000/svg" xmlns:xlink="http://www.w3.org/1999/xlink" id="character-r-7">
		<path d="M465,227c6.627,0,12-5.373,12-12s-5.373-12-12-12s-12,5.373-12,12S458.373,227,465,227z M465,204c6.065,0,11,4.935,11,11    s-4.935,11-11,11s-11-4.935-11-11S458.935,204,465,204z"/>
		<path d="M462.557,215.728h3.25c0.327,0,0.574,0.05,0.746,0.147c0.169,0.097,0.292,0.229,0.37,0.392    c0.078,0.165,0.115,0.355,0.112,0.574c-0.003,0.219-0.018,0.452-0.045,0.693c-0.019,0.244-0.058,0.49-0.115,0.743    c-0.059,0.251-0.112,0.488-0.162,0.707c-0.049,0.219-0.081,0.418-0.097,0.596c-0.014,0.178,0.011,0.317,0.077,0.42h1.484    c-0.095-0.168-0.147-0.362-0.158-0.582c-0.013-0.22-0.005-0.45,0.023-0.692s0.071-0.492,0.129-0.743    c0.059-0.252,0.11-0.499,0.157-0.743c0.037-0.241,0.061-0.477,0.068-0.7c0.01-0.223-0.017-0.427-0.075-0.609    s-0.16-0.339-0.308-0.469c-0.147-0.131-0.357-0.224-0.633-0.28l0.007-0.027c0.652-0.169,1.178-0.481,1.575-0.939    c0.398-0.458,0.678-0.99,0.841-1.597c0.219-0.813,0.121-1.452-0.291-1.918c-0.411-0.467-1.094-0.7-2.046-0.7h-4.706l-2.679,10    h1.33L462.557,215.728z M463.792,211.119h3.307c0.625,0,1.035,0.16,1.23,0.477c0.195,0.318,0.226,0.728,0.09,1.233    c-0.099,0.364-0.24,0.661-0.428,0.889c-0.187,0.229-0.404,0.411-0.65,0.546c-0.247,0.136-0.516,0.227-0.808,0.272    c-0.294,0.049-0.594,0.072-0.901,0.072h-2.773L463.792,211.119z"/>
	</g>
	
    </g>
</svg>
