<?xml version="1.0" encoding="iso-8859-1"?>
<!DOCTYPE svg PUBLIC "-//W3C//DTD SVG 1.1//EN" "http://www.w3.org/Graphics/SVG/1.1/DTD/svg11.dtd">
<svg version="1.1" xmlns="http://www.w3.org/2000/svg" xmlns:xlink="http://www.w3.org/1999/xlink" x="0px" y="0px" width="30" height="30" viewBox="0 0 30 30" xml:space="preserve">
    <g transform="translate(-270 -380)">
        <g xmlns="http://www.w3.org/2000/svg" xmlns:xlink="http://www.w3.org/1999/xlink" id="character-s-s-7">
		<path d="M285,407c6.627,0,12-5.373,12-12s-5.373-12-12-12s-12,5.373-12,12S278.373,407,285,407z M285,384c6.065,0,11,4.935,11,11    s-4.935,11-11,11s-11-4.935-11-11S278.935,384,285,384z"/>
		<path d="M281.99,398.431c0.242,0.202,0.544,0.348,0.906,0.438c0.359,0.089,0.753,0.132,1.178,0.132    c0.385,0,0.783-0.036,1.193-0.11c0.41-0.075,0.795-0.205,1.157-0.394c0.36-0.187,0.679-0.434,0.952-0.74    c0.275-0.306,0.475-0.691,0.601-1.154c0.097-0.367,0.108-0.673,0.03-0.919c-0.076-0.247-0.21-0.452-0.398-0.615    c-0.189-0.164-0.42-0.294-0.695-0.393s-0.56-0.184-0.858-0.252c-0.277-0.069-0.556-0.137-0.835-0.199    c-0.279-0.065-0.523-0.145-0.736-0.238c-0.212-0.093-0.375-0.213-0.49-0.354c-0.113-0.144-0.143-0.323-0.084-0.54    c0.053-0.198,0.146-0.359,0.277-0.482c0.133-0.123,0.287-0.222,0.465-0.297c0.178-0.074,0.367-0.125,0.566-0.155    c0.201-0.03,0.396-0.045,0.582-0.045c0.208,0,0.406,0.021,0.598,0.067c0.189,0.044,0.356,0.116,0.499,0.215    c0.14,0.099,0.243,0.229,0.309,0.394c0.065,0.161,0.075,0.366,0.028,0.614h1.26c0.094-0.465,0.098-0.854,0.014-1.164    c-0.084-0.312-0.242-0.558-0.475-0.74s-0.521-0.312-0.867-0.385c-0.346-0.074-0.736-0.112-1.17-0.112    c-0.336,0-0.686,0.043-1.049,0.127c-0.362,0.084-0.703,0.213-1.021,0.384c-0.318,0.174-0.602,0.398-0.848,0.676    c-0.248,0.275-0.422,0.607-0.525,0.992c-0.132,0.493-0.111,0.879,0.063,1.156c0.171,0.275,0.422,0.49,0.752,0.644    c0.329,0.153,0.699,0.272,1.111,0.355s0.79,0.178,1.133,0.281c0.344,0.104,0.614,0.24,0.816,0.407    c0.201,0.169,0.26,0.415,0.173,0.74c-0.065,0.239-0.176,0.433-0.335,0.586c-0.16,0.153-0.342,0.271-0.545,0.349    c-0.205,0.078-0.42,0.134-0.645,0.163c-0.227,0.028-0.438,0.044-0.634,0.044c-0.258,0-0.5-0.025-0.728-0.073    c-0.229-0.051-0.425-0.132-0.588-0.246c-0.161-0.113-0.275-0.265-0.344-0.458c-0.066-0.193-0.066-0.427-0.004-0.704h-1.26    c-0.107,0.475-0.115,0.876-0.025,1.208C281.583,397.961,281.749,398.229,281.99,398.431z"/>
	</g>
	
    </g>
</svg>
