<?xml version="1.0" encoding="iso-8859-1"?>
<!DOCTYPE svg PUBLIC "-//W3C//DTD SVG 1.1//EN" "http://www.w3.org/Graphics/SVG/1.1/DTD/svg11.dtd">
<svg version="1.1" xmlns="http://www.w3.org/2000/svg" xmlns:xlink="http://www.w3.org/1999/xlink" x="0px" y="0px" width="30" height="30" viewBox="0 0 30 30" xml:space="preserve">
    <g transform="translate(-510 -320)">
        <g xmlns="http://www.w3.org/2000/svg" xmlns:xlink="http://www.w3.org/1999/xlink" id="character-m-s-7">
		<path d="M525,347c6.627,0,12-5.373,12-12s-5.373-12-12-12s-12,5.373-12,12S518.373,347,525,347z M525,324c6.065,0,11,4.935,11,11    s-4.935,11-11,11s-11-4.935-11-11S518.935,324,525,324z"/>
		<path d="M521.284,334.131c0.04-0.15,0.128-0.34,0.266-0.566c0.135-0.228,0.314-0.446,0.539-0.658    c0.223-0.212,0.487-0.393,0.796-0.545c0.307-0.15,0.647-0.227,1.021-0.227c0.293,0,0.521,0.043,0.684,0.128    c0.164,0.086,0.28,0.207,0.35,0.364c0.069,0.155,0.098,0.34,0.087,0.551c-0.013,0.212-0.052,0.443-0.118,0.697L523.533,339h1.285    l1.305-4.869c0.162-0.605,0.473-1.088,0.933-1.452c0.46-0.362,1.009-0.544,1.645-0.544c0.313,0,0.555,0.045,0.726,0.137    c0.173,0.09,0.293,0.214,0.363,0.37c0.069,0.156,0.095,0.34,0.077,0.552c-0.016,0.211-0.057,0.438-0.12,0.682L528.372,339h1.285    l1.536-5.73c0.108-0.404,0.138-0.749,0.089-1.036c-0.05-0.288-0.163-0.522-0.342-0.704c-0.178-0.18-0.414-0.314-0.71-0.4    c-0.293-0.085-0.638-0.129-1.031-0.129c-0.515,0-1.017,0.117-1.506,0.35c-0.491,0.231-0.925,0.559-1.3,0.981    c-0.032-0.483-0.217-0.826-0.557-1.028c-0.339-0.202-0.75-0.303-1.235-0.303c-1.098,0-2.059,0.444-2.881,1.331h-0.031l0.308-1.149    h-1.208L518.694,339h1.285L521.284,334.131z"/>
	</g>
	
    </g>
</svg>
