<?xml version="1.0" encoding="iso-8859-1"?>
<!DOCTYPE svg PUBLIC "-//W3C//DTD SVG 1.1//EN" "http://www.w3.org/Graphics/SVG/1.1/DTD/svg11.dtd">
<svg version="1.1" xmlns="http://www.w3.org/2000/svg" xmlns:xlink="http://www.w3.org/1999/xlink" x="0px" y="0px" width="30" height="30" viewBox="0 0 30 30" xml:space="preserve">
    <g transform="translate(-90 -380)">
        <g xmlns="http://www.w3.org/2000/svg" xmlns:xlink="http://www.w3.org/1999/xlink" id="character-p-s-7">
		<path d="M105,407c6.627,0,12-5.373,12-12s-5.373-12-12-12s-12,5.373-12,12S98.373,407,105,407z M105,384c6.065,0,11,4.935,11,11    s-4.935,11-11,11s-11-4.935-11-11S98.935,384,105,384z"/>
		<path d="M102.85,396.336h0.028c0.071,0.213,0.182,0.389,0.333,0.531c0.148,0.143,0.319,0.254,0.508,0.338    c0.189,0.082,0.387,0.141,0.593,0.178c0.205,0.037,0.396,0.055,0.571,0.055c0.541,0,1.042-0.096,1.504-0.289    c0.459-0.191,0.869-0.457,1.23-0.791c0.359-0.336,0.668-0.729,0.922-1.178c0.253-0.449,0.448-0.928,0.582-1.434    c0.137-0.504,0.195-0.982,0.178-1.432c-0.017-0.449-0.114-0.846-0.293-1.191c-0.18-0.344-0.445-0.617-0.8-0.82    c-0.354-0.201-0.808-0.303-1.357-0.303c-0.497,0-0.976,0.09-1.437,0.268c-0.461,0.18-0.842,0.467-1.14,0.861h-0.026l0.258-0.963    h-1.171L100.697,400h1.172L102.85,396.336z M103.51,393.719c0.088-0.33,0.215-0.656,0.379-0.977    c0.164-0.322,0.367-0.609,0.61-0.861c0.242-0.254,0.521-0.457,0.839-0.613c0.316-0.156,0.672-0.234,1.068-0.234    c0.375,0,0.684,0.074,0.926,0.221c0.24,0.146,0.416,0.344,0.529,0.592c0.112,0.248,0.171,0.529,0.173,0.848    c0.003,0.316-0.04,0.641-0.13,0.971c-0.093,0.348-0.222,0.689-0.383,1.02c-0.162,0.33-0.36,0.625-0.595,0.881    c-0.234,0.258-0.508,0.465-0.82,0.621c-0.312,0.156-0.671,0.234-1.075,0.234s-0.728-0.076-0.972-0.229    c-0.245-0.15-0.423-0.352-0.536-0.598c-0.111-0.25-0.166-0.537-0.161-0.861C103.367,394.406,103.416,394.068,103.51,393.719z"/>
	</g>
	
    </g>
</svg>
