<?xml version="1.0" encoding="iso-8859-1"?>
<!DOCTYPE svg PUBLIC "-//W3C//DTD SVG 1.1//EN" "http://www.w3.org/Graphics/SVG/1.1/DTD/svg11.dtd">
<svg version="1.1" xmlns="http://www.w3.org/2000/svg" xmlns:xlink="http://www.w3.org/1999/xlink" x="0px" y="0px" width="30" height="30" viewBox="0 0 30 30" xml:space="preserve">
    <g transform="translate(-390 -140)">
        <g xmlns="http://www.w3.org/2000/svg" xmlns:xlink="http://www.w3.org/1999/xlink" id="character-g-7">
		<path d="M405,167c6.627,0,12-5.373,12-12s-5.373-12-12-12s-12,5.373-12,12S398.373,167,405,167z M405,144c6.065,0,11,4.935,11,11    s-4.935,11-11,11s-11-4.935-11-11S398.935,144,405,144z"/>
		<path d="M401.937,159.604c0.491,0.263,1.095,0.396,1.81,0.396c0.563,0,1.148-0.11,1.761-0.329    c0.611-0.218,1.172-0.577,1.681-1.076l0.016,1.191h0.803l1.349-5.034h-4.19l-0.287,1.072h3.053    c-0.1,0.437-0.266,0.845-0.501,1.225c-0.236,0.379-0.523,0.709-0.863,0.991c-0.338,0.281-0.721,0.501-1.147,0.663    c-0.427,0.16-0.89,0.241-1.389,0.241c-0.536,0-0.979-0.106-1.329-0.315c-0.35-0.209-0.616-0.49-0.798-0.843    c-0.183-0.353-0.283-0.758-0.303-1.218c-0.02-0.459,0.037-0.939,0.17-1.439c0.138-0.509,0.334-1.005,0.589-1.494    c0.255-0.486,0.565-0.918,0.93-1.298c0.365-0.379,0.787-0.685,1.264-0.917c0.478-0.232,1.005-0.348,1.587-0.348    c0.356,0,0.682,0.042,0.976,0.126c0.295,0.085,0.543,0.212,0.748,0.381c0.204,0.17,0.355,0.387,0.455,0.649    c0.099,0.263,0.131,0.578,0.096,0.943h1.271c0.062-0.562,0.022-1.041-0.115-1.438c-0.14-0.396-0.355-0.726-0.647-0.985    c-0.292-0.258-0.651-0.448-1.078-0.569c-0.428-0.12-0.9-0.181-1.418-0.181c-0.759,0-1.459,0.142-2.102,0.423    c-0.643,0.281-1.216,0.658-1.721,1.131c-0.508,0.473-0.94,1.023-1.301,1.653c-0.36,0.629-0.635,1.291-0.819,1.987    c-0.168,0.625-0.227,1.227-0.177,1.808c0.049,0.581,0.21,1.092,0.483,1.539C401.062,158.987,401.445,159.342,401.937,159.604z"/>
	</g>
	
    </g>
</svg>
