<?xml version="1.0" encoding="iso-8859-1"?>
<!DOCTYPE svg PUBLIC "-//W3C//DTD SVG 1.1//EN" "http://www.w3.org/Graphics/SVG/1.1/DTD/svg11.dtd">
<svg version="1.1" xmlns="http://www.w3.org/2000/svg" xmlns:xlink="http://www.w3.org/1999/xlink" x="0px" y="0px" width="30" height="30" viewBox="0 0 30 30" xml:space="preserve">
    <g transform="translate(-390 -260)">
        <g xmlns="http://www.w3.org/2000/svg" xmlns:xlink="http://www.w3.org/1999/xlink" id="character-a-s-7">
		<path d="M405,287c6.627,0,12-5.373,12-12s-5.373-12-12-12s-12,5.373-12,12S398.373,287,405,287z M405,264c6.065,0,11,4.935,11,11    s-4.935,11-11,11s-11-4.935-11-11S398.935,264,405,264z"/>
		<path d="M401.592,278.52c0.187,0.172,0.422,0.295,0.709,0.37c0.287,0.074,0.603,0.11,0.947,0.11c0.533,0,1.054-0.092,1.563-0.273    s0.991-0.481,1.447-0.896c-0.111,0.414-0.095,0.714,0.049,0.896s0.379,0.273,0.706,0.273c0.384,0,0.702-0.063,0.954-0.192    l0.262-0.977c-0.161,0.048-0.296,0.073-0.405,0.073c-0.197,0-0.295-0.068-0.293-0.207c0.003-0.139,0.044-0.356,0.123-0.652    l1.057-3.94c0.119-0.444,0.133-0.806,0.038-1.082c-0.094-0.275-0.259-0.491-0.494-0.645c-0.236-0.153-0.517-0.254-0.845-0.304    c-0.327-0.049-0.664-0.074-1.01-0.074c-0.424,0-0.841,0.046-1.251,0.134c-0.409,0.089-0.788,0.234-1.138,0.438    c-0.352,0.202-0.659,0.467-0.924,0.792c-0.266,0.326-0.472,0.727-0.619,1.199h1.261c0.18-0.562,0.475-0.945,0.885-1.147    s0.881-0.304,1.415-0.304c0.196,0,0.394,0.015,0.589,0.045c0.192,0.029,0.36,0.089,0.499,0.177    c0.14,0.089,0.238,0.219,0.297,0.386c0.06,0.169,0.052,0.391-0.022,0.667c-0.063,0.237-0.181,0.417-0.352,0.541    c-0.173,0.123-0.386,0.217-0.64,0.281c-0.254,0.063-0.542,0.114-0.861,0.148c-0.321,0.033-0.663,0.087-1.027,0.155    c-0.342,0.059-0.682,0.134-1.016,0.222c-0.335,0.089-0.647,0.221-0.934,0.394c-0.29,0.172-0.544,0.396-0.768,0.674    c-0.222,0.277-0.391,0.632-0.506,1.065c-0.104,0.386-0.126,0.714-0.065,0.986S401.406,278.347,401.592,278.52z M402.645,276.778    c0.084-0.316,0.223-0.565,0.414-0.749c0.192-0.182,0.415-0.323,0.67-0.422c0.253-0.099,0.529-0.17,0.827-0.215    c0.299-0.044,0.593-0.084,0.885-0.118c0.29-0.034,0.571-0.079,0.843-0.134c0.271-0.054,0.501-0.141,0.69-0.259l-0.345,1.289    c-0.048,0.177-0.144,0.367-0.286,0.57c-0.143,0.202-0.331,0.391-0.565,0.563c-0.234,0.173-0.515,0.317-0.841,0.431    c-0.327,0.113-0.698,0.17-1.113,0.17c-0.187,0-0.367-0.021-0.539-0.059c-0.173-0.04-0.313-0.104-0.423-0.193    s-0.187-0.205-0.232-0.349S402.589,276.985,402.645,276.778z"/>
	</g>
	
    </g>
</svg>
