<?xml version="1.0" encoding="iso-8859-1"?>
<!DOCTYPE svg PUBLIC "-//W3C//DTD SVG 1.1//EN" "http://www.w3.org/Graphics/SVG/1.1/DTD/svg11.dtd">
<svg version="1.1" xmlns="http://www.w3.org/2000/svg" xmlns:xlink="http://www.w3.org/1999/xlink" x="0px" y="0px" width="30" height="30" viewBox="0 0 30 30" xml:space="preserve">
    <g transform="translate(-210 -140)">
        <g xmlns="http://www.w3.org/2000/svg" xmlns:xlink="http://www.w3.org/1999/xlink" id="character-d-7">
		<path d="M225,167c6.627,0,12-5.373,12-12s-5.373-12-12-12s-12,5.373-12,12S218.373,167,225,167z M225,144c6.065,0,11,4.935,11,11    s-4.935,11-11,11s-11-4.935-11-11S218.935,144,225,144z"/>
		<path d="M225.973,159.65c0.67-0.234,1.26-0.572,1.771-1.016c0.51-0.443,0.945-0.99,1.307-1.639    c0.361-0.648,0.654-1.394,0.879-2.233c0.431-1.607,0.335-2.801-0.285-3.585c-0.621-0.784-1.702-1.176-3.242-1.176h-3.432    l-2.68,9.999h3.432C224.553,160,225.304,159.883,225.973,159.65z M224.001,151.12h2.241c0.615,0,1.11,0.086,1.484,0.26    s0.649,0.424,0.826,0.757c0.178,0.331,0.262,0.732,0.252,1.204c-0.01,0.472-0.094,1.006-0.254,1.604    c-0.165,0.616-0.369,1.141-0.611,1.576c-0.242,0.433-0.501,0.795-0.774,1.085s-0.557,0.518-0.849,0.686    c-0.293,0.169-0.577,0.296-0.854,0.385c-0.275,0.089-0.528,0.145-0.759,0.168c-0.231,0.024-0.42,0.035-0.569,0.035h-2.213    L224.001,151.12z"/>
	</g>
	
    </g>
</svg>
