<?xml version="1.0" encoding="iso-8859-1"?>
<!DOCTYPE svg PUBLIC "-//W3C//DTD SVG 1.1//EN" "http://www.w3.org/Graphics/SVG/1.1/DTD/svg11.dtd">
<svg version="1.1" xmlns="http://www.w3.org/2000/svg" xmlns:xlink="http://www.w3.org/1999/xlink" x="0px" y="0px" width="30" height="30" viewBox="0 0 30 30" xml:space="preserve">
    <g transform="translate(-330 -200)">
        <g xmlns="http://www.w3.org/2000/svg" xmlns:xlink="http://www.w3.org/1999/xlink" id="character-p-7">
		<path d="M345,227c6.627,0,12-5.373,12-12s-5.373-12-12-12s-12,5.373-12,12S338.373,227,345,227z M345,204c6.065,0,11,4.935,11,11    s-4.935,11-11,11s-11-4.935-11-11S338.935,204,345,204z"/>
		<path d="M342.683,215.91h3.053c1.007,0.009,1.839-0.247,2.496-0.77c0.658-0.524,1.113-1.251,1.363-2.186    c0.251-0.934,0.186-1.66-0.193-2.177c-0.379-0.52-1.072-0.777-2.082-0.777h-4.383l-2.681,10h1.331L342.683,215.91z     M343.966,211.119h2.606c0.756,0,1.267,0.158,1.532,0.47c0.267,0.312,0.32,0.768,0.159,1.365c-0.16,0.598-0.457,1.055-0.893,1.373    s-1.029,0.471-1.783,0.462h-2.605L343.966,211.119z"/>
	</g>
	
    </g>
</svg>
