<?xml version="1.0" encoding="iso-8859-1"?>
<!DOCTYPE svg PUBLIC "-//W3C//DTD SVG 1.1//EN" "http://www.w3.org/Graphics/SVG/1.1/DTD/svg11.dtd">
<svg version="1.1" xmlns="http://www.w3.org/2000/svg" xmlns:xlink="http://www.w3.org/1999/xlink" x="0px" y="0px" width="30" height="30" viewBox="0 0 30 30" xml:space="preserve">
    <g transform="translate(-390 -320)">
        <g xmlns="http://www.w3.org/2000/svg" xmlns:xlink="http://www.w3.org/1999/xlink" id="character-k-s-7">
		<path d="M405,347c6.627,0,12-5.373,12-12s-5.373-12-12-12s-12,5.373-12,12S398.373,347,405,347z M405,324c6.065,0,11,4.935,11,11    s-4.935,11-11,11s-11-4.935-11-11S398.935,324,405,324z"/>
		<polygon points="403.409,337.254 404.809,336.219 406.273,340 407.786,340 405.938,335.393 409.516,332.76 407.92,332.76     403.767,335.924 405.353,330 404.163,330 401.484,340 402.675,340   "/>
	</g>
	
    </g>
</svg>
