<?xml version="1.0" encoding="iso-8859-1"?>
<!DOCTYPE svg PUBLIC "-//W3C//DTD SVG 1.1//EN" "http://www.w3.org/Graphics/SVG/1.1/DTD/svg11.dtd">
<svg version="1.1" xmlns="http://www.w3.org/2000/svg" xmlns:xlink="http://www.w3.org/1999/xlink" x="0px" y="0px" width="30" height="30" viewBox="0 0 30 30" xml:space="preserve">
    <g transform="translate(-150 -380)">
        <g xmlns="http://www.w3.org/2000/svg" xmlns:xlink="http://www.w3.org/1999/xlink" id="character-q-s-7">
		<path d="M165,407c6.627,0,12-5.373,12-12s-5.373-12-12-12s-12,5.373-12,12S158.373,407,165,407z M165,384c6.065,0,11,4.935,11,11    s-4.935,11-11,11s-11-4.935-11-11S158.935,384,165,384z"/>
		<path d="M162.162,397.135c0.354,0.203,0.807,0.303,1.357,0.303c0.496,0,0.974-0.086,1.434-0.262    c0.459-0.174,0.84-0.459,1.139-0.854h0.027L165.133,400h1.172l2.635-9.834h-1.17l-0.256,0.949h-0.027    c-0.072-0.211-0.184-0.387-0.334-0.529s-0.318-0.258-0.507-0.344c-0.187-0.088-0.382-0.15-0.583-0.188S165.668,390,165.484,390    c-0.541,0-1.043,0.1-1.504,0.297c-0.463,0.197-0.873,0.463-1.233,0.799c-0.36,0.334-0.669,0.729-0.921,1.178    c-0.255,0.449-0.449,0.928-0.584,1.432c-0.137,0.504-0.195,0.982-0.179,1.434c0.018,0.449,0.116,0.844,0.296,1.184    S161.807,396.934,162.162,397.135z M162.459,393.789c0.093-0.35,0.221-0.689,0.383-1.021c0.163-0.328,0.36-0.623,0.595-0.881    c0.233-0.256,0.51-0.463,0.827-0.619s0.674-0.234,1.068-0.234c0.403,0,0.729,0.076,0.973,0.227c0.244,0.152,0.422,0.352,0.533,0.6    c0.115,0.248,0.168,0.535,0.164,0.861c-0.006,0.326-0.055,0.664-0.148,1.012c-0.088,0.332-0.215,0.656-0.379,0.979    c-0.166,0.322-0.367,0.609-0.609,0.861s-0.521,0.457-0.84,0.613c-0.316,0.156-0.674,0.234-1.068,0.234    c-0.376,0-0.685-0.074-0.926-0.221c-0.239-0.146-0.416-0.346-0.529-0.592c-0.113-0.25-0.17-0.531-0.172-0.848    S162.37,394.119,162.459,393.789z"/>
	</g>
	
    </g>
</svg>
