<?xml version="1.0" encoding="iso-8859-1"?>
<!DOCTYPE svg PUBLIC "-//W3C//DTD SVG 1.1//EN" "http://www.w3.org/Graphics/SVG/1.1/DTD/svg11.dtd">
<svg version="1.1" xmlns="http://www.w3.org/2000/svg" xmlns:xlink="http://www.w3.org/1999/xlink" x="0px" y="0px" width="30" height="30" viewBox="0 0 30 30" xml:space="preserve">
    <g transform="translate(-510 -380)">
        <g xmlns="http://www.w3.org/2000/svg" xmlns:xlink="http://www.w3.org/1999/xlink" id="character-w-s-7">
		<path d="M525,407c6.627,0,12-5.373,12-12s-5.373-12-12-12s-12,5.373-12,12S518.373,407,525,407z M525,384c6.065,0,11,4.935,11,11    s-4.935,11-11,11s-11-4.935-11-11S518.935,384,525,384z"/>
		<polygon points="522.341,399 525.655,392.64 525.686,392.64 525.607,399 527,399 531.695,391 530.334,391 526.786,397.546     526.754,397.546 526.836,391 525.398,391 522.034,397.546 522.003,397.546 521.947,391 520.492,391 520.918,399   "/>
	</g>
	
    </g>
</svg>
