<?xml version="1.0" encoding="iso-8859-1"?>
<!DOCTYPE svg PUBLIC "-//W3C//DTD SVG 1.1//EN" "http://www.w3.org/Graphics/SVG/1.1/DTD/svg11.dtd">
<svg version="1.1" xmlns="http://www.w3.org/2000/svg" xmlns:xlink="http://www.w3.org/1999/xlink" x="0px" y="0px" width="30" height="30" viewBox="0 0 30 30" xml:space="preserve">
    <g transform="translate(-30 -200)">
        <g xmlns="http://www.w3.org/2000/svg" xmlns:xlink="http://www.w3.org/1999/xlink" id="character-k-7">
		<path d="M45,203c-6.627,0-12,5.373-12,12s5.373,12,12,12s12-5.373,12-12S51.627,203,45,203z M45,226c-6.065,0-11-4.935-11-11    s4.935-11,11-11s11,4.935,11,11S51.065,226,45,226z"/>
		<polygon points="49.47,210 43.063,214.985 44.399,210 43.068,210 40.389,220 41.72,220 42.658,216.499 44.74,214.943 47,220     48.681,220 45.896,214.033 51.192,210   "/>
	</g>
	
    </g>
</svg>
