<?xml version="1.0" encoding="iso-8859-1"?>
<!DOCTYPE svg PUBLIC "-//W3C//DTD SVG 1.1//EN" "http://www.w3.org/Graphics/SVG/1.1/DTD/svg11.dtd">
<svg version="1.1" xmlns="http://www.w3.org/2000/svg" xmlns:xlink="http://www.w3.org/1999/xlink" x="0px" y="0px" width="30" height="30" viewBox="0 0 30 30" xml:space="preserve">
    <g transform="translate(-210 -560)">
        <g xmlns="http://www.w3.org/2000/svg" xmlns:xlink="http://www.w3.org/1999/xlink" id="character-greater-than-equal-7">
		<path d="M225,587c6.627,0,12-5.373,12-12s-5.373-12-12-12s-12,5.373-12,12S218.373,587,225,587z M225,564c6.065,0,11,4.935,11,11    s-4.935,11-11,11s-11-4.935-11-11S218.935,564,225,564z"/>
		<polygon points="228.655,579 220.147,579 219.861,580 228.369,580   "/>
		<polygon points="230.139,573.536 222.541,570 222.216,571.215 228.485,574.07 228.476,574.106 220.681,576.943 220.351,578.177     229.848,574.622   "/>
	</g>
	
    </g>
</svg>
