<?xml version="1.0" encoding="iso-8859-1"?>
<!DOCTYPE svg PUBLIC "-//W3C//DTD SVG 1.1//EN" "http://www.w3.org/Graphics/SVG/1.1/DTD/svg11.dtd">
<svg version="1.1" xmlns="http://www.w3.org/2000/svg" xmlns:xlink="http://www.w3.org/1999/xlink" x="0px" y="0px" width="30" height="30" viewBox="0 0 30 30" xml:space="preserve">
    <g transform="translate(-30 -140)">
        <g xmlns="http://www.w3.org/2000/svg" xmlns:xlink="http://www.w3.org/1999/xlink" id="character-a-7">
		<path d="M45,143c-6.627,0-12,5.373-12,12s5.373,12,12,12s12-5.373,12-12S51.627,143,45,143z M45,166c-6.065,0-11-4.935-11-11    s4.935-11,11-11s11,4.935,11,11S51.065,166,45,166z"/>
		<path d="M45.772,150l-6.573,10h1.357l1.928-3.012h4.23L47,160h1.471l-1.229-10H45.772z M43.205,155.868l2.943-4.664h0.029    l0.417,4.664H43.205z"/>
	</g>
	
    </g>
</svg>
