<?xml version="1.0" encoding="iso-8859-1"?>
<!DOCTYPE svg PUBLIC "-//W3C//DTD SVG 1.1//EN" "http://www.w3.org/Graphics/SVG/1.1/DTD/svg11.dtd">
<svg version="1.1" xmlns="http://www.w3.org/2000/svg" xmlns:xlink="http://www.w3.org/1999/xlink" x="0px" y="0px" width="30" height="30" viewBox="0 0 30 30" xml:space="preserve">
    <g transform="translate(-330 -380)">
        <g xmlns="http://www.w3.org/2000/svg" xmlns:xlink="http://www.w3.org/1999/xlink" id="character-t-s-7">
		<path d="M345,407c6.627,0,12-5.373,12-12s-5.373-12-12-12s-12,5.373-12,12S338.373,407,345,407z M345,384c6.065,0,11,4.935,11,11    s-4.935,11-11,11s-11-4.935-11-11S338.935,384,345,384z"/>
		<path d="M343.617,399.934c0.223,0.044,0.496,0.066,0.823,0.066h0.968l0.299-1.115h-0.581c-0.198,0-0.356-0.007-0.478-0.022    c-0.119-0.016-0.208-0.048-0.264-0.097c-0.056-0.05-0.085-0.119-0.086-0.209c-0.001-0.088,0.02-0.208,0.06-0.357l1.278-4.776    h1.533l0.299-1.117h-1.531l0.617-2.306h-1.264l-0.619,2.306h-1.31l-0.3,1.117h1.311l-1.312,4.896    c-0.096,0.358-0.14,0.646-0.128,0.863c0.01,0.22,0.073,0.387,0.185,0.507C343.229,399.808,343.396,399.889,343.617,399.934z"/>
	</g>
	
    </g>
</svg>
