<?xml version="1.0" encoding="iso-8859-1"?>
<!DOCTYPE svg PUBLIC "-//W3C//DTD SVG 1.1//EN" "http://www.w3.org/Graphics/SVG/1.1/DTD/svg11.dtd">
<svg version="1.1" xmlns="http://www.w3.org/2000/svg" xmlns:xlink="http://www.w3.org/1999/xlink" x="0px" y="0px" width="30" height="30" viewBox="0 0 30 30" xml:space="preserve">
    <g transform="translate(-270 -140)">
        <g xmlns="http://www.w3.org/2000/svg" xmlns:xlink="http://www.w3.org/1999/xlink" id="character-e-7">
		<path d="M285,167c6.627,0,12-5.373,12-12s-5.373-12-12-12s-12,5.373-12,12S278.373,167,285,167z M285,144c6.065,0,11,4.935,11,11    s-4.935,11-11,11s-11-4.935-11-11S278.935,144,285,144z"/>
		<polygon points="287.455,158.879 281.839,158.879 282.766,155.42 287.961,155.42 288.262,154.3 283.066,154.3 283.918,151.119     289.492,151.119 289.793,150 282.887,150 280.207,160 287.154,160   "/>
	</g>
	
    </g>
</svg>
