<?xml version="1.0" encoding="iso-8859-1"?>
<!DOCTYPE svg PUBLIC "-//W3C//DTD SVG 1.1//EN" "http://www.w3.org/Graphics/SVG/1.1/DTD/svg11.dtd">
<svg version="1.1" xmlns="http://www.w3.org/2000/svg" xmlns:xlink="http://www.w3.org/1999/xlink" x="0px" y="0px" width="30" height="30" viewBox="0 0 30 30" xml:space="preserve">
    <g transform="translate(-90 -500)">
        <g xmlns="http://www.w3.org/2000/svg" xmlns:xlink="http://www.w3.org/1999/xlink" id="character-exclamation-7">
		<polygon points="104.91,518.445 103.355,518.445 102.939,520 104.494,520   "/>
		<polygon points="106.146,512.646 107,509 105.67,509 104.815,512.646 104,517 104.63,517   "/>
		<path d="M105,527c6.627,0,12-5.373,12-12s-5.373-12-12-12s-12,5.373-12,12S98.373,527,105,527z M105,504c6.065,0,11,4.935,11,11    s-4.935,11-11,11s-11-4.935-11-11S98.935,504,105,504z"/>
	</g>
	
    </g>
</svg>
