<?xml version="1.0" encoding="iso-8859-1"?>
<!DOCTYPE svg PUBLIC "-//W3C//DTD SVG 1.1//EN" "http://www.w3.org/Graphics/SVG/1.1/DTD/svg11.dtd">
<svg version="1.1" xmlns="http://www.w3.org/2000/svg" xmlns:xlink="http://www.w3.org/1999/xlink" x="0px" y="0px" width="30" height="30" viewBox="0 0 30 30" xml:space="preserve">
    <g transform="translate(-390 -380)">
        <g xmlns="http://www.w3.org/2000/svg" xmlns:xlink="http://www.w3.org/1999/xlink" id="character-u-s-7">
		<path d="M405,407c6.627,0,12-5.373,12-12s-5.373-12-12-12s-12,5.373-12,12S398.373,407,405,407z M405,384c6.065,0,11,4.935,11,11    s-4.935,11-11,11s-11-4.935-11-11S398.935,384,405,384z"/>
		<path d="M401.858,398.795c0.309,0.138,0.719,0.205,1.233,0.205c0.576,0,1.106-0.113,1.592-0.341    c0.485-0.227,0.93-0.584,1.333-1.067h0.029l-0.333,1.242h1.212l2.099-7.834h-1.288l-1.186,4.424    c-0.095,0.354-0.23,0.68-0.405,0.979c-0.175,0.297-0.39,0.559-0.642,0.78c-0.251,0.222-0.537,0.394-0.858,0.516    c-0.319,0.12-0.677,0.181-1.069,0.181c-0.496,0-0.847-0.142-1.054-0.424s-0.245-0.667-0.116-1.151l1.421-5.304h-1.287    l-1.381,5.151c-0.113,0.425-0.174,0.812-0.182,1.159c-0.007,0.348,0.061,0.648,0.206,0.901    C401.327,398.465,401.553,398.659,401.858,398.795z"/>
	</g>
	
    </g>
</svg>
