<?xml version="1.0" encoding="iso-8859-1"?>
<!DOCTYPE svg PUBLIC "-//W3C//DTD SVG 1.1//EN" "http://www.w3.org/Graphics/SVG/1.1/DTD/svg11.dtd">
<svg version="1.1" xmlns="http://www.w3.org/2000/svg" xmlns:xlink="http://www.w3.org/1999/xlink" x="0px" y="0px" width="30" height="30" viewBox="0 0 30 30" xml:space="preserve">
    <g transform="translate(-150 -320)">
        <g xmlns="http://www.w3.org/2000/svg" xmlns:xlink="http://www.w3.org/1999/xlink" id="character-g-s-7">
		<path d="M165,347c6.627,0,12-5.373,12-12s-5.373-12-12-12s-12,5.373-12,12S158.373,347,165,347z M165,324c6.065,0,11,4.935,11,11    s-4.935,11-11,11s-11-4.935-11-11S158.935,324,165,324z"/>
		<path d="M161.463,339.541c0.232,0.162,0.508,0.278,0.827,0.352c0.319,0.071,0.642,0.107,0.966,0.107    c1.121,0,2.02-0.284,2.695-0.854c0.678-0.568,1.169-1.428,1.476-2.574l1.718-6.409h-1.084l-0.268,1.004h-0.015    c-0.104-0.389-0.313-0.681-0.633-0.875S166.446,330,166.004,330c-0.605,0-1.146,0.115-1.624,0.346s-0.89,0.524-1.238,0.881    s-0.636,0.755-0.861,1.192c-0.226,0.439-0.395,0.865-0.507,1.281c-0.127,0.479-0.185,0.933-0.167,1.361    c0.016,0.43,0.111,0.805,0.286,1.125c0.178,0.32,0.434,0.575,0.772,0.765c0.337,0.19,0.768,0.285,1.292,0.285    c0.451,0,0.904-0.102,1.361-0.305s0.842-0.521,1.158-0.955h0.025l-0.123,0.461c-0.104,0.389-0.238,0.745-0.401,1.069    c-0.164,0.326-0.362,0.604-0.595,0.834c-0.234,0.23-0.5,0.41-0.797,0.543c-0.298,0.13-0.635,0.196-1.014,0.196    c-0.19,0-0.385-0.021-0.58-0.063c-0.197-0.039-0.372-0.105-0.523-0.196c-0.152-0.09-0.27-0.207-0.353-0.353    c-0.084-0.144-0.103-0.319-0.056-0.527h-1.152c-0.082,0.38-0.069,0.699,0.041,0.962S161.23,339.377,161.463,339.541z     M166.137,335.373c-0.232,0.258-0.503,0.466-0.813,0.623c-0.309,0.159-0.652,0.237-1.031,0.237s-0.676-0.078-0.885-0.237    c-0.211-0.157-0.358-0.365-0.443-0.623c-0.084-0.257-0.115-0.543-0.095-0.86c0.022-0.315,0.075-0.632,0.16-0.949    c0.089-0.333,0.214-0.654,0.372-0.961c0.159-0.307,0.354-0.578,0.584-0.814c0.23-0.233,0.495-0.421,0.794-0.562    c0.3-0.14,0.636-0.21,1.005-0.21c0.362,0,0.648,0.073,0.864,0.218c0.214,0.144,0.367,0.336,0.462,0.575s0.137,0.508,0.13,0.806    c-0.009,0.298-0.053,0.602-0.136,0.909c-0.087,0.324-0.213,0.65-0.375,0.975C166.565,334.824,166.368,335.116,166.137,335.373z"/>
	</g>
	
    </g>
</svg>
