<?xml version="1.0" encoding="iso-8859-1"?>
<!DOCTYPE svg PUBLIC "-//W3C//DTD SVG 1.1//EN" "http://www.w3.org/Graphics/SVG/1.1/DTD/svg11.dtd">
<svg version="1.1" xmlns="http://www.w3.org/2000/svg" xmlns:xlink="http://www.w3.org/1999/xlink" x="0px" y="0px" width="30" height="30" viewBox="0 0 30 30" xml:space="preserve">
    <g transform="translate(-570 -560)">
        <g xmlns="http://www.w3.org/2000/svg" xmlns:xlink="http://www.w3.org/1999/xlink" id="character-infinity-7">
		<path d="M585,563c-6.627,0-12,5.373-12,12s5.373,12,12,12s12-5.373,12-12S591.627,563,585,563z M585,586c-6.065,0-11-4.935-11-11    s4.935-11,11-11s11,4.935,11,11S591.065,586,585,586z"/>
		<path d="M589.604,572c-1.674,0-3.057,1.123-4.376,2.163c-0.716-0.98-1.523-2.163-3.054-2.163c-1.774,0-3.452,1.389-3.89,3.021    c-0.464,1.734,0.405,2.979,2.12,2.979c1.673,0,3.055-1.122,4.369-2.143c0.724,0.959,1.527,2.143,3.038,2.143    c1.796,0,3.474-1.388,3.899-2.979C592.187,573.246,591.316,572,589.604,572z M580.85,576.795c-1.02,0-1.552-0.755-1.279-1.774    c0.263-0.98,1.262-1.816,2.281-1.816c1.185,0,1.73,1.082,2.329,1.816C583.192,575.816,581.993,576.795,580.85,576.795z     M590.425,575.021c-0.256,0.958-1.25,1.774-2.249,1.774c-1.204,0-1.756-1.061-2.361-1.774c0.988-0.796,2.2-1.816,3.363-1.816    C590.178,573.204,590.704,573.98,590.425,575.021z"/>
	</g>
	
    </g>
</svg>
