<?xml version="1.0" encoding="iso-8859-1"?>
<!DOCTYPE svg PUBLIC "-//W3C//DTD SVG 1.1//EN" "http://www.w3.org/Graphics/SVG/1.1/DTD/svg11.dtd">
<svg version="1.1" xmlns="http://www.w3.org/2000/svg" xmlns:xlink="http://www.w3.org/1999/xlink" x="0px" y="0px" width="30" height="30" viewBox="0 0 30 30" xml:space="preserve">
    <g transform="translate(-570 -380)">
        <g xmlns="http://www.w3.org/2000/svg" xmlns:xlink="http://www.w3.org/1999/xlink" id="character-x-s-7">
		<path d="M585,407c6.627,0,12-5.373,12-12s-5.373-12-12-12s-12,5.373-12,12S578.373,407,585,407z M585,384c6.065,0,11,4.935,11,11    s-4.935,11-11,11s-11-4.935-11-11S578.935,384,585,384z"/>
		<polygon points="581.824,399 584.939,395.689 586.281,399 587.967,399 586.029,394.682 589.77,391 588.191,391 585.445,393.801     584.277,391 582.59,391 584.359,394.79 580.23,399   "/>
	</g>
	
    </g>
</svg>
