<?xml version="1.0" encoding="iso-8859-1"?>
<!DOCTYPE svg PUBLIC "-//W3C//DTD SVG 1.1//EN" "http://www.w3.org/Graphics/SVG/1.1/DTD/svg11.dtd">
<svg version="1.1" xmlns="http://www.w3.org/2000/svg" xmlns:xlink="http://www.w3.org/1999/xlink" x="0px" y="0px" width="30" height="30" viewBox="0 0 30 30" xml:space="preserve">
    <g transform="translate(-150 -560)">
        <g xmlns="http://www.w3.org/2000/svg" xmlns:xlink="http://www.w3.org/1999/xlink" id="character-less-than-equal-7">
		<path d="M165,587c6.627,0,12-5.373,12-12s-5.373-12-12-12s-12,5.373-12,12S158.373,587,165,587z M165,564c6.065,0,11,4.935,11,11    s-4.935,11-11,11s-11-4.935-11-11S158.935,564,165,564z"/>
		<polygon points="168,579 160.031,579 159.764,580 167.731,580   "/>
		<polygon points="168.171,576.826 162.002,574.037 162.012,574.002 169.68,571.194 170,570 160.668,573.477 160.381,574.544     167.846,578.038   "/>
	</g>
	
    </g>
</svg>
