<?xml version="1.0" encoding="iso-8859-1"?>
<!DOCTYPE svg PUBLIC "-//W3C//DTD SVG 1.1//EN" "http://www.w3.org/Graphics/SVG/1.1/DTD/svg11.dtd">
<svg version="1.1" xmlns="http://www.w3.org/2000/svg" xmlns:xlink="http://www.w3.org/1999/xlink" x="0px" y="0px" width="30" height="30" viewBox="0 0 30 30" xml:space="preserve">
    <g transform="translate(-30 -320)">
        <g xmlns="http://www.w3.org/2000/svg" xmlns:xlink="http://www.w3.org/1999/xlink" id="character-e-s-7">
		<path d="M45,323c-6.627,0-12,5.373-12,12s5.373,12,12,12s12-5.373,12-12S51.627,323,45,323z M45,346c-6.065,0-11-4.935-11-11    s4.935-11,11-11s11,4.935,11,11S51.065,346,45,346z"/>
		<path d="M47.721,331.423c-0.373-0.28-0.9-0.423-1.582-0.423c-0.525,0-1.032,0.099-1.524,0.297    c-0.493,0.197-0.946,0.475-1.363,0.829c-0.415,0.356-0.778,0.776-1.085,1.26c-0.308,0.483-0.539,1.018-0.695,1.6    c-0.137,0.584-0.195,1.122-0.173,1.616c0.021,0.493,0.136,0.918,0.347,1.272c0.211,0.356,0.514,0.632,0.912,0.83    c0.396,0.197,0.899,0.296,1.512,0.296c0.869,0,1.649-0.217,2.339-0.65c0.688-0.436,1.232-1.083,1.63-1.941h-1.244    c-0.244,0.504-0.568,0.879-0.977,1.126c-0.406,0.246-0.877,0.37-1.41,0.37c-0.415,0-0.756-0.068-1.025-0.207    s-0.471-0.324-0.605-0.556c-0.137-0.231-0.208-0.499-0.217-0.801c-0.007-0.302,0.039-0.62,0.138-0.955h5.733    c0.145-0.464,0.234-0.952,0.268-1.466c0.035-0.514-0.027-0.988-0.183-1.423C48.36,332.063,48.096,331.704,47.721,331.423z     M47.395,334.274h-4.399c0.099-0.297,0.237-0.575,0.416-0.837s0.388-0.492,0.628-0.689c0.242-0.196,0.508-0.352,0.801-0.466    c0.292-0.113,0.601-0.171,0.926-0.171c0.316,0,0.591,0.058,0.822,0.171c0.23,0.114,0.418,0.266,0.557,0.459    c0.143,0.192,0.234,0.422,0.275,0.689C47.463,333.697,47.453,333.978,47.395,334.274z"/>
	</g>
	
    </g>
</svg>
