<?xml version="1.0" encoding="iso-8859-1"?>
<!DOCTYPE svg PUBLIC "-//W3C//DTD SVG 1.1//EN" "http://www.w3.org/Graphics/SVG/1.1/DTD/svg11.dtd">
<svg version="1.1" xmlns="http://www.w3.org/2000/svg" xmlns:xlink="http://www.w3.org/1999/xlink" x="0px" y="0px" width="30" height="30" viewBox="0 0 30 30" xml:space="preserve">
    <g transform="translate(-330 -140)">
        <g xmlns="http://www.w3.org/2000/svg" xmlns:xlink="http://www.w3.org/1999/xlink" id="character-f-7">
		<path d="M345,167c6.627,0,12-5.373,12-12s-5.373-12-12-12s-12,5.373-12,12S338.373,167,345,167z M345,144c6.065,0,11,4.935,11,11    s-4.935,11-11,11s-11-4.935-11-11S338.935,144,345,144z"/>
		<polygon points="342.934,155.42 347.529,155.42 347.828,154.3 343.234,154.3 344.087,151.119 349.326,151.119 349.624,150     343.057,150 340.376,160 341.707,160   "/>
	</g>
	
    </g>
</svg>
