<?xml version="1.0" encoding="iso-8859-1"?>
<!DOCTYPE svg PUBLIC "-//W3C//DTD SVG 1.1//EN" "http://www.w3.org/Graphics/SVG/1.1/DTD/svg11.dtd">
<svg version="1.1" xmlns="http://www.w3.org/2000/svg" xmlns:xlink="http://www.w3.org/1999/xlink" x="0px" y="0px" width="30" height="30" viewBox="0 0 30 30" xml:space="preserve">
    <g transform="translate(-330 -560)">
        <g xmlns="http://www.w3.org/2000/svg" xmlns:xlink="http://www.w3.org/1999/xlink" id="character-plus-minus-7">
		<path d="M345,587c6.627,0,12-5.373,12-12s-5.373-12-12-12s-12,5.373-12,12S338.373,587,345,587z M345,564c6.065,0,11,4.935,11,11    s-4.935,11-11,11s-11-4.935-11-11S338.935,564,345,564z"/>
		<polygon points="349.268,579 340.268,579 340,580 349,580   "/>
		<polygon points="343.928,578 344.928,578 346,574 350,574 350.268,573 346.268,573 347.34,569 346.34,569 345.268,573     341.268,573 341,574 345,574   "/>
	</g>
	
    </g>
</svg>
