<?xml version="1.0" encoding="iso-8859-1"?>
<!DOCTYPE svg PUBLIC "-//W3C//DTD SVG 1.1//EN" "http://www.w3.org/Graphics/SVG/1.1/DTD/svg11.dtd">
<svg version="1.1" xmlns="http://www.w3.org/2000/svg" xmlns:xlink="http://www.w3.org/1999/xlink" x="0px" y="0px" width="30" height="30" viewBox="0 0 30 30" xml:space="preserve">
    <g transform="translate(-570 -260)">
        <g xmlns="http://www.w3.org/2000/svg" xmlns:xlink="http://www.w3.org/1999/xlink" id="character-d-s-7">
		<path d="M585,287c6.627,0,12-5.373,12-12s-5.373-12-12-12s-12,5.373-12,12S578.373,287,585,287z M585,264c6.065,0,11,4.935,11,11    s-4.935,11-11,11s-11-4.935-11-11S578.935,264,585,264z"/>
		<path d="M581.794,279.696c0.354,0.202,0.809,0.304,1.359,0.304c0.497,0,0.976-0.088,1.436-0.263    c0.461-0.174,0.841-0.459,1.141-0.854h0.027l-0.259,0.966h1.172l2.639-9.849h-1.172l-0.983,3.669h-0.027    c-0.071-0.211-0.184-0.389-0.335-0.531c-0.15-0.143-0.318-0.257-0.507-0.345c-0.188-0.087-0.383-0.15-0.584-0.187    c-0.202-0.037-0.395-0.056-0.579-0.056c-0.542,0-1.044,0.1-1.506,0.298c-0.463,0.197-0.874,0.463-1.235,0.8    c-0.361,0.335-0.669,0.729-0.923,1.179c-0.255,0.451-0.449,0.93-0.585,1.435s-0.194,0.984-0.178,1.435    c0.018,0.451,0.116,0.847,0.296,1.187S581.438,279.494,581.794,279.696z M582.092,276.345c0.093-0.351,0.221-0.689,0.384-1.021    c0.163-0.33,0.36-0.624,0.595-0.882s0.511-0.465,0.828-0.621c0.318-0.156,0.675-0.234,1.07-0.234c0.404,0,0.729,0.076,0.975,0.228    c0.243,0.151,0.422,0.352,0.534,0.601c0.114,0.247,0.167,0.535,0.163,0.862c-0.005,0.325-0.055,0.664-0.147,1.013    c-0.089,0.332-0.216,0.657-0.38,0.979c-0.166,0.322-0.368,0.609-0.61,0.862s-0.523,0.458-0.841,0.614    c-0.317,0.157-0.675,0.234-1.069,0.234c-0.378,0-0.687-0.073-0.928-0.222c-0.24-0.146-0.417-0.344-0.529-0.592    c-0.114-0.25-0.171-0.531-0.173-0.849C581.96,277,582.003,276.676,582.092,276.345z"/>
	</g>
	
    </g>
</svg>
