<?xml version="1.0" encoding="iso-8859-1"?>
<!DOCTYPE svg PUBLIC "-//W3C//DTD SVG 1.1//EN" "http://www.w3.org/Graphics/SVG/1.1/DTD/svg11.dtd">
<svg version="1.1" xmlns="http://www.w3.org/2000/svg" xmlns:xlink="http://www.w3.org/1999/xlink" x="0px" y="0px" width="30" height="30" viewBox="0 0 30 30" xml:space="preserve">
    <g transform="translate(-90 -140)">
        <g xmlns="http://www.w3.org/2000/svg" xmlns:xlink="http://www.w3.org/1999/xlink" id="character-b-7">
		<path d="M105,167c6.627,0,12-5.373,12-12s-5.373-12-12-12s-12,5.373-12,12S98.373,167,105,167z M105,144c6.065,0,11,4.935,11,11    s-4.935,11-11,11s-11-4.935-11-11S98.935,144,105,144z"/>
		<path d="M106.42,159.755c0.422-0.164,0.797-0.378,1.125-0.645c0.328-0.266,0.604-0.571,0.827-0.917s0.384-0.7,0.481-1.064    c0.166-0.616,0.142-1.14-0.07-1.569c-0.211-0.43-0.607-0.71-1.189-0.841l0.008-0.027c0.527-0.187,0.971-0.475,1.331-0.862    c0.36-0.388,0.611-0.848,0.754-1.379c0.136-0.504,0.136-0.93-0.001-1.274c-0.137-0.347-0.342-0.617-0.616-0.813    c-0.124-0.094-0.286-0.163-0.483-0.211c-0.197-0.046-0.414-0.081-0.65-0.105c-0.236-0.023-0.479-0.037-0.725-0.041    S106.734,150,106.52,150h-3.627l-2.68,10h4.832C105.539,160,105.998,159.919,106.42,159.755z M103.923,151.119h2.661    c0.289,0,0.558,0.017,0.807,0.05c0.248,0.032,0.455,0.105,0.621,0.217c0.166,0.111,0.277,0.271,0.334,0.476    c0.057,0.206,0.039,0.486-0.057,0.84c-0.143,0.532-0.416,0.931-0.818,1.198c-0.402,0.266-0.982,0.399-1.738,0.399h-2.662    L103.923,151.119z M102.771,155.42h3.04c0.279,0,0.543,0.026,0.791,0.077c0.248,0.052,0.455,0.141,0.622,0.267    s0.282,0.296,0.347,0.511c0.063,0.215,0.051,0.485-0.035,0.813c-0.151,0.56-0.435,1-0.852,1.316    c-0.416,0.318-0.918,0.477-1.506,0.477h-3.334L102.771,155.42z"/>
	</g>
	
    </g>
</svg>
