<?xml version="1.0" encoding="iso-8859-1"?>
<!DOCTYPE svg PUBLIC "-//W3C//DTD SVG 1.1//EN" "http://www.w3.org/Graphics/SVG/1.1/DTD/svg11.dtd">
<svg version="1.1" xmlns="http://www.w3.org/2000/svg" xmlns:xlink="http://www.w3.org/1999/xlink" x="0px" y="0px" width="30" height="30" viewBox="0 0 30 30" xml:space="preserve">
    <g transform="translate(-390 -560)">
        <g xmlns="http://www.w3.org/2000/svg" xmlns:xlink="http://www.w3.org/1999/xlink" id="character-almost-equal-7">
		<path d="M400.86,573.433c0.158-0.193,0.335-0.368,0.526-0.524c0.191-0.157,0.395-0.287,0.607-0.386    c0.212-0.102,0.432-0.15,0.66-0.15c0.501,0,0.927,0.089,1.279,0.267c0.353,0.181,0.673,0.368,0.963,0.568    c0.303,0.201,0.61,0.369,0.926,0.505c0.313,0.136,0.672,0.202,1.071,0.202c0.329,0,0.638-0.052,0.933-0.161    c0.293-0.105,0.569-0.245,0.829-0.416c0.26-0.172,0.506-0.368,0.737-0.59c0.23-0.221,0.454-0.446,0.674-0.675L409.581,571    c-0.178,0.187-0.357,0.374-0.537,0.568c-0.182,0.191-0.366,0.368-0.558,0.524c-0.194,0.158-0.393,0.287-0.597,0.386    c-0.206,0.1-0.417,0.15-0.632,0.15c-0.286,0-0.593-0.1-0.927-0.301c-0.332-0.2-0.675-0.386-1.028-0.558    c-0.364-0.185-0.73-0.345-1.094-0.481c-0.363-0.136-0.729-0.204-1.103-0.204c-0.355,0-0.689,0.054-0.998,0.161    c-0.307,0.107-0.593,0.247-0.861,0.418c-0.267,0.171-0.509,0.368-0.726,0.589c-0.216,0.222-0.411,0.447-0.588,0.676l0.483,1.071    C400.553,573.814,400.699,573.624,400.86,573.433z"/>
		<path d="M400.86,578.433c0.158-0.193,0.335-0.368,0.526-0.524c0.191-0.157,0.395-0.287,0.607-0.386    c0.212-0.102,0.432-0.15,0.66-0.15c0.501,0,0.927,0.089,1.279,0.267c0.353,0.181,0.673,0.368,0.963,0.568    c0.303,0.201,0.61,0.369,0.926,0.505c0.313,0.136,0.672,0.202,1.071,0.202c0.329,0,0.638-0.052,0.933-0.161    c0.293-0.105,0.569-0.245,0.829-0.416c0.26-0.172,0.506-0.368,0.737-0.59c0.23-0.221,0.454-0.446,0.674-0.675L409.581,576    c-0.178,0.187-0.357,0.374-0.537,0.568c-0.182,0.191-0.366,0.368-0.558,0.524c-0.194,0.158-0.393,0.287-0.597,0.386    c-0.206,0.1-0.417,0.15-0.632,0.15c-0.286,0-0.593-0.1-0.927-0.301c-0.332-0.2-0.675-0.386-1.028-0.558    c-0.364-0.185-0.73-0.345-1.094-0.481c-0.363-0.136-0.729-0.204-1.103-0.204c-0.355,0-0.689,0.054-0.998,0.161    c-0.307,0.107-0.593,0.247-0.861,0.418c-0.267,0.171-0.509,0.368-0.726,0.589c-0.216,0.222-0.411,0.447-0.588,0.676l0.483,1.071    C400.553,578.814,400.699,578.624,400.86,578.433z"/>
		<path d="M405,587c6.627,0,12-5.373,12-12s-5.373-12-12-12s-12,5.373-12,12S398.373,587,405,587z M405,564c6.065,0,11,4.935,11,11    s-4.935,11-11,11s-11-4.935-11-11S398.935,564,405,564z"/>
	</g>
	
    </g>
</svg>
