<?xml version="1.0" encoding="iso-8859-1"?>
<!DOCTYPE svg PUBLIC "-//W3C//DTD SVG 1.1//EN" "http://www.w3.org/Graphics/SVG/1.1/DTD/svg11.dtd">
<svg version="1.1" xmlns="http://www.w3.org/2000/svg" xmlns:xlink="http://www.w3.org/1999/xlink" x="0px" y="0px" width="30" height="30" viewBox="0 0 30 30" xml:space="preserve">
    <g transform="translate(-270 -260)">
        <g xmlns="http://www.w3.org/2000/svg" xmlns:xlink="http://www.w3.org/1999/xlink" id="character-y-7">
		<path d="M285,287c6.627,0,12-5.373,12-12s-5.373-12-12-12s-12,5.373-12,12S278.373,287,285,287z M285,264c6.065,0,11,4.935,11,11    s-4.935,11-11,11s-11-4.935-11-11S278.935,264,285,264z"/>
		<polygon points="282.67,280 284,280 285.096,275.909 290.504,270 288.992,270 284.789,274.762 283.066,270 281.484,270     283.766,275.909   "/>
	</g>
	
    </g>
</svg>
