<?xml version="1.0" encoding="iso-8859-1"?>
<!DOCTYPE svg PUBLIC "-//W3C//DTD SVG 1.1//EN" "http://www.w3.org/Graphics/SVG/1.1/DTD/svg11.dtd">
<svg version="1.1" xmlns="http://www.w3.org/2000/svg" xmlns:xlink="http://www.w3.org/1999/xlink" x="0px" y="0px" width="30" height="30" viewBox="0 0 30 30" xml:space="preserve">
    <g transform="translate(-150 -140)">
        <g xmlns="http://www.w3.org/2000/svg" xmlns:xlink="http://www.w3.org/1999/xlink" id="character-c-7">
		<path d="M165,167c6.627,0,12-5.373,12-12s-5.373-12-12-12s-12,5.373-12,12S158.373,167,165,167z M165,144c6.065,0,11,4.935,11,11    s-4.935,11-11,11s-11-4.935-11-11S158.935,144,165,144z"/>
		<path d="M161.625,159.619c0.485,0.254,1.099,0.381,1.84,0.381c1.222,0,2.275-0.335,3.159-1.004    c0.885-0.669,1.552-1.606,1.999-2.811h-1.271c-0.133,0.392-0.311,0.758-0.535,1.097c-0.226,0.339-0.488,0.632-0.791,0.877    c-0.303,0.247-0.635,0.438-0.997,0.575c-0.363,0.14-0.755,0.208-1.174,0.208c-0.571,0-1.032-0.108-1.386-0.322    c-0.354-0.213-0.613-0.502-0.779-0.863c-0.168-0.361-0.248-0.787-0.242-1.272c0.005-0.486,0.08-1.002,0.227-1.547    c0.134-0.499,0.326-0.98,0.575-1.445c0.249-0.464,0.554-0.877,0.914-1.238c0.36-0.362,0.771-0.649,1.235-0.864    c0.463-0.213,0.98-0.32,1.552-0.32c0.67,0,1.202,0.169,1.597,0.508c0.396,0.34,0.574,0.849,0.535,1.527h1.272    c0.063-0.51,0.033-0.958-0.095-1.347c-0.128-0.388-0.332-0.711-0.61-0.969c-0.278-0.259-0.623-0.456-1.033-0.589    c-0.411-0.134-0.866-0.202-1.366-0.202c-0.73,0-1.416,0.133-2.053,0.396c-0.638,0.262-1.207,0.622-1.708,1.077    c-0.501,0.456-0.933,0.989-1.292,1.6c-0.36,0.612-0.634,1.266-0.82,1.962s-0.27,1.348-0.249,1.955s0.153,1.134,0.399,1.58    C160.774,159.013,161.14,159.364,161.625,159.619z"/>
	</g>
	
    </g>
</svg>
