<?xml version="1.0" encoding="iso-8859-1"?>
<!DOCTYPE svg PUBLIC "-//W3C//DTD SVG 1.1//EN" "http://www.w3.org/Graphics/SVG/1.1/DTD/svg11.dtd">
<svg version="1.1" xmlns="http://www.w3.org/2000/svg" xmlns:xlink="http://www.w3.org/1999/xlink" x="0px" y="0px" width="30" height="30" viewBox="0 0 30 30" xml:space="preserve">
    <g transform="translate(-510 -260)">
        <g xmlns="http://www.w3.org/2000/svg" xmlns:xlink="http://www.w3.org/1999/xlink" id="character-c-s-7">
		<path d="M525,287c6.627,0,12-5.373,12-12s-5.373-12-12-12s-12,5.373-12,12S518.373,287,525,287z M525,264c6.065,0,11,4.935,11,11    s-4.935,11-11,11s-11-4.935-11-11S518.935,264,525,264z"/>
		<path d="M522.488,278.718c0.399,0.188,0.89,0.282,1.474,0.282c0.977,0,1.818-0.257,2.524-0.771    c0.705-0.512,1.254-1.244,1.647-2.192h-1.29c-0.236,0.593-0.574,1.052-1.013,1.379c-0.438,0.325-0.969,0.488-1.591,0.488    c-0.396,0-0.715-0.078-0.958-0.237c-0.245-0.157-0.42-0.368-0.528-0.63c-0.107-0.262-0.159-0.561-0.152-0.896    c0.005-0.335,0.057-0.68,0.152-1.037c0.104-0.385,0.242-0.757,0.417-1.119c0.176-0.358,0.394-0.677,0.648-0.954    c0.259-0.276,0.563-0.499,0.913-0.667s0.753-0.252,1.208-0.252c0.534,0,0.922,0.134,1.168,0.4c0.244,0.267,0.35,0.642,0.319,1.126    h1.304c0.072-0.455,0.059-0.847-0.039-1.178c-0.1-0.332-0.266-0.604-0.499-0.822c-0.232-0.218-0.525-0.378-0.877-0.481    c-0.354-0.104-0.748-0.156-1.182-0.156c-0.604,0-1.16,0.107-1.67,0.319c-0.513,0.212-0.968,0.503-1.368,0.874    c-0.4,0.37-0.742,0.806-1.022,1.303c-0.282,0.5-0.499,1.036-0.653,1.607c-0.153,0.574-0.219,1.1-0.193,1.578    c0.024,0.479,0.141,0.891,0.35,1.237C521.786,278.265,522.09,278.531,522.488,278.718z"/>
	</g>
	
    </g>
</svg>
