<?xml version="1.0" encoding="iso-8859-1"?>
<!DOCTYPE svg PUBLIC "-//W3C//DTD SVG 1.1//EN" "http://www.w3.org/Graphics/SVG/1.1/DTD/svg11.dtd">
<svg version="1.1" xmlns="http://www.w3.org/2000/svg" xmlns:xlink="http://www.w3.org/1999/xlink" x="0px" y="0px" width="30" height="30" viewBox="0 0 30 30" xml:space="preserve">
    <g transform="translate(-270 -500)">
        <g xmlns="http://www.w3.org/2000/svg" xmlns:xlink="http://www.w3.org/1999/xlink" id="character-dollar-7">
		<path d="M283.462,519.901L283.167,521h0.737l0.295-1.099c0.438-0.036,0.855-0.126,1.253-0.269c0.395-0.143,0.755-0.337,1.08-0.584    c0.325-0.245,0.606-0.538,0.847-0.878c0.237-0.34,0.414-0.728,0.532-1.167c0.11-0.41,0.127-0.764,0.049-1.058    c-0.077-0.296-0.201-0.541-0.372-0.738c-0.17-0.196-0.362-0.351-0.572-0.462c-0.212-0.111-0.4-0.19-0.567-0.235l-0.748-0.215    l0.884-3.298c0.781,0.152,1.144,0.671,1.085,1.556h1.14c0.032-0.787-0.105-1.403-0.415-1.851c-0.31-0.446-0.814-0.715-1.515-0.804    L287.12,509h-0.736l-0.238,0.885c-0.392,0.027-0.774,0.112-1.147,0.256c-0.373,0.143-0.716,0.337-1.028,0.582    c-0.312,0.247-0.583,0.537-0.815,0.872c-0.234,0.335-0.404,0.704-0.512,1.106c-0.106,0.394-0.142,0.729-0.108,1.006    c0.032,0.277,0.138,0.512,0.314,0.704c0.177,0.191,0.418,0.356,0.725,0.495c0.308,0.139,0.682,0.267,1.125,0.383l-0.953,3.553    c-0.512-0.09-0.897-0.309-1.157-0.657s-0.317-0.822-0.176-1.422h-1.14c-0.181,0.938-0.078,1.674,0.307,2.207    C281.965,519.501,282.592,519.812,283.462,519.901z M284.459,513.881c-0.167-0.08-0.305-0.176-0.412-0.288    c-0.109-0.111-0.18-0.25-0.212-0.416c-0.031-0.165-0.016-0.364,0.047-0.597c0.136-0.51,0.39-0.896,0.761-1.16    c0.368-0.263,0.774-0.417,1.215-0.462l-0.84,3.138C284.811,514.033,284.625,513.961,284.459,513.881z M285.384,515.477    c0.223,0.071,0.431,0.149,0.622,0.234c0.192,0.086,0.346,0.19,0.465,0.314c0.119,0.126,0.198,0.275,0.242,0.45    c0.042,0.174,0.029,0.391-0.04,0.649c-0.076,0.286-0.187,0.535-0.326,0.744c-0.142,0.211-0.311,0.385-0.502,0.523    c-0.194,0.139-0.406,0.244-0.635,0.315c-0.229,0.071-0.472,0.116-0.728,0.134L285.384,515.477z"/>
		<path d="M285,527c6.627,0,12-5.373,12-12s-5.373-12-12-12s-12,5.373-12,12S278.373,527,285,527z M285,504c6.065,0,11,4.935,11,11    s-4.935,11-11,11s-11-4.935-11-11S278.935,504,285,504z"/>
	</g>
	
    </g>
</svg>
