<?xml version="1.0" encoding="iso-8859-1"?>
<!DOCTYPE svg PUBLIC "-//W3C//DTD SVG 1.1//EN" "http://www.w3.org/Graphics/SVG/1.1/DTD/svg11.dtd">
<svg version="1.1" xmlns="http://www.w3.org/2000/svg" xmlns:xlink="http://www.w3.org/1999/xlink" x="0px" y="0px" width="30" height="30" viewBox="0 0 30 30" xml:space="preserve">
    <g transform="translate(-90 -320)">
        <g xmlns="http://www.w3.org/2000/svg" xmlns:xlink="http://www.w3.org/1999/xlink" id="character-f-s-7">
		<path d="M105,347c6.627,0,12-5.373,12-12s-5.373-12-12-12s-12,5.373-12,12S98.373,347,105,347z M105,324c6.065,0,11,4.935,11,11    s-4.935,11-11,11s-11-4.935-11-11S98.935,324,105,324z"/>
		<path d="M103.981,340l1.641-6.121h1.385l0.278-1.04H105.9l0.267-0.996c0.084-0.314,0.219-0.527,0.406-0.638    c0.187-0.11,0.424-0.167,0.71-0.167c0.102,0,0.21,0.008,0.327,0.021c0.116,0.015,0.221,0.039,0.311,0.075l0.275-1.023    c-0.102-0.038-0.221-0.065-0.358-0.083c-0.138-0.019-0.263-0.028-0.374-0.028c-0.646,0-1.177,0.15-1.596,0.45    c-0.417,0.3-0.704,0.741-0.859,1.323l-0.286,1.065h-1.204l-0.279,1.04h1.206L102.804,340H103.981z"/>
	</g>
	
    </g>
</svg>
