<?xml version="1.0" encoding="iso-8859-1"?>
<!DOCTYPE svg PUBLIC "-//W3C//DTD SVG 1.1//EN" "http://www.w3.org/Graphics/SVG/1.1/DTD/svg11.dtd">
<svg version="1.1" xmlns="http://www.w3.org/2000/svg" xmlns:xlink="http://www.w3.org/1999/xlink" x="0px" y="0px" width="30" height="30" viewBox="0 0 30 30" xml:space="preserve">
    <g transform="translate(-30 -260)">
        <g xmlns="http://www.w3.org/2000/svg" xmlns:xlink="http://www.w3.org/1999/xlink" id="character-u-7">
		<path d="M45,263c-6.627,0-12,5.373-12,12s5.373,12,12,12s12-5.373,12-12S51.627,263,45,263z M45,286c-6.065,0-11-4.935-11-11    s4.935-11,11-11s11,4.935,11,11S51.065,286,45,286z"/>
		<path d="M47.024,276.246c-0.234,0.877-0.63,1.54-1.185,1.992c-0.555,0.453-1.248,0.68-2.079,0.68c-0.877,0-1.487-0.227-1.832-0.68    c-0.345-0.452-0.399-1.115-0.165-1.992L43.438,270h-1.301l-1.674,6.246c-0.35,1.306-0.252,2.258,0.295,2.855    c0.549,0.6,1.452,0.898,2.713,0.898c1.232,0,2.267-0.313,3.102-0.938c0.834-0.625,1.418-1.564,1.754-2.815L50,270h-1.301    L47.024,276.246z"/>
	</g>
	
    </g>
</svg>
