<?xml version="1.0" encoding="iso-8859-1"?>
<!DOCTYPE svg PUBLIC "-//W3C//DTD SVG 1.1//EN" "http://www.w3.org/Graphics/SVG/1.1/DTD/svg11.dtd">
<svg version="1.1" xmlns="http://www.w3.org/2000/svg" xmlns:xlink="http://www.w3.org/1999/xlink" x="0px" y="0px" width="30" height="30" viewBox="0 0 30 30" xml:space="preserve">
    <g transform="translate(-90 -440)">
        <g xmlns="http://www.w3.org/2000/svg" xmlns:xlink="http://www.w3.org/1999/xlink" id="character-z-s-7">
		<path d="M105,467c6.627,0,12-5.373,12-12s-5.373-12-12-12s-12,5.373-12,12S98.373,467,105,467z M105,444c6.065,0,11,4.935,11,11    s-4.935,11-11,11s-11-4.935-11-11S98.935,444,105,444z"/>
		<polygon points="107.721,457.84 102.614,457.84 109.096,451.898 109.337,451 103.116,451 102.805,452.161 107.323,452.161     100.933,457.994 100.663,459 107.41,459   "/>
	</g>
	
    </g>
</svg>
