<?xml version="1.0" encoding="iso-8859-1"?>
<!DOCTYPE svg PUBLIC "-//W3C//DTD SVG 1.1//EN" "http://www.w3.org/Graphics/SVG/1.1/DTD/svg11.dtd">
<svg version="1.1" xmlns="http://www.w3.org/2000/svg" xmlns:xlink="http://www.w3.org/1999/xlink" x="0px" y="0px" width="30" height="30" viewBox="0 0 30 30" xml:space="preserve">
    <g transform="translate(-570 -140)">
        <g xmlns="http://www.w3.org/2000/svg" xmlns:xlink="http://www.w3.org/1999/xlink" id="character-j-7">
		<path d="M585,167c6.627,0,12-5.373,12-12s-5.373-12-12-12s-12,5.373-12,12S578.373,167,585,167z M585,144c6.065,0,11,4.935,11,11    s-4.935,11-11,11s-11-4.935-11-11S578.935,144,585,144z"/>
		<path d="M583.337,160c0.549,0,1.027-0.076,1.437-0.226c0.411-0.15,0.761-0.352,1.053-0.603c0.291-0.251,0.525-0.537,0.708-0.856    c0.183-0.318,0.315-0.645,0.405-0.972l1.966-7.342h-1.301l-1.916,7.15c-0.144,0.539-0.371,0.968-0.68,1.288    c-0.31,0.32-0.761,0.479-1.354,0.479c-0.32,0-0.57-0.048-0.75-0.144c-0.181-0.096-0.303-0.23-0.371-0.403    c-0.067-0.174-0.093-0.379-0.074-0.618c0.018-0.236,0.063-0.498,0.14-0.781l0.11-0.411h-1.301l-0.161,0.603    c-0.25,0.932-0.192,1.637,0.172,2.116C581.785,159.759,582.423,160,583.337,160z"/>
	</g>
	
    </g>
</svg>
