<?xml version="1.0" encoding="iso-8859-1"?>
<!DOCTYPE svg PUBLIC "-//W3C//DTD SVG 1.1//EN" "http://www.w3.org/Graphics/SVG/1.1/DTD/svg11.dtd">
<svg version="1.1" xmlns="http://www.w3.org/2000/svg" xmlns:xlink="http://www.w3.org/1999/xlink" x="0px" y="0px" width="30" height="30" viewBox="0 0 30 30" xml:space="preserve">
    <g transform="translate(-210 -320)">
        <g xmlns="http://www.w3.org/2000/svg" xmlns:xlink="http://www.w3.org/1999/xlink" id="character-h-s-7">
		<path d="M225,347c6.627,0,12-5.373,12-12s-5.373-12-12-12s-12,5.373-12,12S218.373,347,225,347z M225,324c6.065,0,11,4.935,11,11    s-4.935,11-11,11s-11-4.935-11-11S218.935,324,225,324z"/>
		<path d="M223.566,335.91c0.088-0.326,0.213-0.627,0.375-0.904c0.164-0.273,0.361-0.514,0.594-0.719s0.496-0.365,0.792-0.477    c0.296-0.113,0.626-0.17,0.991-0.17c0.457,0,0.782,0.131,0.974,0.393s0.226,0.617,0.106,1.064L226.085,340h1.19l1.275-4.762    c0.105-0.393,0.161-0.75,0.168-1.072s-0.056-0.6-0.189-0.832c-0.134-0.234-0.342-0.416-0.624-0.547s-0.661-0.197-1.138-0.197    c-0.215,0-0.442,0.023-0.684,0.07c-0.242,0.047-0.481,0.119-0.717,0.217c-0.236,0.098-0.459,0.225-0.67,0.379    c-0.208,0.154-0.389,0.344-0.542,0.568h-0.028l1.024-3.824h-1.19l-2.68,10h1.19L223.566,335.91z"/>
	</g>
	
    </g>
</svg>
