<?xml version="1.0" encoding="iso-8859-1"?>
<!DOCTYPE svg PUBLIC "-//W3C//DTD SVG 1.1//EN" "http://www.w3.org/Graphics/SVG/1.1/DTD/svg11.dtd">
<svg version="1.1" xmlns="http://www.w3.org/2000/svg" xmlns:xlink="http://www.w3.org/1999/xlink" x="0px" y="0px" width="30" height="30" viewBox="0 0 30 30" xml:space="preserve">
    <g transform="translate(-390 -620)">
        <g xmlns="http://www.w3.org/2000/svg" xmlns:xlink="http://www.w3.org/1999/xlink" id="number-90-degree-7">
		<path d="M403.071,631.171c-0.295-0.114-0.629-0.171-0.999-0.171c-0.378,0-0.742,0.063-1.095,0.188    c-0.352,0.126-0.674,0.302-0.964,0.527c-0.291,0.226-0.54,0.496-0.751,0.811c-0.21,0.316-0.365,0.662-0.467,1.039    c-0.103,0.386-0.146,0.742-0.125,1.067c0.02,0.326,0.105,0.604,0.255,0.834s0.362,0.408,0.638,0.539    c0.277,0.129,0.616,0.194,1.016,0.194c0.386,0,0.768-0.099,1.146-0.295c0.378-0.196,0.701-0.461,0.968-0.795l0.017,0.022    c-0.306,1.03-0.67,1.794-1.093,2.294s-0.923,0.751-1.501,0.751c-0.378,0-0.676-0.104-0.895-0.312s-0.294-0.503-0.229-0.889h-0.943    c-0.123,0.682-0.012,1.189,0.337,1.521c0.347,0.334,0.851,0.501,1.51,0.501c0.956,0,1.748-0.365,2.377-1.095    s1.126-1.776,1.491-3.14c0.2-0.748,0.294-1.364,0.28-1.85c-0.016-0.485-0.108-0.868-0.277-1.149    C403.599,631.484,403.366,631.286,403.071,631.171z M402.945,633.633c-0.062,0.229-0.158,0.45-0.289,0.661    c-0.13,0.211-0.287,0.396-0.471,0.556s-0.388,0.285-0.611,0.377c-0.227,0.094-0.46,0.14-0.704,0.14    c-0.23,0-0.428-0.046-0.591-0.14c-0.165-0.092-0.295-0.216-0.39-0.371s-0.155-0.334-0.18-0.533c-0.024-0.2-0.007-0.408,0.05-0.623    c0.066-0.244,0.156-0.478,0.271-0.699c0.116-0.223,0.257-0.421,0.426-0.596c0.169-0.173,0.365-0.313,0.59-0.416    c0.224-0.104,0.477-0.156,0.759-0.156c0.266,0,0.485,0.049,0.661,0.145c0.174,0.098,0.308,0.229,0.399,0.395    c0.092,0.168,0.145,0.358,0.157,0.572C403.037,633.159,403.011,633.389,402.945,633.633z"/>
		<path d="M410.061,631.655c-0.14-0.2-0.338-0.359-0.599-0.479c-0.262-0.118-0.597-0.177-1.004-0.177s-0.773,0.059-1.097,0.177    c-0.325,0.119-0.61,0.278-0.856,0.479c-0.246,0.199-0.46,0.433-0.643,0.7c-0.182,0.267-0.344,0.548-0.481,0.844    c-0.14,0.297-0.258,0.6-0.356,0.911s-0.186,0.611-0.263,0.9c-0.078,0.288-0.151,0.589-0.22,0.899    c-0.068,0.312-0.112,0.615-0.132,0.912c-0.021,0.296-0.011,0.576,0.03,0.838c0.041,0.264,0.13,0.495,0.27,0.694    c0.139,0.201,0.339,0.358,0.602,0.474c0.261,0.114,0.597,0.172,1.004,0.172c0.415,0,0.781-0.058,1.102-0.172    c0.319-0.115,0.602-0.272,0.849-0.474c0.246-0.199,0.46-0.431,0.642-0.694c0.181-0.262,0.342-0.542,0.479-0.838    c0.14-0.297,0.258-0.601,0.356-0.912c0.098-0.311,0.186-0.611,0.263-0.899c0.078-0.289,0.15-0.589,0.22-0.9    c0.068-0.312,0.112-0.614,0.133-0.911c0.02-0.296,0.011-0.577-0.029-0.844C410.289,632.088,410.199,631.854,410.061,631.655z     M409.307,633.661c-0.028,0.233-0.072,0.466-0.132,0.699s-0.114,0.447-0.166,0.639c-0.08,0.297-0.178,0.629-0.293,0.995    c-0.117,0.367-0.269,0.711-0.456,1.033c-0.186,0.322-0.42,0.594-0.702,0.816s-0.622,0.334-1.022,0.334    c-0.399,0-0.682-0.111-0.844-0.334c-0.163-0.223-0.251-0.494-0.265-0.816s0.02-0.666,0.099-1.033    c0.08-0.366,0.159-0.698,0.239-0.995c0.051-0.191,0.11-0.405,0.177-0.639s0.146-0.466,0.243-0.699    c0.095-0.233,0.205-0.462,0.327-0.684c0.122-0.223,0.268-0.417,0.434-0.584c0.168-0.166,0.358-0.302,0.57-0.405    c0.213-0.104,0.453-0.156,0.72-0.156s0.479,0.053,0.637,0.156c0.156,0.104,0.274,0.239,0.352,0.405    c0.078,0.167,0.118,0.361,0.121,0.584C409.349,633.199,409.336,633.428,409.307,633.661z"/>
		<path d="M405,621c-7.732,0-14,6.269-14,14s6.268,14,14,14s14-6.269,14-14S412.732,621,405,621z M405,648c-7.168,0-13-5.832-13-13    s5.832-13,13-13s13,5.832,13,13S412.168,648,405,648z"/>
		<path d="M412.5,629c-0.828,0-1.5,0.671-1.5,1.5s0.672,1.5,1.5,1.5s1.5-0.671,1.5-1.5S413.328,629,412.5,629z M412.5,631    c-0.276,0-0.5-0.224-0.5-0.5s0.224-0.5,0.5-0.5s0.5,0.224,0.5,0.5S412.776,631,412.5,631z"/>
	</g>
	
    </g>
</svg>
