<?xml version="1.0" encoding="iso-8859-1"?>
<!DOCTYPE svg PUBLIC "-//W3C//DTD SVG 1.1//EN" "http://www.w3.org/Graphics/SVG/1.1/DTD/svg11.dtd">
<svg version="1.1" xmlns="http://www.w3.org/2000/svg" xmlns:xlink="http://www.w3.org/1999/xlink" x="0px" y="0px" width="30" height="30" viewBox="0 0 30 30" xml:space="preserve">
    <g transform="translate(-150 -80)">
        <g xmlns="http://www.w3.org/2000/svg" xmlns:xlink="http://www.w3.org/1999/xlink" id="number-3-7">
		<path d="M165,107c6.627,0,12-5.373,12-12s-5.373-12-12-12s-12,5.373-12,12S158.373,107,165,107z M165,84c6.065,0,11,4.935,11,11    s-4.935,11-11,11s-11-4.935-11-11S158.935,84,165,84z"/>
		<path d="M167.443,97.47c0.348-1.354-0.365-2.247-1.496-2.47l0.008-0.03c1.292-0.431,2.129-1.279,2.4-2.292    c0.314-1.176-0.246-2.307-2.15-2.307c-1.041,0-2.123,0.372-2.744,0.744l0.103,0.952c0.496-0.297,1.331-0.64,2.106-0.64    c1.204,0,1.513,0.685,1.305,1.458c-0.307,1.146-1.644,1.637-2.596,1.637h-0.729l-0.264,0.982h0.729    c1.266,0,2.33,0.581,1.982,1.935c-0.205,0.818-1.023,1.875-2.69,1.875c-0.923,0-1.671-0.372-1.983-0.595l-0.624,0.997    c0.393,0.313,1.253,0.655,2.339,0.655C165.445,100.372,167.029,99.018,167.443,97.47z"/>
	</g>
	
    </g>
</svg>
