<?xml version="1.0" encoding="iso-8859-1"?>
<!DOCTYPE svg PUBLIC "-//W3C//DTD SVG 1.1//EN" "http://www.w3.org/Graphics/SVG/1.1/DTD/svg11.dtd">
<svg version="1.1" xmlns="http://www.w3.org/2000/svg" xmlns:xlink="http://www.w3.org/1999/xlink" x="0px" y="0px" width="30" height="30" viewBox="0 0 30 30" xml:space="preserve">
    <g transform="translate(-210 -620)">
        <g xmlns="http://www.w3.org/2000/svg" xmlns:xlink="http://www.w3.org/1999/xlink" id="number-270-degree-7">
		<path d="M220.555,631.592c-0.174-0.192-0.398-0.339-0.678-0.44c-0.277-0.102-0.588-0.151-0.934-0.151    c-0.422,0-0.817,0.071-1.188,0.213c-0.368,0.145-0.698,0.342-0.987,0.593c-0.29,0.253-0.534,0.552-0.731,0.897    s-0.341,0.723-0.427,1.129h0.96c0.057-0.24,0.145-0.479,0.265-0.717c0.12-0.236,0.27-0.45,0.447-0.638    c0.179-0.188,0.383-0.34,0.614-0.457c0.23-0.116,0.484-0.176,0.764-0.176c0.209,0,0.4,0.035,0.57,0.103    c0.17,0.068,0.307,0.165,0.412,0.292c0.104,0.13,0.175,0.282,0.21,0.459c0.036,0.176,0.024,0.374-0.034,0.592    c-0.074,0.277-0.184,0.523-0.326,0.734c-0.143,0.21-0.323,0.405-0.541,0.586c-0.218,0.182-0.479,0.359-0.781,0.536    s-0.652,0.37-1.047,0.58c-0.323,0.167-0.639,0.344-0.943,0.532c-0.307,0.188-0.594,0.405-0.865,0.654    c-0.269,0.248-0.515,0.54-0.735,0.874c-0.222,0.335-0.415,0.74-0.579,1.213h5.226l0.227-0.846h-4.108    c0.111-0.248,0.268-0.469,0.465-0.66c0.197-0.192,0.423-0.371,0.674-0.536c0.252-0.166,0.521-0.321,0.809-0.469    c0.287-0.146,0.576-0.294,0.863-0.445c0.291-0.157,0.576-0.324,0.855-0.496c0.28-0.173,0.539-0.367,0.777-0.582    c0.238-0.214,0.447-0.457,0.629-0.729c0.182-0.27,0.32-0.582,0.415-0.936c0.101-0.377,0.124-0.707,0.068-0.993    C220.845,632.022,220.73,631.783,220.555,631.592z"/>
		<path d="M227.355,631h-5.268l-0.246,0.918h4.27c-0.549,0.452-1.082,0.945-1.596,1.481c-0.516,0.535-0.994,1.104-1.438,1.703    c-0.444,0.602-0.844,1.229-1.198,1.883c-0.355,0.654-0.648,1.326-0.879,2.015h1.09c0.209-0.635,0.492-1.288,0.848-1.962    c0.356-0.674,0.76-1.328,1.209-1.963s0.93-1.232,1.438-1.79c0.51-0.56,1.025-1.041,1.548-1.448L227.355,631z"/>
		<path d="M232.161,631.655c-0.14-0.2-0.339-0.359-0.599-0.479c-0.262-0.118-0.596-0.177-1.004-0.177    c-0.406,0-0.772,0.059-1.097,0.177c-0.325,0.119-0.61,0.278-0.856,0.479s-0.461,0.433-0.643,0.7    c-0.183,0.267-0.344,0.548-0.482,0.844c-0.139,0.297-0.257,0.6-0.355,0.911c-0.098,0.312-0.186,0.611-0.264,0.9    c-0.076,0.288-0.15,0.589-0.219,0.899c-0.068,0.312-0.112,0.615-0.133,0.912c-0.02,0.296-0.01,0.576,0.031,0.838    c0.041,0.264,0.131,0.495,0.27,0.694c0.139,0.201,0.339,0.358,0.602,0.474c0.262,0.114,0.596,0.172,1.004,0.172    c0.414,0,0.781-0.058,1.102-0.172c0.319-0.115,0.602-0.272,0.849-0.474c0.245-0.199,0.46-0.431,0.642-0.694    c0.182-0.262,0.342-0.542,0.48-0.838c0.139-0.297,0.257-0.601,0.355-0.912c0.098-0.311,0.186-0.611,0.263-0.899    c0.077-0.289,0.151-0.589,0.22-0.9s0.111-0.614,0.133-0.911c0.02-0.296,0.01-0.577-0.029-0.844    C232.39,632.088,232.301,631.855,232.161,631.655z M231.407,633.661c-0.028,0.233-0.073,0.466-0.132,0.699    s-0.115,0.447-0.166,0.639c-0.079,0.297-0.178,0.629-0.294,0.995c-0.116,0.367-0.269,0.711-0.454,1.033    c-0.188,0.322-0.421,0.594-0.703,0.816c-0.281,0.223-0.623,0.334-1.022,0.334c-0.4,0-0.682-0.111-0.844-0.334    c-0.163-0.223-0.251-0.494-0.265-0.816s0.02-0.666,0.099-1.033c0.079-0.366,0.159-0.698,0.239-0.995    c0.051-0.191,0.11-0.405,0.176-0.639c0.066-0.233,0.148-0.466,0.244-0.699s0.205-0.462,0.328-0.684    c0.122-0.223,0.267-0.417,0.434-0.584c0.166-0.166,0.356-0.302,0.569-0.405s0.452-0.156,0.72-0.156    c0.267,0,0.479,0.053,0.636,0.156c0.158,0.104,0.274,0.239,0.353,0.405c0.078,0.167,0.118,0.361,0.122,0.584    C231.449,633.199,231.436,633.428,231.407,633.661z"/>
		<path d="M225,621c-7.732,0-14,6.269-14,14s6.268,14,14,14s14-6.269,14-14S232.732,621,225,621z M225,648c-7.168,0-13-5.832-13-13    s5.832-13,13-13s13,5.832,13,13S232.168,648,225,648z"/>
		<path d="M233,630.5c0,0.829,0.672,1.5,1.5,1.5s1.5-0.671,1.5-1.5s-0.672-1.5-1.5-1.5S233,629.671,233,630.5z M234.5,630    c0.276,0,0.5,0.224,0.5,0.5s-0.224,0.5-0.5,0.5s-0.5-0.224-0.5-0.5S234.224,630,234.5,630z"/>
	</g>
	
    </g>
</svg>
