<?xml version="1.0" encoding="iso-8859-1"?>
<!DOCTYPE svg PUBLIC "-//W3C//DTD SVG 1.1//EN" "http://www.w3.org/Graphics/SVG/1.1/DTD/svg11.dtd">
<svg version="1.1" xmlns="http://www.w3.org/2000/svg" xmlns:xlink="http://www.w3.org/1999/xlink" x="0px" y="0px" width="30" height="30" viewBox="0 0 30 30" xml:space="preserve">
    <g transform="translate(-90 -620)">
        <g xmlns="http://www.w3.org/2000/svg" xmlns:xlink="http://www.w3.org/1999/xlink" id="number-720-degree-7">
		<path d="M105,621c-7.732,0-14,6.269-14,14s6.268,14,14,14s14-6.269,14-14S112.732,621,105,621z M105,648c-7.168,0-13-5.832-13-13    s5.832-13,13-13s13,5.832,13,13S112.168,648,105,648z"/>
		<path d="M100.432,631.838l0.224-0.838h-5.268l-0.245,0.919h4.269c-0.55,0.451-1.081,0.945-1.597,1.479    c-0.514,0.537-0.993,1.104-1.438,1.704c-0.443,0.602-0.844,1.229-1.199,1.883c-0.354,0.654-0.648,1.326-0.878,2.015h1.091    c0.208-0.635,0.49-1.289,0.847-1.962c0.356-0.674,0.76-1.328,1.209-1.962c0.449-0.637,0.929-1.233,1.438-1.79    C99.394,632.727,99.908,632.244,100.432,631.838z"/>
		<path d="M105.928,631.593c-0.175-0.192-0.4-0.34-0.679-0.439c-0.276-0.104-0.589-0.153-0.935-0.153    c-0.422,0-0.816,0.072-1.186,0.214c-0.369,0.145-0.699,0.342-0.988,0.593c-0.289,0.253-0.533,0.552-0.73,0.896    c-0.198,0.346-0.341,0.724-0.428,1.128h0.959c0.058-0.239,0.146-0.479,0.267-0.715s0.269-0.45,0.446-0.638    c0.18-0.188,0.383-0.34,0.613-0.457c0.23-0.116,0.485-0.176,0.764-0.176c0.211,0,0.401,0.035,0.57,0.102    c0.17,0.069,0.309,0.167,0.412,0.294c0.105,0.128,0.176,0.281,0.211,0.457c0.035,0.177,0.023,0.374-0.035,0.592    c-0.074,0.278-0.184,0.523-0.326,0.734c-0.143,0.21-0.322,0.405-0.541,0.586c-0.217,0.181-0.478,0.358-0.781,0.537    c-0.303,0.176-0.651,0.369-1.047,0.579c-0.322,0.166-0.637,0.344-0.941,0.531c-0.307,0.188-0.594,0.406-0.865,0.655    c-0.269,0.248-0.515,0.539-0.736,0.874c-0.221,0.335-0.414,0.738-0.578,1.213h5.224l0.228-0.847h-4.107    c0.111-0.248,0.267-0.468,0.465-0.66c0.197-0.191,0.422-0.37,0.674-0.535c0.251-0.166,0.521-0.322,0.808-0.469    c0.288-0.146,0.575-0.294,0.864-0.444c0.291-0.159,0.576-0.325,0.854-0.498c0.28-0.172,0.538-0.366,0.776-0.58    c0.238-0.215,0.447-0.458,0.63-0.729c0.182-0.27,0.319-0.582,0.415-0.935c0.1-0.378,0.123-0.707,0.067-0.993    C106.217,632.023,106.102,631.784,105.928,631.593z"/>
		<path d="M112.162,631.656c-0.14-0.2-0.34-0.359-0.6-0.479c-0.262-0.118-0.596-0.178-1.004-0.178c-0.406,0-0.772,0.06-1.097,0.178    c-0.325,0.119-0.61,0.278-0.856,0.479c-0.246,0.198-0.461,0.433-0.643,0.698c-0.183,0.269-0.344,0.55-0.482,0.846    c-0.139,0.297-0.257,0.6-0.355,0.911c-0.098,0.312-0.186,0.612-0.263,0.899c-0.077,0.289-0.151,0.59-0.22,0.9    c-0.068,0.313-0.112,0.615-0.133,0.912c-0.02,0.296-0.01,0.576,0.031,0.838c0.041,0.264,0.131,0.495,0.27,0.693    c0.139,0.202,0.339,0.359,0.602,0.475c0.262,0.114,0.596,0.171,1.004,0.171c0.414,0,0.781-0.057,1.102-0.171    c0.319-0.115,0.602-0.272,0.849-0.475c0.246-0.198,0.46-0.43,0.642-0.693c0.182-0.262,0.342-0.542,0.48-0.838    c0.139-0.297,0.257-0.6,0.355-0.912c0.098-0.311,0.186-0.611,0.264-0.9c0.076-0.287,0.15-0.588,0.219-0.899    s0.112-0.614,0.133-0.911c0.02-0.296,0.01-0.577-0.029-0.846C112.39,632.089,112.301,631.854,112.162,631.656z M111.407,633.662    c-0.028,0.233-0.073,0.466-0.132,0.699s-0.114,0.446-0.166,0.639c-0.079,0.297-0.178,0.63-0.294,0.995    c-0.116,0.367-0.269,0.711-0.454,1.033c-0.188,0.322-0.421,0.594-0.702,0.816c-0.282,0.223-0.623,0.334-1.023,0.334    c-0.399,0-0.681-0.111-0.844-0.334s-0.251-0.494-0.265-0.816s0.02-0.666,0.099-1.033c0.079-0.365,0.159-0.698,0.239-0.995    c0.051-0.192,0.11-0.405,0.176-0.639c0.066-0.233,0.148-0.466,0.244-0.699s0.205-0.462,0.328-0.684    c0.122-0.223,0.267-0.417,0.434-0.583c0.166-0.167,0.356-0.303,0.57-0.406c0.212-0.104,0.452-0.156,0.719-0.156    c0.268,0,0.479,0.053,0.637,0.156c0.157,0.104,0.274,0.239,0.352,0.406c0.078,0.166,0.119,0.36,0.122,0.583    C111.449,633.2,111.437,633.429,111.407,633.662z"/>
		<path d="M113,630.5c0,0.829,0.672,1.5,1.5,1.5s1.5-0.671,1.5-1.5s-0.672-1.5-1.5-1.5S113,629.671,113,630.5z M114.5,630    c0.276,0,0.5,0.224,0.5,0.5s-0.224,0.5-0.5,0.5s-0.5-0.224-0.5-0.5S114.224,630,114.5,630z"/>
	</g>
	
    </g>
</svg>
