<?xml version="1.0" encoding="iso-8859-1"?>
<!DOCTYPE svg PUBLIC "-//W3C//DTD SVG 1.1//EN" "http://www.w3.org/Graphics/SVG/1.1/DTD/svg11.dtd">
<svg version="1.1" xmlns="http://www.w3.org/2000/svg" xmlns:xlink="http://www.w3.org/1999/xlink" x="0px" y="0px" width="30" height="30" viewBox="0 0 30 30" xml:space="preserve">
    <g transform="translate(-270 -80)">
        <g xmlns="http://www.w3.org/2000/svg" xmlns:xlink="http://www.w3.org/1999/xlink" id="number-5-7">
		<path d="M285,107c6.627,0,12-5.373,12-12s-5.373-12-12-12s-12,5.373-12,12S278.373,107,285,107z M285,84c6.065,0,11,4.935,11,11    s-4.935,11-11,11s-11-4.935-11-11S278.935,84,285,84z"/>
		<path d="M287.633,96.642c0.328-1.225-0.076-2.087-0.733-2.511c-0.504-0.378-1.205-0.53-1.976-0.53    c-0.363,0-0.58,0.016-0.814,0.045l1.055-2.526h3.752l0.301-1.12h-4.705l-1.9,4.72c0.375-0.045,0.826-0.091,1.4-0.091    c1.951,0,2.574,0.893,2.234,2.164c-0.338,1.316-1.646,2.133-2.887,2.133c-0.907,0-1.629-0.302-1.972-0.544l-0.604,1.014    c0.403,0.303,1.215,0.605,2.289,0.605C285.205,100,287.118,98.563,287.633,96.642z"/>
	</g>
	
    </g>
</svg>
