<?xml version="1.0" encoding="iso-8859-1"?>
<!DOCTYPE svg PUBLIC "-//W3C//DTD SVG 1.1//EN" "http://www.w3.org/Graphics/SVG/1.1/DTD/svg11.dtd">
<svg version="1.1" xmlns="http://www.w3.org/2000/svg" xmlns:xlink="http://www.w3.org/1999/xlink" x="0px" y="0px" width="30" height="30" viewBox="0 0 30 30" xml:space="preserve">
    <g transform="translate(-150 -620)">
        <g xmlns="http://www.w3.org/2000/svg" xmlns:xlink="http://www.w3.org/1999/xlink" id="number-360-degree-7">
		<path d="M159.766,631.512c-0.169-0.17-0.389-0.299-0.658-0.384S158.532,631,158.191,631c-0.393,0-0.756,0.063-1.09,0.189    c-0.333,0.126-0.629,0.299-0.889,0.521s-0.485,0.489-0.677,0.801c-0.19,0.311-0.343,0.655-0.46,1.033h0.945    c0.061-0.229,0.149-0.448,0.264-0.655c0.115-0.207,0.254-0.389,0.418-0.545c0.164-0.155,0.354-0.279,0.566-0.372    c0.215-0.093,0.447-0.14,0.699-0.14c0.4,0,0.705,0.106,0.914,0.317c0.211,0.211,0.26,0.527,0.146,0.95    c-0.056,0.208-0.146,0.393-0.271,0.556s-0.271,0.298-0.437,0.405c-0.165,0.107-0.347,0.188-0.543,0.244s-0.396,0.084-0.595,0.084    h-0.2c-0.037,0-0.073,0-0.11,0c-0.03,0-0.063-0.004-0.098-0.012l-0.214,0.8c0.183-0.021,0.376-0.033,0.575-0.033    c0.237,0,0.449,0.032,0.636,0.095c0.188,0.063,0.337,0.159,0.45,0.289s0.189,0.289,0.228,0.479    c0.039,0.188,0.024,0.404-0.04,0.648c-0.064,0.238-0.168,0.451-0.311,0.64c-0.143,0.189-0.311,0.349-0.5,0.478    c-0.191,0.13-0.398,0.229-0.625,0.3c-0.227,0.071-0.455,0.106-0.684,0.106c-0.541,0-0.909-0.161-1.104-0.484    c-0.196-0.321-0.232-0.738-0.11-1.249h-0.944c-0.117,0.407-0.156,0.771-0.119,1.089c0.037,0.317,0.141,0.587,0.313,0.806    c0.17,0.219,0.404,0.383,0.699,0.494c0.297,0.111,0.645,0.166,1.045,0.166c0.37,0,0.733-0.049,1.09-0.149    c0.356-0.1,0.684-0.25,0.982-0.449c0.298-0.201,0.559-0.451,0.784-0.751c0.225-0.3,0.39-0.646,0.495-1.039    c0.127-0.474,0.12-0.885-0.02-1.233c-0.141-0.348-0.438-0.573-0.891-0.677l0.006-0.023c0.349-0.14,0.664-0.348,0.944-0.622    c0.281-0.273,0.469-0.589,0.563-0.943c0.098-0.364,0.121-0.679,0.07-0.945S159.936,631.683,159.766,631.512z"/>
		<path d="M164.758,631c-0.563,0-1.061,0.119-1.494,0.355c-0.435,0.237-0.814,0.552-1.143,0.945    c-0.327,0.393-0.605,0.842-0.834,1.35s-0.415,1.031-0.561,1.572c-0.11,0.415-0.195,0.845-0.25,1.289    c-0.057,0.444-0.038,0.852,0.056,1.222c0.093,0.371,0.286,0.675,0.577,0.912c0.293,0.236,0.731,0.354,1.316,0.354    c0.496,0,0.936-0.083,1.317-0.249c0.382-0.167,0.708-0.378,0.98-0.634c0.272-0.255,0.495-0.539,0.667-0.851    c0.172-0.311,0.297-0.611,0.375-0.899c0.097-0.362,0.131-0.7,0.104-1.011c-0.027-0.312-0.113-0.582-0.255-0.812    c-0.143-0.229-0.346-0.409-0.61-0.539c-0.266-0.13-0.588-0.194-0.965-0.194c-0.43,0-0.832,0.082-1.205,0.244    c-0.373,0.163-0.719,0.426-1.039,0.789l-0.016-0.021c0.088-0.305,0.205-0.63,0.35-0.978c0.146-0.349,0.327-0.673,0.545-0.974    c0.217-0.299,0.475-0.548,0.771-0.744s0.646-0.295,1.045-0.295c0.379,0,0.653,0.108,0.825,0.323    c0.173,0.214,0.233,0.5,0.182,0.855h0.944c0.116-0.652,0.027-1.15-0.266-1.495S165.41,631,164.758,631z M161.82,635.728    c0.127-0.218,0.284-0.406,0.468-0.565c0.183-0.159,0.388-0.286,0.612-0.378c0.225-0.093,0.471-0.14,0.737-0.14    s0.487,0.049,0.661,0.145c0.174,0.097,0.307,0.225,0.396,0.384c0.092,0.159,0.139,0.348,0.143,0.566    c0.005,0.219-0.025,0.45-0.091,0.695c-0.062,0.229-0.155,0.449-0.282,0.661c-0.127,0.21-0.279,0.397-0.456,0.561    s-0.376,0.291-0.597,0.383c-0.223,0.094-0.463,0.14-0.721,0.14c-0.26,0-0.479-0.046-0.658-0.14    c-0.179-0.092-0.316-0.216-0.411-0.371c-0.095-0.156-0.151-0.341-0.168-0.557c-0.017-0.214,0.008-0.443,0.073-0.688    C161.594,636.179,161.691,635.947,161.82,635.728z"/>
		<path d="M172.305,631.656c-0.139-0.2-0.338-0.359-0.599-0.479c-0.262-0.118-0.596-0.178-1.003-0.178s-0.773,0.06-1.098,0.178    c-0.324,0.119-0.609,0.278-0.855,0.479c-0.246,0.199-0.461,0.433-0.644,0.699c-0.183,0.268-0.343,0.549-0.481,0.845    c-0.139,0.297-0.258,0.6-0.355,0.911c-0.099,0.312-0.186,0.611-0.264,0.9c-0.077,0.288-0.15,0.589-0.219,0.899    c-0.068,0.312-0.113,0.615-0.133,0.912c-0.021,0.296-0.01,0.576,0.031,0.838c0.04,0.264,0.129,0.495,0.27,0.694    c0.139,0.201,0.338,0.358,0.601,0.474c0.262,0.114,0.597,0.171,1.004,0.171c0.415,0,0.782-0.057,1.102-0.171    c0.319-0.115,0.603-0.272,0.849-0.474c0.246-0.199,0.461-0.431,0.643-0.694c0.182-0.262,0.341-0.542,0.479-0.838    c0.139-0.297,0.257-0.601,0.356-0.912c0.098-0.311,0.186-0.611,0.262-0.899c0.078-0.289,0.151-0.589,0.22-0.9    s0.112-0.614,0.133-0.911c0.021-0.296,0.011-0.577-0.028-0.845C172.533,632.089,172.444,631.855,172.305,631.656z     M171.551,633.662c-0.028,0.232-0.073,0.466-0.131,0.699c-0.06,0.233-0.115,0.447-0.166,0.639    c-0.08,0.297-0.178,0.629-0.295,0.995c-0.116,0.366-0.268,0.711-0.454,1.033s-0.421,0.594-0.702,0.816    c-0.282,0.223-0.623,0.334-1.023,0.334s-0.682-0.111-0.844-0.334s-0.25-0.494-0.264-0.816s0.019-0.667,0.098-1.033    c0.08-0.366,0.16-0.698,0.24-0.995c0.051-0.191,0.109-0.405,0.176-0.639s0.147-0.467,0.243-0.699    c0.097-0.233,0.205-0.462,0.328-0.684c0.122-0.223,0.267-0.417,0.435-0.584c0.166-0.166,0.355-0.302,0.568-0.405    s0.453-0.156,0.72-0.156s0.479,0.053,0.636,0.156c0.158,0.104,0.275,0.239,0.354,0.405c0.078,0.167,0.117,0.361,0.121,0.584    C171.594,633.2,171.58,633.429,171.551,633.662z"/>
		<path d="M165,621c-7.732,0-14,6.269-14,14s6.268,14,14,14s14-6.269,14-14S172.732,621,165,621z M165,648c-7.168,0-13-5.832-13-13    s5.832-13,13-13s13,5.832,13,13S172.168,648,165,648z"/>
		<path d="M173,630.5c0,0.829,0.672,1.5,1.5,1.5s1.5-0.671,1.5-1.5s-0.672-1.5-1.5-1.5S173,629.671,173,630.5z M174.5,630    c0.276,0,0.5,0.224,0.5,0.5s-0.224,0.5-0.5,0.5s-0.5-0.224-0.5-0.5S174.224,630,174.5,630z"/>
	</g>
	
    </g>
</svg>
