<?xml version="1.0" encoding="iso-8859-1"?>
<!DOCTYPE svg PUBLIC "-//W3C//DTD SVG 1.1//EN" "http://www.w3.org/Graphics/SVG/1.1/DTD/svg11.dtd">
<svg version="1.1" xmlns="http://www.w3.org/2000/svg" xmlns:xlink="http://www.w3.org/1999/xlink" x="0px" y="0px" width="30" height="30" viewBox="0 0 30 30" xml:space="preserve">
    <g transform="translate(-510 -440)">
        <g xmlns="http://www.w3.org/2000/svg" xmlns:xlink="http://www.w3.org/1999/xlink" id="number-50percent-7">
		<path d="M523.751,457.17c-0.19-0.113-0.452-0.17-0.79-0.17c-0.33,0-0.621,0.059-0.876,0.178c-0.254,0.117-0.477,0.277-0.667,0.479    s-0.351,0.432-0.475,0.693c-0.129,0.262-0.233,0.541-0.313,0.836c-0.078,0.293-0.123,0.57-0.13,0.828    c-0.009,0.258,0.03,0.484,0.115,0.68c0.085,0.193,0.222,0.346,0.414,0.457c0.193,0.111,0.452,0.166,0.774,0.166    c0.316,0,0.598-0.061,0.845-0.182c0.248-0.123,0.471-0.281,0.662-0.48c0.191-0.197,0.354-0.426,0.487-0.688    c0.129-0.262,0.233-0.535,0.308-0.814c0.079-0.293,0.128-0.572,0.144-0.834c0.018-0.262-0.015-0.49-0.096-0.684    S523.938,457.287,523.751,457.17z M523.409,458.643c-0.031,0.184-0.066,0.352-0.109,0.51c-0.044,0.166-0.103,0.342-0.175,0.529    c-0.071,0.186-0.161,0.355-0.27,0.51c-0.111,0.154-0.239,0.283-0.388,0.383c-0.151,0.1-0.329,0.15-0.536,0.15    c-0.201,0-0.348-0.051-0.438-0.156c-0.09-0.104-0.146-0.234-0.17-0.387c-0.025-0.154-0.019-0.324,0.011-0.508    c0.032-0.184,0.067-0.352,0.109-0.51c0.045-0.166,0.103-0.338,0.173-0.521c0.071-0.184,0.163-0.354,0.271-0.508    c0.109-0.154,0.239-0.281,0.389-0.387s0.327-0.156,0.526-0.156c0.209,0,0.357,0.051,0.448,0.156s0.146,0.232,0.172,0.387    C523.443,458.289,523.441,458.459,523.409,458.643z"/>
		<path d="M528.495,460.865c-0.188-0.115-0.451-0.172-0.787-0.172c-0.332,0-0.624,0.061-0.878,0.178s-0.477,0.277-0.666,0.48    c-0.19,0.199-0.35,0.43-0.479,0.691c-0.126,0.262-0.231,0.543-0.31,0.836s-0.122,0.57-0.128,0.828    c-0.012,0.26,0.028,0.484,0.114,0.674s0.225,0.342,0.418,0.451c0.19,0.113,0.449,0.168,0.773,0.168    c0.316,0,0.598-0.059,0.845-0.178c0.246-0.119,0.464-0.275,0.658-0.475c0.193-0.195,0.356-0.426,0.487-0.688    c0.13-0.262,0.234-0.535,0.31-0.813c0.078-0.295,0.126-0.574,0.142-0.836c0.018-0.262-0.016-0.49-0.097-0.684    C528.818,461.135,528.684,460.98,528.495,460.865z M528.154,462.336c-0.029,0.184-0.067,0.352-0.109,0.512    c-0.044,0.164-0.102,0.34-0.173,0.527c-0.073,0.186-0.162,0.355-0.273,0.51c-0.107,0.154-0.238,0.283-0.388,0.383    c-0.147,0.1-0.325,0.15-0.532,0.15c-0.203,0-0.35-0.051-0.438-0.156c-0.09-0.104-0.148-0.234-0.172-0.387    c-0.023-0.154-0.021-0.324,0.012-0.506c0.032-0.184,0.067-0.354,0.11-0.512c0.044-0.166,0.103-0.338,0.171-0.521    c0.072-0.184,0.16-0.352,0.272-0.508c0.107-0.152,0.237-0.281,0.389-0.387c0.149-0.105,0.323-0.156,0.526-0.156    c0.207,0,0.357,0.051,0.446,0.156c0.091,0.105,0.148,0.234,0.172,0.387C528.189,461.984,528.188,462.152,528.154,462.336z"/>
		<polygon points="520.374,465 521.3,465 529.227,457 528.311,457   "/>
		<path d="M525,441c-7.732,0-14,6.268-14,14s6.268,14,14,14s14-6.268,14-14S532.732,441,525,441z M525,468c-7.169,0-13-5.831-13-13    s5.831-13,13-13s13,5.831,13,13S532.169,468,525,468z"/>
		<path d="M522.099,454.779c0.39-0.146,0.736-0.345,1.036-0.594c0.3-0.248,0.551-0.532,0.754-0.852c0.201-0.321,0.35-0.65,0.44-0.99    c0.123-0.459,0.162-0.859,0.117-1.203c-0.043-0.342-0.15-0.628-0.322-0.858c-0.173-0.229-0.401-0.4-0.688-0.514    c-0.287-0.113-0.605-0.17-0.959-0.17c-0.271,0-0.558,0.048-0.857,0.142c-0.301,0.094-0.564,0.239-0.789,0.435l-0.018-0.021    l1.047-2.307h3.231l0.228-0.847h-3.954l-1.859,4.158l0.813,0.044c0.248-0.225,0.515-0.407,0.796-0.548    c0.281-0.139,0.581-0.208,0.898-0.208c0.271,0,0.505,0.045,0.702,0.136c0.199,0.09,0.355,0.217,0.471,0.378    c0.115,0.162,0.186,0.354,0.212,0.576c0.027,0.223,0.005,0.466-0.065,0.729c-0.084,0.316-0.203,0.594-0.358,0.831    c-0.152,0.237-0.328,0.435-0.525,0.593c-0.197,0.157-0.41,0.276-0.638,0.355c-0.229,0.079-0.455,0.119-0.682,0.119    c-0.241,0-0.452-0.036-0.632-0.108c-0.182-0.071-0.327-0.173-0.438-0.305c-0.11-0.131-0.188-0.286-0.227-0.463    s-0.039-0.367,0.001-0.571h-0.961c-0.089,0.361-0.104,0.687-0.044,0.973c0.059,0.286,0.179,0.525,0.36,0.717    c0.181,0.192,0.411,0.34,0.688,0.44c0.278,0.103,0.591,0.153,0.937,0.153C521.281,455,521.71,454.926,522.099,454.779z"/>
		<path d="M530.893,447.655c-0.139-0.2-0.338-0.359-0.599-0.479c-0.261-0.118-0.596-0.177-1.003-0.177    c-0.408,0-0.773,0.059-1.097,0.177c-0.325,0.119-0.61,0.278-0.856,0.479c-0.246,0.199-0.46,0.433-0.644,0.7    c-0.183,0.267-0.343,0.548-0.48,0.844c-0.14,0.297-0.258,0.6-0.355,0.911c-0.1,0.312-0.187,0.611-0.264,0.9    c-0.077,0.288-0.151,0.589-0.219,0.899c-0.068,0.312-0.113,0.615-0.133,0.912c-0.021,0.296-0.011,0.576,0.03,0.838    c0.04,0.264,0.13,0.495,0.27,0.694c0.139,0.201,0.339,0.358,0.601,0.474c0.262,0.114,0.596,0.172,1.004,0.172    c0.415,0,0.782-0.058,1.101-0.172c0.321-0.115,0.604-0.272,0.85-0.474c0.247-0.199,0.46-0.431,0.643-0.694    c0.182-0.262,0.342-0.542,0.48-0.838c0.138-0.297,0.257-0.601,0.354-0.912c0.099-0.311,0.187-0.611,0.264-0.899    c0.077-0.289,0.15-0.589,0.219-0.9s0.112-0.614,0.134-0.911c0.02-0.296,0.01-0.577-0.03-0.844    C531.122,448.088,531.033,447.854,530.893,447.655z M530.14,449.661c-0.03,0.233-0.073,0.466-0.132,0.699    c-0.06,0.233-0.114,0.447-0.166,0.639c-0.079,0.297-0.178,0.629-0.295,0.995c-0.116,0.367-0.268,0.711-0.454,1.033    s-0.42,0.594-0.702,0.816s-0.623,0.334-1.022,0.334s-0.682-0.111-0.845-0.334c-0.161-0.223-0.25-0.494-0.265-0.816    c-0.013-0.322,0.02-0.666,0.1-1.033c0.079-0.366,0.16-0.698,0.239-0.995c0.052-0.191,0.11-0.405,0.176-0.639    c0.066-0.233,0.147-0.466,0.244-0.699c0.095-0.233,0.205-0.462,0.327-0.684c0.123-0.223,0.267-0.417,0.435-0.584    c0.166-0.166,0.357-0.302,0.568-0.405c0.213-0.104,0.454-0.156,0.721-0.156s0.479,0.053,0.636,0.156s0.274,0.239,0.354,0.405    c0.077,0.167,0.117,0.361,0.121,0.584C530.182,449.199,530.169,449.428,530.14,449.661z"/>
	</g>
	
    </g>
</svg>
