<?xml version="1.0" encoding="iso-8859-1"?>
<!DOCTYPE svg PUBLIC "-//W3C//DTD SVG 1.1//EN" "http://www.w3.org/Graphics/SVG/1.1/DTD/svg11.dtd">
<svg version="1.1" xmlns="http://www.w3.org/2000/svg" xmlns:xlink="http://www.w3.org/1999/xlink" x="0px" y="0px" width="30" height="30" viewBox="0 0 30 30" xml:space="preserve">
    <g transform="translate(-270 -620)">
        <g xmlns="http://www.w3.org/2000/svg" xmlns:xlink="http://www.w3.org/1999/xlink" id="number-180-degree-7">
		<path d="M278.417,631.745c-0.196,0.195-0.412,0.35-0.649,0.462c-0.236,0.113-0.488,0.19-0.756,0.231    c-0.267,0.042-0.535,0.062-0.807,0.062L276,633.269h2.076L276.541,639h0.959l2.143-8h-0.732    C278.776,631.301,278.611,631.549,278.417,631.745z"/>
		<path d="M285.746,631.627c-0.138-0.188-0.344-0.341-0.617-0.456c-0.272-0.114-0.624-0.171-1.053-0.171    c-0.305,0-0.607,0.044-0.908,0.133c-0.302,0.089-0.582,0.219-0.844,0.389c-0.261,0.171-0.486,0.38-0.68,0.628    c-0.192,0.248-0.332,0.536-0.42,0.861c-0.094,0.355-0.082,0.684,0.037,0.982c0.12,0.301,0.328,0.518,0.626,0.65    c-0.485,0.155-0.894,0.406-1.224,0.751c-0.329,0.344-0.557,0.749-0.681,1.216c-0.108,0.4-0.134,0.751-0.075,1.05    c0.057,0.301,0.178,0.551,0.365,0.751c0.187,0.199,0.43,0.348,0.73,0.443c0.3,0.097,0.639,0.146,1.018,0.146    c0.362,0,0.717-0.052,1.063-0.156c0.346-0.103,0.663-0.257,0.951-0.461c0.288-0.203,0.54-0.454,0.757-0.75    s0.376-0.637,0.479-1.022c0.13-0.488,0.126-0.901-0.013-1.239c-0.139-0.337-0.426-0.579-0.86-0.728    c0.373-0.148,0.696-0.368,0.972-0.661c0.274-0.292,0.459-0.616,0.555-0.972c0.067-0.252,0.089-0.498,0.064-0.739    C285.967,632.031,285.885,631.816,285.746,631.627z M284.264,636.644c-0.061,0.223-0.154,0.427-0.281,0.611    c-0.127,0.186-0.281,0.347-0.463,0.483c-0.181,0.137-0.381,0.245-0.598,0.322c-0.217,0.078-0.443,0.117-0.681,0.117    c-0.489,0-0.854-0.136-1.097-0.406s-0.301-0.642-0.174-1.117c0.063-0.229,0.16-0.437,0.295-0.622    c0.135-0.185,0.296-0.344,0.484-0.478c0.188-0.134,0.392-0.234,0.615-0.305c0.222-0.071,0.447-0.106,0.678-0.106    c0.223,0,0.422,0.039,0.597,0.117c0.175,0.077,0.319,0.184,0.432,0.316c0.112,0.134,0.187,0.291,0.224,0.473    C284.331,636.231,284.32,636.43,284.264,636.644z M284.916,633.044c-0.107,0.399-0.313,0.711-0.616,0.934    c-0.304,0.222-0.646,0.333-1.022,0.333c-0.192,0-0.367-0.025-0.523-0.077c-0.156-0.053-0.283-0.131-0.382-0.233    c-0.099-0.104-0.163-0.235-0.194-0.396c-0.031-0.159-0.02-0.346,0.039-0.561c0.053-0.2,0.137-0.374,0.251-0.522    s0.245-0.274,0.396-0.378s0.316-0.181,0.502-0.233c0.184-0.052,0.369-0.078,0.554-0.078c0.385,0,0.675,0.103,0.868,0.306    C284.98,632.343,285.023,632.644,284.916,633.044z"/>
		<path d="M292.061,631.655c-0.139-0.2-0.338-0.359-0.599-0.479c-0.261-0.118-0.595-0.177-1.003-0.177    c-0.407,0-0.773,0.059-1.098,0.177c-0.324,0.119-0.609,0.278-0.855,0.479c-0.246,0.199-0.461,0.433-0.643,0.7    c-0.184,0.267-0.344,0.548-0.482,0.844c-0.139,0.297-0.258,0.6-0.355,0.911s-0.186,0.611-0.264,0.9    c-0.077,0.288-0.15,0.589-0.219,0.899c-0.068,0.312-0.113,0.615-0.133,0.912c-0.02,0.296-0.01,0.576,0.031,0.838    c0.041,0.264,0.13,0.495,0.27,0.694c0.139,0.201,0.339,0.358,0.602,0.474c0.262,0.114,0.596,0.172,1.003,0.172    c0.415,0,0.782-0.058,1.103-0.172c0.319-0.115,0.602-0.272,0.848-0.474c0.246-0.199,0.461-0.431,0.643-0.694    c0.182-0.262,0.342-0.542,0.479-0.838c0.14-0.297,0.257-0.601,0.356-0.912c0.098-0.311,0.186-0.611,0.263-0.899    c0.077-0.289,0.15-0.589,0.219-0.9c0.069-0.312,0.112-0.614,0.133-0.911c0.021-0.296,0.011-0.577-0.028-0.844    C292.29,632.088,292.2,631.854,292.061,631.655z M291.307,633.661c-0.028,0.233-0.072,0.466-0.131,0.699s-0.115,0.447-0.166,0.639    c-0.08,0.297-0.178,0.629-0.295,0.995c-0.116,0.367-0.268,0.711-0.453,1.033c-0.188,0.322-0.421,0.594-0.703,0.816    c-0.281,0.223-0.623,0.334-1.023,0.334c-0.399,0-0.681-0.111-0.844-0.334c-0.162-0.223-0.25-0.494-0.264-0.816    s0.02-0.666,0.099-1.033c0.079-0.366,0.159-0.698,0.239-0.995c0.051-0.191,0.109-0.405,0.176-0.639s0.147-0.466,0.244-0.699    c0.096-0.233,0.204-0.462,0.327-0.684c0.122-0.223,0.267-0.417,0.435-0.584c0.166-0.166,0.356-0.302,0.569-0.405    c0.212-0.104,0.452-0.156,0.72-0.156c0.266,0,0.479,0.053,0.636,0.156s0.274,0.239,0.353,0.405    c0.078,0.167,0.118,0.361,0.121,0.584C291.35,633.199,291.336,633.428,291.307,633.661z"/>
		<path d="M285,621c-7.732,0-14,6.269-14,14s6.268,14,14,14s14-6.269,14-14S292.732,621,285,621z M285,648c-7.168,0-13-5.832-13-13    s5.832-13,13-13s13,5.832,13,13S292.168,648,285,648z"/>
		<path d="M293,630.5c0,0.829,0.672,1.5,1.5,1.5s1.5-0.671,1.5-1.5s-0.672-1.5-1.5-1.5S293,629.671,293,630.5z M294.5,630    c0.276,0,0.5,0.224,0.5,0.5s-0.224,0.5-0.5,0.5s-0.5-0.224-0.5-0.5S294.224,630,294.5,630z"/>
	</g>
	
    </g>
</svg>
