<?xml version="1.0" encoding="iso-8859-1"?>
<!DOCTYPE svg PUBLIC "-//W3C//DTD SVG 1.1//EN" "http://www.w3.org/Graphics/SVG/1.1/DTD/svg11.dtd">
<svg version="1.1" xmlns="http://www.w3.org/2000/svg" xmlns:xlink="http://www.w3.org/1999/xlink" x="0px" y="0px" width="30" height="30" viewBox="0 0 30 30" xml:space="preserve">
    <g transform="translate(-570 -80)">
        <g xmlns="http://www.w3.org/2000/svg" xmlns:xlink="http://www.w3.org/1999/xlink" id="number-10-7">
		<path d="M585,107c6.627,0,12-5.373,12-12s-5.373-12-12-12s-12,5.373-12,12S578.373,107,585,107z M585,84c6.065,0,11,4.935,11,11    s-4.935,11-11,11s-11-4.935-11-11S578.935,84,585,84z"/>
		<polygon points="580.32,100 583,90 581.845,90 579.347,91.169 579.333,92.2 581.322,91.262 581.354,91.262 579.012,100   "/>
		<path d="M586.38,100c2.128,0,3.85-1.815,4.73-5.104c0.826-3.08,0.137-4.896-1.887-4.896c-1.965,0-3.854,1.771-4.727,5.03    C583.67,98.229,584.489,100,586.38,100z M585.817,95.045c0.706-2.634,1.915-4.033,3.046-4.033c1.368,0,1.546,1.563,0.907,3.944    c-0.662,2.47-1.721,4.033-3.045,4.033C585.535,98.988,585.144,97.56,585.817,95.045z"/>
	</g>
	
    </g>
</svg>
