<?xml version="1.0" encoding="iso-8859-1"?>
<!DOCTYPE svg PUBLIC "-//W3C//DTD SVG 1.1//EN" "http://www.w3.org/Graphics/SVG/1.1/DTD/svg11.dtd">
<svg version="1.1" xmlns="http://www.w3.org/2000/svg" xmlns:xlink="http://www.w3.org/1999/xlink" x="0px" y="0px" width="30" height="30" viewBox="0 0 30 30" xml:space="preserve">
    <g transform="translate(-330 -620)">
        <g xmlns="http://www.w3.org/2000/svg" xmlns:xlink="http://www.w3.org/1999/xlink" id="number-120-degree-7">
		<path d="M339.011,630.934c-0.134,0.301-0.298,0.549-0.493,0.745c-0.195,0.195-0.412,0.35-0.649,0.462    c-0.237,0.113-0.488,0.19-0.756,0.231c-0.267,0.042-0.535,0.062-0.806,0.062l-0.206,0.769h2.076l-1.535,5.731h0.959l2.143-8    H339.011z"/>
		<path d="M345.931,631.525c-0.174-0.191-0.399-0.338-0.678-0.439c-0.277-0.102-0.589-0.152-0.935-0.152    c-0.421,0-0.816,0.071-1.186,0.214c-0.369,0.144-0.699,0.341-0.988,0.593s-0.533,0.552-0.73,0.896    c-0.198,0.347-0.341,0.723-0.428,1.129h0.959c0.058-0.24,0.146-0.479,0.267-0.717c0.119-0.236,0.268-0.449,0.446-0.637    c0.179-0.188,0.384-0.341,0.613-0.457c0.231-0.117,0.484-0.176,0.764-0.176c0.211,0,0.401,0.034,0.571,0.102    c0.169,0.068,0.307,0.166,0.411,0.293c0.104,0.129,0.176,0.281,0.212,0.458c0.034,0.177,0.023,0.374-0.035,0.592    c-0.074,0.278-0.184,0.523-0.327,0.733c-0.142,0.211-0.323,0.406-0.54,0.587c-0.219,0.182-0.479,0.359-0.781,0.536    s-0.652,0.37-1.048,0.581c-0.322,0.166-0.637,0.342-0.942,0.53c-0.307,0.188-0.594,0.406-0.864,0.655    c-0.269,0.248-0.515,0.54-0.736,0.874c-0.221,0.335-0.414,0.739-0.579,1.213h5.225l0.228-0.847h-4.107    c0.111-0.248,0.266-0.468,0.464-0.659c0.199-0.192,0.423-0.371,0.675-0.536c0.251-0.165,0.521-0.321,0.808-0.469    c0.287-0.146,0.575-0.295,0.863-0.445c0.291-0.158,0.577-0.324,0.855-0.497c0.279-0.172,0.538-0.366,0.777-0.581    c0.236-0.214,0.447-0.457,0.629-0.728s0.32-0.583,0.414-0.937c0.102-0.376,0.124-0.707,0.069-0.993    C346.221,631.957,346.105,631.718,345.931,631.525z"/>
		<path d="M352.293,631.655c-0.139-0.2-0.339-0.359-0.599-0.479c-0.262-0.118-0.597-0.177-1.003-0.177    c-0.407,0-0.773,0.059-1.098,0.177c-0.325,0.119-0.61,0.278-0.855,0.479c-0.246,0.199-0.462,0.433-0.645,0.7    c-0.182,0.267-0.343,0.548-0.48,0.844c-0.14,0.297-0.257,0.6-0.356,0.911c-0.098,0.312-0.186,0.611-0.263,0.9    c-0.077,0.288-0.15,0.589-0.219,0.899c-0.068,0.312-0.113,0.615-0.134,0.912c-0.02,0.296-0.009,0.576,0.031,0.838    c0.041,0.264,0.13,0.495,0.27,0.694c0.139,0.201,0.34,0.358,0.602,0.474c0.262,0.114,0.597,0.172,1.004,0.172    c0.414,0,0.781-0.058,1.102-0.172c0.32-0.115,0.603-0.272,0.849-0.474c0.245-0.199,0.461-0.431,0.642-0.694    c0.182-0.262,0.342-0.542,0.48-0.838c0.138-0.297,0.258-0.601,0.355-0.912c0.098-0.311,0.186-0.611,0.264-0.899    c0.077-0.289,0.15-0.589,0.219-0.9s0.112-0.614,0.132-0.911c0.021-0.296,0.011-0.577-0.028-0.844    C352.521,632.088,352.433,631.854,352.293,631.655z M351.539,633.661c-0.028,0.233-0.074,0.466-0.132,0.699    c-0.059,0.233-0.114,0.447-0.165,0.639c-0.08,0.297-0.179,0.629-0.294,0.995c-0.118,0.367-0.27,0.711-0.455,1.033    c-0.188,0.322-0.421,0.594-0.703,0.816s-0.622,0.334-1.022,0.334s-0.681-0.111-0.844-0.334c-0.162-0.223-0.251-0.494-0.264-0.816    c-0.015-0.322,0.018-0.666,0.098-1.033c0.079-0.366,0.16-0.698,0.239-0.995c0.052-0.191,0.11-0.405,0.177-0.639    c0.065-0.233,0.147-0.466,0.243-0.699s0.205-0.462,0.328-0.684c0.122-0.223,0.267-0.417,0.434-0.584    c0.167-0.166,0.356-0.302,0.57-0.405c0.211-0.104,0.452-0.156,0.719-0.156s0.479,0.053,0.636,0.156    c0.158,0.104,0.274,0.239,0.353,0.405c0.078,0.167,0.118,0.361,0.122,0.584C351.581,633.199,351.568,633.428,351.539,633.661z"/>
		<path d="M345,621c-7.732,0-14,6.269-14,14s6.268,14,14,14s14-6.269,14-14S352.732,621,345,621z M345,648c-7.168,0-13-5.832-13-13    s5.832-13,13-13s13,5.832,13,13S352.168,648,345,648z"/>
		<path d="M353,630.5c0,0.829,0.672,1.5,1.5,1.5s1.5-0.671,1.5-1.5s-0.672-1.5-1.5-1.5S353,629.671,353,630.5z M354.5,630    c0.276,0,0.5,0.224,0.5,0.5s-0.224,0.5-0.5,0.5s-0.5-0.224-0.5-0.5S354.224,630,354.5,630z"/>
	</g>
	
    </g>
</svg>
