<?xml version="1.0" encoding="iso-8859-1"?>
<!DOCTYPE svg PUBLIC "-//W3C//DTD SVG 1.1//EN" "http://www.w3.org/Graphics/SVG/1.1/DTD/svg11.dtd">
<svg version="1.1" xmlns="http://www.w3.org/2000/svg" xmlns:xlink="http://www.w3.org/1999/xlink" x="0px" y="0px" width="30" height="30" viewBox="0 0 30 30" xml:space="preserve">
    <g transform="translate(-210 -440)">
        <g xmlns="http://www.w3.org/2000/svg" xmlns:xlink="http://www.w3.org/1999/xlink" id="number-1over3-7">
		<path d="M234.093,458.201c0.386-0.377,0.645-0.81,0.774-1.299c0.135-0.499,0.166-0.932,0.098-1.299    c-0.07-0.367-0.221-0.666-0.453-0.901c-0.234-0.233-0.535-0.41-0.906-0.527s-0.791-0.175-1.26-0.175    c-0.539,0-1.039,0.087-1.498,0.26s-0.866,0.411-1.223,0.717c-0.357,0.306-0.667,0.673-0.93,1.101    c-0.262,0.428-0.473,0.901-0.633,1.421h1.299c0.085-0.315,0.206-0.616,0.363-0.901c0.158-0.284,0.35-0.534,0.576-0.748    c0.225-0.214,0.484-0.385,0.779-0.513c0.293-0.127,0.613-0.191,0.959-0.191c0.551,0,0.971,0.146,1.258,0.437    c0.289,0.29,0.357,0.725,0.201,1.306c-0.076,0.286-0.201,0.541-0.373,0.765s-0.372,0.409-0.6,0.557    c-0.229,0.148-0.478,0.26-0.747,0.336c-0.271,0.077-0.544,0.115-0.818,0.115h-0.274c-0.052,0-0.102,0-0.153,0    c-0.041,0-0.086-0.005-0.133-0.016l-0.295,1.101c0.253-0.03,0.517-0.046,0.792-0.046c0.325,0,0.616,0.043,0.873,0.13    c0.258,0.086,0.464,0.219,0.62,0.396c0.155,0.18,0.259,0.398,0.313,0.658c0.054,0.259,0.034,0.557-0.056,0.893    c-0.088,0.327-0.23,0.619-0.427,0.879c-0.197,0.26-0.427,0.479-0.688,0.657s-0.548,0.315-0.858,0.412    c-0.312,0.098-0.625,0.146-0.94,0.146c-0.744,0-1.25-0.221-1.518-0.665c-0.27-0.442-0.318-1.016-0.151-1.719h-1.298    c-0.161,0.562-0.215,1.06-0.165,1.497c0.052,0.438,0.194,0.808,0.429,1.108c0.235,0.301,0.557,0.527,0.964,0.68    c0.407,0.153,0.886,0.229,1.437,0.229c0.509,0,1.008-0.068,1.499-0.207c0.489-0.137,0.94-0.343,1.349-0.618    c0.411-0.275,0.771-0.619,1.08-1.031c0.309-0.413,0.535-0.888,0.681-1.429c0.174-0.651,0.165-1.218-0.027-1.696    s-0.601-0.788-1.225-0.932l0.008-0.03C233.273,458.863,233.707,458.577,234.093,458.201z"/>
		<path d="M218.318,456l2.947-11h-1.008c-0.184,0.415-0.408,0.754-0.678,1.022c-0.27,0.271-0.566,0.482-0.892,0.639    c-0.325,0.155-0.673,0.262-1.04,0.316c-0.367,0.057-0.735,0.085-1.108,0.085l-0.282,1.057h2.854L217,456H218.318z"/>
		<polygon points="230.766,445 229.344,445 217.766,465 219.188,465   "/>
	</g>
	
    </g>
</svg>
