<?xml version="1.0" encoding="iso-8859-1"?>
<!DOCTYPE svg PUBLIC "-//W3C//DTD SVG 1.1//EN" "http://www.w3.org/Graphics/SVG/1.1/DTD/svg11.dtd">
<svg version="1.1" xmlns="http://www.w3.org/2000/svg" xmlns:xlink="http://www.w3.org/1999/xlink" x="0px" y="0px" width="30" height="30" viewBox="0 0 30 30" xml:space="preserve">
    <g transform="translate(-570 -620)">
        <g xmlns="http://www.w3.org/2000/svg" xmlns:xlink="http://www.w3.org/1999/xlink" id="number-30-degree-7">
		<path d="M583.491,631.511c-0.17-0.17-0.388-0.299-0.658-0.384c-0.27-0.085-0.576-0.127-0.916-0.127    c-0.393,0-0.755,0.063-1.09,0.188c-0.333,0.126-0.629,0.3-0.889,0.521c-0.261,0.223-0.485,0.489-0.676,0.801    c-0.19,0.311-0.345,0.655-0.461,1.033h0.945c0.062-0.229,0.148-0.448,0.265-0.655c0.113-0.207,0.254-0.389,0.418-0.545    c0.163-0.155,0.353-0.279,0.565-0.372c0.215-0.093,0.448-0.14,0.699-0.14c0.399,0,0.704,0.106,0.915,0.317    c0.21,0.211,0.258,0.527,0.145,0.95c-0.055,0.208-0.146,0.393-0.271,0.556s-0.271,0.298-0.438,0.405    c-0.164,0.107-0.346,0.188-0.542,0.244c-0.195,0.056-0.396,0.084-0.595,0.084h-0.2c-0.037,0-0.074,0-0.11,0    c-0.031,0-0.063-0.004-0.097-0.012l-0.215,0.8c0.184-0.021,0.375-0.033,0.575-0.033c0.237,0,0.448,0.032,0.635,0.095    c0.188,0.063,0.338,0.159,0.451,0.289s0.189,0.289,0.229,0.479c0.037,0.188,0.024,0.404-0.041,0.648    c-0.064,0.238-0.167,0.451-0.311,0.64c-0.144,0.189-0.31,0.349-0.5,0.478c-0.19,0.13-0.398,0.229-0.625,0.301    c-0.227,0.07-0.454,0.105-0.685,0.105c-0.54,0-0.908-0.161-1.104-0.484c-0.195-0.321-0.23-0.738-0.109-1.249h-0.945    c-0.116,0.407-0.155,0.771-0.118,1.089c0.036,0.318,0.141,0.587,0.312,0.806c0.17,0.219,0.404,0.383,0.7,0.494    c0.297,0.111,0.645,0.167,1.045,0.167c0.37,0,0.733-0.05,1.09-0.15c0.356-0.1,0.684-0.25,0.982-0.449    c0.297-0.201,0.56-0.451,0.785-0.751c0.224-0.3,0.389-0.646,0.494-1.039c0.127-0.474,0.12-0.885-0.02-1.233    c-0.14-0.348-0.438-0.573-0.891-0.677l0.006-0.023c0.349-0.14,0.663-0.348,0.944-0.622c0.281-0.273,0.469-0.588,0.564-0.943    c0.098-0.364,0.12-0.679,0.07-0.945C583.771,631.899,583.66,631.682,583.491,631.511z"/>
		<path d="M590.061,631.655c-0.14-0.2-0.338-0.359-0.599-0.479c-0.262-0.118-0.597-0.177-1.004-0.177s-0.773,0.059-1.097,0.177    c-0.325,0.119-0.61,0.278-0.856,0.479c-0.246,0.199-0.46,0.433-0.643,0.7c-0.182,0.267-0.344,0.548-0.481,0.844    c-0.14,0.297-0.258,0.6-0.356,0.911s-0.186,0.611-0.263,0.9c-0.078,0.288-0.151,0.589-0.22,0.899    c-0.068,0.312-0.112,0.615-0.132,0.912c-0.021,0.296-0.011,0.576,0.03,0.838c0.041,0.264,0.13,0.495,0.27,0.694    c0.139,0.201,0.339,0.358,0.602,0.474c0.261,0.114,0.597,0.172,1.004,0.172c0.415,0,0.781-0.058,1.102-0.172    c0.319-0.115,0.602-0.272,0.849-0.474c0.246-0.199,0.46-0.431,0.642-0.694c0.181-0.262,0.342-0.542,0.479-0.838    c0.14-0.297,0.258-0.601,0.356-0.912c0.098-0.311,0.186-0.611,0.263-0.899c0.078-0.289,0.15-0.589,0.22-0.9    c0.068-0.312,0.112-0.614,0.133-0.911c0.02-0.296,0.011-0.577-0.029-0.844C590.289,632.088,590.199,631.854,590.061,631.655z     M589.307,633.661c-0.028,0.233-0.072,0.466-0.132,0.699s-0.114,0.447-0.166,0.639c-0.08,0.297-0.178,0.629-0.293,0.995    c-0.117,0.367-0.269,0.711-0.456,1.033c-0.186,0.322-0.42,0.594-0.702,0.816s-0.622,0.334-1.022,0.334    c-0.399,0-0.682-0.111-0.844-0.334c-0.163-0.223-0.251-0.494-0.265-0.816s0.02-0.666,0.099-1.033    c0.08-0.366,0.159-0.698,0.239-0.995c0.051-0.191,0.11-0.405,0.177-0.639s0.146-0.466,0.243-0.699    c0.095-0.233,0.205-0.462,0.327-0.684c0.122-0.223,0.268-0.417,0.434-0.584c0.168-0.166,0.358-0.302,0.57-0.405    c0.213-0.104,0.453-0.156,0.72-0.156s0.479,0.053,0.637,0.156c0.156,0.104,0.274,0.239,0.352,0.405    c0.078,0.167,0.118,0.361,0.121,0.584C589.349,633.199,589.336,633.428,589.307,633.661z"/>
		<path d="M585,621c-7.732,0-14,6.269-14,14s6.268,14,14,14s14-6.269,14-14S592.732,621,585,621z M585,648c-7.168,0-13-5.832-13-13    s5.832-13,13-13s13,5.832,13,13S592.168,648,585,648z"/>
		<path d="M592.5,629c-0.828,0-1.5,0.671-1.5,1.5s0.672,1.5,1.5,1.5s1.5-0.671,1.5-1.5S593.328,629,592.5,629z M592.5,631    c-0.276,0-0.5-0.224-0.5-0.5s0.224-0.5,0.5-0.5s0.5,0.224,0.5,0.5S592.776,631,592.5,631z"/>
	</g>
	
    </g>
</svg>
