<?xml version="1.0" encoding="iso-8859-1"?>
<!DOCTYPE svg PUBLIC "-//W3C//DTD SVG 1.1//EN" "http://www.w3.org/Graphics/SVG/1.1/DTD/svg11.dtd">
<svg version="1.1" xmlns="http://www.w3.org/2000/svg" xmlns:xlink="http://www.w3.org/1999/xlink" x="0px" y="0px" width="30" height="30" viewBox="0 0 30 30" xml:space="preserve">
    <g transform="translate(-450 -80)">
        <g xmlns="http://www.w3.org/2000/svg" xmlns:xlink="http://www.w3.org/1999/xlink" id="number-8-7">
		<path d="M465,107c6.627,0,12-5.373,12-12s-5.373-12-12-12s-12,5.373-12,12S458.373,107,465,107z M465,84c6.065,0,11,4.935,11,11    s-4.935,11-11,11s-11-4.935-11-11S458.935,84,465,84z"/>
		<path d="M463.779,100c1.846,0,3.589-1.116,4.043-2.813c0.312-1.161-0.201-2.024-1.279-2.5l0.012-0.044    c1.338-0.551,1.994-1.444,2.213-2.262c0.328-1.22-0.313-2.381-2.189-2.381c-1.711,0-3.285,1.042-3.695,2.575    c-0.223,0.833,0.016,1.666,0.966,2.173l0.003,0.044c-1.326,0.506-2.291,1.384-2.617,2.604C460.855,98.81,461.756,100,463.779,100z     M464.157,92.485c0.224-0.833,1.009-1.547,2.096-1.547c1.176,0,1.421,0.803,1.214,1.577c-0.234,0.878-1.034,1.474-1.943,1.756    C464.487,93.973,463.883,93.453,464.157,92.485z M462.621,97.217c0.247-0.922,1.061-1.682,2.279-2.009    c1.211,0.372,1.873,0.952,1.563,2.113c-0.268,0.997-1.223,1.726-2.397,1.726C462.83,99.048,462.316,98.185,462.621,97.217z"/>
	</g>
	
    </g>
</svg>
