<?xml version="1.0" encoding="iso-8859-1"?>
<!DOCTYPE svg PUBLIC "-//W3C//DTD SVG 1.1//EN" "http://www.w3.org/Graphics/SVG/1.1/DTD/svg11.dtd">
<svg version="1.1" xmlns="http://www.w3.org/2000/svg" xmlns:xlink="http://www.w3.org/1999/xlink" x="0px" y="0px" width="30" height="30" viewBox="0 0 30 30" xml:space="preserve">
    <g transform="translate(-510 -80)">
        <g xmlns="http://www.w3.org/2000/svg" xmlns:xlink="http://www.w3.org/1999/xlink" id="number-9-7">
		<path d="M525,107c6.627,0,12-5.373,12-12s-5.373-12-12-12s-12,5.373-12,12S518.373,107,525,107z M525,84c6.065,0,11,4.935,11,11    s-4.935,11-11,11s-11-4.935-11-11S518.935,84,525,84z"/>
		<path d="M525.637,98.625c1.201-0.924,2.315-2.413,2.882-4.528c0.67-2.502-0.123-4.096-2.105-4.096    c-1.98,0-3.737,1.609-4.229,3.441c-0.443,1.654,0.323,2.964,2.051,2.964c0.983,0,1.857-0.372,2.569-1.028h0.045    c-0.481,1.132-1.171,1.981-1.968,2.562c-0.694,0.536-1.489,0.834-2.277,0.938c-0.459,0.045-0.794,0.075-1.068,0.045l-0.288,1.073    c0.31,0.014,0.729,0,1.227-0.075C523.55,99.801,524.696,99.354,525.637,98.625z M524.812,95.422c-1.131,0-1.634-0.849-1.311-2.056    c0.371-1.385,1.424-2.368,2.525-2.368c1.386,0,1.657,1.266,1.215,2.919c-0.061,0.224-0.141,0.358-0.252,0.492    C526.491,94.99,525.69,95.422,524.812,95.422z"/>
	</g>
	
    </g>
</svg>
