<?xml version="1.0" encoding="iso-8859-1"?>
<!DOCTYPE svg PUBLIC "-//W3C//DTD SVG 1.1//EN" "http://www.w3.org/Graphics/SVG/1.1/DTD/svg11.dtd">
<svg version="1.1" xmlns="http://www.w3.org/2000/svg" xmlns:xlink="http://www.w3.org/1999/xlink" x="0px" y="0px" width="30" height="30" viewBox="0 0 30 30" xml:space="preserve">
    <g transform="translate(-90 -80)">
        <g xmlns="http://www.w3.org/2000/svg" xmlns:xlink="http://www.w3.org/1999/xlink" id="number-2-7">
		<path d="M105,107c6.627,0,12-5.373,12-12s-5.373-12-12-12s-12,5.373-12,12S98.373,107,105,107z M105,84c6.065,0,11,4.935,11,11    s-4.935,11-11,11s-11-4.935-11-11S98.935,84,105,84z"/>
		<path d="M107.543,98.896h-4.403l0.009-0.03l0.966-0.727c2.607-1.997,4.317-3.464,4.804-5.28c0.377-1.407-0.127-2.859-2.244-2.859    c-1.12,0-2.221,0.438-3.037,0.999l0.173,0.938c0.556-0.378,1.418-0.832,2.311-0.832c1.468,0,1.688,0.923,1.421,1.921    c-0.396,1.482-1.887,2.753-5.039,5.144l-1.315,1.014L100.968,100h6.278L107.543,98.896z"/>
	</g>
	
    </g>
</svg>
