<?xml version="1.0" encoding="iso-8859-1"?>
<!DOCTYPE svg PUBLIC "-//W3C//DTD SVG 1.1//EN" "http://www.w3.org/Graphics/SVG/1.1/DTD/svg11.dtd">
<svg version="1.1" xmlns="http://www.w3.org/2000/svg" xmlns:xlink="http://www.w3.org/1999/xlink" x="0px" y="0px" width="30" height="30" viewBox="0 0 30 30" xml:space="preserve">
    <g transform="translate(-330 -80)">
        <g xmlns="http://www.w3.org/2000/svg" xmlns:xlink="http://www.w3.org/1999/xlink" id="number-6-7">
		<path d="M345,107c6.627,0,12-5.373,12-12s-5.373-12-12-12s-12,5.373-12,12S338.373,107,345,107z M345,84c6.065,0,11,4.935,11,11    s-4.935,11-11,11s-11-4.935-11-11S338.935,84,345,84z"/>
		<path d="M343.983,100c2.026,0,3.673-1.64,4.152-3.428c0.503-1.878-0.369-3.129-2.082-3.129c-1.074,0-2.029,0.506-2.658,1.132    h-0.03c0.655-1.609,2.128-3.1,4.286-3.427c0.389-0.06,0.74-0.089,1.004-0.075L348.942,90c-0.238,0-0.57,0.015-0.974,0.075    c-1.261,0.148-2.467,0.641-3.483,1.431c-1.225,0.954-2.298,2.458-2.809,4.366C341.001,98.39,341.927,100,343.983,100z     M342.886,96.2c0.063-0.238,0.17-0.417,0.285-0.566c0.549-0.715,1.422-1.192,2.213-1.192c1.207,0,1.773,0.835,1.402,2.221    c-0.372,1.386-1.384,2.325-2.502,2.325C342.899,98.987,342.474,97.794,342.886,96.2z"/>
	</g>
	
    </g>
</svg>
