<?xml version="1.0" encoding="iso-8859-1"?>
<!DOCTYPE svg PUBLIC "-//W3C//DTD SVG 1.1//EN" "http://www.w3.org/Graphics/SVG/1.1/DTD/svg11.dtd">
<svg version="1.1" xmlns="http://www.w3.org/2000/svg" xmlns:xlink="http://www.w3.org/1999/xlink" x="0px" y="0px" width="30" height="30" viewBox="0 0 30 30" xml:space="preserve">
    <g transform="translate(-570 -440)">
        <g xmlns="http://www.w3.org/2000/svg" xmlns:xlink="http://www.w3.org/1999/xlink" id="number-01percent-7">
		<polygon points="580.374,465 581.3,465 589.227,457 588.311,457   "/>
		<path d="M588.495,460.865c-0.188-0.115-0.451-0.172-0.787-0.172c-0.332,0-0.624,0.061-0.878,0.178s-0.477,0.277-0.666,0.48    c-0.19,0.199-0.35,0.43-0.479,0.691c-0.126,0.262-0.231,0.543-0.31,0.836s-0.122,0.57-0.128,0.828    c-0.012,0.26,0.028,0.484,0.114,0.674s0.225,0.342,0.418,0.451c0.19,0.113,0.449,0.168,0.773,0.168    c0.316,0,0.598-0.059,0.845-0.178c0.246-0.119,0.464-0.275,0.658-0.475c0.193-0.195,0.356-0.426,0.487-0.688    c0.13-0.262,0.234-0.535,0.31-0.813c0.078-0.295,0.126-0.574,0.142-0.836c0.018-0.262-0.016-0.49-0.097-0.684    C588.818,461.135,588.684,460.98,588.495,460.865z M588.154,462.336c-0.029,0.184-0.067,0.352-0.109,0.512    c-0.044,0.164-0.102,0.34-0.173,0.527c-0.073,0.186-0.162,0.355-0.273,0.51c-0.107,0.154-0.238,0.283-0.388,0.383    c-0.147,0.1-0.325,0.15-0.532,0.15c-0.203,0-0.35-0.051-0.438-0.156c-0.09-0.104-0.148-0.234-0.172-0.387    c-0.023-0.154-0.021-0.324,0.012-0.506c0.032-0.184,0.067-0.354,0.11-0.512c0.044-0.166,0.103-0.338,0.171-0.521    c0.072-0.184,0.16-0.352,0.272-0.508c0.107-0.152,0.237-0.281,0.389-0.387c0.149-0.105,0.323-0.156,0.526-0.156    c0.207,0,0.357,0.051,0.446,0.156c0.091,0.105,0.148,0.234,0.172,0.387C588.189,461.984,588.188,462.152,588.154,462.336z"/>
		<path d="M581.03,461.15c0.193,0.111,0.452,0.166,0.774,0.166c0.316,0,0.598-0.061,0.845-0.182c0.248-0.123,0.471-0.281,0.662-0.48    c0.191-0.197,0.354-0.426,0.487-0.688c0.129-0.262,0.233-0.535,0.308-0.814c0.079-0.293,0.128-0.572,0.144-0.834    c0.018-0.262-0.015-0.49-0.096-0.684s-0.216-0.348-0.403-0.465c-0.19-0.113-0.452-0.17-0.79-0.17c-0.33,0-0.621,0.059-0.876,0.178    c-0.254,0.117-0.477,0.277-0.667,0.479s-0.351,0.432-0.475,0.693c-0.129,0.262-0.233,0.541-0.313,0.836    c-0.078,0.293-0.123,0.57-0.13,0.828c-0.009,0.258,0.03,0.484,0.115,0.68C580.701,460.887,580.838,461.039,581.03,461.15z     M581.334,459.674c0.032-0.184,0.067-0.352,0.109-0.51c0.045-0.166,0.103-0.338,0.173-0.521c0.071-0.184,0.163-0.354,0.271-0.508    c0.109-0.154,0.239-0.281,0.389-0.387s0.327-0.156,0.526-0.156c0.209,0,0.357,0.051,0.448,0.156s0.146,0.232,0.172,0.387    c0.021,0.154,0.019,0.324-0.014,0.508c-0.031,0.184-0.066,0.352-0.109,0.51c-0.044,0.166-0.103,0.342-0.175,0.529    c-0.071,0.186-0.161,0.355-0.27,0.51c-0.111,0.154-0.239,0.283-0.388,0.383c-0.151,0.1-0.329,0.15-0.536,0.15    c-0.201,0-0.348-0.051-0.438-0.156c-0.09-0.104-0.146-0.234-0.17-0.387C581.298,460.027,581.305,459.857,581.334,459.674z"/>
		<path d="M585,469c7.732,0,14-6.268,14-14s-6.268-14-14-14s-14,6.268-14,14S577.268,469,585,469z M585,442c7.169,0,13,5.831,13,13    s-5.831,13-13,13s-13-5.831-13-13S577.831,442,585,442z"/>
		<path d="M579.3,454.355c0.139,0.2,0.34,0.357,0.602,0.473s0.596,0.172,1.004,0.172c0.415,0,0.782-0.057,1.102-0.172    c0.32-0.115,0.603-0.272,0.849-0.473s0.461-0.432,0.643-0.694c0.181-0.263,0.341-0.543,0.48-0.839    c0.138-0.296,0.257-0.601,0.354-0.911c0.098-0.312,0.186-0.611,0.264-0.899c0.078-0.29,0.15-0.589,0.219-0.901    c0.068-0.311,0.113-0.613,0.133-0.91s0.011-0.578-0.029-0.845c-0.039-0.267-0.129-0.5-0.269-0.7    c-0.139-0.199-0.338-0.358-0.599-0.479c-0.261-0.118-0.597-0.177-1.003-0.177c-0.408,0-0.773,0.059-1.098,0.177    c-0.324,0.12-0.61,0.279-0.855,0.479c-0.246,0.2-0.461,0.434-0.644,0.7s-0.344,0.548-0.481,0.845    c-0.139,0.297-0.257,0.6-0.354,0.91c-0.1,0.313-0.187,0.611-0.265,0.901c-0.077,0.288-0.15,0.588-0.219,0.899    c-0.068,0.311-0.112,0.615-0.133,0.911s-0.011,0.576,0.031,0.839C579.071,453.924,579.161,454.155,579.3,454.355z     M580.117,451.994c0.078-0.366,0.158-0.698,0.237-0.994c0.052-0.192,0.11-0.405,0.177-0.639s0.148-0.467,0.244-0.7    c0.095-0.233,0.204-0.461,0.326-0.684c0.123-0.223,0.268-0.417,0.435-0.583c0.168-0.167,0.357-0.302,0.57-0.406    c0.212-0.103,0.453-0.155,0.72-0.155s0.479,0.053,0.637,0.155c0.156,0.104,0.273,0.239,0.352,0.406    c0.078,0.166,0.117,0.36,0.121,0.583c0.003,0.223-0.009,0.45-0.038,0.684s-0.073,0.467-0.133,0.7    c-0.059,0.233-0.114,0.446-0.165,0.639c-0.08,0.296-0.178,0.628-0.294,0.994c-0.117,0.367-0.269,0.712-0.455,1.033    c-0.187,0.322-0.421,0.595-0.703,0.817c-0.281,0.222-0.623,0.333-1.022,0.333s-0.681-0.111-0.844-0.333    c-0.163-0.223-0.25-0.495-0.265-0.817C580.004,452.706,580.036,452.361,580.117,451.994z"/>
		<polygon points="586.553,453.767 585.319,453.767 584.989,455 586.223,455   "/>
		<path d="M587.989,455h0.96l2.144-8h-0.733c-0.134,0.302-0.298,0.55-0.493,0.745s-0.412,0.35-0.648,0.463    c-0.237,0.113-0.489,0.189-0.756,0.23c-0.267,0.042-0.536,0.062-0.807,0.062l-0.205,0.768h2.075L587.989,455z"/>
	</g>
	
    </g>
</svg>
