<?xml version="1.0" encoding="iso-8859-1"?>
<!DOCTYPE svg PUBLIC "-//W3C//DTD SVG 1.1//EN" "http://www.w3.org/Graphics/SVG/1.1/DTD/svg11.dtd">
<svg version="1.1" xmlns="http://www.w3.org/2000/svg" xmlns:xlink="http://www.w3.org/1999/xlink" x="0px" y="0px" width="30" height="30" viewBox="0 0 30 30" xml:space="preserve">
    <g transform="translate(-390 -440)">
        <g xmlns="http://www.w3.org/2000/svg" xmlns:xlink="http://www.w3.org/1999/xlink" id="number-100percent-7">
		<path d="M399.91,447c-0.134,0.301-0.298,0.549-0.496,0.744c-0.191,0.195-0.409,0.352-0.646,0.465    c-0.236,0.111-0.487,0.188-0.755,0.23c-0.268,0.041-0.536,0.061-0.808,0.061L397,449.268h2.078L397.542,455h0.958l2.145-8H399.91z    "/>
		<path d="M401.308,454.355c0.14,0.201,0.341,0.357,0.603,0.473c0.261,0.115,0.598,0.172,1.004,0.172    c0.414,0,0.781-0.057,1.102-0.172s0.602-0.271,0.849-0.473c0.248-0.201,0.46-0.432,0.643-0.693c0.181-0.264,0.34-0.543,0.479-0.84    c0.139-0.297,0.256-0.602,0.354-0.91c0.1-0.313,0.188-0.613,0.265-0.9c0.078-0.291,0.149-0.588,0.218-0.9    c0.07-0.313,0.115-0.613,0.135-0.91s0.011-0.578-0.028-0.846c-0.041-0.268-0.129-0.5-0.269-0.701    c-0.14-0.199-0.34-0.357-0.601-0.477c-0.263-0.119-0.595-0.178-1.003-0.178c-0.406,0-0.775,0.059-1.096,0.178    c-0.326,0.119-0.609,0.277-0.857,0.477c-0.244,0.201-0.46,0.434-0.643,0.701c-0.184,0.268-0.344,0.549-0.482,0.846    s-0.256,0.598-0.354,0.91c-0.1,0.313-0.188,0.609-0.266,0.9c-0.076,0.287-0.148,0.588-0.217,0.9    c-0.069,0.309-0.114,0.613-0.135,0.91s-0.009,0.576,0.031,0.84C401.08,453.924,401.172,454.154,401.308,454.355z M402.125,451.994    c0.078-0.367,0.159-0.699,0.238-0.994c0.051-0.193,0.11-0.404,0.176-0.639c0.066-0.234,0.148-0.467,0.245-0.699    c0.094-0.234,0.204-0.461,0.325-0.684c0.124-0.223,0.269-0.418,0.438-0.584c0.164-0.166,0.355-0.303,0.569-0.406    c0.212-0.104,0.451-0.154,0.717-0.154c0.269,0,0.479,0.051,0.638,0.154c0.156,0.104,0.273,0.24,0.353,0.406    c0.075,0.166,0.118,0.361,0.122,0.584c0.002,0.223-0.011,0.449-0.039,0.684c-0.031,0.232-0.074,0.465-0.133,0.699    c-0.06,0.234-0.114,0.445-0.165,0.639c-0.08,0.295-0.179,0.627-0.296,0.994s-0.267,0.711-0.453,1.033    c-0.188,0.322-0.422,0.596-0.703,0.818c-0.281,0.221-0.621,0.332-1.023,0.332c-0.398,0-0.68-0.111-0.844-0.332    c-0.162-0.223-0.25-0.496-0.264-0.818S402.047,452.361,402.125,451.994z"/>
		<path d="M412.905,447.654c-0.14-0.199-0.339-0.357-0.601-0.477c-0.261-0.119-0.595-0.178-1.001-0.178s-0.775,0.059-1.101,0.178    c-0.324,0.119-0.609,0.277-0.853,0.477c-0.246,0.201-0.463,0.434-0.646,0.701c-0.182,0.268-0.343,0.549-0.479,0.846    c-0.14,0.297-0.258,0.598-0.356,0.91c-0.1,0.313-0.187,0.609-0.265,0.9c-0.077,0.287-0.149,0.588-0.218,0.9    c-0.069,0.309-0.113,0.613-0.133,0.91s-0.01,0.576,0.029,0.84c0.041,0.262,0.134,0.492,0.271,0.693    c0.137,0.201,0.336,0.357,0.601,0.473c0.261,0.115,0.598,0.172,1.004,0.172c0.414,0,0.78-0.057,1.101-0.172    c0.318-0.115,0.604-0.271,0.85-0.473c0.247-0.201,0.461-0.432,0.643-0.693c0.18-0.264,0.342-0.543,0.479-0.84    c0.14-0.297,0.259-0.602,0.355-0.91c0.101-0.313,0.188-0.613,0.266-0.9c0.078-0.291,0.148-0.588,0.218-0.9    c0.07-0.313,0.112-0.613,0.133-0.91c0.02-0.297,0.009-0.578-0.028-0.846C413.133,448.088,413.044,447.855,412.905,447.654z     M412.151,449.662c-0.031,0.232-0.073,0.465-0.133,0.699c-0.058,0.234-0.115,0.445-0.167,0.639    c-0.078,0.295-0.176,0.627-0.294,0.994c-0.115,0.367-0.269,0.711-0.454,1.033c-0.187,0.322-0.42,0.596-0.702,0.818    c-0.281,0.221-0.621,0.332-1.022,0.332c-0.398,0-0.681-0.111-0.845-0.332c-0.163-0.223-0.25-0.496-0.265-0.818    c-0.012-0.322,0.02-0.666,0.101-1.033c0.079-0.367,0.158-0.699,0.238-0.994c0.051-0.193,0.11-0.404,0.176-0.639    c0.067-0.234,0.148-0.467,0.244-0.699c0.094-0.234,0.205-0.461,0.326-0.684c0.124-0.223,0.268-0.418,0.435-0.584    c0.168-0.166,0.358-0.303,0.57-0.406c0.214-0.104,0.453-0.154,0.719-0.154s0.479,0.051,0.64,0.154    c0.156,0.104,0.271,0.24,0.353,0.406c0.075,0.166,0.116,0.361,0.117,0.584C412.191,449.201,412.18,449.428,412.151,449.662z"/>
		<path d="M408.495,460.865c-0.188-0.115-0.451-0.172-0.787-0.172c-0.332,0-0.624,0.061-0.878,0.178s-0.477,0.277-0.666,0.48    c-0.19,0.199-0.35,0.43-0.479,0.691c-0.126,0.262-0.231,0.543-0.31,0.836s-0.122,0.57-0.128,0.828    c-0.012,0.26,0.028,0.484,0.114,0.674s0.225,0.342,0.418,0.451c0.19,0.113,0.449,0.168,0.773,0.168    c0.316,0,0.598-0.059,0.845-0.178c0.246-0.119,0.464-0.275,0.658-0.475c0.193-0.195,0.356-0.426,0.487-0.688    c0.13-0.262,0.234-0.535,0.31-0.813c0.078-0.295,0.126-0.574,0.142-0.836c0.018-0.262-0.016-0.49-0.097-0.684    C408.818,461.135,408.684,460.98,408.495,460.865z M408.154,462.336c-0.029,0.184-0.067,0.352-0.109,0.512    c-0.044,0.164-0.102,0.34-0.173,0.527c-0.073,0.186-0.162,0.355-0.273,0.51c-0.107,0.154-0.238,0.283-0.388,0.383    c-0.147,0.1-0.325,0.15-0.532,0.15c-0.203,0-0.35-0.051-0.438-0.156c-0.09-0.104-0.148-0.234-0.172-0.387    c-0.023-0.154-0.021-0.324,0.012-0.506c0.032-0.184,0.067-0.354,0.11-0.512c0.044-0.166,0.103-0.338,0.171-0.521    c0.072-0.184,0.16-0.352,0.272-0.508c0.107-0.152,0.237-0.281,0.389-0.387c0.149-0.105,0.323-0.156,0.526-0.156    c0.207,0,0.357,0.051,0.446,0.156c0.091,0.105,0.148,0.234,0.172,0.387C408.189,461.984,408.188,462.152,408.154,462.336z"/>
		<path d="M400.501,460.014c-0.009,0.258,0.03,0.484,0.115,0.68c0.085,0.193,0.222,0.346,0.414,0.457    c0.193,0.111,0.452,0.166,0.774,0.166c0.316,0,0.598-0.061,0.845-0.182c0.248-0.123,0.471-0.281,0.662-0.48    c0.191-0.197,0.354-0.426,0.487-0.688c0.129-0.262,0.233-0.535,0.308-0.814c0.079-0.293,0.128-0.572,0.144-0.834    c0.018-0.262-0.015-0.49-0.096-0.684s-0.216-0.348-0.403-0.465c-0.19-0.113-0.452-0.17-0.79-0.17c-0.33,0-0.621,0.059-0.876,0.178    c-0.254,0.117-0.477,0.277-0.667,0.479s-0.351,0.432-0.475,0.693c-0.129,0.262-0.233,0.541-0.313,0.836    C400.553,459.479,400.508,459.756,400.501,460.014z M401.334,459.674c0.032-0.184,0.067-0.352,0.109-0.51    c0.045-0.166,0.103-0.338,0.173-0.521c0.071-0.184,0.163-0.354,0.271-0.508c0.109-0.154,0.239-0.281,0.389-0.387    s0.327-0.156,0.526-0.156c0.209,0,0.357,0.051,0.448,0.156s0.146,0.232,0.172,0.387c0.021,0.154,0.019,0.324-0.014,0.508    c-0.031,0.184-0.066,0.352-0.109,0.51c-0.044,0.166-0.103,0.342-0.175,0.529c-0.071,0.186-0.161,0.355-0.27,0.51    c-0.111,0.154-0.239,0.283-0.388,0.383c-0.151,0.1-0.329,0.15-0.536,0.15c-0.201,0-0.348-0.051-0.438-0.156    c-0.09-0.104-0.146-0.234-0.17-0.387C401.298,460.027,401.305,459.857,401.334,459.674z"/>
		<polygon points="400.374,465 401.3,465 409.227,457 408.311,457   "/>
		<path d="M405,441c-7.732,0-14,6.268-14,14s6.268,14,14,14s14-6.268,14-14S412.732,441,405,441z M405,468c-7.169,0-13-5.831-13-13    s5.831-13,13-13s13,5.831,13,13S412.169,468,405,468z"/>
	</g>
	
    </g>
</svg>
