<?xml version="1.0" encoding="iso-8859-1"?>
<!DOCTYPE svg PUBLIC "-//W3C//DTD SVG 1.1//EN" "http://www.w3.org/Graphics/SVG/1.1/DTD/svg11.dtd">
<svg version="1.1" xmlns="http://www.w3.org/2000/svg" xmlns:xlink="http://www.w3.org/1999/xlink" x="0px" y="0px" width="30" height="30" viewBox="0 0 30 30" xml:space="preserve">
    <g transform="translate(-330 -440)">
        <g xmlns="http://www.w3.org/2000/svg" xmlns:xlink="http://www.w3.org/1999/xlink" id="number-3over4-7">
		<path d="M353.944,454l-6.927,7.152l-0.341,1.271h4.826L350.812,465h1.241l0.689-2.576h1.49l0.312-1.162h-1.489L355,454H353.944z     M351.813,461.262h-3.692l5.104-5.384h0.03L351.813,461.262z"/>
		<polygon points="351.578,445 350.156,445 338.578,465 340,465   "/>
		<path d="M334.183,452.486c-0.161,0.561-0.215,1.059-0.165,1.497c0.051,0.438,0.195,0.807,0.432,1.107    c0.234,0.301,0.554,0.528,0.962,0.681c0.406,0.152,0.886,0.229,1.438,0.229c0.507,0,1.006-0.068,1.498-0.206    c0.489-0.137,0.938-0.344,1.349-0.618c0.41-0.275,0.771-0.619,1.079-1.032c0.309-0.412,0.537-0.887,0.681-1.429    c0.174-0.65,0.165-1.217-0.025-1.696c-0.193-0.478-0.604-0.788-1.225-0.931l0.008-0.031c0.478-0.192,0.911-0.479,1.298-0.855    c0.385-0.377,0.645-0.809,0.775-1.298c0.134-0.5,0.166-0.933,0.095-1.3c-0.068-0.366-0.221-0.666-0.453-0.901    c-0.232-0.233-0.535-0.41-0.902-0.527c-0.374-0.117-0.793-0.175-1.261-0.175c-0.54,0-1.04,0.087-1.5,0.26    c-0.458,0.173-0.863,0.412-1.223,0.718c-0.356,0.305-0.666,0.673-0.928,1.1c-0.265,0.428-0.475,0.901-0.634,1.422h1.298    c0.086-0.316,0.206-0.617,0.365-0.901c0.156-0.285,0.35-0.535,0.575-0.749c0.224-0.214,0.483-0.384,0.778-0.513    c0.294-0.126,0.614-0.19,0.96-0.19c0.55,0,0.969,0.145,1.257,0.436c0.29,0.29,0.356,0.726,0.202,1.307    c-0.077,0.285-0.202,0.54-0.374,0.764c-0.172,0.225-0.372,0.409-0.6,0.558s-0.477,0.26-0.747,0.335    c-0.271,0.077-0.542,0.116-0.819,0.116h-0.274c-0.05,0-0.102,0-0.152,0c-0.039,0-0.084-0.005-0.132-0.017l-0.296,1.101    c0.253-0.029,0.516-0.045,0.79-0.045c0.329,0,0.619,0.043,0.877,0.13c0.258,0.086,0.462,0.219,0.619,0.396    c0.154,0.18,0.26,0.399,0.313,0.659c0.052,0.258,0.032,0.557-0.056,0.893c-0.089,0.326-0.23,0.618-0.428,0.879    c-0.198,0.26-0.426,0.479-0.688,0.656c-0.263,0.179-0.548,0.315-0.859,0.412c-0.312,0.098-0.625,0.146-0.941,0.146    c-0.743,0-1.248-0.222-1.517-0.665c-0.269-0.442-0.32-1.017-0.15-1.719H334.183z"/>
	</g>
	
    </g>
</svg>
