<?xml version="1.0" encoding="iso-8859-1"?>
<!DOCTYPE svg PUBLIC "-//W3C//DTD SVG 1.1//EN" "http://www.w3.org/Graphics/SVG/1.1/DTD/svg11.dtd">
<svg version="1.1" xmlns="http://www.w3.org/2000/svg" xmlns:xlink="http://www.w3.org/1999/xlink" x="0px" y="0px" width="30" height="30" viewBox="0 0 30 30" xml:space="preserve">
    <g transform="translate(-330 -380)">
        <g xmlns="http://www.w3.org/2000/svg" xmlns:xlink="http://www.w3.org/1999/xlink" id="arrow-fat-shrink-7">
		<path d="M342.939,385.87l-2.121,2.121l-4.242-4.243l-2.829,2.829l4.243,4.242l-2.121,2.121L344,394L342.939,385.87z     M338.013,392.211l1.392-1.392l-4.243-4.242l1.415-1.415l4.242,4.243l1.392-1.392l0.631,4.827L338.013,392.211z"/>
		<path d="M353.424,383.748l-4.242,4.243l-2.121-2.121L346,394l8.131-1.06l-2.121-2.121l4.243-4.242L353.424,383.748z     M351.987,392.211l-4.828,0.63l0.631-4.827l1.392,1.392l4.242-4.243l1.415,1.415l-4.243,4.242L351.987,392.211z"/>
		<path d="M346,396l1.061,8.13l2.121-2.121l4.242,4.243l2.829-2.829l-4.243-4.242l2.121-2.121L346,396z M354.839,403.423    l-1.415,1.415l-4.242-4.243l-1.392,1.392l-0.631-4.827l4.828,0.63l-1.392,1.392L354.839,403.423z"/>
		<path d="M336.576,406.252l4.242-4.243l2.121,2.121L344,396l-8.131,1.06l2.121,2.121l-4.243,4.242L336.576,406.252z     M338.013,397.789l4.828-0.63l-0.631,4.827l-1.392-1.392l-4.242,4.243l-1.415-1.415l4.243-4.242L338.013,397.789z"/>
	</g>
	
    </g>
</svg>
