<?xml version="1.0" encoding="iso-8859-1"?>
<!DOCTYPE svg PUBLIC "-//W3C//DTD SVG 1.1//EN" "http://www.w3.org/Graphics/SVG/1.1/DTD/svg11.dtd">
<svg version="1.1" xmlns="http://www.w3.org/2000/svg" xmlns:xlink="http://www.w3.org/1999/xlink" x="0px" y="0px" width="30" height="30" viewBox="0 0 30 30" xml:space="preserve">
    <g transform="translate(-270 -380)">
        <path xmlns="http://www.w3.org/2000/svg" xmlns:xlink="http://www.w3.org/1999/xlink" id="arrow-fat-navigate-7" d="M292,393h-5v-5h3l-5-6.5l-5,6.5h3v5h-5v-3l-6.5,5l6.5,5v-3h5v5h-3l5,6.5l5-6.5h-3v-5h5v3l6.5-5   l-6.5-5V393z M293,392.031l3.86,2.969l-3.86,2.969V396h-7v7h1.969L285,406.86l-2.969-3.86H284v-7h-7v1.969L273.14,395l3.86-2.969   V394h7v-7h-1.969l2.969-3.86l2.969,3.86H286v7h7V392.031z"/>
	
    </g>
</svg>
