<?xml version="1.0" encoding="iso-8859-1"?>
<!DOCTYPE svg PUBLIC "-//W3C//DTD SVG 1.1//EN" "http://www.w3.org/Graphics/SVG/1.1/DTD/svg11.dtd">
<svg version="1.1" xmlns="http://www.w3.org/2000/svg" xmlns:xlink="http://www.w3.org/1999/xlink" x="0px" y="0px" width="30" height="30" viewBox="0 0 30 30" xml:space="preserve">
    <g transform="translate(-210 -260)">
        <g xmlns="http://www.w3.org/2000/svg" xmlns:xlink="http://www.w3.org/1999/xlink" id="arrow-shuffle-7">
		<path d="M222.762,274.152c0.008-0.012,0.018-0.023,0.025-0.035c0.21-0.287,0.396-0.541,0.593-0.809    c-1.995-2.699-3.353-4.309-4.38-4.309h-7v1h7C219.619,270,221.323,272.199,222.762,274.152z"/>
		<path d="M232.92,277.143l3.072,2.857H229c-0.619,0-2.323-2.199-3.762-4.152c-0.008,0.01-0.018,0.023-0.025,0.033    c-0.21,0.289-0.396,0.543-0.593,0.811c1.995,2.697,3.353,4.309,4.38,4.309h6.994l-3.074,2.857l0.682,0.732L238,280.5l-4.398-4.09    L232.92,277.143z"/>
		<path d="M232.92,266.143l3.072,2.857H229c-1.194,0-2.831,2.168-5.404,5.705C222.063,276.814,219.745,280,219,280h-7v1h7    c1.194,0,2.831-2.168,5.404-5.707c1.533-2.107,3.851-5.293,4.596-5.293h6.994l-3.074,2.857l0.682,0.732L238,269.5l-4.398-4.09    L232.92,266.143z"/>
	</g>
	
    </g>
</svg>
