<?xml version="1.0" encoding="iso-8859-1"?>
<!DOCTYPE svg PUBLIC "-//W3C//DTD SVG 1.1//EN" "http://www.w3.org/Graphics/SVG/1.1/DTD/svg11.dtd">
<svg version="1.1" xmlns="http://www.w3.org/2000/svg" xmlns:xlink="http://www.w3.org/1999/xlink" x="0px" y="0px" width="30" height="30" viewBox="0 0 30 30" xml:space="preserve">
    <g transform="translate(-150 -320)">
        <polygon xmlns="http://www.w3.org/2000/svg" xmlns:xlink="http://www.w3.org/1999/xlink" id="arrow-explode-7" points="173.805,333.587 176.156,337.062 165.991,334.716 175.936,324.771 175.781,328.966    176.782,329.002 177,323.001 170.999,323.219 171.035,324.219 175.227,324.065 165.284,334.009 162.938,323.843 166.412,326.195    166.973,325.366 161.999,322 159.004,327.205 159.871,327.705 161.963,324.066 164.333,334.333 154.068,331.964 157.705,329.872    157.205,329.005 152,332.001 155.365,336.974 156.195,336.414 153.842,332.938 164.009,335.284 154.066,345.227 154.219,341.034    153.219,340.999 153,347.001 159.002,346.782 158.967,345.782 154.771,345.936 164.716,335.991 167.063,346.158 163.586,343.805    163.025,344.635 167.999,348 170.995,342.795 170.129,342.295 168.036,345.932 165.667,335.667 175.934,338.036 172.295,340.129    172.795,340.996 178,338.001 174.635,333.027  "/>
	
    </g>
</svg>
