<?xml version="1.0" encoding="iso-8859-1"?>
<!DOCTYPE svg PUBLIC "-//W3C//DTD SVG 1.1//EN" "http://www.w3.org/Graphics/SVG/1.1/DTD/svg11.dtd">
<svg version="1.1" xmlns="http://www.w3.org/2000/svg" xmlns:xlink="http://www.w3.org/1999/xlink" x="0px" y="0px" width="29" height="30" viewBox="0 0 29 30" xml:space="preserve">
    <g transform="translate(-150 -260)">
        <polygon xmlns="http://www.w3.org/2000/svg" xmlns:xlink="http://www.w3.org/1999/xlink" id="arrow-navigate-7" points="157.08,277.857 154.007,275 164,275 164,284.993 161.143,281.92 160.41,282.602 164.5,287    168.59,282.602 167.857,281.92 165,284.993 165,275 174.993,275 171.92,277.857 172.602,278.59 177,274.5 172.602,270.41    171.92,271.143 174.993,274 165,274 165,264.007 167.857,267.08 168.59,266.398 164.5,262 160.41,266.398 161.143,267.08    164,264.007 164,274 154.007,274 157.08,271.143 156.398,270.41 152,274.5 156.398,278.59  "/>
	
    </g>
</svg>
