<?xml version="1.0" encoding="iso-8859-1"?>
<!DOCTYPE svg PUBLIC "-//W3C//DTD SVG 1.1//EN" "http://www.w3.org/Graphics/SVG/1.1/DTD/svg11.dtd">
<svg version="1.1" xmlns="http://www.w3.org/2000/svg" xmlns:xlink="http://www.w3.org/1999/xlink" x="0px" y="0px" width="30" height="30" viewBox="0 0 30 30" xml:space="preserve">
    <g transform="translate(-30 -260)">
        <g xmlns="http://www.w3.org/2000/svg" xmlns:xlink="http://www.w3.org/1999/xlink" id="arrow-expand-7">
		<polygon points="34,270 35,270 35,265.707 42.646,273.354 43.354,272.646 35.707,265 40,265 40,264 34,264   "/>
		<polygon points="56,264 50,264 50,265 54.293,265 46.646,272.646 47.354,273.354 55,265.707 55,270 56,270   "/>
		<polygon points="50,286 56,286 56,280 55,280 55,284.293 47.354,276.646 46.646,277.354 54.293,285 50,285   "/>
		<polygon points="34,286 40,286 40,285 35.707,285 43.354,277.354 42.646,276.646 35,284.293 35,280 34,280   "/>
	</g>
	
    </g>
</svg>
