<?xml version="1.0" encoding="iso-8859-1"?>
<!DOCTYPE svg PUBLIC "-//W3C//DTD SVG 1.1//EN" "http://www.w3.org/Graphics/SVG/1.1/DTD/svg11.dtd">
<svg version="1.1" xmlns="http://www.w3.org/2000/svg" xmlns:xlink="http://www.w3.org/1999/xlink" x="0px" y="0px" width="30" height="30" viewBox="0 0 30 30" xml:space="preserve">
    <g transform="translate(-510 -260)">
        <path xmlns="http://www.w3.org/2000/svg" xmlns:xlink="http://www.w3.org/1999/xlink" id="arrow-cross-7" d="M534.922,265.11l1.826,3.722l0.898-0.441L534.999,263l-5.185,3.031l0.506,0.864l3.666-2.146   c-2.028,6.655-5.467,11.236-8.991,14.359c-3.52-3.122-6.953-7.702-8.98-14.357l3.665,2.144l0.504-0.864L514.999,263l-2.646,5.391   l0.897,0.442l1.827-3.724c2.072,6.757,5.562,11.441,9.156,14.655c-5.635,4.658-11.227,5.728-11.321,5.744l0.174,0.984   c0.1-0.018,6.013-1.137,11.913-6.064c5.9,4.928,11.813,6.047,11.913,6.064l0.174-0.984c-0.095-0.017-5.688-1.078-11.326-5.74   C529.357,276.555,532.848,271.87,534.922,265.11z"/>
	
    </g>
</svg>
