<?xml version="1.0" encoding="iso-8859-1"?>
<!DOCTYPE svg PUBLIC "-//W3C//DTD SVG 1.1//EN" "http://www.w3.org/Graphics/SVG/1.1/DTD/svg11.dtd">
<svg version="1.1" xmlns="http://www.w3.org/2000/svg" xmlns:xlink="http://www.w3.org/1999/xlink" x="0px" y="0px" width="30" height="30" viewBox="0 0 30 30" xml:space="preserve">
    <g transform="translate(-270 -260)">
        <path xmlns="http://www.w3.org/2000/svg" xmlns:xlink="http://www.w3.org/1999/xlink" id="arrow-repeat-7" d="M289.639,271.474l4.86,3.526l3.165-5.104l-0.851-0.528l-2.08,3.357   C293.695,268.25,289.699,265,285,265c-5.514,0-10,4.486-10,10s4.486,10,10,10c4.31,0,8.12-2.75,9.483-6.842l-0.949-0.316   C292.308,281.525,288.878,284,285,284c-4.963,0-9-4.037-9-9s4.037-9,9-9c4.345,0,8.021,3.085,8.83,7.28l-3.604-2.617   L289.639,271.474z"/>
	
    </g>
</svg>
