<?xml version="1.0" encoding="iso-8859-1"?>
<!DOCTYPE svg PUBLIC "-//W3C//DTD SVG 1.1//EN" "http://www.w3.org/Graphics/SVG/1.1/DTD/svg11.dtd">
<svg version="1.1" xmlns="http://www.w3.org/2000/svg" xmlns:xlink="http://www.w3.org/1999/xlink" x="0px" y="0px" width="30" height="30" viewBox="0 0 30 30" xml:space="preserve">
    <g transform="translate(-30 -440)">
        <g xmlns="http://www.w3.org/2000/svg" xmlns:xlink="http://www.w3.org/1999/xlink" id="button-play-7">
		<path d="M45,442c-7.18,0-13,5.82-13,13s5.82,13,13,13s13-5.82,13-13S52.18,442,45,442z M45,467c-6.617,0-12-5.383-12-12    s5.383-12,12-12s12,5.383,12,12S51.617,467,45,467z"/>
		<path d="M42,461l10-6l-10-6V461z M43,450.767L50.057,455L43,459.233V450.767z"/>
	</g>
	
    </g>
</svg>
