<?xml version="1.0" encoding="iso-8859-1"?>
<!DOCTYPE svg PUBLIC "-//W3C//DTD SVG 1.1//EN" "http://www.w3.org/Graphics/SVG/1.1/DTD/svg11.dtd">
<svg version="1.1" xmlns="http://www.w3.org/2000/svg" xmlns:xlink="http://www.w3.org/1999/xlink" x="0px" y="0px" width="30" height="30" viewBox="0 0 30 30" xml:space="preserve">
    <g transform="translate(-210 -440)">
        <g xmlns="http://www.w3.org/2000/svg" xmlns:xlink="http://www.w3.org/1999/xlink" id="button-record-7">
		<path d="M225,442c-7.18,0-13,5.82-13,13s5.82,13,13,13s13-5.82,13-13S232.18,442,225,442z M225,467c-6.617,0-12-5.383-12-12    s5.383-12,12-12s12,5.383,12,12S231.617,467,225,467z"/>
		<path d="M225,450c-2.762,0-5,2.238-5,5s2.238,5,5,5s5-2.238,5-5S227.762,450,225,450z M225,459c-2.209,0-4-1.791-4-4s1.791-4,4-4    s4,1.791,4,4S227.209,459,225,459z"/>
	</g>
	
    </g>
</svg>
