<?xml version="1.0" encoding="iso-8859-1"?>
<!DOCTYPE svg PUBLIC "-//W3C//DTD SVG 1.1//EN" "http://www.w3.org/Graphics/SVG/1.1/DTD/svg11.dtd">
<svg version="1.1" xmlns="http://www.w3.org/2000/svg" xmlns:xlink="http://www.w3.org/1999/xlink" x="0px" y="0px" width="30" height="30" viewBox="0 0 30 30" xml:space="preserve">
    <g transform="translate(-510 -440)">
        <g xmlns="http://www.w3.org/2000/svg" xmlns:xlink="http://www.w3.org/1999/xlink" id="button-previous-7">
		<path d="M525,442c-7.18,0-13,5.82-13,13s5.82,13,13,13s13-5.82,13-13S532.18,442,525,442z M525,467c-6.617,0-12-5.383-12-12    s5.383-12,12-12s12,5.383,12,12S531.617,467,525,467z"/>
		<path d="M519,455l7,5v-5v-5L519,455z M525,458.057L520.721,455l4.279-3.057V458.057z"/>
		<path d="M533,460v-10l-7,5L533,460z M532,458.057L527.721,455l4.279-3.057V458.057z"/>
		<polygon points="518,450 518,460 519,460 519,455 519,450   "/>
	</g>
	
    </g>
</svg>
