<?xml version="1.0" encoding="iso-8859-1"?>
<!DOCTYPE svg PUBLIC "-//W3C//DTD SVG 1.1//EN" "http://www.w3.org/Graphics/SVG/1.1/DTD/svg11.dtd">
<svg version="1.1" xmlns="http://www.w3.org/2000/svg" xmlns:xlink="http://www.w3.org/1999/xlink" x="0px" y="0px" width="30" height="30" viewBox="0 0 30 30" xml:space="preserve">
    <g transform="translate(-390 -440)">
        <g xmlns="http://www.w3.org/2000/svg" xmlns:xlink="http://www.w3.org/1999/xlink" id="button-previous-skip-7">
		<path d="M405,442c-7.18,0-13,5.82-13,13s5.82,13,13,13s13-5.82,13-13S412.18,442,405,442z M405,467c-6.617,0-12-5.383-12-12    s5.383-12,12-12s12,5.383,12,12S411.617,467,405,467z"/>
		<path d="M409,460v-10l-7,5L409,460z M408,458.057L403.721,455l4.279-3.057V458.057z"/>
		<polygon points="401,450 401,460 402,460 402,455 402,450   "/>
	</g>
	
    </g>
</svg>
