<?xml version="1.0" encoding="iso-8859-1"?>
<!DOCTYPE svg PUBLIC "-//W3C//DTD SVG 1.1//EN" "http://www.w3.org/Graphics/SVG/1.1/DTD/svg11.dtd">
<svg version="1.1" xmlns="http://www.w3.org/2000/svg" xmlns:xlink="http://www.w3.org/1999/xlink" x="0px" y="0px" width="30" height="30" viewBox="0 0 30 30" xml:space="preserve">
    <g transform="translate(-270 -440)">
        <g xmlns="http://www.w3.org/2000/svg" xmlns:xlink="http://www.w3.org/1999/xlink" id="button-fast-backward-7">
		<path d="M285,442c-7.18,0-13,5.82-13,13s5.82,13,13,13s13-5.82,13-13S292.18,442,285,442z M285,467c-6.617,0-12-5.383-12-12    s5.383-12,12-12s12,5.383,12,12S291.617,467,285,467z"/>
		<path d="M277,455l7,5v-5v-5L277,455z M283,458.057L278.721,455l4.279-3.057V458.057z"/>
		<path d="M291,460v-10l-7,5L291,460z M290,458.057L285.721,455l4.279-3.057V458.057z"/>
	</g>
	
    </g>
</svg>
