<?xml version="1.0" encoding="iso-8859-1"?>
<!DOCTYPE svg PUBLIC "-//W3C//DTD SVG 1.1//EN" "http://www.w3.org/Graphics/SVG/1.1/DTD/svg11.dtd">
<svg version="1.1" xmlns="http://www.w3.org/2000/svg" xmlns:xlink="http://www.w3.org/1999/xlink" x="0px" y="0px" width="29" height="30" viewBox="0 0 29 30" xml:space="preserve">
    <g transform="translate(-511 -140)">
        <g xmlns="http://www.w3.org/2000/svg" xmlns:xlink="http://www.w3.org/1999/xlink" id="circle-arrow-left-two-7_3_">
		<path d="M513,155.5c0,6.903,5.598,12.5,12.5,12.5c6.904,0,12.5-5.597,12.5-12.5s-5.596-12.5-12.5-12.5    C518.598,143,513,148.597,513,155.5z M514,155.5c0-6.341,5.159-11.5,11.5-11.5c6.342,0,11.5,5.159,11.5,11.5    s-5.158,11.5-11.5,11.5C519.159,167,514,161.841,514,155.5z"/>
		<g>
			<g>
				<polygon points="522.398,155.411 523.08,156.143 519.469,159.5 523.08,162.857 522.398,163.589 518,159.5     "/>
			</g>
		</g>
		<g>
			<g>
				<polygon points="527.398,147.411 528.08,148.143 524.469,151.5 528.08,154.857 527.398,155.589 523,151.5     "/>
			</g>
		</g>
		<rect x="524" y="151" width="13" height="1"/>
		<rect x="519" y="159" width="18" height="1"/>
	</g>
	
    </g>
</svg>
