<?xml version="1.0" encoding="iso-8859-1"?>
<!DOCTYPE svg PUBLIC "-//W3C//DTD SVG 1.1//EN" "http://www.w3.org/Graphics/SVG/1.1/DTD/svg11.dtd">
<svg version="1.1" xmlns="http://www.w3.org/2000/svg" xmlns:xlink="http://www.w3.org/1999/xlink" x="0px" y="0px" width="29" height="30" viewBox="0 0 29 30" xml:space="preserve">
    <g transform="translate(-571 -140)">
        <g xmlns="http://www.w3.org/2000/svg" xmlns:xlink="http://www.w3.org/1999/xlink" id="circle-arrow-right-two-7_3_">
		<path d="M585.5,143c-6.904,0-12.5,5.597-12.5,12.5s5.596,12.5,12.5,12.5c6.902,0,12.5-5.597,12.5-12.5S592.402,143,585.5,143z     M585.5,167c-6.342,0-11.5-5.159-11.5-11.5s5.158-11.5,11.5-11.5c6.341,0,11.5,5.159,11.5,11.5S591.841,167,585.5,167z"/>
		<g>
			<g>
				<polygon points="588.602,155.411 587.92,156.143 591.531,159.5 587.92,162.857 588.602,163.589 593,159.5     "/>
			</g>
		</g>
		<g>
			<g>
				<polygon points="583.602,147.411 582.92,148.143 586.531,151.5 582.92,154.857 583.602,155.589 588,151.5     "/>
			</g>
		</g>
		<rect x="574" y="151" width="13" height="1"/>
		<rect x="574" y="159" width="18" height="1"/>
	</g>
	
    </g>
</svg>
