<?xml version="1.0" encoding="iso-8859-1"?>
<!DOCTYPE svg PUBLIC "-//W3C//DTD SVG 1.1//EN" "http://www.w3.org/Graphics/SVG/1.1/DTD/svg11.dtd">
<svg version="1.1" xmlns="http://www.w3.org/2000/svg" xmlns:xlink="http://www.w3.org/1999/xlink" x="0px" y="0px" width="29" height="30" viewBox="0 0 29 30" xml:space="preserve">
    <g transform="translate(-450 -140)">
        <path xmlns="http://www.w3.org/2000/svg" xmlns:xlink="http://www.w3.org/1999/xlink" id="circle-arrow-right-in-two-7" d="M464.5,168c6.902,0,12.5-5.597,12.5-12.5s-5.598-12.5-12.5-12.5s-12.5,5.597-12.5,12.5   S457.598,168,464.5,168z M464.5,144c2.991,0,5.71,1.158,7.758,3.036l-6.339,6.337l0.153-4.193l-1-0.036l-0.219,6.002l6.002-0.218   l-0.035-1l-4.194,0.153l6.339-6.338c1.878,2.048,3.035,4.767,3.035,7.757c0,6.341-5.16,11.5-11.5,11.5   c-2.99,0-5.709-1.157-7.757-3.035l6.338-6.339l-0.153,4.193l1,0.036l0.219-6.002l-6.002,0.219l0.037,1l4.192-0.153l-6.338,6.339   c-1.878-2.048-3.036-4.767-3.036-7.758C453,149.158,458.158,144,464.5,144z"/>
	
    </g>
</svg>
