<?xml version="1.0" encoding="iso-8859-1"?>
<!DOCTYPE svg PUBLIC "-//W3C//DTD SVG 1.1//EN" "http://www.w3.org/Graphics/SVG/1.1/DTD/svg11.dtd">
<svg version="1.1" xmlns="http://www.w3.org/2000/svg" xmlns:xlink="http://www.w3.org/1999/xlink" x="0px" y="0px" width="29" height="30" viewBox="0 0 29 30" xml:space="preserve">
    <g transform="translate(-90 -140)">
        <g xmlns="http://www.w3.org/2000/svg" xmlns:xlink="http://www.w3.org/1999/xlink" id="circle-arrow-out-top-down-7">
		<path d="M104.5,168c6.903,0,12.5-5.597,12.5-12.5s-5.597-12.5-12.5-12.5S92,148.597,92,155.5S97.597,168,104.5,168z M104.5,144    c6.341,0,11.5,5.158,11.5,11.5s-5.159,11.5-11.5,11.5S93,161.842,93,155.5S98.159,144,104.5,144z"/>
		<polygon points="101.143,159.92 100.41,160.602 104.5,165 108.59,160.602 107.857,159.92 105,162.994 105,148.006 107.857,151.08     108.59,150.398 104.5,146 100.41,150.398 101.143,151.08 104,148.008 104,162.992   "/>
	</g>
	
    </g>
</svg>
