<?xml version="1.0" encoding="iso-8859-1"?>
<!DOCTYPE svg PUBLIC "-//W3C//DTD SVG 1.1//EN" "http://www.w3.org/Graphics/SVG/1.1/DTD/svg11.dtd">
<svg version="1.1" xmlns="http://www.w3.org/2000/svg" xmlns:xlink="http://www.w3.org/1999/xlink" x="0px" y="0px" width="29" height="30" viewBox="0 0 29 30" xml:space="preserve">
    <g transform="translate(-330 -140)">
        <path xmlns="http://www.w3.org/2000/svg" xmlns:xlink="http://www.w3.org/1999/xlink" id="circle-arrow-top-down-7" d="M344.5,168c6.904,0,12.5-5.597,12.5-12.5s-5.596-12.5-12.5-12.5   c-6.902,0-12.5,5.597-12.5,12.5S337.598,168,344.5,168z M344,144.025v8.968l-2.857-3.073l-0.732,0.682L344.5,155l4.09-4.398   l-0.732-0.682L345,152.993v-8.968c6.109,0.265,11,5.302,11,11.475s-4.891,11.21-11,11.475v-8.968l2.857,3.073l0.732-0.682   L344.5,156l-4.09,4.398l0.732,0.682l2.857-3.073v8.968c-6.107-0.265-11-5.302-11-11.475S337.893,144.29,344,144.025z"/>
	
    </g>
</svg>
