<?xml version="1.0" encoding="iso-8859-1"?>
<!DOCTYPE svg PUBLIC "-//W3C//DTD SVG 1.1//EN" "http://www.w3.org/Graphics/SVG/1.1/DTD/svg11.dtd">
<svg version="1.1" xmlns="http://www.w3.org/2000/svg" xmlns:xlink="http://www.w3.org/1999/xlink" x="0px" y="0px" width="29" height="30" viewBox="0 0 29 30" xml:space="preserve">
    <g transform="translate(-30 -140)">
        <g xmlns="http://www.w3.org/2000/svg" xmlns:xlink="http://www.w3.org/1999/xlink" id="circle-arrow-out-left-right-7_3_">
		<path d="M57,155.5c0-6.903-5.597-12.5-12.5-12.5S32,148.597,32,155.5S37.597,168,44.5,168S57,162.403,57,155.5z M33,155.5    c0-6.341,5.158-11.5,11.5-11.5S56,149.159,56,155.5S50.842,167,44.5,167S33,161.841,33,155.5z"/>
		<polygon points="48.92,158.857 49.602,159.59 54,155.5 49.602,151.41 48.92,152.143 51.994,155 37.006,155 40.08,152.143     39.398,151.41 35,155.5 39.398,159.59 40.08,158.857 37.008,156 51.992,156   "/>
	</g>
	
    </g>
</svg>
