<?xml version="1.0" encoding="iso-8859-1"?>
<!DOCTYPE svg PUBLIC "-//W3C//DTD SVG 1.1//EN" "http://www.w3.org/Graphics/SVG/1.1/DTD/svg11.dtd">
<svg version="1.1" xmlns="http://www.w3.org/2000/svg" xmlns:xlink="http://www.w3.org/1999/xlink" x="0px" y="0px" width="29" height="30" viewBox="0 0 29 30" xml:space="preserve">
    <g transform="translate(-390 -140)">
        <path xmlns="http://www.w3.org/2000/svg" xmlns:xlink="http://www.w3.org/1999/xlink" id="circle-arrow-left-in-two-7" d="M404.5,168c6.904,0,12.502-5.597,12.5-12.5c0.002-6.903-5.596-12.5-12.5-12.5   c-6.902,0-12.5,5.597-12.5,12.5S397.598,168,404.5,168z M396.036,147.742l6.338,6.339l-4.192-0.153l-0.037,1l6.002,0.218   l-0.217-6.002l-1,0.036l0.153,4.195l-6.34-6.34c2.048-1.878,4.767-3.035,7.757-3.035c6.342,0,11.5,5.158,11.5,11.5   c0,2.992-1.157,5.711-3.036,7.758l-6.338-6.339l4.194,0.153l0.035-1l-6.002-0.219l0.219,6.002l1-0.036l-0.153-4.193l6.338,6.339   c-2.047,1.877-4.766,3.034-7.757,3.035c-6.34,0-11.5-5.159-11.5-11.5C393,152.509,394.157,149.79,396.036,147.742z"/>
	
    </g>
</svg>
