<?xml version="1.0" encoding="iso-8859-1"?>
<!DOCTYPE svg PUBLIC "-//W3C//DTD SVG 1.1//EN" "http://www.w3.org/Graphics/SVG/1.1/DTD/svg11.dtd">
<svg version="1.1" xmlns="http://www.w3.org/2000/svg" xmlns:xlink="http://www.w3.org/1999/xlink" x="0px" y="0px" width="29" height="30" viewBox="0 0 29 30" xml:space="preserve">
    <g transform="translate(-270 -140)">
        <g xmlns="http://www.w3.org/2000/svg" xmlns:xlink="http://www.w3.org/1999/xlink" id="circle-arrow-left-right-7_3_">
		<path d="M272,155.5c0,6.903,5.598,12.5,12.5,12.5c6.904,0,12.5-5.597,12.5-12.5s-5.596-12.5-12.5-12.5    C277.598,143,272,148.597,272,155.5z M273,155.5c0-6.341,5.158-11.5,11.5-11.5s11.5,5.159,11.5,11.5s-5.158,11.5-11.5,11.5    S273,161.841,273,155.5z"/>
		<g>
			<g>
				<polygon points="289.398,151.411 290.08,152.143 286.469,155.5 290.08,158.857 289.398,159.589 285,155.5     "/>
			</g>
		</g>
		<g>
			<g>
				<polygon points="279.602,151.411 278.92,152.143 282.532,155.5 278.92,158.857 279.602,159.589 284,155.5     "/>
			</g>
		</g>
		<rect x="272.5" y="155" width="10.5" height="1"/>
		<rect x="286" y="155" width="10.5" height="1"/>
	</g>
	
    </g>
</svg>
