<?xml version="1.0" encoding="iso-8859-1"?>
<!DOCTYPE svg PUBLIC "-//W3C//DTD SVG 1.1//EN" "http://www.w3.org/Graphics/SVG/1.1/DTD/svg11.dtd">
<svg version="1.1" xmlns="http://www.w3.org/2000/svg" xmlns:xlink="http://www.w3.org/1999/xlink" x="0px" y="0px" width="29" height="30" viewBox="0 0 29 30" xml:space="preserve">
    <g transform="translate(-90 -80)">
        <g xmlns="http://www.w3.org/2000/svg" xmlns:xlink="http://www.w3.org/1999/xlink" id="connect-arrow-right-7_3_">
		<polygon points="92.5,95 110.995,95 107.92,92.143 108.602,91.41 113,95.499 108.602,99.589 107.92,98.856 110.993,96 92.5,96       "/>
		<g>
			<path d="M92,95.5c0,6.903,5.597,12.5,12.5,12.5s12.5-5.597,12.5-12.5S111.403,83,104.5,83S92,88.597,92,95.5z M93,95.5     c0-6.341,5.159-11.5,11.5-11.5S116,89.159,116,95.5s-5.159,11.5-11.5,11.5S93,101.841,93,95.5z"/>
		</g>
	</g>
	
    </g>
</svg>
