<?xml version="1.0" encoding="iso-8859-1"?>
<!DOCTYPE svg PUBLIC "-//W3C//DTD SVG 1.1//EN" "http://www.w3.org/Graphics/SVG/1.1/DTD/svg11.dtd">
<svg version="1.1" xmlns="http://www.w3.org/2000/svg" xmlns:xlink="http://www.w3.org/1999/xlink" x="0px" y="0px" width="29" height="30" viewBox="0 0 29 30" xml:space="preserve">
    <g transform="translate(-210 -80)">
        <path xmlns="http://www.w3.org/2000/svg" xmlns:xlink="http://www.w3.org/1999/xlink" id="connect-arrow-up-7_3_" d="M224.5,108c6.903,0,12.5-5.597,12.5-12.5S231.403,83,224.5,83S212,88.597,212,95.5   S217.597,108,224.5,108z M225,106.975V89.008l2.856,3.072l0.732-0.682L224.499,87l-4.089,4.398l0.732,0.682L224,89.006v17.969   c-6.108-0.265-11-5.303-11-11.475c0-6.341,5.159-11.5,11.5-11.5S236,89.159,236,95.5C236,101.672,231.108,106.71,225,106.975z"/>
	
    </g>
</svg>
