<?xml version="1.0" encoding="iso-8859-1"?>
<!DOCTYPE svg PUBLIC "-//W3C//DTD SVG 1.1//EN" "http://www.w3.org/Graphics/SVG/1.1/DTD/svg11.dtd">
<svg version="1.1" xmlns="http://www.w3.org/2000/svg" xmlns:xlink="http://www.w3.org/1999/xlink" x="0px" y="0px" width="29" height="30" viewBox="0 0 29 30" xml:space="preserve">
    <g transform="translate(-570 -500)">
        <path xmlns="http://www.w3.org/2000/svg" xmlns:xlink="http://www.w3.org/1999/xlink" id="infinity-7" d="M590.5,508c-2.263,0-4.253,1.157-5.417,2.91c0.198,0.363,0.362,0.747,0.499,1.143   c0.902-1.807,2.766-3.053,4.918-3.053c3.032,0,5.5,2.468,5.5,5.5s-2.468,5.5-5.5,5.5c-2.152,0-4.016-1.246-4.918-3.053   c-0.369-0.738-0.582-1.567-0.582-2.447c0-0.887-0.179-1.73-0.5-2.5c-0.16-0.384-0.355-0.748-0.583-1.09   c-1.164-1.753-3.154-2.91-5.417-2.91c-3.59,0-6.5,2.91-6.5,6.5s2.91,6.5,6.5,6.5c2.263,0,4.253-1.157,5.417-2.91   c-0.198-0.363-0.362-0.747-0.499-1.143c-0.902,1.807-2.766,3.053-4.918,3.053c-3.032,0-5.5-2.468-5.5-5.5s2.468-5.5,5.5-5.5   c2.152,0,4.016,1.246,4.918,3.053c0.369,0.738,0.582,1.567,0.582,2.447c0,0.887,0.179,1.73,0.5,2.5   c0.16,0.384,0.355,0.748,0.583,1.09c1.164,1.753,3.154,2.91,5.417,2.91c3.59,0,6.5-2.91,6.5-6.5S594.09,508,590.5,508z"/>
	
    </g>
</svg>
