<?xml version="1.0" encoding="iso-8859-1"?>
<!DOCTYPE svg PUBLIC "-//W3C//DTD SVG 1.1//EN" "http://www.w3.org/Graphics/SVG/1.1/DTD/svg11.dtd">
<svg version="1.1" xmlns="http://www.w3.org/2000/svg" xmlns:xlink="http://www.w3.org/1999/xlink" x="0px" y="0px" width="29" height="30" viewBox="0 0 29 30" xml:space="preserve">
    <g transform="translate(-510 -320)">
        <path xmlns="http://www.w3.org/2000/svg" xmlns:xlink="http://www.w3.org/1999/xlink" id="unique-left-right-out-7" d="M532.602,339.59L537,335.5l-4.398-4.09l-0.682,0.732l3.074,2.857h-5.02   c-0.253-2.804-2.606-5-5.475-5s-5.222,2.196-5.475,5h-5.019l3.073-2.857l-0.682-0.732L512,335.5l4.398,4.09l0.682-0.732   L514.007,336h5.019c0.253,2.804,2.606,5,5.475,5s5.222-2.196,5.475-5h5.02l-3.074,2.857L532.602,339.59z M524.5,340   c-2.31,0-4.197-1.756-4.449-4H524v-1h-3.949c0.252-2.244,2.14-4,4.449-4s4.197,1.756,4.449,4H525v1h3.949   C528.697,338.244,526.81,340,524.5,340z"/>
	
    </g>
</svg>
