<?xml version="1.0" encoding="iso-8859-1"?>
<!DOCTYPE svg PUBLIC "-//W3C//DTD SVG 1.1//EN" "http://www.w3.org/Graphics/SVG/1.1/DTD/svg11.dtd">
<svg version="1.1" xmlns="http://www.w3.org/2000/svg" xmlns:xlink="http://www.w3.org/1999/xlink" x="0px" y="0px" width="29" height="30" viewBox="0 0 29 30" xml:space="preserve">
    <g transform="translate(-210 -320)">
        <path xmlns="http://www.w3.org/2000/svg" xmlns:xlink="http://www.w3.org/1999/xlink" id="unique-down-in-7" d="M224,322v9.025c-4.46,0.26-8,3.948-8,8.475c0,4.695,3.806,8.5,8.5,8.5s8.5-3.805,8.5-8.5   c0-4.526-3.54-8.215-8-8.475V322H224z M232,339.5c0,4.136-3.364,7.499-7.5,7.499s-7.5-3.363-7.5-7.499c0-3.967,3.098-7.215,7-7.474   v8.966l-2.856-3.072l-0.732,0.682l4.09,4.398l4.088-4.398l-0.732-0.682L225,340.994v-8.968C228.902,332.285,232,335.533,232,339.5z   "/>
	
    </g>
</svg>
