<?xml version="1.0" encoding="iso-8859-1"?>
<!DOCTYPE svg PUBLIC "-//W3C//DTD SVG 1.1//EN" "http://www.w3.org/Graphics/SVG/1.1/DTD/svg11.dtd">
<svg version="1.1" xmlns="http://www.w3.org/2000/svg" xmlns:xlink="http://www.w3.org/1999/xlink" x="0px" y="0px" width="29" height="30" viewBox="0 0 29 30" xml:space="preserve">
    <g transform="translate(-570 -320)">
        <path xmlns="http://www.w3.org/2000/svg" xmlns:xlink="http://www.w3.org/1999/xlink" id="unique-navigate-7" d="M577.08,338.857L574.007,336h5.019c0.238,2.639,2.337,4.736,4.975,4.975v5.02l-2.857-3.074   l-0.732,0.682L584.5,348l4.09-4.398l-0.732-0.682L585,345.994v-5.02c2.638-0.238,4.736-2.336,4.975-4.975h5.02l-3.074,2.857   l0.682,0.732L597,335.5l-4.398-4.09l-0.682,0.732l3.074,2.857h-5.02c-0.238-2.639-2.337-4.736-4.975-4.975v-5.019l2.857,3.073   l0.732-0.682L584.5,323l-4.09,4.398l0.732,0.682l2.857-3.073v5.019c-2.638,0.238-4.736,2.336-4.975,4.975h-5.019l3.073-2.857   l-0.682-0.732L572,335.5l4.398,4.09L577.08,338.857z M584,331.051V334h1v-2.949c2.077,0.233,3.716,1.872,3.949,3.949H586v1h2.949   c-0.233,2.077-1.872,3.716-3.949,3.949V337h-1v2.949c-2.077-0.233-3.716-1.872-3.949-3.949H583v-1h-2.949   C580.284,332.923,581.923,331.284,584,331.051z"/>
	
    </g>
</svg>
