<?xml version="1.0" encoding="iso-8859-1"?>
<!DOCTYPE svg PUBLIC "-//W3C//DTD SVG 1.1//EN" "http://www.w3.org/Graphics/SVG/1.1/DTD/svg11.dtd">
<svg version="1.1" xmlns="http://www.w3.org/2000/svg" xmlns:xlink="http://www.w3.org/1999/xlink" x="0px" y="0px" width="29" height="30" viewBox="0 0 29 30" xml:space="preserve">
    <g transform="translate(-450 -680)">
        <g xmlns="http://www.w3.org/2000/svg" xmlns:xlink="http://www.w3.org/1999/xlink" id="app-7">
		<path d="M452,708h25v-25h-25V708z M476,695h-5v-5h5V695z M476,684v5h-5v-5H476z M465,684h5v5h-5V684z M465,690h5v5h-5V690z     M465,696h11v11h-11V696z M453,684h11v11h-11V684z M453,696h11v11h-11V696z"/>
		<rect x="455" y="689" width="7" height="1"/>
		<rect x="455" y="687" width="7" height="1"/>
		<rect x="455" y="691" width="7" height="1"/>
		<path d="M455,705h5v-7h-5V705z M456,699h3v5h-3V699z"/>
		<rect x="461" y="698" width="1" height="7"/>
		<path d="M470.5,698c-1.933,0-3.5,1.567-3.5,3.5s1.567,3.5,3.5,3.5s3.5-1.567,3.5-3.5S472.433,698,470.5,698z M470.5,704    c-1.381,0-2.5-1.119-2.5-2.5s1.119-2.5,2.5-2.5s2.5,1.119,2.5,2.5S471.881,704,470.5,704z"/>
	</g>
	
    </g>
</svg>
