<?xml version="1.0" encoding="iso-8859-1"?>
<!DOCTYPE svg PUBLIC "-//W3C//DTD SVG 1.1//EN" "http://www.w3.org/Graphics/SVG/1.1/DTD/svg11.dtd">
<svg version="1.1" xmlns="http://www.w3.org/2000/svg" xmlns:xlink="http://www.w3.org/1999/xlink" x="0px" y="0px" width="30" height="30" viewBox="0 0 30 30" xml:space="preserve">
    <g transform="translate(-330 -680)">
        <g xmlns="http://www.w3.org/2000/svg" xmlns:xlink="http://www.w3.org/1999/xlink" id="battery-cable-7">
		<path d="M345,707h-10v-17h9v-1h-1h-8v-4h8h2h1v-1h-3v-2h-6v2h-3v24h12v-11.185c-0.374-0.133-0.711-0.335-1-0.596V707z"/>
		<path d="M351,708v-11v-1h2c1.104,0,2-0.896,2-2v-6h1v-2h-3v-4h-1v4h-4v-4h-1v4h-3v2h1v1v1v4c0,1.104,0.896,2,2,2h2v1v11H351z     M347,695c-0.552,0-1-0.449-1-1v-6h8v6c0,0.551-0.448,1-1,1H347z"/>
		<rect x="348" y="690" width="4" height="1"/>
		<rect x="348" y="692" width="4" height="1"/>
	</g>
	
    </g>
</svg>
