<?xml version="1.0" encoding="iso-8859-1"?>
<!DOCTYPE svg PUBLIC "-//W3C//DTD SVG 1.1//EN" "http://www.w3.org/Graphics/SVG/1.1/DTD/svg11.dtd">
<svg version="1.1" xmlns="http://www.w3.org/2000/svg" xmlns:xlink="http://www.w3.org/1999/xlink" x="0px" y="0px" width="30" height="30" viewBox="0 0 30 30" xml:space="preserve">
    <g transform="translate(-210 -680)">
        <g xmlns="http://www.w3.org/2000/svg" xmlns:xlink="http://www.w3.org/1999/xlink" id="battery-tick-7">
		<path d="M220,682v2h-3v24h7.413c1.337,1.237,3.121,2,5.087,2c4.143,0,7.5-3.357,7.5-7.5s-3.357-7.5-7.5-7.5    c-0.169,0-0.334,0.015-0.5,0.025V684h-3v-2H220z M229.5,696c3.59,0,6.5,2.91,6.5,6.5s-2.91,6.5-6.5,6.5s-6.5-2.91-6.5-6.5    S225.91,696,229.5,696z M222,702.5c0,1.691,0.566,3.246,1.51,4.5H218v-17h10v5.15C224.576,695.846,222,698.871,222,702.5z     M228,685v4h-10v-4H228z"/>
		<polygon points="225.965,702.146 225.258,702.854 228.086,705.682 233.742,700.025 233.035,699.318 228.086,704.268   "/>
	</g>
	
    </g>
</svg>
