<?xml version="1.0" encoding="iso-8859-1"?>
<!DOCTYPE svg PUBLIC "-//W3C//DTD SVG 1.1//EN" "http://www.w3.org/Graphics/SVG/1.1/DTD/svg11.dtd">
<svg version="1.1" xmlns="http://www.w3.org/2000/svg" xmlns:xlink="http://www.w3.org/1999/xlink" x="0px" y="0px" width="30" height="30" viewBox="0 0 30 30" xml:space="preserve">
    <g transform="translate(-150 -680)">
        <g xmlns="http://www.w3.org/2000/svg" xmlns:xlink="http://www.w3.org/1999/xlink" id="battery-minus-7">
		<path d="M160,682v2h-3v24h7.413c1.337,1.237,3.121,2,5.087,2c4.143,0,7.5-3.357,7.5-7.5s-3.357-7.5-7.5-7.5    c-0.169,0-0.334,0.015-0.5,0.025V684h-3v-2H160z M169.5,696c3.59,0,6.5,2.91,6.5,6.5s-2.91,6.5-6.5,6.5s-6.5-2.91-6.5-6.5    S165.91,696,169.5,696z M162,702.5c0,1.691,0.566,3.246,1.51,4.5H158v-17h10v5.15C164.576,695.846,162,698.871,162,702.5z     M168,685v4h-10v-4H168z"/>
		<rect x="165" y="702" width="9" height="1"/>
	</g>
	
    </g>
</svg>
