<?xml version="1.0" encoding="iso-8859-1"?>
<!DOCTYPE svg PUBLIC "-//W3C//DTD SVG 1.1//EN" "http://www.w3.org/Graphics/SVG/1.1/DTD/svg11.dtd">
<svg version="1.1" xmlns="http://www.w3.org/2000/svg" xmlns:xlink="http://www.w3.org/1999/xlink" x="0px" y="0px" width="30" height="30" viewBox="0 0 30 30" xml:space="preserve">
    <g transform="translate(-510 -440)">
        <g xmlns="http://www.w3.org/2000/svg" xmlns:xlink="http://www.w3.org/1999/xlink" id="bell-tick-7">
		<path d="M534,455.15c0-1.199,0-2.327,0-3.15c0-2.586-2.977-6.652-7-7.726V444c0-1.104-0.896-2-2-2s-2,0.896-2,2v0.274    c-4.023,1.073-7,5.14-7,7.726c0,3,0,10,0,10s0,2-2,2v1h5h6h0.436c0.122,0.345,0.265,0.68,0.434,1h-3.686    c0.414,1.162,1.513,2,2.816,2c0.684,0,1.309-0.235,1.81-0.622c1.376,1.603,3.412,2.622,5.69,2.622c4.143,0,7.5-3.357,7.5-7.5    C540,458.871,537.424,455.845,534,455.15z M516.287,464c0.502-0.607,0.713-1.381,0.713-2v-10c0-2.334,3.459-7,8-7s8,4.666,8,7    v3.025c-0.166-0.011-0.331-0.025-0.5-0.025c-4.143,0-7.5,3.357-7.5,7.5c0,0.514,0.052,1.015,0.15,1.5H516.287z M532.5,469    c-3.59,0-6.5-2.91-6.5-6.5s2.91-6.5,6.5-6.5s6.5,2.91,6.5,6.5S536.09,469,532.5,469z"/>
		<polygon points="531.086,464.268 528.965,462.146 528.258,462.854 531.086,465.682 536.742,460.025 536.035,459.318   "/>
	</g>
	
    </g>
</svg>
