<?xml version="1.0" encoding="iso-8859-1"?>
<!DOCTYPE svg PUBLIC "-//W3C//DTD SVG 1.1//EN" "http://www.w3.org/Graphics/SVG/1.1/DTD/svg11.dtd">
<svg version="1.1" xmlns="http://www.w3.org/2000/svg" xmlns:xlink="http://www.w3.org/1999/xlink" x="0px" y="0px" width="30" height="30" viewBox="0 0 30 30" xml:space="preserve">
    <g transform="translate(-570 -440)">
        <g xmlns="http://www.w3.org/2000/svg" xmlns:xlink="http://www.w3.org/1999/xlink" id="bell-off-7">
		<path d="M587.816,466h-5.633c0.414,1.162,1.513,2,2.816,2S587.402,467.162,587.816,466z"/>
		<path d="M596,464c-0.261,0-0.484-0.037-0.682-0.096l-1.175-1.175C594.008,462.335,594,462,594,462s0-7,0-10    c0-2.586-2.977-6.652-7-7.726V444c0-1.104-0.896-2-2-2s-2,0.896-2,2v0.274c-1.771,0.472-3.337,1.524-4.537,2.774l-5.484-5.484    l-0.707,0.707l25.457,25.457l0.707-0.707L596,464.586V464z M585,445c4.541,0,8,4.666,8,7v9.586l-13.826-13.826    C580.614,446.24,582.661,445,585,445z"/>
		<path d="M576.287,464c0.502-0.607,0.713-1.381,0.713-2v-10c0-0.728,0.336-1.681,0.937-2.649l-0.728-0.728    C576.441,449.798,576,451.008,576,452c0,3,0,10,0,10s0,2-2,2v1h5h6h6h2.586l-1-1H576.287z"/>
	</g>
	
    </g>
</svg>
