<?xml version="1.0" encoding="iso-8859-1"?>
<!DOCTYPE svg PUBLIC "-//W3C//DTD SVG 1.1//EN" "http://www.w3.org/Graphics/SVG/1.1/DTD/svg11.dtd">
<svg version="1.1" xmlns="http://www.w3.org/2000/svg" xmlns:xlink="http://www.w3.org/1999/xlink" x="0px" y="0px" width="30" height="30" viewBox="0 0 30 30" xml:space="preserve">
    <g transform="translate(-390 -80)">
        <g xmlns="http://www.w3.org/2000/svg" xmlns:xlink="http://www.w3.org/1999/xlink" id="bookmark-7">
		<path d="M405,96.569l3.708,2.815l-1.4-4.578L411,92h-4.573L405,87.385L403.574,92H399l3.692,2.807l-1.4,4.578L405,96.569z     M401.968,93h2.344L405,90.771L405.689,93h2.343l-1.885,1.433l0.698,2.282l-1.846-1.4l-1.846,1.4l0.698-2.282L401.968,93z"/>
		<path d="M414,108V83h-18v25l9-5L414,108z M397,84h16v22.301l-8-4.444l-8,4.444V84z"/>
	</g>
	
    </g>
</svg>
