<?xml version="1.0" encoding="iso-8859-1"?>
<!DOCTYPE svg PUBLIC "-//W3C//DTD SVG 1.1//EN" "http://www.w3.org/Graphics/SVG/1.1/DTD/svg11.dtd">
<svg version="1.1" xmlns="http://www.w3.org/2000/svg" xmlns:xlink="http://www.w3.org/1999/xlink" x="0px" y="0px" width="30" height="30" viewBox="0 0 30 30" xml:space="preserve">
    <g transform="translate(-450 -80)">
        <g xmlns="http://www.w3.org/2000/svg" xmlns:xlink="http://www.w3.org/1999/xlink" id="bookmark-tick-7">
		<path d="M474,95.15V83h-18v25l9-5l0.026,0.015c0.265,3.901,3.505,6.985,7.474,6.985c4.143,0,7.5-3.357,7.5-7.5    C480,98.871,477.424,95.845,474,95.15z M457,106.301V84h16v11.025c-0.166-0.011-0.331-0.025-0.5-0.025    c-1.754,0-3.362,0.606-4.64,1.614l-0.553-1.808L471,92h-4.573L465,87.385L463.574,92H459l3.692,2.807l-1.4,4.578L465,96.569    l1.646,1.25c-0.905,1.13-1.487,2.527-1.614,4.055L465,101.856L457,106.301z M461.968,93h2.344L465,90.771L465.689,93h2.343    l-1.885,1.433l0.698,2.282l-1.846-1.4l-1.846,1.4l0.698-2.282L461.968,93z M472.5,109c-3.59,0-6.5-2.91-6.5-6.5s2.91-6.5,6.5-6.5    s6.5,2.91,6.5,6.5S476.09,109,472.5,109z"/>
		<polygon points="471.086,104.268 468.965,102.146 468.258,102.854 471.086,105.682 476.742,100.025 476.035,99.318   "/>
	</g>
	
    </g>
</svg>
