<?xml version="1.0" encoding="iso-8859-1"?>
<!DOCTYPE svg PUBLIC "-//W3C//DTD SVG 1.1//EN" "http://www.w3.org/Graphics/SVG/1.1/DTD/svg11.dtd">
<svg version="1.1" xmlns="http://www.w3.org/2000/svg" xmlns:xlink="http://www.w3.org/1999/xlink" x="0px" y="0px" width="29" height="30" viewBox="0 0 29 30" xml:space="preserve">
    <g transform="translate(-330 -80)">
        <g xmlns="http://www.w3.org/2000/svg" xmlns:xlink="http://www.w3.org/1999/xlink" id="book-simple-7">
		<path d="M334,104h8c1.104,0,2,0.896,2,2h0.5h0.5c0-1.104,0.896-2,2-2h8c1.104,0,2-0.896,2-2V86c0-1.104-0.896-2-2-2h-9    c-0.601,0-1.134,0.271-1.5,0.689C344.134,84.271,343.601,84,343,84h-9c-1.104,0-2,0.896-2,2v16C332,103.104,332.896,104,334,104z     M346,85h9c0.552,0,1,0.449,1,1v16c0,0.551-0.448,1-1,1h-8c-0.769,0-1.469,0.294-2,0.771V85.638l0.253-0.29    C345.366,85.218,345.614,85,346,85z M333,86c0-0.551,0.448-1,1-1h9c0.386,0,0.634,0.218,0.747,0.348l0.253,0.29v18.134    c-0.531-0.478-1.231-0.771-2-0.771h-8c-0.552,0-1-0.449-1-1V86z"/>
	</g>
	
    </g>
</svg>
