<?xml version="1.0" encoding="iso-8859-1"?>
<!DOCTYPE svg PUBLIC "-//W3C//DTD SVG 1.1//EN" "http://www.w3.org/Graphics/SVG/1.1/DTD/svg11.dtd">
<svg version="1.1" xmlns="http://www.w3.org/2000/svg" xmlns:xlink="http://www.w3.org/1999/xlink" x="0px" y="0px" width="29" height="30" viewBox="0 0 29 30" xml:space="preserve">
    <g transform="translate(-270 -500)">
        <g xmlns="http://www.w3.org/2000/svg" xmlns:xlink="http://www.w3.org/1999/xlink" id="bright-7">
		<path d="M278,514.5c0,3.59,2.91,6.5,6.5,6.5s6.5-2.91,6.5-6.5s-2.91-6.5-6.5-6.5S278,510.91,278,514.5z M284.5,509    c3.032,0,5.5,2.467,5.5,5.5s-2.468,5.5-5.5,5.5s-5.5-2.467-5.5-5.5S281.468,509,284.5,509z"/>
		<rect x="284" y="501" width="1" height="5"/>
		<rect x="284" y="523" width="1" height="5"/>
		<rect x="274.222" y="506.222" transform="matrix(-0.707 -0.7072 0.7072 -0.707 114.0103 1060.6782)" width="5" height="1"/>
		<rect x="289.779" y="521.778" transform="matrix(0.7071 0.7071 -0.7071 0.7071 454.9129 -53.7002)" width="4.999" height="1"/>
		<rect x="271" y="514" width="5" height="1"/>
		<rect x="293" y="514" width="5" height="1"/>
		<rect x="274.222" y="521.779" transform="matrix(0.7071 -0.7071 0.7071 0.7071 -288.2568 348.644)" width="5.001" height="1"/>
		<rect x="291.778" y="504.223" transform="matrix(-0.7071 -0.7071 0.7071 -0.7071 140.6433 1071.7017)" width="1" height="4.999"/>
	</g>
	
    </g>
</svg>
