<?xml version="1.0" encoding="iso-8859-1"?>
<!DOCTYPE svg PUBLIC "-//W3C//DTD SVG 1.1//EN" "http://www.w3.org/Graphics/SVG/1.1/DTD/svg11.dtd">
<svg version="1.1" xmlns="http://www.w3.org/2000/svg" xmlns:xlink="http://www.w3.org/1999/xlink" x="0px" y="0px" width="30" height="30" viewBox="0 0 30 30" xml:space="preserve">
    <g transform="translate(-330 -440)">
        <g xmlns="http://www.w3.org/2000/svg" xmlns:xlink="http://www.w3.org/1999/xlink" id="calendar-off-7">
		<path d="M338.52,453.009c-0.277,0.315-0.482,0.688-0.613,1.121s-0.183,0.903-0.154,1.411h1.197c-0.008-0.3,0.023-0.6,0.093-0.895    c0.069-0.296,0.187-0.562,0.345-0.797c0.16-0.235,0.365-0.426,0.613-0.571c0.25-0.146,0.549-0.218,0.897-0.218    c0.263,0,0.511,0.042,0.747,0.127c0.085,0.03,0.161,0.072,0.238,0.112l-1.266-1.266c-0.384,0.032-0.745,0.1-1.061,0.236    C339.143,452.447,338.798,452.693,338.52,453.009z"/>
		<path d="M342.827,454.863c0,0.348-0.054,0.653-0.16,0.917c-0.108,0.264-0.269,0.508-0.479,0.733    c-0.211,0.227-0.479,0.45-0.798,0.67c-0.319,0.22-0.69,0.462-1.113,0.726c-0.349,0.208-0.683,0.429-1.003,0.664    c-0.32,0.236-0.607,0.508-0.859,0.818c-0.254,0.311-0.463,0.675-0.629,1.094c-0.164,0.417-0.27,0.922-0.316,1.515H344v-1.057    h-5.137c0.058-0.311,0.179-0.585,0.361-0.825c0.184-0.241,0.406-0.463,0.664-0.67c0.258-0.206,0.541-0.402,0.854-0.585    c0.309-0.184,0.619-0.369,0.93-0.557c0.311-0.198,0.611-0.404,0.902-0.62c0.291-0.218,0.551-0.459,0.775-0.727    c0.229-0.269,0.406-0.571,0.543-0.909c0.073-0.18,0.124-0.376,0.157-0.584l-1.469-1.469c0.026,0.046,0.069,0.078,0.093,0.126    C342.775,454.344,342.827,454.591,342.827,454.863z"/>
		<path d="M347.737,460.369c-0.353-0.404-0.539-0.925-0.558-1.563h-1.179c-0.01,0.509,0.063,0.962,0.214,1.36    c0.154,0.398,0.374,0.735,0.66,1.007c0.289,0.273,0.635,0.479,1.042,0.618c0.408,0.139,0.862,0.209,1.36,0.209    c0.406,0,0.789-0.057,1.156-0.153l-0.896-0.896c-0.087,0.008-0.172,0.021-0.261,0.021    C348.602,460.972,348.089,460.771,347.737,460.369z"/>
		<polygon points="334,466 334,449 337.586,449 333,444.415 333,467 355.586,467 354.586,466   "/>
		<path d="M357.729,467.728l0.707-0.707L357,465.585V443h-22.586l-1.436-1.435l-0.707,0.707L357.729,467.728z M351.253,459.838    l-2.618-2.618c0.217-0.026,0.443-0.041,0.686-0.041c0.297,0,0.571,0.041,0.826,0.118c0.254,0.08,0.475,0.2,0.66,0.361    c0.184,0.163,0.333,0.36,0.443,0.598c0.111,0.236,0.168,0.507,0.168,0.813C351.418,459.354,351.36,459.609,351.253,459.838z     M350.439,455.826c-0.172,0.134-0.372,0.236-0.598,0.306c-0.229,0.07-0.465,0.104-0.717,0.104h-0.249c-0.048,0-0.093,0-0.14,0    c-0.035,0-0.078-0.005-0.125-0.014v0.976l-2.017-2.017h0.796c0-0.288,0.036-0.561,0.111-0.819c0.072-0.26,0.188-0.487,0.34-0.682    c0.152-0.194,0.346-0.348,0.582-0.465c0.238-0.115,0.511-0.172,0.826-0.172c0.5,0,0.916,0.131,1.252,0.396    c0.332,0.264,0.498,0.659,0.498,1.187c0,0.26-0.051,0.491-0.153,0.695C350.746,455.523,350.608,455.692,350.439,455.826z     M356,464.585l-3.859-3.859c0.093-0.13,0.184-0.264,0.257-0.415c0.18-0.375,0.271-0.808,0.271-1.299    c0-0.591-0.146-1.105-0.438-1.54c-0.292-0.436-0.739-0.718-1.341-0.848v-0.027c0.391-0.177,0.715-0.436,0.974-0.778    s0.39-0.736,0.39-1.18c0-0.454-0.076-0.847-0.232-1.181c-0.151-0.333-0.361-0.605-0.63-0.818c-0.269-0.213-0.585-0.373-0.95-0.479    c-0.368-0.106-0.764-0.16-1.189-0.16c-0.488,0-0.923,0.079-1.299,0.235c-0.375,0.157-0.686,0.375-0.937,0.653    c-0.251,0.279-0.442,0.612-0.575,1c-0.1,0.289-0.158,0.608-0.193,0.943L340.414,449H356V464.585z M352,445h2v2h-2V445z M338,445    v1.586L336.414,445H338z"/>
	</g>
	
    </g>
</svg>
