<?xml version="1.0" encoding="iso-8859-1"?>
<!DOCTYPE svg PUBLIC "-//W3C//DTD SVG 1.1//EN" "http://www.w3.org/Graphics/SVG/1.1/DTD/svg11.dtd">
<svg version="1.1" xmlns="http://www.w3.org/2000/svg" xmlns:xlink="http://www.w3.org/1999/xlink" x="0px" y="0px" width="30" height="30" viewBox="0 0 30 30" xml:space="preserve">
    <g transform="translate(-30 -440)">
        <g xmlns="http://www.w3.org/2000/svg" xmlns:xlink="http://www.w3.org/1999/xlink" id="calendar-7">
		<path d="M42.188,456.513c-0.211,0.227-0.479,0.45-0.798,0.67c-0.319,0.22-0.69,0.462-1.113,0.726    c-0.349,0.208-0.683,0.429-1.003,0.664c-0.32,0.236-0.607,0.508-0.859,0.818c-0.254,0.311-0.463,0.675-0.629,1.094    c-0.164,0.417-0.27,0.922-0.316,1.515H44v-1.057h-5.137c0.058-0.311,0.179-0.585,0.361-0.825c0.184-0.241,0.406-0.463,0.664-0.67    c0.258-0.206,0.541-0.402,0.854-0.585c0.309-0.184,0.619-0.369,0.93-0.557c0.311-0.198,0.611-0.404,0.902-0.62    c0.291-0.218,0.551-0.459,0.775-0.727c0.229-0.269,0.406-0.571,0.543-0.909c0.139-0.34,0.205-0.729,0.205-1.172    c0-0.47-0.084-0.884-0.246-1.242c-0.166-0.357-0.389-0.655-0.67-0.895c-0.283-0.24-0.615-0.422-0.994-0.551    C41.806,452.063,41.4,452,40.967,452c-0.526,0-0.998,0.089-1.41,0.268c-0.414,0.179-0.759,0.425-1.037,0.741    c-0.277,0.315-0.482,0.688-0.613,1.121s-0.183,0.903-0.154,1.411h1.197c-0.008-0.3,0.023-0.6,0.093-0.895    c0.069-0.296,0.187-0.562,0.345-0.797c0.16-0.235,0.365-0.426,0.613-0.571c0.25-0.146,0.549-0.218,0.897-0.218    c0.263,0,0.511,0.042,0.747,0.127c0.235,0.084,0.438,0.206,0.612,0.366c0.175,0.16,0.313,0.351,0.417,0.571    c0.102,0.222,0.153,0.469,0.153,0.741c0,0.348-0.054,0.653-0.16,0.917C42.559,456.043,42.398,456.288,42.188,456.513z"/>
		<path d="M50.777,460.464c-0.193,0.163-0.42,0.288-0.68,0.375c-0.258,0.088-0.533,0.132-0.82,0.132    c-0.676,0-1.188-0.202-1.54-0.604c-0.353-0.404-0.539-0.925-0.558-1.563h-1.179c-0.01,0.509,0.063,0.962,0.214,1.36    c0.154,0.398,0.374,0.735,0.66,1.007c0.289,0.273,0.635,0.479,1.042,0.618c0.408,0.139,0.862,0.209,1.36,0.209    c0.463,0,0.9-0.063,1.313-0.188c0.412-0.125,0.771-0.312,1.076-0.563c0.307-0.25,0.549-0.562,0.731-0.937    c0.18-0.375,0.271-0.808,0.271-1.299c0-0.591-0.146-1.105-0.438-1.54c-0.292-0.436-0.739-0.718-1.341-0.848v-0.027    c0.391-0.177,0.715-0.436,0.974-0.778s0.39-0.736,0.39-1.18c0-0.454-0.076-0.847-0.232-1.181c-0.151-0.333-0.361-0.605-0.63-0.818    c-0.269-0.213-0.585-0.373-0.95-0.479c-0.368-0.106-0.764-0.16-1.189-0.16c-0.488,0-0.923,0.079-1.299,0.235    c-0.375,0.157-0.686,0.375-0.937,0.653c-0.251,0.279-0.442,0.612-0.575,1c-0.135,0.389-0.213,0.82-0.23,1.292h1.182    c0-0.288,0.036-0.561,0.111-0.819c0.072-0.26,0.188-0.487,0.34-0.682c0.152-0.194,0.346-0.348,0.582-0.465    c0.238-0.115,0.511-0.172,0.826-0.172c0.5,0,0.916,0.131,1.252,0.396c0.332,0.264,0.498,0.659,0.498,1.187    c0,0.26-0.051,0.491-0.153,0.695c-0.101,0.204-0.238,0.373-0.407,0.507c-0.172,0.134-0.372,0.236-0.598,0.306    c-0.229,0.07-0.465,0.104-0.717,0.104h-0.249c-0.048,0-0.093,0-0.14,0c-0.035,0-0.078-0.005-0.125-0.014v1    c0.223-0.028,0.459-0.042,0.709-0.042c0.297,0,0.571,0.041,0.826,0.118c0.254,0.08,0.475,0.2,0.66,0.361    c0.184,0.163,0.333,0.36,0.443,0.598c0.111,0.236,0.168,0.507,0.168,0.813c0,0.296-0.059,0.563-0.176,0.799    C51.127,460.104,50.972,460.303,50.777,460.464z"/>
		<path d="M57,443H33v24h24V443z M52,445h2v2h-2V445z M36,445h2v2h-2V445z M56,466H34v-17h22V466z"/>
	</g>
	
    </g>
</svg>
