<?xml version="1.0" encoding="iso-8859-1"?>
<!DOCTYPE svg PUBLIC "-//W3C//DTD SVG 1.1//EN" "http://www.w3.org/Graphics/SVG/1.1/DTD/svg11.dtd">
<svg version="1.1" xmlns="http://www.w3.org/2000/svg" xmlns:xlink="http://www.w3.org/1999/xlink" x="0px" y="0px" width="30" height="30" viewBox="0 0 30 30" xml:space="preserve">
    <g transform="translate(-150 -440)">
        <g xmlns="http://www.w3.org/2000/svg" xmlns:xlink="http://www.w3.org/1999/xlink" id="calendar-minus-7">
		<path d="M159.889,459.447c0.258-0.206,0.541-0.402,0.854-0.585c0.309-0.184,0.619-0.369,0.93-0.557    c0.311-0.198,0.611-0.404,0.902-0.62c0.291-0.218,0.551-0.459,0.775-0.727c0.229-0.269,0.406-0.571,0.543-0.909    c0.139-0.34,0.205-0.729,0.205-1.172c0-0.47-0.084-0.884-0.246-1.242c-0.166-0.357-0.389-0.655-0.67-0.895    c-0.283-0.24-0.615-0.422-0.994-0.551c-0.382-0.127-0.787-0.189-1.221-0.189c-0.526,0-0.998,0.089-1.41,0.268    c-0.414,0.179-0.759,0.425-1.037,0.741c-0.277,0.315-0.482,0.688-0.613,1.121s-0.183,0.903-0.154,1.411h1.197    c-0.008-0.3,0.023-0.6,0.093-0.895c0.069-0.296,0.187-0.562,0.345-0.797c0.16-0.235,0.365-0.426,0.613-0.571    c0.25-0.146,0.549-0.218,0.897-0.218c0.263,0,0.511,0.042,0.747,0.127c0.235,0.084,0.438,0.206,0.612,0.366    c0.175,0.16,0.313,0.351,0.417,0.571c0.102,0.222,0.153,0.469,0.153,0.741c0,0.348-0.054,0.653-0.16,0.917    c-0.108,0.264-0.269,0.508-0.479,0.733c-0.211,0.227-0.479,0.45-0.798,0.67c-0.319,0.22-0.69,0.462-1.113,0.726    c-0.349,0.208-0.683,0.429-1.003,0.664c-0.32,0.236-0.607,0.508-0.859,0.818c-0.254,0.311-0.463,0.675-0.629,1.094    c-0.164,0.417-0.27,0.922-0.316,1.515H164v-1.057h-5.137c0.058-0.311,0.179-0.585,0.361-0.825    C159.408,459.877,159.631,459.654,159.889,459.447z"/>
		<path d="M177,456.51V443h-24v24h13.51c1.369,1.819,3.539,3,5.99,3c4.143,0,7.5-3.358,7.5-7.5    C180,460.049,178.818,457.878,177,456.51z M172,445h2v2h-2V445z M156,445h2v2h-2V445z M154,466v-17h22v6.869    c-1.045-0.553-2.235-0.869-3.5-0.869c-0.104,0-0.204,0.011-0.307,0.016c0.023-0.124,0.059-0.244,0.059-0.377    c0-0.454-0.076-0.847-0.232-1.181c-0.151-0.333-0.361-0.605-0.63-0.818c-0.269-0.213-0.585-0.373-0.95-0.479    c-0.368-0.106-0.764-0.16-1.189-0.16c-0.488,0-0.923,0.079-1.299,0.235c-0.375,0.157-0.686,0.375-0.937,0.653    c-0.251,0.279-0.442,0.612-0.575,1c-0.135,0.389-0.213,0.82-0.23,1.292h1.182c0-0.288,0.036-0.561,0.111-0.819    c0.072-0.26,0.188-0.487,0.34-0.682c0.152-0.194,0.346-0.348,0.582-0.465c0.238-0.115,0.511-0.172,0.826-0.172    c0.5,0,0.916,0.131,1.252,0.396c0.332,0.264,0.498,0.659,0.498,1.187c0,0.203-0.04,0.383-0.103,0.551    c-3.372,0.734-5.897,3.732-5.897,7.324c0,1.265,0.316,2.455,0.869,3.5H154z M172.5,469c-3.59,0-6.5-2.91-6.5-6.5s2.91-6.5,6.5-6.5    s6.5,2.91,6.5,6.5S176.09,469,172.5,469z"/>
		<rect x="168" y="462" width="9" height="1"/>
	</g>
	
    </g>
</svg>
