<?xml version="1.0" encoding="iso-8859-1"?>
<!DOCTYPE svg PUBLIC "-//W3C//DTD SVG 1.1//EN" "http://www.w3.org/Graphics/SVG/1.1/DTD/svg11.dtd">
<svg version="1.1" xmlns="http://www.w3.org/2000/svg" xmlns:xlink="http://www.w3.org/1999/xlink" x="0px" y="0px" width="30" height="30" viewBox="0 0 30 30" xml:space="preserve">
    <g transform="translate(-30 -800)">
        <g xmlns="http://www.w3.org/2000/svg" xmlns:xlink="http://www.w3.org/1999/xlink" id="circle-quote-7">
		<path d="M45,802c-7.18,0-13,5.82-13,13s5.82,13,13,13s13-5.82,13-13S52.18,802,45,802z M45,827c-6.617,0-12-5.383-12-12    s5.383-12,12-12s12,5.383,12,12S51.617,827,45,827z"/>
		<path d="M46.701,808.194c-0.245,0.362-0.427,0.782-0.545,1.262S46,810.458,46,811v3h3v-3h-1.605c0-0.307,0.022-0.631,0.068-0.947    c0.045-0.316,0.131-0.602,0.258-0.855c0.127-0.252,0.291-0.457,0.49-0.609c0.199-0.154,0.479-0.231,0.789-0.231V807    c-0.51,0-0.979,0.107-1.36,0.326C47.259,807.543,46.945,807.832,46.701,808.194z"/>
		<path d="M41.701,808.194c-0.245,0.362-0.427,0.782-0.545,1.262S41,810.458,41,811v3h3v-3h-1.605c0-0.307,0.022-0.631,0.068-0.947    c0.045-0.316,0.131-0.602,0.258-0.855c0.127-0.252,0.291-0.457,0.49-0.609c0.199-0.154,0.479-0.231,0.789-0.231V807    c-0.51,0-0.979,0.107-1.36,0.326C42.259,807.543,41.945,807.832,41.701,808.194z"/>
	</g>
	
    </g>
</svg>
