<?xml version="1.0" encoding="iso-8859-1"?>
<!DOCTYPE svg PUBLIC "-//W3C//DTD SVG 1.1//EN" "http://www.w3.org/Graphics/SVG/1.1/DTD/svg11.dtd">
<svg version="1.1" xmlns="http://www.w3.org/2000/svg" xmlns:xlink="http://www.w3.org/1999/xlink" x="0px" y="0px" width="30" height="30" viewBox="0 0 30 30" xml:space="preserve">
    <g transform="translate(-390 -980)">
        <g xmlns="http://www.w3.org/2000/svg" xmlns:xlink="http://www.w3.org/1999/xlink" id="circle-many-random-7">
		<path d="M405,982c-7.18,0-13,5.82-13,13s5.82,13,13,13s13-5.82,13-13S412.18,982,405,982z M405,1007c-6.617,0-12-5.383-12-12    s5.383-12,12-12s12,5.383,12,12S411.617,1007,405,1007z"/>
		<path d="M405,985c-5.514,0-10,4.486-10,10s4.486,10,10,10s10-4.486,10-10S410.514,985,405,985z M405,1004c-4.963,0-9-4.037-9-9    s4.037-9,9-9s9,4.037,9,9S409.963,1004,405,1004z"/>
		<path d="M405,988c-3.859,0-7,3.141-7,7s3.141,7,7,7s7-3.141,7-7S408.859,988,405,988z M405,1001c-3.309,0-6-2.691-6-6s2.691-6,6-6    s6,2.691,6,6S408.309,1001,405,1001z"/>
		<path d="M405,991c-2.206,0-4,1.794-4,4s1.794,4,4,4s4-1.794,4-4S407.206,991,405,991z M405,998c-1.654,0-3-1.346-3-3s1.346-3,3-3    s3,1.346,3,3S406.654,998,405,998z"/>
		<circle cx="405" cy="995" r="1"/>
	</g>
	
    </g>
</svg>
