<?xml version="1.0" encoding="iso-8859-1"?>
<!DOCTYPE svg PUBLIC "-//W3C//DTD SVG 1.1//EN" "http://www.w3.org/Graphics/SVG/1.1/DTD/svg11.dtd">
<svg version="1.1" xmlns="http://www.w3.org/2000/svg" xmlns:xlink="http://www.w3.org/1999/xlink" x="0px" y="0px" width="30" height="30" viewBox="0 0 30 30" xml:space="preserve">
    <g transform="translate(-150 -800)">
        <g xmlns="http://www.w3.org/2000/svg" xmlns:xlink="http://www.w3.org/1999/xlink" id="circle-question-7">
		<path d="M165,802c-7.18,0-13,5.82-13,13s5.82,13,13,13s13-5.82,13-13S172.18,802,165,802z M165,827c-6.617,0-12-5.383-12-12    s5.383-12,12-12s12,5.383,12,12S171.617,827,165,827z"/>
		<path d="M168.456,808.156c-0.4-0.359-0.871-0.646-1.402-0.851c-1.256-0.479-2.742-0.369-3.811,0.122    c-0.627,0.287-1.155,0.691-1.569,1.199c-0.402,0.493-0.706,1.073-0.902,1.723c-0.121,0.4-0.192,0.884-0.229,1.65h2.003    c0.027-0.51,0.072-0.848,0.14-1.072c0.12-0.398,0.301-0.746,0.538-1.037c0.223-0.273,0.502-0.484,0.854-0.646    c0.594-0.271,1.508-0.359,2.259-0.071c0.302,0.116,0.565,0.274,0.784,0.472c0.211,0.189,0.376,0.416,0.503,0.692    c0.125,0.271,0.186,0.567,0.186,0.903c0,0.449-0.102,0.842-0.311,1.203c-0.243,0.422-0.557,0.813-0.922,1.152    c-0.531,0.481-0.985,0.918-1.347,1.297l-0.078,0.08C164.749,815.379,164,816.134,164,818v1h2v-1c0-1.043,0.291-1.336,0.571-1.619    l0.104-0.106c0.337-0.353,0.753-0.753,1.253-1.206c0.521-0.484,0.958-1.031,1.301-1.624c0.385-0.664,0.579-1.405,0.579-2.204    c0-0.622-0.124-1.206-0.368-1.739C169.199,808.979,168.868,808.525,168.456,808.156z"/>
		<rect x="164" y="821" width="2" height="2"/>
	</g>
	
    </g>
</svg>
