<?xml version="1.0" encoding="iso-8859-1"?>
<!DOCTYPE svg PUBLIC "-//W3C//DTD SVG 1.1//EN" "http://www.w3.org/Graphics/SVG/1.1/DTD/svg11.dtd">
<svg version="1.1" xmlns="http://www.w3.org/2000/svg" xmlns:xlink="http://www.w3.org/1999/xlink" x="0px" y="0px" width="30" height="30" viewBox="0 0 30 30" xml:space="preserve">
    <g transform="translate(-390 -800)">
        <g xmlns="http://www.w3.org/2000/svg" xmlns:xlink="http://www.w3.org/1999/xlink" id="circle-no-7">
		<path d="M405,802c-3.41,0-6.504,1.323-8.822,3.472c-0.245,0.227-0.48,0.462-0.707,0.707C393.323,808.497,392,811.59,392,815    c0,7.18,5.82,13,13,13c3.409,0,6.502-1.322,8.821-3.471c0.245-0.227,0.48-0.462,0.708-0.707C416.677,821.504,418,818.41,418,815    C418,807.82,412.18,802,405,802z M405,827c-6.617,0-12-5.383-12-12c0-3.129,1.213-5.972,3.182-8.11l16.929,16.929    C410.972,825.787,408.129,827,405,827z M413.818,823.111l-16.93-16.929c2.139-1.969,4.982-3.183,8.111-3.183    c6.617,0,12,5.384,12,12C417,818.129,415.787,820.973,413.818,823.111z"/>
	</g>
	
    </g>
</svg>
