<?xml version="1.0" encoding="iso-8859-1"?>
<!DOCTYPE svg PUBLIC "-//W3C//DTD SVG 1.1//EN" "http://www.w3.org/Graphics/SVG/1.1/DTD/svg11.dtd">
<svg version="1.1" xmlns="http://www.w3.org/2000/svg" xmlns:xlink="http://www.w3.org/1999/xlink" x="0px" y="0px" width="30" height="30" viewBox="0 0 30 30" xml:space="preserve">
    <g transform="translate(-90 -500)">
        <g xmlns="http://www.w3.org/2000/svg" xmlns:xlink="http://www.w3.org/1999/xlink" id="clock-alarm-7">
		<path d="M94,516c0,3.112,1.298,5.917,3.375,7.918l-3.729,3.729l0.707,0.707l3.773-3.773c1.883,1.512,4.271,2.42,6.873,2.42    s4.99-0.908,6.873-2.42l3.773,3.773l0.707-0.707l-3.729-3.729c2.077-2.001,3.375-4.806,3.375-7.918c0-6.075-4.925-11-11-11    S94,509.925,94,516z M115,516c0,5.514-4.486,10-10,10s-10-4.486-10-10s4.486-10,10-10S115,510.486,115,516z"/>
		<polygon points="105,517 100,517 100,518 106,518 106,509 105,509   "/>
		<path d="M92.93,503.465c-1.953,1.952-1.953,5.118,0,7.07l7.07-7.07C98.047,501.512,94.882,501.512,92.93,503.465z M98.497,503.554    l-5.479,5.479c-0.361-0.608-0.554-1.306-0.554-2.032c0-1.068,0.416-2.072,1.172-2.828S95.396,503,96.465,503    C97.19,503,97.888,503.192,98.497,503.554z"/>
		<path d="M117.07,503.465c-1.952-1.953-5.117-1.953-7.07,0l7.07,7.07C119.023,508.583,119.023,505.417,117.07,503.465z     M111.503,503.554c0.609-0.361,1.307-0.554,2.032-0.554c1.068,0,2.072,0.416,2.828,1.172s1.172,1.76,1.172,2.828    c0,0.727-0.192,1.424-0.554,2.032L111.503,503.554z"/>
	</g>
	
    </g>
</svg>
