<?xml version="1.0" encoding="iso-8859-1"?>
<!DOCTYPE svg PUBLIC "-//W3C//DTD SVG 1.1//EN" "http://www.w3.org/Graphics/SVG/1.1/DTD/svg11.dtd">
<svg version="1.1" xmlns="http://www.w3.org/2000/svg" xmlns:xlink="http://www.w3.org/1999/xlink" x="0px" y="0px" width="30" height="30" viewBox="0 0 30 30" xml:space="preserve">
    <g transform="translate(-30 -740)">
        <g xmlns="http://www.w3.org/2000/svg" xmlns:xlink="http://www.w3.org/1999/xlink" id="clould-7">
		<path d="M54,754h-0.08c0.047-0.327,0.08-0.66,0.08-1c0-3.866-3.134-7-7-7c-2.598,0-4.859,1.418-6.067,3.519    C40.357,749.198,39.705,749,39,749c-2.209,0-4,1.791-4,4c0,0.379,0.069,0.737,0.168,1.084C32.805,754.482,31,756.523,31,759    c0,2.762,2.238,5,5,5h18c2.762,0,5-2.238,5-5S56.762,754,54,754z M54,763H36c-2.206,0-4-1.795-4-4c0-1.951,1.402-3.604,3.334-3.93    l1.102-0.186l-0.306-1.074C36.041,753.499,36,753.242,36,753c0-1.654,1.346-3,3-3c0.492,0,0.979,0.132,1.446,0.393l0.861,0.479    l0.492-0.854C42.87,748.156,44.862,747,47,747c3.309,0,6,2.691,6,6c0,0.252-0.022,0.525-0.07,0.857L52.767,755h1.153    c2.286,0,4.08,1.795,4.08,4S56.206,763,54,763z"/>
	</g>
	
    </g>
</svg>
