<?xml version="1.0" encoding="iso-8859-1"?>
<!DOCTYPE svg PUBLIC "-//W3C//DTD SVG 1.1//EN" "http://www.w3.org/Graphics/SVG/1.1/DTD/svg11.dtd">
<svg version="1.1" xmlns="http://www.w3.org/2000/svg" xmlns:xlink="http://www.w3.org/1999/xlink" x="0px" y="0px" width="30" height="30" viewBox="0 0 30 30" xml:space="preserve">
    <g transform="translate(-210 -740)">
        <g xmlns="http://www.w3.org/2000/svg" xmlns:xlink="http://www.w3.org/1999/xlink" id="cloud-plus-7">
		<path d="M239,755c0-2.762-2.238-5-5-5h-0.08c0.047-0.327,0.08-0.66,0.08-1c0-3.866-3.134-7-7-7c-2.598,0-4.859,1.418-6.067,3.519    c-0.575-0.32-1.228-0.519-1.933-0.519c-2.209,0-4,1.791-4,4c0,0.379,0.069,0.737,0.168,1.084C212.805,750.482,211,752.523,211,755    c0,2.762,2.238,5,5,5h9.15c-0.098,0.484-0.15,0.986-0.15,1.5c0,4.143,3.357,7.5,7.5,7.5s7.5-3.357,7.5-7.5    c0-1.66-0.546-3.189-1.459-4.432C238.829,756.437,239,755.74,239,755z M216,759c-2.206,0-4-1.795-4-4    c0-1.951,1.402-3.604,3.334-3.93l1.102-0.186l-0.306-1.074c-0.089-0.312-0.13-0.568-0.13-0.811c0-1.654,1.346-3,3-3    c0.492,0,0.979,0.132,1.446,0.393l0.861,0.479l0.492-0.854c1.07-1.861,3.063-3.018,5.2-3.018c3.309,0,6,2.691,6,6    c0,0.252-0.022,0.525-0.07,0.857L232.767,751h1.153c2.286,0,4.08,1.795,4.08,4c0,0.418-0.082,0.813-0.201,1.192    c-1.357-1.354-3.23-2.192-5.299-2.192c-3.264,0-6.033,2.089-7.064,5H216z M239,761.5c0,3.59-2.91,6.5-6.5,6.5s-6.5-2.91-6.5-6.5    s2.91-6.5,6.5-6.5S239,757.91,239,761.5z"/>
		<polygon points="233,757 232,757 232,761 228,761 228,762 232,762 232,766 233,766 233,762 237,762 237,761 233,761   "/>
	</g>
	
    </g>
</svg>
