<?xml version="1.0" encoding="iso-8859-1"?>
<!DOCTYPE svg PUBLIC "-//W3C//DTD SVG 1.1//EN" "http://www.w3.org/Graphics/SVG/1.1/DTD/svg11.dtd">
<svg version="1.1" xmlns="http://www.w3.org/2000/svg" xmlns:xlink="http://www.w3.org/1999/xlink" x="0px" y="0px" width="30" height="30" viewBox="0 0 30 30" xml:space="preserve">
    <g transform="translate(-90 -740)">
        <g xmlns="http://www.w3.org/2000/svg" xmlns:xlink="http://www.w3.org/1999/xlink" id="cloud-download-7">
		<path d="M91,755c0,2.762,2.238,5,5,5h7v-1h-7c-2.206,0-4-1.795-4-4c0-1.951,1.402-3.604,3.334-3.93l1.102-0.186l-0.306-1.074    C96.041,749.499,96,749.242,96,749c0-1.654,1.346-3,3-3c0.492,0,0.979,0.132,1.446,0.393l0.861,0.479l0.492-0.854    c1.07-1.861,3.063-3.018,5.2-3.018c3.309,0,6,2.691,6,6c0,0.252-0.022,0.525-0.07,0.857L112.767,751h1.153    c2.286,0,4.08,1.795,4.08,4s-1.794,4-4,4h-6v1h6c2.762,0,5-2.238,5-5s-2.238-5-5-5h-0.08c0.047-0.327,0.08-0.66,0.08-1    c0-3.866-3.134-7-7-7c-2.598,0-4.859,1.418-6.067,3.519C100.357,745.198,99.705,745,99,745c-2.209,0-4,1.791-4,4    c0,0.379,0.069,0.737,0.168,1.084C92.805,750.482,91,752.523,91,755z"/>
		<path d="M105,750v16.293l-4.804-4.804l-0.707,0.707l5.657,5.657c0.094,0.094,0.221,0.146,0.354,0.146s0.26-0.053,0.354-0.146    l5.656-5.657l-0.707-0.707L106,766.293V750H105z"/>
	</g>
	
    </g>
</svg>
