<?xml version="1.0" encoding="iso-8859-1"?>
<!DOCTYPE svg PUBLIC "-//W3C//DTD SVG 1.1//EN" "http://www.w3.org/Graphics/SVG/1.1/DTD/svg11.dtd">
<svg version="1.1" xmlns="http://www.w3.org/2000/svg" xmlns:xlink="http://www.w3.org/1999/xlink" x="0px" y="0px" width="30" height="30" viewBox="0 0 30 30" xml:space="preserve">
    <g transform="translate(-450 -740)">
        <g xmlns="http://www.w3.org/2000/svg" xmlns:xlink="http://www.w3.org/1999/xlink" id="cloud-off-7">
		<path d="M456,763c-2.206,0-4-1.795-4-4c0-1.951,1.402-3.604,3.334-3.93l1.102-0.186l-0.306-1.074    c-0.089-0.312-0.13-0.568-0.13-0.811c0-1.525,1.148-2.774,2.624-2.962l-0.832-0.832C456.178,749.721,455,751.215,455,753    c0,0.379,0.069,0.737,0.168,1.084C452.805,754.482,451,756.523,451,759c0,2.762,2.238,5,5,5h16.586l-1-1H456z"/>
		<path d="M474,754h-0.08c0.047-0.327,0.08-0.66,0.08-1c0-3.866-3.134-7-7-7c-2.598,0-4.859,1.418-6.067,3.519l-7.954-7.954    l-0.707,0.707l25.457,25.457l0.707-0.707l-3.195-3.195c2.158-0.554,3.76-2.495,3.76-4.826C479,756.238,476.762,754,474,754z     M474.376,762.962l-12.711-12.711l0.135-0.233c1.07-1.861,3.063-3.018,5.2-3.018c3.309,0,6,2.691,6,6    c0,0.252-0.022,0.525-0.07,0.857L472.767,755h1.153c2.286,0,4.08,1.795,4.08,4C478,761.076,476.403,762.77,474.376,762.962z"/>
	</g>
	
    </g>
</svg>
