<?xml version="1.0" encoding="iso-8859-1"?>
<!DOCTYPE svg PUBLIC "-//W3C//DTD SVG 1.1//EN" "http://www.w3.org/Graphics/SVG/1.1/DTD/svg11.dtd">
<svg version="1.1" xmlns="http://www.w3.org/2000/svg" xmlns:xlink="http://www.w3.org/1999/xlink" x="0px" y="0px" width="30" height="30" viewBox="0 0 30 30" xml:space="preserve">
    <g transform="translate(-150 -860)">
        <g xmlns="http://www.w3.org/2000/svg" xmlns:xlink="http://www.w3.org/1999/xlink" id="command-7">
		<path d="M172.5,872c2.481,0,4.5-2.019,4.5-4.5s-2.019-4.5-4.5-4.5s-4.5,2.019-4.5,4.5v3.5h-6v-3.5c0-2.481-2.019-4.5-4.5-4.5    s-4.5,2.019-4.5,4.5s2.019,4.5,4.5,4.5h3.5v6h-3.5c-2.481,0-4.5,2.019-4.5,4.5s2.019,4.5,4.5,4.5s4.5-2.019,4.5-4.5V879h6v3.5    c0,2.481,2.019,4.5,4.5,4.5s4.5-2.019,4.5-4.5s-2.019-4.5-4.5-4.5H169v-6H172.5z M169,867.5c0-1.93,1.57-3.5,3.5-3.5    s3.5,1.57,3.5,3.5s-1.57,3.5-3.5,3.5H169V867.5z M161,882.5c0,1.93-1.57,3.5-3.5,3.5s-3.5-1.57-3.5-3.5s1.57-3.5,3.5-3.5h3.5    V882.5z M161,871h-3.5c-1.93,0-3.5-1.57-3.5-3.5s1.57-3.5,3.5-3.5s3.5,1.57,3.5,3.5V871z M168,878h-6v-6h6V878z M172.5,879    c1.93,0,3.5,1.57,3.5,3.5s-1.57,3.5-3.5,3.5s-3.5-1.57-3.5-3.5V879H172.5z"/>
	</g>
	
    </g>
</svg>
