<?xml version="1.0" encoding="iso-8859-1"?>
<!DOCTYPE svg PUBLIC "-//W3C//DTD SVG 1.1//EN" "http://www.w3.org/Graphics/SVG/1.1/DTD/svg11.dtd">
<svg version="1.1" xmlns="http://www.w3.org/2000/svg" xmlns:xlink="http://www.w3.org/1999/xlink" x="0px" y="0px" width="30" height="30" viewBox="0 0 30 30" xml:space="preserve">
    <g transform="translate(-570 -740)">
        <g xmlns="http://www.w3.org/2000/svg" xmlns:xlink="http://www.w3.org/1999/xlink" id="construction-barrier-7">
		<path d="M572,753h2v14h4v-6h14v6h4v-14h2v-9h-26V753z M577,766h-2v-13h2V766z M592,760h-14v-7h14V760z M595,766h-2v-13h2V766z     M597,745v7h-5.74l2.545-7H597z M592.741,745l-2.546,7h-5.936l2.545-7H592.741z M585.741,745l-2.546,7h-5.936l2.545-7H585.741z     M573,745h5.741l-2.546,7H573V745z"/>
	</g>
	
    </g>
</svg>
