<?xml version="1.0" encoding="iso-8859-1"?>
<!DOCTYPE svg PUBLIC "-//W3C//DTD SVG 1.1//EN" "http://www.w3.org/Graphics/SVG/1.1/DTD/svg11.dtd">
<svg version="1.1" xmlns="http://www.w3.org/2000/svg" xmlns:xlink="http://www.w3.org/1999/xlink" x="0px" y="0px" width="30" height="30" viewBox="0 0 30 30" xml:space="preserve">
    <g transform="translate(-30 -980)">
        <g xmlns="http://www.w3.org/2000/svg" xmlns:xlink="http://www.w3.org/1999/xlink" id="crown-7">
		<path d="M57,988c-1.104,0-2,0.896-2,2c0,0.48,0.177,0.916,0.459,1.261l-2.86,2.341l-1.954-5.717C51.431,987.615,52,986.878,52,986    c0-1.104-0.896-2-2-2s-2,0.896-2,2c0,0.617,0.285,1.162,0.726,1.529L45,992l-3.726-4.471C41.715,987.162,42,986.617,42,986    c0-1.104-0.896-2-2-2s-2,0.896-2,2c0,0.878,0.569,1.615,1.355,1.885l-1.954,5.717l-2.86-2.341C34.823,990.916,35,990.48,35,990    c0-1.104-0.896-2-2-2s-2,0.896-2,2s0.896,2,2,2c0.135,0,0.266-0.014,0.393-0.039L35,1000v5h10h10v-5l1.607-8.039    C56.734,991.986,56.865,992,57,992c1.104,0,2-0.896,2-2S58.104,988,57,988z M33,991c-0.552,0-1-0.448-1-1s0.448-1,1-1s1,0.448,1,1    S33.552,991,33,991z M50,985c0.552,0,1,0.448,1,1s-0.448,1-1,1s-1-0.448-1-1S49.448,985,50,985z M39,986c0-0.552,0.448-1,1-1    s1,0.448,1,1s-0.448,1-1,1S39,986.552,39,986z M54,1004H36v-2h18V1004z M54,999.901V1001H36v-1.099l-1.472-7.358l3.354,2.744    l2.489-7.28L45,993.563l4.629-5.556l2.489,7.28l3.354-2.744L54,999.901z M57,991c-0.552,0-1-0.448-1-1s0.448-1,1-1s1,0.448,1,1    S57.552,991,57,991z"/>
	</g>
	
    </g>
</svg>
