<?xml version="1.0" encoding="iso-8859-1"?>
<!DOCTYPE svg PUBLIC "-//W3C//DTD SVG 1.1//EN" "http://www.w3.org/Graphics/SVG/1.1/DTD/svg11.dtd">
<svg version="1.1" xmlns="http://www.w3.org/2000/svg" xmlns:xlink="http://www.w3.org/1999/xlink" x="0px" y="0px" width="30" height="30" viewBox="0 0 30 30" xml:space="preserve">
    <g transform="translate(-510 -620)">
        <g xmlns="http://www.w3.org/2000/svg" xmlns:xlink="http://www.w3.org/1999/xlink" id="electric-tick-7">
		<polygon points="524,633 526,626 517,637 522,637 520,644 529,633   "/>
		<path d="M535.957,635.849c0.019-0.282,0.043-0.563,0.043-0.849c0-7.18-5.82-13-13-13s-13,5.82-13,13s5.82,13,13,13    c1.34,0,2.632-0.203,3.848-0.58c1.375,1.578,3.395,2.58,5.652,2.58c4.143,0,7.5-3.357,7.5-7.5    C540,639.605,538.358,637.099,535.957,635.849z M523,647c-6.617,0-12-5.383-12-12s5.383-12,12-12s12,5.383,12,12    c0,0.145-0.017,0.285-0.021,0.428c-0.777-0.272-1.608-0.428-2.479-0.428c-4.143,0-7.5,3.357-7.5,7.5    c0,1.495,0.442,2.885,1.196,4.055C525.177,646.837,524.108,647,523,647z M532.5,649c-3.59,0-6.5-2.91-6.5-6.5s2.91-6.5,6.5-6.5    s6.5,2.91,6.5,6.5S536.09,649,532.5,649z"/>
		<polygon points="531.086,644.268 528.965,642.146 528.258,642.854 531.086,645.682 536.742,640.025 536.035,639.318   "/>
	</g>
	
    </g>
</svg>
