<?xml version="1.0" encoding="iso-8859-1"?>
<!DOCTYPE svg PUBLIC "-//W3C//DTD SVG 1.1//EN" "http://www.w3.org/Graphics/SVG/1.1/DTD/svg11.dtd">
<svg version="1.1" xmlns="http://www.w3.org/2000/svg" xmlns:xlink="http://www.w3.org/1999/xlink" x="0px" y="0px" width="30" height="30" viewBox="0 0 30 30" xml:space="preserve">
    <g transform="translate(-570 -620)">
        <g xmlns="http://www.w3.org/2000/svg" xmlns:xlink="http://www.w3.org/1999/xlink" id="electric-off-7">
		<path d="M585,647c-6.617,0-12-5.383-12-12c0-2.949,1.074-5.649,2.846-7.74l-0.711-0.711c-1.95,2.273-3.135,5.222-3.135,8.451    c0,7.18,5.82,13,13,13c3.229,0,6.178-1.185,8.451-3.135l-0.711-0.711C590.649,645.926,587.949,647,585,647z"/>
		<path d="M598,635c0-7.18-5.82-13-13-13c-3.229,0-6.178,1.185-8.451,3.135l-3.57-3.57l-0.707,0.707l25.457,25.457l0.707-0.707    l-3.57-3.57C596.815,641.178,598,638.229,598,635z M588.036,636.622L591,633h-5l2-7l-4.764,5.822l-5.977-5.977    c2.091-1.771,4.791-2.846,7.74-2.846c6.617,0,12,5.383,12,12c0,2.949-1.074,5.649-2.846,7.74L588.036,636.622z"/>
		<polygon points="584,637 582,644 586.764,638.178 581.964,633.378 579,637   "/>
	</g>
	
    </g>
</svg>
