<?xml version="1.0" encoding="iso-8859-1"?>
<!DOCTYPE svg PUBLIC "-//W3C//DTD SVG 1.1//EN" "http://www.w3.org/Graphics/SVG/1.1/DTD/svg11.dtd">
<svg version="1.1" xmlns="http://www.w3.org/2000/svg" xmlns:xlink="http://www.w3.org/1999/xlink" x="0px" y="0px" width="30" height="30" viewBox="0 0 30 30" xml:space="preserve">
    <g transform="translate(-210 -320)">
        <g xmlns="http://www.w3.org/2000/svg" xmlns:xlink="http://www.w3.org/1999/xlink" id="email-star-7">
		<path d="M232.5,350c4.143,0,7.5-3.358,7.5-7.5c0-2.451-1.182-4.622-3-5.99V325h-26v20h14.436    C226.467,347.911,229.235,350,232.5,350z M239,342.5c0,3.59-2.91,6.5-6.5,6.5s-6.5-2.91-6.5-6.5s2.91-6.5,6.5-6.5    S239,338.91,239,342.5z M232.5,335c-1.55,0-2.989,0.47-4.185,1.275l-1.3-0.866L236,328.82v7.049    C234.955,335.316,233.765,335,232.5,335z M212,326h24v1.58l-12,8.8l-12-8.8V326z M212,328.82l8.984,6.589L212,341.398V328.82z     M212,344v-1.398l9.844-6.563L224,337.62l2.156-1.581l1.335,0.89c-1.526,1.373-2.491,3.357-2.491,5.571    c0,0.514,0.053,1.015,0.15,1.5H212z"/>
		<polygon points="233.568,341 232.5,337.785 231.43,341 228,341 230.768,343.079 229.717,346.344 232.5,344.336 235.278,346.344     234.23,343.079 237,341   "/>
	</g>
	
    </g>
</svg>
