<?xml version="1.0" encoding="iso-8859-1"?>
<!DOCTYPE svg PUBLIC "-//W3C//DTD SVG 1.1//EN" "http://www.w3.org/Graphics/SVG/1.1/DTD/svg11.dtd">
<svg version="1.1" xmlns="http://www.w3.org/2000/svg" xmlns:xlink="http://www.w3.org/1999/xlink" x="0px" y="0px" width="30" height="30" viewBox="0 0 30 30" xml:space="preserve">
    <g transform="translate(-90 -320)">
        <g xmlns="http://www.w3.org/2000/svg" xmlns:xlink="http://www.w3.org/1999/xlink" id="email-plus-7">
		<path d="M117,336.51V325H91v20h14.436c1.031,2.911,3.801,5,7.064,5c4.143,0,7.5-3.358,7.5-7.5    C120,340.049,118.818,337.879,117,336.51z M116,335.869c-1.045-0.553-2.235-0.869-3.5-0.869c-1.55,0-2.989,0.47-4.185,1.275    l-1.3-0.866L116,328.82V335.869z M92,326h24v1.58l-12,8.8l-12-8.8V326z M92,328.82l8.984,6.589L92,341.398V328.82z M92,344v-1.398    l9.844-6.563L104,337.62l2.156-1.581l1.335,0.89c-1.526,1.373-2.491,3.356-2.491,5.571c0,0.514,0.053,1.015,0.15,1.5H92z     M112.5,349c-3.59,0-6.5-2.91-6.5-6.5s2.91-6.5,6.5-6.5s6.5,2.91,6.5,6.5S116.09,349,112.5,349z"/>
		<polygon points="113,342 113,338 112,338 112,342 108,342 108,343 112,343 112,347 113,347 113,343 117,343 117,342   "/>
	</g>
	
    </g>
</svg>
