<?xml version="1.0" encoding="iso-8859-1"?>
<!DOCTYPE svg PUBLIC "-//W3C//DTD SVG 1.1//EN" "http://www.w3.org/Graphics/SVG/1.1/DTD/svg11.dtd">
<svg version="1.1" xmlns="http://www.w3.org/2000/svg" xmlns:xlink="http://www.w3.org/1999/xlink" x="0px" y="0px" width="30" height="30" viewBox="0 0 30 30" xml:space="preserve">
    <g transform="translate(-150 -320)">
        <g xmlns="http://www.w3.org/2000/svg" xmlns:xlink="http://www.w3.org/1999/xlink" id="email-minus-7">
		<path d="M177,336.51V325h-26v20h14.436c1.031,2.911,3.8,5,7.064,5c4.143,0,7.5-3.358,7.5-7.5    C180,340.049,178.818,337.878,177,336.51z M176,335.869c-1.045-0.553-2.235-0.869-3.5-0.869c-1.55,0-2.989,0.47-4.185,1.275    l-1.3-0.866L176,328.82V335.869z M152,326h24v1.58l-12,8.8l-12-8.8V326z M152,328.82l8.984,6.589L152,341.398V328.82z M152,344    v-1.398l9.844-6.563L164,337.62l2.156-1.581l1.335,0.89c-1.526,1.373-2.491,3.357-2.491,5.571c0,0.514,0.053,1.015,0.15,1.5H152z     M172.5,349c-3.59,0-6.5-2.91-6.5-6.5s2.91-6.5,6.5-6.5s6.5,2.91,6.5,6.5S176.09,349,172.5,349z"/>
		<rect x="168" y="342" width="9" height="1"/>
	</g>
	
    </g>
</svg>
