<?xml version="1.0" encoding="iso-8859-1"?>
<!DOCTYPE svg PUBLIC "-//W3C//DTD SVG 1.1//EN" "http://www.w3.org/Graphics/SVG/1.1/DTD/svg11.dtd">
<svg version="1.1" xmlns="http://www.w3.org/2000/svg" xmlns:xlink="http://www.w3.org/1999/xlink" x="0px" y="0px" width="29" height="30" viewBox="0 0 29 30" xml:space="preserve">
    <g transform="translate(-330 -860)">
        <g xmlns="http://www.w3.org/2000/svg" xmlns:xlink="http://www.w3.org/1999/xlink" id="explode-share-7">
		<path d="M332.674,873.052l0.227-4.19l6.847,8.216c-1.081,1.16-1.747,2.712-1.747,4.423c0,3.59,2.91,6.5,6.5,6.5s6.5-2.91,6.5-6.5    c0-1.711-0.666-3.263-1.747-4.423l6.848-8.217l0.227,4.191l0.999-0.055l-0.325-5.996l-5.958,0.76l0.126,0.993l4.162-0.531    l-6.813,8.175c-0.983-0.775-2.195-1.271-3.519-1.372v-12.02l2.857,3.074l0.732-0.682L344.501,861l-4.09,4.398l0.732,0.682    l2.856-3.072v12.018c-1.323,0.101-2.535,0.597-3.519,1.372l-6.813-8.178l4.163,0.533l0.126-0.992l-5.956-0.762l-0.326,5.997    L332.674,873.052z M350,881.5c0,3.033-2.467,5.5-5.5,5.5s-5.5-2.467-5.5-5.5c0-1.399,0.529-2.675,1.394-3.646L343.85,882H344h1    h0.15l3.456-4.146C349.471,878.825,350,880.101,350,881.5z M347.877,877.167L345,880.619v-4.594    C346.079,876.123,347.067,876.535,347.877,877.167z M344,876.025v4.594l-2.877-3.452C341.933,876.535,342.921,876.123,344,876.025    z"/>
	</g>
	
    </g>
</svg>
