<?xml version="1.0" encoding="iso-8859-1"?>
<!DOCTYPE svg PUBLIC "-//W3C//DTD SVG 1.1//EN" "http://www.w3.org/Graphics/SVG/1.1/DTD/svg11.dtd">
<svg version="1.1" xmlns="http://www.w3.org/2000/svg" xmlns:xlink="http://www.w3.org/1999/xlink" x="0px" y="0px" width="30" height="30" viewBox="0 0 30 30" xml:space="preserve">
    <g transform="translate(-330 -980)">
        <g xmlns="http://www.w3.org/2000/svg" xmlns:xlink="http://www.w3.org/1999/xlink" id="flag-7">
		<path d="M337,983c0,0.009,0,0.018,0,0.026V1008h1v-13.416c5.665-2.183,11.334,3.655,17,0.468c0-4.017,0-8.034,0-12.052    C349,986.375,342.998,979.626,337,983z M354,984.535v9.904c-0.866,0.395-1.79,0.588-2.807,0.588c-1.594,0-3.212-0.455-4.925-0.936    c-1.768-0.496-3.596-1.01-5.464-1.01c-1,0-1.921,0.145-2.805,0.439v-9.909c0.865-0.394,1.787-0.587,2.803-0.587    c1.594,0,3.212,0.456,4.925,0.938c1.769,0.497,3.598,1.012,5.468,1.012C352.19,984.975,353.118,984.83,354,984.535z"/>
	</g>
	
    </g>
</svg>
