<?xml version="1.0" encoding="iso-8859-1"?>
<!DOCTYPE svg PUBLIC "-//W3C//DTD SVG 1.1//EN" "http://www.w3.org/Graphics/SVG/1.1/DTD/svg11.dtd">
<svg version="1.1" xmlns="http://www.w3.org/2000/svg" xmlns:xlink="http://www.w3.org/1999/xlink" x="0px" y="0px" width="30" height="30" viewBox="0 0 30 30" xml:space="preserve">
    <g transform="translate(-270 -860)">
        <g xmlns="http://www.w3.org/2000/svg" xmlns:xlink="http://www.w3.org/1999/xlink" id="games-abstract-7">
		<path d="M276.277,880.194c-0.18,0.569-0.277,1.177-0.277,1.806c0,3.314,2.686,6,6,6c1.966,0,3.705-0.949,4.8-2.41    c1.171,0.882,2.622,1.41,4.2,1.41c3.866,0,7-3.134,7-7c0-2.035-0.873-3.861-2.259-5.14c1.392-1.362,2.259-3.259,2.259-5.36    c0-4.143-3.357-7.5-7.5-7.5c-1.439,0-2.78,0.412-3.922,1.115C285.205,862.407,283.651,862,282,862c-5.523,0-10,4.477-10,10    C272,875.394,273.693,878.387,276.277,880.194z M282,887c-2.757,0-5-2.243-5-5c0-0.432,0.072-0.843,0.175-1.242    c1.431,0.79,3.075,1.242,4.825,1.242c0.767,0,1.51-0.094,2.228-0.258c0.313,1.223,0.942,2.319,1.805,3.188    C285.122,886.179,283.659,887,282,887z M284.043,880.758C283.385,880.91,282.703,881,282,881c-1.627,0-3.15-0.44-4.469-1.198    c0.817-1.652,2.504-2.802,4.469-2.802c0.88,0,1.694,0.248,2.414,0.648C284.15,878.385,284,879.174,284,880    C284,880.256,284.016,880.508,284.043,880.758z M285,880c0-0.611,0.093-1.201,0.264-1.757c0.499,0.435,0.908,0.96,1.205,1.559    c-0.458,0.263-0.941,0.484-1.445,0.665C285.012,880.313,285,880.157,285,880z M286.563,884.024    c-0.649-0.716-1.128-1.587-1.373-2.553c0.569-0.192,1.117-0.428,1.636-0.714c0.103,0.399,0.175,0.811,0.175,1.242    C287,882.722,286.84,883.404,286.563,884.024z M285.669,877.26c0.255-0.494,0.577-0.947,0.952-1.35    c0.868,0.526,1.849,0.882,2.9,1.019c-0.589,0.896-1.336,1.676-2.197,2.312C286.922,878.465,286.354,877.79,285.669,877.26z     M287.399,875.211c0.945-0.712,2.105-1.15,3.366-1.199c-0.158,0.689-0.397,1.347-0.704,1.966    C289.104,875.913,288.2,875.647,287.399,875.211z M297,880c0,3.309-2.691,6-6,6c-1.381,0-2.65-0.474-3.666-1.261    c0.423-0.821,0.666-1.751,0.666-2.739c0-0.629-0.098-1.236-0.277-1.806c1.197-0.838,2.199-1.932,2.934-3.202    c1.617-0.033,3.104-0.578,4.313-1.479C296.212,876.613,297,878.214,297,880z M291.18,875.964c0.263-0.606,0.468-1.244,0.606-1.906    c0.851,0.112,1.643,0.402,2.343,0.833C293.27,875.471,292.264,875.851,291.18,875.964z M290.5,863c3.584,0,6.5,2.916,6.5,6.5    c0,1.861-0.791,3.537-2.049,4.724c-0.879-0.603-1.904-1.004-3.01-1.153c0.037-0.352,0.059-0.709,0.059-1.07    c0-3.457-1.754-6.503-4.42-8.299C288.459,863.256,289.449,863,290.5,863z M286.625,864.294c2.616,1.575,4.375,4.436,4.375,7.706    c0,0.34-0.022,0.674-0.06,1.003c-1.683,0.015-3.223,0.62-4.423,1.622c-1.529-1.189-2.518-3.042-2.518-5.125    C284,867.369,285.035,865.479,286.625,864.294z M282,863c1.301,0,2.535,0.283,3.652,0.782c-1.621,1.376-2.652,3.425-2.652,5.718    c0,2.358,1.09,4.459,2.792,5.834c-0.374,0.417-0.702,0.875-0.968,1.373c-0.842-0.45-1.803-0.707-2.824-0.707    c-2.318,0-4.325,1.316-5.324,3.24C274.451,877.6,273,874.97,273,872C273,867.037,277.037,863,282,863z"/>
	</g>
	
    </g>
</svg>
