<?xml version="1.0" encoding="iso-8859-1"?>
<!DOCTYPE svg PUBLIC "-//W3C//DTD SVG 1.1//EN" "http://www.w3.org/Graphics/SVG/1.1/DTD/svg11.dtd">
<svg version="1.1" xmlns="http://www.w3.org/2000/svg" xmlns:xlink="http://www.w3.org/1999/xlink" x="0px" y="0px" width="30" height="30" viewBox="0 0 30 30" xml:space="preserve">
    <g transform="translate(-210 -560)">
        <g xmlns="http://www.w3.org/2000/svg" xmlns:xlink="http://www.w3.org/1999/xlink" id="gear-two-7">
		<path d="M237.225,567.195l1.754-1.012l-0.5-0.865l-1.748,1.008c-0.545-0.812-1.244-1.511-2.056-2.057l1.009-1.746l-0.865-0.5    l-1.012,1.752c-0.857-0.422-1.805-0.684-2.807-0.75V561h-1v2.025c-1.002,0.066-1.949,0.328-2.805,0.75l-1.012-1.752l-0.867,0.5    l1.009,1.746c-0.812,0.545-1.511,1.244-2.056,2.057l-1.746-1.008l-0.5,0.865l1.752,1.012c-0.371,0.754-0.623,1.574-0.723,2.444    c0.332,0.12,0.655,0.257,0.971,0.408c0.232-3.378,3.039-6.048,6.477-6.048c3.59,0,6.5,2.91,6.5,6.5s-2.91,6.5-6.5,6.5    c-0.169,0-0.334-0.012-0.5-0.025V579v1h1v-2.025c1.002-0.065,1.949-0.328,2.805-0.75l1.012,1.754l0.867-0.5l-1.01-1.748    c0.813-0.545,1.512-1.244,2.057-2.055l1.747,1.008l0.5-0.865l-1.753-1.013c0.422-0.856,0.684-1.802,0.75-2.805H240v-1h-2.025    C237.908,568.998,237.646,568.053,237.225,567.195z"/>
		<circle cx="230.5" cy="570.5" r="1.5"/>
		<path d="M212.775,582.807l-1.752,1.012l0.5,0.865l1.746-1.008c0.545,0.812,1.244,1.511,2.057,2.056l-1.009,1.747l0.866,0.499    l1.012-1.752c0.855,0.421,1.802,0.684,2.805,0.749V589h1v-2.025c1.002-0.065,1.948-0.328,2.805-0.75l1.012,1.754l0.866-0.5    l-1.009-1.748c0.813-0.545,1.512-1.244,2.057-2.055l1.746,1.008l0.5-0.865l-1.752-1.013c0.422-0.856,0.684-1.802,0.75-2.805H229    v-1h-2.025c-0.066-1.003-0.328-1.948-0.75-2.806l1.753-1.012l-0.5-0.865l-1.747,1.008c-0.545-0.812-1.244-1.511-2.057-2.057    l1.01-1.746l-0.866-0.5l-1.012,1.752c-0.856-0.422-1.804-0.684-2.806-0.75V570h-1v2.025c-1.003,0.066-1.949,0.328-2.806,0.75    l-1.012-1.752l-0.866,0.5l1.008,1.746c-0.811,0.545-1.51,1.244-2.055,2.057l-1.747-1.008l-0.5,0.865l1.752,1.012    c-0.421,0.857-0.684,1.803-0.749,2.806H210v1h2.025C212.092,581.004,212.354,581.949,212.775,582.807z M219.5,573    c3.59,0,6.5,2.91,6.5,6.5s-2.91,6.5-6.5,6.5s-6.5-2.91-6.5-6.5S215.91,573,219.5,573z"/>
		<circle cx="219.5" cy="579.5" r="1.5"/>
	</g>
	
    </g>
</svg>
