<?xml version="1.0" encoding="iso-8859-1"?>
<!DOCTYPE svg PUBLIC "-//W3C//DTD SVG 1.1//EN" "http://www.w3.org/Graphics/SVG/1.1/DTD/svg11.dtd">
<svg version="1.1" xmlns="http://www.w3.org/2000/svg" xmlns:xlink="http://www.w3.org/1999/xlink" x="0px" y="0px" width="30" height="30" viewBox="0 0 30 30" xml:space="preserve">
    <g transform="translate(-150 -560)">
        <g xmlns="http://www.w3.org/2000/svg" xmlns:xlink="http://www.w3.org/1999/xlink" id="gear-tick-off-7">
		<path d="M165,585c-5.514,0-10-4.486-10-10c0-2.397,0.85-4.6,2.262-6.324l-0.707-0.707c-0.187,0.224-0.367,0.453-0.535,0.691    l-1.777-1.025l-1.001,1.731l1.779,1.027c-0.516,1.115-0.854,2.327-0.97,3.606h-2.05L152,576h2.051    c0.115,1.279,0.455,2.492,0.971,3.607l-1.779,1.026l1,1.733l1.778-1.027c0.724,1.023,1.617,1.917,2.641,2.641l-1.026,1.777    l1.732,1.001l1.027-1.779c1.115,0.516,2.326,0.854,3.605,0.97V588h2v-2.051c1.279-0.115,2.491-0.454,3.606-0.971l1.027,1.779    l1.732-1l-1.026-1.777c0.238-0.169,0.468-0.349,0.691-0.535l-0.707-0.707C169.6,584.15,167.397,585,165,585z"/>
		<path d="M165,580c1.019,0,1.964-0.309,2.754-0.831l-0.734-0.734C166.425,578.785,165.74,579,165,579c-2.209,0-4-1.791-4-4    c0-0.74,0.215-1.425,0.565-2.02l-0.734-0.734c-0.522,0.79-0.831,1.735-0.831,2.754C160,577.762,162.238,580,165,580z"/>
		<path d="M152.271,562.272l25.457,25.456l0.707-0.707l-4.99-4.99c0.186-0.224,0.365-0.453,0.534-0.691l1.778,1.026l1.001-1.732    l-1.779-1.027c0.516-1.115,0.854-2.327,0.97-3.606H178v-2h-2.051c-0.115-1.279-0.454-2.491-0.97-3.605l1.779-1.027l-1-1.732    l-1.778,1.026c-0.725-1.023-1.617-1.917-2.641-2.641l1.027-1.778l-1.732-1l-1.027,1.779c-1.115-0.516-2.328-0.855-3.607-0.971V562    h-2v2.051c-1.279,0.115-2.491,0.454-3.606,0.97l-1.027-1.778l-1.732,1l1.026,1.777c-0.238,0.169-0.469,0.349-0.691,0.535    l-4.99-4.989L152.271,562.272z M168.434,577.021l-5.454-5.454c0.595-0.352,1.28-0.566,2.021-0.566c2.209,0,4,1.791,4,4    C169,575.74,168.785,576.426,168.434,577.021z M165,565c5.514,0,10,4.486,10,10c0,2.397-0.85,4.6-2.262,6.324l-3.57-3.569    c0.523-0.79,0.832-1.735,0.832-2.755c0-2.762-2.238-5-5-5c-1.02,0-1.965,0.309-2.755,0.832l-3.569-3.57    C160.4,565.85,162.603,565,165,565z"/>
	</g>
	
    </g>
</svg>
