<?xml version="1.0" encoding="iso-8859-1"?>
<!DOCTYPE svg PUBLIC "-//W3C//DTD SVG 1.1//EN" "http://www.w3.org/Graphics/SVG/1.1/DTD/svg11.dtd">
<svg version="1.1" xmlns="http://www.w3.org/2000/svg" xmlns:xlink="http://www.w3.org/1999/xlink" x="0px" y="0px" width="30" height="30" viewBox="0 0 30 30" xml:space="preserve">
    <g transform="translate(-30 -560)">
        <g xmlns="http://www.w3.org/2000/svg" xmlns:xlink="http://www.w3.org/1999/xlink" id="gear-7">
		<path d="M58,574h-2.051c-0.115-1.279-0.454-2.491-0.97-3.605l1.779-1.027l-1-1.732l-1.778,1.026    c-0.725-1.023-1.617-1.917-2.641-2.641l1.027-1.778l-1.732-1l-1.027,1.779c-1.115-0.516-2.328-0.855-3.607-0.971V562h-2v2.051    c-1.279,0.115-2.491,0.454-3.606,0.97l-1.027-1.778l-1.732,1l1.026,1.777c-1.023,0.725-1.916,1.617-2.641,2.641l-1.777-1.025    l-1.001,1.731l1.779,1.027c-0.516,1.115-0.854,2.327-0.97,3.606h-2.05L32,576h2.051c0.115,1.279,0.455,2.492,0.971,3.607    l-1.779,1.026l1,1.733l1.778-1.027c0.724,1.023,1.617,1.917,2.641,2.641l-1.026,1.777l1.732,1.001l1.027-1.779    c1.115,0.516,2.326,0.854,3.605,0.97V588h2v-2.051c1.279-0.115,2.491-0.454,3.606-0.971l1.027,1.779l1.732-1l-1.026-1.777    c1.023-0.725,1.916-1.617,2.64-2.641l1.778,1.026l1.001-1.732l-1.779-1.027c0.516-1.115,0.854-2.327,0.97-3.606H58V574z M45,585    c-5.514,0-10-4.486-10-10s4.486-10,10-10s10,4.486,10,10S50.514,585,45,585z"/>
		<path d="M45,570c-2.762,0-5,2.238-5,5s2.238,5,5,5s5-2.238,5-5S47.762,570,45,570z M45,579c-2.209,0-4-1.791-4-4s1.791-4,4-4    s4,1.791,4,4S47.209,579,45,579z"/>
	</g>
	
    </g>
</svg>
