<?xml version="1.0" encoding="iso-8859-1"?>
<!DOCTYPE svg PUBLIC "-//W3C//DTD SVG 1.1//EN" "http://www.w3.org/Graphics/SVG/1.1/DTD/svg11.dtd">
<svg version="1.1" xmlns="http://www.w3.org/2000/svg" xmlns:xlink="http://www.w3.org/1999/xlink" x="0px" y="0px" width="30" height="30" viewBox="0 0 30 30" xml:space="preserve">
    <g transform="translate(-390 -560)">
        <g xmlns="http://www.w3.org/2000/svg" xmlns:xlink="http://www.w3.org/1999/xlink" id="gear-big-off-7">
		<path d="M405,585c-5.514,0-10-4.486-10-10c0-2.397,0.85-4.6,2.262-6.323l-0.707-0.708c-0.187,0.224-0.366,0.453-0.535,0.691    l-1.777-1.025l-1.001,1.731l1.779,1.027c-0.516,1.115-0.854,2.327-0.97,3.606h-2.05L392,576h2.051    c0.115,1.279,0.455,2.492,0.971,3.607l-1.779,1.026l1,1.733l1.778-1.027c0.724,1.023,1.617,1.917,2.641,2.641l-1.026,1.777    l1.732,1.001l1.027-1.779c1.115,0.516,2.326,0.854,3.605,0.97V588h2v-2.051c1.279-0.115,2.491-0.454,3.606-0.971l1.027,1.779    l1.732-1l-1.026-1.777c0.238-0.169,0.468-0.349,0.691-0.535l-0.707-0.707C409.6,584.15,407.397,585,405,585z"/>
		<path d="M405,583c1.849,0,3.546-0.633,4.9-1.686l-0.716-0.716C408.016,581.475,406.569,582,405,582c-3.859,0-7-3.14-7-7    c0-1.569,0.525-3.015,1.401-4.184l-0.716-0.716C397.633,571.455,397,573.152,397,575C397,579.419,400.582,583,405,583z"/>
		<path d="M403,579c0,1.105,0.896,2,2,2s2-0.895,2-2c0-0.257-0.053-0.501-0.142-0.727l-1.132-1.132    c-0.226-0.089-0.47-0.142-0.727-0.142C403.896,577,403,577.896,403,579z M406,579c0,0.552-0.449,1-1,1s-1-0.448-1-1    c0-0.551,0.449-1,1-1S406,578.449,406,579z"/>
		<path d="M399,575c0,1.105,0.896,2,2,2s2-0.895,2-2c0-0.257-0.053-0.501-0.142-0.727l-1.132-1.132    c-0.226-0.089-0.47-0.142-0.727-0.142C399.896,573,399,573.896,399,575z M402,575c0,0.552-0.449,1-1,1s-1-0.448-1-1    c0-0.551,0.449-1,1-1S402,574.449,402,575z"/>
		<path d="M413.445,582.031c0.187-0.224,0.365-0.453,0.534-0.691l1.778,1.026l1.001-1.732l-1.779-1.027    c0.516-1.115,0.854-2.327,0.97-3.606H418v-2h-2.051c-0.115-1.279-0.454-2.491-0.97-3.605l1.779-1.027l-1-1.732l-1.778,1.026    c-0.725-1.023-1.617-1.917-2.641-2.641l1.027-1.778l-1.732-1l-1.027,1.779c-1.115-0.516-2.328-0.855-3.607-0.971V562h-2v2.051    c-1.279,0.115-2.491,0.454-3.606,0.97l-1.027-1.778l-1.732,1l1.026,1.777c-0.238,0.169-0.468,0.349-0.692,0.535l-4.989-4.989    l-0.707,0.707l25.457,25.456l0.707-0.707L413.445,582.031z M408.272,576.858c0.226,0.089,0.47,0.142,0.728,0.142    c1.104,0,2-0.895,2-2c0-1.104-0.896-2-2-2s-2,0.896-2,2c0,0.258,0.053,0.502,0.142,0.728l-2.869-2.869    c0.226,0.089,0.47,0.142,0.728,0.142c1.104,0,2-0.895,2-2c0-1.104-0.896-2-2-2s-2,0.896-2,2c0,0.258,0.053,0.502,0.142,0.728    l-2.326-2.325c1.169-0.877,2.615-1.402,4.185-1.402c3.859,0,7,3.141,7,7c0,1.57-0.525,3.016-1.401,4.185L408.272,576.858z     M408,575c0-0.551,0.449-1,1-1s1,0.449,1,1c0,0.552-0.449,1-1,1S408,575.552,408,575z M404,571c0-0.551,0.449-1,1-1s1,0.449,1,1    c0,0.552-0.449,1-1,1S404,571.552,404,571z M413,575c0-4.418-3.582-8-8-8c-1.849,0-3.546,0.633-4.9,1.687l-1.424-1.425    C400.4,565.85,402.603,565,405,565c5.514,0,10,4.486,10,10c0,2.397-0.85,4.6-2.262,6.324l-1.424-1.424    C412.367,578.546,413,576.849,413,575z"/>
	</g>
	
    </g>
</svg>
