<?xml version="1.0" encoding="iso-8859-1"?>
<!DOCTYPE svg PUBLIC "-//W3C//DTD SVG 1.1//EN" "http://www.w3.org/Graphics/SVG/1.1/DTD/svg11.dtd">
<svg version="1.1" xmlns="http://www.w3.org/2000/svg" xmlns:xlink="http://www.w3.org/1999/xlink" x="0px" y="0px" width="30" height="30" viewBox="0 0 30 30" xml:space="preserve">
    <g transform="translate(-90 -560)">
        <g xmlns="http://www.w3.org/2000/svg" xmlns:xlink="http://www.w3.org/1999/xlink" id="gear-tick-7">
		<path d="M116.23,576H118v-2h-2.051c-0.115-1.279-0.454-2.491-0.97-3.605l1.779-1.027l-1-1.732l-1.778,1.026    c-0.725-1.023-1.617-1.917-2.641-2.641l1.027-1.778l-1.732-1l-1.027,1.779c-1.115-0.516-2.328-0.855-3.607-0.971V562h-2v2.051    c-1.279,0.115-2.491,0.454-3.606,0.97l-1.027-1.778l-1.732,1l1.026,1.777c-1.023,0.725-1.916,1.617-2.641,2.641l-1.777-1.025    l-1.001,1.731l1.779,1.027c-0.516,1.115-0.854,2.327-0.97,3.606h-2.05L92,576h2.051c0.115,1.279,0.455,2.492,0.971,3.607    l-1.779,1.026l1,1.733l1.778-1.027c0.724,1.023,1.617,1.917,2.641,2.641l-1.026,1.777l1.732,1.001l1.027-1.779    c1.115,0.516,2.326,0.854,3.605,0.97V588h2v-1.769c1.295,2.25,3.718,3.769,6.5,3.769c4.143,0,7.5-3.357,7.5-7.5    C120,579.718,118.48,577.295,116.23,576z M105,585c-5.514,0-10-4.486-10-10s4.486-10,10-10s10,4.486,10,10    c0,0.145-0.016,0.285-0.021,0.428c-0.777-0.272-1.609-0.428-2.479-0.428c-0.895,0-1.75,0.165-2.545,0.453    c0.014-0.152,0.045-0.298,0.045-0.453c0-2.762-2.238-5-5-5s-5,2.238-5,5s2.238,5,5,5c0.155,0,0.301-0.032,0.453-0.046    c-0.288,0.796-0.453,1.65-0.453,2.546c0,0.87,0.156,1.701,0.428,2.479C105.285,584.984,105.145,585,105,585z M105.934,578.879    C105.633,578.951,105.322,579,105,579c-2.209,0-4-1.791-4-4s1.791-4,4-4s4,1.791,4,4c0,0.323-0.049,0.633-0.121,0.934    C107.641,576.617,106.617,577.641,105.934,578.879z M112.5,589c-3.59,0-6.5-2.91-6.5-6.5s2.91-6.5,6.5-6.5s6.5,2.91,6.5,6.5    S116.09,589,112.5,589z"/>
		<polygon points="116.742,580.025 116.035,579.318 111.086,584.268 108.965,582.146 108.258,582.854 111.086,585.682   "/>
	</g>
	
    </g>
</svg>
