<?xml version="1.0" encoding="iso-8859-1"?>
<!DOCTYPE svg PUBLIC "-//W3C//DTD SVG 1.1//EN" "http://www.w3.org/Graphics/SVG/1.1/DTD/svg11.dtd">
<svg version="1.1" xmlns="http://www.w3.org/2000/svg" xmlns:xlink="http://www.w3.org/1999/xlink" x="0px" y="0px" width="30" height="30" viewBox="0 0 30 30" xml:space="preserve">
    <g transform="translate(-270 -560)">
        <g xmlns="http://www.w3.org/2000/svg" xmlns:xlink="http://www.w3.org/1999/xlink" id="gear-big-7">
		<path d="M298,576v-2h-2.051c-0.115-1.279-0.454-2.491-0.97-3.605l1.779-1.027l-1-1.732l-1.778,1.026    c-0.725-1.023-1.617-1.917-2.641-2.641l1.027-1.778l-1.732-1l-1.027,1.779c-1.115-0.516-2.328-0.855-3.607-0.971V562h-2v2.051    c-1.279,0.115-2.491,0.454-3.606,0.97l-1.027-1.778l-1.732,1l1.026,1.777c-1.023,0.725-1.916,1.617-2.641,2.641l-1.777-1.025    l-1.001,1.731l1.779,1.027c-0.516,1.115-0.854,2.327-0.97,3.606h-2.05L272,576h2.051c0.115,1.279,0.455,2.492,0.971,3.607    l-1.779,1.026l1,1.733l1.778-1.027c0.724,1.023,1.617,1.917,2.641,2.641l-1.026,1.777l1.732,1.001l1.027-1.779    c1.115,0.516,2.326,0.854,3.605,0.97V588h2v-2.051c1.279-0.115,2.491-0.454,3.606-0.971l1.027,1.779l1.732-1l-1.026-1.777    c1.023-0.725,1.916-1.617,2.64-2.641l1.778,1.026l1.001-1.732l-1.779-1.027c0.516-1.115,0.854-2.327,0.97-3.606H298z M285,585    c-5.514,0-10-4.486-10-10s4.486-10,10-10s10,4.486,10,10S290.514,585,285,585z"/>
		<path d="M285,567c-4.418,0-8,3.582-8,8c0,4.419,3.582,8,8,8s8-3.581,8-8C293,570.582,289.418,567,285,567z M285,582    c-3.859,0-7-3.14-7-7c0-3.859,3.141-7,7-7s7,3.141,7,7C292,578.86,288.859,582,285,582z"/>
		<path d="M285,573c1.104,0,2-0.895,2-2c0-1.104-0.896-2-2-2s-2,0.896-2,2C283,572.105,283.896,573,285,573z M285,570    c0.551,0,1,0.449,1,1c0,0.552-0.449,1-1,1s-1-0.448-1-1C284,570.449,284.449,570,285,570z"/>
		<path d="M285,577c-1.104,0-2,0.896-2,2c0,1.105,0.896,2,2,2s2-0.895,2-2C287,577.896,286.104,577,285,577z M285,580    c-0.551,0-1-0.448-1-1c0-0.551,0.449-1,1-1s1,0.449,1,1C286,579.552,285.551,580,285,580z"/>
		<path d="M287,575c0,1.105,0.896,2,2,2s2-0.895,2-2c0-1.104-0.896-2-2-2S287,573.896,287,575z M290,575c0,0.552-0.449,1-1,1    s-1-0.448-1-1c0-0.551,0.449-1,1-1S290,574.449,290,575z"/>
		<path d="M281,573c-1.104,0-2,0.896-2,2c0,1.105,0.896,2,2,2s2-0.895,2-2C283,573.896,282.104,573,281,573z M281,576    c-0.551,0-1-0.448-1-1c0-0.551,0.449-1,1-1s1,0.449,1,1C282,575.552,281.551,576,281,576z"/>
	</g>
	
    </g>
</svg>
