<?xml version="1.0" encoding="iso-8859-1"?>
<!DOCTYPE svg PUBLIC "-//W3C//DTD SVG 1.1//EN" "http://www.w3.org/Graphics/SVG/1.1/DTD/svg11.dtd">
<svg version="1.1" xmlns="http://www.w3.org/2000/svg" xmlns:xlink="http://www.w3.org/1999/xlink" x="0px" y="0px" width="30" height="30" viewBox="0 0 30 30" xml:space="preserve">
    <g transform="translate(-150 -1040)">
        <g xmlns="http://www.w3.org/2000/svg" xmlns:xlink="http://www.w3.org/1999/xlink" id="glasses-7">
		<path d="M172,1050c-1.909,0-3.549,1.082-4.391,2.655c-0.57-0.575-1.432-1.155-2.609-1.155s-2.039,0.58-2.609,1.155    c-0.842-1.573-2.481-2.655-4.391-2.655c-2.419,0-4.436,1.718-4.899,4H151v1h2c0,2.762,2.238,5,5,5s5-2.238,5-5    c0-0.455-0.08-0.889-0.194-1.308c0.403-0.507,1.142-1.192,2.194-1.192s1.791,0.686,2.194,1.192    c-0.114,0.419-0.194,0.853-0.194,1.308c0,2.762,2.238,5,5,5s5-2.238,5-5h2v-1h-2.101C176.436,1051.718,174.419,1050,172,1050z     M158,1059c-2.206,0-4-1.795-4-4s1.794-4,4-4s4,1.795,4,4S160.206,1059,158,1059z M172,1059c-2.206,0-4-1.795-4-4s1.794-4,4-4    s4,1.795,4,4S174.206,1059,172,1059z"/>
	</g>
	
    </g>
</svg>
