<?xml version="1.0" encoding="iso-8859-1"?>
<!DOCTYPE svg PUBLIC "-//W3C//DTD SVG 1.1//EN" "http://www.w3.org/Graphics/SVG/1.1/DTD/svg11.dtd">
<svg version="1.1" xmlns="http://www.w3.org/2000/svg" xmlns:xlink="http://www.w3.org/1999/xlink" x="0px" y="0px" width="30" height="30" viewBox="0 0 30 30" xml:space="preserve">
    <g transform="translate(-210 -920)">
        <g xmlns="http://www.w3.org/2000/svg" xmlns:xlink="http://www.w3.org/1999/xlink" id="heart-star-7">
		<path d="M236.428,936.119C241.112,928.132,234.1,924,230.86,924c-4.481,0-5.86,3-5.86,3s-1.38-3-5.859-3    c-4.483,0-16.204,7.906,5.859,23c0.359-0.246,0.685-0.484,1.025-0.726c1.301,2.226,3.71,3.726,6.475,3.726    c4.143,0,7.5-3.357,7.5-7.5C240,939.8,238.568,937.44,236.428,936.119z M225,945.785c-12.018-8.375-12.537-13.822-11.757-16.344    c0.885-2.859,4.049-4.441,5.897-4.441c3.733,0,4.907,2.328,4.955,2.428l0.925,1.902l0.888-1.912    c0.044-0.09,1.217-2.418,4.952-2.418c1.849,0,5.012,1.582,5.896,4.441c0.401,1.295,0.454,3.365-1.216,6.207    c-0.93-0.414-1.957-0.648-3.041-0.648c-4.143,0-7.5,3.357-7.5,7.5c0,1.02,0.205,1.991,0.574,2.877    C225.383,945.514,225.197,945.647,225,945.785z M232.5,949c-3.59,0-6.5-2.91-6.5-6.5s2.91-6.5,6.5-6.5s6.5,2.91,6.5,6.5    S236.09,949,232.5,949z"/>
		<polygon points="233.568,941 232.5,937.785 231.43,941 228,941 230.768,943.078 229.717,946.344 232.5,944.336 235.278,946.344     234.23,943.078 237,941   "/>
	</g>
	
    </g>
</svg>
