<?xml version="1.0" encoding="iso-8859-1"?>
<!DOCTYPE svg PUBLIC "-//W3C//DTD SVG 1.1//EN" "http://www.w3.org/Graphics/SVG/1.1/DTD/svg11.dtd">
<svg version="1.1" xmlns="http://www.w3.org/2000/svg" xmlns:xlink="http://www.w3.org/1999/xlink" x="0px" y="0px" width="30" height="30" viewBox="0 0 30 30" xml:space="preserve">
    <g transform="translate(-330 -920)">
        <g xmlns="http://www.w3.org/2000/svg" xmlns:xlink="http://www.w3.org/1999/xlink" id="heart-off-7">
		<path d="M350.86,924c-4.481,0-5.86,3-5.86,3s-1.38-3-5.859-3c-0.82,0-1.882,0.268-2.935,0.792l-3.228-3.228l-0.707,0.707    l25.457,25.457l0.707-0.707l-5.996-5.996C363.867,929.83,354.708,924,350.86,924z M336.957,925.543    c0.785-0.349,1.56-0.543,2.184-0.543c3.733,0,4.907,2.328,4.955,2.428l0.925,1.902l0.888-1.912    c0.044-0.09,1.217-2.418,4.952-2.418c1.849,0,5.012,1.582,5.896,4.441c0.596,1.923,0.428,5.552-5.019,10.883L336.957,925.543z"/>
		<path d="M345,945.785c-12.018-8.375-12.537-13.822-11.757-16.344c0.358-1.16,1.099-2.097,1.968-2.816l-0.714-0.714    c-3.774,3.18-5.275,10.295,10.503,21.089c2.372-1.622,4.332-3.156,5.974-4.612l-0.702-0.702    C348.823,942.964,347.089,944.329,345,945.785z"/>
	</g>
	
    </g>
</svg>
