<?xml version="1.0" encoding="iso-8859-1"?>
<!DOCTYPE svg PUBLIC "-//W3C//DTD SVG 1.1//EN" "http://www.w3.org/Graphics/SVG/1.1/DTD/svg11.dtd">
<svg version="1.1" xmlns="http://www.w3.org/2000/svg" xmlns:xlink="http://www.w3.org/1999/xlink" x="0px" y="0px" width="30" height="30" viewBox="0 0 30 30" xml:space="preserve">
    <g transform="translate(-90 -80)">
        <g xmlns="http://www.w3.org/2000/svg" xmlns:xlink="http://www.w3.org/1999/xlink" id="home-tick-7">
		<path d="M116,95.869v-5.646l1.716,1.188l0.568-0.822L105,81.393l-13.284,9.196l0.568,0.822L94,90.223V108h13.413    c1.337,1.237,3.121,2,5.087,2c4.143,0,7.5-3.358,7.5-7.5C120,99.623,118.378,97.127,116,95.869z M101,107h-6V89.531l10-6.924    l10,6.924v5.905c-0.783-0.277-1.622-0.436-2.5-0.436c-1.966,0-3.75,0.763-5.087,2H101V107z M102,98h4.51    c-0.943,1.254-1.51,2.809-1.51,4.5s0.566,3.246,1.51,4.5H102V98z M112.5,109c-3.59,0-6.5-2.91-6.5-6.5s2.91-6.5,6.5-6.5    s6.5,2.91,6.5,6.5S116.09,109,112.5,109z"/>
		<polygon points="111.086,104.268 108.965,102.146 108.258,102.854 111.086,105.682 116.742,100.025 116.035,99.318   "/>
	</g>
	
    </g>
</svg>
