<?xml version="1.0" encoding="iso-8859-1"?>
<!DOCTYPE svg PUBLIC "-//W3C//DTD SVG 1.1//EN" "http://www.w3.org/Graphics/SVG/1.1/DTD/svg11.dtd">
<svg version="1.1" xmlns="http://www.w3.org/2000/svg" xmlns:xlink="http://www.w3.org/1999/xlink" x="0px" y="0px" width="30" height="30" viewBox="0 0 30 30" xml:space="preserve">
    <g transform="translate(-570 -920)">
        <g xmlns="http://www.w3.org/2000/svg" xmlns:xlink="http://www.w3.org/1999/xlink" id="key-antique-7">
		<path d="M572,928.5c0,3.59,2.91,6.5,6.5,6.5c1.614,0,3.088-0.593,4.225-1.567l7.796,7.796l-2.829,2.828l0.707,0.707l2.829-2.828    l0.707,0.707l-4.243,4.242l0.707,0.707l4.243-4.242l0.707,0.707l-2.828,2.828l0.707,0.707l2.828-2.828l0.707,0.707l0.707-0.707    l-12.038-12.038c0.976-1.137,1.568-2.61,1.568-4.226c0-3.589-2.911-6.5-6.5-6.5C574.91,922.001,572,924.911,572,928.5z M578.5,923    c3.034,0,5.5,2.466,5.5,5.5s-2.466,5.5-5.5,5.5s-5.5-2.466-5.5-5.5S575.466,923,578.5,923z"/>
	</g>
	
    </g>
</svg>
