<?xml version="1.0" encoding="iso-8859-1"?>
<!DOCTYPE svg PUBLIC "-//W3C//DTD SVG 1.1//EN" "http://www.w3.org/Graphics/SVG/1.1/DTD/svg11.dtd">
<svg version="1.1" xmlns="http://www.w3.org/2000/svg" xmlns:xlink="http://www.w3.org/1999/xlink" x="0px" y="0px" width="30" height="30" viewBox="0 0 30 30" xml:space="preserve">
    <g transform="translate(-570 -140)">
        <g xmlns="http://www.w3.org/2000/svg" xmlns:xlink="http://www.w3.org/1999/xlink" id="lifebuoy-tick-7">
		<path d="M573,163c0,2.209,1.791,4,4,4h2.999c1.54,0.643,3.229,1,5.001,1c0.749,0,1.479-0.077,2.194-0.199    c1.356,1.358,3.233,2.199,5.306,2.199c4.143,0,7.5-3.357,7.5-7.5c0-2.073-0.841-3.949-2.199-5.306    C597.923,156.479,598,155.75,598,155c0-1.772-0.357-3.461-1-5.001V147c0-2.209-1.791-4-4-4h-2.999c-1.54-0.643-3.229-1-5.001-1    s-3.461,0.357-5.001,1H577c-2.209,0-4,1.791-4,4v2.999c-0.643,1.54-1,3.229-1,5.001s0.357,3.461,1,5.001V163z M577,166    c-1.654,0-3-1.346-3-3v-1.094c1.041,1.654,2.439,3.053,4.094,4.094H577z M585,148c3.859,0,7,3.141,7,7    c0,0.009-0.001,0.017-0.001,0.025c-3.741,0.248-6.726,3.232-6.974,6.973c-0.009,0-0.017,0.001-0.025,0.001c-3.859,0-7-3.141-7-7    S581.141,148,585,148z M575.229,148.058c0.779-1.093,1.735-2.049,2.828-2.828l2.888,2.887c-1.166,0.688-2.14,1.663-2.829,2.828    L575.229,148.058z M589.055,148.116l2.888-2.887c1.093,0.779,2.049,1.735,2.828,2.828l-2.887,2.887    C591.194,149.779,590.221,148.805,589.055,148.116z M578.116,159.056c0.689,1.165,1.663,2.14,2.829,2.828l-2.888,2.887    c-1.093-0.779-2.049-1.735-2.828-2.828L578.116,159.056z M585,167c-2.222,0-4.297-0.617-6.084-1.674l2.962-2.961    c0.96,0.408,2.015,0.635,3.122,0.635c0.009,0,0.017-0.001,0.025-0.001c0.096,1.457,0.605,2.797,1.415,3.909    C585.968,166.965,585.488,167,585,167z M599,162.5c0,3.59-2.91,6.5-6.5,6.5s-6.5-2.91-6.5-6.5s2.91-6.5,6.5-6.5    S599,158.91,599,162.5z M596.907,156.441c-1.111-0.81-2.452-1.32-3.908-1.416c0-0.009,0.001-0.017,0.001-0.025    c0-1.107-0.227-2.162-0.635-3.122l2.961-2.962c1.057,1.787,1.674,3.862,1.674,6.084C597,155.488,596.965,155.968,596.907,156.441z     M593,144c1.654,0,3,1.346,3,3v1.094c-1.041-1.654-2.439-3.053-4.094-4.094H593z M585,143c2.222,0,4.297,0.617,6.083,1.674    l-2.961,2.961c-0.96-0.408-2.015-0.635-3.122-0.635s-2.162,0.227-3.122,0.635l-2.962-2.961C580.703,143.617,582.778,143,585,143z     M574,147c0-1.654,1.346-3,3-3h1.094c-1.654,1.041-3.053,2.439-4.094,4.094V147z M574.674,148.916l2.961,2.962    c-0.408,0.96-0.635,2.015-0.635,3.122s0.227,2.162,0.635,3.122l-2.961,2.962C573.617,159.297,573,157.222,573,155    S573.617,150.703,574.674,148.916z"/>
		<polygon points="596.742,160.025 596.035,159.318 591.086,164.268 588.965,162.146 588.258,162.854 591.086,165.682   "/>
	</g>
	
    </g>
</svg>
