<?xml version="1.0" encoding="iso-8859-1"?>
<!DOCTYPE svg PUBLIC "-//W3C//DTD SVG 1.1//EN" "http://www.w3.org/Graphics/SVG/1.1/DTD/svg11.dtd">
<svg version="1.1" xmlns="http://www.w3.org/2000/svg" xmlns:xlink="http://www.w3.org/1999/xlink" x="0px" y="0px" width="30" height="30" viewBox="0 0 30 30" xml:space="preserve">
    <g transform="translate(-510 -560)">
        <g xmlns="http://www.w3.org/2000/svg" xmlns:xlink="http://www.w3.org/1999/xlink" id="lightbulb-tick-7">
		<path d="M515.735,577.662c1.164,1.369,2.265,2.66,2.265,4.338v2h4.15c0.07,0.344,0.171,0.675,0.285,1H519v1h3.869    c0.186,0.352,0.403,0.684,0.641,1H520v1h4v-0.413c1.37,1.48,3.323,2.413,5.5,2.413c4.143,0,7.5-3.357,7.5-7.5    c0-3.906-2.987-7.112-6.803-7.465c0.479-0.882,0.803-1.863,0.803-3.035c0-9.885-8-10-9-10s-9,0.115-9,10    C513,574.449,514.391,576.084,515.735,577.662z M536,582.5c0,3.59-2.91,6.5-6.5,6.5s-6.5-2.91-6.5-6.5s2.91-6.5,6.5-6.5    S536,578.91,536,582.5z M522,563c1.877,0,8,0.648,8,9c0,1.174-0.392,2.135-0.958,3.023c-3.928,0.237-7.042,3.489-7.042,7.477    c0,0.169,0.015,0.334,0.025,0.5H519v-1c0-2.043-1.271-3.537-2.5-4.982c-1.287-1.512-2.5-2.936-2.5-5.018    C514,563.648,520.123,563,522,563z"/>
		<polygon points="525.965,582.146 525.258,582.854 528.086,585.682 533.742,580.025 533.035,579.318 528.086,584.268   "/>
	</g>
	
    </g>
</svg>
