<?xml version="1.0" encoding="iso-8859-1"?>
<!DOCTYPE svg PUBLIC "-//W3C//DTD SVG 1.1//EN" "http://www.w3.org/Graphics/SVG/1.1/DTD/svg11.dtd">
<svg version="1.1" xmlns="http://www.w3.org/2000/svg" xmlns:xlink="http://www.w3.org/1999/xlink" x="0px" y="0px" width="30" height="30" viewBox="0 0 30 30" xml:space="preserve">
    <g transform="translate(-570 -560)">
        <g xmlns="http://www.w3.org/2000/svg" xmlns:xlink="http://www.w3.org/1999/xlink" id="lightbulb-off-7">
		<path d="M588,582v1h-6v-1c0-2.043-1.271-3.537-2.5-4.982c-1.287-1.512-2.5-2.936-2.5-5.018c0-1.235,0.146-2.283,0.381-3.205    l-0.826-0.825c-0.349,1.12-0.555,2.449-0.555,4.03c0,2.449,1.391,4.084,2.735,5.662c1.164,1.369,2.265,2.66,2.265,4.338v2h8v-2    c0-0.475,0.095-0.915,0.247-1.338l-0.771-0.772C588.183,580.533,588,581.227,588,582z"/>
		<path d="M591.265,577.662c1.345-1.578,2.735-3.213,2.735-5.662c0-9.885-8-10-9-10c-0.733,0-5.234,0.067-7.58,4.007l-4.441-4.441    l-0.707,0.707l25.457,25.456l0.707-0.707l-8.154-8.154C590.587,578.465,590.921,578.066,591.265,577.662z M578.167,566.754    c1.869-3.396,5.469-3.754,6.833-3.754c1.877,0,8,0.648,8,9c0,2.082-1.213,3.506-2.497,5.014c-0.317,0.373-0.637,0.75-0.938,1.139    L578.167,566.754z"/>
		<rect x="582" y="585" width="6" height="1"/>
		<rect x="583" y="587" width="4" height="1"/>
	</g>
	
    </g>
</svg>
