<?xml version="1.0" encoding="iso-8859-1"?>
<!DOCTYPE svg PUBLIC "-//W3C//DTD SVG 1.1//EN" "http://www.w3.org/Graphics/SVG/1.1/DTD/svg11.dtd">
<svg version="1.1" xmlns="http://www.w3.org/2000/svg" xmlns:xlink="http://www.w3.org/1999/xlink" x="0px" y="0px" width="30" height="30" viewBox="0 0 30 30" xml:space="preserve">
    <g transform="translate(-450 -560)">
        <g xmlns="http://www.w3.org/2000/svg" xmlns:xlink="http://www.w3.org/1999/xlink" id="lightbulb-7">
		<path d="M469,582c0-1.678,1.101-2.969,2.265-4.338c1.345-1.578,2.735-3.213,2.735-5.662c0-9.885-8-10-9-10s-9,0.115-9,10    c0,2.449,1.391,4.084,2.735,5.662c1.164,1.369,2.265,2.66,2.265,4.338v2h8V582z M468,583h-6v-1c0-2.043-1.271-3.537-2.5-4.982    c-1.287-1.512-2.5-2.936-2.5-5.018c0-8.352,6.123-9,8-9s8,0.648,8,9c0,2.082-1.213,3.506-2.497,5.014    C469.271,578.463,468,579.957,468,582V583z"/>
		<rect x="462" y="585" width="6" height="1"/>
		<rect x="463" y="587" width="4" height="1"/>
	</g>
	
    </g>
</svg>
