<?xml version="1.0" encoding="iso-8859-1"?>
<!DOCTYPE svg PUBLIC "-//W3C//DTD SVG 1.1//EN" "http://www.w3.org/Graphics/SVG/1.1/DTD/svg11.dtd">
<svg version="1.1" xmlns="http://www.w3.org/2000/svg" xmlns:xlink="http://www.w3.org/1999/xlink" x="0px" y="0px" width="30" height="30" viewBox="0 0 30 30" xml:space="preserve">
    <g transform="translate(-330 -620)">
        <g xmlns="http://www.w3.org/2000/svg" xmlns:xlink="http://www.w3.org/1999/xlink" id="link-off-7">
		<path d="M340.051,632.172l-2.438,2.438l-3.926,3.926c-2.147,2.148-2.147,5.631,0,7.778c2.147,2.148,5.63,2.147,7.778,0    l3.926-3.925c-0.52,0.117-1.049,0.174-1.578,0.163l-3.055,3.055c-1.755,1.755-4.609,1.755-6.364,0s-1.755-4.609,0-6.364    l3.055-3.055l1.077-1.077l2.232-2.231l0.354-0.354l-0.707-0.707L340.051,632.172z"/>
		<path d="M347.121,639.242c-0.75,0.75-1.702,1.16-2.682,1.269c-1.313,0.146-2.678-0.263-3.682-1.269    c-1.005-1.004-1.414-2.368-1.268-3.682l-1.025,1.025c0.117,1.228,0.646,2.424,1.586,3.363c0.939,0.94,2.136,1.469,3.363,1.586    c0.492,0.047,0.988,0.024,1.476-0.061c1.076-0.188,2.107-0.693,2.938-1.525l0.354-0.354l-0.707-0.707L347.121,639.242z"/>
		<path d="M357.729,647.729l0.707-0.707l-8.84-8.84l0.354-0.354l2.438-2.438l3.925-3.926c2.147-2.148,2.148-5.631,0-7.778    c-2.147-2.147-5.63-2.147-7.778,0l-3.926,3.926c0.52-0.118,1.049-0.175,1.578-0.164l3.055-3.055c1.755-1.755,4.609-1.755,6.364,0    s1.755,4.609,0,6.364l-3.055,3.055l-1.077,1.077l-2.232,2.231l-0.354,0.354l-6.363-6.363l0.354-0.354    c0.75-0.75,1.702-1.16,2.682-1.268c1.313-0.146,2.678,0.263,3.682,1.268c1.006,1.004,1.415,2.368,1.269,3.682l1.024-1.025    c-0.117-1.228-0.646-2.424-1.585-3.363c-0.94-0.94-2.137-1.469-3.364-1.586c-0.492-0.047-0.988-0.024-1.476,0.061    c-1.076,0.188-2.107,0.693-2.938,1.525l-0.354,0.354l-8.84-8.84l-0.707,0.707L357.729,647.729z"/>
	</g>
	
    </g>
</svg>
