<?xml version="1.0" encoding="iso-8859-1"?>
<!DOCTYPE svg PUBLIC "-//W3C//DTD SVG 1.1//EN" "http://www.w3.org/Graphics/SVG/1.1/DTD/svg11.dtd">
<svg version="1.1" xmlns="http://www.w3.org/2000/svg" xmlns:xlink="http://www.w3.org/1999/xlink" x="0px" y="0px" width="30" height="30" viewBox="0 0 30 30" xml:space="preserve">
    <g transform="translate(-270 -620)">
        <g xmlns="http://www.w3.org/2000/svg" xmlns:xlink="http://www.w3.org/1999/xlink" id="link-tick-7">
		<path d="M292.766,635.014l3.548-3.549c2.147-2.148,2.148-5.631,0-7.778c-2.147-2.147-5.63-2.147-7.778,0l-3.926,3.926    c0.52-0.118,1.049-0.175,1.578-0.164l3.055-3.055c1.755-1.755,4.609-1.755,6.364,0s1.755,4.609,0,6.364l-3.055,3.055l-1.077,1.077    l-0.223,0.223c-2.82,0.474-5.108,2.514-5.926,5.202c-0.291,0.091-0.586,0.163-0.887,0.196c-1.313,0.146-2.678-0.263-3.682-1.269    c-1.005-1.004-1.414-2.368-1.268-3.682l-1.025,1.025c0.117,1.228,0.646,2.424,1.586,3.363c0.939,0.94,2.136,1.469,3.363,1.586    c0.492,0.047,0.988,0.024,1.476-0.061c0.066-0.012,0.13-0.035,0.196-0.05c-0.049,0.337-0.082,0.679-0.084,1.028    c-0.395,0.064-0.791,0.106-1.189,0.099l-3.055,3.055c-1.755,1.755-4.609,1.755-6.364,0s-1.755-4.609,0-6.364l3.055-3.055    l1.077-1.077l2.232-2.231l2.121-2.121c0.75-0.75,1.702-1.16,2.682-1.268c1.313-0.146,2.678,0.263,3.682,1.268    c1.006,1.004,1.415,2.368,1.269,3.682l1.024-1.025c-0.117-1.228-0.646-2.424-1.585-3.363c-0.94-0.94-2.137-1.469-3.364-1.586    c-0.492-0.047-0.988-0.024-1.476,0.061c-1.076,0.188-2.107,0.693-2.938,1.525l-2.121,2.121l-2.438,2.438l-3.926,3.926    c-2.147,2.148-2.147,5.631,0,7.778c2.147,2.148,5.63,2.147,7.778,0l3.549-3.548c0.141,4.019,3.434,7.234,7.486,7.234    c4.143,0,7.5-3.357,7.5-7.5C300,638.447,296.784,635.154,292.766,635.014z M292.5,649c-3.59,0-6.5-2.91-6.5-6.5s2.91-6.5,6.5-6.5    s6.5,2.91,6.5,6.5S296.09,649,292.5,649z"/>
		<polygon points="291.086,644.268 288.965,642.146 288.258,642.854 291.086,645.682 296.742,640.025 296.035,639.318   "/>
	</g>
	
    </g>
</svg>
