<?xml version="1.0" encoding="iso-8859-1"?>
<!DOCTYPE svg PUBLIC "-//W3C//DTD SVG 1.1//EN" "http://www.w3.org/Graphics/SVG/1.1/DTD/svg11.dtd">
<svg version="1.1" xmlns="http://www.w3.org/2000/svg" xmlns:xlink="http://www.w3.org/1999/xlink" x="0px" y="0px" width="30" height="30" viewBox="0 0 30 30" xml:space="preserve">
    <g transform="translate(-330 -140)">
        <g xmlns="http://www.w3.org/2000/svg" xmlns:xlink="http://www.w3.org/1999/xlink" id="lock-off-7">
		<path d="M354,167h-18v-13h2h4.586l-1-1H338v-3c0-0.188,0.014-0.373,0.028-0.558l-0.891-0.891c-0.086,0.47-0.138,0.953-0.138,1.448    v3h-2v15h20v-1.586l-1-1V167z"/>
		<path d="M342,159c0,1.305,0.838,2.402,2,2.816V165h2v-3.184c1.046-0.373,1.823-1.301,1.97-2.433l-1.111-1.111    c0.089,0.226,0.142,0.47,0.142,0.728c0,1.104-0.896,2-2,2c-1.104,0-2-0.896-2-2c0-1.104,0.896-2,2-2    c0.258,0,0.501,0.053,0.728,0.141l-1.104-1.103C343.147,156.225,342,157.473,342,159z"/>
		<path d="M357.729,167.728l0.707-0.707L355,163.585V153h-2v-3c0-4.418-3.582-8-8-8c-3.135,0-5.841,1.808-7.153,4.433l-4.868-4.868    l-0.707,0.707L357.729,167.728z M354,154v8.585L345.414,154H352H354z M345,143c3.859,0,7,3.141,7,7v3h-7.586l-5.817-5.817    C339.684,144.723,342.143,143,345,143z"/>
	</g>
	
    </g>
</svg>
