<?xml version="1.0" encoding="iso-8859-1"?>
<!DOCTYPE svg PUBLIC "-//W3C//DTD SVG 1.1//EN" "http://www.w3.org/Graphics/SVG/1.1/DTD/svg11.dtd">
<svg version="1.1" xmlns="http://www.w3.org/2000/svg" xmlns:xlink="http://www.w3.org/1999/xlink" x="0px" y="0px" width="30" height="30" viewBox="0 0 30 30" xml:space="preserve">
    <g transform="translate(-270 -140)">
        <g xmlns="http://www.w3.org/2000/svg" xmlns:xlink="http://www.w3.org/1999/xlink" id="lock-tick-7">
		<path d="M281,156c-1.656,0-3,1.344-3,3c0,1.305,0.838,2.402,2,2.816V165h2v-3.184c1.162-0.414,2-1.512,2-2.816    C284,157.344,282.656,156,281,156z M281,161c-1.104,0-2-0.896-2-2c0-1.104,0.896-2,2-2c1.104,0,2,0.896,2,2    C283,160.104,282.104,161,281,161z"/>
		<path d="M292.5,155c-0.514,0-1.016,0.052-1.5,0.15V153h-2v-3c0-4.418-3.582-8-8-8s-8,3.582-8,8v3h-2v15h16.413    c1.337,1.237,3.121,2,5.087,2c4.143,0,7.5-3.358,7.5-7.5S296.643,155,292.5,155z M274,150c0-3.859,3.141-7,7-7s7,3.141,7,7v3h-14    V150z M272,154h2h14h2v1.436c-2.911,1.031-5,3.8-5,7.064c0,1.691,0.566,3.246,1.51,4.5H272V154z M292.5,169    c-3.59,0-6.5-2.91-6.5-6.5s2.91-6.5,6.5-6.5s6.5,2.91,6.5,6.5S296.09,169,292.5,169z"/>
		<polygon points="291.086,164.268 288.965,162.146 288.258,162.854 291.086,165.682 296.742,160.025 296.035,159.318   "/>
	</g>
	
    </g>
</svg>
