<?xml version="1.0" encoding="iso-8859-1"?>
<!DOCTYPE svg PUBLIC "-//W3C//DTD SVG 1.1//EN" "http://www.w3.org/Graphics/SVG/1.1/DTD/svg11.dtd">
<svg version="1.1" xmlns="http://www.w3.org/2000/svg" xmlns:xlink="http://www.w3.org/1999/xlink" x="0px" y="0px" width="30" height="30" viewBox="0 0 30 30" xml:space="preserve">
    <g transform="translate(-210 -140)">
        <g xmlns="http://www.w3.org/2000/svg" xmlns:xlink="http://www.w3.org/1999/xlink" id="lock-7">
		<path d="M225,142c-4.418,0-8,3.582-8,8v3h-2v15h20v-15h-2v-3C233,145.582,229.418,142,225,142z M218,150c0-3.859,3.141-7,7-7    s7,3.141,7,7v3h-14V150z M234,154v13h-18v-13h2h14H234z"/>
		<path d="M225,156c-1.656,0-3,1.344-3,3c0,1.305,0.838,2.402,2,2.816V165h2v-3.184c1.162-0.414,2-1.512,2-2.816    C228,157.344,226.656,156,225,156z M225,161c-1.104,0-2-0.896-2-2c0-1.104,0.896-2,2-2c1.104,0,2,0.896,2,2    C227,160.104,226.104,161,225,161z"/>
	</g>
	
    </g>
</svg>
