<?xml version="1.0" encoding="iso-8859-1"?>
<!DOCTYPE svg PUBLIC "-//W3C//DTD SVG 1.1//EN" "http://www.w3.org/Graphics/SVG/1.1/DTD/svg11.dtd">
<svg version="1.1" xmlns="http://www.w3.org/2000/svg" xmlns:xlink="http://www.w3.org/1999/xlink" x="0px" y="0px" width="30" height="30" viewBox="0 0 30 30" xml:space="preserve">
    <g transform="translate(-90 -980)">
        <g xmlns="http://www.w3.org/2000/svg" xmlns:xlink="http://www.w3.org/1999/xlink" id="medal-star-7">
		<polygon points="110.354,995 112,981 98,981 99.646,995 100.654,995 99.125,982 110.875,982 109.346,995   "/>
		<path d="M101.153,1000.617l-2.334,7.248l6.181-4.458l6.181,4.458l-2.334-7.248L115,996h-7.621L105,988.865L102.624,996H95    L101.153,1000.617z M103.345,997l1.656-4.972l1.657,4.972h5.343l-4.324,3.245l1.618,5.027l-4.295-3.099l-4.295,3.099l1.618-5.027    L97.999,997H103.345z"/>
	</g>
	
    </g>
</svg>
