<?xml version="1.0" encoding="iso-8859-1"?>
<!DOCTYPE svg PUBLIC "-//W3C//DTD SVG 1.1//EN" "http://www.w3.org/Graphics/SVG/1.1/DTD/svg11.dtd">
<svg version="1.1" xmlns="http://www.w3.org/2000/svg" xmlns:xlink="http://www.w3.org/1999/xlink" x="0px" y="0px" width="30" height="30" viewBox="0 0 30 30" xml:space="preserve">
    <g transform="translate(-390 -260)">
        <g xmlns="http://www.w3.org/2000/svg" xmlns:xlink="http://www.w3.org/1999/xlink" id="message-off-7">
		<path d="M405,284c-1.088,0-2.167-0.128-3.207-0.379c-0.109-0.027-0.225-0.041-0.34-0.041c-0.582,0-1.076,0.323-1.758,0.77    c-0.722,0.473-1.745,1.144-3.313,1.734c0.841-1.169,1.094-2.156,1.117-2.891c0.027-0.886-0.289-1.678-0.87-2.172    c-2.341-1.995-3.63-4.666-3.63-7.521c0-2.453,0.974-4.706,2.59-6.496l-0.712-0.712c-1.797,1.973-2.878,4.478-2.878,7.208    c0,3.254,1.527,6.191,3.981,8.283C396.891,282.557,397,285,393,288c6-1,7.685-3.619,8.559-3.408    c1.096,0.266,2.25,0.408,3.441,0.408c2.517,0,4.857-0.643,6.848-1.738l-0.739-0.74C409.316,283.454,407.232,284,405,284z"/>
		<path d="M417.729,287.728l0.707-0.707l-4.879-4.878c2.719-2.108,4.443-5.193,4.443-8.643c0-6.352-5.82-11.5-13-11.5    c-3.327,0-6.353,1.115-8.652,2.934l-3.369-3.369l-0.707,0.707L417.729,287.728z M405,263c6.617,0,12,4.711,12,10.5    c0,3.166-1.616,6.002-4.157,7.929l-15.781-15.781C399.18,264.006,401.955,263,405,263z"/>
	</g>
	
    </g>
</svg>
