<?xml version="1.0" encoding="iso-8859-1"?>
<!DOCTYPE svg PUBLIC "-//W3C//DTD SVG 1.1//EN" "http://www.w3.org/Graphics/SVG/1.1/DTD/svg11.dtd">
<svg version="1.1" xmlns="http://www.w3.org/2000/svg" xmlns:xlink="http://www.w3.org/1999/xlink" x="0px" y="0px" width="30" height="30" viewBox="0 0 30 30" xml:space="preserve">
    <g transform="translate(-210 -260)">
        <g xmlns="http://www.w3.org/2000/svg" xmlns:xlink="http://www.w3.org/1999/xlink" id="message-star-7">
		<path d="M215.981,281.783C216.891,282.557,217,285,213,288c6-1,7.685-3.619,8.559-3.408c1.096,0.266,2.25,0.408,3.441,0.408    c0.145,0,0.285-0.015,0.429-0.019c1.025,2.921,3.8,5.019,7.071,5.019c4.143,0,7.5-3.358,7.5-7.5c0-2.251-0.996-4.266-2.566-5.64    c0.366-1.063,0.566-2.19,0.566-3.36c0-6.352-5.82-11.5-13-11.5s-13,5.148-13,11.5C212,276.754,213.527,279.691,215.981,281.783z     M239,282.5c0,3.59-2.91,6.5-6.5,6.5s-6.5-2.91-6.5-6.5s2.91-6.5,6.5-6.5S239,278.91,239,282.5z M225,263    c6.617,0,12,4.711,12,10.5c0,0.939-0.154,1.845-0.42,2.711c-1.176-0.764-2.574-1.211-4.08-1.211c-4.143,0-7.5,3.358-7.5,7.5    c0,0.512,0.053,1.011,0.149,1.493C225.1,283.994,225.051,284,225,284c-1.088,0-2.167-0.128-3.207-0.379    c-0.109-0.027-0.225-0.041-0.34-0.041c-0.582,0-1.076,0.323-1.758,0.77c-0.722,0.473-1.745,1.144-3.313,1.734    c0.841-1.169,1.094-2.156,1.117-2.891c0.027-0.886-0.289-1.678-0.87-2.172c-2.341-1.995-3.63-4.666-3.63-7.521    C213,267.711,218.383,263,225,263z"/>
		<polygon points="233.568,281 232.5,277.785 231.43,281 228,281 230.768,283.079 229.717,286.344 232.5,284.336 235.278,286.344     234.23,283.079 237,281   "/>
	</g>
	
    </g>
</svg>
