<?xml version="1.0" encoding="iso-8859-1"?>
<!DOCTYPE svg PUBLIC "-//W3C//DTD SVG 1.1//EN" "http://www.w3.org/Graphics/SVG/1.1/DTD/svg11.dtd">
<svg version="1.1" xmlns="http://www.w3.org/2000/svg" xmlns:xlink="http://www.w3.org/1999/xlink" x="0px" y="0px" width="30" height="30" viewBox="0 0 30 30" xml:space="preserve">
    <g transform="translate(-330 -260)">
        <g xmlns="http://www.w3.org/2000/svg" xmlns:xlink="http://www.w3.org/1999/xlink" id="message-lock-7">
		<path d="M358,278.092c0-0.652-0.145-1.267-0.395-1.826c0.248-0.888,0.395-1.811,0.395-2.766c0-6.352-5.82-11.5-13-11.5    s-13,5.148-13,11.5c0,3.254,1.527,6.191,3.981,8.283C336.891,282.557,337,285,333,288c6-1,7.685-3.619,8.559-3.408    c1.096,0.266,2.25,0.408,3.441,0.408c0.682,0,1.347-0.061,2-0.15v5.242h13v-11h-2V278.092z M357,278.092v1h-7v-1    c0-1.93,1.57-3.5,3.5-3.5S357,276.162,357,278.092z M345,284c-1.088,0-2.167-0.128-3.207-0.379    c-0.109-0.027-0.225-0.041-0.34-0.041c-0.582,0-1.076,0.323-1.758,0.77c-0.722,0.473-1.745,1.144-3.313,1.734    c0.841-1.169,1.094-2.156,1.117-2.891c0.027-0.886-0.289-1.678-0.87-2.172c-2.341-1.995-3.63-4.666-3.63-7.521    c0-5.789,5.383-10.5,12-10.5s12,4.711,12,10.5c0,0.548-0.063,1.082-0.155,1.606c-0.824-0.922-2.011-1.515-3.345-1.515    c-2.485,0-4.5,2.015-4.5,4.5v1h-2v4.75C346.348,283.938,345.683,284,345,284z M359,280.092v9h-11v-9H359z"/>
		<path d="M353.5,282.092c-0.828,0-1.5,0.672-1.5,1.5c0,0.652,0.419,1.201,1,1.408v2.092h1V285c0.581-0.207,1-0.756,1-1.408    C355,282.764,354.328,282.092,353.5,282.092z"/>
	</g>
	
    </g>
</svg>
