<?xml version="1.0" encoding="iso-8859-1"?>
<!DOCTYPE svg PUBLIC "-//W3C//DTD SVG 1.1//EN" "http://www.w3.org/Graphics/SVG/1.1/DTD/svg11.dtd">
<svg version="1.1" xmlns="http://www.w3.org/2000/svg" xmlns:xlink="http://www.w3.org/1999/xlink" x="0px" y="0px" width="30" height="30" viewBox="0 0 30 30" xml:space="preserve">
    <g transform="translate(-510 -260)">
        <g xmlns="http://www.w3.org/2000/svg" xmlns:xlink="http://www.w3.org/1999/xlink" id="message-three-7">
		<path d="M512.727,283c3.638-0.727,4.196-1.986,4.81-1.806c0.776,0.228,1.604,0.352,2.464,0.352c0.723,0,1.42-0.095,2.087-0.259    c0.544,3.536,3.874,6.259,7.913,6.259c0.859,0,1.688-0.124,2.464-0.352c0.613-0.18,1.172,1.079,4.81,1.806    c-2.909-2.182-1.935-3.274-1.453-3.738c1.352-1.302,2.18-3.058,2.18-4.989c0-1.192-0.321-2.314-0.881-3.307    c0.053,0.011,0.101,0.023,0.154,0.034c-0.085-0.063-0.155-0.124-0.234-0.185c-0.43-0.722-0.996-1.365-1.658-1.914    c-0.319-0.845,0.147-1.358,0.439-1.639c1.352-1.302,2.18-3.058,2.18-4.989c0-4.018-3.581-7.273-8-7.273    c-4.039,0-7.369,2.723-7.913,6.259C521.421,267.095,520.724,267,520,267c-4.419,0-8,3.255-8,7.273c0,1.932,0.828,3.688,2.18,4.989    C514.661,279.726,515.636,280.818,512.727,283z M537,280.273c0,1.589-0.665,3.105-1.873,4.269    c-0.228,0.219-0.92,0.886-0.854,1.956c0.009,0.151,0.033,0.302,0.071,0.454c-0.203-0.112-0.372-0.215-0.517-0.304    c-0.412-0.253-0.768-0.472-1.244-0.472c-0.136,0-0.271,0.02-0.401,0.058c-0.703,0.207-1.438,0.311-2.183,0.311    c-3.586,0-6.548-2.431-6.95-5.55c2.905-1.09,4.95-3.688,4.95-6.722c0-0.003,0-0.006,0-0.009c0.634-0.17,1.305-0.264,2-0.264    C533.859,274,537,276.814,537,280.273z M530,262c3.859,0,7,2.814,7,6.273c0,1.589-0.665,3.105-1.873,4.269    c-0.2,0.193-0.761,0.735-0.846,1.594C533.043,273.42,531.577,273,530,273c-0.724,0-1.421,0.095-2.087,0.259    c-0.398-2.59-2.288-4.743-4.862-5.708C523.452,264.431,526.414,262,530,262z M520,268c3.859,0,7,2.814,7,6.273    c0,3.458-3.141,6.272-7,6.272c-0.745,0-1.479-0.104-2.182-0.311c-0.132-0.039-0.267-0.058-0.402-0.058    c-0.477,0-0.832,0.219-1.244,0.472c-0.145,0.089-0.313,0.192-0.517,0.304c0.038-0.152,0.063-0.303,0.071-0.454    c0.066-1.07-0.626-1.737-0.854-1.956c-1.208-1.164-1.873-2.68-1.873-4.269C513,270.814,516.141,268,520,268z"/>
	</g>
	
    </g>
</svg>
