<?xml version="1.0" encoding="iso-8859-1"?>
<!DOCTYPE svg PUBLIC "-//W3C//DTD SVG 1.1//EN" "http://www.w3.org/Graphics/SVG/1.1/DTD/svg11.dtd">
<svg version="1.1" xmlns="http://www.w3.org/2000/svg" xmlns:xlink="http://www.w3.org/1999/xlink" x="0px" y="0px" width="30" height="30" viewBox="0 0 30 30" xml:space="preserve">
    <g transform="translate(-150 -260)">
        <g xmlns="http://www.w3.org/2000/svg" xmlns:xlink="http://www.w3.org/1999/xlink" id="message-minus-7">
		<path d="M177.434,276.86c0.366-1.063,0.566-2.19,0.566-3.36c0-6.352-5.82-11.5-13-11.5s-13,5.148-13,11.5    c0,3.254,1.527,6.191,3.981,8.283C156.891,282.557,157,285,153,288c6-1,7.685-3.619,8.559-3.408    c1.096,0.266,2.25,0.408,3.441,0.408c0.145,0,0.285-0.015,0.429-0.019c1.025,2.921,3.8,5.019,7.071,5.019    c4.143,0,7.5-3.358,7.5-7.5C180,280.249,179.004,278.234,177.434,276.86z M165,284c-1.088,0-2.167-0.128-3.207-0.379    c-0.109-0.027-0.225-0.041-0.34-0.041c-0.582,0-1.076,0.323-1.758,0.77c-0.722,0.473-1.745,1.144-3.313,1.734    c0.841-1.169,1.094-2.156,1.117-2.891c0.027-0.886-0.289-1.678-0.87-2.172c-2.341-1.995-3.63-4.666-3.63-7.521    c0-5.789,5.383-10.5,12-10.5s12,4.711,12,10.5c0,0.939-0.154,1.845-0.42,2.711c-1.176-0.764-2.574-1.211-4.08-1.211    c-4.143,0-7.5,3.358-7.5,7.5c0,0.512,0.053,1.011,0.149,1.493C165.1,283.994,165.051,284,165,284z M172.5,289    c-3.59,0-6.5-2.91-6.5-6.5s2.91-6.5,6.5-6.5s6.5,2.91,6.5,6.5S176.09,289,172.5,289z"/>
		<rect x="168" y="282" width="9" height="1"/>
	</g>
	
    </g>
</svg>
