<?xml version="1.0" encoding="iso-8859-1"?>
<!DOCTYPE svg PUBLIC "-//W3C//DTD SVG 1.1//EN" "http://www.w3.org/Graphics/SVG/1.1/DTD/svg11.dtd">
<svg version="1.1" xmlns="http://www.w3.org/2000/svg" xmlns:xlink="http://www.w3.org/1999/xlink" x="0px" y="0px" width="30" height="30" viewBox="0 0 30 30" xml:space="preserve">
    <g transform="translate(-30 -260)">
        <g xmlns="http://www.w3.org/2000/svg" xmlns:xlink="http://www.w3.org/1999/xlink" id="message-7">
		<path d="M45,262c-7.18,0-13,5.148-13,11.5c0,3.254,1.527,6.191,3.981,8.283C36.891,282.557,37,285,33,288    c6-1,7.685-3.619,8.559-3.408C42.654,284.857,43.809,285,45,285c7.18,0,13-5.148,13-11.5S52.18,262,45,262z M45,284    c-1.088,0-2.167-0.128-3.207-0.379c-0.109-0.027-0.225-0.041-0.34-0.041c-0.582,0-1.076,0.323-1.758,0.77    c-0.722,0.473-1.745,1.144-3.313,1.734c0.841-1.169,1.094-2.156,1.117-2.891c0.027-0.886-0.289-1.678-0.87-2.172    c-2.341-1.995-3.63-4.666-3.63-7.521c0-5.789,5.383-10.5,12-10.5s12,4.711,12,10.5S51.617,284,45,284z"/>
	</g>
	
    </g>
</svg>
