<?xml version="1.0" encoding="iso-8859-1"?>
<!DOCTYPE svg PUBLIC "-//W3C//DTD SVG 1.1//EN" "http://www.w3.org/Graphics/SVG/1.1/DTD/svg11.dtd">
<svg version="1.1" xmlns="http://www.w3.org/2000/svg" xmlns:xlink="http://www.w3.org/1999/xlink" x="0px" y="0px" width="30" height="30" viewBox="0 0 30 30" xml:space="preserve">
    <g transform="translate(-330 -500)">
        <g xmlns="http://www.w3.org/2000/svg" xmlns:xlink="http://www.w3.org/1999/xlink" id="night-7">
		<path d="M345,502c-7.18,0-13,5.82-13,13s5.82,13,13,13s13-5.82,13-13S352.18,502,345,502z M345,527c-6.617,0-12-5.383-12-12    s5.383-12,12-12s12,5.383,12,12S351.617,527,345,527z"/>
		<path d="M342,513c0-2.076,1.056-3.905,2.658-4.982C340.953,508.197,338,511.25,338,515c0,3.865,3.135,7,7,7    c2.791,0,5.195-1.639,6.318-4.003C350.367,518.63,349.228,519,348,519C344.688,519,342,516.313,342,513z"/>
	</g>
	
    </g>
</svg>
