<?xml version="1.0" encoding="iso-8859-1"?>
<!DOCTYPE svg PUBLIC "-//W3C//DTD SVG 1.1//EN" "http://www.w3.org/Graphics/SVG/1.1/DTD/svg11.dtd">
<svg version="1.1" xmlns="http://www.w3.org/2000/svg" xmlns:xlink="http://www.w3.org/1999/xlink" x="0px" y="0px" width="30" height="30" viewBox="0 0 30 30" xml:space="preserve">
    <g transform="translate(-510 -320)">
        <g xmlns="http://www.w3.org/2000/svg" xmlns:xlink="http://www.w3.org/1999/xlink" id="orientation-lock-7">
		<path d="M525,329c-1.656,0-3,1.344-3,3v2h-1v6h8v-6h-1v-2C528,330.344,526.656,329,525,329z M527,334h-4v-2c0-1.103,0.897-2,2-2    s2,0.897,2,2V334z"/>
		<path d="M525,322c-7.18,0-13,5.82-13,13s5.82,13,13,13c3.59,0,6.84-1.455,9.192-3.808l-0.711-0.711    C531.309,345.654,528.309,347,525,347c-6.617,0-12-5.383-12-12s5.383-12,12-12s12,5.383,12,12h-2l2.5,3l2.5-3h-2    C538,327.82,532.18,322,525,322z"/>
	</g>
	
    </g>
</svg>
