<?xml version="1.0" encoding="iso-8859-1"?>
<!DOCTYPE svg PUBLIC "-//W3C//DTD SVG 1.1//EN" "http://www.w3.org/Graphics/SVG/1.1/DTD/svg11.dtd">
<svg version="1.1" xmlns="http://www.w3.org/2000/svg" xmlns:xlink="http://www.w3.org/1999/xlink" x="0px" y="0px" width="30" height="30" viewBox="0 0 30 30" xml:space="preserve">
    <g transform="translate(-210 -860)">
        <g xmlns="http://www.w3.org/2000/svg" xmlns:xlink="http://www.w3.org/1999/xlink" id="photo-abstract-7">
		<path d="M215.378,878.984c-1.273,1.38-1.099,3.68,0.43,5.208s3.827,1.702,5.206,0.429c0.075,1.876,1.824,3.379,3.986,3.379    s3.91-1.502,3.986-3.377c1.379,1.272,3.678,1.098,5.206-0.431s1.703-3.827,0.431-5.206C236.498,878.91,238,877.161,238,875    c0-2.162-1.503-3.911-3.377-3.986c1.271-1.379,1.097-3.679-0.431-5.206c-1.528-1.528-3.828-1.703-5.206-0.432    C228.909,863.501,227.161,862,225,862c-2.162,0-3.91,1.502-3.986,3.378c-1.379-1.273-3.678-1.099-5.206,0.43    s-1.703,3.827-0.43,5.206C213.502,871.09,212,872.838,212,875C212,877.161,213.502,878.91,215.378,878.984z M221,879.5v3.741    l-0.597,0.597c-0.976,0.977-2.719,0.816-3.889-0.353c-1.171-1.171-1.33-2.914-0.354-3.89l0.597-0.597L220.5,879    c0.193,0,0.38-0.03,0.564-0.065C221.03,879.12,221,879.307,221,879.5z M220.5,878h-2.743l1.939-1.94    c0.278-0.278,0.624-0.454,0.997-0.55c0.411,0.072,0.838,0.068,1.268-0.005c0.313,0.072,0.621,0.198,0.916,0.374    c-0.086,0.334-0.215,0.643-0.387,0.916c-0.353,0.25-0.656,0.547-0.894,0.887C221.264,877.879,220.896,878,220.5,878z     M223.962,874.57c0.11-0.092,0.227-0.173,0.331-0.277c0.104-0.104,0.186-0.22,0.277-0.331c0.143,0.014,0.282,0.038,0.43,0.038    s0.287-0.024,0.43-0.038c0.092,0.111,0.174,0.227,0.277,0.331c0.104,0.104,0.22,0.186,0.331,0.277    c-0.014,0.143-0.038,0.282-0.038,0.43s0.024,0.287,0.038,0.43c-0.111,0.092-0.227,0.173-0.331,0.277s-0.186,0.22-0.277,0.331    c-0.143-0.014-0.282-0.038-0.43-0.038s-0.287,0.024-0.43,0.038c-0.092-0.111-0.174-0.228-0.277-0.331    c-0.104-0.104-0.22-0.186-0.331-0.277c0.014-0.143,0.038-0.282,0.038-0.43S223.976,874.713,223.962,874.57z M225.51,870.692    c0.096-0.372,0.271-0.717,0.55-0.995l1.94-1.941v2.744c0,0.395-0.12,0.764-0.316,1.096c-0.342,0.238-0.639,0.543-0.891,0.896    c-0.272,0.171-0.58,0.3-0.914,0.386c-0.175-0.296-0.302-0.604-0.374-0.918C225.578,871.531,225.582,871.104,225.51,870.692z     M224.121,877.122c0.175,0.298,0.301,0.606,0.373,0.921c-0.072,0.427-0.076,0.852-0.004,1.26c-0.096,0.375-0.271,0.721-0.551,1    L222,882.242V879.5c0-0.395,0.12-0.764,0.316-1.096c0.342-0.238,0.639-0.543,0.89-0.896    C223.479,877.337,223.787,877.208,224.121,877.122z M228,884.5c0,1.379-1.346,2.5-3,2.5s-3-1.121-3-2.5v-0.845l2.646-2.646    c0.137-0.137,0.247-0.29,0.354-0.445c0.106,0.155,0.217,0.309,0.354,0.445l2.646,2.647V884.5z M228,882.242l-1.939-1.939    c-0.279-0.279-0.455-0.625-0.551-0.999c0.072-0.41,0.067-0.835-0.005-1.262c0.072-0.313,0.198-0.623,0.374-0.92    c0.334,0.086,0.643,0.216,0.916,0.387c0.25,0.353,0.547,0.656,0.888,0.895c0.196,0.332,0.317,0.701,0.317,1.097V882.242z     M227.508,876.794c-0.171-0.273-0.3-0.581-0.386-0.915c0.297-0.176,0.606-0.303,0.92-0.374c0.427,0.072,0.852,0.077,1.261,0.004    c0.375,0.097,0.721,0.272,1,0.552l1.939,1.939h-2.743c-0.395,0-0.763-0.121-1.095-0.317    C228.165,877.342,227.861,877.045,227.508,876.794z M233.485,883.485c-1.17,1.169-2.914,1.328-3.89,0.354L229,883.243V879.5    c0-0.193-0.03-0.381-0.065-0.566c0.185,0.035,0.371,0.066,0.564,0.066h3.743l0.597,0.596    C234.813,880.571,234.655,882.315,233.485,883.485z M237,875c-0.001,1.653-1.121,2.999-2.5,3h-0.843l-2.646-2.646    c-0.138-0.137-0.291-0.248-0.446-0.354c0.154-0.106,0.308-0.216,0.444-0.353l2.647-2.646h0.844    C235.879,872.001,237,873.345,237,875z M229,870.5v-3.744l0.596-0.596c0.976-0.975,2.719-0.816,3.89,0.354    c1.168,1.17,1.328,2.913,0.354,3.889L233.243,871H229.5c-0.193,0-0.38,0.029-0.564,0.064C228.97,870.88,229,870.693,229,870.5z     M229.499,872h2.743l-1.94,1.939c-0.279,0.279-0.625,0.455-0.999,0.551c-0.409-0.072-0.833-0.068-1.26,0.004    c-0.314-0.071-0.624-0.198-0.921-0.373c0.086-0.334,0.214-0.641,0.384-0.913c0.355-0.252,0.66-0.551,0.899-0.894    C228.737,872.119,229.105,872,229.499,872z M222,865.5c0-1.379,1.346-2.5,3-2.5s3,1.121,3,2.5v0.842l-2.647,2.646    c-0.137,0.137-0.247,0.291-0.353,0.445c-0.107-0.154-0.217-0.308-0.354-0.444L222,866.344V865.5z M222,867.758l1.939,1.938    c0.279,0.279,0.455,0.624,0.551,0.998c-0.073,0.411-0.068,0.836,0.004,1.265c-0.071,0.313-0.198,0.622-0.373,0.919    c-0.334-0.086-0.642-0.215-0.914-0.386c-0.252-0.354-0.549-0.659-0.892-0.897c-0.195-0.332-0.315-0.7-0.315-1.095V867.758z     M222.492,873.207c0.172,0.272,0.3,0.58,0.386,0.914c-0.297,0.175-0.606,0.301-0.92,0.373c-0.428-0.072-0.854-0.077-1.265-0.004    c-0.373-0.097-0.718-0.271-0.997-0.551L217.757,872h2.743c0.395,0,0.764,0.119,1.096,0.315    C221.834,872.658,222.139,872.955,222.492,873.207z M216.515,866.515c1.17-1.17,2.914-1.329,3.889-0.354l0.597,0.597v3.742    c0,0.193,0.03,0.379,0.064,0.564c-0.185-0.035-0.371-0.064-0.564-0.064h-3.742l-0.597-0.597    C215.186,869.429,215.345,867.685,216.515,866.515z M215.5,872h0.844l2.646,2.646c0.137,0.137,0.29,0.246,0.444,0.354    c-0.154,0.105-0.308,0.216-0.444,0.353L216.344,878H215.5c-1.38,0.001-2.5-1.346-2.5-3C213,873.345,214.12,871.999,215.5,872z"/>
	</g>
	
    </g>
</svg>
