<?xml version="1.0" encoding="iso-8859-1"?>
<!DOCTYPE svg PUBLIC "-//W3C//DTD SVG 1.1//EN" "http://www.w3.org/Graphics/SVG/1.1/DTD/svg11.dtd">
<svg version="1.1" xmlns="http://www.w3.org/2000/svg" xmlns:xlink="http://www.w3.org/1999/xlink" x="0px" y="0px" width="30" height="30" viewBox="0 0 30 30" xml:space="preserve">
    <g transform="translate(-390 -920)">
        <g xmlns="http://www.w3.org/2000/svg" xmlns:xlink="http://www.w3.org/1999/xlink" id="puzzle-piece-7">
		<path d="M415.941,935.318c1.902,0.791,2.059-0.951,2.059-2.538c0-1.583-0.792-4.913-0.792-4.913s-3.329,0.793-4.914,0.793    c-1.586,0-3.331-0.16-2.537-2.063c0.792-1.9,1.587-4.598-2.22-4.598c-3.805,0-3.011,2.697-2.219,4.598    c0.792,1.902-0.953,2.063-2.538,2.063c-1.587,0-4.915-0.793-4.915-0.793s0.793,3.33,0.793,4.913c0,1.587-0.158,3.329-2.061,2.538    c-1.902-0.793-4.598-1.586-4.598,2.219s2.695,3.013,4.598,2.219c1.902-0.793,2.061,0.951,2.061,2.537s-0.793,4.914-0.793,4.914    S401.193,948,402.78,948c1.585,0,3.33-0.158,2.538-2.059c-0.792-1.904-1.586-4.6,2.219-4.6c3.807,0,3.012,2.695,2.22,4.6    c-0.794,1.9,0.951,2.059,2.537,2.059c1.585,0,4.914-0.793,4.914-0.793s0.792-3.328,0.792-4.914s-0.156-3.33-2.059-2.537    c-1.904,0.794-4.598,1.586-4.598-2.219S414.037,934.525,415.941,935.318z M413.41,941.415c1.02,0,2.094-0.394,2.916-0.736    c0.262-0.108,0.401-0.12,0.45-0.12c0.056,0.051,0.224,0.37,0.224,1.734c0,0.995-0.377,2.931-0.628,4.078    c-1.147,0.252-3.085,0.629-4.078,0.629c-1.319,0-1.661-0.157-1.749-0.233c0.012-0.008,0.012-0.146,0.135-0.439    c0.597-1.435,1.165-3.251,0.266-4.599c-0.613-0.92-1.761-1.387-3.408-1.387c-1.646,0-2.793,0.467-3.407,1.387    c-0.899,1.348-0.33,3.165,0.266,4.597c0.144,0.347,0.118,0.477,0.118,0.478c-0.05,0.029-0.369,0.197-1.733,0.197    c-0.897,0-2.562-0.307-3.722-0.552c0.243-1.147,0.6-3.022,0.6-4.155c0-1.021,0-3.734-2.226-3.734c-0.377,0-0.776,0.09-1.22,0.274    c-0.599,0.25-1.473,0.582-2.146,0.582c-0.399,0-1.067,0-1.067-1.878c0-1.877,0.668-1.877,1.067-1.877    c0.672,0,1.547,0.331,2.146,0.581c0.443,0.185,0.842,0.274,1.219,0.274c2.227,0,2.227-2.714,2.227-3.735    c0-0.965-0.26-2.472-0.486-3.606c1.134,0.227,2.641,0.486,3.608,0.486c0.932,0,2.664,0,3.412-1.121    c0.416-0.623,0.433-1.406,0.049-2.326c-0.576-1.383-0.727-2.297-0.447-2.716c0.214-0.32,0.833-0.497,1.743-0.497    c0.911,0,1.531,0.177,1.745,0.497c0.278,0.419,0.128,1.333-0.448,2.716c-0.384,0.92-0.368,1.702,0.048,2.326    c0.747,1.121,2.48,1.121,3.412,1.121c1.133,0,3.007-0.356,4.155-0.6c0.244,1.16,0.551,2.825,0.551,3.72    c0,1.365-0.168,1.684-0.239,1.757c-0.034-0.021-0.174-0.033-0.436-0.143c-0.821-0.342-1.896-0.734-2.915-0.734    c-0.922,0-3.066,0.377-3.066,3.877S412.488,941.415,413.41,941.415z"/>
	</g>
	
    </g>
</svg>
