<?xml version="1.0" encoding="iso-8859-1"?>
<!DOCTYPE svg PUBLIC "-//W3C//DTD SVG 1.1//EN" "http://www.w3.org/Graphics/SVG/1.1/DTD/svg11.dtd">
<svg version="1.1" xmlns="http://www.w3.org/2000/svg" xmlns:xlink="http://www.w3.org/1999/xlink" x="0px" y="0px" width="29" height="30" viewBox="0 0 29 30" xml:space="preserve">
    <g transform="translate(-450 -860)">
        <g xmlns="http://www.w3.org/2000/svg" xmlns:xlink="http://www.w3.org/1999/xlink" id="receiver-7">
		<path d="M478,871.5c0-3.723-1.514-7.098-3.959-9.541l-0.706,0.706c2.263,2.264,3.665,5.389,3.665,8.835    c0,3.319-1.309,6.332-3.428,8.572l0.707,0.707C476.578,878.357,478,875.096,478,871.5z"/>
		<path d="M454.721,880.779l0.707-0.707c-2.119-2.24-3.428-5.253-3.428-8.572c0-3.446,1.402-6.571,3.665-8.835l-0.706-0.706    c-2.445,2.443-3.959,5.818-3.959,9.541C451,875.096,452.422,878.357,454.721,880.779z"/>
		<path d="M457.785,864.785c-1.72,1.721-2.785,4.096-2.785,6.715c0,2.492,0.973,4.756,2.548,6.452l0.706-0.706    c-1.395-1.516-2.254-3.529-2.254-5.746c0-2.344,0.953-4.469,2.492-6.008L457.785,864.785z"/>
		<path d="M471.215,864.785l-0.707,0.707c1.539,1.539,2.492,3.664,2.492,6.008c0,2.217-0.859,4.23-2.254,5.746l0.706,0.706    c1.575-1.696,2.548-3.96,2.548-6.452C474,868.881,472.935,866.506,471.215,864.785z"/>
		<path d="M468.625,875.125c0.854-0.969,1.375-2.236,1.375-3.625c0-1.516-0.617-2.891-1.613-3.887l-0.706,0.706    c0.814,0.815,1.319,1.94,1.319,3.181c0,1.113-0.422,2.12-1.094,2.906L468.625,875.125z"/>
		<path d="M460.613,867.613c-0.996,0.996-1.613,2.371-1.613,3.887c0,1.389,0.521,2.656,1.375,3.625l0.719-0.719    c-0.672-0.786-1.094-1.793-1.094-2.906c0-1.24,0.505-2.365,1.319-3.181L460.613,867.613z"/>
		<circle cx="464.5" cy="871.5" r="1.5"/>
		<rect x="464" y="874" width="1" height="13"/>
	</g>
	
    </g>
</svg>
