<?xml version="1.0" encoding="iso-8859-1"?>
<!DOCTYPE svg PUBLIC "-//W3C//DTD SVG 1.1//EN" "http://www.w3.org/Graphics/SVG/1.1/DTD/svg11.dtd">
<svg version="1.1" xmlns="http://www.w3.org/2000/svg" xmlns:xlink="http://www.w3.org/1999/xlink" x="0px" y="0px" width="30" height="30" viewBox="0 0 30 30" xml:space="preserve">
    <g transform="translate(-390 -200)">
        <g xmlns="http://www.w3.org/2000/svg" xmlns:xlink="http://www.w3.org/1999/xlink" id="recorder-7">
		<path d="M398,221h14c3.313,0,6-2.686,6-6s-2.688-6-6-6s-6,2.686-6,6c0,2.088,1.068,3.926,2.687,5h-7.373    c1.618-1.074,2.687-2.912,2.687-5c0-3.314-2.688-6-6-6s-6,2.686-6,6S394.688,221,398,221z M407,215c0-2.757,2.243-5,5-5    s5,2.243,5,5s-2.243,5-5,5S407,217.757,407,215z M398,210c2.757,0,5,2.243,5,5s-2.243,5-5,5s-5-2.243-5-5S395.243,210,398,210z"/>
	</g>
	
    </g>
</svg>
