<?xml version="1.0" encoding="iso-8859-1"?>
<!DOCTYPE svg PUBLIC "-//W3C//DTD SVG 1.1//EN" "http://www.w3.org/Graphics/SVG/1.1/DTD/svg11.dtd">
<svg version="1.1" xmlns="http://www.w3.org/2000/svg" xmlns:xlink="http://www.w3.org/1999/xlink" x="0px" y="0px" width="30" height="30" viewBox="0 0 30 30" xml:space="preserve">
    <g transform="translate(-150 -140)">
        <g xmlns="http://www.w3.org/2000/svg" xmlns:xlink="http://www.w3.org/1999/xlink" id="rss-7">
		<path d="M156,147v1c8.822,0,16,7.178,16,15.999h1C173,154.625,165.374,147,156,147z"/>
		<path d="M156,153v1c5.514,0,10,4.486,10,9.999h1C167,157.936,162.065,153,156,153z"/>
		<path d="M158,160c-1.104,0-2,0.896-2,2c0,1.104,0.896,2,2,2c1.104,0,2-0.896,2-2C160,160.896,159.104,160,158,160z M158,163    c-0.552,0-1-0.448-1-1s0.448-1,1-1s1,0.448,1,1S158.552,163,158,163z"/>
		<path d="M175,143h-20c-1.104,0-2,0.896-2,2v20c0,1.104,0.896,2,2,2h20c1.104,0,2-0.896,2-2v-20C177,143.896,176.104,143,175,143z     M176,165c0,0.552-0.448,1-1,1h-20c-0.552,0-1-0.448-1-1v-20c0-0.552,0.448-1,1-1h20c0.552,0,1,0.448,1,1V165z"/>
	</g>
	
    </g>
</svg>
