<?xml version="1.0" encoding="iso-8859-1"?>
<!DOCTYPE svg PUBLIC "-//W3C//DTD SVG 1.1//EN" "http://www.w3.org/Graphics/SVG/1.1/DTD/svg11.dtd">
<svg version="1.1" xmlns="http://www.w3.org/2000/svg" xmlns:xlink="http://www.w3.org/1999/xlink" x="0px" y="0px" width="30" height="30" viewBox="0 0 30 30" xml:space="preserve">
    <g transform="translate(-450 -920)">
        <g xmlns="http://www.w3.org/2000/svg" xmlns:xlink="http://www.w3.org/1999/xlink" id="sand-clock-7">
		<path d="M469,931c0.165-0.165,0.32-0.321,0.472-0.476c1.52-1.541,2.353-2.633,2.501-5.524H473v-2h-16v2h1.027    c0.148,2.892,0.981,3.983,2.501,5.524c0.151,0.154,0.307,0.311,0.472,0.476c0.22,0.22,0.406,0.439,0.58,0.656    c1.41,1.758,1.42,3.341,1.42,3.344c0,0.002-0.009,1.586-1.418,3.344c-0.175,0.217-0.361,0.437-0.581,0.656    c-0.165,0.165-0.32,0.321-0.473,0.476c-1.519,1.54-2.353,2.633-2.501,5.524H457v1.999h16V945h-1.027    c-0.148-2.892-0.981-3.984-2.5-5.524c-0.152-0.154-0.308-0.311-0.473-0.476c-0.22-0.22-0.406-0.438-0.58-0.656    c-1.41-1.759-1.419-3.345-1.419-3.345s0.011-1.587,1.419-3.343C468.594,931.438,468.78,931.22,469,931z M467.903,939.266    c0.129,0.147,0.242,0.294,0.39,0.441c1.723,1.722,2.536,2.535,2.683,5.293h-11.951c0.146-2.757,0.961-3.57,2.684-5.293    c0.147-0.147,0.261-0.294,0.39-0.441c1.282-0.243,2.479-0.605,2.902-0.74C465.424,938.66,466.621,939.023,467.903,939.266z     M466.987,938.042c-1.021-0.25-1.813-0.512-1.829-0.517L465,937.473l-0.158,0.053c-0.016,0.005-0.807,0.267-1.828,0.518    c0.971-1.625,0.986-2.969,0.986-3.043s-0.016-1.417-0.987-3.042c1.021,0.25,1.813,0.512,1.829,0.517l0.158,0.053l0.158-0.053    c0.016-0.005,0.808-0.267,1.83-0.518c-0.97,1.624-0.987,2.967-0.987,3.041S466.016,936.416,466.987,938.042z M467.903,930.734    c-1.282,0.242-2.479,0.605-2.903,0.74c-0.424-0.135-1.621-0.498-2.903-0.74c-0.129-0.147-0.242-0.294-0.39-0.441    c-1.723-1.723-2.536-2.537-2.683-5.293h11.951c-0.146,2.756-0.96,3.57-2.683,5.293    C468.146,930.44,468.032,930.587,467.903,930.734z"/>
	</g>
	
    </g>
</svg>
