<?xml version="1.0" encoding="iso-8859-1"?>
<!DOCTYPE svg PUBLIC "-//W3C//DTD SVG 1.1//EN" "http://www.w3.org/Graphics/SVG/1.1/DTD/svg11.dtd">
<svg version="1.1" xmlns="http://www.w3.org/2000/svg" xmlns:xlink="http://www.w3.org/1999/xlink" x="0px" y="0px" width="30" height="30" viewBox="0 0 30 30" xml:space="preserve">
    <g transform="translate(-210 -80)">
        <g xmlns="http://www.w3.org/2000/svg" xmlns:xlink="http://www.w3.org/1999/xlink" id="search-7">
		<path d="M222,102c2.401,0,4.604-0.848,6.327-2.258l9.229,9.229l1.414-1.414l-9.229-9.229C231.152,96.604,232,94.401,232,92    c0-5.523-4.477-10-10-10s-10,4.477-10,10S216.477,102,222,102z M222,83c4.963,0,9,4.037,9,9s-4.037,9-9,9s-9-4.037-9-9    S217.037,83,222,83z"/>
	</g>
	
    </g>
</svg>
