<?xml version="1.0" encoding="iso-8859-1"?>
<!DOCTYPE svg PUBLIC "-//W3C//DTD SVG 1.1//EN" "http://www.w3.org/Graphics/SVG/1.1/DTD/svg11.dtd">
<svg version="1.1" xmlns="http://www.w3.org/2000/svg" xmlns:xlink="http://www.w3.org/1999/xlink" x="0px" y="0px" width="30" height="30" viewBox="0 0 30 30" xml:space="preserve">
    <g transform="translate(-270 -80)">
        <g xmlns="http://www.w3.org/2000/svg" xmlns:xlink="http://www.w3.org/1999/xlink" id="search-detail-7">
		<path d="M282,102c2.401,0,4.604-0.848,6.327-2.258l9.229,9.229l1.414-1.414l-9.229-9.229C291.152,96.604,292,94.401,292,92    c0-5.523-4.477-10-10-10s-10,4.477-10,10S276.477,102,282,102z M282,83c4.963,0,9,4.037,9,9s-4.037,9-9,9s-9-4.037-9-9    S277.037,83,282,83z"/>
		<rect x="277" y="91" width="2" height="2"/>
		<rect x="285" y="91" width="2" height="2"/>
		<rect x="281" y="91" width="2" height="2"/>
	</g>
	
    </g>
</svg>
