<?xml version="1.0" encoding="iso-8859-1"?>
<!DOCTYPE svg PUBLIC "-//W3C//DTD SVG 1.1//EN" "http://www.w3.org/Graphics/SVG/1.1/DTD/svg11.dtd">
<svg version="1.1" xmlns="http://www.w3.org/2000/svg" xmlns:xlink="http://www.w3.org/1999/xlink" x="0px" y="0px" width="29" height="30" viewBox="0 0 29 30" xml:space="preserve">
    <g transform="translate(-570 -380)">
        <path xmlns="http://www.w3.org/2000/svg" xmlns:xlink="http://www.w3.org/1999/xlink" id="share-connectivity-7" d="M575.5,407c1.762,0,3.205-1.306,3.449-3H584h1v-1v-5.051c1.694-0.244,3-1.688,3-3.449   s-1.306-3.205-3-3.449V386h5.051c0.244,1.694,1.688,3,3.449,3c1.934,0,3.5-1.566,3.5-3.5s-1.566-3.5-3.5-3.5   c-1.762,0-3.205,1.306-3.449,3H585h-1v1v5.051c-1.694,0.244-3,1.688-3,3.449s1.306,3.205,3,3.449V403h-5.051   c-0.244-1.694-1.688-3-3.449-3c-1.934,0-3.5,1.566-3.5,3.5S573.566,407,575.5,407z M593.5,383c1.379,0,2.5,1.121,2.5,2.5   s-1.121,2.5-2.5,2.5s-2.5-1.121-2.5-2.5S592.121,383,593.5,383z M582,394.5c0-1.379,1.121-2.5,2.5-2.5s2.5,1.121,2.5,2.5   s-1.121,2.5-2.5,2.5S582,395.879,582,394.5z M575.5,401c1.379,0,2.5,1.121,2.5,2.5s-1.121,2.5-2.5,2.5s-2.5-1.121-2.5-2.5   S574.121,401,575.5,401z"/>
	
    </g>
</svg>
