<?xml version="1.0" encoding="iso-8859-1"?>
<!DOCTYPE svg PUBLIC "-//W3C//DTD SVG 1.1//EN" "http://www.w3.org/Graphics/SVG/1.1/DTD/svg11.dtd">
<svg version="1.1" xmlns="http://www.w3.org/2000/svg" xmlns:xlink="http://www.w3.org/1999/xlink" x="0px" y="0px" width="30" height="30" viewBox="0 0 30 30" xml:space="preserve">
    <g transform="translate(-450 -380)">
        <g xmlns="http://www.w3.org/2000/svg" xmlns:xlink="http://www.w3.org/1999/xlink" id="share-7">
		<path d="M453,395c0,2.209,1.79,4,4,4c1.307,0,2.455-0.635,3.186-1.604l7.121,4.069C467.11,401.938,467,402.456,467,403    c0,2.209,1.79,4,4,4c2.209,0,4-1.791,4-4s-1.791-4-4-4c-1.307,0-2.455,0.635-3.186,1.604l-7.121-4.069    c0.196-0.473,0.307-0.99,0.307-1.534s-0.11-1.062-0.307-1.534l7.121-4.069c0.73,0.969,1.879,1.604,3.186,1.604    c2.209,0,4-1.791,4-4s-1.791-4-4-4c-2.21,0-4,1.791-4,4c0,0.544,0.11,1.062,0.307,1.534l-7.121,4.069    c-0.73-0.969-1.879-1.604-3.186-1.604C454.79,391,453,392.791,453,395z M471,400c1.654,0,3,1.346,3,3s-1.346,3-3,3s-3-1.346-3-3    S469.346,400,471,400z M471,384c1.654,0,3,1.346,3,3s-1.346,3-3,3s-3-1.346-3-3S469.346,384,471,384z M460,395    c0,1.654-1.346,3-3,3s-3-1.346-3-3s1.346-3,3-3S460,393.346,460,395z"/>
	</g>
	
    </g>
</svg>
