<?xml version="1.0" encoding="iso-8859-1"?>
<!DOCTYPE svg PUBLIC "-//W3C//DTD SVG 1.1//EN" "http://www.w3.org/Graphics/SVG/1.1/DTD/svg11.dtd">
<svg version="1.1" xmlns="http://www.w3.org/2000/svg" xmlns:xlink="http://www.w3.org/1999/xlink" x="0px" y="0px" width="30" height="30" viewBox="0 0 30 30" xml:space="preserve">
    <g transform="translate(-570 -80)">
        <g xmlns="http://www.w3.org/2000/svg" xmlns:xlink="http://www.w3.org/1999/xlink" id="star-circle-7">
		<polygon points="578.975,104 585,99.425 591.025,104 588.749,96.561 594.75,92 587.318,92 585,84.5 582.683,92 575.25,92     581.25,96.561   "/>
		<path d="M585,108c7.18,0,13-5.82,13-13s-5.82-13-13-13s-13,5.82-13,13S577.82,108,585,108z M585,83c6.617,0,12,5.383,12,12    s-5.383,12-12,12s-12-5.383-12-12S578.383,83,585,83z"/>
	</g>
	
    </g>
</svg>
