<?xml version="1.0" encoding="iso-8859-1"?>
<!DOCTYPE svg PUBLIC "-//W3C//DTD SVG 1.1//EN" "http://www.w3.org/Graphics/SVG/1.1/DTD/svg11.dtd">
<svg version="1.1" xmlns="http://www.w3.org/2000/svg" xmlns:xlink="http://www.w3.org/1999/xlink" x="0px" y="0px" width="30" height="30" viewBox="0 0 30 30" xml:space="preserve">
    <g transform="translate(-30 -380)">
        <g xmlns="http://www.w3.org/2000/svg" xmlns:xlink="http://www.w3.org/1999/xlink" id="tag-7">
		<path d="M58,382h-9.899l-16.264,16.264l9.9,9.899L58,391.899V382z M57,391.485l-15.263,15.264l-8.486-8.485L48.515,383H57V391.485    z"/>
		<path d="M53,389c1.104,0,2-0.896,2-2s-0.896-2-2-2c-1.104,0-2,0.896-2,2S51.896,389,53,389z M53,386c0.553,0,1,0.447,1,1    s-0.447,1-1,1s-1-0.447-1-1S52.447,386,53,386z"/>
	</g>
	
    </g>
</svg>
