<?xml version="1.0" encoding="iso-8859-1"?>
<!DOCTYPE svg PUBLIC "-//W3C//DTD SVG 1.1//EN" "http://www.w3.org/Graphics/SVG/1.1/DTD/svg11.dtd">
<svg version="1.1" xmlns="http://www.w3.org/2000/svg" xmlns:xlink="http://www.w3.org/1999/xlink" x="0px" y="0px" width="30" height="30" viewBox="0 0 30 30" xml:space="preserve">
    <g transform="translate(-90 -380)">
        <g xmlns="http://www.w3.org/2000/svg" xmlns:xlink="http://www.w3.org/1999/xlink" id="tag-plus-7">
		<path d="M113,389c1.104,0,2-0.896,2-2s-0.896-2-2-2c-1.104,0-2,0.896-2,2S111.896,389,113,389z M113,386c0.553,0,1,0.447,1,1    s-0.447,1-1,1s-1-0.447-1-1S112.447,386,113,386z"/>
		<path d="M114.597,395.303l3.403-3.403V382h-9.899l-16.264,16.264l9.9,9.899l3.565-3.566c0.908,3.121,3.783,5.403,7.197,5.403    c4.143,0,7.5-3.357,7.5-7.5C120,399.086,117.718,396.21,114.597,395.303z M101.737,406.749l-8.486-8.485L108.515,383H117v8.485    l-3.577,3.577c-0.303-0.037-0.61-0.063-0.923-0.063c-4.143,0-7.5,3.357-7.5,7.5c0,0.313,0.025,0.62,0.063,0.923L101.737,406.749z     M112.5,409c-3.59,0-6.5-2.91-6.5-6.5s2.91-6.5,6.5-6.5s6.5,2.91,6.5,6.5S116.09,409,112.5,409z"/>
		<polygon points="113,398 112,398 112,402 108,402 108,403 112,403 112,407 113,407 113,403 117,403 117,402 113,402   "/>
	</g>
	
    </g>
</svg>
