<?xml version="1.0" encoding="iso-8859-1"?>
<!DOCTYPE svg PUBLIC "-//W3C//DTD SVG 1.1//EN" "http://www.w3.org/Graphics/SVG/1.1/DTD/svg11.dtd">
<svg version="1.1" xmlns="http://www.w3.org/2000/svg" xmlns:xlink="http://www.w3.org/1999/xlink" x="0px" y="0px" width="30" height="30" viewBox="0 0 30 30" xml:space="preserve">
    <g transform="translate(-270 -380)">
        <g xmlns="http://www.w3.org/2000/svg" xmlns:xlink="http://www.w3.org/1999/xlink" id="tag-tick-7">
		<path d="M293,389c1.104,0,2-0.896,2-2s-0.896-2-2-2c-1.104,0-2,0.896-2,2S291.896,389,293,389z M293,386c0.553,0,1,0.447,1,1    s-0.447,1-1,1s-1-0.447-1-1S292.447,386,293,386z"/>
		<path d="M294.597,395.303l3.403-3.403V382h-9.899l-16.264,16.264l9.9,9.899l3.565-3.566c0.908,3.121,3.783,5.403,7.197,5.403    c4.143,0,7.5-3.357,7.5-7.5C300,399.086,297.718,396.21,294.597,395.303z M281.737,406.749l-8.486-8.485L288.515,383H297v8.485    l-3.577,3.577c-0.303-0.037-0.61-0.063-0.923-0.063c-4.143,0-7.5,3.357-7.5,7.5c0,0.313,0.025,0.62,0.063,0.923L281.737,406.749z     M292.5,409c-3.59,0-6.5-2.91-6.5-6.5s2.91-6.5,6.5-6.5s6.5,2.91,6.5,6.5S296.09,409,292.5,409z"/>
		<polygon points="291.086,404.268 288.965,402.146 288.258,402.854 291.086,405.682 296.742,400.025 296.035,399.318   "/>
	</g>
	
    </g>
</svg>
