<?xml version="1.0" encoding="iso-8859-1"?>
<!DOCTYPE svg PUBLIC "-//W3C//DTD SVG 1.1//EN" "http://www.w3.org/Graphics/SVG/1.1/DTD/svg11.dtd">
<svg version="1.1" xmlns="http://www.w3.org/2000/svg" xmlns:xlink="http://www.w3.org/1999/xlink" x="0px" y="0px" width="30" height="30" viewBox="0 0 30 30" xml:space="preserve">
    <g transform="translate(-30 -200)">
        <g xmlns="http://www.w3.org/2000/svg" xmlns:xlink="http://www.w3.org/1999/xlink" id="telephone-circle-7">
		<path d="M49.001,208.5c-3.502,0.001-6.565,3.064-6.565,3.064c-0.24,0.24-0.632,0.634-0.875,0.873c0,0-3.061,3.063-3.061,6.563    c0,2.106,1.356,2.941,2.442,3.275c0.717,0.22,1.315,0.225,1.315,0.225c0.338,0,0.706-0.264,0.813-0.587l0.922-2.764    c0.108-0.322-0.074-0.654-0.404-0.736c0,0-0.506-0.129-1.029-0.339c-0.734-0.294-1.435-1.699,1.19-4.324    c2.628-2.625,4.032-1.926,4.325-1.191c0.211,0.523,0.339,1.029,0.339,1.029c0.081,0.33,0.412,0.512,0.735,0.403l2.765-0.92    c0.322-0.108,0.587-0.475,0.587-0.814c0,0-0.004-0.598-0.224-1.313C51.941,209.86,51.107,208.5,49.001,208.5z"/>
		<path d="M45,202c-7.18,0-13,5.82-13,13s5.82,13,13,13s13-5.82,13-13S52.18,202,45,202z M45,227c-6.616,0-12-5.383-12-12    s5.383-12,12-12s12,5.383,12,12S51.617,227,45,227z"/>
	</g>
	
    </g>
</svg>
