<?xml version="1.0" encoding="iso-8859-1"?>
<!DOCTYPE svg PUBLIC "-//W3C//DTD SVG 1.1//EN" "http://www.w3.org/Graphics/SVG/1.1/DTD/svg11.dtd">
<svg version="1.1" xmlns="http://www.w3.org/2000/svg" xmlns:xlink="http://www.w3.org/1999/xlink" x="0px" y="0px" width="30" height="30" viewBox="0 0 30 30" xml:space="preserve">
    <g transform="translate(-150 -200)">
        <g xmlns="http://www.w3.org/2000/svg" xmlns:xlink="http://www.w3.org/1999/xlink" id="telephone-circle-off-7">
		<path d="M160.942,222.276c0.717,0.22,1.315,0.225,1.315,0.225c0.338,0,0.706-0.264,0.813-0.587l0.922-2.764    c0.108-0.322-0.074-0.654-0.404-0.736c0,0-0.506-0.129-1.029-0.339c-0.662-0.265-1.287-1.436,0.516-3.586l-1.771-1.772    c-0.735,0.826-2.803,3.405-2.803,6.285C158.5,221.107,159.856,221.942,160.942,222.276z"/>
		<path d="M165,227c-6.616,0-12-5.383-12-12c0-2.949,1.074-5.649,2.846-7.741l-0.711-0.71c-1.95,2.273-3.135,5.222-3.135,8.451    c0,7.18,5.82,13,13,13c3.23,0,6.178-1.185,8.451-3.135l-0.711-0.71C170.649,225.926,167.949,227,165,227z"/>
		<path d="M177.729,227.728l0.707-0.707l-3.57-3.57c1.95-2.273,3.135-5.222,3.135-8.451c0-7.18-5.82-13-13-13    c-3.23,0-6.178,1.185-8.451,3.135l-3.57-3.57l-0.707,0.707L177.729,227.728z M165,203c6.617,0,12,5.383,12,12    c0,2.949-1.074,5.649-2.846,7.741l-9.665-9.666c2.151-1.802,3.321-1.177,3.585-0.516c0.211,0.523,0.339,1.029,0.339,1.029    c0.081,0.33,0.412,0.512,0.735,0.403l2.765-0.92c0.322-0.108,0.587-0.475,0.587-0.814c0,0-0.004-0.598-0.224-1.313    c-0.335-1.084-1.169-2.444-3.275-2.444c-2.877,0.001-5.454,2.065-6.284,2.803l-5.457-5.458C159.351,204.074,162.051,203,165,203z"/>
	</g>
	
    </g>
</svg>
