<?xml version="1.0" encoding="iso-8859-1"?>
<!DOCTYPE svg PUBLIC "-//W3C//DTD SVG 1.1//EN" "http://www.w3.org/Graphics/SVG/1.1/DTD/svg11.dtd">
<svg version="1.1" xmlns="http://www.w3.org/2000/svg" xmlns:xlink="http://www.w3.org/1999/xlink" x="0px" y="0px" width="30" height="30" viewBox="0 0 30 30" xml:space="preserve">
    <g transform="translate(-210 -200)">
        <g xmlns="http://www.w3.org/2000/svg" xmlns:xlink="http://www.w3.org/1999/xlink" id="telephone-7">
		<path d="M213,208.999c0.002,6.003,5.253,11.255,5.253,11.255c0.411,0.412,1.087,1.083,1.497,1.5c0,0,5.249,5.247,11.25,5.247    c3.611,0,5.042-2.325,5.615-4.187c0.376-1.229,0.385-2.255,0.385-2.255c0-0.579-0.452-1.21-1.006-1.393l-4.737-1.58    c-0.553-0.186-1.122,0.127-1.263,0.693c0,0-0.221,0.867-0.58,1.765c-0.504,1.259-2.913,2.459-7.413-2.041    c-4.5-4.505-3.302-6.912-2.042-7.415c0.896-0.361,1.764-0.581,1.764-0.581c0.566-0.139,0.877-0.707,0.691-1.261l-1.576-4.739    c-0.187-0.553-0.814-1.006-1.396-1.006c0,0-1.024,0.007-2.251,0.383C215.332,203.958,213,205.387,213,208.999z M217.485,204.339    c1.057-0.324,1.956-0.339,1.966-0.339c0.143,0,0.39,0.18,0.439,0.326l1.574,4.735c0,0-0.002,0-0.004,0    c-0.076,0-0.956,0.228-1.876,0.599c-0.862,0.344-1.5,1.139-1.703,2.125c-0.273,1.327,0.096,3.605,3.412,6.924    c2.313,2.313,4.393,3.485,6.183,3.485c1.588,0,2.521-0.919,2.866-1.779c0.379-0.948,0.61-1.852,0.62-1.89l4.715,1.589    c0.144,0.047,0.322,0.296,0.322,0.444c0,0-0.017,0.902-0.341,1.962C234.948,224.829,233.381,226,231,226    c-5.523,0-10.493-4.904-10.543-4.954c-0.287-0.292-1.496-1.5-1.496-1.5c-0.05-0.05-4.959-5.042-4.961-10.549    C214,206.621,215.173,205.053,217.485,204.339z"/>
	</g>
	
    </g>
</svg>
