<?xml version="1.0" encoding="iso-8859-1"?>
<!DOCTYPE svg PUBLIC "-//W3C//DTD SVG 1.1//EN" "http://www.w3.org/Graphics/SVG/1.1/DTD/svg11.dtd">
<svg version="1.1" xmlns="http://www.w3.org/2000/svg" xmlns:xlink="http://www.w3.org/1999/xlink" x="0px" y="0px" width="30" height="30" viewBox="0 0 30 30" xml:space="preserve">
    <g transform="translate(-90 -200)">
        <g xmlns="http://www.w3.org/2000/svg" xmlns:xlink="http://www.w3.org/1999/xlink" id="telephone-circle-tick-7">
		<path d="M108.074,212.56c0.211,0.523,0.339,1.029,0.339,1.029c0.081,0.33,0.412,0.512,0.735,0.403l2.765-0.92    c0.322-0.108,0.587-0.475,0.587-0.814c0,0-0.004-0.598-0.224-1.313c-0.335-1.084-1.169-2.444-3.275-2.444    c-3.502,0.001-6.565,3.064-6.565,3.064c-0.24,0.24-0.632,0.634-0.875,0.873c0,0-3.061,3.063-3.061,6.563    c0,2.106,1.356,2.941,2.442,3.275c0.717,0.22,1.315,0.225,1.315,0.225c0.338,0,0.706-0.264,0.813-0.587l0.922-2.764    c0.108-0.322-0.074-0.654-0.404-0.736c0,0-0.506-0.129-1.029-0.339c-0.734-0.294-1.435-1.699,1.19-4.324    C106.377,211.126,107.781,211.825,108.074,212.56z"/>
		<path d="M117.801,217.194C117.923,216.479,118,215.75,118,215c0-7.18-5.82-13-13-13s-13,5.82-13,13s5.82,13,13,13    c0.75,0,1.479-0.077,2.194-0.199c1.357,1.358,3.233,2.199,5.306,2.199c4.143,0,7.5-3.358,7.5-7.5    C120,220.428,119.16,218.552,117.801,217.194z M105,227c-6.616,0-12-5.383-12-12s5.383-12,12-12s12,5.383,12,12    c0,0.488-0.038,0.966-0.095,1.439c-1.237-0.901-2.757-1.439-4.405-1.439c-4.143,0-7.5,3.358-7.5,7.5    c0,1.648,0.538,3.167,1.439,4.405C105.967,226.962,105.488,227,105,227z M112.5,229c-3.59,0-6.5-2.91-6.5-6.5s2.91-6.5,6.5-6.5    s6.5,2.91,6.5,6.5S116.09,229,112.5,229z"/>
		<polygon points="116.742,220.025 116.035,219.318 111.086,224.268 108.965,222.146 108.258,222.854 111.086,225.682   "/>
	</g>
	
    </g>
</svg>
