<?xml version="1.0" encoding="iso-8859-1"?>
<!DOCTYPE svg PUBLIC "-//W3C//DTD SVG 1.1//EN" "http://www.w3.org/Graphics/SVG/1.1/DTD/svg11.dtd">
<svg version="1.1" xmlns="http://www.w3.org/2000/svg" xmlns:xlink="http://www.w3.org/1999/xlink" x="0px" y="0px" width="30" height="30" viewBox="0 0 30 30" xml:space="preserve">
    <g transform="translate(-570 -260)">
        <g xmlns="http://www.w3.org/2000/svg" xmlns:xlink="http://www.w3.org/1999/xlink" id="thinking-7">
		<path d="M576.5,280c0.912,0,1.759-0.275,2.468-0.742c0.823,1.053,2.092,1.742,3.532,1.742c1.055,0,2.013-0.378,2.78-0.986    c0.623,1.737,2.269,2.986,4.22,2.986c2.348,0,4.252-1.804,4.459-4.097c2.303-0.448,4.041-2.47,4.041-4.903    c0-2.084-1.276-3.867-3.089-4.618c0.057-0.285,0.089-0.58,0.089-0.882c0-2.485-2.015-4.5-4.5-4.5c-0.171,0-0.332,0.032-0.498,0.05    c-1.15-1.83-3.181-3.05-5.502-3.05c-2.704,0-5.021,1.651-6,4c-2.485,0-4.5,2.015-4.5,4.5c0,0.721,0.186,1.392,0.486,1.996    c-1.469,0.741-2.486,2.247-2.486,4.004C572,277.985,574.015,280,576.5,280z M574.937,272.389l0.889-0.448l-0.443-0.891    c-0.254-0.508-0.382-1.03-0.382-1.55c0-1.93,1.57-3.5,3.5-3.5h0.666l0.257-0.615c0.857-2.056,2.851-3.385,5.077-3.385    c1.898,0,3.639,0.965,4.655,2.583l0.334,0.531l0.794-0.091c0.071-0.01,0.143-0.022,0.217-0.022c1.93,0,3.5,1.57,3.5,3.5    c0,0.223-0.023,0.454-0.069,0.687l-0.16,0.805l0.758,0.314C596.03,270.928,597,272.378,597,274c0,1.908-1.359,3.558-3.231,3.922    l-0.738,0.143l-0.067,0.749c-0.164,1.816-1.652,3.187-3.463,3.187c-1.462,0-2.78-0.934-3.278-2.324l-0.471-1.312l-1.092,0.866    c-0.636,0.504-1.382,0.77-2.159,0.77c-1.069,0-2.069-0.495-2.744-1.358l-0.568-0.726l-0.77,0.507    C577.844,278.8,577.181,279,576.5,279c-1.93,0-3.5-1.57-3.5-3.5C573,274.184,573.742,272.991,574.937,272.389z"/>
		<path d="M584,284.5c0-1.381-1.119-2.5-2.5-2.5s-2.5,1.119-2.5,2.5s1.119,2.5,2.5,2.5S584,285.881,584,284.5z M580,284.5    c0-0.827,0.673-1.5,1.5-1.5s1.5,0.673,1.5,1.5s-0.673,1.5-1.5,1.5S580,285.327,580,284.5z"/>
		<circle cx="576.5" cy="286.5" r="1.5"/>
	</g>
	
    </g>
</svg>
