<?xml version="1.0" encoding="iso-8859-1"?>
<!DOCTYPE svg PUBLIC "-//W3C//DTD SVG 1.1//EN" "http://www.w3.org/Graphics/SVG/1.1/DTD/svg11.dtd">
<svg version="1.1" xmlns="http://www.w3.org/2000/svg" xmlns:xlink="http://www.w3.org/1999/xlink" x="0px" y="0px" width="30" height="30" viewBox="0 0 30 30" xml:space="preserve">
    <g transform="translate(-90 -140)">
        <g xmlns="http://www.w3.org/2000/svg" xmlns:xlink="http://www.w3.org/1999/xlink" id="thumb-down-7">
		<path d="M112,157h3c1.1,0,2-0.9,2-2v-8c0-1.1-0.9-2-2-2h-8.572c-0.55,0-1.262,0.366-1.581,0.814l-0.266,0.371    C104.262,146.634,103.55,147,103,147h-2c0-0.55-0.45-1-1-1h-6c-0.55,0-1,0.45-1,1v9c0,0.55,0.45,1,1,1h6c0.55,0,1-0.45,1-1v-1h1    c0.55,0,1.216,0.395,1.479,0.878l5.043,9.244C108.784,165.604,109.45,166,110,166h1c0.55,0,0.95-0.447,0.89-0.994l-0.779-7.012    C111.05,157.447,111.45,157,112,157z M100,155v1h-6v-9h6V155z M110.581,156.625c-0.355,0.396-0.524,0.937-0.465,1.479l0.767,6.896    H110c-0.183,0-0.514-0.196-0.601-0.356l-5.042-9.243c-0.435-0.798-1.447-1.4-2.357-1.4h-1v-6h2c0.879,0,1.886-0.52,2.395-1.232    l0.267-0.373c0.132-0.185,0.54-0.395,0.767-0.395H115c0.552,0,1,0.448,1,1v8c0,0.552-0.448,1-1,1h-3    C111.454,156,110.937,156.228,110.581,156.625z"/>
		<circle cx="98" cy="154" r="1"/>
	</g>
	
    </g>
</svg>
