<?xml version="1.0" encoding="iso-8859-1"?>
<!DOCTYPE svg PUBLIC "-//W3C//DTD SVG 1.1//EN" "http://www.w3.org/Graphics/SVG/1.1/DTD/svg11.dtd">
<svg version="1.1" xmlns="http://www.w3.org/2000/svg" xmlns:xlink="http://www.w3.org/1999/xlink" x="0px" y="0px" width="30" height="30" viewBox="0 0 30 30" xml:space="preserve">
    <g transform="translate(-30 -140)">
        <g xmlns="http://www.w3.org/2000/svg" xmlns:xlink="http://www.w3.org/1999/xlink" id="thumb-up-7">
		<path d="M51,144h-1c-0.55,0-1.216,0.396-1.479,0.878l-5.043,9.244C43.216,154.605,42.55,155,42,155h-1c0-0.55-0.45-1-1-1h-6    c-0.55,0-1,0.45-1,1v9c0,0.55,0.45,1,1,1h6c0.55,0,1-0.45,1-1v-1h2c0.55,0,1.262,0.366,1.581,0.814l0.266,0.371    c0.319,0.448,1.031,0.814,1.581,0.814H55c1.1,0,2-0.9,2-2v-8c0-1.1-0.9-2-2-2h-3c-0.55,0-0.95-0.447-0.89-0.994l0.779-7.012    C51.95,144.447,51.55,144,51,144z M40,163v1h-6v-9h6V163z M52,154h3c0.552,0,1,0.448,1,1v8c0,0.552-0.448,1-1,1h-8.572    c-0.227,0-0.635-0.21-0.767-0.395l-0.267-0.373C44.886,162.52,43.879,162,43,162h-2v-6h1c0.91,0,1.923-0.603,2.357-1.4    l5.042-9.243C49.486,145.196,49.817,145,50,145h0.883l-0.767,6.896c-0.06,0.543,0.109,1.083,0.465,1.479    C50.937,153.772,51.454,154,52,154z"/>
		<circle cx="38" cy="162" r="1"/>
	</g>
	
    </g>
</svg>
