<?xml version="1.0" encoding="iso-8859-1"?>
<!DOCTYPE svg PUBLIC "-//W3C//DTD SVG 1.1//EN" "http://www.w3.org/Graphics/SVG/1.1/DTD/svg11.dtd">
<svg version="1.1" xmlns="http://www.w3.org/2000/svg" xmlns:xlink="http://www.w3.org/1999/xlink" x="0px" y="0px" width="30" height="30" viewBox="0 0 30 30" xml:space="preserve">
    <g transform="translate(-510 -860)">
        <g xmlns="http://www.w3.org/2000/svg" xmlns:xlink="http://www.w3.org/1999/xlink" id="wifi-signal-7">
		<path d="M537.015,870.985C533.937,867.906,529.687,866,525,866s-8.937,1.906-12.015,4.985l0.706,0.706    C516.588,868.794,520.588,867,525,867s8.412,1.794,11.309,4.691L537.015,870.985z"/>
		<path d="M534.188,873.812C531.834,871.458,528.584,870,525,870s-6.834,1.458-9.188,3.813l0.706,0.706    c2.173-2.173,5.173-3.519,8.481-3.519s6.309,1.346,8.481,3.519L534.188,873.812z"/>
		<path d="M531.361,876.639c-1.63-1.629-3.88-2.639-6.361-2.639s-4.731,1.01-6.361,2.639l0.707,0.707    c1.449-1.448,3.449-2.346,5.654-2.346s4.205,0.897,5.654,2.346L531.361,876.639z"/>
		<path d="M528.534,879.466C527.629,878.561,526.379,878,525,878s-2.629,0.561-3.534,1.466l0.707,0.707    c0.725-0.724,1.724-1.173,2.827-1.173c1.103,0,2.103,0.449,2.827,1.173L528.534,879.466z"/>
		<circle cx="525" cy="883" r="1"/>
	</g>
	
    </g>
</svg>
