<svg width="24" height="24" viewBox="0 0 24 24" fill="none" xmlns="http://www.w3.org/2000/svg">
<path fill-rule="evenodd" clip-rule="evenodd" d="M3 2H21C22.103 2 23 2.898 23 4V20C23 21.103 22.103 22 21 22H3C1.897 22 1 21.103 1 20V4C1 2.898 1.897 2 3 2ZM3 4V20H21.001L21 4H3Z" fill="#9394A1"/>
<rect x="5" y="10" width="2" height="2" fill="#9394A1"/>
<rect x="9" y="10" width="2" height="2" fill="#9394A1"/>
<rect x="13" y="10" width="2" height="2" fill="#9394A1"/>
<rect x="17" y="10" width="2" height="2" fill="#9394A1"/>
<rect x="5" y="14" width="2" height="2" fill="#9394A1"/>
<rect x="7" y="12" width="2" height="2" fill="#9394A1"/>
<rect x="11" y="12" width="2" height="2" fill="#9394A1"/>
<rect x="15" y="12" width="2" height="2" fill="#9394A1"/>
<rect x="9" y="14" width="2" height="2" fill="#9394A1"/>
<rect x="13" y="14" width="2" height="2" fill="#9394A1"/>
<rect x="17" y="14" width="2" height="2" fill="#9394A1"/>
<rect x="7" y="16" width="2" height="2" fill="#9394A1"/>
<rect x="11" y="16" width="2" height="2" fill="#9394A1"/>
<rect x="15" y="16" width="2" height="2" fill="#9394A1"/>
</svg>
