<svg width="18" height="18" viewBox="0 0 18 18" fill="none" xmlns="http://www.w3.org/2000/svg">
<rect x="6" y="3" width="10.5" height="1.5" fill="#5C697F"/>
<rect x="6" y="8.25" width="10.5" height="1.5" fill="#5C697F"/>
<path d="M6 13.5H16.5V15H6V13.5Z" fill="#5C697F"/>
<path d="M3.24 2.90176V5.60251H4.0605V1.91101C4.0605 1.74526 3.96 1.59526 3.807 1.53151C3.65325 1.46701 3.47775 1.50301 3.36 1.62076L2.25 2.73151L2.82975 3.31126L3.24 2.90176Z" fill="#5C697F"/>
<path d="M3.375 6.75C2.75475 6.75 2.25 7.25475 2.25 7.875V8.25H3V7.875C3 7.668 3.16875 7.5 3.375 7.5C3.582 7.5 3.75075 7.668 3.75075 7.875C3.75075 8.24175 3.0285 9.1905 2.36025 9.8595C2.253 9.96675 2.22075 10.1272 2.27925 10.2682C2.337 10.4093 2.4735 10.5 2.625 10.5H4.5V9.75H3.4785C3.94575 9.1995 4.5 8.4285 4.5 7.875C4.5 7.25475 3.996 6.75 3.375 6.75Z" fill="#5C697F"/>
<path d="M3.375 12.3315L2.25 12.3322L2.25075 13.0822L3.375 13.0815C3.58125 13.0815 3.75 13.2495 3.75 13.4565C3.75 13.6635 3.58125 13.8315 3.375 13.8315H3V14.5815H3.375C3.58125 14.5815 3.75 14.7495 3.75 14.9565C3.75 15.1642 3.58125 15.3315 3.375 15.3315H2.25L2.25075 16.0815H3.375C3.99525 16.0815 4.5 15.5767 4.5 14.9565C4.5 14.6685 4.39125 14.4052 4.21275 14.2065C4.39125 14.0077 4.5 13.7452 4.5 13.4565C4.5 12.8362 3.99525 12.3315 3.375 12.3315Z" fill="#5C697F"/>
</svg>
