<svg width="16" height="13" viewBox="0 0 16 13" fill="none" xmlns="http://www.w3.org/2000/svg">
<path fill-rule="evenodd" clip-rule="evenodd" d="M13.9691 2.03093C12.6603 0.721067 10.9195 0 9.06667 0C7.21387 0 5.47307 0.721067 4.16427 2.03093C3.55093 2.64427 3.072 3.35467 2.73067 4.1248L0 1.06667V8.53333H6.66667L4.368 5.95947C4.55467 5.04853 5.00053 4.2112 5.6736 3.5392C6.5792 2.63147 7.78453 2.13333 9.06667 2.13333C10.3488 2.13333 11.5541 2.63147 12.4597 3.5392C13.3675 4.44587 13.8667 5.6512 13.8667 6.93333C13.8667 8.21547 13.3675 9.4208 12.4597 10.3264C12.0437 10.7435 12.0437 11.4187 12.4597 11.8347C12.6677 12.0437 12.9419 12.1472 13.2139 12.1472C13.4869 12.1472 13.76 12.0437 13.9691 11.8347C15.2789 10.5259 16 8.78507 16 6.93333C16 5.08053 15.2789 3.3408 13.9691 2.03093Z" fill="#8D96A6"/>
</svg>
