<?xml version="1.0" encoding="UTF-8"?>
<svg width="65px" height="65px" viewBox="0 0 65 65" version="1.1" xmlns="http://www.w3.org/2000/svg" xmlns:xlink="http://www.w3.org/1999/xlink">
    <!-- Generator: Sketch 53.2 (72643) - https://sketchapp.com -->
    <title>22-jigsaw-programming-drag-and-drop-2</title>
    <desc>Created with Sketch.</desc>
    <g id="UI" stroke="none" stroke-width="1" fill="none" fill-rule="evenodd">
        <g id="09.A-Create-Playlist" transform="translate(-1284.000000, -488.000000)">
            <g id="22-jigsaw-programming-drag-and-drop-2" transform="translate(1284.000000, 488.000000)">
                <g id="Background" fill="#F0FBFF">
                    <circle id="Oval" cx="32.3716049" cy="32.0987654" r="32.0987654"></circle>
                </g>
                <g id="Scene" transform="translate(10.432099, 8.827160)">
                    <ellipse id="Oval" fill="#B6DCF2" cx="22.9104938" cy="48.2765432" rx="14.1234568" ry="1.32407407"></ellipse>
                    <path d="M15.3271605,18.5450617 C15.5008181,18.2819644 15.5451275,17.9540743 15.4475309,17.654321 C15.3608847,17.3588883 15.1499883,17.1157716 14.8697531,16.9882716 C14.5130032,16.8249798 14.195539,16.5868817 13.9388889,16.2901235 C13.3409899,15.596571 13.1492434,14.6408824 13.4333333,13.7703704 C13.6829166,12.9868124 14.2823557,12.3636687 15.05565,12.0838996 C15.8289443,11.8041305 16.6883291,11.8994884 17.3814815,12.3419753 C17.4870252,12.4077665 17.5864014,12.48297 17.6783951,12.5666667 C17.9127729,12.7680277 18.2238718,12.8560746 18.5290123,12.8074074 C18.8259392,12.7702033 19.0922387,12.6063267 19.2592593,12.3580247 L20.9925926,9.62962963 C21.3061519,9.1374904 21.1626253,8.48444433 20.6716049,8.1691358 L16.6592593,5.60925926 C17.9451393,5.13515753 18.6568341,3.75827696 18.2999698,2.43505827 C17.9431054,1.11183958 16.6356035,0.279524563 15.2857112,0.516275194 C13.935819,0.753025825 12.9895923,1.98061069 13.104321,3.3462963 L9.09197531,0.778395062 C8.59528191,0.465570024 7.93919666,0.6125618 7.62345679,1.10740741 L5.85802469,3.82777778 C5.69453024,4.08866424 5.65070631,4.40711812 5.73765432,4.70246914 C5.82618158,4.99754815 6.04060685,5.2384094 6.32345679,5.36049383 C6.68096662,5.52612274 6.99849193,5.76700401 7.25432099,6.06666667 C7.85229477,6.75700344 8.04420656,7.71046999 7.75987654,8.57839506 C7.50940514,9.36127025 6.91059692,9.98407878 6.13816373,10.2651063 C5.36573055,10.5461338 4.50670754,10.4537151 3.8117284,10.0148148 C3.70740741,9.94259259 3.60308642,9.87037037 3.50679012,9.79012346 C3.27442658,9.57925052 2.96001075,9.48320266 2.64947458,9.52823041 C2.33893841,9.57325815 2.06475182,9.75465336 1.90185185,10.0228395 L0.17654321,12.7351852 C0.0237792485,12.9709599 -0.0282548604,13.2580722 0.0320506119,13.5324621 C0.0923560841,13.806852 0.259983011,14.0456871 0.497530864,14.195679 L4.50987654,16.7635802 C3.71859888,17.0589593 3.12010724,17.7202926 2.90493827,18.537037 C2.51077175,19.821171 3.14048509,21.1970101 4.3699979,21.7379958 C5.59951072,22.2789814 7.03930572,21.8137259 7.71975309,20.6555556 C8.01938548,20.1762682 8.15982217,19.6145214 8.12098765,19.0506173 L12.1333333,21.6185185 C12.3776797,21.7838632 12.6802613,21.8389179 12.9671884,21.7702385 C13.2541155,21.7015592 13.4989758,21.5154678 13.6419753,21.2574074 L15.3271605,18.5450617 Z" id="Path" fill="#F0FBFF"></path>
                    <path d="M34.787037,24.0018519 C35.3233613,23.2999506 35.4731146,22.3763309 35.1860452,21.5409266 C34.8989758,20.7055224 34.2131258,20.0690405 33.358642,19.8450617 C32.5635945,19.6391189 31.7179945,19.8125408 31.0681912,20.3148042 C30.4183879,20.8170676 30.0374734,21.5916763 30.0364198,22.412963 C30.0381513,22.9918786 30.2267197,23.5547692 30.5740741,24.0179012 L24.7401235,24.0179012 L24.7401235,29.8518519 C25.6591599,29.1553238 26.9232792,29.1335982 27.8657073,29.7981345 C28.8081354,30.4626708 29.2121841,31.6606751 28.8647332,32.7602464 C28.5172824,33.8598178 27.4982199,34.6081367 26.3450617,34.6104938 C25.7642448,34.6123892 25.199415,34.4203471 24.7401235,34.0648148 L24.7401235,39.9067901 L39.5697531,39.9067901 C40.1547658,39.9067901 40.6290123,39.4325436 40.6290123,38.8475309 L40.6290123,24.0018519 L34.787037,24.0018519 Z" id="Path" fill="#F0FBFF"></path>
                    <path d="M27.1154321,29.4104938 C26.2916204,29.151213 25.3931289,29.3099465 24.7080247,29.8358025 L24.7080247,24.0018519 L20.462963,24.0018519 C20.1562108,24.0022523 19.8642321,24.1336427 19.6604938,24.362963 C19.4591327,24.5973408 19.3710859,24.9084397 19.4197531,25.2135802 C19.4700745,25.6012333 19.4372474,25.9951587 19.3234568,26.3691358 C19.0615706,27.2445443 18.3619054,27.9198734 17.4777778,28.1506173 C16.6829742,28.3591518 15.8364042,28.1880911 15.1849259,27.6873163 C14.5334477,27.1865414 14.1504192,26.4124408 14.1475309,25.5907407 C14.1392924,25.4651555 14.1392924,25.3391654 14.1475309,25.2135802 C14.1973985,24.9090977 14.1099248,24.5981591 13.9086206,24.3643365 C13.7073164,24.1305139 13.4128334,23.9977953 13.104321,24.0018519 L9.89444444,24.0018519 C9.61212361,23.999713 9.34063073,24.1103683 9.14024211,24.3092502 C8.93985349,24.5081322 8.82715239,24.7787822 8.82716049,25.0611111 L8.82716049,29.8759259 C7.90812407,29.1793979 6.64400479,29.1576723 5.70157666,29.8222086 C4.75914853,30.4867449 4.35509987,31.6847492 4.70255072,32.7843205 C5.05000156,33.8838919 6.06906408,34.6322108 7.22222222,34.6345679 C7.80303919,34.6364633 8.36786896,34.4444212 8.82716049,34.0888889 L8.82716049,38.9037037 C8.82716049,39.4887164 9.30140702,39.962963 9.88641975,39.962963 L24.7401235,39.962963 L24.7401235,34.0487654 C25.199415,34.4042977 25.7642448,34.5963399 26.3450617,34.5944444 C27.6663341,34.6145758 28.8002365,33.657581 29.002384,32.3517087 C29.2045314,31.0458365 28.4130494,29.7907945 27.1475309,29.4104938 L27.1154321,29.4104938 Z" id="Path" fill="#FFFFFF"></path>
                    <path d="M36.3518519,8.11296296 C36.0450997,8.11336345 35.753121,8.24475383 35.5493827,8.47407407 C35.3480216,8.70845194 35.2599748,9.01955078 35.308642,9.32469136 C35.3589634,9.71234445 35.3261362,10.1062698 35.2123457,10.4802469 C34.9504595,11.3556554 34.2507943,12.0309845 33.3666667,12.2617284 C32.5718631,12.4702629 31.7252931,12.2992022 31.0738148,11.7984274 C30.4223366,11.2976525 30.0393081,10.5235519 30.0364198,9.70185185 C30.0281813,9.57626665 30.0281813,9.45027656 30.0364198,9.32469136 C30.0862874,9.02020884 29.9988137,8.70927018 29.7975095,8.4754476 C29.5962053,8.24162503 29.3017223,8.10890637 28.9932099,8.11296296 L25.7833333,8.11296296 C25.1983206,8.11296296 24.7240741,8.58720949 24.7240741,9.17222222 L24.7240741,13.987037 C23.8050377,13.290509 22.5409184,13.2687834 21.5984902,13.9333197 C20.6560621,14.597856 20.2520135,15.7958603 20.5994643,16.8954316 C20.9469151,17.995003 21.9659777,18.7433219 23.1191358,18.745679 C23.6999528,18.7475744 24.2647825,18.5555323 24.7240741,18.2 L24.7240741,24.0419753 L30.5740741,24.0419753 C30.0418874,23.3389004 29.8945663,22.4170513 30.1811253,21.5831323 C30.4676843,20.7492133 31.1505275,20.112633 32.0024691,19.8851852 C33.095864,19.5885794 34.2566078,20.0226226 34.8871288,20.9638614 C35.5176498,21.9051002 35.4773743,23.1436872 34.787037,24.0419753 L40.6290123,24.0419753 L40.6290123,9.17222222 C40.6290123,8.58720949 40.1547658,8.11296296 39.5697531,8.11296296 L36.3518519,8.11296296 Z" id="Path" fill="#FFFFFF"></path>
                    <path d="M27.1154321,29.4104938 C26.2916204,29.151213 25.3931289,29.3099465 24.7080247,29.8358025 L24.7080247,24.0018519 L20.462963,24.0018519 C20.1562108,24.0022523 19.8642321,24.1336427 19.6604938,24.362963 C19.4591327,24.5973408 19.3710859,24.9084397 19.4197531,25.2135802 C19.4700745,25.6012333 19.4372474,25.9951587 19.3234568,26.3691358 C19.0615706,27.2445443 18.3619054,27.9198734 17.4777778,28.1506173 C16.6829742,28.3591518 15.8364042,28.1880911 15.1849259,27.6873163 C14.5334477,27.1865414 14.1504192,26.4124408 14.1475309,25.5907407 C14.1392924,25.4651555 14.1392924,25.3391654 14.1475309,25.2135802 C14.1973985,24.9090977 14.1099248,24.5981591 13.9086206,24.3643365 C13.7073164,24.1305139 13.4128334,23.9977953 13.104321,24.0018519 L9.89444444,24.0018519 C9.61212361,23.999713 9.34063073,24.1103683 9.14024211,24.3092502 C8.93985349,24.5081322 8.82715239,24.7787822 8.82716049,25.0611111 L8.82716049,29.8759259 C7.90812407,29.1793979 6.64400479,29.1576723 5.70157666,29.8222086 C4.75914853,30.4867449 4.35509987,31.6847492 4.70255072,32.7843205 C5.05000156,33.8838919 6.06906408,34.6322108 7.22222222,34.6345679 C7.80303919,34.6364633 8.36786896,34.4444212 8.82716049,34.0888889 L8.82716049,38.9037037 C8.82716049,39.4887164 9.30140702,39.962963 9.88641975,39.962963 L24.7401235,39.962963 L24.7401235,34.0487654 C25.199415,34.4042977 25.7642448,34.5963399 26.3450617,34.5944444 C27.6663341,34.6145758 28.8002365,33.657581 29.002384,32.3517087 C29.2045314,31.0458365 28.4130494,29.7907945 27.1475309,29.4104938 L27.1154321,29.4104938 Z" id="Path" stroke="#0378BA" stroke-linecap="round" stroke-linejoin="round"></path>
                    <path d="M34.787037,24.0018519 C35.3233613,23.2999506 35.4731146,22.3763309 35.1860452,21.5409266 C34.8989758,20.7055224 34.2131258,20.0690405 33.358642,19.8450617 C32.5635945,19.6391189 31.7179945,19.8125408 31.0681912,20.3148042 C30.4183879,20.8170676 30.0374734,21.5916763 30.0364198,22.412963 C30.0381513,22.9918786 30.2267197,23.5547692 30.5740741,24.0179012 L24.7401235,24.0179012 L24.7401235,29.8518519 C25.6591599,29.1553238 26.9232792,29.1335982 27.8657073,29.7981345 C28.8081354,30.4626708 29.2121841,31.6606751 28.8647332,32.7602464 C28.5172824,33.8598178 27.4982199,34.6081367 26.3450617,34.6104938 C25.7642448,34.6123892 25.199415,34.4203471 24.7401235,34.0648148 L24.7401235,39.9067901 L39.5697531,39.9067901 C40.1547658,39.9067901 40.6290123,39.4325436 40.6290123,38.8475309 L40.6290123,24.0018519 L34.787037,24.0018519 Z" id="Path" stroke="#0378BA" stroke-linecap="round" stroke-linejoin="round"></path>
                    <path d="M15.3271605,18.5450617 C15.5008181,18.2819644 15.5451275,17.9540743 15.4475309,17.654321 C15.3608847,17.3588883 15.1499883,17.1157716 14.8697531,16.9882716 C14.5130032,16.8249798 14.195539,16.5868817 13.9388889,16.2901235 C13.3409899,15.596571 13.1492434,14.6408824 13.4333333,13.7703704 C13.6829166,12.9868124 14.2823557,12.3636687 15.05565,12.0838996 C15.8289443,11.8041305 16.6883291,11.8994884 17.3814815,12.3419753 C17.4870252,12.4077665 17.5864014,12.48297 17.6783951,12.5666667 C17.9127729,12.7680277 18.2238718,12.8560746 18.5290123,12.8074074 C18.8259392,12.7702033 19.0922387,12.6063267 19.2592593,12.3580247 L20.9925926,9.62962963 C21.3061519,9.1374904 21.1626253,8.48444433 20.6716049,8.1691358 L16.6592593,5.60925926 C17.9451393,5.13515753 18.6568341,3.75827696 18.2999698,2.43505827 C17.9431054,1.11183958 16.6356035,0.279524563 15.2857112,0.516275194 C13.935819,0.753025825 12.9895923,1.98061069 13.104321,3.3462963 L9.09197531,0.778395062 C8.59528191,0.465570024 7.93919666,0.6125618 7.62345679,1.10740741 L5.85802469,3.82777778 C5.69453024,4.08866424 5.65070631,4.40711812 5.73765432,4.70246914 C5.82618158,4.99754815 6.04060685,5.2384094 6.32345679,5.36049383 C6.68096662,5.52612274 6.99849193,5.76700401 7.25432099,6.06666667 C7.85229477,6.75700344 8.04420656,7.71046999 7.75987654,8.57839506 C7.50940514,9.36127025 6.91059692,9.98407878 6.13816373,10.2651063 C5.36573055,10.5461338 4.50670754,10.4537151 3.8117284,10.0148148 C3.70740741,9.94259259 3.60308642,9.87037037 3.50679012,9.79012346 C3.27442658,9.57925052 2.96001075,9.48320266 2.64947458,9.52823041 C2.33893841,9.57325815 2.06475182,9.75465336 1.90185185,10.0228395 L0.17654321,12.7351852 C0.0237792485,12.9709599 -0.0282548604,13.2580722 0.0320506119,13.5324621 C0.0923560841,13.806852 0.259983011,14.0456871 0.497530864,14.195679 L4.50987654,16.7635802 C3.71859888,17.0589593 3.12010724,17.7202926 2.90493827,18.537037 C2.51077175,19.821171 3.14048509,21.1970101 4.3699979,21.7379958 C5.59951072,22.2789814 7.03930572,21.8137259 7.71975309,20.6555556 C8.01938548,20.1762682 8.15982217,19.6145214 8.12098765,19.0506173 L12.1333333,21.6185185 C12.3776797,21.7838632 12.6802613,21.8389179 12.9671884,21.7702385 C13.2541155,21.7015592 13.4989758,21.5154678 13.6419753,21.2574074 L15.3271605,18.5450617 Z" id="Path" stroke="#0378BA" stroke-linecap="round" stroke-linejoin="round"></path>
                    <path d="M36.3518519,8.11296296 C36.0450997,8.11336345 35.753121,8.24475383 35.5493827,8.47407407 C35.3480216,8.70845194 35.2599748,9.01955078 35.308642,9.32469136 C35.3589634,9.71234445 35.3261362,10.1062698 35.2123457,10.4802469 C34.9504595,11.3556554 34.2507943,12.0309845 33.3666667,12.2617284 C32.5718631,12.4702629 31.7252931,12.2992022 31.0738148,11.7984274 C30.4223366,11.2976525 30.0393081,10.5235519 30.0364198,9.70185185 C30.0281813,9.57626665 30.0281813,9.45027656 30.0364198,9.32469136 C30.0862874,9.02020884 29.9988137,8.70927018 29.7975095,8.4754476 C29.5962053,8.24162503 29.3017223,8.10890637 28.9932099,8.11296296 L25.7833333,8.11296296 C25.1983206,8.11296296 24.7240741,8.58720949 24.7240741,9.17222222 L24.7240741,13.987037 C23.8050377,13.290509 22.5409184,13.2687834 21.5984902,13.9333197 C20.6560621,14.597856 20.2520135,15.7958603 20.5994643,16.8954316 C20.9469151,17.995003 21.9659777,18.7433219 23.1191358,18.745679 C23.6999528,18.7475744 24.2647825,18.5555323 24.7240741,18.2 L24.7240741,24.0419753 L30.5740741,24.0419753 C30.0418874,23.3389004 29.8945663,22.4170513 30.1811253,21.5831323 C30.4676843,20.7492133 31.1505275,20.112633 32.0024691,19.8851852 C33.095864,19.5885794 34.2566078,20.0226226 34.8871288,20.9638614 C35.5176498,21.9051002 35.4773743,23.1436872 34.787037,24.0419753 L40.6290123,24.0419753 L40.6290123,9.17222222 C40.6290123,8.58720949 40.1547658,8.11296296 39.5697531,8.11296296 L36.3518519,8.11296296 Z" id="Path" stroke="#0378BA" stroke-linecap="round" stroke-linejoin="round"></path>
                </g>
            </g>
        </g>
    </g>
</svg>