<svg version="1.1" id="Logo" xmlns="http://www.w3.org/2000/svg" xmlns:xlink="http://www.w3.org/1999/xlink" x="0px" y="0px"
	 viewBox="23.5 23.5 113 32.5" xml:space="preserve">
<style type="text/css">
	.st0{fill:#FFFFFF;}
	.st1{fill:#2275B4;}
</style>
<path class="st0" d="M51.2,23.8h5.7V35c1.1-1,2.3-1.7,3.4-2.2c1.1-0.5,2.3-0.7,3.5-0.7c2.3,0,4.2,0.8,5.8,2.4c1.3,1.4,2,3.4,2,6
	v15.2h-5.7V45.5c0-2.7-0.1-4.5-0.4-5.4c-0.3-0.9-0.7-1.6-1.3-2.1c-0.6-0.5-1.4-0.7-2.3-0.7c-1.2,0-2.2,0.4-3,1.2
	c-0.8,0.8-1.4,1.8-1.7,3.2c-0.2,0.7-0.3,2.3-0.3,4.7v9.2h-5.7V23.8z M93.2,23.8v11.4c1-1,2.2-1.8,3.4-2.3c1.2-0.5,2.5-0.8,3.9-0.8
	c3,0,5.5,1.1,7.6,3.4c2.1,2.3,3.1,5.2,3.1,8.7c0,3.4-1.1,6.3-3.2,8.6c-2.2,2.3-4.7,3.5-7.7,3.5c-1.3,0-2.6-0.2-3.7-0.7
	c-1.1-0.5-2.3-1.2-3.4-2.3v2.4h-5.7V23.8H93.2z M99.3,37.4c-1.8,0-3.3,0.6-4.5,1.9c-1.2,1.2-1.8,2.9-1.8,4.9c0,2,0.6,3.7,1.8,4.9
	c1.2,1.3,2.7,1.9,4.5,1.9c1.8,0,3.2-0.6,4.4-1.9c1.2-1.3,1.8-2.9,1.8-4.9c0-2-0.6-3.6-1.8-4.8C102.6,38,101.1,37.4,99.3,37.4z
	 M127.1,24.2h5.8v8.5h3.4v5h-3.4v18h-5.8v-18h-3v-5h3V24.2z M76.5,55.6h5.8v-23h-5.8V55.6z M115.3,55.6h5.8v-23h-5.8V55.6z
	 M29.9,32.6h-6.1l6.1,8.5V32.6z M29.9,47.1l-6.1,8.5h6.1V47.1z M36,49.7l4.3,5.9h7l-7.7-10.7L36,49.7z M40.3,32.6L36,38.5l3.5,4.8
	l7.7-10.7H40.3z"/>
<path class="st1" d="M78.3,27l2.7,1.9l-2.7,1.9V27z M76.5,31.8h5.8v-5.8h-5.8V31.8z M117.1,27l2.7,1.9l-2.7,1.9V27z M115.3,31.8h5.8
	v-5.8h-5.8V31.8z M30.7,32.6v23L39,44.1L30.7,32.6z"/>
</svg>
