<?xml version="1.0" encoding="iso-8859-1"?>
<!DOCTYPE svg PUBLIC "-//W3C//DTD SVG 1.1//EN" "http://www.w3.org/Graphics/SVG/1.1/DTD/svg11.dtd">
<svg version="1.1" xmlns="http://www.w3.org/2000/svg" xmlns:xlink="http://www.w3.org/1999/xlink" x="0px" y="0px" width="29" height="30" viewBox="0 0 29 30" xml:space="preserve">
    <g transform="translate(-270 -260)">
        <g xmlns="http://www.w3.org/2000/svg" xmlns:xlink="http://www.w3.org/1999/xlink" id="apartment-7">
		<path d="M293,263h1v-1h-19v1h1v24h-3v1h23v-1h-3V263z M288,287h-7v-4h7V287z M292,287h-3v-5h-9v5h-3v-24h15V287z"/>
		<path d="M284,267h-5v5h5V267z M283,271h-3v-3h3V271z"/>
		<path d="M290,267h-5v5h5V267z M289,271h-3v-3h3V271z"/>
		<path d="M284,274h-5v5h5V274z M283,278h-3v-3h3V278z"/>
		<path d="M290,274h-5v5h5V274z M289,278h-3v-3h3V278z"/>
	</g>
	
    </g>
</svg>
