<?xml version="1.0" encoding="iso-8859-1"?>
<!DOCTYPE svg PUBLIC "-//W3C//DTD SVG 1.1//EN" "http://www.w3.org/Graphics/SVG/1.1/DTD/svg11.dtd">
<svg version="1.1" xmlns="http://www.w3.org/2000/svg" xmlns:xlink="http://www.w3.org/1999/xlink" x="0px" y="0px" width="30" height="30" viewBox="0 0 30 30" xml:space="preserve">
    <g transform="translate(-90 -80)">
        <g xmlns="http://www.w3.org/2000/svg" xmlns:xlink="http://www.w3.org/1999/xlink" id="bank-star-7">
		<path d="M96.303,91h17.395l2.748,1.832l1.109-1.664L105,82.798l-12.555,8.37l1.109,1.664L96.303,91z M105,85.202L112.197,90    H97.803L105,85.202z"/>
		<path d="M113,95.025V92h-1v3.025c-1.497,0.099-2.871,0.635-4,1.485V92h-1v5.413c-1.237,1.337-2,3.121-2,5.087    c0,1.265,0.316,2.455,0.869,3.5H104v-1h-1V92h-1v13h-1v1h-2v-1h-1V92h-1v13h-1v1h-3v1h13.51c1.369,1.819,3.539,3,5.99,3    c4.143,0,7.5-3.358,7.5-7.5C120,98.527,116.908,95.284,113,95.025z M112.5,109c-3.59,0-6.5-2.91-6.5-6.5s2.91-6.5,6.5-6.5    s6.5,2.91,6.5,6.5S116.09,109,112.5,109z"/>
		<polygon points="113.568,101 112.5,97.785 111.43,101 108,101 110.768,103.079 109.717,106.344 112.5,104.336 115.278,106.344     114.23,103.079 117,101   "/>
	</g>
	
    </g>
</svg>
