<?xml version="1.0" encoding="iso-8859-1"?>
<!DOCTYPE svg PUBLIC "-//W3C//DTD SVG 1.1//EN" "http://www.w3.org/Graphics/SVG/1.1/DTD/svg11.dtd">
<svg version="1.1" xmlns="http://www.w3.org/2000/svg" xmlns:xlink="http://www.w3.org/1999/xlink" x="0px" y="0px" width="30" height="30" viewBox="0 0 30 30" xml:space="preserve">
    <g transform="translate(-210 -80)">
        <g xmlns="http://www.w3.org/2000/svg" xmlns:xlink="http://www.w3.org/1999/xlink" id="bank-off-7">
		<polygon points="216.83,88.245 212.445,91.168 213.555,92.832 216.303,91 219.586,91 218.586,90 217.803,90 218.272,89.687   "/>
		<polygon points="234.586,106 234,106 234,105.414 233.586,105 233,105 233,104.414 232,103.414 232,105 231,105 231,106 229,106     229,105 228,105 228,99.414 227,98.414 227,105 226,105 226,106 224,106 224,105 223,105 223,94.414 222,93.414 222,105 221,105     221,106 219,106 219,105 218,105 218,92 217,92 217,105 216,105 216,106 213,106 213,107 235.586,107   "/>
		<path d="M238.436,107.021L233,101.586V92h-1v8.586l-4-4V92h-1v3.586L222.414,91h11.283l2.748,1.832l1.109-1.664L225,82.798    l-6.473,4.315l-5.549-5.548l-0.707,0.707l25.457,25.456L238.436,107.021z M219.97,88.556l5.03-3.354L232.197,90h-10.783    L219.97,88.556z"/>
	</g>
	
    </g>
</svg>
