<?xml version="1.0" encoding="iso-8859-1"?>
<!DOCTYPE svg PUBLIC "-//W3C//DTD SVG 1.1//EN" "http://www.w3.org/Graphics/SVG/1.1/DTD/svg11.dtd">
<svg version="1.1" xmlns="http://www.w3.org/2000/svg" xmlns:xlink="http://www.w3.org/1999/xlink" x="0px" y="0px" width="30" height="30" viewBox="0 0 30 30" xml:space="preserve">
    <g transform="translate(-330 -260)">
        <g xmlns="http://www.w3.org/2000/svg" xmlns:xlink="http://www.w3.org/1999/xlink" id="city-7">
		<path d="M359,284h-2v-10h-6v4h-1v-11h-1v-2h-2v-1h-1v-3h-1v3h-1v1h-2v2h-1v10h-1v-5h-6v10h-3v5h-1v1h30v-1h-1V284z M339,287h-4    v-14h4V287z M349,287h-7v-19h1v-2h2v-1h1v1h2v2h1V287z M356,287h-4v-12h4V287z"/>
		<rect x="344" y="270" width="3" height="1"/>
		<rect x="344" y="274" width="3" height="1"/>
		<rect x="344" y="278" width="3" height="1"/>
		<rect x="344" y="282" width="3" height="1"/>
		<rect x="336" y="275" width="2" height="1"/>
		<rect x="336" y="279" width="2" height="1"/>
		<rect x="336" y="283" width="2" height="1"/>
		<rect x="353" y="277" width="2" height="1"/>
		<rect x="353" y="280" width="2" height="1"/>
		<rect x="353" y="283" width="2" height="1"/>
	</g>
	
    </g>
</svg>
