<?xml version="1.0" encoding="iso-8859-1"?>
<!DOCTYPE svg PUBLIC "-//W3C//DTD SVG 1.1//EN" "http://www.w3.org/Graphics/SVG/1.1/DTD/svg11.dtd">
<svg version="1.1" xmlns="http://www.w3.org/2000/svg" xmlns:xlink="http://www.w3.org/1999/xlink" x="0px" y="0px" width="30" height="30" viewBox="0 0 30 30" xml:space="preserve">
    <g transform="translate(-390 -260)">
        <g xmlns="http://www.w3.org/2000/svg" xmlns:xlink="http://www.w3.org/1999/xlink" id="factory-7">
		<path d="M417,273h-3v-10h-3v10h-2v-10h-3v10h-13v13h-1v1h1h3h9h12h1v-1h-1V273z M412,264h1v9h-1V264z M407,264h1v9h-1V264z     M404,286h-7v-5h7V286z M416,286h-11v-6h-9v6h-2v-12h22V286z"/>
		<rect x="407" y="279" width="3" height="1"/>
		<rect x="411" y="279" width="3" height="1"/>
		<rect x="396" y="271" width="8" height="1"/>
	</g>
	
    </g>
</svg>
