<?xml version="1.0" encoding="iso-8859-1"?>
<!DOCTYPE svg PUBLIC "-//W3C//DTD SVG 1.1//EN" "http://www.w3.org/Graphics/SVG/1.1/DTD/svg11.dtd">
<svg version="1.1" xmlns="http://www.w3.org/2000/svg" xmlns:xlink="http://www.w3.org/1999/xlink" x="0px" y="0px" width="48" height="30" viewBox="0 0 48 30" xml:space="preserve">
    <g transform="translate(-468 -140)">
        <g xmlns="http://www.w3.org/2000/svg" xmlns:xlink="http://www.w3.org/1999/xlink" id="factory-mass-7">
		<path d="M496.05,150.005c-0.017,0-0.032-0.005-0.05-0.005c-1.104,0-2,0.896-2,2c-1.104,0-2,0.896-2,2h4    c0.785,0,1.458-0.457,1.785-1.116c0.229,0.068,0.465,0.116,0.715,0.116c0.004,0,0.007-0.001,0.011-0.001    c0.456,0.604,1.174,1.001,1.989,1.001c1.002,0,1.859-0.593,2.259-1.443c0.342,0.273,0.77,0.443,1.241,0.443c1.104,0,2-0.896,2-2    s-0.896-2-2-2c0-1.104-0.896-2-2-2c-0.951,0-1.744,0.666-1.946,1.556c-0.428-0.342-0.963-0.556-1.554-0.556    C497.289,148,496.279,148.861,496.05,150.005z"/>
		<path d="M484.148,148.366c0.362-0.32,0.629-0.741,0.758-1.223c0.54,0.528,1.277,0.856,2.094,0.856c0.395,0,0.771-0.081,1.115-0.22    c0.346,1.276,1.499,2.22,2.885,2.22c1.503,0,2.735-1.108,2.954-2.549c0.427,0.338,0.959,0.549,1.546,0.549    c1.381,0,2.5-1.119,2.5-2.5s-1.119-2.5-2.5-2.5c-0.173,0-0.342,0.018-0.505,0.051c0-0.018,0.005-0.034,0.005-0.051    c0-1.657-1.343-3-3-3c-1.587,0-2.872,1.236-2.979,2.795C488.486,142.306,487.781,142,487,142c-1.503,0-2.735,1.108-2.954,2.549    c-0.427-0.338-0.959-0.549-1.546-0.549c-1.381,0-2.5,1.119-2.5,2.5c0,0.612,0.229,1.165,0.594,1.6    c-0.188-0.059-0.386-0.1-0.594-0.1c-1.104,0-2,0.896-2,2h7C485,149.324,484.662,148.729,484.148,148.366z"/>
		<path d="M514,167h-1v-1h-3v-2h-1v2h-2v-1h-2v-5h-1v5h-1v-5h-1v5h-1.479c-1.08-2.201-2.521-5.468-2.521-7.25V155h-7v2.75    c0,1.451-0.955,3.885-1.894,5.929c-1.405-2.922-3.106-6.92-3.106-9.179V151h-9v3.5c0,3.473-4.02,11.064-4.797,12.5H470v1h1.65    h19.699H514V167z M473.339,167c1.206-2.265,4.661-9.056,4.661-12.5V152h7v2.5c0,3.444,3.455,10.235,4.661,12.5H473.339z M499,167    h-8.203c-0.201-0.372-0.612-1.145-1.124-2.167c1.071-2.249,2.327-5.269,2.327-7.083V156h5v1.75c0,2.523,2.432,7.388,3.413,9.25    H499z"/>
		<circle cx="481.5" cy="160.5" r="2.5"/>
		<circle cx="494.5" cy="162.5" r="1.5"/>
	</g>
	
    </g>
</svg>
