<?xml version="1.0" encoding="iso-8859-1"?>
<!DOCTYPE svg PUBLIC "-//W3C//DTD SVG 1.1//EN" "http://www.w3.org/Graphics/SVG/1.1/DTD/svg11.dtd">
<svg version="1.1" xmlns="http://www.w3.org/2000/svg" xmlns:xlink="http://www.w3.org/1999/xlink" x="0px" y="0px" width="30" height="30" viewBox="0 0 30 30" xml:space="preserve">
    <g transform="translate(-90 -200)">
        <g xmlns="http://www.w3.org/2000/svg" xmlns:xlink="http://www.w3.org/1999/xlink" id="garage-star-7">
		<rect x="93" y="205" width="24" height="3"/>
		<rect x="100" y="213" width="10" height="1"/>
		<path d="M116,215.869V209h-1v6.436c-0.783-0.277-1.622-0.436-2.5-0.436c-0.169,0-0.334,0.014-0.5,0.025V210H98v15h-3v-16h-1v16h-2    v1h13.869c1.258,2.378,3.754,4,6.631,4c4.143,0,7.5-3.357,7.5-7.5C120,219.623,118.378,217.127,116,215.869z M100,219v1h5.436    c-0.224,0.633-0.364,1.303-0.41,2H100v1h5.025c0.046,0.697,0.187,1.367,0.41,2H99v-14h12v4.15c-0.798,0.162-1.547,0.456-2.23,0.85    H100v1h7.413c-0.62,0.574-1.146,1.246-1.544,2H100z M112.5,229c-3.59,0-6.5-2.91-6.5-6.5s2.91-6.5,6.5-6.5s6.5,2.91,6.5,6.5    S116.09,229,112.5,229z"/>
		<polygon points="113.568,221 112.5,217.785 111.43,221 108,221 110.768,223.078 109.717,226.344 112.5,224.336 115.278,226.344     114.23,223.078 117,221   "/>
	</g>
	
    </g>
</svg>
