<?xml version="1.0" encoding="iso-8859-1"?>
<!DOCTYPE svg PUBLIC "-//W3C//DTD SVG 1.1//EN" "http://www.w3.org/Graphics/SVG/1.1/DTD/svg11.dtd">
<svg version="1.1" xmlns="http://www.w3.org/2000/svg" xmlns:xlink="http://www.w3.org/1999/xlink" x="0px" y="0px" width="30" height="30" viewBox="0 0 30 30" xml:space="preserve">
    <g transform="translate(-150 -200)">
        <g xmlns="http://www.w3.org/2000/svg" xmlns:xlink="http://www.w3.org/1999/xlink" id="garage-tick-7">
		<rect x="153" y="205" width="24" height="3"/>
		<rect x="160" y="213" width="10" height="1"/>
		<path d="M176,215.869V209h-1v6.436c-0.783-0.277-1.622-0.436-2.5-0.436c-0.169,0-0.334,0.014-0.5,0.025V210h-14v15h-3v-16h-1v16    h-2v1h13.869c1.258,2.378,3.754,4,6.631,4c4.143,0,7.5-3.357,7.5-7.5C180,219.623,178.378,217.127,176,215.869z M160,219v1h5.436    c-0.224,0.633-0.364,1.303-0.41,2H160v1h5.025c0.046,0.697,0.187,1.367,0.41,2H159v-14h12v4.15    c-0.798,0.162-1.547,0.456-2.23,0.85H160v1h7.413c-0.62,0.574-1.146,1.246-1.544,2H160z M172.5,229c-3.59,0-6.5-2.91-6.5-6.5    s2.91-6.5,6.5-6.5s6.5,2.91,6.5,6.5S176.09,229,172.5,229z"/>
		<polygon points="171.086,224.268 168.965,222.146 168.258,222.854 171.086,225.682 176.742,220.025 176.035,219.318   "/>
	</g>
	
    </g>
</svg>
