<?xml version="1.0" encoding="iso-8859-1"?>
<!DOCTYPE svg PUBLIC "-//W3C//DTD SVG 1.1//EN" "http://www.w3.org/Graphics/SVG/1.1/DTD/svg11.dtd">
<svg version="1.1" xmlns="http://www.w3.org/2000/svg" xmlns:xlink="http://www.w3.org/1999/xlink" x="0px" y="0px" width="30" height="30" viewBox="0 0 30 30" xml:space="preserve">
    <g transform="translate(-30 -140)">
        <g xmlns="http://www.w3.org/2000/svg" xmlns:xlink="http://www.w3.org/1999/xlink" id="house-7">
		<path d="M34.974,152.876l0.167,13.249l-2,0.025l0.013,1l23.998-0.302l-0.013-1l-2,0.025l-0.167-13.249l1.413,1.032l1.179-1.615    l-5.652-4.129l-0.05-4l-2,0.025l0.032,2.5l-5.047-3.687l-12.48,9.608l1.219,1.584L34.974,152.876z M35.964,152.113l8.915-6.862    l9.084,6.636l0.176,13.999l-6,0.075l-0.088-7l-6,0.076l0.088,6.999l-6,0.076L35.964,152.113z"/>
	</g>
	
    </g>
</svg>
