<?xml version="1.0" encoding="iso-8859-1"?>
<!DOCTYPE svg PUBLIC "-//W3C//DTD SVG 1.1//EN" "http://www.w3.org/Graphics/SVG/1.1/DTD/svg11.dtd">
<svg version="1.1" xmlns="http://www.w3.org/2000/svg" xmlns:xlink="http://www.w3.org/1999/xlink" x="0px" y="0px" width="30" height="30" viewBox="0 0 30 30" xml:space="preserve">
    <g transform="translate(-570 -260)">
        <g xmlns="http://www.w3.org/2000/svg" xmlns:xlink="http://www.w3.org/1999/xlink" id="land-7">
		<polygon points="593,277 589,277 589,278 592.434,278 597.234,286 572.766,286 577.566,278 586,278 586,277 577,277 571,287     599,287   "/>
		<path d="M588,282v-8.073c0.633,0.658,1.514,1.073,2.5,1.073c1.933,0,3.5-1.567,3.5-3.5c0-1.884-1.492-3.409-3.357-3.485    c0.222-0.46,0.357-0.97,0.357-1.515c0-1.933-1.567-3.5-3.5-3.5s-3.5,1.567-3.5,3.5c0,0.545,0.136,1.055,0.357,1.515    c-1.865,0.076-3.357,1.602-3.357,3.485c0,1.933,1.567,3.5,3.5,3.5c0.986,0,1.867-0.415,2.5-1.073V282H588z M586.641,272.766    c-0.46,0.772-1.26,1.234-2.141,1.234c-1.379,0-2.5-1.121-2.5-2.5c0-1.339,1.054-2.432,2.398-2.486l1.521-0.062l-0.661-1.372    c-0.171-0.355-0.258-0.719-0.258-1.08c0-1.379,1.121-2.5,2.5-2.5s2.5,1.121,2.5,2.5c0,0.361-0.087,0.725-0.258,1.08l-0.661,1.372    l1.521,0.062c1.345,0.055,2.398,1.147,2.398,2.486c0,1.379-1.121,2.5-2.5,2.5c-0.881,0-1.681-0.462-2.141-1.234l-0.859-1.447    L586.641,272.766z"/>
	</g>
	
    </g>
</svg>
