<?xml version="1.0" encoding="iso-8859-1"?>
<!DOCTYPE svg PUBLIC "-//W3C//DTD SVG 1.1//EN" "http://www.w3.org/Graphics/SVG/1.1/DTD/svg11.dtd">
<svg version="1.1" xmlns="http://www.w3.org/2000/svg" xmlns:xlink="http://www.w3.org/1999/xlink" x="0px" y="0px" width="48" height="30" viewBox="0 0 48 30" xml:space="preserve">
    <g transform="translate(-510 -80)">
        <g xmlns="http://www.w3.org/2000/svg" xmlns:xlink="http://www.w3.org/1999/xlink" id="metropolitan-7">
		<path d="M555,103h-2v-5h-1v-1h-6v-7h-5v4h-5v7h-1V87h-1v-2h-2v-1h-1v-3h-1v3h-1v1h-2v2h-1v10h-1v-5h-1v-2h-4v2h-3v10h-3v5h-2v1h44    v-1h-1V103z M524,107h-6V93h6V107z M534,107h-7V88h1v-2h2v-1h1v1h2v2h1V107z M543,107h-6V95h6V107z M552,107h-6v-8h1v-1h4v1h1V107    z"/>
		<rect x="529" y="90" width="3" height="1"/>
		<rect x="529" y="94" width="3" height="1"/>
		<rect x="529" y="98" width="3" height="1"/>
		<rect x="529" y="102" width="3" height="1"/>
		<rect x="548" y="101" width="2" height="1"/>
		<rect x="548" y="104" width="2" height="1"/>
		<rect x="520" y="95" width="2" height="1"/>
		<rect x="520" y="98" width="2" height="1"/>
		<rect x="520" y="101" width="2" height="1"/>
		<rect x="520" y="104" width="2" height="1"/>
		<rect x="539" y="97" width="2" height="1"/>
		<rect x="539" y="100" width="2" height="1"/>
		<rect x="539" y="103" width="2" height="1"/>
	</g>
	
    </g>
</svg>
