<?xml version="1.0" encoding="iso-8859-1"?>
<!DOCTYPE svg PUBLIC "-//W3C//DTD SVG 1.1//EN" "http://www.w3.org/Graphics/SVG/1.1/DTD/svg11.dtd">
<svg version="1.1" xmlns="http://www.w3.org/2000/svg" xmlns:xlink="http://www.w3.org/1999/xlink" x="0px" y="0px" width="30" height="30" viewBox="0 0 30 30" xml:space="preserve">
    <g transform="translate(-270 -200)">
        <g xmlns="http://www.w3.org/2000/svg" xmlns:xlink="http://www.w3.org/1999/xlink" id="rural-house-7">
		<path d="M293.5,218c2.484,0,4.5-2.016,4.5-4.5c0-2.077-1.416-3.809-3.33-4.326c0.209-0.519,0.33-1.081,0.33-1.674    c0-2.484-2.016-4.5-4.5-4.5s-4.5,2.016-4.5,4.5c0,0.593,0.121,1.155,0.33,1.674c-1.162,0.314-2.136,1.08-2.725,2.096l0.85,0.531    c0.45-0.795,1.205-1.41,2.136-1.662l1.087-0.295l-0.42-1.044c-0.172-0.424-0.258-0.861-0.258-1.3c0-1.93,1.57-3.5,3.5-3.5    s3.5,1.57,3.5,3.5c0,0.438-0.086,0.876-0.258,1.3l-0.42,1.044l1.087,0.295c1.525,0.413,2.591,1.795,2.591,3.361    c0,1.93-1.57,3.5-3.5,3.5c-0.852,0-1.679-0.324-2.33-0.911l-0.27-0.243l-0.9,1.441V226h-3v-9.07l1.471,0.918l1.059-1.695    L281,210.82l-8.529,5.332l1.059,1.695L275,216.93V226h-2v1h24v-1h-6v-8.79C291.716,217.699,292.567,218,293.5,218z M282,226h-2v-4    h2V226z M286,226h-3v-5h-4v5h-3v-9.695l5-3.125l5,3.125V226z"/>
	</g>
	
    </g>
</svg>
