<?xml version="1.0" encoding="iso-8859-1"?>
<!DOCTYPE svg PUBLIC "-//W3C//DTD SVG 1.1//EN" "http://www.w3.org/Graphics/SVG/1.1/DTD/svg11.dtd">
<svg version="1.1" xmlns="http://www.w3.org/2000/svg" xmlns:xlink="http://www.w3.org/1999/xlink" x="0px" y="0px" width="30" height="30" viewBox="0 0 30 30" xml:space="preserve">
    <g transform="translate(-390 -80)">
        <g xmlns="http://www.w3.org/2000/svg" xmlns:xlink="http://www.w3.org/1999/xlink" id="shop-tick-7">
		<path d="M394.5,94.999c1.24,0,2.262-0.904,2.459-2.089c0.027,0.001,0.055,0.001,0.082,0c0.197,1.185,1.219,2.089,2.459,2.089    s2.262-0.904,2.459-2.089c0.027,0.001,0.055,0.001,0.082,0c0.197,1.185,1.219,2.089,2.459,2.089s2.262-0.904,2.459-2.089    c0.027,0.001,0.055,0.001,0.082,0c0.197,1.185,1.219,2.089,2.459,2.089s2.262-0.904,2.459-2.089c0.027,0.001,0.055,0.001,0.082,0    c0.197,1.185,1.219,2.089,2.459,2.089c1.381,0,2.5-1.119,2.5-2.5v-2.5l-4-5V82h-17v2.999l-4,5v2.5    C392,93.88,393.119,94.999,394.5,94.999z M397,82.999h15V85h-15V82.999z M396.479,86h16.041l2.399,3h-20.84L396.479,86z     M393,90.35l0.279-0.35h22.441L416,90.35v2.149c0,0.828-0.672,1.5-1.5,1.5s-1.5-0.672-1.5-1.5c0-0.553-0.447-1-1-1s-1,0.447-1,1    c0,0.828-0.672,1.5-1.5,1.5s-1.5-0.672-1.5-1.5c0-0.553-0.447-1-1-1s-1,0.447-1,1c0,0.828-0.672,1.5-1.5,1.5s-1.5-0.672-1.5-1.5    c0-0.553-0.447-1-1-1s-1,0.447-1,1c0,0.828-0.672,1.5-1.5,1.5s-1.5-0.672-1.5-1.5c0-0.553-0.447-1-1-1s-1,0.447-1,1    c0,0.828-0.672,1.5-1.5,1.5s-1.5-0.672-1.5-1.5V90.35z"/>
		<path d="M396,104h8v-6h-8V104z M397,99h6v4h-6V99z"/>
		<path d="M412.5,110c4.143,0,7.5-3.358,7.5-7.5s-3.357-7.5-7.5-7.5s-7.5,3.358-7.5,7.5c0,1.691,0.566,3.246,1.51,4.5H394V95.999h-1    V107h-1v1h15.413C408.75,109.237,410.534,110,412.5,110z M412.5,96c3.59,0,6.5,2.91,6.5,6.5s-2.91,6.5-6.5,6.5s-6.5-2.91-6.5-6.5    S408.91,96,412.5,96z"/>
		<polygon points="411.086,104.268 408.965,102.146 408.258,102.854 411.086,105.682 416.742,100.025 416.035,99.318   "/>
	</g>
	
    </g>
</svg>
