<?xml version="1.0" encoding="iso-8859-1"?>
<!DOCTYPE svg PUBLIC "-//W3C//DTD SVG 1.1//EN" "http://www.w3.org/Graphics/SVG/1.1/DTD/svg11.dtd">
<svg version="1.1" xmlns="http://www.w3.org/2000/svg" xmlns:xlink="http://www.w3.org/1999/xlink" x="0px" y="0px" width="29" height="30" viewBox="0 0 29 30" xml:space="preserve">
    <g transform="translate(-270 -80)">
        <g xmlns="http://www.w3.org/2000/svg" xmlns:xlink="http://www.w3.org/1999/xlink" id="shop-7">
		<path d="M274.5,94.999c1.24,0,2.262-0.904,2.459-2.089c0.027,0.001,0.055,0.001,0.082,0c0.197,1.185,1.219,2.089,2.459,2.089    s2.262-0.904,2.459-2.089c0.027,0.001,0.055,0.001,0.082,0c0.197,1.185,1.219,2.089,2.459,2.089s2.262-0.904,2.459-2.089    c0.027,0.001,0.055,0.001,0.082,0c0.197,1.185,1.219,2.089,2.459,2.089s2.262-0.904,2.459-2.089c0.027,0.001,0.055,0.001,0.082,0    c0.197,1.185,1.219,2.089,2.459,2.089c1.381,0,2.5-1.119,2.5-2.5v-2.5l-4-5V82h-17v2.999l-4,5v2.5    C272,93.88,273.119,94.999,274.5,94.999z M277,82.999h15V85h-15V82.999z M276.479,86h16.041l2.399,3h-20.84L276.479,86z     M273,90.35l0.279-0.35h22.441L296,90.35v2.149c0,0.828-0.672,1.5-1.5,1.5s-1.5-0.672-1.5-1.5c0-0.553-0.447-1-1-1s-1,0.447-1,1    c0,0.828-0.672,1.5-1.5,1.5s-1.5-0.672-1.5-1.5c0-0.553-0.447-1-1-1s-1,0.447-1,1c0,0.828-0.672,1.5-1.5,1.5s-1.5-0.672-1.5-1.5    c0-0.553-0.447-1-1-1s-1,0.447-1,1c0,0.828-0.672,1.5-1.5,1.5s-1.5-0.672-1.5-1.5c0-0.553-0.447-1-1-1s-1,0.447-1,1    c0,0.828-0.672,1.5-1.5,1.5s-1.5-0.672-1.5-1.5V90.35z"/>
		<path d="M297,107h-1V95.999h-1V107h-2v-9h-7v9h-12V95.999h-1V107h-1v1h25V107z M292,107h-5v-8.001h5V107z"/>
		<path d="M276,104h8v-6h-8V104z M277,99h6v4h-6V99z"/>
	</g>
	
    </g>
</svg>
