<?xml version="1.0" encoding="iso-8859-1"?>
<!DOCTYPE svg PUBLIC "-//W3C//DTD SVG 1.1//EN" "http://www.w3.org/Graphics/SVG/1.1/DTD/svg11.dtd">
<svg version="1.1" xmlns="http://www.w3.org/2000/svg" xmlns:xlink="http://www.w3.org/1999/xlink" x="0px" y="0px" width="30" height="30" viewBox="0 0 30 30" xml:space="preserve">
    <g transform="translate(-330 -80)">
        <g xmlns="http://www.w3.org/2000/svg" xmlns:xlink="http://www.w3.org/1999/xlink" id="shop-star-7">
		<path d="M334.5,94.999c1.24,0,2.262-0.904,2.459-2.089c0.027,0.001,0.055,0.001,0.082,0c0.197,1.185,1.219,2.089,2.459,2.089    s2.262-0.904,2.459-2.089c0.027,0.001,0.055,0.001,0.082,0c0.197,1.185,1.219,2.089,2.459,2.089s2.262-0.904,2.459-2.089    c0.027,0.001,0.055,0.001,0.082,0c0.197,1.185,1.219,2.089,2.459,2.089s2.262-0.904,2.459-2.089c0.027,0.001,0.055,0.001,0.082,0    c0.197,1.185,1.219,2.089,2.459,2.089c1.381,0,2.5-1.119,2.5-2.5v-2.5l-4-5V82h-17v2.999l-4,5v2.5    C332,93.88,333.119,94.999,334.5,94.999z M337,82.999h15V85h-15V82.999z M336.479,86h16.041l2.399,3h-20.84L336.479,86z     M333,90.35l0.279-0.35h22.441L356,90.35v2.149c0,0.828-0.672,1.5-1.5,1.5s-1.5-0.672-1.5-1.5c0-0.553-0.447-1-1-1s-1,0.447-1,1    c0,0.828-0.672,1.5-1.5,1.5s-1.5-0.672-1.5-1.5c0-0.553-0.447-1-1-1s-1,0.447-1,1c0,0.828-0.672,1.5-1.5,1.5s-1.5-0.672-1.5-1.5    c0-0.553-0.447-1-1-1s-1,0.447-1,1c0,0.828-0.672,1.5-1.5,1.5s-1.5-0.672-1.5-1.5c0-0.553-0.447-1-1-1s-1,0.447-1,1    c0,0.828-0.672,1.5-1.5,1.5s-1.5-0.672-1.5-1.5V90.35z"/>
		<path d="M336,104h8v-6h-8V104z M337,99h6v4h-6V99z"/>
		<path d="M352.5,95c-4.143,0-7.5,3.358-7.5,7.5c0,1.691,0.566,3.246,1.51,4.5H334V95.999h-1V107h-1v1h15.413    c1.337,1.237,3.121,2,5.087,2c4.143,0,7.5-3.358,7.5-7.5S356.643,95,352.5,95z M352.5,109c-3.59,0-6.5-2.91-6.5-6.5    s2.91-6.5,6.5-6.5s6.5,2.91,6.5,6.5S356.09,109,352.5,109z"/>
		<polygon points="353.568,101 352.5,97.785 351.43,101 348,101 350.768,103.079 349.717,106.344 352.5,104.336 355.278,106.344     354.23,103.079 357,101   "/>
	</g>
	
    </g>
</svg>
