<?xml version="1.0" encoding="iso-8859-1"?>
<!DOCTYPE svg PUBLIC "-//W3C//DTD SVG 1.1//EN" "http://www.w3.org/Graphics/SVG/1.1/DTD/svg11.dtd">
<svg version="1.1" xmlns="http://www.w3.org/2000/svg" xmlns:xlink="http://www.w3.org/1999/xlink" x="0px" y="0px" width="29" height="30" viewBox="0 0 29 30" xml:space="preserve">
    <g transform="translate(-450 -80)">
        <g xmlns="http://www.w3.org/2000/svg" xmlns:xlink="http://www.w3.org/1999/xlink" id="shop-7-off">
		<path d="M454.704,86.619L452,89.999v2.5c0,1.381,1.119,2.5,2.5,2.5c1.24,0,2.262-0.904,2.459-2.089    c0.027,0.001,0.055,0.001,0.082,0c0.197,1.185,1.219,2.089,2.459,2.089c0.972,0,1.803-0.56,2.215-1.37l-0.765-0.765    c-0.164,0.651-0.749,1.135-1.45,1.135c-0.828,0-1.5-0.672-1.5-1.5c0-0.553-0.447-1-1-1s-1,0.447-1,1c0,0.828-0.672,1.5-1.5,1.5    s-1.5-0.672-1.5-1.5V90.35l0.279-0.35h4.807l-1-1h-3.006l1.336-1.67L454.704,86.619z"/>
		<polygon points="477,107.957 476.957,108 477,108   "/>
		<polygon points="452,108 476.086,108 475,106.914 475,107 473,107 473,104.914 472,103.914 472,107 467,107 467,98.999     467.085,98.999 466.086,98 466,98 466,107 454,107 454,95.999 453,95.999 453,107 452,107   "/>
		<path d="M456,104h8v-6h-8V104z M457,99h6v4h-6V99z"/>
		<path d="M477.936,107.021L476,105.085v-9.086h-1v8.086l-2-2V98h-4.086l-3.282-3.282c0.689-0.354,1.195-1.015,1.327-1.808    c0.027,0.001,0.055,0.001,0.082,0c0.197,1.185,1.219,2.089,2.459,2.089s2.262-0.904,2.459-2.089c0.027,0.001,0.055,0.001,0.082,0    c0.197,1.185,1.219,2.089,2.459,2.089c1.381,0,2.5-1.119,2.5-2.5v-2.5l-4-5V82h-17v2.999l-0.039,0.048l-3.482-3.482l-0.707,0.707    l25.457,25.456L477.936,107.021z M457,82.999h15V85h-15V82.999z M456.914,86h15.606l2.399,3h-15.006L456.914,86z M462.711,91.796    c-0.003-0.002-0.006-0.005-0.009-0.008L460.914,90h14.807L476,90.35v2.149c0,0.828-0.672,1.5-1.5,1.5s-1.5-0.672-1.5-1.5    c0-0.553-0.447-1-1-1s-1,0.447-1,1c0,0.828-0.672,1.5-1.5,1.5s-1.5-0.672-1.5-1.5c0-0.553-0.447-1-1-1s-1,0.447-1,1    c0,0.702-0.484,1.287-1.137,1.45L462.711,91.796z M472,101.086l-2.087-2.087H472V101.086z"/>
	</g>
	
    </g>
</svg>
