<?xml version="1.0" encoding="iso-8859-1"?>
<!DOCTYPE svg PUBLIC "-//W3C//DTD SVG 1.1//EN" "http://www.w3.org/Graphics/SVG/1.1/DTD/svg11.dtd">
<svg version="1.1" xmlns="http://www.w3.org/2000/svg" xmlns:xlink="http://www.w3.org/1999/xlink" x="0px" y="0px" width="30" height="30" viewBox="0 0 30 30" xml:space="preserve">
    <g transform="translate(-510 -200)">
        <g xmlns="http://www.w3.org/2000/svg" xmlns:xlink="http://www.w3.org/1999/xlink" id="windmill-7">
		<polygon points="522.293,218.949 521.143,227 519,227 519,228 521,228 525,228 529,228 531,228 531,227 528.857,227     527.707,218.949 526.528,217.771 526.847,220 525,220 525,221 526.99,221 527.847,227 522.153,227 522.582,224 525,224 525,223     522.725,223 523.472,217.771   "/>
		<path d="M517.222,222.606l7.623-7.622c0.052,0.003,0.102,0.016,0.155,0.016s0.104-0.013,0.155-0.016l7.623,7.622l2.828-2.828    l-7.622-7.622c0.003-0.053,0.016-0.103,0.016-0.156c0-0.053-0.013-0.103-0.016-0.154l0.552-0.553l7.07-7.071l-2.828-2.828    l-7.622,7.622C525.104,209.014,525.054,209,525,209s-0.104,0.013-0.155,0.016l-7.623-7.622l-2.828,2.828l7.071,7.071l0.551,0.551    C522.013,211.896,522,211.946,522,212s0.013,0.104,0.016,0.156l-7.622,7.622L517.222,222.606z M534.192,219.778l-1.414,1.414    l-6.492-6.492c0.619-0.296,1.118-0.794,1.414-1.414L534.192,219.778z M532.778,202.809l1.414,1.413l-6.492,6.493    c-0.296-0.62-0.794-1.119-1.414-1.415L532.778,202.809z M525,210c1.104,0,2,0.896,2,2s-0.896,2-2,2s-2-0.896-2-2    S523.896,210,525,210z M515.808,204.222l1.414-1.414l6.492,6.492c-0.619,0.296-1.118,0.794-1.414,1.414L515.808,204.222z     M522.3,213.286c0.296,0.62,0.795,1.118,1.414,1.414l-6.492,6.492l-1.414-1.414L522.3,213.286z"/>
	</g>
	
    </g>
</svg>
