<?xml version="1.0" encoding="iso-8859-1"?>
<!DOCTYPE svg PUBLIC "-//W3C//DTD SVG 1.1//EN" "http://www.w3.org/Graphics/SVG/1.1/DTD/svg11.dtd">
<svg version="1.1" xmlns="http://www.w3.org/2000/svg" xmlns:xlink="http://www.w3.org/1999/xlink" x="0px" y="0px" width="30" height="30" viewBox="0 0 30 30" xml:space="preserve">
    <g transform="translate(-30 -500)">
        <g xmlns="http://www.w3.org/2000/svg" xmlns:xlink="http://www.w3.org/1999/xlink" id="_x31_0-around-7">
		<path d="M57.514,514.998l1.734-4.675l-2,0.34C55.427,505.532,50.49,502,45,502c-7.168,0-13,5.832-13,13s5.832,13,13,13    c5.987,0,11.172-4.063,12.607-9.88l-0.971-0.24C55.312,523.25,50.526,527,45,527c-6.617,0-12-5.383-12-12s5.383-12,12-12    c5.01,0,9.523,3.186,11.25,7.832l-1.917,0.326L57.514,514.998z"/>
		<path d="M40.12,520l2.679-10h-0.917c-0.167,0.377-0.372,0.687-0.618,0.932c-0.242,0.243-0.514,0.437-0.81,0.578    c-0.296,0.141-0.61,0.237-0.945,0.289c-0.332,0.052-0.669,0.076-1.007,0.076l-0.258,0.96h2.596L38.92,520H40.12z"/>
		<path d="M50.621,510.222c-0.326-0.148-0.744-0.222-1.254-0.222s-0.967,0.073-1.371,0.222c-0.406,0.149-0.762,0.348-1.07,0.598    s-0.576,0.542-0.805,0.875c-0.227,0.333-0.428,0.685-0.602,1.056c-0.172,0.371-0.32,0.75-0.443,1.139    c-0.123,0.39-0.232,0.764-0.33,1.125c-0.096,0.361-0.188,0.736-0.271,1.125c-0.088,0.389-0.143,0.769-0.168,1.14    c-0.025,0.369-0.014,0.72,0.037,1.048c0.053,0.329,0.164,0.618,0.338,0.868c0.174,0.251,0.424,0.447,0.752,0.591    c0.326,0.144,0.744,0.215,1.254,0.215c0.52,0,0.979-0.071,1.377-0.215c0.4-0.144,0.754-0.34,1.063-0.591    c0.307-0.25,0.574-0.539,0.801-0.868c0.229-0.328,0.428-0.679,0.602-1.048c0.174-0.371,0.32-0.751,0.443-1.14    s0.232-0.764,0.33-1.125c0.096-0.361,0.188-0.735,0.273-1.125c0.086-0.389,0.141-0.768,0.166-1.139s0.014-0.723-0.037-1.056    c-0.049-0.333-0.162-0.625-0.334-0.875C51.197,510.569,50.947,510.371,50.621,510.222z M50.428,513.326    c-0.037,0.292-0.092,0.584-0.164,0.875c-0.074,0.292-0.143,0.559-0.207,0.798c-0.1,0.371-0.223,0.786-0.369,1.244    c-0.145,0.459-0.336,0.89-0.568,1.292s-0.525,0.742-0.877,1.021c-0.354,0.278-0.779,0.417-1.279,0.417    c-0.498,0-0.85-0.139-1.055-0.417c-0.203-0.278-0.313-0.618-0.33-1.021s0.023-0.833,0.125-1.292    c0.098-0.458,0.197-0.873,0.297-1.244c0.064-0.239,0.139-0.506,0.221-0.798c0.082-0.291,0.186-0.583,0.305-0.875    c0.119-0.291,0.256-0.576,0.41-0.854c0.152-0.277,0.334-0.521,0.543-0.729c0.207-0.208,0.445-0.378,0.711-0.508    c0.266-0.129,0.566-0.194,0.898-0.194c0.334,0,0.6,0.065,0.797,0.194c0.195,0.13,0.342,0.3,0.441,0.508    c0.096,0.208,0.146,0.451,0.15,0.729C50.48,512.75,50.465,513.035,50.428,513.326z"/>
	</g>
	
    </g>
</svg>
