<?xml version="1.0" encoding="iso-8859-1"?>
<!DOCTYPE svg PUBLIC "-//W3C//DTD SVG 1.1//EN" "http://www.w3.org/Graphics/SVG/1.1/DTD/svg11.dtd">
<svg version="1.1" xmlns="http://www.w3.org/2000/svg" xmlns:xlink="http://www.w3.org/1999/xlink" x="0px" y="0px" width="30" height="30" viewBox="0 0 30 30" xml:space="preserve">
    <g transform="translate(-150 -440)">
        <g xmlns="http://www.w3.org/2000/svg" xmlns:xlink="http://www.w3.org/1999/xlink" id="_x31_2-around-7">
		<path d="M165,442c-7.168,0-13,5.832-13,13s5.832,13,13,13c5.987,0,11.172-4.063,12.607-9.88l-0.971-0.24    c-1.325,5.37-6.11,9.12-11.637,9.12c-6.617,0-12-5.383-12-12s5.383-12,12-12c5.01,0,9.523,3.186,11.25,7.832l-1.917,0.326    l3.181,3.84l1.734-4.675l-2,0.34C175.427,445.532,170.49,442,165,442z"/>
		<path d="M160.199,460l2.68-10h-0.917c-0.167,0.377-0.372,0.687-0.616,0.931c-0.244,0.245-0.515,0.438-0.811,0.579    c-0.297,0.141-0.611,0.237-0.945,0.289s-0.67,0.077-1.008,0.077l-0.258,0.959h2.596L159,460H160.199z"/>
		<path d="M166.461,457.447c0.314-0.207,0.65-0.401,1.012-0.586c0.358-0.184,0.719-0.368,1.08-0.557    c0.361-0.197,0.719-0.404,1.067-0.62c0.35-0.216,0.673-0.458,0.972-0.728c0.297-0.267,0.559-0.571,0.786-0.91    c0.228-0.337,0.399-0.728,0.519-1.169c0.125-0.471,0.154-0.884,0.085-1.242c-0.068-0.357-0.212-0.655-0.429-0.896    c-0.219-0.24-0.501-0.424-0.848-0.55c-0.348-0.127-0.736-0.19-1.17-0.19c-0.526,0-1.02,0.09-1.48,0.268    c-0.463,0.179-0.875,0.426-1.236,0.74c-0.361,0.315-0.667,0.689-0.913,1.121c-0.249,0.434-0.426,0.903-0.534,1.411h1.199    c0.071-0.301,0.182-0.6,0.332-0.896c0.148-0.296,0.336-0.563,0.559-0.797c0.223-0.235,0.479-0.426,0.768-0.571    c0.287-0.146,0.605-0.219,0.953-0.219c0.264,0,0.501,0.042,0.714,0.127c0.212,0.085,0.384,0.207,0.516,0.366    c0.13,0.16,0.218,0.352,0.263,0.571c0.044,0.222,0.029,0.469-0.043,0.74c-0.094,0.349-0.23,0.654-0.408,0.918    c-0.179,0.263-0.403,0.507-0.676,0.733c-0.272,0.226-0.598,0.448-0.977,0.67c-0.38,0.221-0.815,0.463-1.309,0.726    c-0.404,0.208-0.797,0.428-1.18,0.663s-0.742,0.508-1.08,0.818c-0.336,0.311-0.644,0.676-0.92,1.093    c-0.276,0.419-0.518,0.925-0.724,1.517h6.53l0.283-1.059h-5.134c0.14-0.31,0.333-0.585,0.581-0.824    S166.146,457.654,166.461,457.447z"/>
	</g>
	
    </g>
</svg>
