<?xml version="1.0" encoding="iso-8859-1"?>
<!DOCTYPE svg PUBLIC "-//W3C//DTD SVG 1.1//EN" "http://www.w3.org/Graphics/SVG/1.1/DTD/svg11.dtd">
<svg version="1.1" xmlns="http://www.w3.org/2000/svg" xmlns:xlink="http://www.w3.org/1999/xlink" x="0px" y="0px" width="30" height="30" viewBox="0 0 30 30" xml:space="preserve">
    <g transform="translate(-570 -440)">
        <g xmlns="http://www.w3.org/2000/svg" xmlns:xlink="http://www.w3.org/1999/xlink" id="_x31_5-around-7">
		<path d="M597.514,454.998l1.734-4.675l-2,0.34C595.428,445.532,590.49,442,585,442c-7.168,0-13,5.832-13,13s5.832,13,13,13    c5.988,0,11.172-4.063,12.607-9.88l-0.971-0.24c-1.324,5.37-6.109,9.12-11.637,9.12c-6.617,0-12-5.383-12-12s5.383-12,12-12    c5.01,0,9.523,3.186,11.25,7.832l-1.916,0.326L597.514,454.998z"/>
		<path d="M579.846,459.848l2.639-9.848h-0.902c-0.164,0.371-0.367,0.676-0.607,0.917c-0.24,0.24-0.506,0.431-0.799,0.569    c-0.291,0.139-0.602,0.234-0.93,0.285s-0.658,0.075-0.992,0.075L578,452.792h2.557l-1.891,7.056H579.846z"/>
		<path d="M591.467,451.208l0.279-1.042h-4.861l-2.287,5.111l1,0.056c0.305-0.277,0.631-0.502,0.979-0.674    c0.346-0.171,0.715-0.257,1.104-0.257c0.334,0,0.623,0.056,0.865,0.168c0.244,0.11,0.436,0.266,0.576,0.464    c0.143,0.199,0.229,0.436,0.262,0.709s0.008,0.572-0.078,0.896c-0.105,0.39-0.252,0.729-0.441,1.021s-0.404,0.535-0.646,0.729    s-0.504,0.34-0.785,0.438c-0.279,0.097-0.561,0.146-0.838,0.146c-0.297,0-0.555-0.044-0.775-0.133    c-0.223-0.088-0.402-0.212-0.539-0.375c-0.137-0.161-0.23-0.352-0.279-0.568c-0.049-0.218-0.047-0.452,0.002-0.702h-1.182    c-0.109,0.444-0.129,0.844-0.055,1.195c0.07,0.352,0.221,0.646,0.443,0.881c0.223,0.236,0.506,0.418,0.848,0.542    c0.342,0.125,0.725,0.188,1.15,0.188c0.574,0,1.1-0.091,1.58-0.271c0.479-0.181,0.902-0.424,1.273-0.729    c0.367-0.306,0.676-0.654,0.924-1.048c0.25-0.394,0.432-0.8,0.543-1.217c0.15-0.563,0.199-1.057,0.145-1.479    c-0.053-0.421-0.186-0.772-0.396-1.056c-0.213-0.282-0.494-0.492-0.846-0.632c-0.352-0.139-0.742-0.208-1.178-0.208    c-0.334,0-0.686,0.058-1.055,0.173c-0.369,0.117-0.691,0.294-0.969,0.535l-0.021-0.027l1.287-2.834H591.467z"/>
	</g>
	
    </g>
</svg>
