<?xml version="1.0" encoding="iso-8859-1"?>
<!DOCTYPE svg PUBLIC "-//W3C//DTD SVG 1.1//EN" "http://www.w3.org/Graphics/SVG/1.1/DTD/svg11.dtd">
<svg version="1.1" xmlns="http://www.w3.org/2000/svg" xmlns:xlink="http://www.w3.org/1999/xlink" x="0px" y="0px" width="30" height="30" viewBox="0 0 30 30" xml:space="preserve">
    <g transform="translate(-90 -440)">
        <g xmlns="http://www.w3.org/2000/svg" xmlns:xlink="http://www.w3.org/1999/xlink" id="_x31_8-around-7">
		<path d="M105,442c-7.168,0-13,5.832-13,13s5.832,13,13,13c5.987,0,11.172-4.063,12.607-9.88l-0.971-0.24    c-1.325,5.37-6.11,9.12-11.637,9.12c-6.617,0-12-5.383-12-12s5.383-12,12-12c5.01,0,9.523,3.186,11.25,7.832l-1.917,0.326    l3.181,3.84l1.734-4.675l-2,0.34C115.427,445.532,110.49,442,105,442z"/>
		<path d="M100.109,460l2.68-10h-0.916c-0.168,0.377-0.372,0.687-0.617,0.932c-0.243,0.243-0.514,0.437-0.811,0.578    c-0.296,0.141-0.611,0.237-0.945,0.289c-0.333,0.052-0.668,0.076-1.008,0.076l-0.257,0.96h2.595L98.911,460H100.109z"/>
		<path d="M111.637,452.514c0.084-0.314,0.111-0.623,0.081-0.923c-0.03-0.301-0.132-0.57-0.305-0.807s-0.431-0.426-0.771-0.569    c-0.342-0.144-0.78-0.215-1.317-0.215c-0.38,0-0.758,0.056-1.135,0.166c-0.377,0.112-0.729,0.273-1.054,0.486    c-0.327,0.214-0.608,0.475-0.85,0.785c-0.241,0.31-0.416,0.67-0.524,1.076c-0.119,0.444-0.104,0.854,0.046,1.229    c0.149,0.376,0.409,0.646,0.782,0.813c-0.607,0.194-1.117,0.507-1.529,0.938s-0.695,0.938-0.852,1.521    c-0.135,0.501-0.166,0.938-0.096,1.313c0.072,0.375,0.224,0.688,0.458,0.938c0.233,0.25,0.538,0.436,0.913,0.556    c0.375,0.121,0.799,0.181,1.271,0.181c0.453,0,0.896-0.064,1.33-0.194c0.432-0.129,0.829-0.321,1.189-0.576    c0.359-0.255,0.674-0.567,0.945-0.938c0.271-0.371,0.471-0.797,0.6-1.278c0.163-0.61,0.158-1.127-0.016-1.549    c-0.174-0.421-0.533-0.725-1.076-0.909c0.467-0.186,0.871-0.461,1.215-0.827C111.286,453.364,111.518,452.958,111.637,452.514z     M109.559,457.056c-0.074,0.278-0.191,0.532-0.35,0.764c-0.16,0.232-0.353,0.434-0.579,0.604    c-0.227,0.172-0.476,0.307-0.747,0.404c-0.271,0.097-0.555,0.146-0.852,0.146c-0.611,0-1.068-0.17-1.371-0.508    s-0.375-0.803-0.217-1.396c0.077-0.286,0.2-0.546,0.369-0.778c0.168-0.23,0.369-0.431,0.604-0.597    c0.234-0.167,0.491-0.294,0.77-0.382s0.561-0.132,0.848-0.132c0.278,0,0.527,0.048,0.746,0.146s0.398,0.229,0.54,0.396    c0.14,0.167,0.233,0.364,0.279,0.591C109.644,456.54,109.631,456.787,109.559,457.056z M110.375,452.556    c-0.133,0.5-0.391,0.889-0.771,1.167c-0.38,0.277-0.806,0.417-1.278,0.417c-0.24,0-0.459-0.033-0.654-0.098    c-0.195-0.065-0.354-0.163-0.477-0.292c-0.123-0.13-0.205-0.293-0.244-0.493c-0.039-0.199-0.022-0.434,0.049-0.701    c0.067-0.25,0.172-0.468,0.314-0.653s0.307-0.343,0.494-0.473c0.188-0.129,0.396-0.226,0.627-0.291    c0.23-0.064,0.461-0.098,0.693-0.098c0.48,0,0.843,0.128,1.085,0.382C110.455,451.679,110.51,452.055,110.375,452.556z"/>
	</g>
	
    </g>
</svg>
