<?xml version="1.0" encoding="iso-8859-1"?>
<!DOCTYPE svg PUBLIC "-//W3C//DTD SVG 1.1//EN" "http://www.w3.org/Graphics/SVG/1.1/DTD/svg11.dtd">
<svg version="1.1" xmlns="http://www.w3.org/2000/svg" xmlns:xlink="http://www.w3.org/1999/xlink" x="0px" y="0px" width="30" height="30" viewBox="0 0 30 30" xml:space="preserve">
    <g transform="translate(-150 -500)">
        <g xmlns="http://www.w3.org/2000/svg" xmlns:xlink="http://www.w3.org/1999/xlink" id="_x32_4-7-around-7">
		<path d="M174.186,505.801c-5.068-5.068-13.315-5.068-18.385,0c-5.068,5.068-5.068,13.316,0,18.385    c4.234,4.234,10.773,5.027,15.901,1.93l-0.517-0.857c-4.734,2.861-10.77,2.129-14.678-1.779c-4.678-4.678-4.678-12.291,0-16.971    c4.68-4.678,12.292-4.678,16.971,0c3.543,3.543,4.482,8.988,2.418,13.494l-1.587-1.125l-0.466,4.965l4.531-2.08l-1.654-1.174    C179.062,515.672,178.068,509.684,174.186,505.801z"/>
		<path d="M156.672,516.214c0.22-0.146,0.456-0.282,0.707-0.41c0.252-0.129,0.504-0.258,0.756-0.39    c0.254-0.139,0.504-0.284,0.749-0.436c0.244-0.15,0.471-0.32,0.679-0.508s0.393-0.4,0.551-0.637    c0.159-0.237,0.279-0.51,0.363-0.819c0.088-0.329,0.107-0.619,0.06-0.87c-0.048-0.249-0.147-0.459-0.301-0.626    c-0.153-0.168-0.351-0.296-0.593-0.386c-0.243-0.088-0.516-0.133-0.818-0.133c-0.369,0-0.715,0.063-1.037,0.187    c-0.324,0.126-0.611,0.299-0.865,0.519c-0.253,0.221-0.467,0.483-0.64,0.785c-0.173,0.303-0.298,0.633-0.374,0.988h0.84    c0.05-0.211,0.127-0.42,0.232-0.627c0.104-0.207,0.235-0.395,0.391-0.559c0.156-0.164,0.336-0.297,0.537-0.399    c0.201-0.102,0.424-0.153,0.668-0.153c0.185,0,0.351,0.03,0.5,0.089c0.148,0.06,0.268,0.146,0.36,0.257    c0.091,0.112,0.153,0.246,0.185,0.399c0.03,0.155,0.02,0.328-0.031,0.519c-0.064,0.244-0.16,0.458-0.285,0.642    c-0.125,0.185-0.283,0.355-0.474,0.514c-0.189,0.158-0.417,0.314-0.683,0.47c-0.266,0.153-0.571,0.323-0.916,0.508    c-0.283,0.145-0.559,0.3-0.825,0.464c-0.269,0.165-0.521,0.355-0.757,0.573c-0.235,0.217-0.45,0.473-0.645,0.765    c-0.193,0.294-0.361,0.646-0.506,1.062h4.571l0.198-0.74h-3.594c0.098-0.218,0.232-0.41,0.406-0.578    C156.256,516.515,156.451,516.358,156.672,516.214z"/>
		<path d="M163.622,518l0.438-1.64h0.948l0.198-0.739h-0.947l1.238-4.621h-0.672l-4.408,4.552l-0.218,0.809h3.071l-0.439,1.64    H163.622z M161.119,515.621l3.248-3.426h0.02l-0.918,3.426H161.119z"/>
		<path d="M174.723,511.732L174.92,511h-4.609l-0.216,0.803h3.735c-0.48,0.396-0.946,0.828-1.396,1.296    c-0.451,0.47-0.87,0.966-1.259,1.491c-0.389,0.526-0.738,1.076-1.049,1.647c-0.311,0.573-0.566,1.16-0.769,1.763h0.954    c0.182-0.556,0.43-1.128,0.741-1.717s0.664-1.161,1.058-1.717c0.393-0.557,0.813-1.078,1.258-1.566    C173.814,512.511,174.267,512.088,174.723,511.732z"/>
		<polygon points="170.25,508 169.236,508 164.792,521 165.792,521   "/>
	</g>
	
    </g>
</svg>
