<?xml version="1.0" encoding="iso-8859-1"?>
<!DOCTYPE svg PUBLIC "-//W3C//DTD SVG 1.1//EN" "http://www.w3.org/Graphics/SVG/1.1/DTD/svg11.dtd">
<svg version="1.1" xmlns="http://www.w3.org/2000/svg" xmlns:xlink="http://www.w3.org/1999/xlink" x="0px" y="0px" width="30" height="30" viewBox="0 0 30 30" xml:space="preserve">
    <g transform="translate(-30 -440)">
        <g xmlns="http://www.w3.org/2000/svg" xmlns:xlink="http://www.w3.org/1999/xlink" id="_x32_4-around-7">
		<path d="M45,442c-7.168,0-13,5.832-13,13s5.832,13,13,13c5.987,0,11.172-4.063,12.607-9.88l-0.971-0.24    C55.312,463.25,50.526,467,45,467c-6.617,0-12-5.383-12-12s5.383-12,12-12c5.01,0,9.523,3.186,11.25,7.832l-1.917,0.326    l3.181,3.84l1.734-4.675l-2,0.34C55.427,445.532,50.49,442,45,442z"/>
		<path d="M39.703,457.447c0.313-0.207,0.65-0.401,1.01-0.586c0.359-0.184,0.72-0.368,1.08-0.557c0.363-0.197,0.72-0.404,1.069-0.62    c0.349-0.216,0.673-0.458,0.97-0.727c0.298-0.268,0.561-0.572,0.787-0.911c0.228-0.337,0.4-0.728,0.519-1.169    c0.126-0.471,0.154-0.884,0.085-1.242c-0.068-0.357-0.211-0.655-0.43-0.896c-0.217-0.24-0.5-0.424-0.847-0.55    C43.6,450.063,43.21,450,42.777,450c-0.526,0-1.021,0.09-1.482,0.268c-0.461,0.179-0.873,0.426-1.234,0.74    c-0.362,0.315-0.667,0.689-0.914,1.121c-0.248,0.434-0.426,0.903-0.533,1.411h1.198c0.071-0.301,0.183-0.6,0.332-0.896    s0.335-0.563,0.56-0.797c0.223-0.235,0.479-0.426,0.766-0.571c0.289-0.146,0.606-0.219,0.955-0.219    c0.263,0,0.501,0.042,0.713,0.127c0.213,0.085,0.385,0.207,0.516,0.366c0.131,0.16,0.219,0.352,0.264,0.571    c0.043,0.222,0.029,0.469-0.044,0.74c-0.093,0.349-0.229,0.654-0.407,0.918c-0.18,0.263-0.404,0.507-0.678,0.733    c-0.271,0.226-0.597,0.448-0.976,0.67c-0.378,0.221-0.815,0.463-1.309,0.726c-0.403,0.208-0.797,0.428-1.179,0.663    c-0.384,0.235-0.743,0.508-1.08,0.818c-0.338,0.311-0.645,0.676-0.92,1.093c-0.277,0.419-0.519,0.925-0.725,1.517h6.531    l0.283-1.059h-5.135c0.141-0.31,0.334-0.585,0.582-0.824C39.107,457.878,39.389,457.654,39.703,457.447z"/>
		<path d="M51.734,450l-6.299,6.503l-0.311,1.155h4.387L48.885,460h1.129l0.627-2.342h1.354l0.283-1.057h-1.354l1.77-6.602H51.734z     M49.796,456.602h-3.356l4.64-4.895h0.028L49.796,456.602z"/>
	</g>
	
    </g>
</svg>
