<?xml version="1.0" encoding="iso-8859-1"?>
<!DOCTYPE svg PUBLIC "-//W3C//DTD SVG 1.1//EN" "http://www.w3.org/Graphics/SVG/1.1/DTD/svg11.dtd">
<svg version="1.1" xmlns="http://www.w3.org/2000/svg" xmlns:xlink="http://www.w3.org/1999/xlink" x="0px" y="0px" width="30" height="30" viewBox="0 0 30 30" xml:space="preserve">
    <g transform="translate(-330 -440)">
        <g xmlns="http://www.w3.org/2000/svg" xmlns:xlink="http://www.w3.org/1999/xlink" id="_x33_-around-7">
		<path d="M357.514,454.998l1.734-4.675l-2,0.34C355.426,445.532,350.49,442,345,442c-7.168,0-13,5.832-13,13s5.832,13,13,13    c5.986,0,11.172-4.063,12.607-9.88l-0.971-0.24c-1.326,5.37-6.111,9.12-11.637,9.12c-6.617,0-12-5.383-12-12s5.383-12,12-12    c5.01,0,9.523,3.186,11.25,7.832l-1.918,0.326L357.514,454.998z"/>
		<path d="M348.002,453.819c0.35-0.343,0.586-0.735,0.705-1.18c0.121-0.455,0.15-0.848,0.086-1.182    c-0.063-0.333-0.201-0.605-0.412-0.819c-0.211-0.213-0.486-0.373-0.82-0.479c-0.34-0.106-0.721-0.159-1.146-0.159    c-0.49,0-0.945,0.079-1.363,0.236c-0.416,0.157-0.785,0.374-1.111,0.652c-0.324,0.277-0.605,0.611-0.844,1    c-0.24,0.389-0.432,0.819-0.576,1.292h1.18c0.078-0.287,0.188-0.561,0.332-0.819c0.143-0.259,0.318-0.486,0.523-0.681    c0.203-0.194,0.439-0.349,0.707-0.466c0.268-0.115,0.559-0.174,0.873-0.174c0.5,0,0.881,0.132,1.143,0.396    c0.264,0.264,0.324,0.659,0.184,1.188c-0.07,0.26-0.184,0.491-0.34,0.694c-0.156,0.204-0.338,0.372-0.545,0.507    s-0.434,0.236-0.68,0.305c-0.246,0.07-0.492,0.105-0.744,0.105h-0.25c-0.045,0-0.092,0-0.139,0c-0.035,0-0.076-0.004-0.119-0.015    l-0.27,1c0.23-0.026,0.469-0.041,0.719-0.041c0.299,0,0.563,0.039,0.797,0.118c0.234,0.078,0.42,0.199,0.563,0.36    c0.141,0.163,0.236,0.362,0.285,0.599c0.047,0.234,0.029,0.506-0.051,0.812c-0.08,0.297-0.209,0.563-0.389,0.799    s-0.387,0.436-0.625,0.597c-0.238,0.163-0.498,0.287-0.781,0.375c-0.283,0.089-0.568,0.133-0.855,0.133    c-0.676,0-1.135-0.201-1.379-0.604c-0.244-0.402-0.291-0.924-0.137-1.563h-1.182c-0.146,0.51-0.195,0.963-0.15,1.361    c0.047,0.397,0.178,0.733,0.393,1.007c0.213,0.273,0.504,0.479,0.875,0.618c0.369,0.139,0.805,0.208,1.307,0.208    c0.461,0,0.914-0.063,1.361-0.188c0.445-0.124,0.854-0.313,1.227-0.562c0.373-0.251,0.701-0.563,0.98-0.938    c0.281-0.375,0.488-0.807,0.619-1.299c0.158-0.592,0.15-1.106-0.023-1.542c-0.176-0.435-0.549-0.717-1.113-0.847l0.008-0.028    C347.256,454.422,347.65,454.162,348.002,453.819z"/>
	</g>
	
    </g>
</svg>
