<?xml version="1.0" encoding="iso-8859-1"?>
<!DOCTYPE svg PUBLIC "-//W3C//DTD SVG 1.1//EN" "http://www.w3.org/Graphics/SVG/1.1/DTD/svg11.dtd">
<svg version="1.1" xmlns="http://www.w3.org/2000/svg" xmlns:xlink="http://www.w3.org/1999/xlink" x="0px" y="0px" width="30" height="30" viewBox="0 0 30 30" xml:space="preserve">
    <g transform="translate(-510 -440)">
        <g xmlns="http://www.w3.org/2000/svg" xmlns:xlink="http://www.w3.org/1999/xlink" id="_x33_0-around-7">
		<path d="M537.514,454.998l1.734-4.675l-2,0.34C535.428,445.532,530.49,442,525,442c-7.168,0-13,5.832-13,13s5.832,13,13,13    c5.988,0,11.172-4.063,12.607-9.88l-0.971-0.24c-1.324,5.37-6.109,9.12-11.637,9.12c-6.617,0-12-5.383-12-12s5.383-12,12-12    c5.01,0,9.523,3.186,11.25,7.832l-1.916,0.326L537.514,454.998z"/>
		<path d="M524.127,453.819c0.352-0.343,0.586-0.735,0.705-1.18c0.121-0.455,0.152-0.848,0.088-1.182    c-0.063-0.333-0.201-0.605-0.412-0.819c-0.211-0.213-0.486-0.373-0.822-0.479c-0.338-0.106-0.721-0.159-1.146-0.159    c-0.49,0-0.943,0.079-1.361,0.236s-0.787,0.374-1.111,0.652c-0.326,0.277-0.607,0.611-0.844,1    c-0.238,0.389-0.432,0.819-0.578,1.292h1.182c0.076-0.287,0.188-0.561,0.332-0.819c0.143-0.259,0.316-0.486,0.521-0.681    s0.441-0.349,0.707-0.466c0.27-0.115,0.559-0.174,0.875-0.174c0.5,0,0.881,0.132,1.143,0.396c0.264,0.264,0.322,0.659,0.182,1.188    c-0.068,0.26-0.182,0.491-0.34,0.694c-0.154,0.204-0.338,0.372-0.543,0.507c-0.207,0.135-0.436,0.236-0.68,0.305    c-0.246,0.07-0.494,0.105-0.744,0.105h-0.25c-0.047,0-0.092,0-0.139,0c-0.037,0-0.078-0.004-0.121-0.015l-0.268,1    c0.229-0.026,0.469-0.041,0.719-0.041c0.297,0,0.561,0.039,0.795,0.118c0.234,0.078,0.422,0.199,0.563,0.36    c0.143,0.163,0.236,0.362,0.285,0.599c0.049,0.234,0.031,0.506-0.051,0.812c-0.08,0.297-0.209,0.563-0.389,0.799    c-0.178,0.236-0.387,0.436-0.623,0.597c-0.238,0.163-0.5,0.287-0.781,0.375c-0.283,0.089-0.57,0.133-0.855,0.133    c-0.676,0-1.137-0.201-1.379-0.604c-0.246-0.402-0.291-0.924-0.139-1.563h-1.18c-0.146,0.51-0.195,0.963-0.15,1.361    c0.047,0.397,0.178,0.733,0.391,1.007c0.215,0.273,0.506,0.479,0.875,0.618c0.371,0.139,0.807,0.208,1.307,0.208    c0.463,0,0.916-0.063,1.361-0.188c0.445-0.124,0.855-0.313,1.229-0.562c0.371-0.251,0.699-0.563,0.98-0.938    s0.486-0.807,0.619-1.299c0.158-0.592,0.15-1.106-0.025-1.542c-0.176-0.435-0.547-0.717-1.113-0.847l0.008-0.028    C523.383,454.422,523.777,454.162,524.127,453.819z"/>
		<path d="M531.709,450.222c-0.324-0.148-0.744-0.222-1.252-0.222c-0.51,0-0.967,0.073-1.371,0.222    c-0.406,0.149-0.764,0.348-1.07,0.598c-0.309,0.25-0.576,0.542-0.805,0.875s-0.43,0.685-0.602,1.056    c-0.174,0.371-0.322,0.75-0.443,1.139c-0.125,0.39-0.232,0.764-0.33,1.125s-0.189,0.736-0.273,1.125    c-0.086,0.389-0.143,0.769-0.166,1.14c-0.027,0.369-0.014,0.72,0.037,1.048c0.051,0.329,0.164,0.618,0.338,0.868    c0.172,0.251,0.424,0.447,0.752,0.591c0.326,0.144,0.744,0.215,1.254,0.215c0.52,0,0.979-0.071,1.377-0.215    c0.4-0.144,0.752-0.34,1.061-0.591c0.309-0.25,0.576-0.539,0.803-0.868c0.227-0.328,0.426-0.679,0.602-1.048    c0.172-0.371,0.32-0.751,0.441-1.14c0.123-0.389,0.234-0.764,0.33-1.125c0.098-0.361,0.188-0.735,0.273-1.125    c0.086-0.389,0.143-0.768,0.168-1.139c0.023-0.371,0.012-0.723-0.037-1.056s-0.162-0.625-0.336-0.875    S532.037,450.371,531.709,450.222z M531.518,453.326c-0.037,0.292-0.092,0.584-0.166,0.875c-0.074,0.292-0.143,0.559-0.207,0.798    c-0.1,0.371-0.221,0.786-0.367,1.244c-0.146,0.459-0.336,0.89-0.568,1.292s-0.525,0.742-0.879,1.021    c-0.352,0.278-0.779,0.417-1.277,0.417c-0.5,0-0.852-0.139-1.055-0.417s-0.314-0.618-0.332-1.021    c-0.016-0.402,0.025-0.833,0.125-1.292c0.1-0.458,0.199-0.873,0.299-1.244c0.064-0.239,0.137-0.506,0.219-0.798    c0.084-0.291,0.186-0.583,0.307-0.875c0.117-0.291,0.256-0.576,0.408-0.854c0.152-0.277,0.334-0.521,0.543-0.729    s0.447-0.378,0.713-0.508c0.266-0.129,0.566-0.194,0.898-0.194c0.334,0,0.598,0.065,0.797,0.194c0.195,0.13,0.342,0.3,0.439,0.508    s0.146,0.451,0.15,0.729C531.57,452.75,531.555,453.035,531.518,453.326z"/>
	</g>
	
    </g>
</svg>
