<?xml version="1.0" encoding="iso-8859-1"?>
<!DOCTYPE svg PUBLIC "-//W3C//DTD SVG 1.1//EN" "http://www.w3.org/Graphics/SVG/1.1/DTD/svg11.dtd">
<svg version="1.1" xmlns="http://www.w3.org/2000/svg" xmlns:xlink="http://www.w3.org/1999/xlink" x="0px" y="0px" width="30" height="30" viewBox="0 0 30 30" xml:space="preserve">
    <g transform="translate(-210 -500)">
        <g xmlns="http://www.w3.org/2000/svg" xmlns:xlink="http://www.w3.org/1999/xlink" id="_x33_65-around-7">
		<path d="M234.186,505.801c-5.068-5.068-13.315-5.068-18.385,0c-5.068,5.068-5.068,13.316,0,18.385    c4.234,4.234,10.773,5.027,15.901,1.93l-0.517-0.857c-4.734,2.861-10.77,2.129-14.678-1.779c-4.678-4.678-4.678-12.291,0-16.971    c4.68-4.678,12.292-4.678,16.971,0c3.543,3.543,4.482,8.988,2.418,13.494l-1.587-1.125l-0.466,4.965l4.531-2.08l-1.654-1.174    C239.062,515.672,238.068,509.684,234.186,505.801z"/>
		<path d="M221.034,514.056c0.281-0.274,0.469-0.589,0.564-0.944c0.097-0.363,0.12-0.678,0.069-0.945    c-0.05-0.267-0.16-0.484-0.329-0.655c-0.17-0.17-0.39-0.298-0.659-0.383S220.104,511,219.764,511c-0.393,0-0.756,0.063-1.09,0.189    c-0.333,0.125-0.63,0.299-0.89,0.521c-0.259,0.223-0.484,0.489-0.675,0.8c-0.191,0.312-0.345,0.656-0.46,1.034h0.944    c0.062-0.23,0.149-0.449,0.264-0.656c0.115-0.207,0.255-0.389,0.419-0.544s0.353-0.279,0.566-0.373    c0.213-0.092,0.446-0.139,0.698-0.139c0.4,0,0.705,0.105,0.915,0.317c0.21,0.211,0.259,0.527,0.146,0.949    c-0.056,0.208-0.146,0.394-0.271,0.557c-0.125,0.162-0.271,0.297-0.436,0.404c-0.167,0.108-0.348,0.189-0.543,0.244    c-0.197,0.057-0.396,0.084-0.595,0.084h-0.2c-0.038,0-0.074,0-0.111,0c-0.03,0-0.063-0.003-0.097-0.012l-0.215,0.801    c0.184-0.021,0.376-0.033,0.575-0.033c0.237,0,0.449,0.031,0.636,0.095c0.188,0.063,0.338,0.159,0.451,0.288    c0.112,0.131,0.188,0.29,0.227,0.479c0.039,0.188,0.025,0.405-0.04,0.649c-0.063,0.237-0.167,0.45-0.311,0.64    c-0.144,0.188-0.31,0.348-0.5,0.478s-0.398,0.229-0.625,0.3s-0.454,0.105-0.684,0.105c-0.541,0-0.909-0.161-1.104-0.483    s-0.231-0.739-0.109-1.25h-0.944c-0.116,0.408-0.156,0.771-0.119,1.089s0.141,0.587,0.312,0.806s0.404,0.384,0.701,0.495    c0.296,0.111,0.644,0.166,1.044,0.166c0.37,0,0.733-0.05,1.091-0.15c0.355-0.1,0.684-0.249,0.981-0.449s0.56-0.45,0.784-0.75    c0.225-0.301,0.39-0.646,0.495-1.039c0.127-0.475,0.121-0.886-0.02-1.233c-0.14-0.349-0.438-0.573-0.891-0.678l0.006-0.022    C220.438,514.537,220.753,514.329,221.034,514.056z"/>
		<path d="M224.246,512.872c0.217-0.3,0.475-0.548,0.771-0.744s0.646-0.295,1.046-0.295c0.378,0,0.652,0.107,0.824,0.322    s0.233,0.5,0.183,0.855h0.944c0.115-0.651,0.026-1.149-0.267-1.494S226.982,511,226.331,511c-0.563,0-1.062,0.118-1.495,0.355    c-0.435,0.236-0.815,0.552-1.143,0.945c-0.327,0.392-0.605,0.842-0.834,1.349c-0.229,0.508-0.415,1.032-0.56,1.572    c-0.111,0.415-0.195,0.845-0.251,1.29c-0.057,0.443-0.038,0.852,0.056,1.222s0.286,0.675,0.578,0.911    c0.292,0.237,0.73,0.355,1.315,0.355c0.496,0,0.936-0.083,1.317-0.25s0.709-0.378,0.98-0.634c0.272-0.255,0.495-0.539,0.667-0.85    c0.173-0.312,0.298-0.611,0.375-0.899c0.097-0.363,0.132-0.7,0.104-1.012c-0.027-0.311-0.112-0.581-0.255-0.811    c-0.142-0.229-0.346-0.41-0.61-0.539c-0.266-0.13-0.588-0.194-0.966-0.194c-0.429,0-0.83,0.081-1.204,0.244    c-0.373,0.163-0.719,0.426-1.039,0.788l-0.016-0.021c0.088-0.304,0.205-0.629,0.351-0.978    C223.847,513.497,224.028,513.172,224.246,512.872z M223.393,515.728c0.128-0.218,0.284-0.407,0.468-0.566    s0.388-0.285,0.612-0.378c0.225-0.092,0.471-0.139,0.737-0.139s0.487,0.049,0.661,0.145c0.174,0.097,0.307,0.224,0.397,0.383    s0.139,0.349,0.143,0.567c0.004,0.218-0.026,0.449-0.092,0.694c-0.062,0.229-0.155,0.449-0.282,0.661    c-0.127,0.211-0.278,0.397-0.456,0.561c-0.178,0.164-0.377,0.291-0.598,0.384s-0.461,0.139-0.721,0.139    c-0.259,0-0.478-0.046-0.657-0.139c-0.179-0.093-0.316-0.217-0.411-0.372c-0.096-0.155-0.151-0.341-0.167-0.556    c-0.018-0.215,0.007-0.444,0.073-0.689C223.166,516.178,223.263,515.946,223.393,515.728z"/>
		<path d="M233.231,514.283c-0.172-0.23-0.4-0.401-0.687-0.515c-0.287-0.113-0.607-0.169-0.961-0.169    c-0.271,0-0.558,0.047-0.856,0.142c-0.301,0.094-0.563,0.238-0.789,0.434l-0.017-0.021l1.047-2.306h3.231l0.228-0.848h-3.955    l-1.859,4.158l0.813,0.045c0.248-0.225,0.514-0.407,0.797-0.548c0.281-0.139,0.581-0.208,0.896-0.208    c0.271,0,0.507,0.044,0.704,0.136c0.198,0.089,0.354,0.216,0.47,0.377c0.114,0.162,0.186,0.354,0.213,0.577    s0.005,0.465-0.065,0.729c-0.085,0.317-0.204,0.594-0.358,0.831s-0.329,0.435-0.525,0.593c-0.197,0.158-0.41,0.276-0.639,0.356    c-0.228,0.078-0.456,0.118-0.682,0.118c-0.241,0-0.451-0.036-0.632-0.107s-0.326-0.173-0.438-0.305    c-0.112-0.132-0.188-0.286-0.227-0.463c-0.04-0.178-0.039-0.368,0-0.571h-0.96c-0.09,0.361-0.105,0.687-0.046,0.972    c0.059,0.286,0.179,0.525,0.361,0.718c0.183,0.191,0.412,0.339,0.69,0.439c0.277,0.103,0.59,0.153,0.936,0.153    c0.468,0,0.896-0.073,1.285-0.22s0.734-0.346,1.035-0.594c0.3-0.249,0.551-0.533,0.753-0.853c0.203-0.32,0.35-0.649,0.44-0.989    c0.123-0.459,0.163-0.86,0.119-1.203C233.512,514.799,233.403,514.513,233.231,514.283z"/>
	</g>
	
    </g>
</svg>
