<?xml version="1.0" encoding="iso-8859-1"?>
<!DOCTYPE svg PUBLIC "-//W3C//DTD SVG 1.1//EN" "http://www.w3.org/Graphics/SVG/1.1/DTD/svg11.dtd">
<svg version="1.1" xmlns="http://www.w3.org/2000/svg" xmlns:xlink="http://www.w3.org/1999/xlink" x="0px" y="0px" width="30" height="30" viewBox="0 0 30 30" xml:space="preserve">
    <g transform="translate(-450 -440)">
        <g xmlns="http://www.w3.org/2000/svg" xmlns:xlink="http://www.w3.org/1999/xlink" id="_x34_5-around-7">
		<path d="M477.514,454.998l1.734-4.675l-2,0.34C475.428,445.532,470.49,442,465,442c-7.168,0-13,5.832-13,13s5.832,13,13,13    c5.988,0,11.172-4.063,12.607-9.88l-0.971-0.24c-1.324,5.37-6.109,9.12-11.637,9.12c-6.617,0-12-5.383-12-12s5.383-12,12-12    c5.01,0,9.523,3.186,11.25,7.832l-1.916,0.326L477.514,454.998z"/>
		<path d="M463.426,450l-6.299,6.502l-0.307,1.156h4.387L460.578,460h1.129l0.629-2.342h1.352l0.283-1.057h-1.354l1.77-6.602    H463.426z M461.488,456.602h-3.357l4.641-4.895h0.029L461.488,456.602z"/>
		<path d="M472.498,451.06l0.283-1.06h-4.941l-2.326,5.197l1.018,0.057c0.309-0.282,0.641-0.51,0.994-0.685    c0.352-0.174,0.727-0.262,1.123-0.262c0.34,0,0.633,0.057,0.877,0.171c0.248,0.112,0.445,0.271,0.588,0.472    c0.143,0.203,0.232,0.443,0.268,0.721c0.033,0.278,0.006,0.582-0.082,0.911c-0.107,0.396-0.254,0.741-0.447,1.039    c-0.195,0.297-0.412,0.544-0.658,0.741s-0.514,0.346-0.797,0.445c-0.287,0.098-0.57,0.147-0.855,0.147    c-0.299,0-0.561-0.045-0.787-0.135s-0.41-0.216-0.549-0.382c-0.139-0.163-0.232-0.357-0.281-0.577    c-0.051-0.222-0.049-0.46,0.002-0.714h-1.203c-0.111,0.451-0.131,0.857-0.057,1.215s0.225,0.656,0.453,0.896    c0.227,0.24,0.514,0.426,0.859,0.552c0.35,0.127,0.738,0.19,1.172,0.19c0.584,0,1.119-0.093,1.607-0.275    c0.486-0.184,0.918-0.431,1.293-0.741c0.375-0.312,0.689-0.666,0.941-1.065c0.254-0.4,0.438-0.813,0.551-1.237    c0.154-0.573,0.203-1.075,0.148-1.504c-0.055-0.428-0.189-0.785-0.406-1.073c-0.215-0.287-0.5-0.501-0.857-0.643    s-0.758-0.212-1.199-0.212c-0.338,0-0.695,0.059-1.07,0.176c-0.377,0.119-0.705,0.299-0.986,0.544l-0.021-0.027l1.309-2.882    H472.498z"/>
	</g>
	
    </g>
</svg>
