<?xml version="1.0" encoding="iso-8859-1"?>
<!DOCTYPE svg PUBLIC "-//W3C//DTD SVG 1.1//EN" "http://www.w3.org/Graphics/SVG/1.1/DTD/svg11.dtd">
<svg version="1.1" xmlns="http://www.w3.org/2000/svg" xmlns:xlink="http://www.w3.org/1999/xlink" x="0px" y="0px" width="30" height="30" viewBox="0 0 30 30" xml:space="preserve">
    <g transform="translate(-90 -500)">
        <g xmlns="http://www.w3.org/2000/svg" xmlns:xlink="http://www.w3.org/1999/xlink" id="_x35_-around-7">
		<path d="M117.514,514.998l1.734-4.675l-2,0.34C115.427,505.532,110.49,502,105,502c-7.168,0-13,5.832-13,13s5.832,13,13,13    c5.987,0,11.172-4.063,12.607-9.88l-0.971-0.24c-1.325,5.37-6.11,9.12-11.637,9.12c-6.617,0-12-5.383-12-12s5.383-12,12-12    c5.01,0,9.523,3.186,11.25,7.832l-1.917,0.326L117.514,514.998z"/>
		<path d="M108.732,511.143l0.279-1.06h-4.86l-2.287,5.197l0.999,0.057c0.306-0.282,0.632-0.51,0.979-0.685    c0.346-0.174,0.715-0.262,1.104-0.262c0.334,0,0.622,0.057,0.864,0.171c0.244,0.112,0.436,0.271,0.577,0.472    c0.142,0.203,0.229,0.443,0.262,0.721c0.032,0.278,0.007,0.582-0.079,0.911c-0.105,0.396-0.251,0.741-0.441,1.038    c-0.189,0.298-0.404,0.545-0.646,0.742s-0.504,0.346-0.784,0.445c-0.28,0.098-0.561,0.147-0.839,0.147    c-0.296,0-0.554-0.045-0.775-0.135c-0.223-0.09-0.402-0.216-0.539-0.382c-0.137-0.163-0.229-0.357-0.278-0.577    c-0.049-0.222-0.048-0.46,0.001-0.714h-1.181c-0.11,0.451-0.129,0.857-0.056,1.215c0.071,0.357,0.221,0.656,0.444,0.896    c0.223,0.24,0.505,0.426,0.847,0.552c0.343,0.127,0.726,0.19,1.151,0.19c0.574,0,1.1-0.093,1.579-0.275    c0.479-0.184,0.903-0.431,1.273-0.741c0.368-0.312,0.677-0.666,0.925-1.065c0.25-0.4,0.431-0.813,0.543-1.237    c0.15-0.573,0.199-1.075,0.145-1.504c-0.053-0.428-0.187-0.785-0.397-1.073c-0.212-0.287-0.493-0.501-0.845-0.643    s-0.743-0.212-1.179-0.212c-0.334,0-0.685,0.059-1.054,0.176c-0.369,0.119-0.692,0.299-0.97,0.544l-0.021-0.027l1.287-2.882    H108.732z"/>
	</g>
	
    </g>
</svg>
