<?xml version="1.0" encoding="iso-8859-1"?>
<!DOCTYPE svg PUBLIC "-//W3C//DTD SVG 1.1//EN" "http://www.w3.org/Graphics/SVG/1.1/DTD/svg11.dtd">
<svg version="1.1" xmlns="http://www.w3.org/2000/svg" xmlns:xlink="http://www.w3.org/1999/xlink" x="0px" y="0px" width="30" height="30" viewBox="0 0 30 30" xml:space="preserve">
    <g transform="translate(-270 -440)">
        <g xmlns="http://www.w3.org/2000/svg" xmlns:xlink="http://www.w3.org/1999/xlink" id="_x36_-around-7">
		<path d="M285,442c-7.168,0-13,5.832-13,13s5.832,13,13,13c5.987,0,11.172-4.063,12.607-9.88l-0.971-0.24    c-1.325,5.37-6.11,9.12-11.637,9.12c-6.617,0-12-5.383-12-12s5.383-12,12-12c5.01,0,9.523,3.186,11.25,7.832l-1.917,0.326    l3.181,3.84l1.734-4.675l-2,0.34C295.427,445.532,290.49,442,285,442z"/>
		<path d="M284.007,452.34c0.272-0.374,0.594-0.686,0.966-0.931c0.37-0.245,0.807-0.368,1.307-0.368c0.473,0,0.814,0.135,1.03,0.403    s0.292,0.625,0.228,1.069h1.181c0.144-0.814,0.034-1.438-0.333-1.868c-0.365-0.431-0.957-0.646-1.771-0.646    c-0.703,0-1.326,0.148-1.869,0.444c-0.542,0.296-1.018,0.689-1.428,1.181c-0.408,0.491-0.756,1.053-1.041,1.687    c-0.287,0.636-0.52,1.29-0.701,1.966c-0.139,0.519-0.244,1.056-0.314,1.612c-0.07,0.555-0.047,1.064,0.07,1.526    c0.117,0.464,0.357,0.844,0.723,1.14s0.914,0.444,1.645,0.444c0.621,0,1.17-0.104,1.646-0.313    c0.479-0.209,0.887-0.472,1.227-0.792c0.34-0.318,0.618-0.674,0.834-1.063c0.215-0.389,0.371-0.764,0.467-1.124    c0.122-0.454,0.166-0.875,0.131-1.265c-0.034-0.389-0.141-0.727-0.318-1.014s-0.433-0.512-0.764-0.674    c-0.332-0.162-0.734-0.243-1.206-0.243c-0.537,0-1.04,0.103-1.506,0.306s-0.899,0.532-1.299,0.985l-0.021-0.026    c0.111-0.38,0.258-0.787,0.438-1.223C283.508,453.121,283.736,452.715,284.007,452.34z M282.939,455.909    c0.161-0.272,0.356-0.509,0.586-0.707c0.229-0.199,0.484-0.357,0.766-0.473s0.588-0.175,0.922-0.175    c0.333,0,0.608,0.062,0.826,0.182c0.217,0.121,0.383,0.28,0.496,0.479c0.113,0.199,0.174,0.436,0.178,0.709    c0.006,0.272-0.031,0.562-0.113,0.868c-0.078,0.287-0.195,0.562-0.354,0.826c-0.158,0.264-0.349,0.497-0.57,0.701    c-0.221,0.204-0.471,0.364-0.746,0.479c-0.277,0.116-0.576,0.174-0.9,0.174s-0.599-0.058-0.822-0.174    c-0.224-0.115-0.396-0.271-0.514-0.465c-0.119-0.194-0.189-0.426-0.21-0.695c-0.021-0.268,0.009-0.555,0.092-0.861    C282.656,456.473,282.778,456.183,282.939,455.909z"/>
	</g>
	
    </g>
</svg>
