<?xml version="1.0" encoding="iso-8859-1"?>
<!DOCTYPE svg PUBLIC "-//W3C//DTD SVG 1.1//EN" "http://www.w3.org/Graphics/SVG/1.1/DTD/svg11.dtd">
<svg version="1.1" xmlns="http://www.w3.org/2000/svg" xmlns:xlink="http://www.w3.org/1999/xlink" x="0px" y="0px" width="30" height="30" viewBox="0 0 30 30" xml:space="preserve">
    <g transform="translate(-390 -440)">
        <g xmlns="http://www.w3.org/2000/svg" xmlns:xlink="http://www.w3.org/1999/xlink" id="_x36_0-around-7">
		<path d="M417.514,454.998l1.734-4.675l-2,0.34C415.428,445.532,410.49,442,405,442c-7.168,0-13,5.832-13,13s5.832,13,13,13    c5.988,0,11.172-4.063,12.607-9.88l-0.971-0.24c-1.324,5.37-6.109,9.12-11.637,9.12c-6.617,0-12-5.383-12-12s5.383-12,12-12    c5.01,0,9.523,3.186,11.25,7.832l-1.916,0.326L417.514,454.998z"/>
		<path d="M400.182,452.34c0.271-0.374,0.594-0.686,0.965-0.931s0.809-0.368,1.309-0.368c0.471,0,0.814,0.135,1.029,0.403    s0.291,0.625,0.229,1.069h1.18c0.145-0.814,0.033-1.438-0.334-1.868c-0.365-0.431-0.955-0.646-1.771-0.646    c-0.703,0-1.326,0.148-1.867,0.444c-0.543,0.296-1.018,0.689-1.428,1.181s-0.756,1.053-1.043,1.687    c-0.285,0.636-0.518,1.29-0.701,1.966c-0.139,0.519-0.242,1.056-0.314,1.612c-0.068,0.555-0.045,1.064,0.07,1.526    c0.117,0.464,0.357,0.844,0.725,1.14c0.365,0.296,0.912,0.444,1.645,0.444c0.619,0,1.17-0.104,1.646-0.312    c0.477-0.21,0.885-0.473,1.227-0.793c0.34-0.318,0.617-0.674,0.832-1.063s0.371-0.764,0.467-1.124    c0.123-0.454,0.166-0.875,0.133-1.264c-0.035-0.39-0.143-0.728-0.32-1.015s-0.432-0.512-0.764-0.674    c-0.33-0.162-0.732-0.242-1.205-0.242c-0.537,0-1.039,0.102-1.506,0.305s-0.898,0.532-1.299,0.985l-0.021-0.026    c0.111-0.38,0.258-0.787,0.439-1.223C399.684,453.121,399.91,452.715,400.182,452.34z M399.115,455.909    c0.16-0.272,0.355-0.509,0.584-0.707c0.229-0.199,0.484-0.357,0.766-0.473s0.59-0.174,0.922-0.174    c0.334,0,0.609,0.061,0.828,0.181c0.217,0.121,0.381,0.28,0.494,0.479c0.115,0.199,0.174,0.436,0.18,0.709    c0.006,0.272-0.031,0.563-0.115,0.868c-0.076,0.287-0.193,0.562-0.354,0.826c-0.158,0.264-0.348,0.498-0.568,0.701    c-0.223,0.204-0.471,0.364-0.746,0.479c-0.277,0.116-0.578,0.174-0.902,0.174s-0.598-0.058-0.82-0.174    c-0.225-0.115-0.395-0.271-0.516-0.465c-0.119-0.194-0.188-0.426-0.209-0.695c-0.021-0.268,0.01-0.555,0.092-0.861    C398.832,456.473,398.953,456.183,399.115,455.909z"/>
		<path d="M411.473,450.222c-0.326-0.148-0.746-0.222-1.254-0.222c-0.51,0-0.967,0.073-1.371,0.222    c-0.406,0.149-0.764,0.348-1.07,0.598c-0.309,0.25-0.576,0.542-0.805,0.875s-0.43,0.685-0.602,1.056    c-0.174,0.371-0.32,0.75-0.443,1.139c-0.125,0.39-0.232,0.764-0.33,1.125s-0.189,0.736-0.273,1.125    c-0.086,0.389-0.141,0.769-0.166,1.14c-0.025,0.369-0.014,0.72,0.039,1.048c0.051,0.329,0.162,0.618,0.336,0.868    c0.174,0.251,0.424,0.447,0.752,0.591c0.326,0.144,0.744,0.215,1.254,0.215c0.52,0,0.979-0.071,1.377-0.215    c0.4-0.144,0.754-0.34,1.063-0.591c0.307-0.25,0.574-0.539,0.801-0.868c0.227-0.328,0.428-0.679,0.602-1.048    c0.172-0.371,0.32-0.751,0.443-1.14s0.232-0.764,0.33-1.125c0.096-0.361,0.188-0.735,0.273-1.125    c0.086-0.389,0.141-0.768,0.166-1.139c0.023-0.371,0.014-0.723-0.037-1.056c-0.049-0.333-0.162-0.625-0.336-0.875    S411.799,450.371,411.473,450.222z M411.279,453.326c-0.037,0.292-0.092,0.584-0.166,0.875c-0.072,0.292-0.143,0.559-0.207,0.798    c-0.1,0.371-0.221,0.786-0.367,1.244c-0.145,0.459-0.336,0.89-0.568,1.292s-0.525,0.742-0.879,1.021    c-0.352,0.278-0.777,0.417-1.277,0.417s-0.852-0.139-1.055-0.417s-0.313-0.618-0.332-1.021c-0.016-0.402,0.025-0.833,0.127-1.292    c0.098-0.458,0.197-0.873,0.297-1.244c0.064-0.239,0.137-0.506,0.221-0.798c0.084-0.291,0.186-0.583,0.305-0.875    c0.119-0.291,0.256-0.576,0.408-0.854c0.154-0.277,0.334-0.521,0.543-0.729s0.447-0.378,0.713-0.508    c0.266-0.129,0.566-0.194,0.898-0.194c0.334,0,0.6,0.065,0.797,0.194c0.195,0.13,0.342,0.3,0.439,0.508s0.146,0.451,0.152,0.729    C411.332,452.75,411.316,453.035,411.279,453.326z"/>
	</g>
	
    </g>
</svg>
