<?xml version="1.0" encoding="iso-8859-1"?>
<!DOCTYPE svg PUBLIC "-//W3C//DTD SVG 1.1//EN" "http://www.w3.org/Graphics/SVG/1.1/DTD/svg11.dtd">
<svg version="1.1" xmlns="http://www.w3.org/2000/svg" xmlns:xlink="http://www.w3.org/1999/xlink" x="0px" y="0px" width="30" height="30" viewBox="0 0 30 30" xml:space="preserve">
    <g transform="translate(-210 -440)">
        <g xmlns="http://www.w3.org/2000/svg" xmlns:xlink="http://www.w3.org/1999/xlink" id="_x39_-around-7">
		<path d="M225,442c-7.168,0-13,5.832-13,13s5.832,13,13,13c5.987,0,11.172-4.063,12.607-9.88l-0.971-0.24    c-1.325,5.37-6.11,9.12-11.637,9.12c-6.617,0-12-5.383-12-12s5.383-12,12-12c5.01,0,9.523,3.186,11.25,7.832l-1.917,0.326    l3.181,3.84l1.734-4.675l-2,0.34C235.427,445.532,230.49,442,225,442z"/>
		<path d="M221.283,457.473c-0.154,0.853-0.014,1.486,0.421,1.902c0.435,0.417,1.063,0.625,1.888,0.625    c1.195,0,2.186-0.455,2.971-1.367c0.787-0.913,1.408-2.221,1.865-3.925c0.25-0.935,0.367-1.706,0.348-2.313    c-0.018-0.606-0.133-1.085-0.344-1.437c-0.211-0.354-0.501-0.601-0.87-0.744c-0.368-0.144-0.784-0.215-1.247-0.215    c-0.473,0-0.93,0.079-1.369,0.236c-0.441,0.157-0.843,0.377-1.205,0.659c-0.363,0.282-0.676,0.62-0.938,1.014    c-0.263,0.395-0.458,0.827-0.583,1.299c-0.13,0.481-0.182,0.927-0.156,1.334c0.023,0.407,0.131,0.755,0.317,1.042    s0.453,0.511,0.798,0.674c0.346,0.161,0.77,0.243,1.27,0.243c0.48,0,0.959-0.124,1.432-0.369c0.474-0.245,0.877-0.576,1.211-0.993    l0.02,0.028c-0.381,1.287-0.837,2.242-1.365,2.867c-0.529,0.625-1.154,0.938-1.877,0.938c-0.473,0-0.845-0.13-1.118-0.389    c-0.272-0.259-0.368-0.63-0.285-1.111H221.283z M227.043,454.118c-0.162,0.265-0.359,0.496-0.588,0.694    c-0.229,0.199-0.484,0.356-0.766,0.472c-0.281,0.116-0.574,0.174-0.88,0.174c-0.287,0-0.534-0.058-0.738-0.174    c-0.205-0.115-0.367-0.271-0.487-0.465c-0.119-0.194-0.193-0.417-0.224-0.667c-0.03-0.249-0.009-0.51,0.063-0.777    c0.082-0.307,0.195-0.598,0.339-0.875c0.145-0.277,0.32-0.525,0.533-0.743c0.211-0.218,0.456-0.392,0.736-0.521    c0.279-0.129,0.596-0.194,0.947-0.194c0.334,0,0.609,0.062,0.828,0.181c0.217,0.121,0.383,0.285,0.499,0.493    c0.115,0.209,0.181,0.447,0.196,0.716c0.018,0.269-0.016,0.556-0.098,0.861C227.327,453.578,227.207,453.854,227.043,454.118z"/>
	</g>
	
    </g>
</svg>
