<?xml version="1.0" encoding="iso-8859-1"?>
<!DOCTYPE svg PUBLIC "-//W3C//DTD SVG 1.1//EN" "http://www.w3.org/Graphics/SVG/1.1/DTD/svg11.dtd">
<svg version="1.1" xmlns="http://www.w3.org/2000/svg" xmlns:xlink="http://www.w3.org/1999/xlink" x="0px" y="0px" width="30" height="30" viewBox="0 0 30 30" xml:space="preserve">
    <g transform="translate(-270 -500)">
        <g xmlns="http://www.w3.org/2000/svg" xmlns:xlink="http://www.w3.org/1999/xlink" id="_x39_-to-5-around-7">
		<path d="M294.186,505.801c-5.068-5.068-13.315-5.068-18.385,0c-5.068,5.068-5.068,13.316,0,18.385    c4.234,4.234,10.773,5.027,15.901,1.93l-0.517-0.857c-4.734,2.861-10.77,2.129-14.678-1.779c-4.678-4.678-4.678-12.291,0-16.971    c4.68-4.678,12.292-4.678,16.971,0c3.543,3.543,4.482,8.988,2.418,13.494l-1.587-1.125l-0.466,4.965l4.531-2.08l-1.654-1.174    C299.062,515.672,298.068,509.684,294.186,505.801z"/>
		<path d="M278.116,518.178c-0.378,0-0.677-0.104-0.896-0.311c-0.218-0.207-0.294-0.504-0.229-0.889h-0.943    c-0.124,0.682-0.012,1.188,0.336,1.521c0.348,0.334,0.852,0.5,1.512,0.5c0.955,0,1.747-0.364,2.375-1.094    c0.63-0.73,1.127-1.776,1.492-3.14c0.2-0.748,0.293-1.365,0.279-1.851c-0.016-0.484-0.107-0.868-0.275-1.149    c-0.169-0.282-0.401-0.479-0.696-0.595c-0.296-0.115-0.628-0.172-0.999-0.172c-0.377,0-0.742,0.063-1.095,0.189    c-0.353,0.125-0.674,0.302-0.964,0.526c-0.29,0.227-0.541,0.497-0.75,0.812c-0.211,0.315-0.367,0.662-0.467,1.039    c-0.104,0.385-0.146,0.741-0.125,1.067c0.02,0.326,0.104,0.604,0.254,0.833c0.15,0.229,0.362,0.409,0.639,0.539    s0.615,0.194,1.015,0.194c0.385,0,0.767-0.099,1.146-0.295s0.701-0.461,0.969-0.795l0.016,0.023    c-0.305,1.029-0.67,1.794-1.092,2.294C279.193,517.928,278.693,518.178,278.116,518.178z M280.656,514.294    c-0.131,0.212-0.287,0.397-0.471,0.557s-0.387,0.284-0.612,0.377s-0.46,0.139-0.704,0.139c-0.229,0-0.427-0.046-0.59-0.139    c-0.164-0.093-0.295-0.216-0.391-0.372c-0.095-0.155-0.154-0.333-0.179-0.533s-0.007-0.408,0.05-0.622    c0.066-0.245,0.156-0.479,0.271-0.7c0.115-0.223,0.257-0.42,0.426-0.595c0.169-0.174,0.365-0.313,0.59-0.417    c0.224-0.104,0.477-0.155,0.758-0.155c0.268,0,0.486,0.049,0.662,0.145c0.174,0.097,0.307,0.228,0.399,0.395    c0.092,0.167,0.146,0.357,0.157,0.572c0.014,0.215-0.013,0.444-0.078,0.688C280.884,513.863,280.787,514.084,280.656,514.294z"/>
		<path d="M292.895,514.283c-0.172-0.23-0.4-0.401-0.688-0.515c-0.285-0.113-0.604-0.169-0.96-0.169    c-0.271,0-0.557,0.047-0.856,0.141c-0.301,0.095-0.563,0.239-0.789,0.435l-0.017-0.021l1.048-2.306h3.23l0.228-0.848h-3.955    l-1.859,4.158l0.813,0.045c0.249-0.226,0.515-0.408,0.797-0.548c0.281-0.139,0.581-0.209,0.897-0.209    c0.271,0,0.506,0.045,0.704,0.137c0.198,0.09,0.354,0.216,0.47,0.377c0.114,0.162,0.185,0.354,0.213,0.577    c0.026,0.223,0.004,0.465-0.066,0.729c-0.085,0.317-0.203,0.594-0.358,0.831c-0.153,0.237-0.328,0.435-0.526,0.593    c-0.196,0.158-0.408,0.277-0.637,0.356c-0.229,0.079-0.455,0.118-0.682,0.118c-0.242,0-0.451-0.036-0.633-0.107    c-0.18-0.072-0.326-0.173-0.438-0.306c-0.111-0.131-0.188-0.286-0.227-0.462c-0.039-0.178-0.039-0.368,0-0.571h-0.96    c-0.089,0.361-0.104,0.686-0.046,0.972c0.06,0.286,0.18,0.525,0.361,0.718c0.183,0.191,0.412,0.339,0.69,0.44    s0.59,0.152,0.937,0.152c0.467,0,0.896-0.073,1.285-0.22c0.391-0.147,0.734-0.345,1.034-0.594    c0.302-0.249,0.552-0.533,0.754-0.853c0.203-0.32,0.351-0.65,0.44-0.989c0.123-0.459,0.162-0.86,0.119-1.203    C293.174,514.799,293.066,514.513,292.895,514.283z"/>
		<polygon points="282.866,516 286.866,516 287.135,515 283.135,515   "/>
	</g>
	
    </g>
</svg>
