<?xml version="1.0" encoding="iso-8859-1"?>
<!DOCTYPE svg PUBLIC "-//W3C//DTD SVG 1.1//EN" "http://www.w3.org/Graphics/SVG/1.1/DTD/svg11.dtd">
<svg version="1.1" xmlns="http://www.w3.org/2000/svg" xmlns:xlink="http://www.w3.org/1999/xlink" x="0px" y="0px" width="29" height="30" viewBox="0 0 29 30" xml:space="preserve">
    <g transform="translate(-90 -200)">
        <g xmlns="http://www.w3.org/2000/svg" xmlns:xlink="http://www.w3.org/1999/xlink" id="air-bus-7">
		<path d="M102,225l-3,2v3l5-2v2h1v-2l5,2v-3l-3-2v-7l12,2v-3l-12-6v-8c0-1.381-1.119-2.5-2.5-2.5s-2.5,1.119-2.5,2.5v8l-12,6v3    l12-2V225z M107,212.118l11,5.5v1.201l-11-1.833V212.118z M103,225.535V203c0-0.827,0.673-1.5,1.5-1.5s1.5,0.673,1.5,1.5v22.535    l3,2v0.988l-4.5-1.8l-4.5,1.8v-0.988L103,225.535z M91,218.819v-1.201l11-5.5v4.868L91,218.819z"/>
		<rect x="104" y="203" width="1" height="1"/>
		<rect x="104" y="205" width="1" height="3"/>
	</g>
	
    </g>
</svg>
