<?xml version="1.0" encoding="iso-8859-1"?>
<!DOCTYPE svg PUBLIC "-//W3C//DTD SVG 1.1//EN" "http://www.w3.org/Graphics/SVG/1.1/DTD/svg11.dtd">
<svg version="1.1" xmlns="http://www.w3.org/2000/svg" xmlns:xlink="http://www.w3.org/1999/xlink" x="0px" y="0px" width="30" height="30" viewBox="0 0 30 30" xml:space="preserve">
    <g transform="translate(-270 -200)">
        <g xmlns="http://www.w3.org/2000/svg" xmlns:xlink="http://www.w3.org/1999/xlink" id="airplane-symbol-off-7">
		<path d="M285,227c-6.617,0-12-5.383-12-12c0-2.727,0.925-5.236,2.463-7.253l-0.718-0.717C273.031,209.232,272,211.993,272,215    c0,7.18,5.82,13,13,13c3.008,0,5.768-1.031,7.971-2.745l-0.717-0.717C290.236,226.075,287.727,227,285,227z"/>
		<path d="M285,202c-3.451,0-6.58,1.354-8.907,3.549L272.544,202l-0.707,0.707l25.456,25.456l0.707-0.707l-3.549-3.549    C296.646,221.58,298,218.451,298,215C298,207.82,292.18,202,285,202z M287.471,216.927L288,216h5c0.553,0,1-0.447,1-1    s-0.447-1-1-1h-5l-3.999-7H283l2,7h-0.456l-7.74-7.74c2.147-2.015,5.026-3.26,8.196-3.26c6.617,0,12,5.383,12,12    c0,3.17-1.244,6.049-3.26,8.196L287.471,216.927z"/>
		<polygon points="284.001,223 286.442,218.727 284.715,216.999 283,223   "/>
		<polygon points="279,212 278,212 278,218 279,218 279,216 283.716,216 281.716,214 279,214   "/>
	</g>
	
    </g>
</svg>
