<?xml version="1.0" encoding="iso-8859-1"?>
<!DOCTYPE svg PUBLIC "-//W3C//DTD SVG 1.1//EN" "http://www.w3.org/Graphics/SVG/1.1/DTD/svg11.dtd">
<svg version="1.1" xmlns="http://www.w3.org/2000/svg" xmlns:xlink="http://www.w3.org/1999/xlink" x="0px" y="0px" width="30" height="30" viewBox="0 0 30 30" xml:space="preserve">
    <g transform="translate(-330 -200)">
        <g xmlns="http://www.w3.org/2000/svg" xmlns:xlink="http://www.w3.org/1999/xlink" id="airplane-ascending-7">
		<path d="M357.66,212.477c1.056-0.385,1.601-1.553,1.217-2.61c-0.385-1.056-1.554-1.602-2.609-1.217l-9.477,3.449l-8.265-7.826    l-2.962,1.078l5.874,8.696l-5.263,1.916l-3.306-3.13l-2.87,1.044l4.699,6.957L357.66,212.477z M332.631,213.983l3.306,3.13    l7.048-2.565l-5.874-8.696l1.177-0.429l8.265,7.826l10.058-3.66c0.115-0.042,0.234-0.063,0.354-0.063    c0.435,0,0.826,0.274,0.975,0.683c0.194,0.536-0.083,1.132-0.62,1.328l-22.227,8.09l-3.545-5.249L332.631,213.983z"/>
		<rect x="331" y="225" width="28" height="1"/>
	</g>
	
    </g>
</svg>
