<?xml version="1.0" encoding="iso-8859-1"?>
<!DOCTYPE svg PUBLIC "-//W3C//DTD SVG 1.1//EN" "http://www.w3.org/Graphics/SVG/1.1/DTD/svg11.dtd">
<svg version="1.1" xmlns="http://www.w3.org/2000/svg" xmlns:xlink="http://www.w3.org/1999/xlink" x="0px" y="0px" width="30" height="30" viewBox="0 0 30 30" xml:space="preserve">
    <g transform="translate(-390 -80)">
        <g xmlns="http://www.w3.org/2000/svg" xmlns:xlink="http://www.w3.org/1999/xlink" id="bicycle-7">
		<path d="M396.5,106c2.868,0,5.222-2.197,5.475-5h2.525c0.067,0,0.136-0.014,0.201-0.042c0.011-0.005,0.018-0.014,0.028-0.02    c0.021-0.011,0.036-0.026,0.056-0.04c0.049-0.035,0.09-0.076,0.123-0.125c0.007-0.011,0.021-0.017,0.027-0.028L409.292,93h1.082    l0.862,2.491C409.33,96.354,408,98.27,408,100.5c0,3.038,2.463,5.5,5.5,5.5s5.5-2.462,5.5-5.5s-2.463-5.5-5.5-5.5    c-0.455,0-0.895,0.062-1.317,0.166l-2.71-7.829C409.402,87.135,409.213,87,409,87h-3c-0.276,0-0.5,0.224-0.5,0.5    s0.224,0.5,0.5,0.5h2.644l1.385,4h-8.722l-0.749-1.701c-0.08-0.182-0.26-0.299-0.458-0.299H398c-0.276,0-0.5,0.224-0.5,0.5    s0.224,0.5,0.5,0.5h1.773l0.657,1.493l-1.683,2.991C398.062,95.176,397.302,95,396.5,95c-3.037,0-5.5,2.462-5.5,5.5    S393.463,106,396.5,106z M413.027,100.664c0.071,0.207,0.266,0.336,0.473,0.336c0.055,0,0.109-0.009,0.163-0.027    c0.262-0.09,0.399-0.375,0.31-0.636l-1.461-4.219C412.831,96.045,413.16,96,413.5,96c2.481,0,4.5,2.019,4.5,4.5    s-2.019,4.5-4.5,4.5s-4.5-2.019-4.5-4.5c0-1.788,1.056-3.322,2.569-4.048L413.027,100.664z M408.146,93l-3.591,6.383L401.746,93    H408.146z M400.934,93.637l2.8,6.363h-1.759c-0.15-1.67-1.047-3.124-2.354-4.027L400.934,93.637z M399.122,96.858    c1.003,0.725,1.683,1.85,1.827,3.142h-3.595L399.122,96.858z M396.5,96c0.623,0,1.217,0.128,1.757,0.358l-2.192,3.897    c-0.087,0.155-0.086,0.344,0.004,0.498S396.322,101,396.5,101h4.449c-0.252,2.244-2.139,4-4.449,4c-2.481,0-4.5-2.019-4.5-4.5    S394.019,96,396.5,96z"/>
	</g>
	
    </g>
</svg>
