<?xml version="1.0" encoding="iso-8859-1"?>
<!DOCTYPE svg PUBLIC "-//W3C//DTD SVG 1.1//EN" "http://www.w3.org/Graphics/SVG/1.1/DTD/svg11.dtd">
<svg version="1.1" xmlns="http://www.w3.org/2000/svg" xmlns:xlink="http://www.w3.org/1999/xlink" x="0px" y="0px" width="30" height="30" viewBox="0 0 30 30" xml:space="preserve">
    <g transform="translate(-270 -80)">
        <g xmlns="http://www.w3.org/2000/svg" xmlns:xlink="http://www.w3.org/1999/xlink" id="car-tick-7">
		<path d="M273,104h1v3h5v-3h6.15c0.695,3.423,3.721,6,7.35,6c4.143,0,7.5-3.358,7.5-7.5c0-2.451-1.182-4.621-3-5.99V94h2v-2h-3.6    l-1.4-7h-18l-1.4,7H271v2h2V104z M299,102.5c0,3.59-2.91,6.5-6.5,6.5s-6.5-2.91-6.5-6.5s2.91-6.5,6.5-6.5S299,98.91,299,102.5z     M276.819,86h16.361l1.6,8H275.22L276.819,86z M274,95h18.5h3.5v0.869c-1.045-0.553-2.235-0.869-3.5-0.869    c-1.966,0-3.75,0.763-5.087,2H282v1h4.51c-0.453,0.603-0.817,1.275-1.074,2H282v1h3.15c-0.098,0.485-0.15,0.986-0.15,1.5    c0,0.169,0.014,0.334,0.025,0.5H274V95z"/>
		<path d="M278,97c-1.103,0-2,0.897-2,2s0.897,2,2,2s2-0.897,2-2S279.103,97,278,97z M278,100c-0.553,0-1-0.447-1-1s0.447-1,1-1    s1,0.447,1,1S278.553,100,278,100z"/>
		<rect x="283" y="87" width="4" height="1"/>
		<polygon points="291.086,104.268 288.965,102.146 288.258,102.854 291.086,105.682 296.742,100.025 296.035,99.318   "/>
	</g>
	
    </g>
</svg>
