<?xml version="1.0" encoding="iso-8859-1"?>
<!DOCTYPE svg PUBLIC "-//W3C//DTD SVG 1.1//EN" "http://www.w3.org/Graphics/SVG/1.1/DTD/svg11.dtd">
<svg version="1.1" xmlns="http://www.w3.org/2000/svg" xmlns:xlink="http://www.w3.org/1999/xlink" x="0px" y="0px" width="30" height="30" viewBox="0 0 30 30" xml:space="preserve">
    <g transform="translate(-330 -80)">
        <g xmlns="http://www.w3.org/2000/svg" xmlns:xlink="http://www.w3.org/1999/xlink" id="car-off-7">
		<polygon points="333,104 334,104 334,107 339,107 339,104 351,104 351,107 355.586,107 351.586,103 334,103 334,95 343.586,95     342.586,94 335.22,94 336.447,87.861 335.598,87.012 334.6,92 331,92 331,94 333,94   "/>
		<path d="M338,97c-1.103,0-2,0.897-2,2s0.897,2,2,2s2-0.897,2-2S339.103,97,338,97z M338,100c-0.553,0-1-0.447-1-1s0.447-1,1-1    s1,0.447,1,1S338.553,100,338,100z"/>
		<rect x="342" y="100" width="6" height="1"/>
		<polygon points="342,98 346.586,98 345.586,97 342,97   "/>
		<rect x="343" y="87" width="4" height="1"/>
		<path d="M357.729,107.728l0.707-0.707L356,104.585V104h1V94h2v-2h-3.6l-1.4-7h-17.586l-3.436-3.435l-0.707,0.707L357.729,107.728z     M351,99c0-0.553,0.447-1,1-1s1,0.447,1,1s-0.447,1-1,1S351,99.553,351,99z M356,95v8h-1.586l-2.038-2.038    C353.299,100.785,354,99.974,354,99c0-1.103-0.897-2-2-2c-0.974,0-1.785,0.701-1.962,1.624L346.414,95H356z M353.181,86l1.6,8    h-9.366l-8-8H353.181z"/>
	</g>
	
    </g>
</svg>
