<?xml version="1.0" encoding="iso-8859-1"?>
<!DOCTYPE svg PUBLIC "-//W3C//DTD SVG 1.1//EN" "http://www.w3.org/Graphics/SVG/1.1/DTD/svg11.dtd">
<svg version="1.1" xmlns="http://www.w3.org/2000/svg" xmlns:xlink="http://www.w3.org/1999/xlink" x="0px" y="0px" width="30" height="30" viewBox="0 0 30 30" xml:space="preserve">
    <g transform="translate(-90 -80)">
        <g xmlns="http://www.w3.org/2000/svg" xmlns:xlink="http://www.w3.org/1999/xlink" id="car-plus-7">
		<path d="M93,104h1v3h5v-3h6.15c0.695,3.423,3.721,6,7.35,6c4.143,0,7.5-3.358,7.5-7.5c0-2.451-1.182-4.621-3-5.99V94h2v-2h-3.6    l-1.4-7H96l-1.4,7H91v2h2V104z M119,102.5c0,3.59-2.91,6.5-6.5,6.5s-6.5-2.91-6.5-6.5s2.91-6.5,6.5-6.5S119,98.91,119,102.5z     M96.819,86h16.361l1.6,8H95.22L96.819,86z M94,95h18.5h3.5v0.869c-1.045-0.553-2.235-0.869-3.5-0.869    c-1.966,0-3.75,0.763-5.087,2H102v1h4.51c-0.453,0.603-0.817,1.275-1.074,2H102v1h3.15c-0.098,0.485-0.15,0.986-0.15,1.5    c0,0.169,0.014,0.334,0.025,0.5H94V95z"/>
		<path d="M98,97c-1.103,0-2,0.897-2,2s0.897,2,2,2s2-0.897,2-2S99.103,97,98,97z M98,100c-0.553,0-1-0.447-1-1s0.447-1,1-1    s1,0.447,1,1S98.553,100,98,100z"/>
		<rect x="103" y="87" width="4" height="1"/>
		<polygon points="113,102 113,98 112,98 112,102 108,102 108,103 112,103 112,107 113,107 113,103 116,103 117,103 117,102   "/>
	</g>
	
    </g>
</svg>
