<?xml version="1.0" encoding="iso-8859-1"?>
<!DOCTYPE svg PUBLIC "-//W3C//DTD SVG 1.1//EN" "http://www.w3.org/Graphics/SVG/1.1/DTD/svg11.dtd">
<svg version="1.1" xmlns="http://www.w3.org/2000/svg" xmlns:xlink="http://www.w3.org/1999/xlink" x="0px" y="0px" width="30" height="30" viewBox="0 0 30 30" xml:space="preserve">
    <g transform="translate(-210 -80)">
        <g xmlns="http://www.w3.org/2000/svg" xmlns:xlink="http://www.w3.org/1999/xlink" id="car-star-7">
		<path d="M218,97c-1.103,0-2,0.897-2,2s0.897,2,2,2s2-0.897,2-2S219.103,97,218,97z M218,100c-0.553,0-1-0.447-1-1s0.447-1,1-1    s1,0.447,1,1S218.553,100,218,100z"/>
		<rect x="223" y="87" width="4" height="1"/>
		<path d="M237,96.51V94h2v-2h-3.6l-1.4-7h-18l-1.4,7H211v2h2v10h1v3h5v-3h6.15c0.695,3.423,3.721,6,7.35,6    c4.143,0,7.5-3.358,7.5-7.5C240,100.049,238.818,97.879,237,96.51z M216.819,86h16.361l1.6,8H215.22L216.819,86z M214,103v-8h18.5    h3.5v0.869c-1.045-0.553-2.235-0.869-3.5-0.869c-1.966,0-3.75,0.763-5.087,2H222v1h4.51c-0.453,0.603-0.817,1.275-1.074,2H222v1    h3.15c-0.098,0.485-0.15,0.986-0.15,1.5c0,0.169,0.014,0.334,0.025,0.5H214z M232.5,109c-3.59,0-6.5-2.91-6.5-6.5    s2.91-6.5,6.5-6.5s6.5,2.91,6.5,6.5S236.09,109,232.5,109z"/>
		<polygon points="233.568,101 232.5,97.785 231.43,101 228,101 230.768,103.079 229.717,106.344 232.5,104.336 235.278,106.344     234.23,103.079 237,101   "/>
	</g>
	
    </g>
</svg>
