<?xml version="1.0" encoding="iso-8859-1"?>
<!DOCTYPE svg PUBLIC "-//W3C//DTD SVG 1.1//EN" "http://www.w3.org/Graphics/SVG/1.1/DTD/svg11.dtd">
<svg version="1.1" xmlns="http://www.w3.org/2000/svg" xmlns:xlink="http://www.w3.org/1999/xlink" x="0px" y="0px" width="30" height="30" viewBox="0 0 30 30" xml:space="preserve">
    <g transform="translate(-30 -80)">
        <g xmlns="http://www.w3.org/2000/svg" xmlns:xlink="http://www.w3.org/1999/xlink" id="car-7">
		<path d="M33,104h1v3h5v-3h12v3h5v-3h1V94h2v-2h-3.6L54,85H36l-1.4,7H31v2h2V104z M36.819,86h16.361l1.6,8H35.22L36.819,86z M34,95    h22v8H34V95z"/>
		<path d="M38,97c-1.103,0-2,0.897-2,2s0.897,2,2,2s2-0.897,2-2S39.103,97,38,97z M38,100c-0.553,0-1-0.447-1-1s0.447-1,1-1    s1,0.447,1,1S38.553,100,38,100z"/>
		<path d="M52,97c-1.103,0-2,0.897-2,2s0.897,2,2,2s2-0.897,2-2S53.103,97,52,97z M52,100c-0.553,0-1-0.447-1-1s0.447-1,1-1    s1,0.447,1,1S52.553,100,52,100z"/>
		<rect x="42" y="100" width="6" height="1"/>
		<rect x="42" y="97" width="6" height="1"/>
		<rect x="43" y="87" width="4" height="1"/>
	</g>

    </g>
</svg>
