<?xml version="1.0" encoding="iso-8859-1"?>
<!DOCTYPE svg PUBLIC "-//W3C//DTD SVG 1.1//EN" "http://www.w3.org/Graphics/SVG/1.1/DTD/svg11.dtd">
<svg version="1.1" xmlns="http://www.w3.org/2000/svg" xmlns:xlink="http://www.w3.org/1999/xlink" x="0px" y="0px" width="30" height="30" viewBox="0 0 30 30" xml:space="preserve">
    <g transform="translate(-150 -80)">
        <g xmlns="http://www.w3.org/2000/svg" xmlns:xlink="http://www.w3.org/1999/xlink" id="car-minus-7">
		<path d="M158,97c-1.103,0-2,0.897-2,2s0.897,2,2,2s2-0.897,2-2S159.103,97,158,97z M158,100c-0.553,0-1-0.447-1-1s0.447-1,1-1    s1,0.447,1,1S158.553,100,158,100z"/>
		<rect x="163" y="87" width="4" height="1"/>
		<path d="M177,96.51V94h2v-2h-3.6l-1.4-7h-18l-1.4,7H151v2h2v10h1v3h5v-3h6.15c0.695,3.423,3.721,6,7.35,6    c4.143,0,7.5-3.358,7.5-7.5C180,100.049,178.818,97.879,177,96.51z M156.819,86h16.361l1.6,8H155.22L156.819,86z M154,103v-8h18.5    h3.5v0.869c-1.045-0.553-2.235-0.869-3.5-0.869c-1.966,0-3.75,0.763-5.087,2H162v1h4.51c-0.453,0.603-0.817,1.275-1.074,2H162v1    h3.15c-0.098,0.485-0.15,0.986-0.15,1.5c0,0.169,0.014,0.334,0.025,0.5H154z M172.5,109c-3.59,0-6.5-2.91-6.5-6.5    s2.91-6.5,6.5-6.5s6.5,2.91,6.5,6.5S176.09,109,172.5,109z"/>
		<polygon points="168,102 168,103 176,103 177,103 177,102   "/>
	</g>
	
    </g>
</svg>
