<?xml version="1.0" encoding="iso-8859-1"?>
<!DOCTYPE svg PUBLIC "-//W3C//DTD SVG 1.1//EN" "http://www.w3.org/Graphics/SVG/1.1/DTD/svg11.dtd">
<svg version="1.1" xmlns="http://www.w3.org/2000/svg" xmlns:xlink="http://www.w3.org/1999/xlink" x="0px" y="0px" width="30" height="30" viewBox="0 0 30 30" xml:space="preserve">
    <g transform="translate(-450 -380)">
        <g xmlns="http://www.w3.org/2000/svg" xmlns:xlink="http://www.w3.org/1999/xlink" id="earth-america-turn-7">
		<path d="M468.071,404.706c2.421-1.088,4.879-3.359,5.273-4.421c0.402-1.088,1.326-2.451,1.067-3.19    c-1.003,1.337-2.142,2.656-3.401,3.916c-1.539,1.538-3.166,2.903-4.807,4.05C466.843,404.99,467.471,404.883,468.071,404.706z"/>
		<path d="M476.861,393.272c0.082,0.565,0.139,1.14,0.139,1.728c0,6.617-5.383,12-12,12c-0.588,0-1.162-0.057-1.728-0.139    c-0.502,0.266-0.999,0.504-1.493,0.72c1.032,0.264,2.106,0.419,3.221,0.419c7.18,0,13-5.82,13-13c0-1.114-0.155-2.188-0.419-3.221    C477.365,392.273,477.127,392.771,476.861,393.272z"/>
		<path d="M457.683,405.743c0.438-0.072,0.896-0.175,1.382-0.327C455.448,403.347,453,399.457,453,395    c0-3.616,1.615-6.857,4.154-9.059c-0.916,1.452-0.732,5.504,1.267,6.697c4.031,2.409,6.389,2.252,6.231,3.718    c-0.158,1.466-0.158,3.51,1.466,4.295c0.19,0.092,0.318,0.229,0.403,0.396c0.803-0.668,1.597-1.387,2.368-2.158    c0.962-0.962,1.84-1.958,2.637-2.964c-1.289-0.45-2.646-1.037-3.365-1.663c-1.205-1.047-2.095,0.104-2.934,0    c-0.838-0.104-3.457-0.839-3.246-1.361c0.209-0.523,0.261-1.1-0.313-0.995c-0.578,0.104-2.095,1.729-1.624-1.52    c0.471-3.246,2.88-0.156,3.246,0.315c0.366,0.471,0.314-2.305,1.728-3.143c1.414-0.838,3.509-1.728,2.776-2.355    c-0.604-0.519-2.232-1.518-2.789-2.204c4.455,0.002,8.342,2.449,10.41,6.063c0.152-0.486,0.257-0.946,0.327-1.382    C473.402,384.253,469.465,382,465,382c-7.18,0-13,5.82-13,13C452,399.465,454.253,403.402,457.683,405.743z"/>
		<path d="M476.33,384.513c0.774,1.25,0.679,3.316-0.296,5.805c-1.177,3.009-3.463,6.305-6.438,9.279s-6.271,5.261-9.279,6.438    c-1.388,0.543-2.642,0.81-3.698,0.809c-1.102-0.001-1.989-0.293-2.579-0.883l-0.707,0.707c0.79,0.79,1.907,1.187,3.279,1.187    c0.001,0,0.002,0,0.003,0c1.184-0.001,2.555-0.296,4.067-0.888c3.134-1.227,6.551-3.593,9.621-6.662    c3.069-3.07,5.436-6.487,6.662-9.621c1.171-2.992,1.167-5.422,0.031-6.941l1.031-0.273l0.743-0.197l-1.325-0.557l-1.109-0.465    l-2.521-1.059l1.059,2.521l0.51,1.214l0.372,0.886l0.141,0.335L476.33,384.513z"/>
	</g>
	
    </g>
</svg>
