<?xml version="1.0" encoding="iso-8859-1"?>
<!DOCTYPE svg PUBLIC "-//W3C//DTD SVG 1.1//EN" "http://www.w3.org/Graphics/SVG/1.1/DTD/svg11.dtd">
<svg version="1.1" xmlns="http://www.w3.org/2000/svg" xmlns:xlink="http://www.w3.org/1999/xlink" x="0px" y="0px" width="30" height="30" viewBox="0 0 30 30" xml:space="preserve">
    <g transform="translate(-510 -380)">
        <g xmlns="http://www.w3.org/2000/svg" xmlns:xlink="http://www.w3.org/1999/xlink" id="earth-europe-turn-7">
		<path d="M526.893,397.981c-0.072-0.969-0.669,0.744-1.713,1.192c-1.043,0.447-0.539,1.992,0.073,2.16    C526.893,401.781,526.967,398.95,526.893,397.981z"/>
		<path d="M517.683,405.743c0.438-0.072,0.896-0.175,1.382-0.327C515.448,403.347,513,399.457,513,395    c0-0.793,0.082-1.567,0.229-2.317c0.187,0.169,0.394,0.294,0.636,0.308c1.359,0.074,2.342-0.075,2.494,0.819    c0.15,0.895,1.736,3.128,1.283,5.141c-0.453,2.011,0.904,3.353,2.418,3.874c1.511,0.521,2.493-0.671,2.72-1.863    c0.227-1.191,0.905-2.458,1.511-2.383c0.605,0.074-1.209-2.533,0.151-3.279c1.36-0.745,3.175-2.905,3.098-3.65    s-1.889,0.745-2.341,0.074c-0.454-0.671-2.72-4.619-2.117-4.396c0.605,0.224,2.947,3.948,4.759,2.981    c1.814-0.971,2.192-1.416,1.361-1.863s1.661-1.416,2.57,0.223c0.87,1.577,1.26,3.006,2.16,3.711    c0.146-0.257,0.278-0.512,0.409-0.768c-0.06-0.423-0.077-0.895,0.149-1.23c0.285-0.42,0.603-0.973,0.897-1.238    c0.165-0.516,0.279-1.003,0.354-1.461C533.402,384.253,529.465,382,525,382c-7.18,0-13,5.82-13,13    C512,399.465,514.253,403.402,517.683,405.743z"/>
		<path d="M536.864,393.266C536.948,393.833,537,394.41,537,395c0,6.617-5.383,12-12,12c-0.588,0-1.162-0.057-1.728-0.139    c-0.502,0.266-0.999,0.504-1.493,0.72c1.032,0.264,2.106,0.419,3.221,0.419c7.18,0,13-5.82,13-13c0-1.114-0.155-2.188-0.419-3.221    C537.365,392.271,537.129,392.766,536.864,393.266z"/>
		<path d="M536.33,384.513c0.774,1.25,0.679,3.316-0.296,5.805c-1.177,3.009-3.463,6.305-6.438,9.279s-6.271,5.261-9.279,6.438    c-1.388,0.543-2.642,0.81-3.698,0.809c-1.102-0.001-1.989-0.293-2.579-0.883l-0.707,0.707c0.79,0.79,1.907,1.187,3.279,1.187    c0.001,0,0.002,0,0.003,0c1.184-0.001,2.555-0.296,4.067-0.888c3.134-1.227,6.551-3.593,9.621-6.662    c3.069-3.07,5.436-6.487,6.662-9.621c1.171-2.992,1.167-5.422,0.031-6.941l1.031-0.273l0.743-0.197l-1.325-0.557l-1.109-0.465    l-2.521-1.059l1.059,2.521l0.51,1.214l0.372,0.886l0.141,0.335L536.33,384.513z"/>
	</g>
	
    </g>
</svg>
