<?xml version="1.0" encoding="iso-8859-1"?>
<!DOCTYPE svg PUBLIC "-//W3C//DTD SVG 1.1//EN" "http://www.w3.org/Graphics/SVG/1.1/DTD/svg11.dtd">
<svg version="1.1" xmlns="http://www.w3.org/2000/svg" xmlns:xlink="http://www.w3.org/1999/xlink" x="0px" y="0px" width="30" height="30" viewBox="0 0 30 30" xml:space="preserve">
    <g transform="translate(-450 -200)">
        <g xmlns="http://www.w3.org/2000/svg" xmlns:xlink="http://www.w3.org/1999/xlink" id="helicopter-7">
		<path d="M457,207h11v3.048c-1.463,0.183-2.534,0.928-3.302,1.952h-9.749c-0.231-1.141-1.239-2-2.449-2c-1.381,0-2.5,1.119-2.5,2.5    s1.119,2.5,2.5,2.5c0.792,0,1.49-0.376,1.948-0.951l8.559,3.668c-0.002,0.094-0.007,0.19-0.007,0.283c0,2.087,0.516,3.13,2,3.618    V224h-5v1h18v-1h-5v-2.254c3.193-0.42,6-1.455,6-3.746c0-3.243-5.618-7.79-10-7.982V207h11v-1h-23V207z M452.5,214    c-0.828,0-1.5-0.672-1.5-1.5s0.672-1.5,1.5-1.5s1.5,0.672,1.5,1.5S453.328,214,452.5,214z M463.07,216.656l-8.168-3.5    c0.014-0.053,0.036-0.102,0.047-0.156h9.131C463.512,214.124,463.197,215.423,463.07,216.656z M472,224h-6v-2.154    c0.735,0.112,1.629,0.154,2.714,0.154c1.047,0,2.174-0.041,3.286-0.144V224z M470.478,211.256c2.888,0.766,5.925,3.158,7.057,5.23    c-2.854-0.071-4.894-0.78-6.044-2.128C470.447,213.136,470.445,211.727,470.478,211.256z M469.49,211.052    c-0.053,0.505-0.133,2.335,1.226,3.939c1.401,1.654,3.834,2.497,7.225,2.507c0.039,0.173,0.06,0.341,0.06,0.502    c0,2.212-4.797,3-9.286,3c-4.499,0-4.714-0.721-4.714-3c0-0.716,0.132-7,4.714-7C468.968,211,469.228,211.019,469.49,211.052z"/>
	</g>
	
    </g>
</svg>
