<?xml version="1.0" encoding="iso-8859-1"?>
<!DOCTYPE svg PUBLIC "-//W3C//DTD SVG 1.1//EN" "http://www.w3.org/Graphics/SVG/1.1/DTD/svg11.dtd">
<svg version="1.1" xmlns="http://www.w3.org/2000/svg" xmlns:xlink="http://www.w3.org/1999/xlink" x="0px" y="0px" width="30" height="30" viewBox="0 0 30 30" xml:space="preserve">
    <g transform="translate(-510 -200)">
        <g xmlns="http://www.w3.org/2000/svg" xmlns:xlink="http://www.w3.org/1999/xlink" id="hot-air-balloon-7">
		<path d="M528,228v-4c0-6.287,8-3.572,8-13.001c0-5.396-2.951-8.247-7.034-9.283c-0.355-0.09-0.72-0.166-1.091-0.229    c-0.921-0.156-1.882-0.238-2.875-0.238s-1.954,0.082-2.875,0.238c-0.371,0.063-0.735,0.14-1.091,0.229    c-4.083,1.036-7.034,3.887-7.034,9.283c0,9.429,8,6.714,8,13.001v4H528z M527,224v1h-4v-1c0-0.36-0.034-0.686-0.078-1h4.156    C527.034,223.314,527,223.64,527,224z M535,210.999c0,4.635-2.007,5.886-4.133,7.21c-1.398,0.872-2.931,1.845-3.562,3.791h-0.703    c0.309-2.842,1.275-4.135,2.146-5.295c0.9-1.198,1.751-2.331,1.751-4.705c0-3.008-0.696-6.662-1.272-9.175    C532.2,203.722,535,205.909,535,210.999z M521.868,202.544c1.11-0.225,2.199-0.296,3.132-0.296s2.022,0.071,3.132,0.296    c0.582,2.468,1.368,6.369,1.368,9.456c0,2.041-0.685,2.951-1.55,4.104c-0.966,1.284-2.035,2.721-2.354,5.896h-1.193    c-0.318-3.175-1.388-4.611-2.354-5.896c-0.865-1.153-1.55-2.063-1.55-4.104C520.5,208.915,521.286,205.012,521.868,202.544z     M519.133,218.209c-2.126-1.324-4.133-2.575-4.133-7.21c0-5.09,2.8-7.277,5.772-8.174c-0.576,2.513-1.272,6.167-1.272,9.175    c0,2.374,0.851,3.507,1.751,4.705c0.871,1.16,1.838,2.453,2.146,5.295h-0.702C522.063,220.054,520.531,219.081,519.133,218.209z"/>
	</g>
	
    </g>
</svg>
