<?xml version="1.0" encoding="iso-8859-1"?>
<!DOCTYPE svg PUBLIC "-//W3C//DTD SVG 1.1//EN" "http://www.w3.org/Graphics/SVG/1.1/DTD/svg11.dtd">
<svg version="1.1" xmlns="http://www.w3.org/2000/svg" xmlns:xlink="http://www.w3.org/1999/xlink" x="0px" y="0px" width="30" height="30" viewBox="0 0 30 30" xml:space="preserve">
    <g transform="translate(-390 -320)">
        <g xmlns="http://www.w3.org/2000/svg" xmlns:xlink="http://www.w3.org/1999/xlink" id="logistic-cart-7">
		<path d="M417.754,337.93l-10.459,3.807C406.573,340.689,405.368,340,404,340c-0.129,0-0.252,0.026-0.378,0.038l-5.864-16.113    l-0.343-0.94l-5.638,2.053l0.342,0.939l4.698-1.709l5.819,15.986c-1.535,0.56-2.637,2.018-2.637,3.746c0,2.209,1.79,4,4,4    s4-1.791,4-4c0-0.48-0.099-0.936-0.254-1.363l10.35-3.767L417.754,337.93z M404,347c-1.654,0-3-1.346-3-3s1.346-3,3-3s3,1.346,3,3    S405.654,347,404,347z"/>
		<path d="M414.25,337.076l-2.735-7.517l-2.819,1.026l-1.71-4.699l-5.639,2.052l1.71,4.699l2.736,7.518L414.25,337.076z     M402.629,328.536l3.759-1.368l1.368,3.759l-3.759,1.368L402.629,328.536z M410.917,330.841l2.052,5.638l-6.578,2.395    l-2.052-5.638L410.917,330.841z"/>
		<circle cx="404" cy="344" r="1"/>
	</g>
	
    </g>
</svg>
