<?xml version="1.0" encoding="iso-8859-1"?>
<!DOCTYPE svg PUBLIC "-//W3C//DTD SVG 1.1//EN" "http://www.w3.org/Graphics/SVG/1.1/DTD/svg11.dtd">
<svg version="1.1" xmlns="http://www.w3.org/2000/svg" xmlns:xlink="http://www.w3.org/1999/xlink" x="0px" y="0px" width="30" height="30" viewBox="0 0 30 30" xml:space="preserve">
    <g transform="translate(-450 -80)">
        <g xmlns="http://www.w3.org/2000/svg" xmlns:xlink="http://www.w3.org/1999/xlink" id="motorcycle-7">
		<path d="M456.5,96c-2.485,0-4.5,2.015-4.5,4.5s2.015,4.5,4.5,4.5c2.314,0,4.197-1.753,4.449-4h5.337l4.687-7.967l0.885,3.287    c-1.671,0.656-2.857,2.275-2.857,4.18c0,2.485,2.015,4.5,4.5,4.5s4.5-2.015,4.5-4.5s-2.015-4.5-4.5-4.5    c-0.231,0-0.453,0.034-0.676,0.068L470.383,87H465v1h4.617l0.566,2.104l-6.526,3.729L461.768,91H453v3h6.21l3.429,6h-1.689    C460.697,97.753,458.814,96,456.5,96z M459.949,101c-0.245,1.691-1.69,3-3.449,3c-1.93,0-3.5-1.57-3.5-3.5s1.57-3.5,3.5-3.5    c1.759,0,3.204,1.309,3.449,3H456v1H459.949z M473.018,100.63l0.965-0.26l-0.896-3.328C473.224,97.025,473.358,97,473.5,97    c1.93,0,3.5,1.57,3.5,3.5s-1.57,3.5-3.5,3.5s-3.5-1.57-3.5-3.5c0-1.438,0.874-2.676,2.117-3.213L473.018,100.63z M459.79,93H454    v-1h7.232l2.11,3.166l7.11-4.063l0.184,0.682l-0.067-0.039L465.714,100h-1.923L459.79,93z"/>
		<path d="M474.5,92v-4c-1.104,0-2,0.896-2,2S473.396,92,474.5,92z"/>
	</g>
	
    </g>
</svg>
