<?xml version="1.0" encoding="iso-8859-1"?>
<!DOCTYPE svg PUBLIC "-//W3C//DTD SVG 1.1//EN" "http://www.w3.org/Graphics/SVG/1.1/DTD/svg11.dtd">
<svg version="1.1" xmlns="http://www.w3.org/2000/svg" xmlns:xlink="http://www.w3.org/1999/xlink" x="0px" y="0px" width="29" height="30" viewBox="0 0 29 30" xml:space="preserve">
    <g transform="translate(-270 -380)">
        <g xmlns="http://www.w3.org/2000/svg" xmlns:xlink="http://www.w3.org/1999/xlink" id="paper-box-tick-7">
		<path d="M281.5,382l-11.5,6.64v12l11,6.351l0.5,0.289l0.5-0.289l2.618-1.512c1.152,2.66,3.799,4.521,6.882,4.521    c4.143,0,7.5-3.357,7.5-7.5c0-3.629-2.576-6.654-6-7.35v-6.511L281.5,382z M281.5,383.154l10,5.774l-4.5,2.599l-10-5.774    L281.5,383.154z M281,405.836l-10-5.773v-10.269l10,5.774V405.836z M281.5,394.702l-10-5.773l4.5-2.599l10.001,5.773    L281.5,394.702z M282,405.836v-10.268l10-5.774v5.231c-0.166-0.011-0.331-0.025-0.5-0.025c-4.143,0-7.5,3.357-7.5,7.5    c0,0.7,0.104,1.375,0.283,2.018L282,405.836z M298,402.5c0,3.59-2.91,6.5-6.5,6.5s-6.5-2.91-6.5-6.5s2.91-6.5,6.5-6.5    S298,398.91,298,402.5z"/>
		<polygon points="287.965,402.146 287.258,402.854 290.086,405.682 295.742,400.025 295.035,399.318 290.086,404.268   "/>
	</g>
	
    </g>
</svg>
