<?xml version="1.0" encoding="iso-8859-1"?>
<!DOCTYPE svg PUBLIC "-//W3C//DTD SVG 1.1//EN" "http://www.w3.org/Graphics/SVG/1.1/DTD/svg11.dtd">
<svg version="1.1" xmlns="http://www.w3.org/2000/svg" xmlns:xlink="http://www.w3.org/1999/xlink" x="0px" y="0px" width="31" height="30" viewBox="0 0 31 30" xml:space="preserve">
    <g transform="translate(-390 -380)">
        <g xmlns="http://www.w3.org/2000/svg" xmlns:xlink="http://www.w3.org/1999/xlink" id="paper-box-open-7">
		<path d="M410.162,383l-4.661,2.689H405.5h-0.001L400.838,383l-9.957,5.748l4.662,2.692l-4.662,2.693L396,397.09v4.998l9.5,5.484    l9.5-5.484v-4.999l5.119-2.955l-4.662-2.693l4.662-2.692L410.162,383z M392.88,388.749l7.958-4.595l3.66,2.113l-7.958,4.595    L392.88,388.749z M392.88,394.132l3.66-2.113l7.958,4.596l-3.66,2.113L392.88,394.132z M405,406.129l-8-4.618v-3.845l3.838,2.216    L405,397.48l0.001-0.001L405,406.129z M397.54,391.44l7.96-4.595l7.96,4.595l-7.96,4.595L397.54,391.44z M414,401.511l-8,4.618    v-8.648l4.162,2.401l3.838-2.216V401.511z M418.12,394.132l-7.958,4.596l-3.66-2.113l7.958-4.596L418.12,394.132z M414.46,390.862    l-7.958-4.595l3.66-2.113l7.958,4.595L414.46,390.862z"/>
	</g>
	
    </g>
</svg>
