<?xml version="1.0" encoding="iso-8859-1"?>
<!DOCTYPE svg PUBLIC "-//W3C//DTD SVG 1.1//EN" "http://www.w3.org/Graphics/SVG/1.1/DTD/svg11.dtd">
<svg version="1.1" xmlns="http://www.w3.org/2000/svg" xmlns:xlink="http://www.w3.org/1999/xlink" x="0px" y="0px" width="29" height="30" viewBox="0 0 29 30" xml:space="preserve">
    <g transform="translate(-90 -380)">
        <g xmlns="http://www.w3.org/2000/svg" xmlns:xlink="http://www.w3.org/1999/xlink" id="paper-box-plus-7">
		<path d="M101.5,407.279l0.5-0.289l2.618-1.512c1.152,2.66,3.799,4.521,6.882,4.521c4.143,0,7.5-3.357,7.5-7.5    c0-3.629-2.576-6.654-6-7.35v-6.511L101.5,382L90,388.64v12l11,6.351L101.5,407.279z M118,402.5c0,3.59-2.91,6.5-6.5,6.5    s-6.5-2.91-6.5-6.5s2.91-6.5,6.5-6.5S118,398.91,118,402.5z M112,395.025c-0.166-0.011-0.331-0.025-0.5-0.025    c-4.143,0-7.5,3.357-7.5,7.5c0,0.7,0.104,1.375,0.283,2.018L102,405.836v-10.268l10-5.774V395.025z M101.5,383.154l10,5.774    l-4.5,2.599l-10-5.774L101.5,383.154z M96,386.33l10.001,5.773l-4.501,2.599l-10-5.773L96,386.33z M91,389.794l10,5.774v10.268    l-10-5.773V389.794z"/>
		<polygon points="112,400.063 112,398 111,398 111,402 107,402 107,403 111,403 111,407 112,407 112,403 116,403 116,402 112,402       "/>
	</g>
	
    </g>
</svg>
