<?xml version="1.0" encoding="iso-8859-1"?>
<!DOCTYPE svg PUBLIC "-//W3C//DTD SVG 1.1//EN" "http://www.w3.org/Graphics/SVG/1.1/DTD/svg11.dtd">
<svg version="1.1" xmlns="http://www.w3.org/2000/svg" xmlns:xlink="http://www.w3.org/1999/xlink" x="0px" y="0px" width="29" height="30" viewBox="0 0 29 30" xml:space="preserve">
    <g transform="translate(-330 -380)">
        <g xmlns="http://www.w3.org/2000/svg" xmlns:xlink="http://www.w3.org/1999/xlink" id="paper-box-off-7">
		<polygon points="345,405.836 345,396.914 344,395.914 344,405.836 334,400.063 334,389.794 343.182,395.096 340.449,392.363     334.5,388.929 336.094,388.008 335.362,387.276 333,388.64 333,400.64 344,406.99 344.5,407.279 345,406.99 351.388,403.302     350.656,402.57   "/>
		<path d="M357.229,407.729l0.707-0.707l-4.754-4.754L356,400.64v-12L344.5,382l-7.345,4.241l-4.677-4.677l-0.707,0.707    L357.229,407.729z M355,400.063l-2.551,1.473l-6.51-6.51l9.061-5.231V400.063z M344.5,383.154l10,5.774l-4.5,2.599l-10-5.774    L344.5,383.154z M339,386.33l10.001,5.773l-3.793,2.19l-7.321-7.321L339,386.33z"/>
	</g>
	
    </g>
</svg>
