<?xml version="1.0" encoding="iso-8859-1"?>
<!DOCTYPE svg PUBLIC "-//W3C//DTD SVG 1.1//EN" "http://www.w3.org/Graphics/SVG/1.1/DTD/svg11.dtd">
<svg version="1.1" xmlns="http://www.w3.org/2000/svg" xmlns:xlink="http://www.w3.org/1999/xlink" x="0px" y="0px" width="29" height="30" viewBox="0 0 29 30" xml:space="preserve">
    <g transform="translate(-30 -200)">
        <g xmlns="http://www.w3.org/2000/svg" xmlns:xlink="http://www.w3.org/1999/xlink" id="propeller-plane-7">
		<path d="M55,213c1.104,0,2-0.896,2-2v-2c0-1.104-0.896-2-2-2h-8v-2h-2v-1h3v-1h-3v-1h-1v1h-3v1h3v1h-2v2h-8c-1.104,0-2,0.896-2,2    v2c0,1.104,0.896,2,2,2h8.143l0.644,9H40c-0.553,0-1,0.448-1,1v2c0,0.552,0.447,1,1,1h3v2h3v-2h3c0.553,0,1-0.448,1-1v-2    c0-0.552-0.447-1-1-1h-2.786l0.644-9H55z M43,206h3v1h-3V206z M43,225h-3v-2h3V225z M45,227h-1v-4h1V227z M45.212,222h-1.424    l-0.643-9h2.709L45.212,222z M49,223v2h-3v-2H49z M34,212c-0.552,0-1-0.449-1-1v-2c0-0.551,0.448-1,1-1h21c0.552,0,1,0.449,1,1v2    c0,0.551-0.448,1-1,1H34z"/>
		<rect x="34" y="209" width="4" height="1"/>
		<rect x="39" y="209" width="1" height="1"/>
		<rect x="51" y="209" width="4" height="1"/>
		<rect x="49" y="209" width="1" height="1"/>
	</g>
	
    </g>
</svg>
