<?xml version="1.0" encoding="iso-8859-1"?>
<!DOCTYPE svg PUBLIC "-//W3C//DTD SVG 1.1//EN" "http://www.w3.org/Graphics/SVG/1.1/DTD/svg11.dtd">
<svg version="1.1" xmlns="http://www.w3.org/2000/svg" xmlns:xlink="http://www.w3.org/1999/xlink" x="0px" y="0px" width="30" height="30" viewBox="0 0 30 30" xml:space="preserve">
    <g transform="translate(-570 -320)">
        <g xmlns="http://www.w3.org/2000/svg" xmlns:xlink="http://www.w3.org/1999/xlink" id="satellite-7">
		<path d="M585.92,339.03l1.414-1.414l8.485,8.485l3.535-3.537l-8.484-8.484l-0.001-0.001l1.415-1.413l-1.414-1.414l0.707-0.707    l-2.123-2.122l-0.707,0.708l-1.413-1.414l-1.414,1.414l-8.485-8.486l-3.536,3.535l8.486,8.486l-1.415,1.415l-6.363,2.12    l9.192,9.192L585.92,339.03z M597.94,342.564l-2.121,2.123l-3.536-3.535l0.001-0.001l2.121-2.121L597.94,342.564z     M593.698,338.323l-2.121,2.121h-0.001l-3.535-3.535l2.121-2.121L593.698,338.323z M575.313,324.18l2.122-2.121l3.536,3.536    l-0.001,0.001l-2.121,2.12L575.313,324.18z M579.556,328.423l2.122-2.121l3.535,3.536l-2.121,2.121L579.556,328.423z     M587.333,329.131l3.537,3.535l-5.657,5.657l-3.537-3.536L587.333,329.131z M576.458,336.639l4.241-1.415l4.076,4.077    l-1.415,4.242L576.458,336.639z"/>
		<path d="M579.993,350l0.001-0.999c-2.304,0-4.61-0.877-6.363-2.632c-1.756-1.755-2.632-4.06-2.633-6.364L570,340.006    c-0.001,2.561,0.973,5.121,2.922,7.07C574.873,349.026,577.434,350.001,579.993,350z"/>
		<path d="M572.997,340.005c0.001,1.793,0.684,3.586,2.048,4.95c1.364,1.365,3.157,2.047,4.949,2.048v-1    c-1.536-0.001-3.073-0.584-4.243-1.754s-1.754-2.706-1.753-4.243L572.997,340.005z"/>
	</g>
	
    </g>
</svg>
