<?xml version="1.0" encoding="iso-8859-1"?>
<!DOCTYPE svg PUBLIC "-//W3C//DTD SVG 1.1//EN" "http://www.w3.org/Graphics/SVG/1.1/DTD/svg11.dtd">
<svg version="1.1" xmlns="http://www.w3.org/2000/svg" xmlns:xlink="http://www.w3.org/1999/xlink" x="0px" y="0px" width="30" height="30" viewBox="0 0 30 30" xml:space="preserve">
    <g transform="translate(-570 -200)">
        <g xmlns="http://www.w3.org/2000/svg" xmlns:xlink="http://www.w3.org/1999/xlink" id="spaceship-7">
		<path d="M597.364,202.637c0,0-6.628-0.443-11.313,4.242c-1.104,1.103-2.184,2.363-3.17,3.669l-6.73-0.841l-4.949,3.535l7.75,4.173    c-0.561,1.623-0.637,2.94,0.028,3.606c0.665,0.665,1.982,0.587,3.604,0.027l4.174,7.75l3.535-4.949l-0.842-6.73    c1.307-0.987,2.567-2.067,3.67-3.17C597.808,209.264,597.364,202.637,597.364,202.637z M573.089,213.123l3.325-2.375l5.792,0.724    c-1.215,1.714-2.231,3.456-2.892,5.004L573.089,213.123z M586.074,218.215c-0.629,0.382-1.237,0.721-1.814,1.014l-3.488-3.487    c0.293-0.577,0.632-1.186,1.014-1.814L586.074,218.215z M579.687,220.314c-0.437-0.437-0.175-1.808,0.629-3.615l2.985,2.986    C581.492,220.488,580.123,220.75,579.687,220.314z M586.877,226.912l-3.353-6.228c1.548-0.66,3.29-1.676,5.004-2.891l0.724,5.792    L586.877,226.912z M586.941,217.668l-4.609-4.608c1.181-1.81,2.678-3.726,4.426-5.474c3.31-3.311,7.706-3.869,9.604-3.949    c-0.084,1.9-0.65,6.311-3.947,9.605C590.666,214.99,588.751,216.487,586.941,217.668z"/>
		<path d="M591,207c-1.104,0-2,0.896-2,2s0.896,2,2,2c1.105,0,2-0.896,2-2S592.105,207,591,207z M591,210c-0.553,0-1-0.447-1-1    c0-0.552,0.447-1,1-1s1,0.448,1,1C592,209.553,591.553,210,591,210z"/>
		<polygon points="580.134,223.365 579.239,222.918 577.942,225.512 573.912,226.088 574.488,222.057 577.082,220.76     576.635,219.867 573.571,221.398 572.733,227.266 578.602,226.428   "/>
	</g>
	
    </g>
</svg>
