<?xml version="1.0" encoding="iso-8859-1"?>
<!DOCTYPE svg PUBLIC "-//W3C//DTD SVG 1.1//EN" "http://www.w3.org/Graphics/SVG/1.1/DTD/svg11.dtd">
<svg version="1.1" xmlns="http://www.w3.org/2000/svg" xmlns:xlink="http://www.w3.org/1999/xlink" x="0px" y="0px" width="48" height="30" viewBox="0 0 48 30" xml:space="preserve">
    <g transform="translate(-342 -260)">
        <g xmlns="http://www.w3.org/2000/svg" xmlns:xlink="http://www.w3.org/1999/xlink" id="submarine-7">
		<path d="M385,273c0,0-4.137,0-9,0l-1-4h-5v-4h-1v4h-1v-5h-1v5h-1l-4,4c-0.424,0-0.771,0-1,0c-1.707,0-6.652,0.647-10.598,1.206    L349,270h-3v4.849c-0.626,0.094-1,0.151-1,0.151s-2,1.447-2,2s2,2,2,2s0.374,0.058,1,0.151V284h3l1.402-4.206    C354.348,280.353,359.293,281,361,281c3,0,24,0,24,0c2.209,0,4-1.791,4-4S387.209,273,385,273z M345.395,278.049    c-0.483-0.364-0.954-0.769-1.228-1.049c0.273-0.28,0.744-0.685,1.228-1.049L346,275.86v2.279L345.395,278.049z M385,280h-24    c-1.296,0-5.01-0.425-10.457-1.196l-0.825-0.117L348.279,283H347v-4v-0.71v-2.58V275v-4h1.279l1.438,4.313l0.825-0.117    C355.99,274.425,359.704,274,361,274h1.414l4-4h7.805l0.25,1H368v1h6.719l0.5,2H385c1.654,0,3,1.346,3,3S386.654,280,385,280z"/>
		<rect x="378" y="275" width="8" height="1"/>
		<rect x="376" y="275" width="1" height="1"/>
		<rect x="370" y="275" width="1" height="1"/>
		<rect x="368" y="275" width="1" height="1"/>
		<rect x="366" y="275" width="1" height="1"/>
	</g>
	
    </g>
</svg>
