<?xml version="1.0" encoding="iso-8859-1"?>
<!DOCTYPE svg PUBLIC "-//W3C//DTD SVG 1.1//EN" "http://www.w3.org/Graphics/SVG/1.1/DTD/svg11.dtd">
<svg version="1.1" xmlns="http://www.w3.org/2000/svg" xmlns:xlink="http://www.w3.org/1999/xlink" x="0px" y="0px" width="30" height="30" viewBox="0 0 30 30" xml:space="preserve">
    <g transform="translate(-270 -140)">
        <g xmlns="http://www.w3.org/2000/svg" xmlns:xlink="http://www.w3.org/1999/xlink" id="tow-truck-7">
		<path d="M271,155h3.5c0.277,0,0.5-0.224,0.5-0.5V153h-1v1h-2.24l1.201-2.803c0.025-0.063,0.039-0.129,0.039-0.197v-2.092    c0.049-0.018,0.098-0.036,0.145-0.059l7.148,7.15H274v4h-1v2h3c0,1.657,1.344,3,3,3c1.657,0,3-1.343,3-3h9c0,1.657,1.344,3,3,3    c1.657,0,3-1.343,3-3h3v-2h-1v-4l-6-1l-2-5h-7v2.916l-10.02-5.211c0.009-0.068,0.02-0.135,0.02-0.205c0-0.828-0.672-1.5-1.5-1.5    s-1.5,0.672-1.5,1.5c0,0.652,0.42,1.202,1.002,1.408c0,0-0.001,0-0.002,0v1.99l-1.459,3.404c-0.066,0.154-0.051,0.332,0.043,0.473    C270.676,154.916,270.832,155,271,155z M279,164c-1.104,0-2-0.896-2-2s0.896-2,2-2c1.105,0,2,0.896,2,2S280.105,164,279,164z     M294,164c-1.104,0-2-0.896-2-2s0.896-2,2-2c1.105,0,2,0.896,2,2S295.105,164,294,164z M285,151h5.323l1.601,4H285V151z M285,157    v-1h7.92l5.08,0.847V161h-1.184c-0.412-1.163-1.512-2-2.816-2c-1.304,0-2.402,0.837-2.816,2h-9.367c-0.412-1.163-1.512-2-2.816-2    c-1.304,0-2.402,0.837-2.816,2H275v-4H285z M284,154.044V156h-2.293l-6.559-6.561L284,154.044z M272,147.5    c0-0.276,0.225-0.5,0.5-0.5c0.277,0,0.5,0.224,0.5,0.5s-0.223,0.5-0.5,0.5C272.225,148,272,147.776,272,147.5z"/>
	</g>
	
    </g>
</svg>
