<?xml version="1.0" encoding="iso-8859-1"?>
<!DOCTYPE svg PUBLIC "-//W3C//DTD SVG 1.1//EN" "http://www.w3.org/Graphics/SVG/1.1/DTD/svg11.dtd">
<svg version="1.1" xmlns="http://www.w3.org/2000/svg" xmlns:xlink="http://www.w3.org/1999/xlink" x="0px" y="0px" width="48" height="30" viewBox="0 0 48 30" xml:space="preserve">
    <g transform="translate(-30 -260)">
        <g xmlns="http://www.w3.org/2000/svg" xmlns:xlink="http://www.w3.org/1999/xlink" id="trailer-truck-7">
		<polygon points="53,266 31,266 31,267 52,267 52,277 31,277 31,278 53,278   "/>
		<rect x="60" y="269" width="2" height="1"/>
		<rect x="58" y="269" width="1" height="1"/>
		<path d="M76,276l-7-2l-1-3h-1l-4-4h-7v12h-1v-13c0-0.864-0.522-2.5-2.5-2.5v1c1.411,0,1.497,1.252,1.5,1.5v13h-3v3h-2.051    c-0.244-1.694-1.688-3-3.449-3s-3.205,1.306-3.449,3h-1.102c-0.244-1.694-1.688-3-3.449-3s-3.205,1.306-3.449,3H31v1h3.051    c0.244,1.693,1.688,3,3.449,3s3.205-1.307,3.449-3h1.102c0.244,1.693,1.688,3,3.449,3s3.205-1.307,3.449-3H51v1h11v-1h4.051    c0.244,1.693,1.688,3,3.449,3s3.205-1.307,3.449-3H77v-3h-1V276z M37.5,285c-1.379,0-2.5-1.121-2.5-2.5s1.121-2.5,2.5-2.5    s2.5,1.121,2.5,2.5S38.879,285,37.5,285z M45.5,285c-1.379,0-2.5-1.121-2.5-2.5s1.121-2.5,2.5-2.5s2.5,1.121,2.5,2.5    S46.879,285,45.5,285z M67.279,272l0.666,2H63v-2h3.586H67.279z M59,283h-7v-3h7V283z M61,283h-1v-3h1V283z M69.5,285    c-1.379,0-2.5-1.121-2.5-2.5s1.121-2.5,2.5-2.5s2.5,1.121,2.5,2.5S70.879,285,69.5,285z M75,282h-2.051    c-0.244-1.694-1.688-3-3.449-3s-3.205,1.306-3.449,3H62v-3h-5v-11h5.586l3,3H62v4h6.86l6.14,1.754V282z"/>
		<rect x="35" y="268" width="1" height="1"/>
		<rect x="37" y="268" width="14" height="1"/>
		<circle cx="37.5" cy="282.5" r="1.5"/>
		<circle cx="45.5" cy="282.5" r="1.5"/>
		<circle cx="69.5" cy="282.5" r="1.5"/>
	</g>
	
    </g>
</svg>
