<?xml version="1.0" encoding="iso-8859-1"?>
<!DOCTYPE svg PUBLIC "-//W3C//DTD SVG 1.1//EN" "http://www.w3.org/Graphics/SVG/1.1/DTD/svg11.dtd">
<svg version="1.1" xmlns="http://www.w3.org/2000/svg" xmlns:xlink="http://www.w3.org/1999/xlink" x="0px" y="0px" width="30" height="30" viewBox="0 0 30 30" xml:space="preserve">
    <g transform="translate(-210 -140)">
        <g xmlns="http://www.w3.org/2000/svg" xmlns:xlink="http://www.w3.org/1999/xlink" id="truck-7">
		<path d="M217,165c1.657,0,3-1.343,3-3h10c0,1.657,1.344,3,3,3c1.657,0,3-1.343,3-3h3v-2h-1v-4l-6-1l-2-5h-8v5h-10v5h-1v2h3    C214,163.657,215.344,165,217,165z M217,164c-1.104,0-2-0.896-2-2s0.896-2,2-2c1.105,0,2,0.896,2,2S218.105,164,217,164z M233,164    c-1.104,0-2-0.896-2-2s0.896-2,2-2c1.105,0,2,0.896,2,2S234.105,164,233,164z M224,151h5.323l1.601,4H224V151z M213,156h18.92    l5.08,0.847V161h-1.184c-0.412-1.163-1.512-2-2.816-2c-1.304,0-2.402,0.837-2.816,2h-10.367c-0.412-1.163-1.512-2-2.816-2    c-1.304,0-2.402,0.837-2.816,2H213V156z"/>
	</g>
	
    </g>
</svg>
