<?xml version="1.0" encoding="iso-8859-1"?>
<!DOCTYPE svg PUBLIC "-//W3C//DTD SVG 1.1//EN" "http://www.w3.org/Graphics/SVG/1.1/DTD/svg11.dtd">
<svg version="1.1" xmlns="http://www.w3.org/2000/svg" xmlns:xlink="http://www.w3.org/1999/xlink" x="0px" y="0px" width="30" height="30" viewBox="0 0 30 30" xml:space="preserve">
    <g transform="translate(-570 -80)">
        <g xmlns="http://www.w3.org/2000/svg" xmlns:xlink="http://www.w3.org/1999/xlink" id="van-7">
		<path d="M577,106c1.657,0,3-1.343,3-3h10c0,1.657,1.343,3,3,3s3-1.343,3-3h2v-8l-5-8h-21v16h2C574,104.657,575.343,106,577,106z     M577,105c-1.103,0-2-0.897-2-2s0.897-2,2-2s2,0.897,2,2S578.103,105,577,105z M593,105c-1.103,0-2-0.897-2-2s0.897-2,2-2    s2,0.897,2,2S594.103,105,593,105z M588,88h4.445l4.376,7H588V88z M573,88h14v8h10v6h-1.184c-0.413-1.163-1.512-2-2.816-2    s-2.403,0.837-2.816,2h-10.367c-0.413-1.163-1.512-2-2.816-2s-2.403,0.837-2.816,2H573V88z"/>
	</g>
	
    </g>
</svg>
