<?xml version="1.0" encoding="iso-8859-1"?>
<!DOCTYPE svg PUBLIC "-//W3C//DTD SVG 1.1//EN" "http://www.w3.org/Graphics/SVG/1.1/DTD/svg11.dtd">
<svg version="1.1" xmlns="http://www.w3.org/2000/svg" xmlns:xlink="http://www.w3.org/1999/xlink" x="0px" y="0px" width="30" height="30" viewBox="0 0 30 30" xml:space="preserve">
    <g transform="translate(-90 -320)">
        <g xmlns="http://www.w3.org/2000/svg" xmlns:xlink="http://www.w3.org/1999/xlink" id="wooden-box-plus-7">
		<path d="M114,335.15V324H91v23h8h7.51c1.369,1.818,3.539,3,5.99,3c4.143,0,7.5-3.357,7.5-7.5    C120,338.871,117.424,335.846,114,335.15z M113,335.025c-0.166-0.011-0.331-0.025-0.5-0.025c-2.176,0-4.13,0.933-5.5,2.413v-2.171    l6-6V335.025z M107,325h1.758L107,326.758V325z M99,325h7v2.758l-7,7V325z M92,325h6v10.758l-6,6V325z M98,346h-1.758L98,344.242    V346z M94.828,346H92v-2.828L110.172,325H113v2.828L94.828,346z M99,346v-2.758l7-7v2.526c-0.633,1.1-1,2.372-1,3.731    c0,1.265,0.316,2.455,0.869,3.5H99z M112.5,349c-3.59,0-6.5-2.91-6.5-6.5s2.91-6.5,6.5-6.5s6.5,2.91,6.5,6.5S116.09,349,112.5,349    z"/>
		<polygon points="113,342 113,338 112,338 112,342 108,342 108,343 112,343 112,347 113,347 113,346 113,343 117,343 117,342   "/>
	</g>
	
    </g>
</svg>
