<?xml version="1.0" encoding="iso-8859-1"?>
<!DOCTYPE svg PUBLIC "-//W3C//DTD SVG 1.1//EN" "http://www.w3.org/Graphics/SVG/1.1/DTD/svg11.dtd">
<svg version="1.1" xmlns="http://www.w3.org/2000/svg" xmlns:xlink="http://www.w3.org/1999/xlink" x="0px" y="0px" width="30" height="30" viewBox="0 0 30 30" xml:space="preserve">
    <g transform="translate(-270 -320)">
        <g xmlns="http://www.w3.org/2000/svg" xmlns:xlink="http://www.w3.org/1999/xlink" id="wooden-box-tick-7">
		<path d="M294,335.15V324h-23v23h8h7.51c1.369,1.818,3.539,3,5.99,3c4.143,0,7.5-3.357,7.5-7.5    C300,338.871,297.424,335.846,294,335.15z M293,335.025c-0.166-0.011-0.331-0.025-0.5-0.025c-2.176,0-4.13,0.933-5.5,2.413v-2.171    l6-6V335.025z M287,325h1.758L287,326.758V325z M279,325h7v2.758l-7,7V325z M272,325h6v10.758l-6,6V325z M278,346h-1.758    l1.758-1.758V346z M274.828,346H272v-2.828L290.172,325H293v2.828L274.828,346z M279,346v-2.758l7-7v2.526    c-0.633,1.1-1,2.372-1,3.731c0,1.265,0.316,2.455,0.869,3.5H279z M292.5,349c-3.59,0-6.5-2.91-6.5-6.5s2.91-6.5,6.5-6.5    s6.5,2.91,6.5,6.5S296.09,349,292.5,349z"/>
		<polygon points="291.086,344.268 288.965,342.146 288.258,342.854 291.086,345.682 296.742,340.025 296.035,339.318   "/>
	</g>
	
    </g>
</svg>
