<?xml version="1.0" encoding="iso-8859-1"?>
<!DOCTYPE svg PUBLIC "-//W3C//DTD SVG 1.1//EN" "http://www.w3.org/Graphics/SVG/1.1/DTD/svg11.dtd">
<svg version="1.1" xmlns="http://www.w3.org/2000/svg" xmlns:xlink="http://www.w3.org/1999/xlink" x="0px" y="0px" width="30" height="30" viewBox="0 0 30 30" xml:space="preserve">
    <g transform="translate(-150 -320)">
        <g xmlns="http://www.w3.org/2000/svg" xmlns:xlink="http://www.w3.org/1999/xlink" id="wooden-box-minus-7">
		<path d="M174,335.15V324h-23v23h8h7.51c1.369,1.818,3.539,3,5.99,3c4.143,0,7.5-3.357,7.5-7.5    C180,338.871,177.424,335.846,174,335.15z M173,335.025c-0.166-0.011-0.331-0.025-0.5-0.025c-2.176,0-4.13,0.933-5.5,2.413v-2.171    l6-6V335.025z M167,325h1.758L167,326.758V325z M159,325h7v2.758l-7,7V325z M152,325h6v10.758l-6,6V325z M158,346h-1.758    l1.758-1.758V346z M154.828,346H152v-2.828L170.172,325H173v2.828L154.828,346z M159,346v-2.758l7-7v2.526    c-0.633,1.1-1,2.372-1,3.731c0,1.265,0.316,2.455,0.869,3.5H159z M172.5,349c-3.59,0-6.5-2.91-6.5-6.5s2.91-6.5,6.5-6.5    s6.5,2.91,6.5,6.5S176.09,349,172.5,349z"/>
		<rect x="168" y="342" width="9" height="1"/>
	</g>
	
    </g>
</svg>
