<?xml version="1.0" encoding="iso-8859-1"?>
<!DOCTYPE svg PUBLIC "-//W3C//DTD SVG 1.1//EN" "http://www.w3.org/Graphics/SVG/1.1/DTD/svg11.dtd">
<svg version="1.1" xmlns="http://www.w3.org/2000/svg" xmlns:xlink="http://www.w3.org/1999/xlink" x="0px" y="0px" width="30" height="30" viewBox="0 0 30 30" xml:space="preserve">
    <g transform="translate(-210 -320)">
        <g xmlns="http://www.w3.org/2000/svg" xmlns:xlink="http://www.w3.org/1999/xlink" id="wooden-box-star-7">
		<path d="M234,335.15V324h-23v23h8h7.51c1.369,1.818,3.539,3,5.99,3c4.143,0,7.5-3.357,7.5-7.5    C240,338.871,237.424,335.846,234,335.15z M233,335.025c-0.166-0.011-0.331-0.025-0.5-0.025c-2.176,0-4.13,0.933-5.5,2.413v-2.171    l6-6V335.025z M227,325h1.758L227,326.758V325z M219,325h7v2.758l-7,7V325z M212,325h6v10.758l-6,6V325z M218,346h-1.758    l1.758-1.758V346z M214.828,346H212v-2.828L230.172,325H233v2.828L214.828,346z M219,346v-2.758l7-7v2.526    c-0.633,1.1-1,2.372-1,3.731c0,1.265,0.316,2.455,0.869,3.5H219z M232.5,349c-3.59,0-6.5-2.91-6.5-6.5s2.91-6.5,6.5-6.5    s6.5,2.91,6.5,6.5S236.09,349,232.5,349z"/>
		<polygon points="233.568,341 232.5,337.785 231.43,341 228,341 230.768,343.078 229.717,346.344 232.5,344.336 235.278,346.344     234.23,343.078 237,341   "/>
	</g>
	
    </g>
</svg>
