<?xml version="1.0" encoding="iso-8859-1"?>
<!DOCTYPE svg PUBLIC "-//W3C//DTD SVG 1.1//EN" "http://www.w3.org/Graphics/SVG/1.1/DTD/svg11.dtd">
<svg version="1.1" xmlns="http://www.w3.org/2000/svg" xmlns:xlink="http://www.w3.org/1999/xlink" x="0px" y="0px" width="29" height="30" viewBox="0 0 29 30" xml:space="preserve">
    <g transform="translate(-30 -320)">
        <g xmlns="http://www.w3.org/2000/svg" xmlns:xlink="http://www.w3.org/1999/xlink" id="wooden-box-7">
		<path d="M56,324H33v23h8h15V324z M49,325h1.758L49,326.758V325z M41,325h7v2.758l-7,7V325z M34,325h6v10.758l-6,6V325z M40,346    h-1.758L40,344.242V346z M48,346h-7v-2.758l7-7V346z M55,346h-6v-10.758l6-6V346z M55,327.828L36.828,346H34v-2.828L52.172,325H55    V327.828z"/>
	</g>
	
    </g>
</svg>
